<svg width="75" height="77" viewBox="0 0 75 77" fill="none" xmlns="http://www.w3.org/2000/svg">
<mask id="path-1-outside-1_991_954" maskUnits="userSpaceOnUse" x="0" y="0" width="63" height="77" fill="black">
<rect fill="white" width="63" height="77"/>
<path d="M61.2775 7.78315H48.2508V1.84789C48.2508 1.38541 47.8654 1 47.4029 1H35.0699C34.6074 1 34.222 1.38541 34.222 1.84789V7.78315H15.1059V3.23535V3.08119V3.00411V2.92703V2.84995V2.77287C15.1059 2.77287 15.1059 2.77287 15.0288 2.69579C15.0288 2.69579 15.0288 2.69579 14.9517 2.61871L14.8746 2.54162C13.4101 1.53957 11.7143 1 9.94142 1C5.00822 1.07708 1 5.00822 1 9.86434V60.0442C1 64.9003 4.93114 68.8315 9.78726 68.8315H34.2991V75.1521C34.2991 75.6146 34.6845 76 35.147 76H47.48C47.9424 76 48.3279 75.6146 48.3279 75.1521V68.8315H61.3546C61.8171 68.8315 62.2025 68.446 62.2025 67.9836V8.63104C62.0483 8.16855 61.6629 7.78315 61.2775 7.78315ZM2.61871 9.86434C2.61871 5.85612 5.85612 2.69579 9.78726 2.69579C11.0976 2.69579 12.408 3.08119 13.4872 3.69784V52.1819C12.3309 51.6423 11.0976 51.334 9.78726 51.334C6.78109 51.334 4.16033 52.7986 2.61871 55.111V9.86434ZM9.78726 67.2898C5.85612 67.2898 2.61871 64.0524 2.61871 60.1213C2.61871 56.1901 5.85612 52.9527 9.78726 52.9527C11.2518 52.9527 12.6393 53.4152 13.8726 54.186C13.8726 54.186 13.9496 54.2631 14.0267 54.2631C14.1038 54.2631 14.258 54.3402 14.335 54.3402C14.4121 54.3402 14.4121 54.3402 14.4892 54.3402C14.4892 54.3402 14.4892 54.3402 14.5663 54.3402H14.6434C14.6434 54.3402 14.6434 54.3402 14.7205 54.3402H14.7975C14.7975 54.3402 14.7975 54.3402 14.8746 54.2631C14.8746 54.2631 14.9517 54.2631 14.9517 54.186L15.0288 54.1089C15.0288 54.0319 15.1059 54.0319 15.1059 53.9548V53.8777V53.8006C15.1059 53.7235 15.1059 53.7235 15.1059 53.6465V9.40185H34.2991V67.444L9.78726 67.2898ZM35.8407 73.6105V2.69579H46.6321V11.6372H41.6218C41.1593 11.6372 40.7739 12.0226 40.7739 12.4851C40.7739 12.9476 41.1593 13.333 41.6218 13.333H46.6321V20.1932H43.703C43.2405 20.1932 42.8551 20.5786 42.8551 21.0411C42.8551 21.5036 43.2405 21.889 43.703 21.889H46.6321V28.7492H41.6218C41.1593 28.7492 40.7739 29.1346 40.7739 29.5971C40.7739 30.0596 41.1593 30.445 41.6218 30.445H46.6321V37.3052H43.703C43.2405 37.3052 42.8551 37.6907 42.8551 38.1531C42.8551 38.6156 43.2405 39.001 43.703 39.001H46.6321V45.8613H41.6218C41.1593 45.8613 40.7739 46.2467 40.7739 46.7091C40.7739 47.1716 41.1593 47.557 41.6218 47.557H46.6321V54.4173H43.703C43.2405 54.4173 42.8551 54.8027 42.8551 55.2652C42.8551 55.7276 43.2405 56.1131 43.703 56.1131H46.6321V62.9733H41.6218C41.1593 62.9733 40.7739 63.3587 40.7739 63.8212C40.7739 64.2837 41.1593 64.6691 41.6218 64.6691H46.6321V74.4584H35.8407V73.6105ZM48.2508 9.32477H60.5838V67.2898H48.2508V9.32477Z"/>
</mask>
<path d="M61.2775 7.78315H48.2508V1.84789C48.2508 1.38541 47.8654 1 47.4029 1H35.0699C34.6074 1 34.222 1.38541 34.222 1.84789V7.78315H15.1059V3.23535V3.08119V3.00411V2.92703V2.84995V2.77287C15.1059 2.77287 15.1059 2.77287 15.0288 2.69579C15.0288 2.69579 15.0288 2.69579 14.9517 2.61871L14.8746 2.54162C13.4101 1.53957 11.7143 1 9.94142 1C5.00822 1.07708 1 5.00822 1 9.86434V60.0442C1 64.9003 4.93114 68.8315 9.78726 68.8315H34.2991V75.1521C34.2991 75.6146 34.6845 76 35.147 76H47.48C47.9424 76 48.3279 75.6146 48.3279 75.1521V68.8315H61.3546C61.8171 68.8315 62.2025 68.446 62.2025 67.9836V8.63104C62.0483 8.16855 61.6629 7.78315 61.2775 7.78315ZM2.61871 9.86434C2.61871 5.85612 5.85612 2.69579 9.78726 2.69579C11.0976 2.69579 12.408 3.08119 13.4872 3.69784V52.1819C12.3309 51.6423 11.0976 51.334 9.78726 51.334C6.78109 51.334 4.16033 52.7986 2.61871 55.111V9.86434ZM9.78726 67.2898C5.85612 67.2898 2.61871 64.0524 2.61871 60.1213C2.61871 56.1901 5.85612 52.9527 9.78726 52.9527C11.2518 52.9527 12.6393 53.4152 13.8726 54.186C13.8726 54.186 13.9496 54.2631 14.0267 54.2631C14.1038 54.2631 14.258 54.3402 14.335 54.3402C14.4121 54.3402 14.4121 54.3402 14.4892 54.3402C14.4892 54.3402 14.4892 54.3402 14.5663 54.3402H14.6434C14.6434 54.3402 14.6434 54.3402 14.7205 54.3402H14.7975C14.7975 54.3402 14.7975 54.3402 14.8746 54.2631C14.8746 54.2631 14.9517 54.2631 14.9517 54.186L15.0288 54.1089C15.0288 54.0319 15.1059 54.0319 15.1059 53.9548V53.8777V53.8006C15.1059 53.7235 15.1059 53.7235 15.1059 53.6465V9.40185H34.2991V67.444L9.78726 67.2898ZM35.8407 73.6105V2.69579H46.6321V11.6372H41.6218C41.1593 11.6372 40.7739 12.0226 40.7739 12.4851C40.7739 12.9476 41.1593 13.333 41.6218 13.333H46.6321V20.1932H43.703C43.2405 20.1932 42.8551 20.5786 42.8551 21.0411C42.8551 21.5036 43.2405 21.889 43.703 21.889H46.6321V28.7492H41.6218C41.1593 28.7492 40.7739 29.1346 40.7739 29.5971C40.7739 30.0596 41.1593 30.445 41.6218 30.445H46.6321V37.3052H43.703C43.2405 37.3052 42.8551 37.6907 42.8551 38.1531C42.8551 38.6156 43.2405 39.001 43.703 39.001H46.6321V45.8613H41.6218C41.1593 45.8613 40.7739 46.2467 40.7739 46.7091C40.7739 47.1716 41.1593 47.557 41.6218 47.557H46.6321V54.4173H43.703C43.2405 54.4173 42.8551 54.8027 42.8551 55.2652C42.8551 55.7276 43.2405 56.1131 43.703 56.1131H46.6321V62.9733H41.6218C41.1593 62.9733 40.7739 63.3587 40.7739 63.8212C40.7739 64.2837 41.1593 64.6691 41.6218 64.6691H46.6321V74.4584H35.8407V73.6105ZM48.2508 9.32477H60.5838V67.2898H48.2508V9.32477Z" fill="#1A3E2F"/>
<path d="M61.2775 7.78315H48.2508V1.84789C48.2508 1.38541 47.8654 1 47.4029 1H35.0699C34.6074 1 34.222 1.38541 34.222 1.84789V7.78315H15.1059V3.23535V3.08119V3.00411V2.92703V2.84995V2.77287C15.1059 2.77287 15.1059 2.77287 15.0288 2.69579C15.0288 2.69579 15.0288 2.69579 14.9517 2.61871L14.8746 2.54162C13.4101 1.53957 11.7143 1 9.94142 1C5.00822 1.07708 1 5.00822 1 9.86434V60.0442C1 64.9003 4.93114 68.8315 9.78726 68.8315H34.2991V75.1521C34.2991 75.6146 34.6845 76 35.147 76H47.48C47.9424 76 48.3279 75.6146 48.3279 75.1521V68.8315H61.3546C61.8171 68.8315 62.2025 68.446 62.2025 67.9836V8.63104C62.0483 8.16855 61.6629 7.78315 61.2775 7.78315ZM2.61871 9.86434C2.61871 5.85612 5.85612 2.69579 9.78726 2.69579C11.0976 2.69579 12.408 3.08119 13.4872 3.69784V52.1819C12.3309 51.6423 11.0976 51.334 9.78726 51.334C6.78109 51.334 4.16033 52.7986 2.61871 55.111V9.86434ZM9.78726 67.2898C5.85612 67.2898 2.61871 64.0524 2.61871 60.1213C2.61871 56.1901 5.85612 52.9527 9.78726 52.9527C11.2518 52.9527 12.6393 53.4152 13.8726 54.186C13.8726 54.186 13.9496 54.2631 14.0267 54.2631C14.1038 54.2631 14.258 54.3402 14.335 54.3402C14.4121 54.3402 14.4121 54.3402 14.4892 54.3402C14.4892 54.3402 14.4892 54.3402 14.5663 54.3402H14.6434C14.6434 54.3402 14.6434 54.3402 14.7205 54.3402H14.7975C14.7975 54.3402 14.7975 54.3402 14.8746 54.2631C14.8746 54.2631 14.9517 54.2631 14.9517 54.186L15.0288 54.1089C15.0288 54.0319 15.1059 54.0319 15.1059 53.9548V53.8777V53.8006C15.1059 53.7235 15.1059 53.7235 15.1059 53.6465V9.40185H34.2991V67.444L9.78726 67.2898ZM35.8407 73.6105V2.69579H46.6321V11.6372H41.6218C41.1593 11.6372 40.7739 12.0226 40.7739 12.4851C40.7739 12.9476 41.1593 13.333 41.6218 13.333H46.6321V20.1932H43.703C43.2405 20.1932 42.8551 20.5786 42.8551 21.0411C42.8551 21.5036 43.2405 21.889 43.703 21.889H46.6321V28.7492H41.6218C41.1593 28.7492 40.7739 29.1346 40.7739 29.5971C40.7739 30.0596 41.1593 30.445 41.6218 30.445H46.6321V37.3052H43.703C43.2405 37.3052 42.8551 37.6907 42.8551 38.1531C42.8551 38.6156 43.2405 39.001 43.703 39.001H46.6321V45.8613H41.6218C41.1593 45.8613 40.7739 46.2467 40.7739 46.7091C40.7739 47.1716 41.1593 47.557 41.6218 47.557H46.6321V54.4173H43.703C43.2405 54.4173 42.8551 54.8027 42.8551 55.2652C42.8551 55.7276 43.2405 56.1131 43.703 56.1131H46.6321V62.9733H41.6218C41.1593 62.9733 40.7739 63.3587 40.7739 63.8212C40.7739 64.2837 41.1593 64.6691 41.6218 64.6691H46.6321V74.4584H35.8407V73.6105ZM48.2508 9.32477H60.5838V67.2898H48.2508V9.32477Z" stroke="#1A3E2F" stroke-width="0.6" mask="url(#path-1-outside-1_991_954)"/>
<path d="M71.4197 61.0561L71.4299 61.0419H71.4691L71.51 60.9567L74.2078 55.3298L74.2225 55.299V55.2886C74.2328 55.2782 74.2512 55.2588 74.2662 55.2337C74.2871 55.1989 74.2996 55.1578 74.2996 55.1108V55.0337V18.4972V18.4824L74.2967 18.4678C74.2262 18.1152 74.081 17.7602 73.7601 17.6195V16.8785C73.7601 15.3339 72.5395 14.0307 70.9122 14.0307H68.5998C67.0552 14.0307 65.7519 15.2513 65.7519 16.8785V17.6194C65.4317 17.7591 65.2895 18.1079 65.2895 18.4201V54.9566V55.0337V55.1108C65.2895 55.1131 65.2894 55.1157 65.2894 55.1184C65.2891 55.1481 65.2886 55.2023 65.3149 55.2549C65.3286 55.2822 65.3461 55.3035 65.3605 55.3195C65.3694 55.3294 65.3797 55.3401 65.3907 55.3512L67.8371 60.8555C67.8402 60.8723 67.8462 60.8956 67.8586 60.9204C67.8723 60.9478 67.8952 60.9798 67.9324 61.0046C67.945 61.013 67.9582 61.0199 67.9719 61.0254C68.374 61.5672 68.9428 61.9668 69.6789 61.9668C70.4248 61.9668 71.0083 61.632 71.4197 61.0561ZM68.8097 49.1904L68.8098 49.1902L68.8014 49.1874C68.5491 49.1033 68.2744 49.0944 68.0723 49.1945C68.0716 49.1948 68.0709 49.1952 68.0702 49.1955L67.1311 49.6337V24.2741H72.3038V49.3226L71.0523 50.0875L68.8097 49.1904ZM70.7794 52.0126L70.7793 52.0129L70.7877 52.0157C71.0506 52.1033 71.3309 52.1068 71.6082 51.9237L72.3038 51.5179V54.0358H67.2082V51.7371L68.5278 51.112L70.7794 52.0126ZM71.755 55.8774L71.2795 56.8878H68.0836L67.6675 55.8774H71.755ZM72.3038 19.3409V22.2784H67.1311V19.3409H72.3038ZM68.5998 15.9494H70.9122C71.446 15.9494 71.8414 16.3447 71.8414 16.8785V17.4222H67.6706V16.8785C67.6706 16.3515 68.1361 15.9494 68.5998 15.9494ZM69.6789 60.1252C69.6406 60.1252 69.6153 60.1249 69.5831 60.1185C69.5592 60.1137 69.5284 60.1048 69.4865 60.0868L68.9799 58.8836H70.4439L69.8747 60.0853C69.8311 60.1043 69.7992 60.1136 69.7748 60.1185C69.7426 60.1249 69.7172 60.1252 69.6789 60.1252Z" fill="#1A3E2F" stroke="#1A3E2F" stroke-width="0.3"/>
</svg>
