<svg width="39" height="37" viewBox="0 0 39 37" fill="none" xmlns="http://www.w3.org/2000/svg">
<path d="M29.2516 31.1611C29.4007 31.6668 29.5369 32.1725 29.7055 32.6652C29.8481 33.0802 29.8222 33.4692 29.6471 33.8582C29.485 34.2277 29.2516 34.2861 28.9274 34.0592C28.8043 33.9749 28.7005 33.8712 28.6487 33.735C28.4801 33.3006 28.1494 33.0543 27.715 32.8986C27.1899 32.7041 26.9241 32.7625 26.5869 33.2034C26.4897 33.3266 26.5026 33.4433 26.5545 33.5729C26.6388 33.7739 26.6583 33.9814 26.6388 34.1953C26.6194 34.4936 26.4832 34.7335 26.1914 34.8307C25.9127 34.928 25.7052 34.7724 25.5366 34.5714C25.3227 34.312 25.1217 34.0333 24.8883 33.722C24.7067 34.1694 24.6354 34.5779 24.5965 34.9928C24.5771 35.2327 24.5252 35.4596 24.4344 35.68C24.3242 35.9394 24.2075 36.2506 23.8639 36.1728C23.5592 36.1015 23.4036 35.8292 23.4036 35.5115C23.4036 34.8891 23.3517 34.2731 23.3323 33.6572C23.3063 32.8144 23.3193 31.9715 23.3258 31.1287C23.3258 30.8434 23.2998 30.5711 23.1767 30.3183C22.9173 29.7866 22.6969 29.2355 22.5478 28.6585C22.5089 28.5159 22.47 28.3992 22.2819 28.5159C20.8686 29.3976 19.4292 30.2404 17.9575 31.0185C17.4583 31.2843 16.9526 31.5307 16.4339 31.7641C15.6818 32.1077 14.9492 32.5032 14.2231 32.8986C13.5229 33.2812 12.8032 33.6442 12.1743 34.1564C11.9539 34.338 11.6556 34.4093 11.3509 34.3898C11.137 34.3769 10.9619 34.312 10.9165 34.0721C10.8776 33.8517 10.9619 33.722 11.1694 33.5989C12.505 32.8014 13.8665 32.0299 15.2539 31.3297C15.2863 31.3167 15.3058 31.2778 15.3317 31.2519C15.3058 31.2324 15.2799 31.2 15.2734 31.2065C14.5083 31.589 13.6525 31.7446 12.9329 32.2309C12.3429 32.6263 11.6556 32.8468 10.9943 33.0996C10.6572 33.2293 10.3719 33.4238 10.0607 33.5989C9.13359 34.124 8.25184 34.714 7.409 35.3688C7.04593 35.6476 6.65044 35.894 6.2744 36.1598C6.02803 36.3284 5.81408 36.3154 5.60661 36.095C5.40563 35.8745 5.39915 35.6541 5.56771 35.4142C5.87243 34.9733 6.33275 34.701 6.70879 34.3055C6.58561 34.2018 6.45594 34.2731 6.35221 34.325C5.46398 34.7399 4.52388 34.9798 3.59676 35.2845C3.00028 35.479 2.43622 35.7902 1.77491 35.7513C1.30162 35.7254 1.07471 35.4272 1.22382 34.9928C1.25624 34.8891 1.41185 34.7918 1.28218 34.6816C1.19789 34.6103 1.08768 34.7075 0.983942 34.727C0.86724 34.7529 0.750538 34.7788 0.633837 34.7918C0.342083 34.8177 0.16703 34.6557 0.0503289 34.4093C-0.072856 34.1435 0.0438439 33.936 0.251313 33.7934C1.54151 32.9311 2.50106 31.6538 3.88202 30.9018C4.4396 30.597 4.84805 30.0978 5.36673 29.7347C6.2744 29.0994 7.26636 28.6066 8.18701 27.9907C8.7381 27.6212 9.31512 27.271 9.6782 26.6746C9.85325 26.3893 10.1515 26.2143 10.4432 26.0716C10.7415 25.9225 10.8841 25.728 10.9165 25.3714C11.0138 24.3794 11.0916 23.381 11.3769 22.415C11.5843 21.6953 11.9344 21.0535 12.291 20.4116C13.0431 19.0566 13.8924 17.7534 14.5926 16.3659C14.9362 15.6852 15.3771 15.0563 15.7661 14.4015C16.019 13.9736 16.2329 13.5197 16.4858 13.0918C17.2962 11.7044 18.3271 10.4985 19.4033 9.33144C20.3823 8.27464 21.4715 7.34752 22.7228 6.62786C23.8445 5.97952 24.9985 5.39601 26.3535 5.45436C26.5675 5.46084 26.6453 5.37008 26.6518 5.14964C26.6907 3.90482 27.0862 2.77671 27.7799 1.74585C28.6487 0.449166 30.4964 -0.419614 31.9876 0.209278C32.824 0.559382 33.6279 1.09751 34.0234 1.99222C34.393 2.83506 34.9959 3.31483 35.8777 3.54824C36.6297 3.74274 37.3429 4.04098 38.1533 3.92428C38.5359 3.87241 38.7952 4.44295 38.6072 4.86437C38.5164 5.07184 38.3608 5.25338 38.1274 5.29876C37.1095 5.50623 36.0916 5.70722 35.0478 5.66832C34.8662 5.66832 34.7236 5.69425 34.6718 5.8693C34.4902 6.51764 34.0299 6.98444 33.6279 7.48367C33.3621 7.81432 33.3362 8.13201 33.388 8.50805C33.4788 9.16287 33.6798 9.79177 33.9002 10.4142C34.5875 12.3592 34.2374 14.1875 33.388 15.9964C32.8045 17.2347 32.0071 18.3175 31.1902 19.4002C30.1917 20.7228 29.1284 21.9935 28.0911 23.2837C27.6048 23.8867 27.4622 24.3405 27.8447 25.0213C28.143 25.5594 28.2726 26.1883 28.2986 26.8107C28.3245 27.4461 28.7459 27.7054 29.2192 27.9064C30.0685 28.263 30.9568 28.5094 31.8839 28.5742C32.3572 28.6066 32.8305 28.6326 33.2648 28.853C33.7057 29.0799 33.602 29.1058 33.5112 29.7542C33.4594 30.0978 33.1741 30.0265 32.9147 30.007C32.1886 29.9487 31.4754 30.0978 30.7493 30.0913C30.665 30.0913 30.5548 30.1173 30.5353 30.2275C30.5224 30.3183 30.6066 30.3572 30.665 30.409C30.8725 30.5906 31.0864 30.7656 31.3328 30.8953C31.9422 31.2194 31.8579 31.6733 31.6505 32.1401C31.5403 32.3994 31.255 32.4189 31.0799 32.2568C30.5613 31.7705 29.8481 31.6084 29.2646 31.1805L29.2516 31.1611ZM24.5252 23.77C24.6095 23.6598 24.5836 23.5561 24.5965 23.4523C24.6549 22.979 24.8494 22.7845 25.193 22.8364C25.5107 22.8883 25.6533 23.1865 25.5626 23.6209C25.4977 23.9321 25.4459 24.2433 25.4718 24.561C25.4783 24.6712 25.4977 24.7814 25.6598 24.7101C26.1461 24.5026 26.3859 23.9386 26.1979 23.4458C26.0553 23.0892 25.8802 22.7456 25.8608 22.3566C25.8413 22.0713 25.984 21.8704 26.2692 21.812C26.548 21.7601 26.7296 21.8768 26.8009 22.1556C26.8203 22.2334 26.8463 22.3048 26.8722 22.3826C26.937 22.5771 26.9435 22.8558 27.1704 22.8947C27.3649 22.9272 27.4687 22.6678 27.6113 22.5317C27.6178 22.5252 27.6308 22.5122 27.6372 22.4993C28.4023 21.5462 29.1997 20.6191 29.9324 19.6466C30.9503 18.3045 31.9941 16.9819 32.636 15.3934C33.1222 14.1875 33.4723 12.9881 33.213 11.672C33.025 10.7254 32.623 9.84363 32.4155 8.90354C32.3896 8.80629 32.3312 8.74145 32.221 8.74145C31.7477 8.75442 31.3717 8.43673 30.9308 8.32651C30.7169 8.27465 30.5807 8.08663 30.6326 7.83377C30.6844 7.5874 30.8854 7.56147 31.0929 7.55499C31.7866 7.52905 32.3766 7.30213 32.8175 6.74456C32.9083 6.62786 33.012 6.52413 33.1222 6.43336C33.3621 6.23237 33.388 6.07029 33.1222 5.8304C32.7851 5.52568 32.8499 5.03942 33.2519 4.8903C33.6539 4.74767 33.6085 4.48185 33.5955 4.16416C33.5631 3.41209 33.0703 2.8221 32.7786 2.19321C32.4739 1.53838 31.7023 1.15586 30.9243 1.09751C30.2047 1.03916 29.5434 1.31794 29.0312 1.83662C28.3115 2.56276 27.8058 3.42505 27.6372 4.43647C27.5594 4.8903 27.4298 5.40898 27.9873 5.73963C28.1883 5.85633 28.1559 6.10919 28.0781 6.31666C27.9938 6.53061 27.8512 6.66676 27.6113 6.68621C27.3196 6.71214 27.0343 6.64731 26.7555 6.57599C26.4508 6.4917 26.1396 6.42687 25.8219 6.47874C24.5641 6.67973 23.4295 7.17247 22.4246 7.95696C21.9578 8.32003 21.491 8.6831 21.0436 9.07211C20.2267 9.7788 19.4746 10.5568 18.7939 11.3996C17.8473 12.5667 17.1471 13.8958 16.382 15.1795C15.3577 16.8976 14.4824 18.6935 13.3802 20.3662C12.479 21.7277 12.1419 23.2513 12.116 24.8592C12.1095 25.4492 12.2586 25.5724 12.8551 25.4687C14.0415 25.2677 15.1632 24.9241 16.2264 24.3081C17.3546 23.6533 18.5281 23.0892 19.6043 22.3501C20.4925 21.7407 21.303 21.0275 22.1328 20.3403C23.5462 19.1668 24.7586 17.8247 25.6339 16.2103C26.5221 14.57 27.3844 12.9103 27.9096 11.1079C28.1754 10.1937 28.3375 9.26661 28.143 8.30706C28.0716 7.96344 27.8771 7.67817 27.7539 7.36049C27.6048 6.98445 27.8123 6.73159 28.2143 6.77698C28.5125 6.8094 28.6746 6.99741 28.7978 7.25026C29.5563 8.79332 29.1219 10.3169 28.6811 11.8211C28.4217 12.7028 27.9744 13.5132 27.5659 14.3366C27.0732 15.3221 26.6907 16.3659 26.0034 17.2542C25.6339 17.7339 25.4005 18.298 25.0504 18.7972C24.4733 19.6141 23.6694 20.2041 22.9886 20.9173C22.4959 21.436 21.9254 21.8704 21.3483 22.2723C20.2462 23.0309 19.1699 23.8413 17.964 24.4378C16.8359 24.9954 15.8504 25.8317 14.5991 26.1559C13.6396 26.4023 12.7643 26.9598 11.714 26.8756C11.4417 26.8561 11.2212 27.0247 11.0138 27.1997C10.3979 27.7119 9.82083 28.276 9.09469 28.639C8.57601 28.8984 8.16108 29.3133 7.62295 29.5532C6.9033 29.8709 6.1966 30.2016 5.58068 30.7137C4.99717 31.2 4.4396 31.7187 3.78478 32.1271C3.1883 32.4967 2.67611 33.0089 2.1315 33.4627C2.51402 33.359 2.92896 33.534 3.2661 33.2876C4.3229 32.5291 5.35376 31.7316 6.37814 30.9342C7.55812 30.02 8.83535 29.2679 10.0866 28.464C10.2293 28.3732 10.3979 28.3214 10.5599 28.2695C10.8128 28.1852 11.0073 28.2954 11.1175 28.5159C11.2277 28.7363 11.0592 28.8465 10.8906 28.9438C10.5535 29.1512 10.2358 29.3782 9.8727 29.5467C9.61336 29.6699 9.34754 29.7736 9.11414 29.9552C8.49173 30.4414 7.80449 30.824 7.20153 31.3426C6.64396 31.8159 6.01507 32.2049 5.41859 32.6393C5.36024 32.6847 5.23706 32.7106 5.28893 32.8727C5.42508 32.8403 5.56771 32.8144 5.70387 32.7755C7.14318 32.3151 8.57602 31.8548 10.0542 31.5371C11.2926 31.2778 12.4401 30.7267 13.6396 30.3247C14.2814 30.1108 14.9362 29.8968 15.5587 29.6505C16.1033 29.4365 16.6219 29.3976 17.1665 29.4106C17.4713 29.4106 17.6852 29.5532 17.6269 29.9033C17.588 30.1821 17.6917 30.1562 17.8797 30.0589C18.4178 29.7736 18.956 29.5013 19.4941 29.2226C20.2332 28.84 20.9075 28.3603 21.5947 27.8999C22.0096 27.6276 22.0032 27.5174 21.7373 27.096C21.5558 26.8042 21.3808 26.5125 21.2057 26.2207C21.0501 25.9549 21.076 25.715 21.3224 25.5205C21.5623 25.326 21.7633 25.4362 21.9513 25.6113C22.068 25.715 22.1588 25.8771 22.3208 25.8966C22.7358 25.9614 22.8849 26.2337 22.9303 26.6097C22.9627 26.882 23.0989 26.8626 23.2739 26.7264C23.5138 26.5384 23.7472 26.3439 24.0001 26.1818C24.2529 26.0197 24.2983 25.8252 24.2205 25.54C24.0649 24.9889 23.6694 24.6193 23.3128 24.2174C23.1313 24.0099 22.9886 23.7895 23.1831 23.556C23.3776 23.3226 23.6564 23.2189 23.9611 23.4199C24.1427 23.5366 24.3307 23.6533 24.5252 23.77ZM27.5141 27.3748C27.4557 26.6746 27.3131 26.0262 27.0213 25.4298C26.8592 25.0926 26.7166 24.8916 26.3795 25.339C26.2563 25.5076 26.0877 25.6437 25.9321 25.7863C25.7246 25.9679 25.7182 26.1689 25.77 26.4282C25.8997 27.096 26.2239 27.686 26.4573 28.3149C26.5415 28.5353 26.6193 28.7622 26.7425 28.9632C26.8528 29.1383 27.0084 29.1966 27.1186 28.9438C27.3455 28.4316 27.4298 27.887 27.5076 27.3813L27.5141 27.3748ZM25.1152 29.5856C25.0957 28.7363 24.8753 27.9194 24.7262 27.096C24.6873 26.882 24.5447 26.8756 24.415 27.0117C24.1751 27.2646 23.8898 27.4526 23.6046 27.6406C23.3517 27.8157 23.3387 28.0037 23.4036 28.2825C23.5397 28.9049 23.8315 29.4689 24.039 30.0654C24.1038 30.2534 24.2205 30.3377 24.415 30.3507C24.9077 30.3831 25.1346 30.1432 25.1152 29.5921V29.5856ZM29.3424 29.054C29.4202 29.054 29.5369 29.0994 29.5693 28.9762C29.5952 28.866 29.4915 28.8076 29.4007 28.7946C29.0636 28.7428 28.7394 28.6455 28.4282 28.5094C28.3245 28.464 28.2143 28.477 28.1624 28.5937C28.1041 28.7104 28.0587 28.84 28.1235 28.9697C28.1754 29.0669 28.2726 29.067 28.3634 29.0475C28.6876 28.9827 29.0117 28.9891 29.3424 29.0605V29.054Z" fill="#1A3E2F"/>
</svg>
