<svg width="269" height="35" viewBox="0 0 269 35" fill="none" xmlns="http://www.w3.org/2000/svg">
<path d="M1 18.8366C1.995 15.5773 3.77438 9.25956 4.32979 5.66748C4.50644 4.52502 5.30279 3.47527 6.44094 3.27269C9.35213 2.75452 13.4633 2.42714 15.4578 3.68545L12.3253 18.8366" stroke="#1A3E2F" stroke-width="2"/>
<path d="M9.91609 30.4045V14.9087C9.63496 14.4391 8.8197 13.5 7.80765 13.5C6.7956 13.5 5.98034 14.4391 5.69922 14.9087L7.31568 31.8133" stroke="#1A3E2F" stroke-width="2"/>
<path d="M43.9873 22.0837C43.9873 24.1655 43.3138 25.7241 41.9667 26.7595C40.6196 27.7948 38.7048 28.3125 36.2222 28.3125H29.2753V6.52002H35.8381C36.751 6.52002 37.6472 6.59795 38.5267 6.75381C39.4062 6.89853 40.191 7.17685 40.8813 7.58877C41.5826 8.00068 42.1504 8.57402 42.5846 9.30879C43.0188 10.0324 43.2358 10.9843 43.2358 12.1644C43.2358 14.4243 42.1059 15.9662 39.8459 16.79C42.6068 17.6361 43.9873 19.4007 43.9873 22.0837ZM40.948 12.1644C40.948 11.3962 40.7866 10.7672 40.4638 10.2773C40.1409 9.7875 39.729 9.41455 39.228 9.1585C38.7271 8.89131 38.176 8.71318 37.5748 8.62412C36.9736 8.52393 36.3947 8.47383 35.8381 8.47383H31.5631V15.8716H35.8381C36.4615 15.8716 37.0738 15.8271 37.675 15.738C38.2762 15.6378 38.8161 15.4541 39.2948 15.1869C39.7735 14.9086 40.1688 14.5301 40.4805 14.0514C40.7922 13.5727 40.948 12.9437 40.948 12.1644ZM41.6995 22.0837C41.6995 20.5808 41.2097 19.4897 40.23 18.8106C39.2614 18.1204 37.9255 17.7753 36.2222 17.7753H31.5631V26.3587H36.2222C37.9255 26.3587 39.2614 26.0024 40.23 25.2899C41.2097 24.5663 41.6995 23.4976 41.6995 22.0837ZM63.0912 20.5808C63.0912 21.7942 62.8964 22.8964 62.5067 23.8872C62.1282 24.878 61.5771 25.7297 60.8535 26.4422C60.141 27.1436 59.2838 27.6946 58.2818 28.0954C57.2799 28.4962 56.161 28.6966 54.9253 28.6966C53.7118 28.6966 52.6041 28.4962 51.6021 28.0954C50.6002 27.6946 49.7374 27.1436 49.0138 26.4422C48.3013 25.7297 47.7502 24.878 47.3605 23.8872C46.982 22.8964 46.7928 21.7942 46.7928 20.5808C46.7928 19.4007 46.982 18.3041 47.3605 17.291C47.7502 16.2668 48.3013 15.3984 49.0138 14.6859C49.7374 13.9623 50.6002 13.4001 51.6021 12.9993C52.6041 12.5874 53.7118 12.3814 54.9253 12.3814C56.161 12.3814 57.2799 12.5874 58.2818 12.9993C59.2838 13.4001 60.141 13.9623 60.8535 14.6859C61.5771 15.3984 62.1282 16.2668 62.5067 17.291C62.8964 18.3041 63.0912 19.4007 63.0912 20.5808ZM60.8034 20.5808C60.8034 19.6901 60.6698 18.8719 60.4026 18.126C60.1466 17.3689 59.7625 16.7065 59.2504 16.1388C58.7383 15.571 58.1148 15.1257 57.3801 14.8028C56.6564 14.48 55.8382 14.3186 54.9253 14.3186C54.0124 14.3186 53.1886 14.48 52.4538 14.8028C51.7302 15.1257 51.1179 15.571 50.6169 16.1388C50.1159 16.7065 49.7318 17.3689 49.4646 18.126C49.2086 18.8719 49.0806 19.6901 49.0806 20.5808C49.0806 21.4714 49.2086 22.2952 49.4646 23.0522C49.7318 23.7981 50.1159 24.4438 50.6169 24.9894C51.1179 25.5349 51.7302 25.9635 52.4538 26.2752C53.1886 26.5869 54.0124 26.7428 54.9253 26.7428C55.8382 26.7428 56.6564 26.5869 57.3801 26.2752C58.1148 25.9635 58.7383 25.5349 59.2504 24.9894C59.7625 24.4438 60.1466 23.7981 60.4026 23.0522C60.6698 22.2952 60.8034 21.4714 60.8034 20.5808ZM81.3602 21.2988H65.7965V19.345H81.3602V21.2988ZM100.197 23.3528C100.019 24.9894 99.373 26.2919 98.2598 27.2604C97.1576 28.2179 95.7772 28.6966 94.1184 28.6966C93.2055 28.6966 92.3705 28.5463 91.6135 28.2457C90.8564 27.9451 90.2107 27.5276 89.6764 26.9933C89.142 26.4589 88.7245 25.8187 88.4239 25.0729C88.1345 24.3158 87.9897 23.492 87.9897 22.6014V14.7026H84.4662V12.7488H87.9897V6.52002H90.2775V12.7488H96.9071V14.7026H90.2775V22.6014C90.2775 23.1691 90.3666 23.7035 90.5447 24.2045C90.734 24.7055 90.99 25.1452 91.3129 25.5237C91.6469 25.9022 92.0477 26.2028 92.5152 26.4255C92.9828 26.637 93.5172 26.7428 94.1184 26.7428C95.2539 26.7428 96.2002 26.3921 96.9572 25.6907C97.7254 24.9782 98.1651 24.0598 98.2765 22.9354L100.197 23.3528ZM136.551 28.3125H122.624V6.52002H124.912V26.3587H136.551V28.3125ZM140.442 24.1043C140.442 23.1246 140.687 22.3063 141.177 21.6495C141.667 20.9815 142.307 20.4583 143.097 20.0798C143.899 19.6901 144.812 19.4118 145.836 19.2448C146.871 19.0667 147.923 18.9776 148.992 18.9776C149.404 18.9776 149.771 18.9832 150.094 18.9943C150.428 19.0055 150.74 19.0222 151.029 19.0444C151.33 19.0667 151.63 19.0945 151.931 19.1279C152.232 19.1613 152.56 19.2003 152.916 19.2448V18.126C152.916 17.3689 152.749 16.7455 152.415 16.2557C152.092 15.7658 151.692 15.3817 151.213 15.1034C150.734 14.814 150.233 14.6136 149.71 14.5022C149.187 14.3798 148.742 14.3186 148.374 14.3186C147.216 14.3186 146.148 14.4744 145.168 14.7861C144.188 15.0979 143.275 15.5153 142.429 16.0386L141.394 14.3186C142.329 13.7508 143.375 13.2888 144.533 12.9325C145.702 12.5651 146.983 12.3814 148.374 12.3814C149.22 12.3814 150.05 12.4928 150.862 12.7154C151.686 12.927 152.421 13.2609 153.067 13.7174C153.723 14.1627 154.247 14.7527 154.636 15.4875C155.026 16.2223 155.221 17.1018 155.221 18.126V28.3125H152.916V25.7074C152.516 26.2084 152.059 26.6481 151.547 27.0267C151.046 27.4052 150.517 27.7169 149.961 27.9618C149.404 28.1956 148.847 28.3737 148.291 28.4962C147.734 28.6298 147.205 28.6966 146.704 28.6966C144.645 28.6966 143.086 28.3014 142.028 27.5109C140.971 26.7205 140.442 25.585 140.442 24.1043ZM146.704 26.7428C147.662 26.7428 148.519 26.6036 149.276 26.3253C150.044 26.0358 150.695 25.6796 151.23 25.2565C151.764 24.8335 152.176 24.3826 152.465 23.9039C152.766 23.4252 152.916 22.991 152.916 22.6014V21.1318C152.17 21.0205 151.452 20.9593 150.762 20.9481C150.083 20.937 149.493 20.9314 148.992 20.9314C148.168 20.9314 147.372 20.9871 146.604 21.0984C145.847 21.2098 145.185 21.3935 144.617 21.6495C144.049 21.8944 143.593 22.2173 143.247 22.6181C142.902 23.0188 142.73 23.5143 142.73 24.1043C142.73 24.7611 143.047 25.3679 143.682 25.9245C144.327 26.47 145.335 26.7428 146.704 26.7428ZM173.891 28.3125H171.586V18.7104C171.586 17.3188 171.285 16.239 170.684 15.4708C170.083 14.7026 169.109 14.3186 167.762 14.3186C166.916 14.3186 166.148 14.5134 165.457 14.903C164.778 15.2927 164.199 15.8159 163.721 16.4728C163.242 17.1185 162.875 17.8644 162.619 18.7104C162.374 19.5454 162.251 20.4193 162.251 21.3322V28.3125H159.963V12.7488H162.251V16.6564C163.353 13.8064 165.318 12.3814 168.146 12.3814C171.976 12.3814 173.891 14.4911 173.891 18.7104V28.3125ZM192.56 28.1455C192.56 29.2143 192.377 30.1661 192.009 31.0011C191.642 31.836 191.124 32.543 190.456 33.1219C189.799 33.7008 189.02 34.1405 188.118 34.4411C187.228 34.7528 186.231 34.9087 185.129 34.9087C183.582 34.9087 182.262 34.6192 181.171 34.0403C180.092 33.4614 179.156 32.6265 178.366 31.5354L179.969 30.2997C180.448 31.0233 181.138 31.6301 182.04 32.1199C182.942 32.6098 183.971 32.8547 185.129 32.8547C186.71 32.8547 187.957 32.4539 188.87 31.6523C189.794 30.8619 190.256 29.7152 190.256 28.2123V26.5424C188.898 27.7447 187.35 28.3459 185.613 28.3459C183.175 28.3459 181.26 27.6501 179.869 26.2585C178.477 24.8669 177.781 22.9632 177.781 20.5474C177.781 19.3673 177.96 18.2818 178.316 17.291C178.683 16.2891 179.201 15.4263 179.869 14.7026C180.548 13.9679 181.372 13.4001 182.34 12.9993C183.309 12.5874 184.4 12.3814 185.613 12.3814C186.459 12.3814 187.278 12.5317 188.068 12.8323C188.87 13.1218 189.599 13.5615 190.256 14.1516V12.7488H192.56V28.1455ZM190.256 16.3726C189.599 15.6489 188.875 15.1257 188.085 14.8028C187.306 14.48 186.482 14.3186 185.613 14.3186C184.7 14.3186 183.893 14.48 183.192 14.8028C182.502 15.1257 181.928 15.5654 181.472 16.1221C181.016 16.6787 180.665 17.3411 180.42 18.1093C180.186 18.8663 180.069 19.679 180.069 20.5474C180.069 22.3286 180.531 23.748 181.455 24.8057C182.379 25.8633 183.765 26.3921 185.613 26.3921C186.482 26.3921 187.306 26.2307 188.085 25.9078C188.875 25.5738 189.599 25.0395 190.256 24.3047V16.3726ZM197.303 12.7488H199.591V22.3676C199.591 23.7592 199.891 24.8391 200.492 25.6072C201.105 26.3643 202.084 26.7428 203.431 26.7428C204.278 26.7428 205.04 26.5479 205.719 26.1583C206.398 25.7687 206.977 25.251 207.456 24.6053C207.935 23.9484 208.296 23.2025 208.541 22.3676C208.797 21.5215 208.925 20.642 208.925 19.7291V12.7488H211.23V28.3125H208.925V24.4216C207.834 27.2716 205.875 28.6966 203.047 28.6966C199.218 28.6966 197.303 26.5869 197.303 22.3676V12.7488ZM215.121 24.1043C215.121 23.1246 215.366 22.3063 215.856 21.6495C216.346 20.9815 216.986 20.4583 217.776 20.0798C218.578 19.6901 219.491 19.4118 220.515 19.2448C221.55 19.0667 222.602 18.9776 223.671 18.9776C224.083 18.9776 224.45 18.9832 224.773 18.9943C225.107 19.0055 225.419 19.0222 225.708 19.0444C226.009 19.0667 226.309 19.0945 226.61 19.1279C226.911 19.1613 227.239 19.2003 227.595 19.2448V18.126C227.595 17.3689 227.428 16.7455 227.094 16.2557C226.771 15.7658 226.371 15.3817 225.892 15.1034C225.413 14.814 224.912 14.6136 224.389 14.5022C223.866 14.3798 223.42 14.3186 223.053 14.3186C221.895 14.3186 220.826 14.4744 219.847 14.7861C218.867 15.0979 217.954 15.5153 217.108 16.0386L216.073 14.3186C217.008 13.7508 218.054 13.2888 219.212 12.9325C220.381 12.5651 221.661 12.3814 223.053 12.3814C223.899 12.3814 224.729 12.4928 225.541 12.7154C226.365 12.927 227.1 13.2609 227.746 13.7174C228.402 14.1627 228.926 14.7527 229.315 15.4875C229.705 16.2223 229.9 17.1018 229.9 18.126V28.3125H227.595V25.7074C227.194 26.2084 226.738 26.6481 226.226 27.0267C225.725 27.4052 225.196 27.7169 224.639 27.9618C224.083 28.1956 223.526 28.3737 222.97 28.4962C222.413 28.6298 221.884 28.6966 221.383 28.6966C219.324 28.6966 217.765 28.3014 216.707 27.5109C215.65 26.7205 215.121 25.585 215.121 24.1043ZM221.383 26.7428C222.341 26.7428 223.198 26.6036 223.955 26.3253C224.723 26.0358 225.374 25.6796 225.909 25.2565C226.443 24.8335 226.855 24.3826 227.144 23.9039C227.445 23.4252 227.595 22.991 227.595 22.6014V21.1318C226.849 21.0205 226.131 20.9593 225.441 20.9481C224.762 20.937 224.172 20.9314 223.671 20.9314C222.847 20.9314 222.051 20.9871 221.283 21.0984C220.526 21.2098 219.863 21.3935 219.296 21.6495C218.728 21.8944 218.271 22.2173 217.926 22.6181C217.581 23.0188 217.409 23.5143 217.409 24.1043C217.409 24.7611 217.726 25.3679 218.361 25.9245C219.006 26.47 220.014 26.7428 221.383 26.7428ZM248.569 28.1455C248.569 29.2143 248.386 30.1661 248.018 31.0011C247.651 31.836 247.133 32.543 246.465 33.1219C245.809 33.7008 245.029 34.1405 244.127 34.4411C243.237 34.7528 242.24 34.9087 241.138 34.9087C239.591 34.9087 238.272 34.6192 237.181 34.0403C236.101 33.4614 235.166 32.6265 234.375 31.5354L235.978 30.2997C236.457 31.0233 237.147 31.6301 238.049 32.1199C238.951 32.6098 239.98 32.8547 241.138 32.8547C242.719 32.8547 243.966 32.4539 244.879 31.6523C245.803 30.8619 246.265 29.7152 246.265 28.2123V26.5424C244.907 27.7447 243.359 28.3459 241.623 28.3459C239.184 28.3459 237.27 27.6501 235.878 26.2585C234.486 24.8669 233.791 22.9632 233.791 20.5474C233.791 19.3673 233.969 18.2818 234.325 17.291C234.692 16.2891 235.21 15.4263 235.878 14.7026C236.557 13.9679 237.381 13.4001 238.35 12.9993C239.318 12.5874 240.409 12.3814 241.623 12.3814C242.469 12.3814 243.287 12.5317 244.077 12.8323C244.879 13.1218 245.608 13.5615 246.265 14.1516V12.7488H248.569V28.1455ZM246.265 16.3726C245.608 15.6489 244.884 15.1257 244.094 14.8028C243.315 14.48 242.491 14.3186 241.623 14.3186C240.71 14.3186 239.903 14.48 239.201 14.8028C238.511 15.1257 237.938 15.5654 237.481 16.1221C237.025 16.6787 236.674 17.3411 236.429 18.1093C236.195 18.8663 236.078 19.679 236.078 20.5474C236.078 22.3286 236.54 23.748 237.464 24.8057C238.388 25.8633 239.775 26.3921 241.623 26.3921C242.491 26.3921 243.315 26.2307 244.094 25.9078C244.884 25.5738 245.608 25.0395 246.265 24.3047V16.3726ZM254.782 21.3322C254.949 22.9799 255.55 24.2936 256.585 25.2732C257.62 26.2529 258.967 26.7428 260.626 26.7428C261.795 26.7428 262.836 26.5034 263.749 26.0247C264.662 25.546 265.347 24.9504 265.803 24.2379L267.406 25.34C266.627 26.4311 265.697 27.266 264.617 27.8449C263.538 28.4127 262.207 28.6966 260.626 28.6966C259.424 28.6966 258.322 28.4962 257.32 28.0954C256.318 27.6946 255.45 27.138 254.715 26.4255C253.991 25.7019 253.429 24.8446 253.028 23.8538C252.627 22.863 252.427 21.7608 252.427 20.5474C252.427 19.3673 252.605 18.2818 252.961 17.291C253.329 16.2891 253.852 15.4263 254.531 14.7026C255.221 13.9679 256.056 13.4001 257.036 12.9993C258.016 12.5874 259.112 12.3814 260.326 12.3814C261.65 12.3814 262.808 12.6041 263.799 13.0494C264.79 13.4947 265.614 14.1126 266.271 14.903C266.939 15.6823 267.428 16.6175 267.74 17.7085C268.063 18.7995 268.224 20.0074 268.224 21.3322H254.782ZM265.803 19.3784C265.547 17.6751 264.929 16.406 263.949 15.571C262.97 14.736 261.762 14.3186 260.326 14.3186C259.591 14.3186 258.912 14.441 258.288 14.6859C257.665 14.9197 257.114 15.2593 256.635 15.7046C256.156 16.1499 255.756 16.6898 255.433 17.3244C255.11 17.9479 254.904 18.6325 254.815 19.3784H265.803Z" fill="#1A3E2F"/>
</svg>
