<svg width="146" height="45" viewBox="0 0 146 45" fill="none" xmlns="http://www.w3.org/2000/svg">
<path d="M21.0429 29.1488C19.3828 30.8497 17.75 32.0675 16.1444 32.8022C14.5388 33.537 12.9809 33.9044 11.4705 33.9044C9.68802 33.9044 8.00078 33.4214 6.40879 32.4553C4.8168 31.4892 3.51735 30.1013 2.51045 28.2916C1.51715 26.4819 1.02051 24.3048 1.02051 21.7604C1.02051 18.9574 1.57158 16.5149 2.67373 14.4331C3.77588 12.3513 5.26582 10.7389 7.14355 9.5959C9.0349 8.45293 11.1644 7.88145 13.5319 7.88145C14.9198 7.88145 16.2873 8.07194 17.6344 8.45293C18.9951 8.83392 20.0088 9.29655 20.6755 9.84082C20.7435 9.89525 20.7027 10.1334 20.553 10.5552C20.4034 10.9634 20.1993 11.4328 19.9407 11.9635C19.6958 12.4941 19.4441 12.9908 19.1855 13.4534C18.927 13.9024 18.7229 14.2018 18.5732 14.3515L17.2058 14.0657C16.5662 12.8139 15.8179 11.9227 14.9606 11.392C14.1034 10.8477 13.1918 10.5756 12.2257 10.5756C11.3412 10.5756 10.4364 10.8817 9.51113 11.494C8.59948 12.0927 7.8307 13.1473 7.20479 14.6576C6.57887 16.168 6.26592 18.2906 6.26592 21.0256C6.26592 23.2435 6.6265 25.0532 7.34766 26.4547C8.06881 27.8426 8.97367 28.8631 10.0622 29.5162C11.1644 30.1693 12.2733 30.4959 13.3891 30.4959C14.0966 30.4959 15.0355 30.319 16.2057 29.9652C17.3758 29.6115 18.6345 28.8699 19.9815 27.7405C20.1176 27.8494 20.3149 28.0875 20.5734 28.4549C20.832 28.8223 20.9884 29.0536 21.0429 29.1488ZM44.535 31.047C43.9227 31.4552 43.2083 31.8838 42.3919 32.3328C41.5891 32.7682 40.8475 33.1356 40.1672 33.435C39.5005 33.7343 39.0582 33.884 38.8405 33.884C38.3915 33.884 37.9629 33.6935 37.5547 33.3125C37.1465 32.9451 36.8675 32.1015 36.7179 30.7816C35.6565 31.6797 34.7381 32.3532 33.9625 32.8022C33.2005 33.2377 32.5202 33.5234 31.9215 33.6595C31.3228 33.8091 30.7513 33.884 30.207 33.884C29.4178 33.884 28.6491 33.7207 27.9007 33.3941C27.1659 33.0812 26.5536 32.4961 26.0638 31.6389C25.5875 30.768 25.3494 29.5298 25.3494 27.9242V20.1071C25.3494 19.2907 25.3086 18.7056 25.227 18.3519C25.1589 17.9845 24.9616 17.7464 24.6351 17.6375C24.3221 17.515 23.7914 17.413 23.0431 17.3313V15.8822C24.3765 15.7598 25.5127 15.6305 26.4516 15.4944C27.3904 15.3584 28.4109 15.1202 29.5131 14.7801L30.2274 15.6985V26.6996C30.2274 28.2508 30.4043 29.2577 30.7581 29.7203C31.1255 30.1693 31.6425 30.3938 32.3093 30.3938C32.7855 30.3938 33.3774 30.2578 34.085 29.9856C34.8061 29.6999 35.6838 29.1216 36.7179 28.2508V20.1071C36.7179 19.3315 36.6702 18.7533 36.575 18.3723C36.4798 17.9913 36.2552 17.7327 35.9015 17.5967C35.5477 17.4606 34.983 17.3722 34.2074 17.3313V15.8822C35.5409 15.7598 36.7451 15.6033 37.82 15.4128C38.895 15.2223 39.9087 15.0114 40.8611 14.7801L41.5959 15.6985V27.7201C41.5959 28.5093 41.6231 29.0468 41.6775 29.3325C41.7456 29.6047 41.868 29.8088 42.0449 29.9448C42.1946 30.0537 42.3987 30.0809 42.6572 30.0265C42.9158 29.9584 43.3648 29.7815 44.0043 29.4958L44.535 31.047ZM45.6779 33.3125V31.8021C46.7801 31.6117 47.508 31.4212 47.8618 31.2307C48.2156 31.0402 48.3925 30.8361 48.3925 30.6184V8.96318C48.3925 8.21481 48.3312 7.67054 48.2088 7.33037C48.0863 6.9902 47.8414 6.76569 47.474 6.65684C47.1202 6.54798 46.5896 6.45273 45.882 6.37109V4.92197C47.2155 4.73148 48.3789 4.53418 49.3722 4.33008C50.3655 4.11237 51.3792 3.79941 52.4133 3.39121L53.2705 4.20762V30.6184C53.2705 30.8225 53.461 31.0266 53.842 31.2307C54.223 31.4348 54.9305 31.6253 55.9646 31.8021V33.3125H45.6779ZM65.9656 8.96318C65.9656 9.86123 65.6459 10.5892 65.0063 11.1471C64.3668 11.6913 63.564 11.9635 62.5979 11.9635C61.8632 11.9635 61.2101 11.7866 60.6386 11.4328C60.0807 11.079 59.8018 10.5212 59.8018 9.75918C59.8018 8.84753 60.1283 8.12637 60.7814 7.5957C61.4346 7.05143 62.2306 6.7793 63.1694 6.7793C63.877 6.7793 64.5165 6.95619 65.088 7.30996C65.6731 7.65013 65.9656 8.2012 65.9656 8.96318ZM57.8424 33.3125V31.8021C58.6996 31.6253 59.3323 31.428 59.7405 31.2103C60.1487 30.9925 60.3528 30.7952 60.3528 30.6184V20.9031C60.3528 20.0187 60.312 19.3588 60.2304 18.9233C60.1623 18.4743 59.9514 18.1614 59.5977 17.9845C59.2575 17.8076 58.6724 17.6851 57.8424 17.6171V16.1476C58.9717 15.9979 60.0399 15.8142 61.0468 15.5965C62.0537 15.3652 63.013 15.093 63.9246 14.7801H65.2309V30.6184C65.2309 30.7816 65.4145 30.9789 65.7819 31.2103C66.1629 31.428 66.816 31.6253 67.7413 31.8021V33.3125H57.8424ZM81.2732 33.3125V31.8021C82.1849 31.5572 82.8312 31.3463 83.2122 31.1694C83.5932 30.9789 83.7837 30.7952 83.7837 30.6184V22.1073C83.7837 20.7194 83.6408 19.767 83.3551 19.2499C83.0693 18.7328 82.5591 18.4743 81.8243 18.4743C81.2528 18.4743 80.5997 18.6172 79.8649 18.9029C79.1302 19.1887 78.1437 19.7806 76.9055 20.6786V30.6184C76.9055 31.0538 77.7423 31.4484 79.4159 31.8021V33.3125H69.517V31.8021C71.1906 31.3667 72.0274 30.9721 72.0274 30.6184V20.1071C72.0274 19.4268 71.9866 18.9301 71.905 18.6172C71.8369 18.2906 71.626 18.0661 71.2723 17.9437C70.9185 17.8212 70.3334 17.7123 69.517 17.6171V16.1476C70.7824 16.0115 71.8982 15.8414 72.8643 15.6373C73.8439 15.4196 74.8168 15.1339 75.7829 14.7801L76.6197 15.6169L76.8238 18.0661C78.375 16.8551 79.7833 16.0047 81.0487 15.5148C82.3142 15.025 83.4435 14.7801 84.4368 14.7801C85.539 14.7801 86.5186 15.1611 87.3759 15.923C88.2331 16.6714 88.6617 17.9777 88.6617 19.8418V30.6184C88.6617 30.7952 88.8318 30.9721 89.172 31.149C89.5121 31.3259 90.1789 31.5436 91.1722 31.8021V33.3125H81.2732ZM111.337 31.047C110.616 31.5504 109.854 32.0199 109.051 32.4553C108.249 32.8771 107.514 33.2173 106.847 33.4758C106.194 33.7479 105.704 33.884 105.378 33.884C104.833 33.884 104.384 33.5506 104.031 32.8839C103.69 32.2035 103.52 31.2919 103.52 30.1489V20.1071C103.52 19.3179 103.35 18.6648 103.01 18.1478C102.683 17.6307 102.064 17.3722 101.153 17.3722C100.581 17.3858 100.037 17.6103 99.5199 18.0457C99.0165 18.4675 98.7988 19.0662 98.8668 19.8418C98.8804 19.9643 98.6491 20.1207 98.1728 20.3112C97.7102 20.5017 97.1523 20.6922 96.4992 20.8827C95.8461 21.0732 95.2406 21.2297 94.6827 21.3521C94.1248 21.461 93.7711 21.495 93.6214 21.4542L93.1724 20.3521C93.5806 19.3043 94.2949 18.3587 95.3154 17.515C96.3495 16.6714 97.5469 16.0047 98.9076 15.5148C100.282 15.025 101.711 14.7801 103.194 14.7801C105.003 14.7801 106.323 15.2359 107.153 16.1476C107.997 17.0592 108.419 18.175 108.419 19.4948V28.5161C108.419 29.523 108.67 30.0265 109.174 30.0265C109.351 30.0265 109.548 29.9924 109.766 29.9244C109.997 29.8564 110.371 29.7135 110.888 29.4958L111.337 31.047ZM103.704 24.23C102.207 24.4749 101.139 24.713 100.5 24.9443C99.8737 25.1757 99.3975 25.4546 99.0709 25.7812C98.7307 26.1213 98.4586 26.4819 98.2545 26.8629C98.0504 27.2303 97.9483 27.6793 97.9483 28.21C97.9483 29.0672 98.1524 29.6455 98.5606 29.9448C98.9824 30.2306 99.3566 30.3734 99.6832 30.3734C100.132 30.3734 100.663 30.2442 101.275 29.9856C101.901 29.7135 102.711 29.1284 103.704 28.2304L103.867 30.5367C102.67 31.8294 101.472 32.7138 100.275 33.19C99.0913 33.6527 98.0708 33.884 97.2136 33.884C96.4924 33.884 95.7917 33.7139 95.1113 33.3737C94.431 33.0472 93.8731 32.5505 93.4377 31.8838C93.0159 31.2171 92.805 30.3802 92.805 29.3733C92.805 28.5297 92.9615 27.8018 93.2744 27.1895C93.5874 26.5771 93.9752 26.0397 94.4378 25.5771C94.8596 25.1552 95.3835 24.7538 96.0094 24.3729C96.6353 23.9919 97.5401 23.6313 98.7239 23.2911C99.9213 22.9373 101.581 22.5972 103.704 22.2706V24.23ZM120.746 8.96318C120.746 9.86123 120.427 10.5892 119.787 11.1471C119.148 11.6913 118.345 11.9635 117.379 11.9635C116.644 11.9635 115.991 11.7866 115.419 11.4328C114.862 11.079 114.583 10.5212 114.583 9.75918C114.583 8.84753 114.909 8.12637 115.562 7.5957C116.215 7.05143 117.011 6.7793 117.95 6.7793C118.658 6.7793 119.297 6.95619 119.869 7.30996C120.454 7.65013 120.746 8.2012 120.746 8.96318ZM112.623 33.3125V31.8021C113.48 31.6253 114.113 31.428 114.521 31.2103C114.93 30.9925 115.134 30.7952 115.134 30.6184V20.9031C115.134 20.0187 115.093 19.3588 115.011 18.9233C114.943 18.4743 114.732 18.1614 114.379 17.9845C114.038 17.8076 113.453 17.6851 112.623 17.6171V16.1476C113.753 15.9979 114.821 15.8142 115.828 15.5965C116.835 15.3652 117.794 15.093 118.705 14.7801H120.012V30.6184C120.012 30.7816 120.195 30.9789 120.563 31.2103C120.944 31.428 121.597 31.6253 122.522 31.8021V33.3125H112.623ZM145.524 31.0062C144.735 31.5368 143.926 32.0199 143.096 32.4553C142.279 32.8907 141.551 33.2377 140.912 33.4962C140.272 33.7547 139.837 33.884 139.605 33.884C138.925 33.884 138.428 33.3193 138.116 32.1899C137.803 31.0606 137.646 29.455 137.646 27.3731V9.3918C137.646 8.45293 137.605 7.75898 137.524 7.30996C137.442 6.84733 137.217 6.54118 136.85 6.3915C136.496 6.24183 135.898 6.13298 135.054 6.06494V4.63623C136.524 4.50016 137.843 4.31647 139.014 4.08516C140.197 3.84023 141.123 3.60892 141.789 3.39121L142.545 4.14639V27.3936C142.545 28.2916 142.579 28.9107 142.647 29.2509C142.728 29.591 142.844 29.8088 142.994 29.904C143.143 29.9993 143.334 30.0333 143.565 30.0061C143.796 29.9788 144.252 29.8088 144.933 29.4958L145.524 31.0062ZM139.054 29.3121C137.979 30.4415 137.061 31.3395 136.299 32.0063C135.537 32.673 134.802 33.1492 134.095 33.435C133.401 33.7343 132.605 33.884 131.707 33.884C130.537 33.884 129.407 33.5234 128.319 32.8022C127.23 32.0675 126.339 31.0198 125.645 29.6591C124.951 28.2848 124.604 26.6452 124.604 24.7402C124.604 22.9714 124.999 21.3317 125.788 19.8214C126.577 18.311 127.672 17.0932 129.074 16.168C130.475 15.2427 132.095 14.7801 133.931 14.7801C134.707 14.7801 135.483 14.9093 136.258 15.1679C137.034 15.4264 137.918 16.0115 138.912 16.9231C138.912 18.5151 138.537 19.5356 137.789 19.9847C137.313 19.1683 136.728 18.5355 136.034 18.0865C135.353 17.6375 134.571 17.413 133.687 17.413C132.489 17.413 131.489 17.9028 130.686 18.8825C129.883 19.8486 129.482 21.427 129.482 23.6177C129.482 24.9647 129.686 26.1145 130.094 27.067C130.516 28.0195 131.054 28.7542 131.707 29.2713C132.36 29.7747 133.04 30.0265 133.748 30.0265C134.496 30.0265 135.197 29.836 135.85 29.455C136.517 29.074 137.299 28.4481 138.197 27.5772C138.306 27.6317 138.422 27.7882 138.544 28.0467C138.68 28.3052 138.796 28.5637 138.891 28.8223C138.986 29.0808 139.041 29.2441 139.054 29.3121Z" fill="#1A3E2F"/>
</svg>
