<svg width="61" height="78" viewBox="0 0 61 78" fill="none" xmlns="http://www.w3.org/2000/svg">
<path d="M57.3762 32.5911C56.8444 33.0254 56.0733 32.9811 55.5946 32.4848L50.0018 26.7146C49.0888 25.7751 47.8213 25.2699 46.5095 25.3319C46.483 25.3319 46.4475 25.3319 46.4209 25.3319L41.4308 25.9789C40.8724 26.0498 40.4558 26.5285 40.4558 27.0869V42.7132C40.4558 43.9364 40.2696 45.1418 39.9062 46.3118L36.9547 55.6717C36.6976 56.4783 36.7065 57.3292 36.9813 58.1269L42.0335 72.9644C42.2373 73.5671 42.0335 74.2319 41.5283 74.6219C41.1914 74.8789 40.7749 74.9764 40.3583 74.8966C39.9417 74.8169 39.5871 74.5776 39.3744 74.2141L30.9452 60.3516C30.2361 59.1816 29.9082 57.7812 30.0411 56.4162L31.3441 49.2722C31.4416 48.7404 31.1491 48.2175 30.6439 48.0225C30.1386 47.8275 29.5714 48.0225 29.2877 48.4834L24.6699 56.0174C24.1026 56.8771 23.881 57.9142 24.0406 58.9335L26.1944 73.966V73.9837C26.3096 74.6662 25.9462 75.3309 25.3169 75.6057C24.9269 75.7741 24.5015 75.783 24.1115 75.6057C23.7215 75.4373 23.429 75.1271 23.2872 74.7282L17.65 59.0132C17.065 57.3912 17.1891 55.583 17.9868 54.0585C17.9868 54.0497 17.9956 54.0319 18.0045 54.0231L24.8826 39.5135C24.9446 39.3806 24.9801 39.2476 24.9889 39.0969L25.6094 28.6291C25.636 28.248 25.4587 27.8846 25.1485 27.6541C24.9535 27.5123 24.723 27.4414 24.4926 27.4414C24.3508 27.4414 24.2178 27.468 24.0849 27.5212L19.2277 29.418C19.2277 29.418 19.1656 29.4446 19.1302 29.4623C17.5879 30.2423 15.6911 29.8966 14.5211 28.6291L6.3224 19.7302C5.84377 19.2161 5.84377 18.4272 6.30467 17.9043C6.77444 17.3725 7.58102 17.2927 8.14828 17.7182L16.4445 23.9758C16.8079 24.2506 17.2866 24.2771 17.6766 24.0467L24.1558 20.2886C24.1558 20.2886 24.209 20.262 24.2267 20.2442C25.7335 19.2072 28.5964 18.5868 30.4932 18.5868H30.5198L39.144 18.4095C39.9328 18.3918 40.7305 18.4627 41.5017 18.6222L47.6618 19.8365C49.142 20.129 50.4538 20.9711 51.349 22.1854L57.6155 30.7475C58.0321 31.3148 57.9257 32.1036 57.3851 32.5468L57.3762 32.5911ZM27.4973 8.38488C27.4973 4.99015 30.2539 2.2336 33.6486 2.2336C37.0433 2.2336 39.7999 4.99015 39.7999 8.38488C39.7999 11.7796 37.0433 14.5362 33.6486 14.5362C30.2539 14.5362 27.4973 11.7796 27.4973 8.38488ZM59.406 29.4712L53.1395 20.909C51.9163 19.2338 50.117 18.0904 48.0872 17.6827L41.9271 16.4684C40.9964 16.2823 40.0392 16.1936 39.0908 16.2114L36.5381 16.2645C39.7467 15.0857 42.0423 12.0012 42.0423 8.38488C42.0423 3.75813 38.2753 0 33.6486 0C29.0218 0 25.2637 3.76699 25.2637 8.38488C25.2637 12.1164 27.71 15.2895 31.087 16.3709H30.4755C28.2241 16.3886 24.9446 17.08 22.9858 18.4095L17.1802 21.7776L9.47781 15.9632C7.98874 14.8375 5.85263 15.0502 4.61174 16.4507C3.37971 17.8422 3.40631 19.9163 4.66492 21.2724L12.8637 30.1714C14.6984 32.1568 17.6588 32.7063 20.0786 31.5098L23.2606 30.2689L22.7553 38.769L15.9748 53.0658C14.9023 55.1399 14.7339 57.5951 15.5227 59.7932L21.1599 75.5082C21.5056 76.4832 22.259 77.2809 23.2074 77.6886C23.6771 77.8925 24.1824 77.99 24.6876 77.99C25.1928 77.99 25.7246 77.8836 26.2032 77.6709C27.7632 76.9796 28.6584 75.3309 28.3925 73.6557L26.2387 58.6232V58.6055C26.1589 58.1357 26.2653 57.6571 26.5312 57.2583C26.5312 57.2494 26.5489 57.2317 26.5578 57.2228L28.0557 54.7853L27.8164 56.0705C27.8164 56.0705 27.8075 56.1326 27.8075 56.1592C27.6214 58.0205 28.0469 59.9262 29.0218 61.5216L37.451 75.3841C38.0006 76.2793 38.9047 76.9086 39.9328 77.1036C40.961 77.2986 42.0335 77.0505 42.8755 76.4123C44.1519 75.4462 44.6659 73.771 44.1519 72.2464L39.0997 57.4089C38.9844 57.0633 38.9756 56.691 39.0908 56.3453L42.0423 46.9854C42.4766 45.6027 42.6982 44.1669 42.6982 42.7132V28.0707L46.6602 27.5566C47.3073 27.5389 47.9454 27.796 48.3975 28.2569L53.9903 34.027C55.2844 35.3654 57.3496 35.4806 58.7944 34.3106C60.2657 33.1141 60.5316 30.978 59.4148 29.4534L59.406 29.4712Z" fill="#1A3E2F"/>
<path d="M9.01649 33.5219C8.44923 33.2648 7.79333 33.5219 7.53629 34.0803C7.4122 34.3639 4.47838 41.0381 7.55402 47.1894C7.74901 47.5794 8.14787 47.8099 8.55559 47.8099C8.724 47.8099 8.8924 47.7744 9.05195 47.6946C9.60148 47.4199 9.83194 46.7462 9.5483 46.1967C6.9513 41.0115 9.5483 35.0641 9.56603 35.0021C9.81421 34.4348 9.56603 33.7789 8.99877 33.5219H9.01649Z" fill="#1A3E2F"/>
<path d="M3.24579 28.0791C3.05079 28.2475 -1.53164 32.4134 0.533555 42.4734C0.639917 43.0052 1.10968 43.3687 1.63263 43.3687C1.70354 43.3687 1.78331 43.3687 1.86308 43.3421C2.4658 43.218 2.85579 42.6241 2.7317 42.0214C2.21762 39.5042 1.85422 35.8169 3.05965 32.564C3.7776 30.6407 4.71713 29.7632 4.72599 29.7543L3.24579 28.0791Z" fill="#1A3E2F"/>
<path d="M51.5879 47.5885C51.065 47.2605 50.3736 47.4201 50.0457 47.943C50.0014 48.0139 48.8934 49.7955 48.2287 52.5521C47.3335 56.2127 47.626 59.8999 49.053 63.2237C49.2391 63.6492 49.6468 63.8973 50.0811 63.8973C50.2318 63.8973 50.3825 63.8708 50.5243 63.8087C51.0916 63.5605 51.3575 62.9046 51.1093 62.3374C49.8596 59.4479 49.6202 56.3634 50.3825 53.1636C50.9586 50.7439 51.9336 49.1573 51.9425 49.1396C52.2704 48.6167 52.1109 47.9253 51.5879 47.5974V47.5885Z" fill="#1A3E2F"/>
<path d="M57.7391 54.5192C58.0138 53.9696 57.7923 53.296 57.2339 53.0212C56.6843 52.7465 56.0107 52.9681 55.7359 53.5176C55.5941 53.8012 52.3412 60.44 55.8157 65.4922C56.0284 65.8113 56.383 65.9797 56.7375 65.9797C56.9591 65.9797 57.1718 65.9177 57.3668 65.7847C57.872 65.439 58.005 64.7388 57.6593 64.2247C54.9382 60.2627 57.7125 54.5724 57.7391 54.5103V54.5192Z" fill="#1A3E2F"/>
</svg>
