<svg width="260" height="205" viewBox="0 0 260 205" fill="none" xmlns="http://www.w3.org/2000/svg">
<path d="M17.3124 104.415C17.2219 103.651 16.8549 103.057 16.2113 102.635C15.5677 102.213 14.7782 102.001 13.843 102.001C13.1591 102.001 12.5608 102.112 12.0479 102.333C11.5401 102.555 11.1428 102.859 10.8562 103.246C10.5746 103.633 10.4338 104.073 10.4338 104.566C10.4338 104.978 10.5319 105.333 10.728 105.629C10.9291 105.921 11.1856 106.165 11.4973 106.361C11.8091 106.552 12.1359 106.71 12.4778 106.836C12.8197 106.957 13.134 107.055 13.4206 107.13L14.9894 107.553C15.3917 107.658 15.8392 107.804 16.3319 107.99C16.8297 108.176 17.3049 108.43 17.7574 108.752C18.215 109.069 18.5921 109.476 18.8888 109.974C19.1855 110.471 19.3338 111.082 19.3338 111.806C19.3338 112.641 19.1151 113.395 18.6776 114.069C18.2452 114.743 17.6116 115.278 16.7769 115.676C15.9473 116.073 14.9391 116.272 13.7525 116.272C12.6463 116.272 11.6884 116.093 10.8788 115.736C10.0743 115.379 9.44077 114.881 8.97818 114.243C8.52061 113.604 8.26166 112.862 8.20132 112.018H10.1322C10.1824 112.601 10.3785 113.084 10.7205 113.466C11.0674 113.843 11.5049 114.124 12.0328 114.311C12.5658 114.492 13.139 114.582 13.7525 114.582C14.4665 114.582 15.1076 114.466 15.6758 114.235C16.2439 113.999 16.694 113.672 17.0258 113.255C17.3577 112.832 17.5236 112.339 17.5236 111.776C17.5236 111.263 17.3803 110.846 17.0937 110.524C16.8071 110.202 16.43 109.941 15.9624 109.74C15.4947 109.539 14.9894 109.363 14.4464 109.212L12.5457 108.669C11.3389 108.322 10.3836 107.827 9.67961 107.183C8.97566 106.539 8.62369 105.697 8.62369 104.656C8.62369 103.791 8.8575 103.037 9.32512 102.394C9.79778 101.745 10.4313 101.242 11.2258 100.885C12.0253 100.523 12.9178 100.342 13.9033 100.342C14.8989 100.342 15.7839 100.521 16.5582 100.878C17.3326 101.23 17.946 101.712 18.3985 102.326C18.8561 102.939 19.0975 103.636 19.1226 104.415H17.3124ZM27.2061 104.415V105.923H21.2024V104.415H27.2061ZM22.9522 101.639H24.7322V112.681C24.7322 113.184 24.8051 113.561 24.9509 113.813C25.1018 114.059 25.2928 114.225 25.5241 114.311C25.7605 114.391 26.0094 114.431 26.2708 114.431C26.4669 114.431 26.6278 114.421 26.7535 114.401C26.8793 114.376 26.9798 114.356 27.0552 114.341L27.4173 115.94C27.2966 115.985 27.1281 116.03 26.9119 116.075C26.6957 116.126 26.4217 116.151 26.0898 116.151C25.587 116.151 25.0942 116.043 24.6115 115.827C24.1338 115.61 23.7366 115.281 23.4198 114.838C23.1081 114.396 22.9522 113.838 22.9522 113.164V101.639ZM37.1846 111.263V104.415H38.9646V116H37.1846V114.039H37.0639C36.7924 114.627 36.37 115.128 35.7968 115.54C35.2236 115.947 34.4995 116.151 33.6246 116.151C32.9005 116.151 32.2569 115.992 31.6938 115.676C31.1306 115.354 30.6881 114.871 30.3663 114.228C30.0445 113.579 29.8836 112.762 29.8836 111.776V104.415H31.6636V111.656C31.6636 112.5 31.8999 113.174 32.3726 113.677C32.8503 114.18 33.4587 114.431 34.1978 114.431C34.6403 114.431 35.0903 114.318 35.5479 114.092C36.0105 113.866 36.3977 113.519 36.7094 113.051C37.0262 112.583 37.1846 111.987 37.1846 111.263ZM46.5993 116.241C45.6339 116.241 44.7816 115.997 44.0424 115.51C43.3033 115.017 42.725 114.323 42.3077 113.428C41.8904 112.528 41.6817 111.465 41.6817 110.238C41.6817 109.021 41.8904 107.965 42.3077 107.07C42.725 106.175 43.3058 105.483 44.05 104.996C44.7942 104.508 45.654 104.264 46.6295 104.264C47.3837 104.264 47.9795 104.39 48.417 104.641C48.8595 104.888 49.1964 105.169 49.4277 105.486C49.664 105.798 49.8475 106.054 49.9782 106.255H50.1291V100.553H51.9091V116H50.1894V114.22H49.9782C49.8475 114.431 49.6615 114.698 49.4201 115.019C49.1788 115.336 48.8343 115.62 48.3868 115.872C47.9393 116.118 47.3435 116.241 46.5993 116.241ZM46.8406 114.642C47.5546 114.642 48.158 114.456 48.6508 114.084C49.1436 113.707 49.5182 113.187 49.7746 112.523C50.031 111.854 50.1593 111.082 50.1593 110.207C50.1593 109.343 50.0336 108.586 49.7821 107.937C49.5307 107.284 49.1586 106.776 48.6659 106.414C48.1731 106.047 47.5647 105.863 46.8406 105.863C46.0864 105.863 45.4579 106.057 44.9551 106.444C44.4573 106.826 44.0827 107.346 43.8313 108.005C43.5849 108.659 43.4617 109.393 43.4617 110.207C43.4617 111.032 43.5874 111.781 43.8388 112.455C44.0952 113.124 44.4724 113.657 44.9701 114.054C45.473 114.446 46.0965 114.642 46.8406 114.642ZM60.2735 116.241C59.1573 116.241 58.1943 115.995 57.3848 115.502C56.5803 115.004 55.9593 114.311 55.5219 113.421C55.0894 112.526 54.8732 111.485 54.8732 110.298C54.8732 109.111 55.0894 108.065 55.5219 107.16C55.9593 106.25 56.5677 105.541 57.3471 105.033C58.1315 104.521 59.0466 104.264 60.0925 104.264C60.6959 104.264 61.2917 104.365 61.88 104.566C62.4683 104.767 63.0038 105.094 63.4865 105.546C63.9693 105.994 64.3539 106.587 64.6405 107.326C64.9271 108.065 65.0704 108.976 65.0704 110.057V110.811H56.1403V109.272H63.2603C63.2603 108.619 63.1295 108.035 62.8681 107.522C62.6116 107.01 62.2446 106.605 61.7669 106.308C61.2942 106.011 60.7361 105.863 60.0925 105.863C59.3835 105.863 58.7701 106.039 58.2522 106.391C57.7393 106.738 57.3446 107.191 57.068 107.749C56.7915 108.307 56.6532 108.905 56.6532 109.544V110.57C56.6532 111.444 56.804 112.186 57.1057 112.795C57.4125 113.398 57.8373 113.858 58.3804 114.175C58.9234 114.487 59.5545 114.642 60.2735 114.642C60.7411 114.642 61.1635 114.577 61.5406 114.446C61.9228 114.311 62.2521 114.109 62.5287 113.843C62.8052 113.571 63.0189 113.234 63.1698 112.832L64.8894 113.315C64.7084 113.898 64.4042 114.411 63.9768 114.854C63.5494 115.291 63.0214 115.633 62.3929 115.879C61.7644 116.121 61.0579 116.241 60.2735 116.241ZM69.5581 109.031V116H67.7781V104.415H69.4978V106.225H69.6486C69.9201 105.637 70.3325 105.164 70.8856 104.807C71.4387 104.445 72.1527 104.264 73.0276 104.264C73.812 104.264 74.4983 104.425 75.0866 104.747C75.6749 105.064 76.1325 105.546 76.4593 106.195C76.7862 106.839 76.9496 107.653 76.9496 108.639V116H75.1696V108.759C75.1696 107.849 74.9333 107.14 74.4606 106.632C73.988 106.12 73.3393 105.863 72.5147 105.863C71.9465 105.863 71.4387 105.986 70.9912 106.233C70.5487 106.479 70.1992 106.839 69.9428 107.311C69.6863 107.784 69.5581 108.357 69.5581 109.031ZM85.2405 104.415V105.923H79.2368V104.415H85.2405ZM80.9866 101.639H82.7666V112.681C82.7666 113.184 82.8395 113.561 82.9853 113.813C83.1362 114.059 83.3273 114.225 83.5586 114.311C83.7949 114.391 84.0438 114.431 84.3052 114.431C84.5013 114.431 84.6622 114.421 84.7879 114.401C84.9137 114.376 85.0142 114.356 85.0896 114.341L85.4517 115.94C85.331 115.985 85.1626 116.03 84.9463 116.075C84.7301 116.126 84.4561 116.151 84.1242 116.151C83.6214 116.151 83.1286 116.043 82.6459 115.827C82.1682 115.61 81.771 115.281 81.4542 114.838C81.1425 114.396 80.9866 113.838 80.9866 113.164V101.639ZM95.9166 107.01L94.3177 107.462C94.2171 107.196 94.0688 106.937 93.8727 106.685C93.6816 106.429 93.4201 106.218 93.0883 106.052C92.7564 105.886 92.3315 105.803 91.8136 105.803C91.1046 105.803 90.5138 105.966 90.0412 106.293C89.5736 106.615 89.3397 107.025 89.3397 107.522C89.3397 107.965 89.5006 108.314 89.8225 108.571C90.1443 108.827 90.6471 109.041 91.3309 109.212L93.0506 109.634C94.0864 109.886 94.8582 110.27 95.3661 110.788C95.8739 111.301 96.1278 111.962 96.1278 112.772C96.1278 113.436 95.9368 114.029 95.5546 114.552C95.1775 115.075 94.6495 115.487 93.9707 115.789C93.2919 116.091 92.5025 116.241 91.6024 116.241C90.4208 116.241 89.4428 115.985 88.6685 115.472C87.8941 114.959 87.4039 114.21 87.1977 113.224L88.8872 112.802C89.0481 113.426 89.3523 113.893 89.7998 114.205C90.2524 114.517 90.8432 114.673 91.5723 114.673C92.4019 114.673 93.0606 114.497 93.5484 114.145C94.0411 113.788 94.2875 113.36 94.2875 112.862C94.2875 112.46 94.1467 112.123 93.8651 111.852C93.5836 111.575 93.1511 111.369 92.5679 111.233L90.637 110.781C89.5761 110.529 88.7967 110.14 88.2989 109.612C87.8061 109.079 87.5598 108.412 87.5598 107.613C87.5598 106.959 87.7433 106.381 88.1103 105.878C88.4824 105.375 88.9878 104.981 89.6264 104.694C90.27 104.407 90.9991 104.264 91.8136 104.264C92.9601 104.264 93.8601 104.516 94.5138 105.018C95.1725 105.521 95.6401 106.185 95.9166 107.01ZM108.19 116.272C107.456 116.272 106.79 116.133 106.191 115.857C105.593 115.575 105.118 115.17 104.766 114.642C104.414 114.109 104.238 113.466 104.238 112.712C104.238 112.048 104.368 111.51 104.63 111.097C104.891 110.68 105.241 110.353 105.678 110.117C106.116 109.881 106.598 109.705 107.126 109.589C107.659 109.468 108.195 109.373 108.733 109.302C109.437 109.212 110.008 109.144 110.445 109.099C110.888 109.048 111.209 108.966 111.41 108.85C111.617 108.734 111.72 108.533 111.72 108.246V108.186C111.72 107.442 111.516 106.864 111.109 106.451C110.707 106.039 110.096 105.833 109.276 105.833C108.426 105.833 107.76 106.019 107.277 106.391C106.795 106.763 106.455 107.16 106.259 107.583L104.57 106.979C104.871 106.275 105.274 105.727 105.776 105.335C106.284 104.938 106.837 104.661 107.436 104.505C108.039 104.345 108.632 104.264 109.216 104.264C109.588 104.264 110.015 104.309 110.498 104.4C110.986 104.485 111.456 104.664 111.908 104.935C112.366 105.207 112.745 105.617 113.047 106.165C113.349 106.713 113.5 107.447 113.5 108.367V116H111.72V114.431H111.629C111.509 114.683 111.307 114.952 111.026 115.238C110.744 115.525 110.37 115.769 109.902 115.97C109.434 116.171 108.864 116.272 108.19 116.272ZM108.461 114.673C109.165 114.673 109.759 114.534 110.241 114.258C110.729 113.981 111.096 113.624 111.343 113.187C111.594 112.749 111.72 112.289 111.72 111.806V110.177C111.644 110.268 111.478 110.351 111.222 110.426C110.97 110.497 110.679 110.559 110.347 110.615C110.02 110.665 109.701 110.71 109.389 110.751C109.082 110.786 108.834 110.816 108.642 110.841C108.18 110.901 107.747 110.999 107.345 111.135C106.948 111.266 106.626 111.465 106.38 111.731C106.138 111.993 106.018 112.35 106.018 112.802C106.018 113.421 106.246 113.888 106.704 114.205C107.167 114.517 107.752 114.673 108.461 114.673ZM116.749 116V104.415H118.468V106.165H118.589C118.8 105.592 119.182 105.126 119.735 104.769C120.288 104.412 120.912 104.234 121.606 104.234C121.737 104.234 121.9 104.236 122.096 104.242C122.292 104.247 122.44 104.254 122.541 104.264V106.074C122.481 106.059 122.342 106.037 122.126 106.006C121.915 105.971 121.691 105.954 121.455 105.954C120.892 105.954 120.389 106.072 119.946 106.308C119.509 106.539 119.162 106.861 118.906 107.274C118.654 107.681 118.529 108.146 118.529 108.669V116H116.749ZM129.156 116.241C128.039 116.241 127.076 115.995 126.267 115.502C125.462 115.004 124.841 114.311 124.404 113.421C123.972 112.526 123.755 111.485 123.755 110.298C123.755 109.111 123.972 108.065 124.404 107.16C124.841 106.25 125.45 105.541 126.229 105.033C127.014 104.521 127.929 104.264 128.975 104.264C129.578 104.264 130.174 104.365 130.762 104.566C131.35 104.767 131.886 105.094 132.369 105.546C132.851 105.994 133.236 106.587 133.523 107.326C133.809 108.065 133.953 108.976 133.953 110.057V110.811H125.022V109.272H132.142C132.142 108.619 132.012 108.035 131.75 107.522C131.494 107.01 131.127 106.605 130.649 106.308C130.176 106.011 129.618 105.863 128.975 105.863C128.266 105.863 127.652 106.039 127.134 106.391C126.621 106.738 126.227 107.191 125.95 107.749C125.674 108.307 125.535 108.905 125.535 109.544V110.57C125.535 111.444 125.686 112.186 125.988 112.795C126.295 113.398 126.719 113.858 127.263 114.175C127.806 114.487 128.437 114.642 129.156 114.642C129.623 114.642 130.046 114.577 130.423 114.446C130.805 114.311 131.134 114.109 131.411 113.843C131.687 113.571 131.901 113.234 132.052 112.832L133.772 113.315C133.591 113.898 133.286 114.411 132.859 114.854C132.432 115.291 131.904 115.633 131.275 115.879C130.647 116.121 129.94 116.241 129.156 116.241ZM147.491 116.241C146.375 116.241 145.412 115.995 144.602 115.502C143.798 115.004 143.177 114.311 142.739 113.421C142.307 112.526 142.091 111.485 142.091 110.298C142.091 109.111 142.307 108.065 142.739 107.16C143.177 106.25 143.785 105.541 144.565 105.033C145.349 104.521 146.264 104.264 147.31 104.264C147.913 104.264 148.509 104.365 149.098 104.566C149.686 104.767 150.221 105.094 150.704 105.546C151.187 105.994 151.571 106.587 151.858 107.326C152.145 108.065 152.288 108.976 152.288 110.057V110.811H143.358V109.272H150.478C150.478 108.619 150.347 108.035 150.086 107.522C149.829 107.01 149.462 106.605 148.984 106.308C148.512 106.011 147.954 105.863 147.31 105.863C146.601 105.863 145.988 106.039 145.47 106.391C144.957 106.738 144.562 107.191 144.286 107.749C144.009 108.307 143.871 108.905 143.871 109.544V110.57C143.871 111.444 144.022 112.186 144.323 112.795C144.63 113.398 145.055 113.858 145.598 114.175C146.141 114.487 146.772 114.642 147.491 114.642C147.959 114.642 148.381 114.577 148.758 114.446C149.14 114.311 149.47 114.109 149.746 113.843C150.023 113.571 150.236 113.234 150.387 112.832L152.107 113.315C151.926 113.898 151.622 114.411 151.194 114.854C150.767 115.291 150.239 115.633 149.61 115.879C148.982 116.121 148.275 116.241 147.491 116.241ZM156.012 104.415L158.788 109.152L161.563 104.415H163.615L159.874 110.207L163.615 116H161.563L158.788 111.505L156.012 116H153.96L157.641 110.207L153.96 104.415H156.012ZM166.155 120.344V104.415H167.874V106.255H168.085C168.216 106.054 168.397 105.798 168.628 105.486C168.865 105.169 169.202 104.888 169.639 104.641C170.082 104.39 170.68 104.264 171.434 104.264C172.41 104.264 173.269 104.508 174.014 104.996C174.758 105.483 175.339 106.175 175.756 107.07C176.173 107.965 176.382 109.021 176.382 110.238C176.382 111.465 176.173 112.528 175.756 113.428C175.339 114.323 174.76 115.017 174.021 115.51C173.282 115.997 172.43 116.241 171.464 116.241C170.72 116.241 170.124 116.118 169.677 115.872C169.229 115.62 168.885 115.336 168.643 115.019C168.402 114.698 168.216 114.431 168.085 114.22H167.935V120.344H166.155ZM167.904 110.207C167.904 111.082 168.033 111.854 168.289 112.523C168.545 113.187 168.92 113.707 169.413 114.084C169.906 114.456 170.509 114.642 171.223 114.642C171.967 114.642 172.588 114.446 173.086 114.054C173.589 113.657 173.966 113.124 174.217 112.455C174.474 111.781 174.602 111.032 174.602 110.207C174.602 109.393 174.476 108.659 174.225 108.005C173.978 107.346 173.604 106.826 173.101 106.444C172.603 106.057 171.977 105.863 171.223 105.863C170.499 105.863 169.89 106.047 169.398 106.414C168.905 106.776 168.533 107.284 168.281 107.937C168.03 108.586 167.904 109.343 167.904 110.207ZM183.804 116.241C182.758 116.241 181.84 115.992 181.051 115.495C180.266 114.997 179.653 114.3 179.21 113.405C178.773 112.51 178.554 111.465 178.554 110.268C178.554 109.061 178.773 108.008 179.21 107.108C179.653 106.208 180.266 105.509 181.051 105.011C181.84 104.513 182.758 104.264 183.804 104.264C184.849 104.264 185.765 104.513 186.549 105.011C187.338 105.509 187.952 106.208 188.389 107.108C188.832 108.008 189.053 109.061 189.053 110.268C189.053 111.465 188.832 112.51 188.389 113.405C187.952 114.3 187.338 114.997 186.549 115.495C185.765 115.992 184.849 116.241 183.804 116.241ZM183.804 114.642C184.598 114.642 185.252 114.439 185.765 114.031C186.277 113.624 186.657 113.089 186.903 112.425C187.15 111.761 187.273 111.042 187.273 110.268C187.273 109.493 187.15 108.772 186.903 108.103C186.657 107.434 186.277 106.894 185.765 106.482C185.252 106.069 184.598 105.863 183.804 105.863C183.009 105.863 182.355 106.069 181.843 106.482C181.33 106.894 180.95 107.434 180.704 108.103C180.457 108.772 180.334 109.493 180.334 110.268C180.334 111.042 180.457 111.761 180.704 112.425C180.95 113.089 181.33 113.624 181.843 114.031C182.355 114.439 183.009 114.642 183.804 114.642ZM199.976 107.01L198.377 107.462C198.277 107.196 198.128 106.937 197.932 106.685C197.741 106.429 197.48 106.218 197.148 106.052C196.816 105.886 196.391 105.803 195.873 105.803C195.164 105.803 194.573 105.966 194.101 106.293C193.633 106.615 193.399 107.025 193.399 107.522C193.399 107.965 193.56 108.314 193.882 108.571C194.204 108.827 194.707 109.041 195.39 109.212L197.11 109.634C198.146 109.886 198.918 110.27 199.426 110.788C199.933 111.301 200.187 111.962 200.187 112.772C200.187 113.436 199.996 114.029 199.614 114.552C199.237 115.075 198.709 115.487 198.03 115.789C197.351 116.091 196.562 116.241 195.662 116.241C194.48 116.241 193.502 115.985 192.728 115.472C191.954 114.959 191.463 114.21 191.257 113.224L192.947 112.802C193.108 113.426 193.412 113.893 193.859 114.205C194.312 114.517 194.903 114.673 195.632 114.673C196.461 114.673 197.12 114.497 197.608 114.145C198.101 113.788 198.347 113.36 198.347 112.862C198.347 112.46 198.206 112.123 197.925 111.852C197.643 111.575 197.211 111.369 196.627 111.233L194.697 110.781C193.636 110.529 192.856 110.14 192.358 109.612C191.866 109.079 191.619 108.412 191.619 107.613C191.619 106.959 191.803 106.381 192.17 105.878C192.542 105.375 193.047 104.981 193.686 104.694C194.329 104.407 195.059 104.264 195.873 104.264C197.02 104.264 197.92 104.516 198.573 105.018C199.232 105.521 199.7 106.185 199.976 107.01ZM207.724 116.241C206.608 116.241 205.645 115.995 204.835 115.502C204.031 115.004 203.41 114.311 202.972 113.421C202.54 112.526 202.324 111.485 202.324 110.298C202.324 109.111 202.54 108.065 202.972 107.16C203.41 106.25 204.018 105.541 204.798 105.033C205.582 104.521 206.497 104.264 207.543 104.264C208.146 104.264 208.742 104.365 209.331 104.566C209.919 104.767 210.454 105.094 210.937 105.546C211.42 105.994 211.804 106.587 212.091 107.326C212.378 108.065 212.521 108.976 212.521 110.057V110.811H203.591V109.272H210.711C210.711 108.619 210.58 108.035 210.319 107.522C210.062 107.01 209.695 106.605 209.217 106.308C208.745 106.011 208.187 105.863 207.543 105.863C206.834 105.863 206.221 106.039 205.703 106.391C205.19 106.738 204.795 107.191 204.519 107.749C204.242 108.307 204.104 108.905 204.104 109.544V110.57C204.104 111.444 204.255 112.186 204.556 112.795C204.863 113.398 205.288 113.858 205.831 114.175C206.374 114.487 207.005 114.642 207.724 114.642C208.192 114.642 208.614 114.577 208.991 114.446C209.373 114.311 209.703 114.109 209.979 113.843C210.256 113.571 210.469 113.234 210.62 112.832L212.34 113.315C212.159 113.898 211.855 114.411 211.427 114.854C211 115.291 210.472 115.633 209.843 115.879C209.215 116.121 208.508 116.241 207.724 116.241ZM219.603 116.241C218.638 116.241 217.786 115.997 217.046 115.51C216.307 115.017 215.729 114.323 215.312 113.428C214.894 112.528 214.686 111.465 214.686 110.238C214.686 109.021 214.894 107.965 215.312 107.07C215.729 106.175 216.31 105.483 217.054 104.996C217.798 104.508 218.658 104.264 219.633 104.264C220.388 104.264 220.983 104.39 221.421 104.641C221.863 104.888 222.2 105.169 222.432 105.486C222.668 105.798 222.851 106.054 222.982 106.255H223.133V100.553H224.913V116H223.193V114.22H222.982C222.851 114.431 222.665 114.698 222.424 115.019C222.183 115.336 221.838 115.62 221.391 115.872C220.943 116.118 220.347 116.241 219.603 116.241ZM219.845 114.642C220.559 114.642 221.162 114.456 221.655 114.084C222.147 113.707 222.522 113.187 222.779 112.523C223.035 111.854 223.163 111.082 223.163 110.207C223.163 109.343 223.037 108.586 222.786 107.937C222.535 107.284 222.163 106.776 221.67 106.414C221.177 106.047 220.569 105.863 219.845 105.863C219.09 105.863 218.462 106.057 217.959 106.444C217.461 106.826 217.087 107.346 216.835 108.005C216.589 108.659 216.466 109.393 216.466 110.207C216.466 111.032 216.591 111.781 216.843 112.455C217.099 113.124 217.476 113.657 217.974 114.054C218.477 114.446 219.1 114.642 219.845 114.642ZM239.432 104.415V105.923H233.428V104.415H239.432ZM235.178 101.639H236.958V112.681C236.958 113.184 237.031 113.561 237.177 113.813C237.328 114.059 237.519 114.225 237.75 114.311C237.986 114.391 238.235 114.431 238.497 114.431C238.693 114.431 238.854 114.421 238.979 114.401C239.105 114.376 239.206 114.356 239.281 114.341L239.643 115.94C239.522 115.985 239.354 116.03 239.138 116.075C238.922 116.126 238.648 116.151 238.316 116.151C237.813 116.151 237.32 116.043 236.837 115.827C236.36 115.61 235.963 115.281 235.646 114.838C235.334 114.396 235.178 113.838 235.178 113.164V101.639ZM246.691 116.241C245.646 116.241 244.728 115.992 243.938 115.495C243.154 114.997 242.541 114.3 242.098 113.405C241.661 112.51 241.442 111.465 241.442 110.268C241.442 109.061 241.661 108.008 242.098 107.108C242.541 106.208 243.154 105.509 243.938 105.011C244.728 104.513 245.646 104.264 246.691 104.264C247.737 104.264 248.652 104.513 249.437 105.011C250.226 105.509 250.84 106.208 251.277 107.108C251.72 108.008 251.941 109.061 251.941 110.268C251.941 111.465 251.72 112.51 251.277 113.405C250.84 114.3 250.226 114.997 249.437 115.495C248.652 115.992 247.737 116.241 246.691 116.241ZM246.691 114.642C247.486 114.642 248.14 114.439 248.652 114.031C249.165 113.624 249.545 113.089 249.791 112.425C250.038 111.761 250.161 111.042 250.161 110.268C250.161 109.493 250.038 108.772 249.791 108.103C249.545 107.434 249.165 106.894 248.652 106.482C248.14 106.069 247.486 105.863 246.691 105.863C245.897 105.863 245.243 106.069 244.73 106.482C244.218 106.894 243.838 107.434 243.592 108.103C243.345 108.772 243.222 109.493 243.222 110.268C243.222 111.042 243.345 111.761 243.592 112.425C243.838 113.089 244.218 113.624 244.73 114.031C245.243 114.439 245.897 114.642 246.691 114.642ZM14.1334 144V128.553H15.9133V134.255H16.0642C16.1949 134.054 16.3759 133.798 16.6072 133.486C16.8436 133.169 17.1805 132.888 17.6179 132.641C18.0604 132.39 18.6587 132.264 19.413 132.264C20.3885 132.264 21.2483 132.508 21.9925 132.996C22.7366 133.483 23.3174 134.175 23.7347 135.07C24.1521 135.965 24.3607 137.021 24.3607 138.238C24.3607 139.465 24.1521 140.528 23.7347 141.428C23.3174 142.323 22.7391 143.017 22 143.51C21.2608 143.997 20.4086 144.241 19.4431 144.241C18.699 144.241 18.1031 144.118 17.6556 143.872C17.2081 143.62 16.8637 143.336 16.6223 143.019C16.381 142.698 16.1949 142.431 16.0642 142.22H15.853V144H14.1334ZM15.8832 138.207C15.8832 139.082 16.0114 139.854 16.2678 140.523C16.5243 141.187 16.8989 141.707 17.3916 142.084C17.8844 142.456 18.4878 142.642 19.2018 142.642C19.946 142.642 20.567 142.446 21.0647 142.054C21.5676 141.657 21.9447 141.124 22.1961 140.455C22.4525 139.781 22.5808 139.032 22.5808 138.207C22.5808 137.393 22.455 136.659 22.2036 136.005C21.9573 135.346 21.5827 134.826 21.0798 134.444C20.582 134.057 19.956 133.863 19.2018 133.863C18.4777 133.863 17.8693 134.047 17.3766 134.414C16.8838 134.776 16.5117 135.284 16.2603 135.937C16.0089 136.586 15.8832 137.343 15.8832 138.207ZM27.0835 144V132.415H28.8635V144H27.0835ZM27.9886 130.484C27.6417 130.484 27.3425 130.366 27.0911 130.13C26.8447 129.893 26.7215 129.609 26.7215 129.277C26.7215 128.946 26.8447 128.661 27.0911 128.425C27.3425 128.189 27.6417 128.071 27.9886 128.071C28.3355 128.071 28.6322 128.189 28.8786 128.425C29.13 128.661 29.2557 128.946 29.2557 129.277C29.2557 129.609 29.13 129.893 28.8786 130.13C28.6322 130.366 28.3355 130.484 27.9886 130.484ZM35.5328 144.272C34.7987 144.272 34.1324 144.133 33.5341 143.857C32.9357 143.575 32.4606 143.17 32.1086 142.642C31.7566 142.109 31.5806 141.466 31.5806 140.712C31.5806 140.048 31.7114 139.51 31.9728 139.097C32.2343 138.68 32.5838 138.353 33.0212 138.117C33.4587 137.881 33.9414 137.705 34.4693 137.589C35.0023 137.468 35.5378 137.373 36.0759 137.302C36.7798 137.212 37.3505 137.144 37.788 137.099C38.2304 137.048 38.5523 136.966 38.7534 136.85C38.9595 136.734 39.0626 136.533 39.0626 136.246V136.186C39.0626 135.442 38.859 134.864 38.4517 134.451C38.0494 134.039 37.4385 133.833 36.6189 133.833C35.7691 133.833 35.1029 134.019 34.6202 134.391C34.1375 134.763 33.7981 135.16 33.602 135.583L31.9125 134.979C32.2142 134.275 32.6164 133.727 33.1193 133.335C33.6271 132.938 34.1802 132.661 34.7786 132.505C35.382 132.345 35.9753 132.264 36.5586 132.264C36.9307 132.264 37.358 132.309 37.8408 132.4C38.3285 132.485 38.7986 132.664 39.2512 132.935C39.7087 133.207 40.0884 133.617 40.3901 134.165C40.6918 134.713 40.8426 135.447 40.8426 136.367V144H39.0626V142.431H38.9721C38.8514 142.683 38.6503 142.952 38.3687 143.238C38.0871 143.525 37.7125 143.769 37.2449 143.97C36.7773 144.171 36.2066 144.272 35.5328 144.272ZM35.8043 142.673C36.5083 142.673 37.1016 142.534 37.5843 142.258C38.0721 141.981 38.4391 141.624 38.6855 141.187C38.9369 140.749 39.0626 140.289 39.0626 139.806V138.177C38.9872 138.268 38.8213 138.351 38.5648 138.426C38.3134 138.497 38.0218 138.559 37.6899 138.615C37.3631 138.665 37.0438 138.71 36.732 138.751C36.4253 138.786 36.1764 138.816 35.9853 138.841C35.5228 138.901 35.0903 138.999 34.6881 139.135C34.2908 139.266 33.969 139.465 33.7226 139.731C33.4813 139.993 33.3606 140.35 33.3606 140.802C33.3606 141.421 33.5894 141.888 34.047 142.205C34.5096 142.517 35.0954 142.673 35.8043 142.673ZM52.2975 135.01L50.6985 135.462C50.598 135.196 50.4496 134.937 50.2535 134.685C50.0625 134.429 49.801 134.218 49.4691 134.052C49.1373 133.886 48.7124 133.803 48.1945 133.803C47.4855 133.803 46.8947 133.966 46.422 134.293C45.9544 134.615 45.7206 135.025 45.7206 135.522C45.7206 135.965 45.8815 136.314 46.2033 136.571C46.5251 136.827 47.0279 137.041 47.7118 137.212L49.4314 137.634C50.4672 137.886 51.2391 138.27 51.7469 138.788C52.2548 139.301 52.5087 139.962 52.5087 140.772C52.5087 141.436 52.3176 142.029 51.9355 142.552C51.5584 143.075 51.0304 143.487 50.3516 143.789C49.6728 144.091 48.8833 144.241 47.9833 144.241C46.8017 144.241 45.8237 143.985 45.0493 143.472C44.275 142.959 43.7847 142.21 43.5786 141.224L45.2681 140.802C45.429 141.426 45.7332 141.893 46.1807 142.205C46.6332 142.517 47.224 142.673 47.9531 142.673C48.7828 142.673 49.4415 142.497 49.9292 142.145C50.422 141.788 50.6684 141.36 50.6684 140.862C50.6684 140.46 50.5276 140.123 50.246 139.852C49.9644 139.575 49.532 139.369 48.9487 139.233L47.0179 138.781C45.9569 138.529 45.1776 138.14 44.6798 137.612C44.187 137.079 43.9406 136.412 43.9406 135.613C43.9406 134.959 44.1241 134.381 44.4912 133.878C44.8633 133.375 45.3686 132.981 46.0072 132.694C46.6508 132.407 47.3799 132.264 48.1945 132.264C49.3409 132.264 50.241 132.516 50.8946 133.018C51.5533 133.521 52.021 134.185 52.2975 135.01ZM60.0454 144.241C58.9291 144.241 57.9662 143.995 57.1566 143.502C56.3521 143.004 55.7311 142.311 55.2937 141.421C54.8613 140.526 54.6451 139.485 54.6451 138.298C54.6451 137.111 54.8613 136.065 55.2937 135.16C55.7311 134.25 56.3396 133.541 57.1189 133.033C57.9033 132.521 58.8185 132.264 59.8643 132.264C60.4677 132.264 61.0636 132.365 61.6519 132.566C62.2402 132.767 62.7757 133.094 63.2584 133.546C63.7411 133.994 64.1258 134.587 64.4124 135.326C64.699 136.065 64.8423 136.976 64.8423 138.057V138.811H55.9122V137.272H63.0321C63.0321 136.619 62.9014 136.035 62.6399 135.522C62.3835 135.01 62.0164 134.605 61.5387 134.308C61.0661 134.011 60.508 133.863 59.8643 133.863C59.1554 133.863 58.5419 134.039 58.024 134.391C57.5111 134.738 57.1164 135.191 56.8399 135.749C56.5633 136.307 56.425 136.905 56.425 137.544V138.57C56.425 139.444 56.5759 140.186 56.8776 140.795C57.1843 141.398 57.6092 141.858 58.1522 142.175C58.6953 142.487 59.3263 142.642 60.0454 142.642C60.513 142.642 60.9354 142.577 61.3125 142.446C61.6946 142.311 62.024 142.109 62.3005 141.843C62.5771 141.571 62.7908 141.234 62.9416 140.832L64.6613 141.315C64.4802 141.898 64.176 142.411 63.7486 142.854C63.3212 143.291 62.7933 143.633 62.1648 143.879C61.5362 144.121 60.8298 144.241 60.0454 144.241ZM71.9245 144.241C70.9591 144.241 70.1068 143.997 69.3677 143.51C68.6285 143.017 68.0503 142.323 67.6329 141.428C67.2156 140.528 67.0069 139.465 67.0069 138.238C67.0069 137.021 67.2156 135.965 67.6329 135.07C68.0503 134.175 68.631 133.483 69.3752 132.996C70.1194 132.508 70.9792 132.264 71.9547 132.264C72.7089 132.264 73.3048 132.39 73.7422 132.641C74.1847 132.888 74.5216 133.169 74.7529 133.486C74.9892 133.798 75.1727 134.054 75.3035 134.255H75.4543V128.553H77.2343V144H75.5147V142.22H75.3035C75.1727 142.431 74.9867 142.698 74.7453 143.019C74.504 143.336 74.1596 143.62 73.712 143.872C73.2645 144.118 72.6687 144.241 71.9245 144.241ZM72.1659 142.642C72.8799 142.642 73.4833 142.456 73.976 142.084C74.4688 141.707 74.8434 141.187 75.0998 140.523C75.3563 139.854 75.4845 139.082 75.4845 138.207C75.4845 137.343 75.3588 136.586 75.1074 135.937C74.856 135.284 74.4839 134.776 73.9911 134.414C73.4983 134.047 72.8899 133.863 72.1659 133.863C71.4116 133.863 70.7831 134.057 70.2803 134.444C69.7825 134.826 69.4079 135.346 69.1565 136.005C68.9101 136.659 68.7869 137.393 68.7869 138.207C68.7869 139.032 68.9126 139.781 69.164 140.455C69.4205 141.124 69.7976 141.657 70.2954 142.054C70.7982 142.446 71.4217 142.642 72.1659 142.642ZM90.1241 144.272C89.39 144.272 88.7238 144.133 88.1254 143.857C87.5271 143.575 87.0519 143.17 86.6999 142.642C86.348 142.109 86.172 141.466 86.172 140.712C86.172 140.048 86.3027 139.51 86.5642 139.097C86.8256 138.68 87.1751 138.353 87.6125 138.117C88.05 137.881 88.5327 137.705 89.0607 137.589C89.5937 137.468 90.1292 137.373 90.6672 137.302C91.3711 137.212 91.9418 137.144 92.3793 137.099C92.8218 137.048 93.1436 136.966 93.3447 136.85C93.5509 136.734 93.6539 136.533 93.6539 136.246V136.186C93.6539 135.442 93.4503 134.864 93.043 134.451C92.6408 134.039 92.0298 133.833 91.2102 133.833C90.3605 133.833 89.6942 134.019 89.2115 134.391C88.7288 134.763 88.3894 135.16 88.1933 135.583L86.5038 134.979C86.8055 134.275 87.2078 133.727 87.7106 133.335C88.2184 132.938 88.7716 132.661 89.3699 132.505C89.9733 132.345 90.5666 132.264 91.1499 132.264C91.522 132.264 91.9494 132.309 92.4321 132.4C92.9198 132.485 93.39 132.664 93.8425 132.935C94.3001 133.207 94.6797 133.617 94.9814 134.165C95.2831 134.713 95.4339 135.447 95.4339 136.367V144H93.6539V142.431H93.5634C93.4428 142.683 93.2416 142.952 92.9601 143.238C92.6785 143.525 92.3039 143.769 91.8362 143.97C91.3686 144.171 90.7979 144.272 90.1241 144.272ZM90.3957 142.673C91.0996 142.673 91.6929 142.534 92.1757 142.258C92.6634 141.981 93.0304 141.624 93.2768 141.187C93.5282 140.749 93.6539 140.289 93.6539 139.806V138.177C93.5785 138.268 93.4126 138.351 93.1562 138.426C92.9047 138.497 92.6131 138.559 92.2812 138.615C91.9544 138.665 91.6351 138.71 91.3234 138.751C91.0166 138.786 90.7678 138.816 90.5767 138.841C90.1141 138.901 89.6817 138.999 89.2794 139.135C88.8822 139.266 88.5604 139.465 88.314 139.731C88.0726 139.993 87.952 140.35 87.952 140.802C87.952 141.421 88.1807 141.888 88.6383 142.205C89.1009 142.517 89.6867 142.673 90.3957 142.673ZM98.6828 144V132.415H100.402V134.165H100.523C100.734 133.592 101.116 133.126 101.67 132.769C102.223 132.412 102.846 132.234 103.54 132.234C103.671 132.234 103.834 132.236 104.03 132.242C104.226 132.247 104.375 132.254 104.475 132.264V134.074C104.415 134.059 104.277 134.037 104.06 134.006C103.849 133.971 103.626 133.954 103.389 133.954C102.826 133.954 102.323 134.072 101.881 134.308C101.443 134.539 101.096 134.861 100.84 135.274C100.588 135.681 100.463 136.146 100.463 136.669V144H98.6828ZM110.909 148.586C110.049 148.586 109.31 148.475 108.691 148.254C108.073 148.038 107.558 147.751 107.145 147.394C106.738 147.042 106.414 146.665 106.172 146.263L107.59 145.267C107.751 145.478 107.955 145.72 108.201 145.991C108.448 146.268 108.784 146.507 109.212 146.708C109.644 146.914 110.21 147.017 110.909 147.017C111.844 147.017 112.616 146.791 113.224 146.338C113.833 145.886 114.137 145.177 114.137 144.211V141.858H113.986C113.855 142.069 113.669 142.331 113.428 142.642C113.192 142.949 112.85 143.223 112.402 143.464C111.96 143.701 111.361 143.819 110.607 143.819C109.672 143.819 108.832 143.598 108.088 143.155C107.349 142.713 106.763 142.069 106.331 141.224C105.903 140.38 105.69 139.354 105.69 138.147C105.69 136.96 105.898 135.927 106.316 135.047C106.733 134.162 107.314 133.478 108.058 132.996C108.802 132.508 109.662 132.264 110.637 132.264C111.392 132.264 111.99 132.39 112.432 132.641C112.88 132.888 113.222 133.169 113.458 133.486C113.7 133.798 113.886 134.054 114.016 134.255H114.197V132.415H115.917V144.332C115.917 145.327 115.691 146.137 115.238 146.76C114.791 147.389 114.187 147.849 113.428 148.141C112.674 148.437 111.834 148.586 110.909 148.586ZM110.849 142.22C111.563 142.22 112.166 142.057 112.659 141.73C113.151 141.403 113.526 140.933 113.783 140.319C114.039 139.706 114.167 138.972 114.167 138.117C114.167 137.282 114.041 136.546 113.79 135.907C113.539 135.269 113.167 134.768 112.674 134.406C112.181 134.044 111.573 133.863 110.849 133.863C110.094 133.863 109.466 134.054 108.963 134.436C108.465 134.818 108.091 135.331 107.839 135.975C107.593 136.619 107.47 137.333 107.47 138.117C107.47 138.922 107.595 139.633 107.847 140.251C108.103 140.865 108.48 141.348 108.978 141.7C109.481 142.047 110.104 142.22 110.849 142.22ZM126.476 139.263V132.415H128.256V144H126.476V142.039H126.356C126.084 142.627 125.662 143.128 125.088 143.54C124.515 143.947 123.791 144.151 122.916 144.151C122.192 144.151 121.549 143.992 120.985 143.676C120.422 143.354 119.98 142.871 119.658 142.228C119.336 141.579 119.175 140.762 119.175 139.776V132.415H120.955V139.656C120.955 140.5 121.192 141.174 121.664 141.677C122.142 142.18 122.75 142.431 123.489 142.431C123.932 142.431 124.382 142.318 124.84 142.092C125.302 141.866 125.689 141.519 126.001 141.051C126.318 140.583 126.476 139.987 126.476 139.263ZM131.516 144V132.415H133.236V134.225H133.387C133.628 133.607 134.018 133.126 134.556 132.785C135.094 132.438 135.74 132.264 136.494 132.264C137.259 132.264 137.895 132.438 138.403 132.785C138.915 133.126 139.315 133.607 139.602 134.225H139.722C140.019 133.627 140.464 133.152 141.057 132.8C141.651 132.443 142.362 132.264 143.192 132.264C144.228 132.264 145.075 132.588 145.734 133.237C146.392 133.881 146.722 134.884 146.722 136.246V144H144.942V136.246C144.942 135.392 144.708 134.781 144.24 134.414C143.773 134.047 143.222 133.863 142.589 133.863C141.774 133.863 141.143 134.11 140.695 134.602C140.248 135.09 140.024 135.708 140.024 136.458V144H138.214V136.065C138.214 135.407 138 134.876 137.573 134.474C137.145 134.067 136.595 133.863 135.921 133.863C135.459 133.863 135.026 133.986 134.624 134.233C134.227 134.479 133.905 134.821 133.658 135.258C133.417 135.691 133.296 136.191 133.296 136.759V144H131.516ZM154.834 144.241C153.717 144.241 152.754 143.995 151.945 143.502C151.14 143.004 150.519 142.311 150.082 141.421C149.649 140.526 149.433 139.485 149.433 138.298C149.433 137.111 149.649 136.065 150.082 135.16C150.519 134.25 151.128 133.541 151.907 133.033C152.691 132.521 153.607 132.264 154.652 132.264C155.256 132.264 155.852 132.365 156.44 132.566C157.028 132.767 157.564 133.094 158.047 133.546C158.529 133.994 158.914 134.587 159.201 135.326C159.487 136.065 159.63 136.976 159.63 138.057V138.811H150.7V137.272H157.82C157.82 136.619 157.69 136.035 157.428 135.522C157.172 135.01 156.805 134.605 156.327 134.308C155.854 134.011 155.296 133.863 154.652 133.863C153.944 133.863 153.33 134.039 152.812 134.391C152.299 134.738 151.905 135.191 151.628 135.749C151.351 136.307 151.213 136.905 151.213 137.544V138.57C151.213 139.444 151.364 140.186 151.666 140.795C151.972 141.398 152.397 141.858 152.94 142.175C153.483 142.487 154.114 142.642 154.834 142.642C155.301 142.642 155.723 142.577 156.101 142.446C156.483 142.311 156.812 142.109 157.089 141.843C157.365 141.571 157.579 141.234 157.73 140.832L159.449 141.315C159.268 141.898 158.964 142.411 158.537 142.854C158.109 143.291 157.581 143.633 156.953 143.879C156.324 144.121 155.618 144.241 154.834 144.241ZM164.118 137.031V144H162.338V132.415H164.058V134.225H164.209C164.48 133.637 164.892 133.164 165.446 132.807C165.999 132.445 166.713 132.264 167.588 132.264C168.372 132.264 169.058 132.425 169.647 132.747C170.235 133.064 170.692 133.546 171.019 134.195C171.346 134.839 171.51 135.653 171.51 136.639V144H169.73V136.759C169.73 135.849 169.493 135.14 169.021 134.632C168.548 134.12 167.899 133.863 167.075 133.863C166.506 133.863 165.999 133.986 165.551 134.233C165.109 134.479 164.759 134.839 164.503 135.311C164.246 135.784 164.118 136.357 164.118 137.031ZM179.8 132.415V133.923H173.797V132.415H179.8ZM175.547 129.639H177.327V140.681C177.327 141.184 177.399 141.561 177.545 141.813C177.696 142.059 177.887 142.225 178.119 142.311C178.355 142.391 178.604 142.431 178.865 142.431C179.061 142.431 179.222 142.421 179.348 142.401C179.474 142.376 179.574 142.356 179.65 142.341L180.012 143.94C179.891 143.985 179.723 144.03 179.506 144.075C179.29 144.126 179.016 144.151 178.684 144.151C178.181 144.151 177.689 144.043 177.206 143.827C176.728 143.61 176.331 143.281 176.014 142.838C175.702 142.396 175.547 141.838 175.547 141.164V129.639ZM190.477 135.01L188.878 135.462C188.777 135.196 188.629 134.937 188.433 134.685C188.242 134.429 187.98 134.218 187.648 134.052C187.316 133.886 186.892 133.803 186.374 133.803C185.665 133.803 185.074 133.966 184.601 134.293C184.134 134.615 183.9 135.025 183.9 135.522C183.9 135.965 184.061 136.314 184.382 136.571C184.704 136.827 185.207 137.041 185.891 137.212L187.611 137.634C188.646 137.886 189.418 138.27 189.926 138.788C190.434 139.301 190.688 139.962 190.688 140.772C190.688 141.436 190.497 142.029 190.115 142.552C189.737 143.075 189.21 143.487 188.531 143.789C187.852 144.091 187.062 144.241 186.162 144.241C184.981 144.241 184.003 143.985 183.228 143.472C182.454 142.959 181.964 142.21 181.758 141.224L183.447 140.802C183.608 141.426 183.912 141.893 184.36 142.205C184.812 142.517 185.403 142.673 186.132 142.673C186.962 142.673 187.621 142.497 188.108 142.145C188.601 141.788 188.847 141.36 188.847 140.862C188.847 140.46 188.707 140.123 188.425 139.852C188.144 139.575 187.711 139.369 187.128 139.233L185.197 138.781C184.136 138.529 183.357 138.14 182.859 137.612C182.366 137.079 182.12 136.412 182.12 135.613C182.12 134.959 182.303 134.381 182.67 133.878C183.042 133.375 183.548 132.981 184.186 132.694C184.83 132.407 185.559 132.264 186.374 132.264C187.52 132.264 188.42 132.516 189.074 133.018C189.732 133.521 190.2 134.185 190.477 135.01ZM202.75 144.272C202.016 144.272 201.35 144.133 200.751 143.857C200.153 143.575 199.678 143.17 199.326 142.642C198.974 142.109 198.798 141.466 198.798 140.712C198.798 140.048 198.928 139.51 199.19 139.097C199.451 138.68 199.801 138.353 200.238 138.117C200.676 137.881 201.158 137.705 201.686 137.589C202.219 137.468 202.755 137.373 203.293 137.302C203.997 137.212 204.568 137.144 205.005 137.099C205.448 137.048 205.769 136.966 205.97 136.85C206.177 136.734 206.28 136.533 206.28 136.246V136.186C206.28 135.442 206.076 134.864 205.669 134.451C205.267 134.039 204.656 133.833 203.836 133.833C202.986 133.833 202.32 134.019 201.837 134.391C201.355 134.763 201.015 135.16 200.819 135.583L199.13 134.979C199.431 134.275 199.834 133.727 200.336 133.335C200.844 132.938 201.397 132.661 201.996 132.505C202.599 132.345 203.192 132.264 203.776 132.264C204.148 132.264 204.575 132.309 205.058 132.4C205.546 132.485 206.016 132.664 206.468 132.935C206.926 133.207 207.305 133.617 207.607 134.165C207.909 134.713 208.06 135.447 208.06 136.367V144H206.28V142.431H206.189C206.069 142.683 205.867 142.952 205.586 143.238C205.304 143.525 204.93 143.769 204.462 143.97C203.994 144.171 203.424 144.272 202.75 144.272ZM203.021 142.673C203.725 142.673 204.319 142.534 204.801 142.258C205.289 141.981 205.656 141.624 205.903 141.187C206.154 140.749 206.28 140.289 206.28 139.806V138.177C206.204 138.268 206.038 138.351 205.782 138.426C205.53 138.497 205.239 138.559 204.907 138.615C204.58 138.665 204.261 138.71 203.949 138.751C203.642 138.786 203.393 138.816 203.202 138.841C202.74 138.901 202.307 138.999 201.905 139.135C201.508 139.266 201.186 139.465 200.94 139.731C200.698 139.993 200.578 140.35 200.578 140.802C200.578 141.421 200.806 141.888 201.264 142.205C201.727 142.517 202.312 142.673 203.021 142.673ZM216.347 132.415V133.923H210.343V132.415H216.347ZM212.093 129.639H213.873V140.681C213.873 141.184 213.946 141.561 214.092 141.813C214.242 142.059 214.434 142.225 214.665 142.311C214.901 142.391 215.15 142.431 215.412 142.431C215.608 142.431 215.769 142.421 215.894 142.401C216.02 142.376 216.121 142.356 216.196 142.341L216.558 143.94C216.437 143.985 216.269 144.03 216.053 144.075C215.836 144.126 215.562 144.151 215.231 144.151C214.728 144.151 214.235 144.043 213.752 143.827C213.275 143.61 212.877 143.281 212.561 142.838C212.249 142.396 212.093 141.838 212.093 141.164V129.639ZM228.407 144.272C227.673 144.272 227.007 144.133 226.408 143.857C225.81 143.575 225.335 143.17 224.983 142.642C224.631 142.109 224.455 141.466 224.455 140.712C224.455 140.048 224.586 139.51 224.847 139.097C225.108 138.68 225.458 138.353 225.895 138.117C226.333 137.881 226.816 137.705 227.344 137.589C227.877 137.468 228.412 137.373 228.95 137.302C229.654 137.212 230.225 137.144 230.662 137.099C231.105 137.048 231.426 136.966 231.628 136.85C231.834 136.734 231.937 136.533 231.937 136.246V136.186C231.937 135.442 231.733 134.864 231.326 134.451C230.924 134.039 230.313 133.833 229.493 133.833C228.643 133.833 227.977 134.019 227.494 134.391C227.012 134.763 226.672 135.16 226.476 135.583L224.787 134.979C225.088 134.275 225.491 133.727 225.993 133.335C226.501 132.938 227.054 132.661 227.653 132.505C228.256 132.345 228.849 132.264 229.433 132.264C229.805 132.264 230.232 132.309 230.715 132.4C231.203 132.485 231.673 132.664 232.125 132.935C232.583 133.207 232.963 133.617 233.264 134.165C233.566 134.713 233.717 135.447 233.717 136.367V144H231.937V142.431H231.846C231.726 142.683 231.524 142.952 231.243 143.238C230.961 143.525 230.587 143.769 230.119 143.97C229.651 144.171 229.081 144.272 228.407 144.272ZM228.679 142.673C229.382 142.673 229.976 142.534 230.458 142.258C230.946 141.981 231.313 141.624 231.56 141.187C231.811 140.749 231.937 140.289 231.937 139.806V138.177C231.861 138.268 231.695 138.351 231.439 138.426C231.188 138.497 230.896 138.559 230.564 138.615C230.237 138.665 229.918 138.71 229.606 138.751C229.299 138.786 229.051 138.816 228.86 138.841C228.397 138.901 227.965 138.999 227.562 139.135C227.165 139.266 226.843 139.465 226.597 139.731C226.355 139.993 226.235 140.35 226.235 140.802C226.235 141.421 226.464 141.888 226.921 142.205C227.384 142.517 227.97 142.673 228.679 142.673ZM238.746 137.031V144H236.966V132.415H238.685V134.225H238.836C239.108 133.637 239.52 133.164 240.073 132.807C240.626 132.445 241.34 132.264 242.215 132.264C242.999 132.264 243.686 132.425 244.274 132.747C244.862 133.064 245.32 133.546 245.647 134.195C245.974 134.839 246.137 135.653 246.137 136.639V144H244.357V136.759C244.357 135.849 244.121 135.14 243.648 134.632C243.175 134.12 242.527 133.863 241.702 133.863C241.134 133.863 240.626 133.986 240.179 134.233C239.736 134.479 239.387 134.839 239.13 135.311C238.874 135.784 238.746 136.357 238.746 137.031ZM22.7278 172V160.415H24.5078V172H22.7278ZM23.6329 158.484C23.286 158.484 22.9868 158.366 22.7354 158.13C22.489 157.893 22.3658 157.609 22.3658 157.277C22.3658 156.946 22.489 156.661 22.7354 156.425C22.9868 156.189 23.286 156.071 23.6329 156.071C23.9799 156.071 24.2765 156.189 24.5229 156.425C24.7743 156.661 24.9 156.946 24.9 157.277C24.9 157.609 24.7743 157.893 24.5229 158.13C24.2765 158.366 23.9799 158.484 23.6329 158.484ZM29.548 165.031V172H27.768V160.415H29.4876V162.225H29.6385C29.91 161.637 30.3223 161.164 30.8754 160.807C31.4285 160.445 32.1425 160.264 33.0175 160.264C33.8019 160.264 34.4882 160.425 35.0765 160.747C35.6648 161.064 36.1224 161.546 36.4492 162.195C36.776 162.839 36.9395 163.653 36.9395 164.639V172H35.1595V164.759C35.1595 163.849 34.9231 163.14 34.4505 162.632C33.9778 162.12 33.3292 161.863 32.5046 161.863C31.9364 161.863 31.4285 161.986 30.981 162.233C30.5385 162.479 30.1891 162.839 29.9326 163.311C29.6762 163.784 29.548 164.357 29.548 165.031ZM44.8985 172.241C43.8124 172.241 42.8772 171.985 42.0927 171.472C41.3083 170.959 40.705 170.253 40.2826 169.353C39.8602 168.453 39.649 167.424 39.649 166.268C39.649 165.091 39.8653 164.053 40.2977 163.153C40.7351 162.248 41.3435 161.541 42.1229 161.033C42.9073 160.521 43.8225 160.264 44.8683 160.264C45.6829 160.264 46.417 160.415 47.0707 160.717C47.7244 161.018 48.2599 161.441 48.6772 161.984C49.0945 162.527 49.3535 163.16 49.4541 163.884H47.6741C47.5383 163.356 47.2366 162.889 46.769 162.482C46.3064 162.069 45.6829 161.863 44.8985 161.863C44.2046 161.863 43.5962 162.044 43.0733 162.406C42.5553 162.763 42.1506 163.269 41.8589 163.922C41.5723 164.571 41.429 165.333 41.429 166.207C41.429 167.103 41.5698 167.882 41.8514 168.546C42.138 169.209 42.5403 169.725 43.0582 170.092C43.5811 170.459 44.1945 170.642 44.8985 170.642C45.3611 170.642 45.7809 170.562 46.1581 170.401C46.5352 170.24 46.8545 170.009 47.1159 169.707C47.3774 169.405 47.5634 169.043 47.6741 168.621H49.4541C49.3535 169.305 49.1046 169.921 48.7074 170.469C48.3152 171.012 47.7947 171.444 47.1461 171.766C46.5025 172.083 45.7533 172.241 44.8985 172.241ZM52.0562 172V160.415H53.7758V162.165H53.8965C54.1077 161.592 54.4898 161.126 55.0429 160.769C55.596 160.412 56.2195 160.234 56.9134 160.234C57.0441 160.234 57.2076 160.236 57.4037 160.242C57.5998 160.247 57.7481 160.254 57.8487 160.264V162.074C57.7883 162.059 57.65 162.037 57.4338 162.006C57.2227 161.971 56.9989 161.954 56.7626 161.954C56.1994 161.954 55.6966 162.072 55.2541 162.308C54.8166 162.539 54.4697 162.861 54.2133 163.274C53.9619 163.681 53.8361 164.146 53.8361 164.669V172H52.0562ZM64.4633 172.241C63.347 172.241 62.3841 171.995 61.5746 171.502C60.7701 171.004 60.1491 170.311 59.7116 169.421C59.2792 168.526 59.063 167.485 59.063 166.298C59.063 165.111 59.2792 164.065 59.7116 163.16C60.1491 162.25 60.7575 161.541 61.5369 161.033C62.3213 160.521 63.2364 160.264 64.2823 160.264C64.8857 160.264 65.4815 160.365 66.0698 160.566C66.6581 160.767 67.1936 161.094 67.6763 161.546C68.159 161.994 68.5437 162.587 68.8303 163.326C69.1169 164.065 69.2602 164.976 69.2602 166.057V166.811H60.3301V165.272H67.45C67.45 164.619 67.3193 164.035 67.0578 163.522C66.8014 163.01 66.4343 162.605 65.9567 162.308C65.484 162.011 64.9259 161.863 64.2823 161.863C63.5733 161.863 62.9598 162.039 62.4419 162.391C61.9291 162.738 61.5343 163.191 61.2578 163.749C60.9812 164.307 60.843 164.905 60.843 165.544V166.57C60.843 167.444 60.9938 168.186 61.2955 168.795C61.6022 169.398 62.0271 169.858 62.5702 170.175C63.1132 170.487 63.7442 170.642 64.4633 170.642C64.9309 170.642 65.3533 170.577 65.7304 170.446C66.1125 170.311 66.4419 170.109 66.7184 169.843C66.995 169.571 67.2087 169.234 67.3595 168.832L69.0792 169.315C68.8982 169.898 68.594 170.411 68.1666 170.854C67.7392 171.291 67.2112 171.633 66.5827 171.879C65.9541 172.121 65.2477 172.241 64.4633 172.241ZM75.377 172.272C74.6429 172.272 73.9767 172.133 73.3783 171.857C72.7799 171.575 72.3048 171.17 71.9528 170.642C71.6008 170.109 71.4248 169.466 71.4248 168.712C71.4248 168.048 71.5556 167.51 71.817 167.097C72.0785 166.68 72.428 166.353 72.8654 166.117C73.3029 165.881 73.7856 165.705 74.3135 165.589C74.8465 165.468 75.382 165.373 75.9201 165.302C76.624 165.212 77.1947 165.144 77.6322 165.099C78.0747 165.048 78.3965 164.966 78.5976 164.85C78.8037 164.734 78.9068 164.533 78.9068 164.246V164.186C78.9068 163.442 78.7032 162.864 78.2959 162.451C77.8936 162.039 77.2827 161.833 76.4631 161.833C75.6133 161.833 74.9471 162.019 74.4644 162.391C73.9817 162.763 73.6423 163.16 73.4462 163.583L71.7567 162.979C72.0584 162.275 72.4607 161.727 72.9635 161.335C73.4713 160.938 74.0244 160.661 74.6228 160.505C75.2262 160.345 75.8195 160.264 76.4028 160.264C76.7749 160.264 77.2023 160.309 77.685 160.4C78.1727 160.485 78.6428 160.664 79.0954 160.935C79.5529 161.207 79.9326 161.617 80.2343 162.165C80.536 162.713 80.6868 163.447 80.6868 164.367V172H78.9068V170.431H78.8163C78.6956 170.683 78.4945 170.952 78.2129 171.238C77.9314 171.525 77.5567 171.769 77.0891 171.97C76.6215 172.171 76.0508 172.272 75.377 172.272ZM75.6485 170.673C76.3525 170.673 76.9458 170.534 77.4285 170.258C77.9163 169.981 78.2833 169.624 78.5297 169.187C78.7811 168.749 78.9068 168.289 78.9068 167.806V166.177C78.8314 166.268 78.6655 166.351 78.409 166.426C78.1576 166.497 77.866 166.559 77.5341 166.615C77.2073 166.665 76.888 166.71 76.5762 166.751C76.2695 166.786 76.0206 166.816 75.8296 166.841C75.367 166.901 74.9345 166.999 74.5323 167.135C74.135 167.266 73.8132 167.465 73.5669 167.731C73.3255 167.993 73.2048 168.35 73.2048 168.802C73.2048 169.421 73.4336 169.888 73.8912 170.205C74.3538 170.517 74.9396 170.673 75.6485 170.673ZM92.1417 163.01L90.5428 163.462C90.4422 163.196 90.2939 162.937 90.0978 162.685C89.9067 162.429 89.6452 162.218 89.3134 162.052C88.9815 161.886 88.5566 161.803 88.0387 161.803C87.3297 161.803 86.7389 161.966 86.2663 162.293C85.7986 162.615 85.5648 163.025 85.5648 163.522C85.5648 163.965 85.7257 164.314 86.0475 164.571C86.3693 164.827 86.8722 165.041 87.556 165.212L89.2756 165.634C90.3115 165.886 91.0833 166.27 91.5911 166.788C92.099 167.301 92.3529 167.962 92.3529 168.772C92.3529 169.436 92.1618 170.029 91.7797 170.552C91.4026 171.075 90.8746 171.487 90.1958 171.789C89.517 172.091 88.7276 172.241 87.8275 172.241C86.6459 172.241 85.6679 171.985 84.8936 171.472C84.1192 170.959 83.629 170.21 83.4228 169.224L85.1123 168.802C85.2732 169.426 85.5774 169.893 86.0249 170.205C86.4774 170.517 87.0683 170.673 87.7973 170.673C88.627 170.673 89.2857 170.497 89.7734 170.145C90.2662 169.788 90.5126 169.36 90.5126 168.862C90.5126 168.46 90.3718 168.123 90.0902 167.852C89.8086 167.575 89.3762 167.369 88.7929 167.233L86.8621 166.781C85.8011 166.529 85.0218 166.14 84.524 165.612C84.0312 165.079 83.7848 164.412 83.7848 163.613C83.7848 162.959 83.9684 162.381 84.3354 161.878C84.7075 161.375 85.2128 160.981 85.8514 160.694C86.495 160.407 87.2241 160.264 88.0387 160.264C89.1851 160.264 90.0852 160.516 90.7389 161.018C91.3975 161.521 91.8652 162.185 92.1417 163.01ZM95.0323 172V160.415H96.8123V172H95.0323ZM95.9374 158.484C95.5904 158.484 95.2913 158.366 95.0399 158.13C94.7935 157.893 94.6703 157.609 94.6703 157.277C94.6703 156.946 94.7935 156.661 95.0399 156.425C95.2913 156.189 95.5904 156.071 95.9374 156.071C96.2843 156.071 96.581 156.189 96.8274 156.425C97.0788 156.661 97.2045 156.946 97.2045 157.277C97.2045 157.609 97.0788 157.893 96.8274 158.13C96.581 158.366 96.2843 158.484 95.9374 158.484ZM101.852 165.031V172H100.072V160.415H101.792V162.225H101.943C102.214 161.637 102.627 161.164 103.18 160.807C103.733 160.445 104.447 160.264 105.322 160.264C106.106 160.264 106.793 160.425 107.381 160.747C107.969 161.064 108.427 161.546 108.754 162.195C109.081 162.839 109.244 163.653 109.244 164.639V172H107.464V164.759C107.464 163.849 107.228 163.14 106.755 162.632C106.282 162.12 105.634 161.863 104.809 161.863C104.241 161.863 103.733 161.986 103.286 162.233C102.843 162.479 102.494 162.839 102.237 163.311C101.981 163.784 101.852 164.357 101.852 165.031ZM117.173 176.586C116.313 176.586 115.574 176.475 114.955 176.254C114.337 176.038 113.822 175.751 113.409 175.394C113.002 175.042 112.678 174.665 112.436 174.263L113.854 173.267C114.015 173.478 114.219 173.72 114.465 173.991C114.711 174.268 115.048 174.507 115.476 174.708C115.908 174.914 116.474 175.017 117.173 175.017C118.108 175.017 118.88 174.791 119.488 174.338C120.097 173.886 120.401 173.177 120.401 172.211V169.858H120.25C120.119 170.069 119.933 170.331 119.692 170.642C119.456 170.949 119.114 171.223 118.666 171.464C118.224 171.701 117.625 171.819 116.871 171.819C115.936 171.819 115.096 171.598 114.352 171.155C113.613 170.713 113.027 170.069 112.595 169.224C112.167 168.38 111.954 167.354 111.954 166.147C111.954 164.96 112.162 163.927 112.58 163.047C112.997 162.162 113.578 161.478 114.322 160.996C115.066 160.508 115.926 160.264 116.901 160.264C117.656 160.264 118.254 160.39 118.696 160.641C119.144 160.888 119.486 161.169 119.722 161.486C119.963 161.798 120.15 162.054 120.28 162.255H120.461V160.415H122.181V172.332C122.181 173.327 121.955 174.137 121.502 174.76C121.055 175.389 120.451 175.849 119.692 176.141C118.938 176.437 118.098 176.586 117.173 176.586ZM117.112 170.22C117.826 170.22 118.43 170.057 118.923 169.73C119.415 169.403 119.79 168.933 120.046 168.319C120.303 167.706 120.431 166.972 120.431 166.117C120.431 165.282 120.305 164.546 120.054 163.907C119.803 163.269 119.43 162.768 118.938 162.406C118.445 162.044 117.837 161.863 117.112 161.863C116.358 161.863 115.73 162.054 115.227 162.436C114.729 162.818 114.354 163.331 114.103 163.975C113.857 164.619 113.734 165.333 113.734 166.117C113.734 166.922 113.859 167.633 114.111 168.251C114.367 168.865 114.744 169.348 115.242 169.7C115.745 170.047 116.368 170.22 117.112 170.22ZM133.193 165.031V172H131.413V156.553H133.193V162.225H133.344C133.615 161.627 134.022 161.152 134.565 160.8C135.113 160.443 135.843 160.264 136.753 160.264C137.542 160.264 138.233 160.423 138.827 160.739C139.42 161.051 139.88 161.531 140.207 162.18C140.539 162.824 140.705 163.643 140.705 164.639V172H138.925V164.759C138.925 163.839 138.686 163.128 138.208 162.625C137.736 162.117 137.08 161.863 136.24 161.863C135.657 161.863 135.134 161.986 134.671 162.233C134.213 162.479 133.851 162.839 133.585 163.311C133.323 163.784 133.193 164.357 133.193 165.031ZM143.961 172V160.415H145.741V172H143.961ZM144.866 158.484C144.519 158.484 144.22 158.366 143.969 158.13C143.722 157.893 143.599 157.609 143.599 157.277C143.599 156.946 143.722 156.661 143.969 156.425C144.22 156.189 144.519 156.071 144.866 156.071C145.213 156.071 145.51 156.189 145.756 156.425C146.008 156.661 146.133 156.946 146.133 157.277C146.133 157.609 146.008 157.893 145.756 158.13C145.51 158.366 145.213 158.484 144.866 158.484ZM153.678 176.586C152.818 176.586 152.079 176.475 151.46 176.254C150.842 176.038 150.326 175.751 149.914 175.394C149.507 175.042 149.182 174.665 148.941 174.263L150.359 173.267C150.52 173.478 150.724 173.72 150.97 173.991C151.216 174.268 151.553 174.507 151.981 174.708C152.413 174.914 152.979 175.017 153.678 175.017C154.613 175.017 155.385 174.791 155.993 174.338C156.602 173.886 156.906 173.177 156.906 172.211V169.858H156.755C156.624 170.069 156.438 170.331 156.197 170.642C155.96 170.949 155.619 171.223 155.171 171.464C154.729 171.701 154.13 171.819 153.376 171.819C152.441 171.819 151.601 171.598 150.857 171.155C150.118 170.713 149.532 170.069 149.099 169.224C148.672 168.38 148.458 167.354 148.458 166.147C148.458 164.96 148.667 163.927 149.084 163.047C149.502 162.162 150.082 161.478 150.827 160.996C151.571 160.508 152.431 160.264 153.406 160.264C154.16 160.264 154.759 160.39 155.201 160.641C155.649 160.888 155.991 161.169 156.227 161.486C156.468 161.798 156.654 162.054 156.785 162.255H156.966V160.415H158.686V172.332C158.686 173.327 158.459 174.137 158.007 174.76C157.559 175.389 156.956 175.849 156.197 176.141C155.443 176.437 154.603 176.586 153.678 176.586ZM153.617 170.22C154.331 170.22 154.935 170.057 155.427 169.73C155.92 169.403 156.295 168.933 156.551 168.319C156.808 167.706 156.936 166.972 156.936 166.117C156.936 165.282 156.81 164.546 156.559 163.907C156.307 163.269 155.935 162.768 155.443 162.406C154.95 162.044 154.341 161.863 153.617 161.863C152.863 161.863 152.235 162.054 151.732 162.436C151.234 162.818 150.859 163.331 150.608 163.975C150.362 164.619 150.238 165.333 150.238 166.117C150.238 166.922 150.364 167.633 150.615 168.251C150.872 168.865 151.249 169.348 151.747 169.7C152.25 170.047 152.873 170.22 153.617 170.22ZM163.724 165.031V172H161.944V156.553H163.724V162.225H163.875C164.146 161.627 164.554 161.152 165.097 160.8C165.645 160.443 166.374 160.264 167.284 160.264C168.073 160.264 168.765 160.423 169.358 160.739C169.951 161.051 170.412 161.531 170.738 162.18C171.07 162.824 171.236 163.643 171.236 164.639V172H169.456V164.759C169.456 163.839 169.217 163.128 168.74 162.625C168.267 162.117 167.611 161.863 166.771 161.863C166.188 161.863 165.665 161.986 165.202 162.233C164.745 162.479 164.383 162.839 164.116 163.311C163.855 163.784 163.724 164.357 163.724 165.031ZM179.35 172.241C178.234 172.241 177.271 171.995 176.461 171.502C175.657 171.004 175.036 170.311 174.598 169.421C174.166 168.526 173.95 167.485 173.95 166.298C173.95 165.111 174.166 164.065 174.598 163.16C175.036 162.25 175.644 161.541 176.423 161.033C177.208 160.521 178.123 160.264 179.169 160.264C179.772 160.264 180.368 160.365 180.956 160.566C181.545 160.767 182.08 161.094 182.563 161.546C183.046 161.994 183.43 162.587 183.717 163.326C184.003 164.065 184.147 164.976 184.147 166.057V166.811H175.217V165.272H182.337C182.337 164.619 182.206 164.035 181.944 163.522C181.688 163.01 181.321 162.605 180.843 162.308C180.371 162.011 179.812 161.863 179.169 161.863C178.46 161.863 177.846 162.039 177.328 162.391C176.816 162.738 176.421 163.191 176.144 163.749C175.868 164.307 175.73 164.905 175.73 165.544V166.57C175.73 167.444 175.88 168.186 176.182 168.795C176.489 169.398 176.914 169.858 177.457 170.175C178 170.487 178.631 170.642 179.35 170.642C179.817 170.642 180.24 170.577 180.617 170.446C180.999 170.311 181.328 170.109 181.605 169.843C181.882 169.571 182.095 169.234 182.246 168.832L183.966 169.315C183.785 169.898 183.481 170.411 183.053 170.854C182.626 171.291 182.098 171.633 181.469 171.879C180.841 172.121 180.134 172.241 179.35 172.241ZM186.854 172V160.415H188.574V162.165H188.695C188.906 161.592 189.288 161.126 189.841 160.769C190.394 160.412 191.018 160.234 191.712 160.234C191.842 160.234 192.006 160.236 192.202 160.242C192.398 160.247 192.546 160.254 192.647 160.264V162.074C192.587 162.059 192.448 162.037 192.232 162.006C192.021 161.971 191.797 161.954 191.561 161.954C190.998 161.954 190.495 162.072 190.052 162.308C189.615 162.539 189.268 162.861 189.012 163.274C188.76 163.681 188.634 164.146 188.634 164.669V172H186.854ZM200.73 172V160.415H202.45V162.165H202.571C202.782 161.592 203.164 161.126 203.717 160.769C204.27 160.412 204.894 160.234 205.588 160.234C205.718 160.234 205.882 160.236 206.078 160.242C206.274 160.247 206.422 160.254 206.523 160.264V162.074C206.463 162.059 206.324 162.037 206.108 162.006C205.897 161.971 205.673 161.954 205.437 161.954C204.874 161.954 204.371 162.072 203.928 162.308C203.491 162.539 203.144 162.861 202.888 163.274C202.636 163.681 202.51 164.146 202.51 164.669V172H200.73ZM212.042 172.272C211.308 172.272 210.642 172.133 210.043 171.857C209.445 171.575 208.97 171.17 208.618 170.642C208.266 170.109 208.09 169.466 208.09 168.712C208.09 168.048 208.221 167.51 208.482 167.097C208.744 166.68 209.093 166.353 209.53 166.117C209.968 165.881 210.451 165.705 210.979 165.589C211.512 165.468 212.047 165.373 212.585 165.302C213.289 165.212 213.86 165.144 214.297 165.099C214.74 165.048 215.061 164.966 215.263 164.85C215.469 164.734 215.572 164.533 215.572 164.246V164.186C215.572 163.442 215.368 162.864 214.961 162.451C214.559 162.039 213.948 161.833 213.128 161.833C212.278 161.833 211.612 162.019 211.129 162.391C210.647 162.763 210.307 163.16 210.111 163.583L208.422 162.979C208.723 162.275 209.126 161.727 209.628 161.335C210.136 160.938 210.689 160.661 211.288 160.505C211.891 160.345 212.485 160.264 213.068 160.264C213.44 160.264 213.867 160.309 214.35 160.4C214.838 160.485 215.308 160.664 215.76 160.935C216.218 161.207 216.598 161.617 216.899 162.165C217.201 162.713 217.352 163.447 217.352 164.367V172H215.572V170.431H215.481C215.361 170.683 215.16 170.952 214.878 171.238C214.596 171.525 214.222 171.769 213.754 171.97C213.287 172.171 212.716 172.272 212.042 172.272ZM212.314 170.673C213.017 170.673 213.611 170.534 214.094 170.258C214.581 169.981 214.948 169.624 215.195 169.187C215.446 168.749 215.572 168.289 215.572 167.806V166.177C215.496 166.268 215.33 166.351 215.074 166.426C214.823 166.497 214.531 166.559 214.199 166.615C213.872 166.665 213.553 166.71 213.241 166.751C212.935 166.786 212.686 166.816 212.495 166.841C212.032 166.901 211.6 166.999 211.197 167.135C210.8 167.266 210.478 167.465 210.232 167.731C209.991 167.993 209.87 168.35 209.87 168.802C209.87 169.421 210.099 169.888 210.556 170.205C211.019 170.517 211.605 170.673 212.314 170.673ZM225.639 160.415V161.923H219.635V160.415H225.639ZM221.385 157.639H223.165V168.681C223.165 169.184 223.238 169.561 223.384 169.813C223.535 170.059 223.726 170.225 223.957 170.311C224.193 170.391 224.442 170.431 224.704 170.431C224.9 170.431 225.061 170.421 225.186 170.401C225.312 170.376 225.413 170.356 225.488 170.341L225.85 171.94C225.729 171.985 225.561 172.03 225.345 172.075C225.129 172.126 224.855 172.151 224.523 172.151C224.02 172.151 223.527 172.043 223.044 171.827C222.567 171.61 222.169 171.281 221.853 170.838C221.541 170.396 221.385 169.838 221.385 169.164V157.639ZM233.049 172.241C231.933 172.241 230.97 171.995 230.161 171.502C229.356 171.004 228.735 170.311 228.298 169.421C227.865 168.526 227.649 167.485 227.649 166.298C227.649 165.111 227.865 164.065 228.298 163.16C228.735 162.25 229.343 161.541 230.123 161.033C230.907 160.521 231.822 160.264 232.868 160.264C233.472 160.264 234.067 160.365 234.656 160.566C235.244 160.767 235.78 161.094 236.262 161.546C236.745 161.994 237.13 162.587 237.416 163.326C237.703 164.065 237.846 164.976 237.846 166.057V166.811H228.916V165.272H236.036C236.036 164.619 235.905 164.035 235.644 163.522C235.387 163.01 235.02 162.605 234.543 162.308C234.07 162.011 233.512 161.863 232.868 161.863C232.159 161.863 231.546 162.039 231.028 162.391C230.515 162.738 230.12 163.191 229.844 163.749C229.567 164.307 229.429 164.905 229.429 165.544V166.57C229.429 167.444 229.58 168.186 229.882 168.795C230.188 169.398 230.613 169.858 231.156 170.175C231.699 170.487 232.33 170.642 233.049 170.642C233.517 170.642 233.939 170.577 234.316 170.446C234.699 170.311 235.028 170.109 235.304 169.843C235.581 169.571 235.795 169.234 235.946 168.832L237.665 169.315C237.484 169.898 237.18 170.411 236.753 170.854C236.325 171.291 235.797 171.633 235.169 171.879C234.54 172.121 233.834 172.241 233.049 172.241Z" fill="#4E6CA8"/>
<path d="M170.775 43.3181C170.775 65.8915 152.475 84.1909 129.902 84.1909C107.329 84.1909 89.0293 65.8915 89.0293 43.3181C89.0293 20.7447 107.329 2.44531 129.902 2.44531C152.475 2.44531 170.775 20.7447 170.775 43.3181Z" fill="white"/>
<path d="M140.4 65.0007H131.126V32.375C130.404 32.4981 129.666 32.4981 128.944 32.375V65.0007H119.669C119.38 65.0007 119.102 65.115 118.898 65.3184C118.693 65.5217 118.578 65.7976 118.578 66.0852C118.578 66.3728 118.693 66.6486 118.898 66.852C119.102 67.0554 119.38 67.1696 119.669 67.1696H140.4C140.69 67.1696 140.967 67.0554 141.172 66.852C141.376 66.6486 141.491 66.3728 141.491 66.0852C141.491 65.7976 141.376 65.5217 141.172 65.3184C140.967 65.115 140.69 65.0007 140.4 65.0007Z" fill="#4E6CA8"/>
<path d="M113.123 50.9004C116.107 50.9004 118.854 49.5396 120.291 47.3489C120.853 46.5174 121.193 45.5578 121.28 44.5599C121.366 43.562 121.196 42.5587 120.786 41.6439L114.705 27.9223L123.166 27.14C123.02 26.5767 122.945 25.9976 122.942 25.4159C122.942 25.2689 122.956 25.1252 122.965 24.9805L106.475 26.5051C106.195 26.531 105.937 26.6628 105.753 26.8731C105.569 27.0835 105.473 27.3562 105.486 27.6347C105.499 27.9131 105.619 28.176 105.822 28.3686C106.025 28.5613 106.294 28.6689 106.575 28.6692C106.608 28.6692 106.643 28.6676 106.677 28.6645L111.405 28.2273L105.459 41.6439C105.049 42.5587 104.879 43.562 104.965 44.5599C105.052 45.5578 105.392 46.5175 105.954 47.3489C107.391 49.5396 110.138 50.9004 113.123 50.9004ZM113.123 29.7327L118.419 41.6826H107.827L113.123 29.7327Z" fill="#4E6CA8"/>
<path d="M154.117 44.6391C154.678 43.8076 155.018 42.8479 155.105 41.85C155.191 40.8521 155.021 39.8488 154.611 38.9341L148.353 24.8126L153.596 24.3279C153.883 24.3007 154.148 24.1611 154.333 23.9399C154.517 23.7187 154.605 23.4338 154.578 23.1478C154.552 22.8618 154.412 22.5981 154.19 22.4145C153.967 22.2309 153.681 22.1425 153.393 22.1685L136.904 23.693C137.05 24.2563 137.125 24.8354 137.128 25.4171C137.128 25.5641 137.115 25.7077 137.106 25.8525L145.423 25.0835L139.284 38.9341C138.874 39.8488 138.704 40.8521 138.79 41.85C138.877 42.8479 139.217 43.8076 139.779 44.6391C141.216 46.8297 143.963 48.1905 146.948 48.1905C149.932 48.1905 152.679 46.8297 154.117 44.6391ZM146.948 27.0229L152.484 39.515H141.411L146.948 27.0229Z" fill="#4E6CA8"/>
<path d="M125.123 25.4152C125.123 26.3803 125.411 27.3238 125.951 28.1263C126.49 28.9288 127.257 29.5543 128.154 29.9237C129.051 30.293 130.038 30.3896 130.991 30.2013C131.943 30.013 132.818 29.5483 133.505 28.8658C134.192 28.1833 134.659 27.3138 134.849 26.3672C135.038 25.4205 134.941 24.4393 134.569 23.5476C134.198 22.6559 133.568 21.8938 132.761 21.3576C131.953 20.8214 131.004 20.5352 130.033 20.5352C128.731 20.5366 127.483 21.0512 126.563 21.9661C125.642 22.881 125.125 24.1214 125.123 25.4152Z" fill="#4E6CA8"/>
<path d="M107.033 10.5586C107.255 10.5594 107.474 10.5067 107.672 10.405C108.466 9.99436 109.199 9.42066 109.976 8.97121C110.127 8.8845 110.26 8.76898 110.366 8.63128C110.472 8.49357 110.55 8.33639 110.595 8.16875C110.64 8.00111 110.651 7.8263 110.628 7.65436C110.604 7.48242 110.547 7.31673 110.46 7.16679C110.372 7.01685 110.255 6.88561 110.116 6.7806C109.977 6.67559 109.819 6.59887 109.65 6.55485C109.481 6.51083 109.305 6.50038 109.132 6.52408C108.959 6.54778 108.793 6.60518 108.642 6.69299C107.843 7.15539 107.053 7.64772 106.292 8.15646C106.055 8.31282 105.876 8.54096 105.78 8.80692C105.684 9.07287 105.678 9.3624 105.761 9.6324C105.844 9.9024 106.013 10.1384 106.243 10.3053C106.472 10.4722 106.749 10.561 107.033 10.5586Z" fill="#4E6CA8"/>
<path d="M90.9349 50.9608C90.7659 50.119 90.6228 49.2611 90.5095 48.4109C90.4635 48.0644 90.2808 47.7503 90.0018 47.5377C89.7227 47.325 89.3701 47.2312 89.0215 47.277C88.6729 47.3227 88.3568 47.5042 88.1428 47.7816C87.9289 48.0589 87.8345 48.4094 87.8806 48.7559C88.001 49.6634 88.1538 50.5791 88.3345 51.4782C88.3687 51.6479 88.4361 51.8093 88.5331 51.953C88.63 52.0968 88.7545 52.2202 88.8994 52.3162C89.0443 52.4122 89.2068 52.4789 89.3776 52.5124C89.5484 52.546 89.7243 52.5458 89.895 52.5118C90.0658 52.4778 90.2281 52.4107 90.3728 52.3144C90.5174 52.2181 90.6416 52.0944 90.7382 51.9503C90.8347 51.8063 90.9018 51.6448 90.9356 51.475C90.9693 51.3052 90.9691 51.1305 90.9349 50.9608Z" fill="#4E6CA8"/>
<path d="M94.981 21.641C95.2754 21.8293 95.6319 21.8964 95.9751 21.828C96.3183 21.7597 96.6213 21.5613 96.82 21.2748C97.2998 20.5598 97.8088 19.8515 98.3339 19.17C98.5477 18.8925 98.6418 18.5419 98.5956 18.1954C98.5493 17.8489 98.3664 17.5348 98.0872 17.3223C97.808 17.1098 97.4552 17.0163 97.1066 17.0622C96.7579 17.1082 96.442 17.29 96.2282 17.5675C95.668 18.2947 95.1248 19.0503 94.6132 19.8132C94.4182 20.1041 94.3474 20.4601 94.4164 20.8028C94.4854 21.1456 94.6885 21.4471 94.981 21.641Z" fill="#4E6CA8"/>
<path d="M88.8378 44.5688C89.012 44.5689 89.1844 44.5348 89.3453 44.4686C89.5062 44.4024 89.6524 44.3054 89.7756 44.183C89.8987 44.0606 89.9964 43.9154 90.0631 43.7555C90.1297 43.5956 90.164 43.4242 90.164 43.2511V43.1755C90.164 42.335 90.1905 41.4896 90.243 40.6626C90.2651 40.3138 90.1469 39.9704 89.9143 39.7082C89.7991 39.5784 89.6594 39.4723 89.503 39.3962C89.3466 39.32 89.1766 39.2752 89.0028 39.2643C88.829 39.2534 88.6548 39.2767 88.49 39.3327C88.3252 39.3888 88.1732 39.4766 88.0425 39.591C87.7787 39.8222 87.618 40.148 87.5959 40.4969C87.5402 41.3786 87.5117 42.2799 87.5117 43.1755V43.2511C87.5117 43.4242 87.546 43.5956 87.6126 43.7555C87.6793 43.9154 87.777 44.0606 87.9001 44.183C88.0233 44.3054 88.1695 44.4024 88.3304 44.4686C88.4913 44.5348 88.6637 44.5689 88.8378 44.5688Z" fill="#4E6CA8"/>
<path d="M91.4181 28.8315C91.7437 28.96 92.1069 28.957 92.4303 28.8233C92.7537 28.6895 93.0118 28.4356 93.1496 28.1155C93.4773 27.3262 93.8379 26.5317 94.2219 25.7542C94.2986 25.5988 94.3437 25.4299 94.3547 25.2571C94.3658 25.0843 94.3424 24.9111 94.2861 24.7473C94.2298 24.5835 94.1415 24.4323 94.0264 24.3024C93.9113 24.1725 93.7715 24.0664 93.6151 23.9902C93.4588 23.9139 93.2888 23.8691 93.115 23.8581C92.9412 23.8472 92.7669 23.8703 92.6021 23.9263C92.4372 23.9823 92.2851 24.07 92.1544 24.1845C92.0237 24.2989 91.917 24.4378 91.8403 24.5932C91.4317 25.4215 91.0471 26.2684 90.6981 27.1102C90.6316 27.2702 90.5975 27.4417 90.5977 27.6148C90.5979 27.7879 90.6324 27.9593 90.6993 28.1191C90.7661 28.279 90.864 28.4242 90.9874 28.5464C91.1107 28.6686 91.2571 28.7655 91.4181 28.8315Z" fill="#4E6CA8"/>
<path d="M89.349 36.5755C89.6938 36.6384 90.0496 36.5647 90.3404 36.3703C90.6312 36.1758 90.8338 35.8759 90.905 35.5348C91.0708 34.6934 91.267 33.8458 91.4884 33.0152C91.5773 32.6777 91.5279 32.3189 91.3511 32.0174C91.1742 31.716 90.8843 31.4966 90.545 31.4072C90.2056 31.3179 89.8444 31.3659 89.5406 31.5408C89.2368 31.7157 89.0152 32.0031 88.9243 32.3401C88.6879 33.226 88.4788 34.1309 88.302 35.029C88.2345 35.3721 88.3069 35.7277 88.5033 36.0177C88.6996 36.3078 89.0039 36.5084 89.349 36.5755Z" fill="#4E6CA8"/>
<path d="M100.818 15.6547C100.992 15.6563 101.164 15.6236 101.326 15.5585C101.487 15.4934 101.634 15.3971 101.757 15.2754C102.367 14.6678 103.005 14.0716 103.653 13.503C103.785 13.3888 103.893 13.25 103.97 13.0943C104.048 12.9387 104.094 12.7693 104.105 12.596C104.117 12.4227 104.094 12.2489 104.037 12.0845C103.981 11.9201 103.892 11.7683 103.777 11.638C103.661 11.5077 103.521 11.4014 103.364 11.3252C103.207 11.2489 103.036 11.2043 102.862 11.1938C102.688 11.1833 102.513 11.2072 102.348 11.2641C102.183 11.321 102.03 11.4097 101.9 11.5253C101.208 12.1312 100.528 12.767 99.8783 13.4154C99.6922 13.5988 99.5653 13.8332 99.5139 14.0886C99.4625 14.344 99.4889 14.6089 99.5897 14.8493C99.6906 15.0897 99.8613 15.2948 100.08 15.4383C100.299 15.5817 100.556 15.6571 100.818 15.6547Z" fill="#4E6CA8"/>
<path d="M166.663 27.9206C166.997 28.7128 167.308 29.5247 167.587 30.3333C167.702 30.6631 167.943 30.9342 168.259 31.0871C168.574 31.24 168.938 31.2623 169.27 31.1491C169.602 31.0359 169.876 30.7964 170.03 30.4831C170.185 30.1698 170.208 29.8084 170.095 29.478C169.797 28.6147 169.466 27.7484 169.11 26.9028C168.974 26.5803 168.715 26.3247 168.389 26.1922C168.064 26.0596 167.699 26.061 167.375 26.196C167.05 26.3309 166.793 26.5885 166.66 26.9119C166.526 27.2353 166.528 27.5982 166.663 27.9206Z" fill="#4E6CA8"/>
<path d="M145.069 6.59298C145.87 6.92056 146.669 7.27807 147.443 7.65616C147.759 7.81029 148.123 7.83345 148.456 7.72054C148.789 7.60763 149.063 7.36791 149.218 7.0541C149.373 6.7403 149.397 6.37812 149.283 6.04724C149.169 5.71636 148.928 5.44388 148.613 5.28975C147.786 4.8865 146.934 4.50455 146.078 4.1551C145.753 4.02424 145.389 4.02655 145.066 4.1615C144.743 4.29645 144.487 4.55308 144.354 4.87528C144.22 5.19748 144.221 5.55904 144.355 5.88092C144.489 6.20279 144.746 6.45881 145.069 6.59298Z" fill="#4E6CA8"/>
<path d="M151.955 10.231C152.675 10.7069 153.388 11.2124 154.074 11.7337C154.353 11.946 154.706 12.0393 155.055 11.9931C155.404 11.9469 155.719 11.7649 155.933 11.4872C156.147 11.2095 156.241 10.8588 156.194 10.5123C156.148 10.1658 155.965 9.8518 155.685 9.63947C154.953 9.08342 154.193 8.54379 153.424 8.03569C153.131 7.84282 152.773 7.77335 152.429 7.84254C152.084 7.91173 151.782 8.11392 151.587 8.40471C151.393 8.69551 151.322 9.05115 151.391 9.39355C151.46 9.73595 151.663 10.0371 151.955 10.231Z" fill="#4E6CA8"/>
<path d="M168.947 35.3251C169.117 36.1614 169.262 37.0196 169.378 37.8762C169.43 38.2206 169.614 38.5313 169.893 38.7423C170.172 38.9534 170.522 39.0481 170.87 39.0064C171.042 38.9833 171.209 38.9266 171.359 38.8396C171.51 38.7526 171.642 38.637 171.747 38.4994C171.853 38.3617 171.93 38.2048 171.975 38.0375C172.019 37.8701 172.03 37.6958 172.007 37.5242C171.883 36.6113 171.728 35.6964 171.548 34.8045C171.477 34.4625 171.274 34.1622 170.981 33.9694C170.688 33.7766 170.331 33.707 169.986 33.776C169.642 33.8449 169.339 34.0467 169.145 34.3371C168.95 34.6275 168.879 34.9828 168.947 35.3251Z" fill="#4E6CA8"/>
<path d="M137.602 4.36825C138.454 4.53332 139.307 4.72768 140.137 4.9462C140.477 5.03564 140.839 4.98717 141.143 4.81144C141.447 4.63571 141.668 4.34712 141.758 4.00916C141.848 3.67121 141.799 3.31156 141.623 3.00934C141.446 2.70713 141.155 2.4871 140.815 2.39766C139.929 2.16468 139.019 1.95713 138.109 1.78112C137.765 1.71587 137.408 1.78891 137.118 1.98426C136.828 2.17962 136.627 2.48137 136.56 2.82348C136.493 3.1656 136.565 3.52021 136.76 3.80972C136.955 4.09923 137.258 4.30005 137.602 4.36825Z" fill="#4E6CA8"/>
<path d="M121.819 4.43491C121.907 4.43475 121.995 4.42603 122.081 4.40885C122.927 4.24023 123.79 4.09704 124.647 3.98378C124.82 3.96097 124.986 3.90458 125.137 3.81784C125.288 3.7311 125.42 3.61571 125.526 3.47826C125.631 3.34081 125.709 3.18399 125.754 3.01675C125.799 2.84951 125.81 2.67513 125.787 2.50357C125.764 2.332 125.707 2.16661 125.62 2.01684C125.533 1.86706 125.417 1.73584 125.278 1.63066C125.14 1.52548 124.982 1.4484 124.814 1.40383C124.646 1.35926 124.47 1.34806 124.298 1.37088C123.383 1.49155 122.462 1.64437 121.559 1.82428C121.237 1.88865 120.95 2.06981 120.754 2.3326C120.559 2.59539 120.468 2.92106 120.501 3.24639C120.533 3.57172 120.686 3.87349 120.929 4.09312C121.173 4.31275 121.49 4.43455 121.819 4.43491Z" fill="#4E6CA8"/>
<path d="M129.836 3.63642L129.95 3.6361C130.781 3.6361 131.62 3.66184 132.442 3.71236C132.469 3.71429 132.497 3.71494 132.525 3.71494C132.87 3.71457 133.2 3.58101 133.447 3.34253C133.695 3.10404 133.839 2.77934 133.849 2.43714C133.86 2.09495 133.736 1.76211 133.504 1.50908C133.272 1.25605 132.95 1.10267 132.606 1.08141C131.73 1.02738 130.838 1 129.941 1H129.938L129.836 1.00036C129.484 1.00036 129.147 1.13922 128.898 1.3864C128.649 1.63358 128.51 1.96883 128.51 2.31839C128.51 2.66795 128.649 3.0032 128.898 3.25038C129.147 3.49756 129.484 3.63642 129.836 3.63642Z" fill="#4E6CA8"/>
<path d="M114.122 6.77031C114.297 6.77264 114.471 6.73939 114.632 6.67261C115.428 6.34244 116.245 6.03418 117.061 5.75648C117.394 5.64314 117.668 5.40307 117.822 5.08909C117.977 4.7751 118 4.41291 117.886 4.0822C117.772 3.75149 117.53 3.47935 117.214 3.32565C116.898 3.17194 116.534 3.14926 116.201 3.2626C115.331 3.55865 114.459 3.88751 113.61 4.23986C113.45 4.30652 113.304 4.404 113.181 4.52673C113.058 4.64946 112.961 4.79504 112.894 4.95514C112.828 5.11525 112.794 5.28675 112.795 5.45985C112.795 5.63295 112.83 5.80426 112.897 5.96399C113.001 6.20147 113.172 6.40396 113.39 6.54702C113.607 6.69009 113.861 6.76763 114.122 6.77031Z" fill="#4E6CA8"/>
<path d="M171.058 41.707C170.706 41.7071 170.369 41.8459 170.12 42.0931C169.871 42.3403 169.732 42.6755 169.731 43.0251V43.1757C169.731 44.0374 169.703 44.9076 169.647 45.7622C169.625 46.1111 169.742 46.4546 169.975 46.7173C170.207 46.9799 170.534 47.1401 170.885 47.1626C171.236 47.1852 171.582 47.0682 171.846 46.8374C172.111 46.6066 172.272 46.281 172.294 45.9321C172.353 45.0215 172.384 44.0941 172.384 43.1757V43.0251C172.384 42.6755 172.244 42.3403 171.995 42.0931C171.747 41.8459 171.409 41.7071 171.058 41.707Z" fill="#4E6CA8"/>
<path d="M158.084 71.1296C157.473 71.7371 156.834 72.3324 156.185 72.8994C156.054 73.0136 155.947 73.1524 155.87 73.3077C155.794 73.463 155.748 73.6318 155.737 73.8046C155.726 73.9773 155.749 74.1505 155.805 74.3144C155.861 74.4782 155.95 74.6294 156.065 74.7593C156.29 75.0045 156.6 75.1581 156.932 75.1906C157.265 75.2231 157.598 75.1322 157.868 74.9354C158.614 74.3426 159.314 73.6933 159.96 72.9934C160.207 72.746 160.346 72.4111 160.345 72.0622C160.345 71.7133 160.205 71.3788 159.957 71.1321C159.709 70.8854 159.372 70.7466 159.021 70.7461C158.67 70.7456 158.333 70.8835 158.084 71.1296Z" fill="#4E6CA8"/>
<path d="M161.77 15.2712C161.16 14.5848 160.519 13.9094 159.866 13.2636C159.743 13.1413 159.596 13.0443 159.435 12.9783C159.274 12.9123 159.101 12.8785 158.927 12.8789C158.752 12.8793 158.58 12.9138 158.419 12.9805C158.258 13.0473 158.112 13.1448 157.989 13.2677C157.866 13.3906 157.769 13.5363 157.703 13.6966C157.637 13.8569 157.603 14.0286 157.604 14.2018C157.604 14.3751 157.639 14.5465 157.707 14.7063C157.774 14.8661 157.872 15.0112 157.996 15.1332C158.609 15.7388 159.21 16.3721 159.781 17.0153C160.013 17.2775 160.341 17.437 160.692 17.4589C161.043 17.4807 161.389 17.3631 161.653 17.1318C161.916 16.9005 162.077 16.5745 162.099 16.2256C162.121 15.8767 162.003 15.5334 161.77 15.2712Z" fill="#4E6CA8"/>
<path d="M152.061 76.0512C151.34 76.5319 150.597 76.9921 149.855 77.4194C149.704 77.5061 149.572 77.6214 149.466 77.7588C149.361 77.8962 149.283 78.053 149.238 78.2203C149.193 78.3875 149.182 78.5619 149.205 78.7334C149.228 78.905 149.285 79.0704 149.372 79.2201C149.552 79.5188 149.841 79.7361 150.18 79.8258C150.518 79.9155 150.878 79.8704 151.184 79.7003C151.976 79.2446 152.768 78.7542 153.538 78.2419C153.83 78.0473 154.032 77.7453 154.101 77.4022C154.169 77.0592 154.097 76.7033 153.901 76.4128C153.706 76.1223 153.402 75.921 153.057 75.8532C152.712 75.7853 152.353 75.8566 152.061 76.0512Z" fill="#4E6CA8"/>
<path d="M164.876 64.7813C164.731 64.685 164.569 64.618 164.398 64.5841C164.228 64.5502 164.052 64.5501 163.881 64.5837C163.71 64.6174 163.548 64.6841 163.403 64.7802C163.258 64.8763 163.133 64.9998 163.037 65.1436C162.555 65.8587 162.045 66.5659 161.519 67.2456C161.304 67.5228 161.21 67.8732 161.255 68.2198C161.301 68.5664 161.483 68.8809 161.762 69.0939C162.044 69.2986 162.395 69.3876 162.741 69.3426C163.087 69.2976 163.402 69.1219 163.622 68.8519C164.183 68.1266 164.727 67.3723 165.241 66.6097C165.436 66.3192 165.508 65.9634 165.439 65.6205C165.371 65.2776 165.168 64.9757 164.876 64.7813Z" fill="#4E6CA8"/>
<path d="M170.533 49.8494C170.362 49.8157 170.186 49.8158 170.016 49.8497C169.845 49.8836 169.682 49.9507 169.538 50.047C169.393 50.1434 169.269 50.2672 169.172 50.4113C169.076 50.5554 169.009 50.717 168.975 50.8869C168.807 51.7313 168.609 52.5789 168.387 53.4059C168.342 53.5732 168.33 53.7478 168.353 53.9196C168.376 54.0914 168.432 54.2571 168.52 54.4071C168.607 54.5571 168.723 54.6886 168.861 54.794C169 54.8994 169.158 54.9767 169.326 55.0213C169.495 55.066 169.67 55.0772 169.843 55.0544C170.016 55.0315 170.183 54.975 170.333 54.888C170.484 54.8011 170.616 54.6855 170.722 54.5478C170.828 54.4101 170.905 54.253 170.95 54.0855C171.186 53.2031 171.398 52.2989 171.577 51.3979C171.611 51.2281 171.611 51.0533 171.576 50.8836C171.542 50.7139 171.475 50.5525 171.378 50.4087C171.281 50.2649 171.156 50.1415 171.011 50.0455C170.866 49.9496 170.704 49.8829 170.533 49.8494Z" fill="#4E6CA8"/>
<path d="M145.198 79.7103C144.405 80.0379 143.587 80.3442 142.769 80.621C142.604 80.6767 142.451 80.7641 142.321 80.8782C142.19 80.9924 142.083 81.1311 142.006 81.2863C141.929 81.4416 141.883 81.6104 141.872 81.7831C141.861 81.9559 141.884 82.1291 141.94 82.293C142.057 82.621 142.298 82.8906 142.613 83.0444C142.927 83.1983 143.289 83.2242 143.622 83.1167C144.496 82.8213 145.368 82.4944 146.216 82.1443C146.541 82.0101 146.799 81.7533 146.933 81.4302C147.067 81.1071 147.066 80.7442 146.931 80.4215C146.796 80.0987 146.538 79.8424 146.213 79.7091C145.888 79.5757 145.523 79.5762 145.198 79.7103Z" fill="#4E6CA8"/>
<path d="M164.344 23.2953C164.528 23.5894 164.819 23.8023 165.156 23.8906C165.493 23.9788 165.851 23.9356 166.157 23.7699C166.308 23.6828 166.439 23.567 166.545 23.4292C166.65 23.2915 166.727 23.1344 166.772 22.967C166.816 22.7997 166.827 22.6253 166.803 22.4538C166.78 22.2823 166.722 22.1171 166.635 21.9676C166.172 21.1776 165.676 20.3921 165.161 19.6327C164.964 19.3427 164.66 19.1422 164.315 19.0752C163.97 19.0082 163.612 19.0803 163.32 19.2756C163.028 19.4708 162.826 19.7733 162.759 20.1164C162.692 20.4596 162.764 20.8153 162.961 21.1053C163.444 21.818 163.909 22.5546 164.344 23.2953Z" fill="#4E6CA8"/>
<path d="M168.448 57.5963C168.123 57.4627 167.758 57.4627 167.433 57.5964C167.108 57.7301 166.85 57.9866 166.715 58.3095C166.383 59.1062 166.021 59.8991 165.639 60.6662C165.561 60.8215 165.514 60.9907 165.501 61.1641C165.489 61.3374 165.511 61.5115 165.567 61.6763C165.622 61.8411 165.71 61.9933 165.825 62.1243C165.94 62.2552 166.08 62.3623 166.236 62.4394C166.393 62.5164 166.564 62.5619 166.738 62.5732C166.913 62.5845 167.088 62.5614 167.253 62.5052C167.419 62.449 167.571 62.3609 167.702 62.2459C167.833 62.1308 167.94 61.9912 168.017 61.8349C168.424 61.0157 168.811 60.1694 169.165 59.3186C169.232 59.1587 169.266 58.9873 169.266 58.8142C169.267 58.6411 169.232 58.4697 169.166 58.3098C169.099 58.1499 169.001 58.0045 168.878 57.8821C168.755 57.7597 168.609 57.6626 168.448 57.5963Z" fill="#4E6CA8"/>
<path d="M95.5138 62.9961C95.3372 62.6938 95.0471 62.4736 94.7072 62.384C94.3673 62.2943 94.0055 62.3425 93.7013 62.5179C93.3972 62.6934 93.1756 62.9818 93.0854 63.3196C92.9952 63.6574 93.0437 64.017 93.2202 64.3193C93.6812 65.109 94.1753 65.8954 94.6901 66.6568C94.8893 66.9429 95.1929 67.1406 95.5364 67.2078C95.8799 67.2749 96.2363 67.2063 96.5297 67.0165C96.6744 66.9202 96.7985 66.7964 96.895 66.6524C96.9916 66.5083 97.0585 66.3468 97.0922 66.1769C97.1258 66.0071 97.1254 65.8324 97.091 65.6627C97.0566 65.493 96.9889 65.3318 96.8917 65.1881C96.4099 64.4738 95.9463 63.7369 95.5138 62.9961Z" fill="#4E6CA8"/>
<path d="M107.88 76.0794C107.161 75.6013 106.449 75.0948 105.764 74.5728C105.485 74.3602 105.132 74.2664 104.783 74.3121C104.435 74.3579 104.119 74.5394 103.905 74.8168C103.691 75.0941 103.596 75.4446 103.642 75.7911C103.688 76.1376 103.871 76.4518 104.15 76.6644C104.88 77.2211 105.64 77.7617 106.408 78.2714C106.702 78.4611 107.058 78.5291 107.402 78.4611C107.745 78.393 108.049 78.1943 108.247 77.9072C108.344 77.7633 108.411 77.6018 108.445 77.4321C108.479 77.2623 108.479 77.0876 108.445 76.9178C108.411 76.7481 108.343 76.5867 108.246 76.4429C108.15 76.299 108.025 76.1755 107.88 76.0794Z" fill="#4E6CA8"/>
<path d="M100.066 69.2828C99.8332 69.0205 99.5054 68.8607 99.1543 68.8386C98.8032 68.8165 98.4577 68.9339 98.1938 69.165C97.9298 69.3961 97.769 69.722 97.7468 70.0709C97.7246 70.4198 97.8427 70.7632 98.0752 71.0256C98.6872 71.7155 99.3256 72.3919 99.9744 73.0355C100.226 73.2769 100.563 73.4117 100.913 73.4114C101.263 73.411 101.599 73.2755 101.85 73.0335C102.099 72.786 102.238 72.4505 102.238 72.1009C102.237 71.7513 102.097 71.4162 101.848 71.1691C101.24 70.5654 100.64 69.9309 100.066 69.2828Z" fill="#4E6CA8"/>
<path d="M93.2062 58.3685C92.8728 57.5718 92.5639 56.7602 92.2887 55.9564C92.1755 55.6254 91.9347 55.3527 91.6192 55.1982C91.3037 55.0437 90.9394 55.0201 90.6064 55.1326C90.2734 55.2451 89.999 55.4844 89.8436 55.798C89.6881 56.1116 89.6644 56.4737 89.7776 56.8046C90.0715 57.6644 90.4011 58.5313 90.7586 59.3828C90.9025 59.6982 91.162 59.9471 91.4842 60.0789C91.8064 60.2107 92.1671 60.2154 92.4926 60.092C92.6534 60.0254 92.7993 59.928 92.9222 59.8054C93.045 59.6827 93.1424 59.5372 93.2086 59.3772C93.2749 59.2171 93.3088 59.0457 93.3084 58.8726C93.308 58.6996 93.2733 58.5283 93.2062 58.3685Z" fill="#4E6CA8"/>
<path d="M129.986 82.7158C129.976 82.7158 129.958 82.7158 129.938 82.7164C129.091 82.7164 128.231 82.6887 127.383 82.6354C127.032 82.6137 126.687 82.7312 126.424 82.9622C126.16 83.1932 126 83.5187 125.977 83.8673C125.955 84.2159 126.073 84.559 126.305 84.8213C126.537 85.0836 126.864 85.2437 127.215 85.2663C128.112 85.323 129.021 85.3519 129.951 85.3519H129.986C130.338 85.3519 130.675 85.2131 130.924 84.9659C131.173 84.7187 131.312 84.3834 131.312 84.0339C131.312 83.6843 131.173 83.349 130.924 83.1019C130.675 82.8547 130.338 82.7158 129.986 82.7158Z" fill="#4E6CA8"/>
<path d="M137.743 81.9587C136.9 82.1248 136.036 82.2664 135.174 82.3796C135.001 82.4022 134.835 82.4584 134.684 82.5449C134.533 82.6315 134.401 82.7467 134.295 82.8841C134.189 83.0214 134.111 83.1782 134.066 83.3454C134.021 83.5126 134.01 83.687 134.033 83.8585C134.083 84.203 134.267 84.5143 134.545 84.7261C134.823 84.9379 135.173 85.0335 135.521 84.9926C136.439 84.8722 137.36 84.7216 138.258 84.5446C138.429 84.511 138.591 84.4442 138.736 84.3482C138.881 84.2521 139.006 84.1287 139.102 83.9848C139.199 83.841 139.267 83.6796 139.301 83.5098C139.335 83.3401 139.335 83.1653 139.301 82.9955C139.267 82.8257 139.2 82.6642 139.104 82.5202C139.007 82.3762 138.883 82.2526 138.738 82.1563C138.593 82.06 138.431 81.993 138.26 81.9591C138.089 81.9252 137.913 81.9251 137.743 81.9587Z" fill="#4E6CA8"/>
<path d="M122.224 81.9738C121.377 81.8091 120.524 81.6134 119.689 81.3927C119.521 81.3478 119.345 81.3363 119.172 81.359C118.999 81.3816 118.833 81.438 118.682 81.5248C118.531 81.6115 118.398 81.7271 118.292 81.8647C118.186 82.0024 118.109 82.1595 118.064 82.327C118.019 82.4945 118.008 82.6691 118.031 82.8409C118.055 83.0127 118.112 83.1783 118.199 83.3281C118.287 83.4779 118.404 83.6091 118.542 83.7141C118.681 83.8191 118.839 83.8958 119.008 83.9399C119.898 84.1755 120.809 84.3847 121.712 84.561C122.057 84.6246 122.413 84.5514 122.704 84.3571C122.995 84.1628 123.198 83.8629 123.269 83.5216C123.337 83.1786 123.265 82.8228 123.069 82.5326C122.873 82.2424 122.569 82.0414 122.224 81.9738Z" fill="#4E6CA8"/>
<path d="M114.762 79.7379C113.963 79.4103 113.165 79.0512 112.389 78.6708C112.073 78.5164 111.709 78.4928 111.376 78.6053C111.043 78.7178 110.768 78.9571 110.613 79.2707C110.458 79.5842 110.434 79.9463 110.547 80.2773C110.66 80.6082 110.901 80.8809 111.217 81.0354C112.045 81.4408 112.896 81.8244 113.748 82.1745C114.073 82.3034 114.437 82.3009 114.76 82.1674C115.084 82.034 115.342 81.7802 115.481 81.4601C115.615 81.137 115.615 80.7741 115.48 80.4512C115.345 80.1282 115.087 79.8717 114.762 79.7379Z" fill="#4E6CA8"/>
</svg>
