<svg width="207" height="402" viewBox="0 0 207 402" fill="none" xmlns="http://www.w3.org/2000/svg">
<path d="M6.32638 4.42344H7.35716L4.36512 12.6641H3.36221L0.381321 4.42344H1.4121L3.2452 9.64974C3.48293 10.3295 3.68909 10.9702 3.86367 11.572C3.91938 11.2934 4.1274 10.6471 4.4877 9.63303C5.06717 7.97265 5.68006 6.23612 6.32638 4.42344ZM11.458 7.68291C11.1868 7.35604 10.8135 7.1926 10.338 7.1926C9.86259 7.1926 9.47442 7.36161 9.17355 7.69963C8.87267 8.03394 8.69623 8.49268 8.64423 9.07585H11.8703C11.8703 8.47039 11.7328 8.00608 11.458 7.68291ZM10.5219 12.7922C9.63415 12.7922 8.93396 12.5099 8.42136 11.9453C7.91247 11.3807 7.65803 10.6081 7.65803 9.62746C7.65803 8.68026 7.90505 7.91321 8.39907 7.32632C8.8931 6.73572 9.54314 6.43484 10.3492 6.4237C11.1069 6.4237 11.7068 6.68371 12.1489 7.20374C12.5946 7.72006 12.8175 8.41096 12.8175 9.27644C12.8175 9.32101 12.8156 9.40273 12.8119 9.52159C12.8119 9.64046 12.8119 9.72589 12.8119 9.77789H8.61637C8.62752 10.4725 8.80581 11.0148 9.15126 11.4048C9.50042 11.7912 9.96845 11.9843 10.5553 11.9843C11.2017 11.9843 11.8498 11.8134 12.4999 11.4717L12.6448 12.2239C12.0244 12.6028 11.3168 12.7922 10.5219 12.7922ZM16.8514 6.49613C17.0186 6.49613 17.1709 6.50727 17.3083 6.52956L17.2749 7.38761C17.104 7.3579 16.9554 7.34304 16.8291 7.34304C16.3091 7.34304 15.8857 7.52505 15.5588 7.88907C15.2356 8.24938 15.074 8.69697 15.074 9.23186V12.6641H14.1436C14.1398 8.91241 14.138 6.87501 14.138 6.55185H14.9125L15.0016 7.64948C15.2133 7.30404 15.4826 7.02545 15.8095 6.81372C16.1364 6.60199 16.4837 6.49613 16.8514 6.49613ZM20.0886 12.7922C19.6726 12.7922 19.2881 12.7476 18.9353 12.6585C18.5861 12.5693 18.3019 12.4542 18.0828 12.313L18.1998 11.5274C18.8201 11.858 19.4293 12.0233 20.0273 12.0233C20.9337 12.0233 21.3998 11.7039 21.4258 11.065C21.4258 10.7938 21.3293 10.5802 21.1361 10.4242C20.943 10.2682 20.5641 10.0936 19.9995 9.90047L19.537 9.73889C19.0021 9.5606 18.6195 9.33958 18.3892 9.07585C18.1626 8.81212 18.0475 8.48339 18.0438 8.08965C18.0438 7.61048 18.2351 7.21303 18.6177 6.8973C19.004 6.58156 19.5314 6.4237 20.2 6.4237C20.8909 6.4237 21.5206 6.55742 22.0889 6.82486L21.8159 7.53805C21.2401 7.30032 20.7015 7.18146 20.2 7.18146C19.81 7.18146 19.5036 7.25946 19.2807 7.41547C19.0616 7.56777 18.952 7.78321 18.952 8.06179C18.952 8.29952 19.0318 8.48153 19.1916 8.60783C19.3513 8.73412 19.6707 8.87898 20.1499 9.04242C20.2725 9.087 20.4266 9.139 20.6124 9.19843C21.229 9.39901 21.6654 9.63674 21.9217 9.91162C22.178 10.1828 22.3062 10.5505 22.3062 11.0148C22.2987 11.5794 22.0963 12.0177 21.6989 12.3298C21.3014 12.6381 20.7647 12.7922 20.0886 12.7922ZM24.6797 6.55185V12.6641H23.7437V6.55185H24.6797ZM24.6797 4.32872V5.43193H23.7437V4.32872H24.6797ZM27.1146 9.62188C27.1146 10.3462 27.2743 10.9275 27.5938 11.3658C27.9169 11.8004 28.3868 12.0177 29.0034 12.0177C29.6126 12.0177 30.0713 11.8004 30.3796 11.3658C30.6917 10.9312 30.8477 10.3462 30.8477 9.61074C30.8477 8.86413 30.6935 8.27724 30.3852 7.85007C30.0806 7.41919 29.6145 7.20374 28.9867 7.20374C28.3775 7.20374 27.9132 7.4229 27.5938 7.86121C27.2743 8.29952 27.1146 8.88641 27.1146 9.62188ZM31.8116 9.60517C31.8116 10.5524 31.559 11.3213 31.0538 11.9119C30.5487 12.4988 29.8503 12.7922 28.9588 12.7922C28.1008 12.7922 27.4173 12.4951 26.9084 11.9007C26.4033 11.3064 26.1507 10.5431 26.1507 9.61074C26.1507 8.65983 26.4051 7.89093 26.914 7.30404C27.4229 6.71714 28.1212 6.4237 29.009 6.4237C29.8819 6.4237 30.5672 6.719 31.065 7.30961C31.5627 7.8965 31.8116 8.66169 31.8116 9.60517ZM33.1321 12.6641V6.55185H33.9121L34.0291 7.42661C34.2706 7.12574 34.5715 6.8843 34.9318 6.70229C35.2958 6.51656 35.6877 6.4237 36.1074 6.4237C36.8132 6.4237 37.335 6.62242 37.6731 7.01988C38.0111 7.41361 38.1801 8.02093 38.1801 8.84184V12.6641H37.2496C37.2496 10.2125 37.2478 8.89941 37.244 8.72483C37.2292 8.2048 37.1233 7.82407 36.9265 7.58262C36.7333 7.34118 36.4083 7.22046 35.9514 7.22046C35.4722 7.22046 35.0729 7.33561 34.7535 7.56591C34.434 7.79621 34.226 8.09522 34.1294 8.46296C34.0923 8.71183 34.0737 8.99785 34.0737 9.32101V12.6641H33.1321ZM43.4677 4.32872H44.3536V12.6641H43.3674V5.35949C42.9922 5.60465 42.5335 5.81452 41.9912 5.9891V5.05862C42.0506 5.03262 42.1713 4.98061 42.3533 4.90261C42.5354 4.82461 42.6709 4.76517 42.7601 4.72431C42.8529 4.68345 42.9681 4.62588 43.1055 4.55159C43.243 4.4773 43.3637 4.40301 43.4677 4.32872ZM1.47997 31.6641V21.2469H4.94054C5.7584 21.2469 6.45808 21.3533 7.03957 21.566C7.62106 21.774 8.07963 22.1144 8.41528 22.5872C8.75567 23.0599 8.92586 23.6532 8.92586 24.3671C8.92586 24.8635 8.86204 25.3055 8.73439 25.6932C8.60675 26.0761 8.39637 26.4259 8.10327 26.7427C7.81016 27.0547 7.3965 27.2958 6.86228 27.466C6.3328 27.6362 5.69222 27.7213 4.94054 27.7213C4.29759 27.7213 3.77519 27.7024 3.37335 27.6646V31.6641H1.47997ZM4.73489 26.3314C5.12727 26.3314 5.46766 26.2936 5.75604 26.2179C6.04915 26.1423 6.27607 26.0454 6.4368 25.9272C6.60227 25.809 6.73228 25.6624 6.82683 25.4875C6.92611 25.3126 6.98993 25.1448 7.01829 24.984C7.05139 24.8186 7.06793 24.6342 7.06793 24.4309C7.06793 23.8589 6.88356 23.4239 6.51481 23.1261C6.14606 22.8283 5.62603 22.6794 4.95472 22.6794H3.37335V26.3172C3.43008 26.3267 3.88393 26.3314 4.73489 26.3314ZM12.0886 31.813C11.3653 31.813 10.7791 31.6144 10.3299 31.2173C9.88555 30.8155 9.66336 30.2387 9.66336 29.487C9.66336 28.6786 9.9281 28.0806 10.4576 27.6929C10.9871 27.3005 11.786 27.0523 12.8545 26.9483C13.001 26.9294 13.1594 26.9105 13.3296 26.8916C13.4998 26.8727 13.6912 26.8538 13.904 26.8349C14.1167 26.816 14.2845 26.7994 14.4075 26.7852V26.3739C14.4075 25.9012 14.2987 25.5584 14.0813 25.3457C13.8638 25.1282 13.5329 25.0195 13.0885 25.0195C12.455 25.0195 11.6726 25.1968 10.7412 25.5513C10.7365 25.5372 10.6585 25.3221 10.5072 24.906C10.3559 24.49 10.2779 24.2773 10.2732 24.2678C11.1904 23.8754 12.1831 23.6792 13.2516 23.6792C14.3011 23.6792 15.0646 23.9085 15.5421 24.3671C16.0195 24.8209 16.2583 25.5584 16.2583 26.5796V31.6641H14.8826C14.8778 31.6452 14.8258 31.4868 14.7266 31.1889C14.6273 30.8911 14.5776 30.7327 14.5776 30.7138C14.19 31.092 13.8094 31.371 13.4359 31.5506C13.0672 31.7255 12.6181 31.813 12.0886 31.813ZM12.5921 30.494C13.0223 30.494 13.3958 30.3924 13.7125 30.1891C14.034 29.9811 14.2633 29.7305 14.4004 29.4374V27.934C14.3862 27.934 14.2609 27.9435 14.0245 27.9624C13.7929 27.9813 13.6676 27.9908 13.6487 27.9908C12.897 28.0569 12.3462 28.1988 11.9964 28.4162C11.6466 28.6337 11.4716 28.9835 11.4716 29.4658C11.4716 29.7967 11.5686 30.052 11.7624 30.2316C11.9562 30.4065 12.2328 30.494 12.5921 30.494ZM18.1375 31.6641V23.8707H19.6976L19.9387 25.062C20.4493 24.2442 21.1891 23.8352 22.1583 23.8352C22.3616 23.8352 22.527 23.8447 22.6547 23.8636L22.6263 25.4166C22.4372 25.3882 22.241 25.3741 22.0377 25.3741C21.3522 25.3741 20.8393 25.5561 20.4989 25.9201C20.1632 26.2841 19.9954 26.79 19.9954 27.4376V31.6641H18.1375ZM25.789 31.813C25.0657 31.813 24.4795 31.6144 24.0304 31.2173C23.586 30.8155 23.3638 30.2387 23.3638 29.487C23.3638 28.6786 23.6285 28.0806 24.158 27.6929C24.6875 27.3005 25.4865 27.0523 26.5549 26.9483C26.7014 26.9294 26.8598 26.9105 27.03 26.8916C27.2002 26.8727 27.3917 26.8538 27.6044 26.8349C27.8171 26.816 27.985 26.7994 28.1079 26.7852V26.3739C28.1079 25.9012 27.9992 25.5584 27.7817 25.3457C27.5642 25.1282 27.2333 25.0195 26.7889 25.0195C26.1554 25.0195 25.373 25.1968 24.4417 25.5513C24.4369 25.5372 24.3589 25.3221 24.2077 24.906C24.0564 24.49 23.9784 24.2773 23.9736 24.2678C24.8908 23.8754 25.8836 23.6792 26.952 23.6792C28.0015 23.6792 28.765 23.9085 29.2425 24.3671C29.72 24.8209 29.9587 25.5584 29.9587 26.5796V31.6641H28.583C28.5783 31.6452 28.5263 31.4868 28.427 31.1889C28.3277 30.8911 28.2781 30.7327 28.2781 30.7138C27.8904 31.092 27.5099 31.371 27.1364 31.5506C26.7676 31.7255 26.3185 31.813 25.789 31.813ZM26.2925 30.494C26.7227 30.494 27.0962 30.3924 27.4129 30.1891C27.7344 29.9811 27.9637 29.7305 28.1008 29.4374V27.934C28.0866 27.934 27.9613 27.9435 27.725 27.9624C27.4933 27.9813 27.368 27.9908 27.3491 27.9908C26.5974 28.0569 26.0467 28.1988 25.6968 28.4162C25.347 28.6337 25.1721 28.9835 25.1721 29.4658C25.1721 29.7967 25.269 30.052 25.4628 30.2316C25.6567 30.4065 25.9332 30.494 26.2925 30.494ZM31.8308 31.6641V23.8707H33.3342L33.5469 24.8635C33.6415 24.7453 33.7313 24.6413 33.8164 24.5515C33.9062 24.4569 34.0268 24.3529 34.1781 24.2394C34.3341 24.1213 34.4972 24.0243 34.6674 23.9487C34.8423 23.8731 35.055 23.8092 35.3056 23.7572C35.5609 23.7052 35.8327 23.6792 36.1211 23.6792C36.7404 23.6792 37.2344 23.8045 37.6032 24.0551C37.9766 24.3056 38.239 24.5987 38.3903 24.9344C38.6692 24.5326 39.0309 24.2229 39.4753 24.0054C39.9197 23.788 40.4137 23.6792 40.9574 23.6792C41.8509 23.6792 42.5056 23.9322 42.9217 24.438C43.3424 24.9439 43.5528 25.6932 43.5528 26.686V31.6641H41.6878V27.2391C41.6878 26.4779 41.6027 25.9295 41.4325 25.5939C41.267 25.2535 40.9479 25.0833 40.4752 25.0833C39.7518 25.0833 39.2318 25.4095 38.9151 26.0619C38.7827 26.3503 38.6929 26.6978 38.6456 27.1043V31.6641H36.7877V27.154C36.7877 26.459 36.6955 25.9414 36.5111 25.601C36.3267 25.2606 35.9934 25.0904 35.5112 25.0904C35.1188 25.0904 34.7808 25.1897 34.4972 25.3882C34.2135 25.5868 33.9984 25.8468 33.8519 26.1683C33.7431 26.6458 33.6888 27.2178 33.6888 27.8844V31.6641H31.8308ZM48.9918 31.813C47.739 31.813 46.7628 31.4537 46.0631 30.7351C45.3682 30.0118 45.0207 29.0143 45.0207 27.7426C45.0207 26.5039 45.3493 25.5182 46.0064 24.7855C46.6635 24.0527 47.5594 23.684 48.694 23.6792C49.7671 23.6792 50.5992 24.0149 51.1901 24.6862C51.7858 25.3575 52.0836 26.2487 52.0836 27.3596C52.0836 27.44 52.0813 27.57 52.0766 27.7497C52.0766 27.9293 52.0766 28.0617 52.0766 28.1468H46.8928C46.9117 28.8748 47.1103 29.4398 47.4885 29.8416C47.8714 30.2387 48.3962 30.4373 49.0627 30.4373C49.9137 30.4373 50.7316 30.2151 51.5163 29.7707L51.7787 31.0897C50.9987 31.5719 50.0697 31.813 48.9918 31.813ZM46.9283 26.9767H50.3321C50.3321 26.3432 50.1879 25.8563 49.8995 25.5159C49.6111 25.1755 49.2117 25.0053 48.7011 25.0053C48.2236 25.0053 47.8194 25.1708 47.4885 25.5017C47.1623 25.8326 46.9755 26.3243 46.9283 26.9767ZM56.7143 31.7704C56.1848 31.7704 55.7428 31.709 55.3882 31.5861C55.0384 31.4584 54.7642 31.2599 54.5656 30.9904C54.3671 30.7209 54.2252 30.4042 54.1401 30.0401C54.0598 29.6714 54.0196 29.2176 54.0196 28.6786V24.9982H52.7431L52.8141 23.9913L54.1472 23.8707L54.7429 21.7575L55.8775 21.7504V23.8707H57.8134V24.9982H55.8775V28.7141C55.8775 29.305 55.9626 29.7258 56.1328 29.9763C56.303 30.2269 56.6174 30.3522 57.0759 30.3522C57.3454 30.3522 57.6338 30.3285 57.9411 30.2813L57.9907 31.6144C57.9813 31.6144 57.9222 31.6262 57.8134 31.6499C57.7094 31.6688 57.6078 31.6853 57.5085 31.6995C57.414 31.7184 57.291 31.735 57.1398 31.7492C56.9885 31.7633 56.8467 31.7704 56.7143 31.7704ZM62.8341 31.813C61.5813 31.813 60.6051 31.4537 59.9054 30.7351C59.2104 30.0118 58.863 29.0143 58.863 27.7426C58.863 26.5039 59.1915 25.5182 59.8486 24.7855C60.5058 24.0527 61.4016 23.684 62.5363 23.6792C63.6094 23.6792 64.4415 24.0149 65.0324 24.6862C65.6281 25.3575 65.9259 26.2487 65.9259 27.3596C65.9259 27.44 65.9235 27.57 65.9188 27.7497C65.9188 27.9293 65.9188 28.0617 65.9188 28.1468H60.7351C60.754 28.8748 60.9525 29.4398 61.3307 29.8416C61.7137 30.2387 62.2384 30.4373 62.905 30.4373C63.756 30.4373 64.5738 30.2151 65.3586 29.7707L65.621 31.0897C64.8409 31.5719 63.912 31.813 62.8341 31.813ZM60.7705 26.9767H64.1744C64.1744 26.3432 64.0302 25.8563 63.7418 25.5159C63.4534 25.1755 63.0539 25.0053 62.5433 25.0053C62.0659 25.0053 61.6617 25.1708 61.3307 25.5017C61.0045 25.8326 60.8178 26.3243 60.7705 26.9767ZM67.4505 31.6641V23.8707H69.0106L69.2517 25.062C69.7623 24.2442 70.5022 23.8352 71.4713 23.8352C71.6746 23.8352 71.8401 23.8447 71.9677 23.8636L71.9393 25.4166C71.7502 25.3882 71.5541 25.3741 71.3508 25.3741C70.6653 25.3741 70.1523 25.5561 69.812 25.9201C69.4763 26.2841 69.3085 26.79 69.3085 27.4376V31.6641H67.4505ZM75.9814 31.6641L79.8036 21.2682H81.8956L85.6611 31.6641H83.6897L82.6614 28.7283H79.0236L77.9882 31.6641H75.9814ZM79.5058 27.2958H82.1721C81.3212 24.568 80.8839 23.1592 80.8602 23.0694L79.5058 27.2958ZM89.0791 31.8059C87.9303 31.8059 87.0108 31.6097 86.3206 31.2173L86.512 29.8203C86.824 29.9905 87.2212 30.1442 87.7034 30.2813C88.1856 30.4136 88.6252 30.4798 89.0224 30.4798C89.4336 30.4798 89.7528 30.4042 89.9797 30.2529C90.2113 30.0969 90.3295 29.87 90.3342 29.5721C90.3342 29.3027 90.2255 29.0899 90.008 28.9339C89.7953 28.7779 89.3864 28.5841 88.7812 28.3524C88.5732 28.2768 88.4385 28.2271 88.377 28.2035C87.6585 27.9246 87.1408 27.6149 86.824 27.2745C86.5073 26.9294 86.3489 26.4638 86.3489 25.8775C86.3489 25.1684 86.6042 24.6247 87.1148 24.2465C87.6301 23.8683 88.3463 23.6792 89.2635 23.6792C90.2562 23.6792 91.1285 23.866 91.8802 24.2394L91.4192 25.523C90.677 25.1779 89.9702 25.0053 89.2989 25.0053C88.9254 25.0053 88.6323 25.0691 88.4196 25.1968C88.2116 25.3197 88.1076 25.5088 88.1076 25.7641C88.1076 26.0052 88.2092 26.1943 88.4125 26.3314C88.6158 26.4638 89.0129 26.6387 89.6038 26.8561C89.6227 26.8609 89.6842 26.8821 89.7882 26.92C89.8922 26.9578 89.9726 26.9885 90.0293 27.0122C90.7432 27.2722 91.2679 27.5842 91.6036 27.9482C91.9392 28.3075 92.1071 28.7779 92.1071 29.3594C92.1023 30.1394 91.8376 30.7422 91.3128 31.1677C90.7881 31.5931 90.0435 31.8059 89.0791 31.8059ZM96.0711 31.8059C94.9223 31.8059 94.0028 31.6097 93.3126 31.2173L93.5041 29.8203C93.8161 29.9905 94.2132 30.1442 94.6954 30.2813C95.1776 30.4136 95.6173 30.4798 96.0144 30.4798C96.4257 30.4798 96.7448 30.4042 96.9717 30.2529C97.2034 30.0969 97.3216 29.87 97.3263 29.5721C97.3263 29.3027 97.2176 29.0899 97.0001 28.9339C96.7873 28.7779 96.3784 28.5841 95.7733 28.3524C95.5653 28.2768 95.4305 28.2271 95.3691 28.2035C94.6505 27.9246 94.1328 27.6149 93.8161 27.2745C93.4993 26.9294 93.341 26.4638 93.341 25.8775C93.341 25.1684 93.5963 24.6247 94.1068 24.2465C94.6221 23.8683 95.3384 23.6792 96.2555 23.6792C97.2483 23.6792 98.1205 23.866 98.8722 24.2394L98.4113 25.523C97.669 25.1779 96.9623 25.0053 96.291 25.0053C95.9175 25.0053 95.6244 25.0691 95.4116 25.1968C95.2036 25.3197 95.0996 25.5088 95.0996 25.7641C95.0996 26.0052 95.2013 26.1943 95.4045 26.3314C95.6078 26.4638 96.0049 26.6387 96.5959 26.8561C96.6148 26.8609 96.6763 26.8821 96.7803 26.92C96.8843 26.9578 96.9646 26.9885 97.0214 27.0122C97.7352 27.2722 98.26 27.5842 98.5956 27.9482C98.9313 28.3075 99.0991 28.7779 99.0991 29.3594C99.0944 30.1394 98.8296 30.7422 98.3049 31.1677C97.7801 31.5931 97.0355 31.8059 96.0711 31.8059ZM106.198 31.0542C105.578 31.5601 104.763 31.813 103.751 31.813C102.739 31.813 101.924 31.5601 101.305 31.0542C100.69 30.5484 100.383 29.8061 100.383 28.8275V23.8707H102.248V28.7566C102.248 29.3381 102.368 29.7589 102.609 30.0189C102.855 30.2789 103.243 30.4089 103.772 30.4089C104.292 30.4089 104.671 30.2813 104.907 30.026C105.148 29.766 105.269 29.3428 105.269 28.7566V23.8707H107.126V28.8275C107.126 29.8014 106.817 30.5436 106.198 31.0542ZM108.828 31.6641V23.8707H110.332L110.545 24.8635C110.639 24.7453 110.729 24.6413 110.814 24.5515C110.904 24.4569 111.024 24.3529 111.176 24.2394C111.332 24.1213 111.495 24.0243 111.665 23.9487C111.84 23.8731 112.053 23.8092 112.303 23.7572C112.558 23.7052 112.83 23.6792 113.119 23.6792C113.738 23.6792 114.232 23.8045 114.601 24.0551C114.974 24.3056 115.237 24.5987 115.388 24.9344C115.667 24.5326 116.028 24.2229 116.473 24.0054C116.917 23.788 117.411 23.6792 117.955 23.6792C118.848 23.6792 119.503 23.9322 119.919 24.438C120.34 24.9439 120.55 25.6932 120.55 26.686V31.6641H118.685V27.2391C118.685 26.4779 118.6 25.9295 118.43 25.5939C118.265 25.2535 117.945 25.0833 117.473 25.0833C116.749 25.0833 116.229 25.4095 115.913 26.0619C115.78 26.3503 115.69 26.6978 115.643 27.1043V31.6641H113.785V27.154C113.785 26.459 113.693 25.9414 113.509 25.601C113.324 25.2606 112.991 25.0904 112.509 25.0904C112.116 25.0904 111.778 25.1897 111.495 25.3882C111.211 25.5868 110.996 25.8468 110.849 26.1683C110.741 26.6458 110.686 27.2178 110.686 27.8844V31.6641H108.828ZM122.387 34.9048V23.8707H123.983L124.181 24.9628C124.436 24.5515 124.774 24.2347 125.195 24.0125C125.621 23.7856 126.093 23.6721 126.613 23.6721C127.252 23.6721 127.812 23.8494 128.294 24.204C128.781 24.5586 129.15 25.0431 129.4 25.6577C129.651 26.2676 129.776 26.9578 129.776 27.7284C129.776 28.9339 129.483 29.9172 128.897 30.6784C128.315 31.4348 127.526 31.813 126.528 31.813C126.037 31.813 125.59 31.7161 125.188 31.5222C124.791 31.3237 124.458 31.0566 124.188 30.7209C124.226 31.4017 124.245 31.7846 124.245 31.8697V34.8126L122.387 34.9048ZM126.131 30.3947C126.684 30.3947 127.119 30.1631 127.436 29.6998C127.758 29.2365 127.918 28.5746 127.918 27.7142C127.918 26.8396 127.758 26.1825 127.436 25.7428C127.115 25.3031 126.668 25.0833 126.096 25.0833C124.867 25.0833 124.245 25.9201 124.231 27.5936C124.231 28.5581 124.389 29.2672 124.706 29.721C125.027 30.1702 125.502 30.3947 126.131 30.3947ZM134.407 31.7704C133.877 31.7704 133.435 31.709 133.081 31.5861C132.731 31.4584 132.457 31.2599 132.258 30.9904C132.06 30.7209 131.918 30.4042 131.833 30.0401C131.752 29.6714 131.712 29.2176 131.712 28.6786V24.9982H130.436L130.507 23.9913L131.84 23.8707L132.435 21.7575L133.57 21.7504V23.8707H135.506V24.9982H133.57V28.7141C133.57 29.305 133.655 29.7258 133.825 29.9763C133.996 30.2269 134.31 30.3522 134.768 30.3522C135.038 30.3522 135.326 30.3285 135.634 30.2813L135.683 31.6144C135.674 31.6144 135.615 31.6262 135.506 31.6499C135.402 31.6688 135.3 31.6853 135.201 31.6995C135.106 31.7184 134.984 31.735 134.832 31.7492C134.681 31.7633 134.539 31.7704 134.407 31.7704ZM137.038 31.6641V23.8707H138.896V31.6641H137.038ZM137.038 22.7361V21.1476H138.903V22.7361H137.038ZM144.235 30.4018C144.864 30.4018 145.337 30.1725 145.654 29.7139C145.97 29.2554 146.129 28.5982 146.129 27.7426C146.129 26.8774 145.97 26.2179 145.654 25.7641C145.337 25.3102 144.859 25.0833 144.221 25.0833C143.592 25.0833 143.117 25.3126 142.796 25.7712C142.479 26.225 142.321 26.8845 142.321 27.7497C142.321 28.6006 142.481 29.2554 142.803 29.7139C143.124 30.1725 143.602 30.4018 144.235 30.4018ZM144.186 31.813C143.032 31.813 142.125 31.4395 141.463 30.6926C140.801 29.9456 140.47 28.9623 140.47 27.7426C140.47 26.485 140.801 25.4946 141.463 24.7713C142.125 24.0433 143.058 23.6792 144.264 23.6792C145.427 23.6792 146.337 24.0503 146.994 24.7926C147.656 25.5301 147.987 26.5134 147.987 27.7426C147.987 28.9859 147.653 29.9763 146.987 30.7138C146.32 31.4466 145.387 31.813 144.186 31.813ZM149.504 31.6641V23.8707H151.001L151.206 24.8564C152 24.0716 152.882 23.6792 153.851 23.6792C154.759 23.6792 155.437 23.9416 155.886 24.4664C156.34 24.9864 156.567 25.7428 156.567 26.7356V31.6641H154.702V26.9625C154.697 26.3338 154.596 25.8634 154.397 25.5513C154.199 25.2393 153.842 25.0833 153.326 25.0833C152.925 25.0833 152.556 25.1873 152.22 25.3953C151.889 25.5986 151.648 25.8563 151.497 26.1683C151.407 26.537 151.362 27.1043 151.362 27.8702V31.6641H149.504ZM160.886 31.8059C159.737 31.8059 158.818 31.6097 158.127 31.2173L158.319 29.8203C158.631 29.9905 159.028 30.1442 159.51 30.2813C159.992 30.4136 160.432 30.4798 160.829 30.4798C161.24 30.4798 161.559 30.4042 161.786 30.2529C162.018 30.0969 162.136 29.87 162.141 29.5721C162.141 29.3027 162.032 29.0899 161.815 28.9339C161.602 28.7779 161.193 28.5841 160.588 28.3524C160.38 28.2768 160.245 28.2271 160.184 28.2035C159.465 27.9246 158.948 27.6149 158.631 27.2745C158.314 26.9294 158.156 26.4638 158.156 25.8775C158.156 25.1684 158.411 24.6247 158.922 24.2465C159.437 23.8683 160.153 23.6792 161.07 23.6792C162.063 23.6792 162.935 23.866 163.687 24.2394L163.226 25.523C162.484 25.1779 161.777 25.0053 161.106 25.0053C160.732 25.0053 160.439 25.0691 160.226 25.1968C160.018 25.3197 159.914 25.5088 159.914 25.7641C159.914 26.0052 160.016 26.1943 160.219 26.3314C160.423 26.4638 160.82 26.6387 161.411 26.8561C161.429 26.8609 161.491 26.8821 161.595 26.92C161.699 26.9578 161.779 26.9885 161.836 27.0122C162.55 27.2722 163.075 27.5842 163.41 27.9482C163.746 28.3075 163.914 28.7779 163.914 29.3594C163.909 30.1394 163.644 30.7422 163.12 31.1677C162.595 31.5931 161.85 31.8059 160.886 31.8059Z" fill="black"/>
<rect x="2.40918" y="62.6641" width="181.065" height="51.2889" fill="#CECECE"/>
<path d="M14.3166 80.6523V72.1748H17.1811C17.8461 72.1748 18.3898 72.2949 18.812 72.535C19.237 72.7723 19.5516 73.0938 19.7558 73.4995C19.96 73.9051 20.0621 74.3577 20.0621 74.8572C20.0621 75.3567 19.96 75.8106 19.7558 76.219C19.5543 76.6275 19.2425 76.9531 18.8203 77.1959C18.3981 77.436 17.8572 77.5561 17.1976 77.5561H15.1445V76.6454H17.1645C17.6199 76.6454 17.9855 76.5668 18.2615 76.4095C18.5374 76.2522 18.7375 76.0397 18.8617 75.772C18.9886 75.5015 19.0521 75.1966 19.0521 74.8572C19.0521 74.5178 18.9886 74.2142 18.8617 73.9465C18.7375 73.6788 18.536 73.4691 18.2573 73.3173C17.9786 73.1628 17.6088 73.0855 17.148 73.0855H15.3432V80.6523H14.3166ZM21.5833 80.6523V74.2942H22.5271V75.2546H22.5933C22.7092 74.94 22.919 74.6847 23.2225 74.4888C23.5261 74.2928 23.8683 74.1949 24.2491 74.1949C24.3209 74.1949 24.4105 74.1963 24.5182 74.199C24.6258 74.2018 24.7072 74.2059 24.7624 74.2114V75.2049C24.7293 75.1966 24.6534 75.1842 24.5347 75.1676C24.4188 75.1483 24.296 75.1387 24.1663 75.1387C23.8572 75.1387 23.5813 75.2035 23.3384 75.3332C23.0984 75.4602 22.9079 75.6368 22.7672 75.8631C22.6292 76.0866 22.5602 76.3418 22.5602 76.6288V80.6523H21.5833ZM28.3099 80.7848C27.7359 80.7848 27.2322 80.6482 26.799 80.375C26.3685 80.1018 26.0318 79.7196 25.789 79.2284C25.5489 78.7372 25.4288 78.1632 25.4288 77.5064C25.4288 76.8441 25.5489 76.266 25.789 75.772C26.0318 75.278 26.3685 74.8944 26.799 74.6212C27.2322 74.348 27.7359 74.2114 28.3099 74.2114C28.8839 74.2114 29.3861 74.348 29.8166 74.6212C30.2499 74.8944 30.5865 75.278 30.8266 75.772C31.0695 76.266 31.1909 76.8441 31.1909 77.5064C31.1909 78.1632 31.0695 78.7372 30.8266 79.2284C30.5865 79.7196 30.2499 80.1018 29.8166 80.375C29.3861 80.6482 28.8839 80.7848 28.3099 80.7848ZM28.3099 79.9073C28.7459 79.9073 29.1046 79.7955 29.3861 79.572C29.6676 79.3484 29.8759 79.0545 30.0112 78.6903C30.1464 78.326 30.214 77.9314 30.214 77.5064C30.214 77.0814 30.1464 76.6854 30.0112 76.3184C29.8759 75.9514 29.6676 75.6547 29.3861 75.4284C29.1046 75.2021 28.7459 75.089 28.3099 75.089C27.8738 75.089 27.5151 75.2021 27.2336 75.4284C26.9521 75.6547 26.7438 75.9514 26.6086 76.3184C26.4733 76.6854 26.4057 77.0814 26.4057 77.5064C26.4057 77.9314 26.4733 78.326 26.6086 78.6903C26.7438 79.0545 26.9521 79.3484 27.2336 79.572C27.5151 79.7955 27.8738 79.9073 28.3099 79.9073ZM37.6535 74.2942L35.3023 80.6523H34.3089L31.9577 74.2942H33.0174L34.7725 79.3609H34.8387L36.5938 74.2942H37.6535ZM38.9429 80.6523V74.2942H39.9198V80.6523H38.9429ZM39.4397 73.2345C39.2493 73.2345 39.0851 73.1697 38.9471 73.04C38.8119 72.9103 38.7443 72.7544 38.7443 72.5722C38.7443 72.3901 38.8119 72.2342 38.9471 72.1045C39.0851 71.9748 39.2493 71.9099 39.4397 71.9099C39.6301 71.9099 39.7929 71.9748 39.9281 72.1045C40.0661 72.2342 40.1351 72.3901 40.1351 72.5722C40.1351 72.7544 40.0661 72.9103 39.9281 73.04C39.7929 73.1697 39.6301 73.2345 39.4397 73.2345ZM44.11 80.7848C43.5801 80.7848 43.1124 80.651 42.7067 80.3833C42.301 80.1128 41.9837 79.732 41.7546 79.2408C41.5256 78.7468 41.4111 78.1632 41.4111 77.4898C41.4111 76.822 41.5256 76.2425 41.7546 75.7513C41.9837 75.2601 42.3024 74.8806 42.7108 74.613C43.1193 74.3453 43.5911 74.2114 44.1265 74.2114C44.5405 74.2114 44.8675 74.2804 45.1076 74.4184C45.3504 74.5536 45.5353 74.7082 45.6622 74.882C45.7919 75.0531 45.8927 75.1939 45.9644 75.3042H46.0472V72.1748H47.0241V80.6523H46.0803V79.6754H45.9644C45.8927 79.7913 45.7906 79.9376 45.6581 80.1142C45.5256 80.2881 45.3366 80.444 45.091 80.582C44.8454 80.7172 44.5184 80.7848 44.11 80.7848ZM44.2424 79.9073C44.6343 79.9073 44.9654 79.8051 45.2359 79.6009C45.5063 79.394 45.7119 79.1083 45.8526 78.7441C45.9934 78.3771 46.0638 77.9535 46.0638 77.4733C46.0638 76.9986 45.9948 76.5833 45.8568 76.2273C45.7188 75.8686 45.5146 75.5899 45.2442 75.3912C44.9737 75.1897 44.6398 75.089 44.2424 75.089C43.8285 75.089 43.4835 75.1952 43.2076 75.4077C42.9344 75.6175 42.7288 75.9031 42.5908 76.2646C42.4556 76.6233 42.388 77.0262 42.388 77.4733C42.388 77.9259 42.457 78.337 42.5949 78.7068C42.7357 79.0739 42.9426 79.3664 43.2158 79.5844C43.4918 79.7996 43.834 79.9073 44.2424 79.9073ZM51.6147 80.7848C51.0021 80.7848 50.4736 80.6496 50.0293 80.3791C49.5878 80.1059 49.247 79.7251 49.0069 79.2367C48.7695 78.7455 48.6509 78.1742 48.6509 77.523C48.6509 76.8717 48.7695 76.2977 49.0069 75.801C49.247 75.3015 49.5809 74.9124 50.0086 74.6337C50.4391 74.3522 50.9413 74.2114 51.5153 74.2114C51.8465 74.2114 52.1735 74.2666 52.4964 74.377C52.8193 74.4874 53.1132 74.6668 53.3781 74.9151C53.643 75.1607 53.8541 75.4864 54.0114 75.892C54.1687 76.2977 54.2474 76.7972 54.2474 77.3905V77.8044H49.3463V76.96H53.2539C53.2539 76.6012 53.1821 76.2811 53.0386 75.9997C52.8979 75.7182 52.6965 75.496 52.4343 75.3332C52.1749 75.1704 51.8686 75.089 51.5153 75.089C51.1262 75.089 50.7896 75.1856 50.5053 75.3787C50.2239 75.5692 50.0072 75.8175 49.8554 76.1238C49.7037 76.4302 49.6278 76.7585 49.6278 77.109V77.672C49.6278 78.1521 49.7106 78.5592 49.8761 78.8931C50.0445 79.2243 50.2777 79.4768 50.5757 79.6506C50.8737 79.8217 51.2201 79.9073 51.6147 79.9073C51.8713 79.9073 52.1031 79.8714 52.3101 79.7996C52.5198 79.7251 52.7006 79.6147 52.8524 79.4685C53.0042 79.3195 53.1214 79.1346 53.2042 78.9138L54.148 79.1787C54.0487 79.4988 53.8817 79.7803 53.6471 80.0232C53.4126 80.2632 53.1228 80.4509 52.7779 80.5861C52.4329 80.7186 52.0452 80.7848 51.6147 80.7848ZM88.5175 83.0366V74.2942H89.4612V75.3042H89.5771C89.6489 75.1939 89.7482 75.0531 89.8752 74.882C90.0049 74.7082 90.1898 74.5536 90.4299 74.4184C90.6727 74.2804 91.0011 74.2114 91.415 74.2114C91.9504 74.2114 92.4223 74.3453 92.8307 74.613C93.2391 74.8806 93.5579 75.2601 93.7869 75.7513C94.016 76.2425 94.1305 76.822 94.1305 77.4898C94.1305 78.1632 94.016 78.7468 93.7869 79.2408C93.5579 79.732 93.2405 80.1128 92.8349 80.3833C92.4292 80.651 91.9614 80.7848 91.4316 80.7848C91.0232 80.7848 90.6962 80.7172 90.4506 80.582C90.205 80.444 90.0159 80.2881 89.8835 80.1142C89.751 79.9376 89.6489 79.7913 89.5771 79.6754H89.4944V83.0366H88.5175ZM89.4778 77.4733C89.4778 77.9535 89.5482 78.3771 89.6889 78.7441C89.8296 79.1083 90.0352 79.394 90.3057 79.6009C90.5761 79.8051 90.9073 79.9073 91.2991 79.9073C91.7076 79.9073 92.0484 79.7996 92.3216 79.5844C92.5975 79.3664 92.8045 79.0739 92.9425 78.7068C93.0832 78.337 93.1536 77.9259 93.1536 77.4733C93.1536 77.0262 93.0846 76.6233 92.9466 76.2646C92.8114 75.9031 92.6058 75.6175 92.3298 75.4077C92.0566 75.1952 91.7131 75.089 91.2991 75.089C90.9018 75.089 90.5678 75.1897 90.2974 75.3912C90.027 75.5899 89.8227 75.8686 89.6848 76.2273C89.5468 76.5833 89.4778 76.9986 89.4778 77.4733ZM98.2864 80.7848C97.6738 80.7848 97.1453 80.6496 96.701 80.3791C96.2595 80.1059 95.9187 79.7251 95.6786 79.2367C95.4413 78.7455 95.3226 78.1742 95.3226 77.523C95.3226 76.8717 95.4413 76.2977 95.6786 75.801C95.9187 75.3015 96.2526 74.9124 96.6804 74.6337C97.1109 74.3522 97.6131 74.2114 98.1871 74.2114C98.5182 74.2114 98.8453 74.2666 99.1681 74.377C99.491 74.4874 99.7849 74.6668 100.05 74.9151C100.315 75.1607 100.526 75.4864 100.683 75.892C100.84 76.2977 100.919 76.7972 100.919 77.3905V77.8044H96.018V76.96H99.9256C99.9256 76.6012 99.8539 76.2811 99.7104 75.9997C99.5697 75.7182 99.3682 75.496 99.106 75.3332C98.8466 75.1704 98.5403 75.089 98.1871 75.089C97.798 75.089 97.4613 75.1856 97.1771 75.3787C96.8956 75.5692 96.679 75.8175 96.5272 76.1238C96.3754 76.4302 96.2995 76.7585 96.2995 77.109V77.672C96.2995 78.1521 96.3823 78.5592 96.5479 78.8931C96.7162 79.2243 96.9494 79.4768 97.2475 79.6506C97.5455 79.8217 97.8918 79.9073 98.2864 79.9073C98.5431 79.9073 98.7749 79.8714 98.9819 79.7996C99.1916 79.7251 99.3723 79.6147 99.5241 79.4685C99.6759 79.3195 99.7932 79.1346 99.876 78.9138L100.82 79.1787C100.72 79.4988 100.553 79.7803 100.319 80.0232C100.084 80.2632 99.7946 80.4509 99.4496 80.5861C99.1047 80.7186 98.7169 80.7848 98.2864 80.7848ZM102.405 80.6523V74.2942H103.349V75.2546H103.415C103.531 74.94 103.741 74.6847 104.044 74.4888C104.348 74.2928 104.69 74.1949 105.071 74.1949C105.143 74.1949 105.232 74.1963 105.34 74.199C105.448 74.2018 105.529 74.2059 105.584 74.2114V75.2049C105.551 75.1966 105.475 75.1842 105.357 75.1676C105.241 75.1483 105.118 75.1387 104.988 75.1387C104.679 75.1387 104.403 75.2035 104.16 75.3332C103.92 75.4602 103.73 75.6368 103.589 75.8631C103.451 76.0866 103.382 76.3418 103.382 76.6288V80.6523H102.405ZM111.246 75.7182L110.368 75.9665C110.313 75.8203 110.232 75.6782 110.124 75.5402C110.019 75.3994 109.876 75.2835 109.694 75.1925C109.511 75.1014 109.278 75.0559 108.994 75.0559C108.605 75.0559 108.281 75.1456 108.021 75.3249C107.765 75.5015 107.636 75.7265 107.636 75.9997C107.636 76.2425 107.725 76.4343 107.901 76.575C108.078 76.7158 108.354 76.8331 108.729 76.9269L109.673 77.1587C110.241 77.2967 110.665 77.5078 110.944 77.792C111.222 78.0735 111.362 78.4364 111.362 78.8807C111.362 79.2449 111.257 79.5706 111.047 79.8576C110.84 80.1446 110.55 80.3709 110.178 80.5364C109.805 80.702 109.372 80.7848 108.878 80.7848C108.23 80.7848 107.693 80.6441 107.268 80.3626C106.843 80.0811 106.574 79.6699 106.461 79.129L107.388 78.8972C107.476 79.2394 107.643 79.4961 107.889 79.6672C108.137 79.8383 108.461 79.9238 108.862 79.9238C109.317 79.9238 109.678 79.8272 109.946 79.6341C110.217 79.4381 110.352 79.2036 110.352 78.9304C110.352 78.7096 110.274 78.5247 110.12 78.3757C109.965 78.2239 109.728 78.1108 109.408 78.0362L108.348 77.7879C107.766 77.6499 107.338 77.436 107.065 77.1463C106.795 76.8538 106.659 76.4881 106.659 76.0493C106.659 75.6906 106.76 75.3732 106.962 75.0973C107.166 74.8213 107.443 74.6047 107.794 74.4474C108.147 74.2901 108.547 74.2114 108.994 74.2114C109.623 74.2114 110.117 74.3494 110.476 74.6254C110.837 74.9013 111.094 75.2656 111.246 75.7182ZM112.832 83.0366V74.2942H113.776V75.3042H113.892C113.964 75.1939 114.063 75.0531 114.19 74.882C114.32 74.7082 114.505 74.5536 114.745 74.4184C114.988 74.2804 115.316 74.2114 115.73 74.2114C116.265 74.2114 116.737 74.3453 117.146 74.613C117.554 74.8806 117.873 75.2601 118.102 75.7513C118.331 76.2425 118.445 76.822 118.445 77.4898C118.445 78.1632 118.331 78.7468 118.102 79.2408C117.873 79.732 117.555 80.1128 117.15 80.3833C116.744 80.651 116.276 80.7848 115.746 80.7848C115.338 80.7848 115.011 80.7172 114.765 80.582C114.52 80.444 114.331 80.2881 114.198 80.1142C114.066 79.9376 113.964 79.7913 113.892 79.6754H113.809V83.0366H112.832ZM113.793 77.4733C113.793 77.9535 113.863 78.3771 114.004 78.7441C114.144 79.1083 114.35 79.394 114.621 79.6009C114.891 79.8051 115.222 79.9073 115.614 79.9073C116.022 79.9073 116.363 79.7996 116.636 79.5844C116.912 79.3664 117.119 79.0739 117.257 78.7068C117.398 78.337 117.468 77.9259 117.468 77.4733C117.468 77.0262 117.399 76.6233 117.261 76.2646C117.126 75.9031 116.921 75.6175 116.645 75.4077C116.371 75.1952 116.028 75.089 115.614 75.089C115.217 75.089 114.883 75.1897 114.612 75.3912C114.342 75.5899 114.138 75.8686 114 76.2273C113.862 76.5833 113.793 76.9986 113.793 77.4733ZM122.601 80.7848C121.989 80.7848 121.46 80.6496 121.016 80.3791C120.574 80.1059 120.234 79.7251 119.993 79.2367C119.756 78.7455 119.637 78.1742 119.637 77.523C119.637 76.8717 119.756 76.2977 119.993 75.801C120.234 75.3015 120.567 74.9124 120.995 74.6337C121.426 74.3522 121.928 74.2114 122.502 74.2114C122.833 74.2114 123.16 74.2666 123.483 74.377C123.806 74.4874 124.1 74.6668 124.365 74.9151C124.63 75.1607 124.841 75.4864 124.998 75.892C125.155 76.2977 125.234 76.7972 125.234 77.3905V77.8044H120.333V76.96H124.24C124.24 76.6012 124.169 76.2811 124.025 75.9997C123.885 75.7182 123.683 75.496 123.421 75.3332C123.161 75.1704 122.855 75.089 122.502 75.089C122.113 75.089 121.776 75.1856 121.492 75.3787C121.21 75.5692 120.994 75.8175 120.842 76.1238C120.69 76.4302 120.614 76.7585 120.614 77.109V77.672C120.614 78.1521 120.697 78.5592 120.863 78.8931C121.031 79.2243 121.264 79.4768 121.562 79.6506C121.86 79.8217 122.207 79.9073 122.601 79.9073C122.858 79.9073 123.09 79.8714 123.297 79.7996C123.506 79.7251 123.687 79.6147 123.839 79.4685C123.991 79.3195 124.108 79.1346 124.191 78.9138L125.135 79.1787C125.035 79.4988 124.868 79.7803 124.634 80.0232C124.399 80.2632 124.109 80.4509 123.764 80.5861C123.42 80.7186 123.032 80.7848 122.601 80.7848ZM129.303 80.7848C128.707 80.7848 128.194 80.6441 127.763 80.3626C127.333 80.0811 127.001 79.6934 126.77 79.1994C126.538 78.7054 126.422 78.1411 126.422 77.5064C126.422 76.8607 126.541 76.2908 126.778 75.7968C127.018 75.3001 127.352 74.9124 127.78 74.6337C128.21 74.3522 128.712 74.2114 129.286 74.2114C129.733 74.2114 130.136 74.2942 130.495 74.4598C130.854 74.6254 131.148 74.8572 131.377 75.1552C131.606 75.4533 131.748 75.801 131.803 76.1983H130.826C130.752 75.9086 130.586 75.6519 130.33 75.4284C130.076 75.2021 129.733 75.089 129.303 75.089C128.922 75.089 128.588 75.1883 128.301 75.387C128.017 75.583 127.795 75.8603 127.635 76.219C127.478 76.575 127.399 76.9931 127.399 77.4733C127.399 77.9645 127.476 78.3922 127.631 78.7565C127.788 79.1208 128.009 79.4036 128.293 79.6051C128.58 79.8065 128.917 79.9073 129.303 79.9073C129.557 79.9073 129.787 79.8631 129.994 79.7748C130.201 79.6865 130.376 79.5595 130.52 79.394C130.663 79.2284 130.766 79.0297 130.826 78.7979H131.803C131.748 79.1732 131.611 79.5112 131.393 79.812C131.178 80.1101 130.893 80.3474 130.537 80.524C130.183 80.6979 129.772 80.7848 129.303 80.7848ZM135.996 74.2942V75.1221H132.701V74.2942H135.996ZM133.662 72.7709H134.639V78.831C134.639 79.107 134.679 79.3139 134.759 79.4519C134.841 79.5871 134.946 79.6782 135.073 79.7251C135.203 79.7693 135.34 79.7913 135.483 79.7913C135.591 79.7913 135.679 79.7858 135.748 79.7748C135.817 79.761 135.872 79.75 135.914 79.7417L136.112 80.6192C136.046 80.6441 135.954 80.6689 135.835 80.6937C135.716 80.7213 135.566 80.7351 135.384 80.7351C135.108 80.7351 134.837 80.6758 134.572 80.5571C134.31 80.4385 134.092 80.2577 133.918 80.0149C133.747 79.772 133.662 79.4657 133.662 79.0959V72.7709ZM137.466 80.6523V74.2942H138.443V80.6523H137.466ZM137.963 73.2345C137.772 73.2345 137.608 73.1697 137.47 73.04C137.335 72.9103 137.267 72.7544 137.267 72.5722C137.267 72.3901 137.335 72.2342 137.47 72.1045C137.608 71.9748 137.772 71.9099 137.963 71.9099C138.153 71.9099 138.316 71.9748 138.451 72.1045C138.589 72.2342 138.658 72.3901 138.658 72.5722C138.658 72.7544 138.589 72.9103 138.451 73.04C138.316 73.1697 138.153 73.2345 137.963 73.2345ZM145.431 74.2942L143.08 80.6523H142.086L139.735 74.2942H140.795L142.55 79.3609H142.616L144.371 74.2942H145.431ZM149.159 80.7848C148.546 80.7848 148.018 80.6496 147.573 80.3791C147.132 80.1059 146.791 79.7251 146.551 79.2367C146.314 78.7455 146.195 78.1742 146.195 77.523C146.195 76.8717 146.314 76.2977 146.551 75.801C146.791 75.3015 147.125 74.9124 147.553 74.6337C147.983 74.3522 148.485 74.2114 149.059 74.2114C149.39 74.2114 149.717 74.2666 150.04 74.377C150.363 74.4874 150.657 74.6668 150.922 74.9151C151.187 75.1607 151.398 75.4864 151.555 75.892C151.713 76.2977 151.791 76.7972 151.791 77.3905V77.8044H146.89V76.96H150.798C150.798 76.6012 150.726 76.2811 150.583 75.9997C150.442 75.7182 150.24 75.496 149.978 75.3332C149.719 75.1704 149.413 75.089 149.059 75.089C148.67 75.089 148.334 75.1856 148.049 75.3787C147.768 75.5692 147.551 75.8175 147.399 76.1238C147.248 76.4302 147.172 76.7585 147.172 77.109V77.672C147.172 78.1521 147.255 78.5592 147.42 78.8931C147.588 79.2243 147.822 79.4768 148.12 79.6506C148.418 79.8217 148.764 79.9073 149.159 79.9073C149.415 79.9073 149.647 79.8714 149.854 79.7996C150.064 79.7251 150.245 79.6147 150.396 79.4685C150.548 79.3195 150.665 79.1346 150.748 78.9138L151.692 79.1787C151.593 79.4988 151.426 79.7803 151.191 80.0232C150.957 80.2632 150.667 80.4509 150.322 80.5861C149.977 80.7186 149.589 80.7848 149.159 80.7848ZM159.139 80.7848C158.565 80.7848 158.061 80.6482 157.628 80.375C157.197 80.1018 156.861 79.7196 156.618 79.2284C156.378 78.7372 156.258 78.1632 156.258 77.5064C156.258 76.8441 156.378 76.266 156.618 75.772C156.861 75.278 157.197 74.8944 157.628 74.6212C158.061 74.348 158.565 74.2114 159.139 74.2114C159.713 74.2114 160.215 74.348 160.645 74.6212C161.079 74.8944 161.415 75.278 161.656 75.772C161.898 76.266 162.02 76.8441 162.02 77.5064C162.02 78.1632 161.898 78.7372 161.656 79.2284C161.415 79.7196 161.079 80.1018 160.645 80.375C160.215 80.6482 159.713 80.7848 159.139 80.7848ZM159.139 79.9073C159.575 79.9073 159.934 79.7955 160.215 79.572C160.496 79.3484 160.705 79.0545 160.84 78.6903C160.975 78.326 161.043 77.9314 161.043 77.5064C161.043 77.0814 160.975 76.6854 160.84 76.3184C160.705 75.9514 160.496 75.6547 160.215 75.4284C159.934 75.2021 159.575 75.089 159.139 75.089C158.703 75.089 158.344 75.2021 158.063 75.4284C157.781 75.6547 157.573 75.9514 157.437 76.3184C157.302 76.6854 157.235 77.0814 157.235 77.5064C157.235 77.9314 157.302 78.326 157.437 78.6903C157.573 79.0545 157.781 79.3484 158.063 79.572C158.344 79.7955 158.703 79.9073 159.139 79.9073ZM164.488 76.8275V80.6523H163.511V74.2942H164.455V75.2877H164.538C164.687 74.9648 164.913 74.7054 165.216 74.5095C165.52 74.3108 165.912 74.2114 166.392 74.2114C166.823 74.2114 167.199 74.2997 167.522 74.4764C167.845 74.6502 168.096 74.9151 168.275 75.2711C168.455 75.6244 168.545 76.0714 168.545 76.6123V80.6523H167.568V76.6785C167.568 76.179 167.438 75.7899 167.179 75.5112C166.919 75.2297 166.563 75.089 166.111 75.089C165.799 75.089 165.52 75.1566 165.274 75.2918C165.032 75.427 164.84 75.6244 164.699 75.8838C164.558 76.1432 164.488 76.4577 164.488 76.8275Z" fill="black"/>
<rect x="59.9141" y="66.5469" width="21.7589" height="17.8734" rx="6.21683" fill="white"/>
<rect x="13.0703" y="90.1719" width="155.919" height="17.7181" rx="6.21683" fill="white"/>
<rect x="2.40918" y="121.039" width="107.24" height="30.3071" fill="#CECECE"/>
<path d="M12.7609 139.807V131.329H17.8772V132.24H13.7875V135.104H17.6123V136.015H13.7875V138.896H17.9435V139.807H12.7609ZM20.3236 133.449L21.8469 136.048L23.3702 133.449H24.4962L22.443 136.628L24.4962 139.807H23.3702L21.8469 137.34L20.3236 139.807H19.1977L21.2177 136.628L19.1977 133.449H20.3236ZM25.8901 142.191V133.449H26.8339V134.459H26.9498C27.0215 134.348 27.1209 134.207 27.2478 134.036C27.3775 133.862 27.5624 133.708 27.8025 133.573C28.0453 133.435 28.3737 133.366 28.7877 133.366C29.323 133.366 29.7949 133.5 30.2034 133.767C30.6118 134.035 30.9305 134.414 31.1596 134.906C31.3886 135.397 31.5031 135.976 31.5031 136.644C31.5031 137.317 31.3886 137.901 31.1596 138.395C30.9305 138.886 30.6132 139.267 30.2075 139.538C29.8018 139.805 29.3341 139.939 28.8042 139.939C28.3958 139.939 28.0688 139.871 27.8232 139.736C27.5776 139.598 27.3886 139.442 27.2561 139.269C27.1236 139.092 27.0215 138.946 26.9498 138.83H26.867V142.191H25.8901ZM26.8504 136.628C26.8504 137.108 26.9208 137.531 27.0615 137.898C27.2023 138.263 27.4079 138.548 27.6783 138.755C27.9488 138.959 28.2799 139.062 28.6718 139.062C29.0802 139.062 29.421 138.954 29.6942 138.739C29.9702 138.521 30.1771 138.228 30.3151 137.861C30.4559 137.491 30.5262 137.08 30.5262 136.628C30.5262 136.181 30.4572 135.778 30.3193 135.419C30.184 135.057 29.9784 134.772 29.7025 134.562C29.4293 134.35 29.0857 134.243 28.6718 134.243C28.2744 134.243 27.9405 134.344 27.67 134.545C27.3996 134.744 27.1954 135.023 27.0574 135.382C26.9194 135.738 26.8504 136.153 26.8504 136.628ZM33.9702 131.329V139.807H32.9933V131.329H33.9702ZM37.6305 139.956C37.2276 139.956 36.8619 139.88 36.5335 139.728C36.2051 139.573 35.9444 139.351 35.7512 139.062C35.558 138.769 35.4614 138.416 35.4614 138.002C35.4614 137.638 35.5332 137.342 35.6767 137.116C35.8202 136.887 36.012 136.708 36.2521 136.578C36.4921 136.448 36.7571 136.352 37.0468 136.288C37.3393 136.222 37.6332 136.169 37.9285 136.131C38.3149 136.081 38.6281 136.044 38.8682 136.019C39.111 135.991 39.2876 135.946 39.398 135.882C39.5111 135.819 39.5677 135.709 39.5677 135.551V135.518C39.5677 135.11 39.4559 134.792 39.2324 134.566C39.0117 134.34 38.6764 134.227 38.2265 134.227C37.7602 134.227 37.3945 134.329 37.1296 134.533C36.8647 134.737 36.6784 134.955 36.5708 135.187L35.6436 134.856C35.8091 134.47 36.0299 134.169 36.3059 133.954C36.5846 133.736 36.8881 133.584 37.2165 133.498C37.5477 133.41 37.8733 133.366 38.1934 133.366C38.3976 133.366 38.6322 133.391 38.8971 133.44C39.1648 133.487 39.4228 133.585 39.6712 133.734C39.9223 133.883 40.1307 134.108 40.2962 134.409C40.4618 134.71 40.5446 135.113 40.5446 135.618V139.807H39.5677V138.946H39.518C39.4518 139.084 39.3414 139.231 39.1869 139.389C39.0324 139.546 38.8268 139.68 38.5701 139.79C38.3135 139.9 38.0003 139.956 37.6305 139.956ZM37.7795 139.078C38.1658 139.078 38.4915 139.002 38.7564 138.85C39.0241 138.699 39.2255 138.503 39.3607 138.263C39.4987 138.023 39.5677 137.77 39.5677 137.505V136.611C39.5263 136.661 39.4353 136.706 39.2945 136.748C39.1565 136.786 38.9965 136.821 38.8143 136.851C38.635 136.879 38.4597 136.904 38.2886 136.926C38.1203 136.945 37.9837 136.961 37.8788 136.975C37.625 137.008 37.3876 137.062 37.1669 137.137C36.9489 137.208 36.7722 137.317 36.637 137.464C36.5046 137.607 36.4383 137.803 36.4383 138.052C36.4383 138.391 36.5639 138.648 36.815 138.821C37.0689 138.993 37.3904 139.078 37.7795 139.078ZM42.3277 139.807V133.449H43.3046V139.807H42.3277ZM42.8244 132.389C42.634 132.389 42.4698 132.324 42.3318 132.194C42.1966 132.065 42.129 131.909 42.129 131.727C42.129 131.544 42.1966 131.388 42.3318 131.259C42.4698 131.129 42.634 131.064 42.8244 131.064C43.0148 131.064 43.1776 131.129 43.3128 131.259C43.4508 131.388 43.5198 131.544 43.5198 131.727C43.5198 131.909 43.4508 132.065 43.3128 132.194C43.1776 132.324 43.0148 132.389 42.8244 132.389ZM46.0707 135.982V139.807H45.0938V133.449H46.0376V134.442H46.1204C46.2694 134.119 46.4957 133.86 46.7992 133.664C47.1028 133.465 47.4947 133.366 47.9748 133.366C48.4053 133.366 48.782 133.454 49.1049 133.631C49.4278 133.805 49.6789 134.069 49.8583 134.425C50.0376 134.779 50.1273 135.226 50.1273 135.767V139.807H49.1504V135.833C49.1504 135.333 49.0207 134.944 48.7613 134.666C48.5019 134.384 48.1459 134.243 47.6934 134.243C47.3815 134.243 47.1028 134.311 46.8572 134.446C46.6144 134.581 46.4226 134.779 46.2818 135.038C46.1411 135.297 46.0707 135.612 46.0707 135.982Z" fill="black"/>
<rect x="59.9141" y="127.258" width="36.5239" height="17.0963" rx="6.21683" fill="white"/>
<rect x="2.40918" y="158.434" width="204.378" height="28.7528" fill="#CECECE"/>
<path d="M15.8565 177.207L13.5384 168.73H14.5815L16.3532 175.634H16.436L18.2408 168.73H19.3998L21.2046 175.634H21.2874L23.059 168.73H24.1022L21.7841 177.207H20.7244L18.8534 170.452H18.7872L16.9162 177.207H15.8565ZM26.2257 173.382V177.207H25.2488V168.73H26.2257V171.842H26.3085C26.4575 171.514 26.681 171.253 26.979 171.06C27.2798 170.864 27.68 170.766 28.1795 170.766C28.6127 170.766 28.9922 170.853 29.3178 171.027C29.6434 171.198 29.8959 171.462 30.0753 171.818C30.2574 172.171 30.3485 172.621 30.3485 173.167V177.207H29.3716V173.233C29.3716 172.728 29.2405 172.338 28.9784 172.062C28.719 171.783 28.3588 171.644 27.898 171.644C27.5779 171.644 27.2909 171.711 27.037 171.847C26.7859 171.982 26.5872 172.179 26.4409 172.438C26.2974 172.698 26.2257 173.012 26.2257 173.382ZM34.0067 177.356C33.6038 177.356 33.2382 177.28 32.9098 177.128C32.5814 176.974 32.3206 176.752 32.1274 176.462C31.9342 176.169 31.8377 175.816 31.8377 175.402C31.8377 175.038 31.9094 174.743 32.0529 174.516C32.1964 174.287 32.3882 174.108 32.6283 173.978C32.8684 173.849 33.1333 173.752 33.4231 173.689C33.7156 173.622 34.0095 173.57 34.3047 173.531C34.6911 173.482 35.0043 173.444 35.2444 173.419C35.4872 173.392 35.6638 173.346 35.7742 173.283C35.8874 173.219 35.9439 173.109 35.9439 172.952V172.919C35.9439 172.51 35.8322 172.193 35.6087 171.967C35.3879 171.74 35.0526 171.627 34.6028 171.627C34.1364 171.627 33.7708 171.729 33.5058 171.933C33.2409 172.138 33.0546 172.356 32.947 172.587L32.0198 172.256C32.1854 171.87 32.4061 171.569 32.6821 171.354C32.9608 171.136 33.2644 170.984 33.5928 170.899C33.9239 170.81 34.2496 170.766 34.5697 170.766C34.7739 170.766 35.0084 170.791 35.2734 170.841C35.541 170.888 35.7991 170.986 36.0474 171.135C36.2986 171.284 36.5069 171.508 36.6725 171.809C36.8381 172.11 36.9208 172.513 36.9208 173.018V177.207H35.9439V176.346H35.8943C35.828 176.484 35.7177 176.632 35.5631 176.789C35.4086 176.946 35.203 177.08 34.9464 177.19C34.6897 177.301 34.3765 177.356 34.0067 177.356ZM34.1557 176.478C34.5421 176.478 34.8677 176.403 35.1326 176.251C35.4003 176.099 35.6018 175.903 35.737 175.663C35.875 175.423 35.9439 175.17 35.9439 174.906V174.011C35.9026 174.061 35.8115 174.107 35.6707 174.148C35.5328 174.187 35.3727 174.221 35.1906 174.251C35.0112 174.279 34.836 174.304 34.6649 174.326C34.4965 174.345 34.3599 174.362 34.2551 174.376C34.0012 174.409 33.7639 174.463 33.5431 174.537C33.3251 174.609 33.1485 174.718 33.0133 174.864C32.8808 175.008 32.8146 175.204 32.8146 175.452C32.8146 175.791 32.9401 176.048 33.1912 176.222C33.4451 176.393 33.7666 176.478 34.1557 176.478ZM41.469 170.849V171.677H38.1741V170.849H41.469ZM39.1344 169.326H40.1113V175.386C40.1113 175.662 40.1513 175.869 40.2313 176.007C40.3141 176.142 40.419 176.233 40.5459 176.28C40.6756 176.324 40.8122 176.346 40.9557 176.346C41.0634 176.346 41.1517 176.341 41.2207 176.329C41.2896 176.316 41.3448 176.305 41.3862 176.296L41.5849 177.174C41.5187 177.199 41.4262 177.224 41.3076 177.248C41.1889 177.276 41.0385 177.29 40.8564 177.29C40.5804 177.29 40.31 177.23 40.0451 177.112C39.7829 176.993 39.5649 176.812 39.391 176.57C39.2199 176.327 39.1344 176.02 39.1344 175.651V169.326ZM47.6574 177.207L45.7202 170.849H46.7468L48.121 175.717H48.1873L49.545 170.849H50.5881L51.9293 175.7H51.9955L53.3698 170.849H54.3964L52.4591 177.207H51.4988L50.1079 172.323H50.0086L48.6178 177.207H47.6574ZM58.0546 177.339C57.4806 177.339 56.9769 177.203 56.5437 176.93C56.1132 176.656 55.7765 176.274 55.5337 175.783C55.2936 175.292 55.1735 174.718 55.1735 174.061C55.1735 173.399 55.2936 172.821 55.5337 172.327C55.7765 171.833 56.1132 171.449 56.5437 171.176C56.9769 170.903 57.4806 170.766 58.0546 170.766C58.6286 170.766 59.1308 170.903 59.5613 171.176C59.9946 171.449 60.3312 171.833 60.5713 172.327C60.8142 172.821 60.9356 173.399 60.9356 174.061C60.9356 174.718 60.8142 175.292 60.5713 175.783C60.3312 176.274 59.9946 176.656 59.5613 176.93C59.1308 177.203 58.6286 177.339 58.0546 177.339ZM58.0546 176.462C58.4906 176.462 58.8493 176.35 59.1308 176.127C59.4123 175.903 59.6206 175.609 59.7559 175.245C59.8911 174.881 59.9587 174.486 59.9587 174.061C59.9587 173.636 59.8911 173.24 59.7559 172.873C59.6206 172.506 59.4123 172.209 59.1308 171.983C58.8493 171.757 58.4906 171.644 58.0546 171.644C57.6185 171.644 57.2598 171.757 56.9783 171.983C56.6968 172.209 56.4885 172.506 56.3533 172.873C56.218 173.24 56.1504 173.636 56.1504 174.061C56.1504 174.486 56.218 174.881 56.3533 175.245C56.4885 175.609 56.6968 175.903 56.9783 176.127C57.2598 176.35 57.6185 176.462 58.0546 176.462ZM66.4337 174.607V170.849H67.4106V177.207H66.4337V176.131H66.3675C66.2185 176.454 65.9867 176.728 65.6721 176.955C65.3575 177.178 64.9601 177.29 64.4799 177.29C64.0826 177.29 63.7293 177.203 63.4203 177.029C63.1112 176.852 62.8683 176.588 62.6917 176.234C62.5151 175.878 62.4268 175.43 62.4268 174.889V170.849H63.4037V174.823C63.4037 175.286 63.5334 175.656 63.7928 175.932C64.055 176.208 64.3889 176.346 64.7945 176.346C65.0374 176.346 65.2844 176.284 65.5355 176.16C65.7894 176.036 66.0019 175.845 66.173 175.589C66.3468 175.332 66.4337 175.005 66.4337 174.607ZM70.1768 168.73V177.207H69.1999V168.73H70.1768ZM74.3669 177.339C73.8371 177.339 73.3693 177.206 72.9637 176.938C72.558 176.668 72.2406 176.287 72.0116 175.795C71.7825 175.302 71.668 174.718 71.668 174.045C71.668 173.377 71.7825 172.797 72.0116 172.306C72.2406 171.815 72.5594 171.435 72.9678 171.168C73.3762 170.9 73.8481 170.766 74.3835 170.766C74.7974 170.766 75.1244 170.835 75.3645 170.973C75.6074 171.108 75.7922 171.263 75.9192 171.437C76.0489 171.608 76.1496 171.749 76.2214 171.859H76.3042V168.73H77.2811V177.207H76.3373V176.23H76.2214C76.1496 176.346 76.0475 176.492 75.915 176.669C75.7826 176.843 75.5936 176.999 75.348 177.137C75.1023 177.272 74.7753 177.339 74.3669 177.339ZM74.4994 176.462C74.8912 176.462 75.2224 176.36 75.4928 176.156C75.7633 175.949 75.9689 175.663 76.1096 175.299C76.2503 174.932 76.3207 174.508 76.3207 174.028C76.3207 173.553 76.2517 173.138 76.1137 172.782C75.9758 172.423 75.7715 172.145 75.5011 171.946C75.2307 171.744 74.8968 171.644 74.4994 171.644C74.0854 171.644 73.7405 171.75 73.4645 171.962C73.1913 172.172 72.9857 172.458 72.8478 172.819C72.7125 173.178 72.6449 173.581 72.6449 174.028C72.6449 174.481 72.7139 174.892 72.8519 175.262C72.9926 175.629 73.1996 175.921 73.4728 176.139C73.7488 176.354 74.091 176.462 74.4994 176.462ZM114.755 170.849V171.677H111.46V170.849H114.755ZM112.42 169.326H113.397V175.386C113.397 175.662 113.437 175.869 113.517 176.007C113.6 176.142 113.705 176.233 113.832 176.28C113.962 176.324 114.098 176.346 114.242 176.346C114.349 176.346 114.438 176.341 114.507 176.329C114.576 176.316 114.631 176.305 114.672 176.296L114.871 177.174C114.805 177.199 114.712 177.224 114.594 177.248C114.475 177.276 114.325 177.29 114.142 177.29C113.866 177.29 113.596 177.23 113.331 177.112C113.069 176.993 112.851 176.812 112.677 176.57C112.506 176.327 112.42 176.02 112.42 175.651V169.326ZM117.338 173.382V177.207H116.361V168.73H117.338V171.842H117.421C117.57 171.514 117.793 171.253 118.091 171.06C118.392 170.864 118.792 170.766 119.292 170.766C119.725 170.766 120.105 170.853 120.43 171.027C120.756 171.198 121.008 171.462 121.188 171.818C121.37 172.171 121.461 172.621 121.461 173.167V177.207H120.484V173.233C120.484 172.728 120.353 172.338 120.091 172.062C119.831 171.783 119.471 171.644 119.01 171.644C118.69 171.644 118.403 171.711 118.149 171.847C117.898 171.982 117.7 172.179 117.553 172.438C117.41 172.698 117.338 173.012 117.338 173.382ZM123.248 177.207V170.849H124.225V177.207H123.248ZM123.745 169.789C123.554 169.789 123.39 169.724 123.252 169.595C123.117 169.465 123.049 169.309 123.049 169.127C123.049 168.945 123.117 168.789 123.252 168.659C123.39 168.529 123.554 168.465 123.745 168.465C123.935 168.465 124.098 168.529 124.233 168.659C124.371 168.789 124.44 168.945 124.44 169.127C124.44 169.309 124.371 169.465 124.233 169.595C124.098 169.724 123.935 169.789 123.745 169.789ZM126.991 173.382V177.207H126.014V170.849H126.958V171.842H127.041C127.19 171.519 127.416 171.26 127.72 171.064C128.023 170.865 128.415 170.766 128.895 170.766C129.326 170.766 129.702 170.854 130.025 171.031C130.348 171.205 130.599 171.47 130.779 171.826C130.958 172.179 131.048 172.626 131.048 173.167V177.207H130.071V173.233C130.071 172.734 129.941 172.345 129.682 172.066C129.422 171.784 129.066 171.644 128.614 171.644C128.302 171.644 128.023 171.711 127.778 171.847C127.535 171.982 127.343 172.179 127.202 172.438C127.061 172.698 126.991 173.012 126.991 173.382ZM133.744 174.889L133.727 173.68H133.926L136.707 170.849H137.916L134.952 173.846H134.869L133.744 174.889ZM132.833 177.207V168.73H133.81V177.207H132.833ZM136.873 177.207L134.389 174.061L135.085 173.382L138.115 177.207H136.873ZM145.035 177.339C144.461 177.339 143.957 177.203 143.524 176.93C143.093 176.656 142.757 176.274 142.514 175.783C142.274 175.292 142.154 174.718 142.154 174.061C142.154 173.399 142.274 172.821 142.514 172.327C142.757 171.833 143.093 171.449 143.524 171.176C143.957 170.903 144.461 170.766 145.035 170.766C145.609 170.766 146.111 170.903 146.542 171.176C146.975 171.449 147.311 171.833 147.552 172.327C147.794 172.821 147.916 173.399 147.916 174.061C147.916 174.718 147.794 175.292 147.552 175.783C147.311 176.274 146.975 176.656 146.542 176.93C146.111 177.203 145.609 177.339 145.035 177.339ZM145.035 176.462C145.471 176.462 145.83 176.35 146.111 176.127C146.392 175.903 146.601 175.609 146.736 175.245C146.871 174.881 146.939 174.486 146.939 174.061C146.939 173.636 146.871 173.24 146.736 172.873C146.601 172.506 146.392 172.209 146.111 171.983C145.83 171.757 145.471 171.644 145.035 171.644C144.599 171.644 144.24 171.757 143.959 171.983C143.677 172.209 143.469 172.506 143.333 172.873C143.198 173.24 143.131 173.636 143.131 174.061C143.131 174.486 143.198 174.881 143.333 175.245C143.469 175.609 143.677 175.903 143.959 176.127C144.24 176.35 144.599 176.462 145.035 176.462ZM152.238 170.849V171.677H148.811V170.849H152.238ZM149.838 177.207V169.971C149.838 169.607 149.923 169.304 150.094 169.061C150.265 168.818 150.487 168.636 150.761 168.514C151.034 168.393 151.322 168.332 151.626 168.332C151.866 168.332 152.062 168.351 152.214 168.39C152.365 168.429 152.478 168.465 152.553 168.498L152.271 169.342C152.222 169.326 152.153 169.305 152.065 169.28C151.979 169.255 151.866 169.243 151.725 169.243C151.402 169.243 151.169 169.324 151.026 169.487C150.885 169.65 150.814 169.889 150.814 170.203V177.207H149.838Z" fill="black"/>
<rect x="84.0098" y="163.869" width="21.7589" height="17.8734" rx="6.21683" fill="white"/>
<rect x="158.61" y="163.869" width="36.5239" height="17.8734" rx="6.21683" fill="white"/>
<rect x="2.40918" y="194.273" width="197.384" height="28.7528" fill="#CECECE"/>
<path d="M14.3166 213.049V204.571H15.3432V208.346H19.8634V204.571H20.89V213.049H19.8634V209.257H15.3432V213.049H14.3166ZM25.3957 213.181C24.8217 213.181 24.3181 213.045 23.8848 212.771C23.4543 212.498 23.1177 212.116 22.8748 211.625C22.6347 211.134 22.5147 210.56 22.5147 209.903C22.5147 209.241 22.6347 208.662 22.8748 208.168C23.1177 207.675 23.4543 207.291 23.8848 207.018C24.3181 206.745 24.8217 206.608 25.3957 206.608C25.9697 206.608 26.472 206.745 26.9025 207.018C27.3357 207.291 27.6724 207.675 27.9125 208.168C28.1553 208.662 28.2767 209.241 28.2767 209.903C28.2767 210.56 28.1553 211.134 27.9125 211.625C27.6724 212.116 27.3357 212.498 26.9025 212.771C26.472 213.045 25.9697 213.181 25.3957 213.181ZM25.3957 212.304C25.8317 212.304 26.1905 212.192 26.472 211.968C26.7534 211.745 26.9618 211.451 27.097 211.087C27.2322 210.722 27.2998 210.328 27.2998 209.903C27.2998 209.478 27.2322 209.082 27.097 208.715C26.9618 208.348 26.7534 208.051 26.472 207.825C26.1905 207.599 25.8317 207.485 25.3957 207.485C24.9597 207.485 24.601 207.599 24.3195 207.825C24.038 208.051 23.8296 208.348 23.6944 208.715C23.5592 209.082 23.4916 209.478 23.4916 209.903C23.4916 210.328 23.5592 210.722 23.6944 211.087C23.8296 211.451 24.038 211.745 24.3195 211.968C24.601 212.192 24.9597 212.304 25.3957 212.304ZM30.9922 213.049L29.055 206.691H30.0815L31.4558 211.559H31.522L32.8798 206.691H33.9229L35.2641 211.542H35.3303L36.7046 206.691H37.7311L35.7939 213.049H34.8336L33.4427 208.164H33.3434L31.9525 213.049H30.9922ZM44.7019 213.181C44.172 213.181 43.7043 213.047 43.2986 212.78C42.893 212.509 42.5756 212.129 42.3466 211.637C42.1175 211.143 42.003 210.56 42.003 209.886C42.003 209.219 42.1175 208.639 42.3466 208.148C42.5756 207.657 42.8944 207.277 43.3028 207.009C43.7112 206.742 44.1831 206.608 44.7184 206.608C45.1324 206.608 45.4594 206.677 45.6995 206.815C45.9423 206.95 46.1272 207.105 46.2542 207.279C46.3839 207.45 46.4846 207.59 46.5563 207.701H46.6391V204.571H47.616V213.049H46.6722V212.072H46.5563C46.4846 212.188 46.3825 212.334 46.25 212.511C46.1176 212.685 45.9285 212.84 45.6829 212.978C45.4373 213.114 45.1103 213.181 44.7019 213.181ZM44.8343 212.304C45.2262 212.304 45.5574 212.202 45.8278 211.997C46.0982 211.79 46.3038 211.505 46.4446 211.141C46.5853 210.774 46.6557 210.35 46.6557 209.87C46.6557 209.395 46.5867 208.98 46.4487 208.624C46.3107 208.265 46.1065 207.986 45.8361 207.788C45.5656 207.586 45.2317 207.485 44.8343 207.485C44.4204 207.485 44.0755 207.592 43.7995 207.804C43.5263 208.014 43.3207 208.3 43.1827 208.661C43.0475 209.02 42.9799 209.423 42.9799 209.87C42.9799 210.322 43.0489 210.734 43.1869 211.103C43.3276 211.47 43.5346 211.763 43.8078 211.981C44.0837 212.196 44.4259 212.304 44.8343 212.304ZM52.1238 213.181C51.5498 213.181 51.0462 213.045 50.613 212.771C50.1825 212.498 49.8458 212.116 49.6029 211.625C49.3629 211.134 49.2428 210.56 49.2428 209.903C49.2428 209.241 49.3629 208.662 49.6029 208.168C49.8458 207.675 50.1825 207.291 50.613 207.018C51.0462 206.745 51.5498 206.608 52.1238 206.608C52.6978 206.608 53.2001 206.745 53.6306 207.018C54.0638 207.291 54.4005 207.675 54.6406 208.168C54.8834 208.662 55.0049 209.241 55.0049 209.903C55.0049 210.56 54.8834 211.134 54.6406 211.625C54.4005 212.116 54.0638 212.498 53.6306 212.771C53.2001 213.045 52.6978 213.181 52.1238 213.181ZM52.1238 212.304C52.5599 212.304 52.9186 212.192 53.2001 211.968C53.4816 211.745 53.6899 211.451 53.8251 211.087C53.9604 210.722 54.028 210.328 54.028 209.903C54.028 209.478 53.9604 209.082 53.8251 208.715C53.6899 208.348 53.4816 208.051 53.2001 207.825C52.9186 207.599 52.5599 207.485 52.1238 207.485C51.6878 207.485 51.3291 207.599 51.0476 207.825C50.7661 208.051 50.5578 208.348 50.4225 208.715C50.2873 209.082 50.2197 209.478 50.2197 209.903C50.2197 210.328 50.2873 210.722 50.4225 211.087C50.5578 211.451 50.7661 211.745 51.0476 211.968C51.3291 212.192 51.6878 212.304 52.1238 212.304ZM59.1619 213.181C58.5492 213.181 58.0208 213.046 57.5765 212.776C57.1349 212.502 56.7941 212.122 56.554 211.633C56.3167 211.142 56.198 210.571 56.198 209.919C56.198 209.268 56.3167 208.694 56.554 208.197C56.7941 207.698 57.128 207.309 57.5558 207.03C57.9863 206.749 58.4885 206.608 59.0625 206.608C59.3937 206.608 59.7207 206.663 60.0435 206.773C60.3664 206.884 60.6603 207.063 60.9252 207.312C61.1902 207.557 61.4013 207.883 61.5586 208.289C61.7159 208.694 61.7945 209.194 61.7945 209.787V210.201H56.8935V209.356H60.8011C60.8011 208.998 60.7293 208.678 60.5858 208.396C60.4451 208.115 60.2436 207.893 59.9815 207.73C59.7221 207.567 59.4157 207.485 59.0625 207.485C58.6734 207.485 58.3367 207.582 58.0525 207.775C57.771 207.966 57.5544 208.214 57.4026 208.52C57.2508 208.827 57.1749 209.155 57.1749 209.506V210.068C57.1749 210.549 57.2577 210.956 57.4233 211.29C57.5916 211.621 57.8248 211.873 58.1229 212.047C58.4209 212.218 58.7672 212.304 59.1619 212.304C59.4185 212.304 59.6503 212.268 59.8573 212.196C60.067 212.122 60.2478 212.011 60.3995 211.865C60.5513 211.716 60.6686 211.531 60.7514 211.31L61.6952 211.575C61.5958 211.895 61.4289 212.177 61.1943 212.42C60.9597 212.66 60.67 212.847 60.325 212.983C59.9801 213.115 59.5924 213.181 59.1619 213.181ZM67.7842 208.115L66.9067 208.363C66.8515 208.217 66.7701 208.075 66.6625 207.937C66.5576 207.796 66.4141 207.68 66.232 207.589C66.0498 207.498 65.8166 207.452 65.5324 207.452C65.1433 207.452 64.819 207.542 64.5596 207.721C64.303 207.898 64.1747 208.123 64.1747 208.396C64.1747 208.639 64.263 208.831 64.4396 208.972C64.6162 209.112 64.8922 209.23 65.2675 209.323L66.2113 209.555C66.7797 209.693 67.2033 209.904 67.4821 210.189C67.7608 210.47 67.9001 210.833 67.9001 211.277C67.9001 211.641 67.7953 211.967 67.5855 212.254C67.3786 212.541 67.0888 212.767 66.7163 212.933C66.3437 213.099 65.9105 213.181 65.4165 213.181C64.768 213.181 64.2312 213.041 63.8063 212.759C63.3813 212.478 63.1122 212.066 62.9991 211.526L63.9263 211.294C64.0146 211.636 64.1816 211.893 64.4272 212.064C64.6755 212.235 64.9998 212.32 65.3999 212.32C65.8553 212.32 66.2168 212.224 66.4845 212.031C66.7549 211.835 66.8901 211.6 66.8901 211.327C66.8901 211.106 66.8128 210.921 66.6583 210.772C66.5038 210.62 66.2664 210.507 65.9463 210.433L64.8866 210.184C64.3044 210.046 63.8766 209.833 63.6034 209.543C63.333 209.25 63.1978 208.885 63.1978 208.446C63.1978 208.087 63.2985 207.77 63.4999 207.494C63.7042 207.218 63.9815 207.001 64.332 206.844C64.6852 206.687 65.0853 206.608 65.5324 206.608C66.1616 206.608 66.6556 206.746 67.0143 207.022C67.3758 207.298 67.6324 207.662 67.7842 208.115ZM117.139 213.198C116.736 213.198 116.371 213.122 116.042 212.97C115.714 212.816 115.453 212.593 115.26 212.304C115.067 212.011 114.97 211.658 114.97 211.244C114.97 210.88 115.042 210.585 115.186 210.358C115.329 210.129 115.521 209.95 115.761 209.82C116.001 209.69 116.266 209.594 116.556 209.53C116.848 209.464 117.142 209.412 117.437 209.373C117.824 209.323 118.137 209.286 118.377 209.261C118.62 209.234 118.796 209.188 118.907 209.125C119.02 209.061 119.077 208.951 119.077 208.794V208.76C119.077 208.352 118.965 208.035 118.741 207.808C118.521 207.582 118.185 207.469 117.735 207.469C117.269 207.469 116.903 207.571 116.638 207.775C116.374 207.979 116.187 208.197 116.08 208.429L115.152 208.098C115.318 207.712 115.539 207.411 115.815 207.196C116.093 206.978 116.397 206.826 116.725 206.74C117.057 206.652 117.382 206.608 117.702 206.608C117.907 206.608 118.141 206.633 118.406 206.682C118.674 206.729 118.932 206.827 119.18 206.976C119.431 207.125 119.64 207.35 119.805 207.651C119.971 207.952 120.053 208.355 120.053 208.86V213.049H119.077V212.188H119.027C118.961 212.326 118.85 212.473 118.696 212.631C118.541 212.788 118.336 212.922 118.079 213.032C117.822 213.143 117.509 213.198 117.139 213.198ZM117.288 212.32C117.675 212.32 118 212.244 118.265 212.093C118.533 211.941 118.734 211.745 118.87 211.505C119.008 211.265 119.077 211.012 119.077 210.747V209.853C119.035 209.903 118.944 209.948 118.803 209.99C118.665 210.028 118.505 210.063 118.323 210.093C118.144 210.121 117.969 210.146 117.798 210.168C117.629 210.187 117.493 210.204 117.388 210.217C117.134 210.251 116.897 210.304 116.676 210.379C116.458 210.451 116.281 210.56 116.146 210.706C116.013 210.849 115.947 211.045 115.947 211.294C115.947 211.633 116.073 211.89 116.324 212.064C116.578 212.235 116.899 212.32 117.288 212.32ZM124.668 206.691V207.519H121.24V206.691H124.668ZM122.267 213.049V205.813C122.267 205.449 122.353 205.145 122.524 204.902C122.695 204.66 122.917 204.478 123.19 204.356C123.463 204.235 123.752 204.174 124.055 204.174C124.295 204.174 124.491 204.193 124.643 204.232C124.795 204.271 124.908 204.306 124.982 204.34L124.701 205.184C124.651 205.167 124.582 205.147 124.494 205.122C124.408 205.097 124.295 205.085 124.155 205.085C123.832 205.085 123.599 205.166 123.455 205.329C123.314 205.492 123.244 205.73 123.244 206.045V213.049H122.267ZM128.868 206.691V207.519H125.441V206.691H128.868ZM126.467 213.049V205.813C126.467 205.449 126.553 205.145 126.724 204.902C126.895 204.66 127.117 204.478 127.391 204.356C127.664 204.235 127.952 204.174 128.256 204.174C128.496 204.174 128.692 204.193 128.844 204.232C128.995 204.271 129.108 204.306 129.183 204.34L128.901 205.184C128.852 205.167 128.783 205.147 128.694 205.122C128.609 205.097 128.496 205.085 128.355 205.085C128.032 205.085 127.799 205.166 127.656 205.329C127.515 205.492 127.444 205.73 127.444 206.045V213.049H126.467ZM132.641 213.181C132.029 213.181 131.5 213.046 131.056 212.776C130.614 212.502 130.274 212.122 130.034 211.633C129.796 211.142 129.678 210.571 129.678 209.919C129.678 209.268 129.796 208.694 130.034 208.197C130.274 207.698 130.608 207.309 131.035 207.03C131.466 206.749 131.968 206.608 132.542 206.608C132.873 206.608 133.2 206.663 133.523 206.773C133.846 206.884 134.14 207.063 134.405 207.312C134.67 207.557 134.881 207.883 135.038 208.289C135.195 208.694 135.274 209.194 135.274 209.787V210.201H130.373V209.356H134.281C134.281 208.998 134.209 208.678 134.065 208.396C133.925 208.115 133.723 207.893 133.461 207.73C133.202 207.567 132.895 207.485 132.542 207.485C132.153 207.485 131.816 207.582 131.532 207.775C131.251 207.966 131.034 208.214 130.882 208.52C130.73 208.827 130.654 209.155 130.654 209.506V210.068C130.654 210.549 130.737 210.956 130.903 211.29C131.071 211.621 131.304 211.873 131.602 212.047C131.9 212.218 132.247 212.304 132.641 212.304C132.898 212.304 133.13 212.268 133.337 212.196C133.547 212.122 133.727 212.011 133.879 211.865C134.031 211.716 134.148 211.531 134.231 211.31L135.175 211.575C135.075 211.895 134.908 212.177 134.674 212.42C134.439 212.66 134.15 212.847 133.805 212.983C133.46 213.115 133.072 213.181 132.641 213.181ZM139.343 213.181C138.747 213.181 138.234 213.041 137.803 212.759C137.373 212.478 137.042 212.09 136.81 211.596C136.578 211.102 136.462 210.538 136.462 209.903C136.462 209.257 136.581 208.687 136.818 208.193C137.058 207.697 137.392 207.309 137.82 207.03C138.25 206.749 138.753 206.608 139.327 206.608C139.774 206.608 140.177 206.691 140.535 206.856C140.894 207.022 141.188 207.254 141.417 207.552C141.646 207.85 141.788 208.197 141.843 208.595H140.866C140.792 208.305 140.626 208.048 140.37 207.825C140.116 207.599 139.774 207.485 139.343 207.485C138.962 207.485 138.628 207.585 138.341 207.784C138.057 207.979 137.835 208.257 137.675 208.616C137.518 208.972 137.439 209.39 137.439 209.87C137.439 210.361 137.516 210.789 137.671 211.153C137.828 211.517 138.049 211.8 138.333 212.002C138.62 212.203 138.957 212.304 139.343 212.304C139.597 212.304 139.827 212.26 140.034 212.171C140.241 212.083 140.417 211.956 140.56 211.79C140.704 211.625 140.806 211.426 140.866 211.194H141.843C141.788 211.57 141.652 211.908 141.434 212.209C141.218 212.507 140.933 212.744 140.577 212.921C140.223 213.094 139.812 213.181 139.343 213.181ZM146.037 206.691V207.519H142.742V206.691H146.037ZM143.702 205.167H144.679V211.227C144.679 211.503 144.719 211.71 144.799 211.848C144.882 211.984 144.986 212.075 145.113 212.122C145.243 212.166 145.38 212.188 145.523 212.188C145.631 212.188 145.719 212.182 145.788 212.171C145.857 212.157 145.912 212.146 145.954 212.138L146.152 213.016C146.086 213.041 145.994 213.065 145.875 213.09C145.756 213.118 145.606 213.132 145.424 213.132C145.148 213.132 144.877 213.072 144.613 212.954C144.35 212.835 144.132 212.654 143.959 212.411C143.787 212.169 143.702 211.862 143.702 211.492V205.167Z" fill="black"/>
<rect x="73.9023" y="199.713" width="36.5239" height="17.8734" rx="6.21683" fill="white"/>
<rect x="150.837" y="199.713" width="36.5239" height="17.8734" rx="6.21683" fill="white"/>
<rect x="2.40918" y="230.113" width="88.5905" height="28.349" fill="#CECECE"/>
<path d="M14.2725 248.605L11.9544 240.128H12.9975L14.7692 247.032H14.852L16.6568 240.128H17.8158L19.6206 247.032H19.7034L21.475 240.128H22.5182L20.2001 248.605H19.1404L17.2694 241.85H17.2032L15.3322 248.605H14.2725ZM24.6417 244.781V248.605H23.6648V240.128H24.6417V243.241H24.7245C24.8735 242.912 25.097 242.652 25.3951 242.458C25.6959 242.263 26.096 242.165 26.5955 242.165C27.0287 242.165 27.4082 242.251 27.7338 242.425C28.0595 242.596 28.312 242.86 28.4913 243.216C28.6735 243.569 28.7645 244.019 28.7645 244.565V248.605H27.7876V244.632C27.7876 244.127 27.6565 243.736 27.3944 243.46C27.135 243.181 26.7749 243.042 26.314 243.042C25.9939 243.042 25.7069 243.11 25.453 243.245C25.2019 243.38 25.0032 243.577 24.8569 243.837C24.7134 244.096 24.6417 244.411 24.6417 244.781ZM30.9532 250.99C30.7877 250.99 30.64 250.976 30.5103 250.948C30.3806 250.924 30.2909 250.899 30.2413 250.874L30.4896 250.013C30.727 250.074 30.9367 250.096 31.1188 250.079C31.3009 250.063 31.4624 249.981 31.6031 249.835C31.7466 249.691 31.8777 249.458 31.9964 249.135L32.1785 248.639L29.8273 242.247H30.887L32.6421 247.314H32.7083L34.4635 242.247H35.5231L32.8242 249.533C32.7028 249.861 32.5524 250.133 32.3731 250.348C32.1937 250.566 31.9853 250.728 31.748 250.832C31.5134 250.937 31.2485 250.99 30.9532 250.99Z" fill="black"/>
<rect x="42.0137" y="236.047" width="36.5239" height="17.0963" rx="6.21683" fill="white"/>
<rect x="2.40918" y="265.551" width="133.662" height="28.7528" fill="#CECECE"/>
<path d="M15.3432 275.851V284.328H14.3166V275.851H15.3432ZM18.2459 280.503V284.328H17.269V277.97H18.2128V278.963H18.2956C18.4446 278.641 18.6709 278.381 18.9745 278.185C19.278 277.987 19.6699 277.887 20.1501 277.887C20.5806 277.887 20.9572 277.976 21.2801 278.152C21.603 278.326 21.8541 278.591 22.0335 278.947C22.2129 279.3 22.3026 279.747 22.3026 280.288V284.328H21.3257V280.354C21.3257 279.855 21.196 279.466 20.9365 279.187C20.6771 278.906 20.3212 278.765 19.8686 278.765C19.5567 278.765 19.278 278.832 19.0324 278.968C18.7896 279.103 18.5978 279.3 18.457 279.56C18.3163 279.819 18.2459 280.134 18.2459 280.503ZM30.1312 277.97V278.798H26.8362V277.97H30.1312ZM27.7966 276.447H28.7735V282.507C28.7735 282.783 28.8135 282.99 28.8935 283.128C28.9763 283.263 29.0812 283.354 29.2081 283.401C29.3378 283.445 29.4744 283.467 29.6179 283.467C29.7255 283.467 29.8138 283.462 29.8828 283.451C29.9518 283.437 30.007 283.426 30.0484 283.417L30.2471 284.295C30.1809 284.32 30.0884 284.345 29.9698 284.37C29.8511 284.397 29.7007 284.411 29.5186 284.411C29.2426 284.411 28.9722 284.352 28.7072 284.233C28.4451 284.114 28.2271 283.934 28.0532 283.691C27.8821 283.448 27.7966 283.141 27.7966 282.772V276.447ZM32.7142 280.503V284.328H31.7373V275.851H32.7142V278.963H32.797C32.946 278.635 33.1695 278.374 33.4676 278.181C33.7683 277.985 34.1685 277.887 34.668 277.887C35.1012 277.887 35.4807 277.974 35.8063 278.148C36.1319 278.319 36.3845 278.583 36.5638 278.939C36.746 279.292 36.837 279.742 36.837 280.288V284.328H35.8601V280.354C35.8601 279.849 35.729 279.459 35.4669 279.183C35.2075 278.904 34.8474 278.765 34.3865 278.765C34.0664 278.765 33.7794 278.832 33.5255 278.968C33.2744 279.103 33.0757 279.3 32.9294 279.56C32.7859 279.819 32.7142 280.134 32.7142 280.503ZM41.29 284.461C40.6774 284.461 40.1489 284.325 39.7046 284.055C39.2631 283.782 38.9222 283.401 38.6822 282.912C38.4448 282.421 38.3262 281.85 38.3262 281.199C38.3262 280.547 38.4448 279.973 38.6822 279.477C38.9222 278.977 39.2562 278.588 39.6839 278.309C40.1144 278.028 40.6166 277.887 41.1906 277.887C41.5218 277.887 41.8488 277.942 42.1717 278.053C42.4946 278.163 42.7884 278.343 43.0534 278.591C43.3183 278.837 43.5294 279.162 43.6867 279.568C43.844 279.973 43.9226 280.473 43.9226 281.066V281.48H39.0216V280.636H42.9292C42.9292 280.277 42.8574 279.957 42.7139 279.675C42.5732 279.394 42.3717 279.172 42.1096 279.009C41.8502 278.846 41.5439 278.765 41.1906 278.765C40.8015 278.765 40.4649 278.861 40.1806 279.055C39.8991 279.245 39.6825 279.493 39.5307 279.8C39.379 280.106 39.3031 280.434 39.3031 280.785V281.348C39.3031 281.828 39.3859 282.235 39.5514 282.569C39.7198 282.9 39.953 283.153 40.251 283.326C40.549 283.497 40.8954 283.583 41.29 283.583C41.5466 283.583 41.7784 283.547 41.9854 283.475C42.1951 283.401 42.3759 283.291 42.5277 283.144C42.6794 282.995 42.7967 282.81 42.8795 282.59L43.8233 282.854C43.724 283.175 43.557 283.456 43.3224 283.699C43.0879 283.939 42.7981 284.127 42.4532 284.262C42.1082 284.394 41.7205 284.461 41.29 284.461ZM49.3163 286.712C49.1507 286.712 49.0031 286.699 48.8734 286.671C48.7437 286.646 48.654 286.621 48.6043 286.597L48.8527 285.736C49.09 285.796 49.2997 285.818 49.4819 285.802C49.664 285.785 49.8254 285.704 49.9662 285.558C50.1097 285.414 50.2408 285.181 50.3594 284.858L50.5416 284.361L48.1904 277.97H49.2501L51.0052 283.037H51.0714L52.8265 277.97H53.8862L51.1873 285.255C51.0659 285.584 50.9155 285.856 50.7361 286.071C50.5567 286.289 50.3484 286.45 50.1111 286.555C49.8765 286.66 49.6116 286.712 49.3163 286.712ZM57.6137 284.461C57.0011 284.461 56.4726 284.325 56.0283 284.055C55.5868 283.782 55.246 283.401 55.0059 282.912C54.7686 282.421 54.6499 281.85 54.6499 281.199C54.6499 280.547 54.7686 279.973 55.0059 279.477C55.246 278.977 55.5799 278.588 56.0076 278.309C56.4381 278.028 56.9404 277.887 57.5144 277.887C57.8455 277.887 58.1725 277.942 58.4954 278.053C58.8183 278.163 59.1122 278.343 59.3771 278.591C59.642 278.837 59.8531 279.162 60.0104 279.568C60.1677 279.973 60.2464 280.473 60.2464 281.066V281.48H55.3453V280.636H59.2529C59.2529 280.277 59.1812 279.957 59.0377 279.675C58.8969 279.394 58.6955 279.172 58.4333 279.009C58.1739 278.846 57.8676 278.765 57.5144 278.765C57.1253 278.765 56.7886 278.861 56.5044 279.055C56.2229 279.245 56.0063 279.493 55.8545 279.8C55.7027 280.106 55.6268 280.434 55.6268 280.785V281.348C55.6268 281.828 55.7096 282.235 55.8752 282.569C56.0435 282.9 56.2767 283.153 56.5747 283.326C56.8728 283.497 57.2191 283.583 57.6137 283.583C57.8704 283.583 58.1022 283.547 58.3091 283.475C58.5189 283.401 58.6996 283.291 58.8514 283.144C59.0032 282.995 59.1205 282.81 59.2032 282.59L60.147 282.854C60.0477 283.175 59.8807 283.456 59.6462 283.699C59.4116 283.939 59.1218 284.127 58.7769 284.262C58.4319 284.394 58.0442 284.461 57.6137 284.461ZM63.6034 284.477C63.2005 284.477 62.8349 284.401 62.5065 284.249C62.1781 284.095 61.9173 283.873 61.7241 283.583C61.531 283.291 61.4344 282.937 61.4344 282.523C61.4344 282.159 61.5061 281.864 61.6496 281.638C61.7931 281.408 61.9849 281.229 62.225 281.099C62.4651 280.97 62.73 280.873 63.0198 280.81C63.3123 280.743 63.6062 280.691 63.9015 280.652C64.2878 280.603 64.601 280.565 64.8411 280.541C65.084 280.513 65.2606 280.467 65.371 280.404C65.4841 280.341 65.5407 280.23 65.5407 280.073V280.04C65.5407 279.631 65.4289 279.314 65.2054 279.088C64.9846 278.861 64.6493 278.748 64.1995 278.748C63.7331 278.748 63.3675 278.85 63.1026 279.055C62.8376 279.259 62.6514 279.477 62.5437 279.709L61.6165 279.377C61.7821 278.991 62.0029 278.69 62.2788 278.475C62.5575 278.257 62.8611 278.105 63.1895 278.02C63.5206 277.931 63.8463 277.887 64.1664 277.887C64.3706 277.887 64.6052 277.912 64.8701 277.962C65.1378 278.009 65.3958 278.107 65.6442 278.256C65.8953 278.405 66.1036 278.63 66.2692 278.93C66.4348 279.231 66.5176 279.634 66.5176 280.139V284.328H65.5407V283.467H65.491C65.4248 283.605 65.3144 283.753 65.1598 283.91C65.0053 284.067 64.7997 284.201 64.5431 284.312C64.2864 284.422 63.9732 284.477 63.6034 284.477ZM63.7524 283.6C64.1388 283.6 64.4644 283.524 64.7293 283.372C64.997 283.22 65.1985 283.024 65.3337 282.784C65.4717 282.544 65.5407 282.292 65.5407 282.027V281.133C65.4993 281.182 65.4082 281.228 65.2675 281.269C65.1295 281.308 64.9694 281.342 64.7873 281.373C64.6079 281.4 64.4327 281.425 64.2616 281.447C64.0933 281.466 63.9567 281.483 63.8518 281.497C63.5979 281.53 63.3606 281.584 63.1398 281.658C62.9218 281.73 62.7452 281.839 62.61 281.985C62.4775 282.129 62.4113 282.325 62.4113 282.573C62.4113 282.912 62.5368 283.169 62.788 283.343C63.0419 283.514 63.3633 283.6 63.7524 283.6ZM68.3006 284.328V277.97H69.2444V278.93H69.3106C69.4265 278.616 69.6363 278.36 69.9398 278.165C70.2434 277.969 70.5856 277.871 70.9664 277.871C71.0381 277.871 71.1278 277.872 71.2355 277.875C71.3431 277.878 71.4245 277.882 71.4797 277.887V278.881C71.4466 278.872 71.3707 278.86 71.252 278.843C71.1361 278.824 71.0133 278.814 70.8836 278.814C70.5745 278.814 70.2986 278.879 70.0557 279.009C69.8156 279.136 69.6252 279.313 69.4845 279.539C69.3465 279.762 69.2775 280.018 69.2775 280.305V284.328H68.3006Z" fill="black"/>
<rect x="79.3428" y="271" width="44.2949" height="17.8734" rx="6.21683" fill="white"/>
<rect x="2.40918" y="301.391" width="74.602" height="28.7528" fill="#CECECE"/>
<path d="M15.3432 310.913V319.391H14.3166V310.913H15.3432ZM18.2459 315.566V319.391H17.269V313.033H18.2128V314.026H18.2956C18.4446 313.703 18.6709 313.444 18.9745 313.248C19.278 313.049 19.6699 312.95 20.1501 312.95C20.5806 312.95 20.9572 313.038 21.2801 313.215C21.603 313.388 21.8541 313.653 22.0335 314.009C22.2129 314.363 22.3026 314.81 22.3026 315.351V319.391H21.3257V315.417C21.3257 314.917 21.196 314.528 20.9365 314.249C20.6771 313.968 20.3212 313.827 19.8686 313.827C19.5567 313.827 19.278 313.895 19.0324 314.03C18.7896 314.165 18.5978 314.363 18.457 314.622C18.3163 314.881 18.2459 315.196 18.2459 315.566Z" fill="black"/>
<rect x="28.8311" y="306.836" width="36.5239" height="17.8734" rx="6.21683" fill="white"/>
<rect x="2.40918" y="337.23" width="163.969" height="28.7528" fill="#CECECE"/>
<path d="M22.2061 346.284H23.2327V351.897C23.2327 352.477 23.0961 352.994 22.8229 353.45C22.5525 353.902 22.1703 354.259 21.6763 354.522C21.1823 354.781 20.6028 354.911 19.9377 354.911C19.2727 354.911 18.6932 354.781 18.1992 354.522C17.7052 354.259 17.3216 353.902 17.0484 353.45C16.778 352.994 16.6428 352.477 16.6428 351.897V346.284H17.6694V351.814C17.6694 352.228 17.7604 352.597 17.9426 352.92C18.1247 353.24 18.3841 353.492 18.7208 353.677C19.0602 353.859 19.4659 353.95 19.9377 353.95C20.4096 353.95 20.8153 353.859 21.1547 353.677C21.4942 353.492 21.7536 353.24 21.9329 352.92C22.1151 352.597 22.2061 352.228 22.2061 351.814V346.284ZM29.654 349.828L28.7764 350.076C28.7212 349.93 28.6398 349.788 28.5322 349.65C28.4273 349.509 28.2838 349.393 28.1017 349.302C27.9195 349.211 27.6864 349.165 27.4021 349.165C27.013 349.165 26.6888 349.255 26.4294 349.434C26.1727 349.611 26.0444 349.836 26.0444 350.109C26.0444 350.352 26.1327 350.544 26.3093 350.684C26.4859 350.825 26.7619 350.942 27.1372 351.036L28.081 351.268C28.6495 351.406 29.0731 351.617 29.3518 351.901C29.6305 352.183 29.7699 352.546 29.7699 352.99C29.7699 353.354 29.665 353.68 29.4553 353.967C29.2483 354.254 28.9585 354.48 28.586 354.646C28.2134 354.811 27.7802 354.894 27.2862 354.894C26.6377 354.894 26.101 354.753 25.676 354.472C25.251 354.19 24.982 353.779 24.8688 353.238L25.796 353.007C25.8843 353.349 26.0513 353.605 26.2969 353.777C26.5453 353.948 26.8695 354.033 27.2697 354.033C27.725 354.033 28.0865 353.937 28.3542 353.743C28.6246 353.547 28.7598 353.313 28.7598 353.04C28.7598 352.819 28.6826 352.634 28.528 352.485C28.3735 352.333 28.1362 352.22 27.8161 352.146L26.7564 351.897C26.1741 351.759 25.7464 351.545 25.4732 351.256C25.2027 350.963 25.0675 350.597 25.0675 350.159C25.0675 349.8 25.1682 349.483 25.3697 349.207C25.5739 348.931 25.8512 348.714 26.2017 348.557C26.5549 348.399 26.9551 348.321 27.4021 348.321C28.0313 348.321 28.5253 348.459 28.884 348.735C29.2455 349.011 29.5022 349.375 29.654 349.828ZM33.9062 354.894C33.2935 354.894 32.7651 354.759 32.3208 354.489C31.8792 354.215 31.5384 353.834 31.2983 353.346C31.061 352.855 30.9423 352.284 30.9423 351.632C30.9423 350.981 31.061 350.407 31.2983 349.91C31.5384 349.411 31.8723 349.022 32.3001 348.743C32.7306 348.462 33.2328 348.321 33.8068 348.321C34.138 348.321 34.465 348.376 34.7878 348.486C35.1107 348.597 35.4046 348.776 35.6695 349.025C35.9345 349.27 36.1456 349.596 36.3029 350.001C36.4602 350.407 36.5388 350.907 36.5388 351.5V351.914H31.6378V351.069H35.5454C35.5454 350.711 35.4736 350.391 35.3301 350.109C35.1894 349.828 34.9879 349.605 34.7258 349.443C34.4664 349.28 34.16 349.198 33.8068 349.198C33.4177 349.198 33.081 349.295 32.7968 349.488C32.5153 349.679 32.2987 349.927 32.1469 350.233C31.9951 350.54 31.9192 350.868 31.9192 351.218V351.781C31.9192 352.262 32.002 352.669 32.1676 353.002C32.3359 353.334 32.5691 353.586 32.8672 353.76C33.1652 353.931 33.5115 354.017 33.9062 354.017C34.1628 354.017 34.3946 353.981 34.6016 353.909C34.8113 353.834 34.9921 353.724 35.1438 353.578C35.2956 353.429 35.4129 353.244 35.4957 353.023L36.4395 353.288C36.3401 353.608 36.1732 353.89 35.9386 354.133C35.704 354.373 35.4143 354.56 35.0693 354.695C34.7244 354.828 34.3367 354.894 33.9062 354.894ZM45.8069 349.828L44.9294 350.076C44.8742 349.93 44.7928 349.788 44.6852 349.65C44.5803 349.509 44.4368 349.393 44.2547 349.302C44.0725 349.211 43.8393 349.165 43.5551 349.165C43.166 349.165 42.8417 349.255 42.5823 349.434C42.3257 349.611 42.1974 349.836 42.1974 350.109C42.1974 350.352 42.2857 350.544 42.4623 350.684C42.6389 350.825 42.9149 350.942 43.2902 351.036L44.234 351.268C44.8024 351.406 45.226 351.617 45.5048 351.901C45.7835 352.183 45.9228 352.546 45.9228 352.99C45.9228 353.354 45.818 353.68 45.6082 353.967C45.4013 354.254 45.1115 354.48 44.739 354.646C44.3664 354.811 43.9332 354.894 43.4392 354.894C42.7907 354.894 42.254 354.753 41.829 354.472C41.404 354.19 41.1349 353.779 41.0218 353.238L41.949 353.007C42.0373 353.349 42.2043 353.605 42.4499 353.777C42.6982 353.948 43.0225 354.033 43.4226 354.033C43.878 354.033 44.2395 353.937 44.5072 353.743C44.7776 353.547 44.9128 353.313 44.9128 353.04C44.9128 352.819 44.8356 352.634 44.681 352.485C44.5265 352.333 44.2892 352.22 43.969 352.146L42.9094 351.897C42.3271 351.759 41.8993 351.545 41.6261 351.256C41.3557 350.963 41.2205 350.597 41.2205 350.159C41.2205 349.8 41.3212 349.483 41.5227 349.207C41.7269 348.931 42.0042 348.714 42.3547 348.557C42.7079 348.399 43.108 348.321 43.5551 348.321C44.1843 348.321 44.6783 348.459 45.037 348.735C45.3985 349.011 45.6552 349.375 45.8069 349.828ZM49.9763 354.894C49.4024 354.894 48.8987 354.758 48.4655 354.484C48.035 354.211 47.6983 353.829 47.4555 353.338C47.2154 352.847 47.0953 352.273 47.0953 351.616C47.0953 350.953 47.2154 350.375 47.4555 349.881C47.6983 349.387 48.035 349.004 48.4655 348.731C48.8987 348.457 49.4024 348.321 49.9763 348.321C50.5503 348.321 51.0526 348.457 51.4831 348.731C51.9163 349.004 52.253 349.387 52.4931 349.881C52.736 350.375 52.8574 350.953 52.8574 351.616C52.8574 352.273 52.736 352.847 52.4931 353.338C52.253 353.829 51.9163 354.211 51.4831 354.484C51.0526 354.758 50.5503 354.894 49.9763 354.894ZM49.9763 354.017C50.4124 354.017 50.7711 353.905 51.0526 353.681C51.3341 353.458 51.5424 353.164 51.6776 352.8C51.8129 352.435 51.8805 352.041 51.8805 351.616C51.8805 351.191 51.8129 350.795 51.6776 350.428C51.5424 350.061 51.3341 349.764 51.0526 349.538C50.7711 349.312 50.4124 349.198 49.9763 349.198C49.5403 349.198 49.1816 349.312 48.9001 349.538C48.6186 349.764 48.4103 350.061 48.2751 350.428C48.1398 350.795 48.0722 351.191 48.0722 351.616C48.0722 352.041 48.1398 352.435 48.2751 352.8C48.4103 353.164 48.6186 353.458 48.9001 353.681C49.1816 353.905 49.5403 354.017 49.9763 354.017ZM58.3555 352.162V348.404H59.3324V354.762H58.3555V353.685H58.2893C58.1403 354.008 57.9085 354.283 57.5939 354.509C57.2793 354.733 56.8819 354.845 56.4017 354.845C56.0044 354.845 55.6511 354.758 55.3421 354.584C55.033 354.407 54.7901 354.142 54.6135 353.789C54.4369 353.433 54.3486 352.985 54.3486 352.444V348.404H55.3255V352.377C55.3255 352.841 55.4552 353.211 55.7146 353.487C55.9768 353.763 56.3107 353.901 56.7163 353.901C56.9592 353.901 57.2062 353.839 57.4573 353.714C57.7112 353.59 57.9237 353.4 58.0948 353.143C58.2686 352.887 58.3555 352.56 58.3555 352.162ZM61.1217 354.762V348.404H62.0655V349.364H62.1317C62.2476 349.049 62.4573 348.794 62.7609 348.598C63.0644 348.402 63.4066 348.304 63.7875 348.304C63.8592 348.304 63.9489 348.306 64.0565 348.308C64.1641 348.311 64.2456 348.315 64.3007 348.321V349.314C64.2676 349.306 64.1917 349.294 64.0731 349.277C63.9572 349.258 63.8344 349.248 63.7047 349.248C63.3956 349.248 63.1196 349.313 62.8768 349.443C62.6367 349.57 62.4463 349.746 62.3056 349.972C62.1676 350.196 62.0986 350.451 62.0986 350.738V354.762H61.1217ZM67.8482 354.894C67.2521 354.894 66.7389 354.753 66.3084 354.472C65.8779 354.19 65.5467 353.803 65.3149 353.309C65.0831 352.815 64.9672 352.25 64.9672 351.616C64.9672 350.97 65.0859 350.4 65.3232 349.906C65.5633 349.409 65.8972 349.022 66.3249 348.743C66.7554 348.462 67.2577 348.321 67.8317 348.321C68.2787 348.321 68.6816 348.404 69.0404 348.569C69.3991 348.735 69.693 348.967 69.9221 349.265C70.1511 349.563 70.2932 349.91 70.3484 350.308H69.3715C69.297 350.018 69.1314 349.761 68.8748 349.538C68.6209 349.312 68.2787 349.198 67.8482 349.198C67.4674 349.198 67.1335 349.298 66.8465 349.496C66.5622 349.692 66.3401 349.97 66.18 350.328C66.0227 350.684 65.9441 351.102 65.9441 351.583C65.9441 352.074 66.0214 352.502 66.1759 352.866C66.3332 353.23 66.554 353.513 66.8382 353.714C67.1252 353.916 67.4619 354.017 67.8482 354.017C68.1021 354.017 68.3325 353.972 68.5395 353.884C68.7465 353.796 68.9217 353.669 69.0652 353.503C69.2087 353.338 69.3108 353.139 69.3715 352.907H70.3484C70.2932 353.283 70.1566 353.621 69.9386 353.921C69.7234 354.219 69.4377 354.457 69.0818 354.633C68.7285 354.807 68.3173 354.894 67.8482 354.894ZM74.4423 354.894C73.8297 354.894 73.3012 354.759 72.8569 354.489C72.4154 354.215 72.0745 353.834 71.8345 353.346C71.5971 352.855 71.4785 352.284 71.4785 351.632C71.4785 350.981 71.5971 350.407 71.8345 349.91C72.0745 349.411 72.4085 349.022 72.8362 348.743C73.2667 348.462 73.7689 348.321 74.3429 348.321C74.6741 348.321 75.0011 348.376 75.324 348.486C75.6468 348.597 75.9407 348.776 76.2057 349.025C76.4706 349.27 76.6817 349.596 76.839 350.001C76.9963 350.407 77.0749 350.907 77.0749 351.5V351.914H72.1739V351.069H76.0815C76.0815 350.711 76.0097 350.391 75.8662 350.109C75.7255 349.828 75.524 349.605 75.2619 349.443C75.0025 349.28 74.6962 349.198 74.3429 349.198C73.9538 349.198 73.6172 349.295 73.3329 349.488C73.0514 349.679 72.8348 349.927 72.683 350.233C72.5313 350.54 72.4554 350.868 72.4554 351.218V351.781C72.4554 352.262 72.5382 352.669 72.7037 353.002C72.8721 353.334 73.1053 353.586 73.4033 353.76C73.7013 353.931 74.0477 354.017 74.4423 354.017C74.6989 354.017 74.9307 353.981 75.1377 353.909C75.3474 353.834 75.5282 353.724 75.68 353.578C75.8317 353.429 75.949 353.244 76.0318 353.023L76.9756 353.288C76.8763 353.608 76.7093 353.89 76.4747 354.133C76.2402 354.373 75.9504 354.56 75.6055 354.695C75.2605 354.828 74.8728 354.894 74.4423 354.894ZM83.0647 349.828L82.1871 350.076C82.1319 349.93 82.0505 349.788 81.9429 349.65C81.838 349.509 81.6945 349.393 81.5124 349.302C81.3302 349.211 81.0971 349.165 80.8128 349.165C80.4237 349.165 80.0995 349.255 79.8401 349.434C79.5834 349.611 79.4551 349.836 79.4551 350.109C79.4551 350.352 79.5434 350.544 79.72 350.684C79.8966 350.825 80.1726 350.942 80.5479 351.036L81.4917 351.268C82.0602 351.406 82.4838 351.617 82.7625 351.901C83.0412 352.183 83.1806 352.546 83.1806 352.99C83.1806 353.354 83.0757 353.68 82.866 353.967C82.659 354.254 82.3692 354.48 81.9967 354.646C81.6241 354.811 81.1909 354.894 80.6969 354.894C80.0484 354.894 79.5117 354.753 79.0867 354.472C78.6617 354.19 78.3927 353.779 78.2795 353.238L79.2067 353.007C79.295 353.349 79.462 353.605 79.7076 353.777C79.956 353.948 80.2802 354.033 80.6804 354.033C81.1357 354.033 81.4972 353.937 81.7649 353.743C82.0353 353.547 82.1705 353.313 82.1705 353.04C82.1705 352.819 82.0933 352.634 81.9387 352.485C81.7842 352.333 81.5469 352.22 81.2268 352.146L80.1671 351.897C79.5848 351.759 79.1571 351.545 78.8839 351.256C78.6134 350.963 78.4782 350.597 78.4782 350.159C78.4782 349.8 78.5789 349.483 78.7804 349.207C78.9846 348.931 79.2619 348.714 79.6124 348.557C79.9656 348.399 80.3658 348.321 80.8128 348.321C81.442 348.321 81.936 348.459 82.2947 348.735C82.6562 349.011 82.9129 349.375 83.0647 349.828ZM90.7608 348.404V349.231H87.3334V348.404H90.7608ZM88.36 354.762V347.526C88.36 347.162 88.4455 346.858 88.6166 346.615C88.7877 346.373 89.0099 346.19 89.2831 346.069C89.5563 345.948 89.8447 345.887 90.1482 345.887C90.3883 345.887 90.5842 345.906 90.736 345.945C90.8878 345.983 91.0009 346.019 91.0754 346.052L90.794 346.897C90.7443 346.88 90.6753 346.86 90.587 346.835C90.5014 346.81 90.3883 346.798 90.2476 346.798C89.9247 346.798 89.6915 346.879 89.548 347.042C89.4073 347.205 89.3369 347.443 89.3369 347.758V354.762H88.36ZM92.1299 354.762V348.404H93.0737V349.364H93.14C93.2559 349.049 93.4656 348.794 93.7691 348.598C94.0727 348.402 94.4149 348.304 94.7957 348.304C94.8675 348.304 94.9572 348.306 95.0648 348.308C95.1724 348.311 95.2538 348.315 95.309 348.321V349.314C95.2759 349.306 95.2 349.294 95.0813 349.277C94.9654 349.258 94.8426 349.248 94.7129 349.248C94.4039 349.248 94.1279 349.313 93.885 349.443C93.645 349.57 93.4546 349.746 93.3138 349.972C93.1758 350.196 93.1068 350.451 93.1068 350.738V354.762H92.1299ZM98.8565 354.894C98.2825 354.894 97.7789 354.758 97.3456 354.484C96.9151 354.211 96.5784 353.829 96.3356 353.338C96.0955 352.847 95.9755 352.273 95.9755 351.616C95.9755 350.953 96.0955 350.375 96.3356 349.881C96.5784 349.387 96.9151 349.004 97.3456 348.731C97.7789 348.457 98.2825 348.321 98.8565 348.321C99.4305 348.321 99.9327 348.457 100.363 348.731C100.796 349.004 101.133 349.387 101.373 349.881C101.616 350.375 101.738 350.953 101.738 351.616C101.738 352.273 101.616 352.847 101.373 353.338C101.133 353.829 100.796 354.211 100.363 354.484C99.9327 354.758 99.4305 354.894 98.8565 354.894ZM98.8565 354.017C99.2925 354.017 99.6512 353.905 99.9327 353.681C100.214 353.458 100.423 353.164 100.558 352.8C100.693 352.435 100.761 352.041 100.761 351.616C100.761 351.191 100.693 350.795 100.558 350.428C100.423 350.061 100.214 349.764 99.9327 349.538C99.6512 349.312 99.2925 349.198 98.8565 349.198C98.4205 349.198 98.0617 349.312 97.7802 349.538C97.4988 349.764 97.2904 350.061 97.1552 350.428C97.02 350.795 96.9524 351.191 96.9524 351.616C96.9524 352.041 97.02 352.435 97.1552 352.8C97.2904 353.164 97.4988 353.458 97.7802 353.681C98.0617 353.905 98.4205 354.017 98.8565 354.017ZM103.229 354.762V348.404H104.173V349.397H104.255C104.388 349.058 104.602 348.794 104.897 348.606C105.192 348.416 105.547 348.321 105.961 348.321C106.38 348.321 106.729 348.416 107.008 348.606C107.289 348.794 107.509 349.058 107.666 349.397H107.732C107.895 349.069 108.139 348.808 108.465 348.615C108.791 348.419 109.181 348.321 109.637 348.321C110.205 348.321 110.67 348.499 111.031 348.855C111.393 349.208 111.574 349.759 111.574 350.506V354.762H110.597V350.506C110.597 350.037 110.469 349.702 110.212 349.501C109.955 349.299 109.653 349.198 109.305 349.198C108.858 349.198 108.512 349.334 108.266 349.604C108.021 349.872 107.898 350.211 107.898 350.622V354.762H106.905V350.407C106.905 350.046 106.787 349.754 106.553 349.534C106.318 349.31 106.016 349.198 105.646 349.198C105.392 349.198 105.155 349.266 104.934 349.401C104.716 349.536 104.54 349.724 104.404 349.964C104.272 350.201 104.206 350.476 104.206 350.788V354.762H103.229Z" fill="black"/>
<rect x="116.645" y="342.668" width="36.5239" height="17.8734" rx="6.21683" fill="white"/>
<rect x="2.40918" y="373.07" width="87.0356" height="28.7528" fill="#CECECE"/>
<path d="M16.0503 391.991C15.6474 391.991 15.2817 391.915 14.9533 391.763C14.6249 391.609 14.3642 391.386 14.171 391.097C13.9778 390.804 13.8812 390.451 13.8812 390.037C13.8812 389.673 13.953 389.377 14.0965 389.151C14.24 388.922 14.4318 388.743 14.6719 388.613C14.9119 388.483 15.1769 388.387 15.4666 388.323C15.7591 388.257 16.053 388.205 16.3483 388.166C16.7347 388.116 17.0479 388.079 17.288 388.054C17.5308 388.027 17.7074 387.981 17.8178 387.918C17.9309 387.854 17.9875 387.744 17.9875 387.586V387.553C17.9875 387.145 17.8758 386.828 17.6522 386.601C17.4315 386.375 17.0962 386.262 16.6464 386.262C16.18 386.262 15.8143 386.364 15.5494 386.568C15.2845 386.772 15.0982 386.99 14.9906 387.222L14.0634 386.891C14.2289 386.505 14.4497 386.204 14.7257 385.989C15.0044 385.771 15.3079 385.619 15.6363 385.533C15.9675 385.445 16.2931 385.401 16.6132 385.401C16.8174 385.401 17.052 385.426 17.3169 385.475C17.5846 385.522 17.8426 385.62 18.091 385.769C18.3421 385.918 18.5505 386.143 18.7161 386.444C18.8816 386.745 18.9644 387.148 18.9644 387.653V391.842H17.9875V390.981H17.9378C17.8716 391.119 17.7612 391.266 17.6067 391.424C17.4522 391.581 17.2466 391.715 16.9899 391.825C16.7333 391.936 16.4201 391.991 16.0503 391.991ZM16.1993 391.113C16.5856 391.113 16.9113 391.037 17.1762 390.886C17.4439 390.734 17.6453 390.538 17.7805 390.298C17.9185 390.058 17.9875 389.805 17.9875 389.54V388.646C17.9461 388.696 17.8551 388.741 17.7143 388.783C17.5763 388.821 17.4163 388.856 17.2341 388.886C17.0548 388.914 16.8795 388.939 16.7084 388.961C16.5401 388.98 16.4035 388.997 16.2986 389.01C16.0448 389.044 15.8074 389.097 15.5867 389.172C15.3687 389.244 15.192 389.353 15.0568 389.499C14.9244 389.642 14.8581 389.838 14.8581 390.087C14.8581 390.426 14.9837 390.683 15.2348 390.857C15.4887 391.028 15.8102 391.113 16.1993 391.113ZM21.7244 388.017V391.842H20.7475V385.484H21.6912V386.477H21.774C21.9231 386.154 22.1493 385.895 22.4529 385.699C22.7565 385.5 23.1483 385.401 23.6285 385.401C24.059 385.401 24.4357 385.489 24.7585 385.666C25.0814 385.84 25.3325 386.105 25.5119 386.461C25.6913 386.814 25.781 387.261 25.781 387.802V391.842H24.8041V387.868C24.8041 387.368 24.6744 386.979 24.415 386.701C24.1556 386.419 23.7996 386.278 23.347 386.278C23.0352 386.278 22.7565 386.346 22.5108 386.481C22.268 386.616 22.0762 386.814 21.9355 387.073C21.7947 387.333 21.7244 387.647 21.7244 388.017ZM29.9669 391.974C29.4371 391.974 28.9693 391.84 28.5637 391.573C28.158 391.302 27.8407 390.921 27.6116 390.43C27.3826 389.936 27.2681 389.353 27.2681 388.679C27.2681 388.011 27.3826 387.432 27.6116 386.941C27.8407 386.45 28.1594 386.07 28.5678 385.802C28.9762 385.535 29.4481 385.401 29.9835 385.401C30.3974 385.401 30.7245 385.47 30.9645 385.608C31.2074 385.743 31.3923 385.898 31.5192 386.071C31.6489 386.243 31.7496 386.383 31.8214 386.494H31.9042V383.364H32.8811V391.842H31.9373V390.865H31.8214C31.7496 390.981 31.6475 391.127 31.5151 391.304C31.3826 391.478 31.1936 391.633 30.948 391.771C30.7024 391.907 30.3754 391.974 29.9669 391.974ZM30.0994 391.097C30.4913 391.097 30.8224 390.995 31.0929 390.79C31.3633 390.583 31.5689 390.298 31.7096 389.934C31.8504 389.567 31.9207 389.143 31.9207 388.663C31.9207 388.188 31.8518 387.773 31.7138 387.417C31.5758 387.058 31.3716 386.779 31.1011 386.581C30.8307 386.379 30.4968 386.278 30.0994 386.278C29.6855 386.278 29.3405 386.385 29.0646 386.597C28.7914 386.807 28.5858 387.093 28.4478 387.454C28.3126 387.813 28.245 388.216 28.245 388.663C28.245 389.115 28.3139 389.526 28.4519 389.896C28.5927 390.263 28.7996 390.556 29.0728 390.774C29.3488 390.989 29.691 391.097 30.0994 391.097Z" fill="black"/>
<rect x="40.4912" y="378.51" width="36.5239" height="17.8734" rx="6.21683" fill="white"/>
</svg>
