<svg width="309" height="322" viewBox="0 0 309 322" fill="none" xmlns="http://www.w3.org/2000/svg">
<path d="M28.2665 207.296C29.8636 208.084 31.5747 208.478 33.4 208.478C35.647 208.478 36.7705 207.455 36.7705 205.408C36.7705 204.745 36.5907 204.209 36.2312 203.801C35.8786 203.386 35.2321 203.061 34.2919 202.826L31.2429 202.059C28.9129 201.471 27.748 200.226 27.748 198.325C27.748 196.866 28.2492 195.784 29.2517 195.079C30.2542 194.367 31.6404 194.011 33.4104 194.011C34.3368 194.011 35.2045 194.111 36.0134 194.312C36.8223 194.512 37.4999 194.782 38.0461 195.121L37.5275 196.583C37.0643 196.327 36.449 196.099 35.6815 195.898C34.921 195.698 34.1501 195.598 33.3689 195.598C30.8661 195.598 29.6147 196.465 29.6147 198.201C29.6147 198.788 29.8048 199.262 30.1851 199.621C30.5722 199.974 31.1495 200.244 31.917 200.43L34.8311 201.136C36.0756 201.433 37.0194 201.91 37.6623 202.567C38.3053 203.217 38.6268 204.143 38.6268 205.346C38.6268 206.909 38.1463 208.087 37.1853 208.882C36.2312 209.671 34.9314 210.065 33.2859 210.065C32.0553 210.065 30.9594 209.94 29.9984 209.691C29.0443 209.436 28.2872 209.135 27.7272 208.789L28.2665 207.296ZM44.6003 210.034C43.4803 210.034 42.6852 209.76 42.2151 209.214C41.7449 208.668 41.496 207.787 41.4684 206.57V199.735H39.778L39.8506 198.595L41.458 198.45L42.0491 195.846L43.1899 195.805V198.45H46.353V199.735H43.1899V206.259C43.1899 207.123 43.3213 207.731 43.584 208.084C43.8467 208.436 44.2961 208.613 44.9322 208.613C45.1604 208.613 45.6547 208.557 46.4152 208.447L46.4878 209.816C45.6651 209.961 45.0359 210.034 44.6003 210.034ZM47.9397 206.03V198.45H49.682V206.051C49.682 206.549 49.7511 206.971 49.8894 207.316C50.0346 207.662 50.2385 207.932 50.5013 208.125C50.7709 208.312 51.0717 208.447 51.4035 208.53C51.7423 208.613 52.1295 208.654 52.565 208.654C53.4638 208.654 54.1621 208.457 54.6599 208.063C55.1646 207.669 55.417 206.998 55.417 206.051V198.45H57.1592V206.03C57.1592 206.611 57.0763 207.133 56.9104 207.596C56.7444 208.06 56.5197 208.447 56.2363 208.758C55.9597 209.062 55.6244 209.315 55.2303 209.515C54.8362 209.716 54.4179 209.861 53.9754 209.951C53.5399 210.04 53.0697 210.085 52.565 210.085C52.0672 210.085 51.5971 210.04 51.1546 209.951C50.7121 209.861 50.2904 209.716 49.8894 209.515C49.4953 209.308 49.1531 209.052 48.8627 208.748C48.5792 208.436 48.3545 208.049 48.1886 207.586C48.0227 207.123 47.9397 206.604 47.9397 206.03ZM64.1802 208.571C65.321 208.571 66.1679 208.205 66.721 207.472C67.281 206.739 67.5611 205.692 67.5611 204.33C67.5611 202.795 67.2914 201.64 66.7521 200.866C66.2198 200.085 65.3556 199.694 64.1595 199.694C63.6271 199.694 63.157 199.808 62.7491 200.036C62.3411 200.264 62.0127 200.582 61.7638 200.99C61.5149 201.398 61.3248 201.868 61.1934 202.401C61.069 202.926 61.0068 203.504 61.0068 204.133C61.0068 205.018 61.1139 205.785 61.3283 206.435C61.5495 207.085 61.9021 207.603 62.3861 207.991C62.87 208.378 63.4681 208.571 64.1802 208.571ZM67.5922 208.177C67.2188 208.751 66.721 209.207 66.0988 209.546C65.4765 209.885 64.7817 210.054 64.0143 210.054C62.514 210.054 61.3386 209.522 60.4882 208.457C59.6378 207.386 59.2126 205.93 59.2126 204.091C59.2126 202.335 59.6448 200.918 60.509 199.839C61.3732 198.754 62.5313 198.211 63.9832 198.211C64.7368 198.211 65.4454 198.377 66.1092 198.709C66.7798 199.034 67.281 199.473 67.6129 200.026L67.5818 199.041V194.032L69.293 193.928V209.826H67.8203L67.5922 208.177ZM78.8651 200.555C78.3604 199.946 77.6656 199.642 76.7806 199.642C75.8956 199.642 75.1731 199.957 74.6131 200.586C74.0531 201.208 73.7247 202.062 73.6279 203.147H79.6325C79.6325 202.02 79.3767 201.156 78.8651 200.555ZM77.1228 210.065C75.4704 210.065 74.1672 209.539 73.2131 208.488C72.2659 207.437 71.7923 205.999 71.7923 204.174C71.7923 202.411 72.2521 200.983 73.1716 199.891C74.0911 198.792 75.301 198.232 76.8013 198.211C78.2118 198.211 79.3283 198.695 80.1511 199.663C80.9807 200.624 81.3956 201.91 81.3956 203.521C81.3956 203.604 81.3921 203.756 81.3852 203.977C81.3852 204.198 81.3852 204.357 81.3852 204.454H73.5761C73.5968 205.747 73.9287 206.756 74.5716 207.482C75.2215 208.201 76.0927 208.561 77.1851 208.561C78.3881 208.561 79.5945 208.243 80.8044 207.607L81.0741 209.007C79.9195 209.712 78.6024 210.065 77.1228 210.065ZM83.8016 209.826V198.45H85.2535L85.4712 200.078C85.9206 199.518 86.4807 199.068 87.1513 198.73C87.8289 198.384 88.5583 198.211 89.3395 198.211C90.6531 198.211 91.6245 198.581 92.2537 199.321C92.8828 200.054 93.1974 201.184 93.1974 202.712V209.826H91.4655C91.4655 205.263 91.4621 202.819 91.4551 202.494C91.4275 201.526 91.2304 200.817 90.864 200.368C90.5045 199.919 89.8995 199.694 89.0491 199.694C88.1573 199.694 87.414 199.908 86.8194 200.337C86.2249 200.766 85.8377 201.322 85.6579 202.007C85.5888 202.47 85.5542 203.002 85.5542 203.604V209.826H83.8016ZM99.7102 210.034C98.5902 210.034 97.7951 209.76 97.325 209.214C96.8548 208.668 96.6059 207.787 96.5783 206.57V199.735H94.8878L94.9604 198.595L96.5679 198.45L97.159 195.846L98.2998 195.805V198.45H101.463V199.735H98.2998V206.259C98.2998 207.123 98.4312 207.731 98.6939 208.084C98.9566 208.436 99.406 208.613 100.042 208.613C100.27 208.613 100.765 208.557 101.525 208.447L101.598 209.816C100.775 209.961 100.146 210.034 99.7102 210.034ZM106.835 210.065C106.061 210.065 105.345 209.982 104.688 209.816C104.038 209.65 103.509 209.436 103.101 209.173L103.319 207.711C104.474 208.326 105.608 208.634 106.721 208.634C108.408 208.634 109.275 208.039 109.324 206.85C109.324 206.345 109.144 205.948 108.785 205.657C108.425 205.367 107.72 205.042 106.669 204.682L105.808 204.382C104.813 204.05 104.1 203.638 103.672 203.147C103.25 202.657 103.036 202.045 103.029 201.312C103.029 200.42 103.385 199.68 104.097 199.093C104.816 198.505 105.798 198.211 107.042 198.211C108.328 198.211 109.5 198.46 110.558 198.958L110.05 200.285C108.978 199.843 107.976 199.621 107.042 199.621C106.316 199.621 105.746 199.767 105.331 200.057C104.923 200.34 104.719 200.741 104.719 201.26C104.719 201.702 104.868 202.041 105.165 202.276C105.462 202.511 106.057 202.781 106.949 203.085C107.177 203.168 107.464 203.265 107.81 203.376C108.957 203.749 109.77 204.191 110.247 204.703C110.724 205.208 110.962 205.892 110.962 206.756C110.949 207.807 110.572 208.623 109.832 209.204C109.092 209.778 108.093 210.065 106.835 210.065ZM123.086 208.571C124.227 208.571 125.073 208.205 125.627 207.472C126.187 206.739 126.467 205.692 126.467 204.33C126.467 202.795 126.197 201.64 125.658 200.866C125.125 200.085 124.261 199.694 123.065 199.694C122.533 199.694 122.063 199.808 121.655 200.036C121.247 200.264 120.918 200.582 120.669 200.99C120.42 201.398 120.23 201.868 120.099 202.401C119.975 202.926 119.912 203.504 119.912 204.133C119.912 205.018 120.019 205.785 120.234 206.435C120.455 207.085 120.808 207.603 121.292 207.991C121.776 208.378 122.374 208.571 123.086 208.571ZM126.498 208.177C126.124 208.751 125.627 209.207 125.004 209.546C124.382 209.885 123.687 210.054 122.92 210.054C121.42 210.054 120.244 209.522 119.394 208.457C118.543 207.386 118.118 205.93 118.118 204.091C118.118 202.335 118.55 200.918 119.415 199.839C120.279 198.754 121.437 198.211 122.889 198.211C123.642 198.211 124.351 198.377 125.015 198.709C125.685 199.034 126.187 199.473 126.518 200.026L126.487 199.041V194.032L128.199 193.928V209.826H126.726L126.498 208.177ZM132.482 204.164C132.482 205.512 132.779 206.594 133.373 207.41C133.975 208.219 134.85 208.623 135.997 208.623C137.131 208.623 137.985 208.219 138.559 207.41C139.14 206.601 139.43 205.512 139.43 204.143C139.43 202.753 139.143 201.661 138.569 200.866C138.002 200.064 137.135 199.663 135.966 199.663C134.832 199.663 133.968 200.071 133.373 200.887C132.779 201.702 132.482 202.795 132.482 204.164ZM141.224 204.133C141.224 205.896 140.754 207.327 139.814 208.426C138.873 209.519 137.574 210.065 135.914 210.065C134.317 210.065 133.045 209.512 132.098 208.405C131.158 207.299 130.687 205.878 130.687 204.143C130.687 202.373 131.161 200.942 132.108 199.85C133.055 198.757 134.355 198.211 136.008 198.211C137.632 198.211 138.908 198.761 139.834 199.86C140.761 200.952 141.224 202.377 141.224 204.133ZM143.682 209.826V198.45H145.134L145.352 200.078C145.801 199.518 146.361 199.068 147.032 198.73C147.709 198.384 148.439 198.211 149.22 198.211C150.534 198.211 151.505 198.581 152.134 199.321C152.763 200.054 153.078 201.184 153.078 202.712V209.826H151.346C151.346 205.263 151.342 202.819 151.336 202.494C151.308 201.526 151.111 200.817 150.744 200.368C150.385 199.919 149.78 199.694 148.93 199.694C148.038 199.694 147.294 199.908 146.7 200.337C146.105 200.766 145.718 201.322 145.538 202.007C145.469 202.47 145.435 203.002 145.435 203.604V209.826H143.682ZM157.06 198.398H155.857L156.822 193.503H158.45L157.06 198.398ZM164.817 210.034C163.697 210.034 162.902 209.76 162.432 209.214C161.962 208.668 161.713 207.787 161.685 206.57V199.735H159.995L160.068 198.595L161.675 198.45L162.266 195.846L163.407 195.805V198.45H166.57V199.735H163.407V206.259C163.407 207.123 163.538 207.731 163.801 208.084C164.064 208.436 164.513 208.613 165.149 208.613C165.377 208.613 165.872 208.557 166.632 208.447L166.705 209.816C165.882 209.961 165.253 210.034 164.817 210.034ZM173.467 206.03V198.45H175.209V206.051C175.209 206.549 175.278 206.971 175.416 207.316C175.561 207.662 175.765 207.932 176.028 208.125C176.298 208.312 176.599 208.447 176.93 208.53C177.269 208.613 177.656 208.654 178.092 208.654C178.991 208.654 179.689 208.457 180.187 208.063C180.691 207.669 180.944 206.998 180.944 206.051V198.45H182.686V206.03C182.686 206.611 182.603 207.133 182.437 207.596C182.271 208.06 182.047 208.447 181.763 208.758C181.487 209.062 181.151 209.315 180.757 209.515C180.363 209.716 179.945 209.861 179.502 209.951C179.067 210.04 178.597 210.085 178.092 210.085C177.594 210.085 177.124 210.04 176.681 209.951C176.239 209.861 175.817 209.716 175.416 209.515C175.022 209.308 174.68 209.052 174.39 208.748C174.106 208.436 173.881 208.049 173.715 207.586C173.55 207.123 173.467 206.604 173.467 206.03ZM185.268 209.826V198.45H186.72L186.938 200.078C187.388 199.518 187.948 199.068 188.618 198.73C189.296 198.384 190.025 198.211 190.806 198.211C192.12 198.211 193.091 198.581 193.721 199.321C194.35 200.054 194.664 201.184 194.664 202.712V209.826H192.932C192.932 205.263 192.929 202.819 192.922 202.494C192.894 201.526 192.697 200.817 192.331 200.368C191.971 199.919 191.366 199.694 190.516 199.694C189.624 199.694 188.881 199.908 188.286 200.337C187.692 200.766 187.305 201.322 187.125 202.007C187.056 202.47 187.021 203.002 187.021 203.604V209.826H185.268ZM201.986 208.571C203.127 208.571 203.974 208.205 204.527 207.472C205.087 206.739 205.367 205.692 205.367 204.33C205.367 202.795 205.097 201.64 204.558 200.866C204.026 200.085 203.161 199.694 201.965 199.694C201.433 199.694 200.963 199.808 200.555 200.036C200.147 200.264 199.819 200.582 199.57 200.99C199.321 201.398 199.131 201.868 198.999 202.401C198.875 202.926 198.813 203.504 198.813 204.133C198.813 205.018 198.92 205.785 199.134 206.435C199.355 207.085 199.708 207.603 200.192 207.991C200.676 208.378 201.274 208.571 201.986 208.571ZM205.398 208.177C205.025 208.751 204.527 209.207 203.905 209.546C203.282 209.885 202.587 210.054 201.82 210.054C200.32 210.054 199.144 209.522 198.294 208.457C197.444 207.386 197.018 205.93 197.018 204.091C197.018 202.335 197.451 200.918 198.315 199.839C199.179 198.754 200.337 198.211 201.789 198.211C202.543 198.211 203.251 198.377 203.915 198.709C204.586 199.034 205.087 199.473 205.419 200.026L205.388 199.041V194.032L207.099 193.928V209.826H205.626L205.398 208.177ZM216.671 200.555C216.166 199.946 215.471 199.642 214.586 199.642C213.701 199.642 212.979 199.957 212.419 200.586C211.859 201.208 211.53 202.062 211.434 203.147H217.438C217.438 202.02 217.183 201.156 216.671 200.555ZM214.929 210.065C213.276 210.065 211.973 209.539 211.019 208.488C210.072 207.437 209.598 205.999 209.598 204.174C209.598 202.411 210.058 200.983 210.977 199.891C211.897 198.792 213.107 198.232 214.607 198.211C216.018 198.211 217.134 198.695 217.957 199.663C218.787 200.624 219.201 201.91 219.201 203.521C219.201 203.604 219.198 203.756 219.191 203.977C219.191 204.198 219.191 204.357 219.191 204.454H211.382C211.403 205.747 211.734 206.756 212.377 207.482C213.027 208.201 213.898 208.561 214.991 208.561C216.194 208.561 217.4 208.243 218.61 207.607L218.88 209.007C217.725 209.712 216.408 210.065 214.929 210.065ZM226.71 198.346C227.021 198.346 227.304 198.367 227.56 198.408L227.498 200.005C227.18 199.95 226.903 199.922 226.668 199.922C225.7 199.922 224.912 200.261 224.304 200.938C223.702 201.609 223.401 202.442 223.401 203.438V209.826H221.67C221.663 202.843 221.659 199.051 221.659 198.45H223.101L223.267 200.493C223.661 199.85 224.162 199.331 224.77 198.937C225.379 198.543 226.025 198.346 226.71 198.346ZM232.735 210.065C231.961 210.065 231.245 209.982 230.588 209.816C229.938 209.65 229.41 209.436 229.002 209.173L229.219 207.711C230.374 208.326 231.508 208.634 232.621 208.634C234.308 208.634 235.176 208.039 235.224 206.85C235.224 206.345 235.044 205.948 234.685 205.657C234.325 205.367 233.62 205.042 232.569 204.682L231.708 204.382C230.713 204.05 230.001 203.638 229.572 203.147C229.15 202.657 228.936 202.045 228.929 201.312C228.929 200.42 229.285 199.68 229.997 199.093C230.716 198.505 231.698 198.211 232.943 198.211C234.228 198.211 235.4 198.46 236.458 198.958L235.95 200.285C234.878 199.843 233.876 199.621 232.943 199.621C232.217 199.621 231.646 199.767 231.231 200.057C230.823 200.34 230.619 200.741 230.619 201.26C230.619 201.702 230.768 202.041 231.065 202.276C231.363 202.511 231.957 202.781 232.849 203.085C233.077 203.168 233.364 203.265 233.71 203.376C234.858 203.749 235.67 204.191 236.147 204.703C236.624 205.208 236.863 205.892 236.863 206.756C236.849 207.807 236.472 208.623 235.732 209.204C234.992 209.778 233.993 210.065 232.735 210.065ZM242.867 210.034C241.747 210.034 240.952 209.76 240.482 209.214C240.012 208.668 239.763 207.787 239.735 206.57V199.735H238.045L238.117 198.595L239.725 198.45L240.316 195.846L241.457 195.805V198.45H244.62V199.735H241.457V206.259C241.457 207.123 241.588 207.731 241.851 208.084C242.114 208.436 242.563 208.613 243.199 208.613C243.427 208.613 243.922 208.557 244.682 208.447L244.755 209.816C243.932 209.961 243.303 210.034 242.867 210.034ZM249.847 208.665C250.669 208.665 251.392 208.44 252.014 207.991C252.643 207.534 253.048 206.922 253.228 206.155V204.236C253.193 204.236 252.982 204.254 252.595 204.288C252.215 204.323 251.966 204.344 251.848 204.35C250.348 204.482 249.301 204.727 248.706 205.087C248.118 205.446 247.824 206.024 247.824 206.819C247.824 207.427 248.004 207.887 248.364 208.198C248.723 208.509 249.218 208.665 249.847 208.665ZM253.611 209.826C253.508 209.384 253.407 208.907 253.311 208.395C252.681 209.024 252.09 209.46 251.537 209.702C250.984 209.944 250.334 210.065 249.587 210.065C248.523 210.065 247.665 209.788 247.016 209.235C246.373 208.675 246.051 207.873 246.051 206.829C246.051 205.668 246.49 204.807 247.368 204.247C248.253 203.687 249.525 203.338 251.185 203.199C251.413 203.179 251.755 203.151 252.211 203.116C252.674 203.075 253.02 203.044 253.248 203.023V202.017C253.248 201.215 253.062 200.62 252.688 200.233C252.315 199.846 251.727 199.653 250.925 199.653C249.805 199.653 248.675 199.929 247.534 200.482C247.5 200.399 247.41 200.161 247.264 199.767C247.119 199.366 247.043 199.158 247.036 199.144C247.541 198.861 248.139 198.636 248.83 198.47C249.529 198.297 250.237 198.211 250.956 198.211C252.374 198.211 253.394 198.522 254.016 199.144C254.645 199.76 254.96 200.811 254.96 202.297V209.826H253.611ZM257.946 209.826V198.45H259.398L259.616 200.078C260.065 199.518 260.625 199.068 261.296 198.73C261.974 198.384 262.703 198.211 263.484 198.211C264.798 198.211 265.769 198.581 266.398 199.321C267.028 200.054 267.342 201.184 267.342 202.712V209.826H265.61C265.61 205.263 265.607 202.819 265.6 202.494C265.572 201.526 265.375 200.817 265.009 200.368C264.649 199.919 264.044 199.694 263.194 199.694C262.302 199.694 261.559 199.908 260.964 200.337C260.37 200.766 259.982 201.322 259.803 202.007C259.733 202.47 259.699 203.002 259.699 203.604V209.826H257.946ZM274.664 208.571C275.805 208.571 276.652 208.205 277.205 207.472C277.765 206.739 278.045 205.692 278.045 204.33C278.045 202.795 277.775 201.64 277.236 200.866C276.703 200.085 275.839 199.694 274.643 199.694C274.111 199.694 273.641 199.808 273.233 200.036C272.825 200.264 272.496 200.582 272.247 200.99C271.999 201.398 271.808 201.868 271.677 202.401C271.553 202.926 271.49 203.504 271.49 204.133C271.49 205.018 271.598 205.785 271.812 206.435C272.033 207.085 272.386 207.603 272.87 207.991C273.354 208.378 273.952 208.571 274.664 208.571ZM278.076 208.177C277.702 208.751 277.205 209.207 276.582 209.546C275.96 209.885 275.265 210.054 274.498 210.054C272.998 210.054 271.822 209.522 270.972 208.457C270.121 207.386 269.696 205.93 269.696 204.091C269.696 202.335 270.128 200.918 270.993 199.839C271.857 198.754 273.015 198.211 274.467 198.211C275.22 198.211 275.929 198.377 276.593 198.709C277.263 199.034 277.765 199.473 278.097 200.026L278.065 199.041V194.032L279.777 193.928V209.826H278.304L278.076 208.177ZM31.9896 240.034C30.8695 240.034 30.0745 239.76 29.6043 239.214C29.1342 238.668 28.8853 237.787 28.8576 236.57V229.735H27.1672L27.2398 228.595L28.8473 228.45L29.4384 225.846L30.5792 225.805V228.45H33.7422V229.735H30.5792V236.259C30.5792 237.123 30.7105 237.731 30.9732 238.084C31.236 238.436 31.6854 238.613 32.3214 238.613C32.5496 238.613 33.0439 238.557 33.8044 238.447L33.877 239.816C33.0543 239.961 32.4251 240.034 31.9896 240.034ZM43.387 239.826V232.95C43.387 231.81 43.2038 230.98 42.8373 230.461C42.4778 229.943 41.8452 229.684 40.9395 229.684C40.0683 229.684 39.332 229.901 38.7305 230.337C38.1359 230.773 37.7488 231.336 37.569 232.027C37.5068 232.546 37.4757 233.123 37.4757 233.759V239.826H35.7438V224.032L37.4757 223.928V228.553C37.4757 228.947 37.4618 229.435 37.4342 230.015C38.409 228.812 39.7019 228.211 41.3128 228.211C43.8502 228.211 45.1189 229.701 45.1189 232.681V239.826H43.387ZM53.8095 230.555C53.3048 229.946 52.61 229.642 51.725 229.642C50.84 229.642 50.1175 229.957 49.5575 230.586C48.9975 231.208 48.6691 232.062 48.5723 233.147H54.5769C54.5769 232.02 54.3211 231.156 53.8095 230.555ZM52.0672 240.065C50.4148 240.065 49.1116 239.539 48.1575 238.488C47.2103 237.437 46.7367 235.999 46.7367 234.174C46.7367 232.411 47.1965 230.983 48.116 229.891C49.0355 228.792 50.2455 228.232 51.7457 228.211C53.1562 228.211 54.2727 228.695 55.0955 229.663C55.9251 230.624 56.34 231.91 56.34 233.521C56.34 233.604 56.3365 233.756 56.3296 233.977C56.3296 234.198 56.3296 234.357 56.3296 234.454H48.5205C48.5412 235.747 48.8731 236.756 49.516 237.482C50.1659 238.201 51.0371 238.561 52.1295 238.561C53.3325 238.561 54.5389 238.243 55.7488 237.607L56.0185 239.007C54.8639 239.712 53.5468 240.065 52.0672 240.065ZM64.3773 239.826V224.488H66.1818V238.229H72.9331L72.8709 239.826H64.3773ZM74.9761 239.826V224.488H76.7806V238.229H83.5319L83.4697 239.826H74.9761ZM92.2952 238.882L87.5869 227.931L87.1928 226.884L87.2654 230.638V239.826H85.5853V224.488H87.9084L93.2493 236.705L98.5383 224.488H100.799V239.826H99.0568V230.596L99.1294 226.925L98.7457 227.972L94.0478 238.882H92.2952ZM114.592 229.653C113.493 229.653 112.649 230.033 112.062 230.793C111.481 231.547 111.191 232.657 111.191 234.122C111.191 237.123 112.321 238.623 114.582 238.623C115.142 238.623 115.633 238.509 116.054 238.281C116.483 238.046 116.818 237.721 117.06 237.306C117.309 236.884 117.492 236.411 117.61 235.885C117.734 235.36 117.797 234.776 117.797 234.133C117.797 233.262 117.693 232.501 117.486 231.851C117.285 231.201 116.939 230.672 116.449 230.264C115.958 229.856 115.339 229.653 114.592 229.653ZM114.768 228.211C115.778 228.211 116.649 228.467 117.382 228.978C118.115 229.49 118.664 230.185 119.031 231.063C119.397 231.941 119.58 232.947 119.58 234.081C119.58 235.256 119.397 236.29 119.031 237.182C118.671 238.074 118.122 238.779 117.382 239.297C116.649 239.809 115.771 240.065 114.748 240.065C113.994 240.065 113.306 239.902 112.684 239.577C112.062 239.252 111.543 238.81 111.128 238.25L110.952 239.826H109.469V224.032L111.201 223.928V227.692C111.201 228.619 111.187 229.414 111.159 230.078C111.56 229.504 112.079 229.051 112.715 228.719C113.358 228.38 114.043 228.211 114.768 228.211ZM124.071 228.45V239.826H122.329V228.45H124.071ZM124.071 224.312V226.365H122.329V224.312H124.071ZM130.625 238.665C131.448 238.665 132.17 238.44 132.793 237.991C133.422 237.534 133.826 236.922 134.006 236.155V234.236C133.972 234.236 133.761 234.254 133.373 234.288C132.993 234.323 132.744 234.344 132.627 234.35C131.126 234.482 130.079 234.727 129.484 235.087C128.897 235.446 128.603 236.024 128.603 236.819C128.603 237.427 128.783 237.887 129.142 238.198C129.502 238.509 129.996 238.665 130.625 238.665ZM134.39 239.826C134.286 239.384 134.186 238.907 134.089 238.395C133.46 239.024 132.869 239.46 132.316 239.702C131.763 239.944 131.113 240.065 130.366 240.065C129.301 240.065 128.444 239.788 127.794 239.235C127.151 238.675 126.83 237.873 126.83 236.829C126.83 235.668 127.269 234.807 128.147 234.247C129.032 233.687 130.304 233.338 131.963 233.199C132.191 233.179 132.533 233.151 132.99 233.116C133.453 233.075 133.799 233.044 134.027 233.023V232.017C134.027 231.215 133.84 230.62 133.467 230.233C133.093 229.846 132.506 229.653 131.704 229.653C130.584 229.653 129.453 229.929 128.313 230.482C128.278 230.399 128.188 230.161 128.043 229.767C127.898 229.366 127.822 229.158 127.815 229.144C128.319 228.861 128.918 228.636 129.609 228.47C130.307 228.297 131.016 228.211 131.735 228.211C133.152 228.211 134.172 228.522 134.794 229.144C135.423 229.76 135.738 230.811 135.738 232.297V239.826H134.39ZM142.116 240.065C141.342 240.065 140.626 239.982 139.969 239.816C139.319 239.65 138.79 239.436 138.383 239.173L138.6 237.711C139.755 238.326 140.889 238.634 142.002 238.634C143.689 238.634 144.557 238.039 144.605 236.85C144.605 236.345 144.425 235.948 144.066 235.657C143.706 235.367 143.001 235.042 141.95 234.682L141.089 234.382C140.094 234.05 139.382 233.638 138.953 233.147C138.531 232.657 138.317 232.045 138.31 231.312C138.31 230.42 138.666 229.68 139.378 229.093C140.097 228.505 141.079 228.211 142.323 228.211C143.609 228.211 144.781 228.46 145.839 228.958L145.331 230.285C144.259 229.843 143.257 229.621 142.323 229.621C141.597 229.621 141.027 229.767 140.612 230.057C140.204 230.34 140 230.741 140 231.26C140 231.702 140.149 232.041 140.446 232.276C140.744 232.511 141.338 232.781 142.23 233.085C142.458 233.168 142.745 233.265 143.091 233.376C144.239 233.749 145.051 234.191 145.528 234.703C146.005 235.208 146.244 235.892 146.244 236.756C146.23 237.807 145.853 238.623 145.113 239.204C144.373 239.778 143.374 240.065 142.116 240.065ZM155.173 230.555C154.668 229.946 153.973 229.642 153.088 229.642C152.203 229.642 151.481 229.957 150.921 230.586C150.361 231.208 150.032 232.062 149.935 233.147H155.94C155.94 232.02 155.684 231.156 155.173 230.555ZM153.43 240.065C151.778 240.065 150.475 239.539 149.521 238.488C148.573 237.437 148.1 235.999 148.1 234.174C148.1 232.411 148.56 230.983 149.479 229.891C150.399 228.792 151.609 228.232 153.109 228.211C154.519 228.211 155.636 228.695 156.459 229.663C157.288 230.624 157.703 231.91 157.703 233.521C157.703 233.604 157.7 233.756 157.693 233.977C157.693 234.198 157.693 234.357 157.693 234.454H149.884C149.904 235.747 150.236 236.756 150.879 237.482C151.529 238.201 152.4 238.561 153.493 238.561C154.696 238.561 155.902 238.243 157.112 237.607L157.382 239.007C156.227 239.712 154.91 240.065 153.43 240.065ZM163.5 240.065C162.726 240.065 162.01 239.982 161.354 239.816C160.704 239.65 160.175 239.436 159.767 239.173L159.985 237.711C161.139 238.326 162.273 238.634 163.386 238.634C165.073 238.634 165.941 238.039 165.989 236.85C165.989 236.345 165.81 235.948 165.45 235.657C165.091 235.367 164.385 235.042 163.334 234.682L162.474 234.382C161.478 234.05 160.766 233.638 160.337 233.147C159.916 232.657 159.701 232.045 159.694 231.312C159.694 230.42 160.05 229.68 160.762 229.093C161.482 228.505 162.463 228.211 163.708 228.211C164.994 228.211 166.166 228.46 167.223 228.958L166.715 230.285C165.644 229.843 164.641 229.621 163.708 229.621C162.982 229.621 162.411 229.767 161.997 230.057C161.589 230.34 161.385 230.741 161.385 231.26C161.385 231.702 161.533 232.041 161.831 232.276C162.128 232.511 162.723 232.781 163.614 233.085C163.843 233.168 164.13 233.265 164.475 233.376C165.623 233.749 166.435 234.191 166.912 234.703C167.389 235.208 167.628 235.892 167.628 236.756C167.614 237.807 167.237 238.623 166.497 239.204C165.758 239.778 164.759 240.065 163.5 240.065ZM178.6 238.665C179.423 238.665 180.145 238.44 180.768 237.991C181.397 237.534 181.801 236.922 181.981 236.155V234.236C181.946 234.236 181.735 234.254 181.348 234.288C180.968 234.323 180.719 234.344 180.602 234.35C179.101 234.482 178.054 234.727 177.459 235.087C176.872 235.446 176.578 236.024 176.578 236.819C176.578 237.427 176.758 237.887 177.117 238.198C177.477 238.509 177.971 238.665 178.6 238.665ZM182.365 239.826C182.261 239.384 182.161 238.907 182.064 238.395C181.435 239.024 180.844 239.46 180.291 239.702C179.737 239.944 179.088 240.065 178.341 240.065C177.276 240.065 176.419 239.788 175.769 239.235C175.126 238.675 174.804 237.873 174.804 236.829C174.804 235.668 175.243 234.807 176.121 234.247C177.006 233.687 178.279 233.338 179.938 233.199C180.166 233.179 180.508 233.151 180.965 233.116C181.428 233.075 181.774 233.044 182.002 233.023V232.017C182.002 231.215 181.815 230.62 181.442 230.233C181.068 229.846 180.481 229.653 179.679 229.653C178.559 229.653 177.428 229.929 176.287 230.482C176.253 230.399 176.163 230.161 176.018 229.767C175.873 229.366 175.797 229.158 175.79 229.144C176.294 228.861 176.892 228.636 177.584 228.47C178.282 228.297 178.991 228.211 179.71 228.211C181.127 228.211 182.147 228.522 182.769 229.144C183.398 229.76 183.713 230.811 183.713 232.297V239.826H182.365ZM186.7 239.826V228.45H188.151L188.369 230.078C188.819 229.518 189.379 229.068 190.049 228.73C190.727 228.384 191.456 228.211 192.238 228.211C193.551 228.211 194.523 228.581 195.152 229.321C195.781 230.054 196.095 231.184 196.095 232.712V239.826H194.364C194.364 235.263 194.36 232.819 194.353 232.494C194.326 231.526 194.128 230.817 193.762 230.368C193.403 229.919 192.798 229.694 191.947 229.694C191.055 229.694 190.312 229.908 189.717 230.337C189.123 230.766 188.736 231.322 188.556 232.007C188.487 232.47 188.452 233.002 188.452 233.604V239.826H186.7ZM203.417 238.571C204.558 238.571 205.405 238.205 205.958 237.472C206.518 236.739 206.798 235.692 206.798 234.33C206.798 232.795 206.528 231.64 205.989 230.866C205.457 230.085 204.592 229.694 203.396 229.694C202.864 229.694 202.394 229.808 201.986 230.036C201.578 230.264 201.25 230.582 201.001 230.99C200.752 231.398 200.562 231.868 200.43 232.401C200.306 232.926 200.244 233.504 200.244 234.133C200.244 235.018 200.351 235.785 200.565 236.435C200.786 237.085 201.139 237.603 201.623 237.991C202.107 238.378 202.705 238.571 203.417 238.571ZM206.829 238.177C206.456 238.751 205.958 239.207 205.336 239.546C204.713 239.885 204.019 240.054 203.251 240.054C201.751 240.054 200.576 239.522 199.725 238.457C198.875 237.386 198.45 235.93 198.45 234.091C198.45 232.335 198.882 230.918 199.746 229.839C200.61 228.754 201.768 228.211 203.22 228.211C203.974 228.211 204.682 228.377 205.346 228.709C206.017 229.034 206.518 229.473 206.85 230.026L206.819 229.041V224.032L208.53 223.928V239.826H207.057L206.829 238.177ZM221.67 240.065C219.996 240.065 218.686 239.522 217.739 238.436C216.799 237.351 216.329 235.93 216.329 234.174C216.336 232.404 216.816 230.97 217.77 229.87C218.731 228.764 220.045 228.211 221.711 228.211C222.299 228.211 222.866 228.284 223.412 228.429C223.965 228.574 224.401 228.764 224.719 228.999L224.242 230.347C223.433 229.912 222.579 229.694 221.68 229.694C220.581 229.694 219.71 230.095 219.067 230.897C218.43 231.699 218.112 232.795 218.112 234.185C218.112 235.54 218.427 236.615 219.056 237.41C219.692 238.198 220.57 238.592 221.69 238.592C222.582 238.592 223.495 238.35 224.428 237.866L224.646 239.245C223.892 239.792 222.9 240.065 221.67 240.065ZM230.184 238.665C231.007 238.665 231.729 238.44 232.351 237.991C232.981 237.534 233.385 236.922 233.565 236.155V234.236C233.53 234.236 233.319 234.254 232.932 234.288C232.552 234.323 232.303 234.344 232.185 234.35C230.685 234.482 229.638 234.727 229.043 235.087C228.455 235.446 228.162 236.024 228.162 236.819C228.162 237.427 228.341 237.887 228.701 238.198C229.06 238.509 229.555 238.665 230.184 238.665ZM233.948 239.826C233.845 239.384 233.745 238.907 233.648 238.395C233.019 239.024 232.427 239.46 231.874 239.702C231.321 239.944 230.671 240.065 229.925 240.065C228.86 240.065 228.003 239.788 227.353 239.235C226.71 238.675 226.388 237.873 226.388 236.829C226.388 235.668 226.827 234.807 227.705 234.247C228.59 233.687 229.862 233.338 231.522 233.199C231.75 233.179 232.092 233.151 232.548 233.116C233.012 233.075 233.357 233.044 233.585 233.023V232.017C233.585 231.215 233.399 230.62 233.025 230.233C232.652 229.846 232.064 229.653 231.262 229.653C230.142 229.653 229.012 229.929 227.871 230.482C227.837 230.399 227.747 230.161 227.602 229.767C227.456 229.366 227.38 229.158 227.373 229.144C227.878 228.861 228.476 228.636 229.168 228.47C229.866 228.297 230.575 228.211 231.294 228.211C232.711 228.211 233.731 228.522 234.353 229.144C234.982 229.76 235.297 230.811 235.297 232.297V239.826H233.948ZM238.283 239.826V228.45H239.735L239.953 230.078C240.403 229.518 240.963 229.068 241.633 228.73C242.311 228.384 243.04 228.211 243.821 228.211C245.135 228.211 246.106 228.581 246.736 229.321C247.365 230.054 247.679 231.184 247.679 232.712V239.826H245.947C245.947 235.263 245.944 232.819 245.937 232.494C245.909 231.526 245.712 230.817 245.346 230.368C244.986 229.919 244.381 229.694 243.531 229.694C242.639 229.694 241.896 229.908 241.301 230.337C240.707 230.766 240.32 231.322 240.14 232.007C240.071 232.47 240.036 233.002 240.036 233.604V239.826H238.283ZM250.562 239.826V228.45H252.014L252.232 230.078C252.681 229.518 253.241 229.068 253.912 228.73C254.59 228.384 255.319 228.211 256.1 228.211C257.414 228.211 258.385 228.581 259.014 229.321C259.644 230.054 259.958 231.184 259.958 232.712V239.826H258.226C258.226 235.263 258.223 232.819 258.216 232.494C258.188 231.526 257.991 230.817 257.625 230.368C257.265 229.919 256.66 229.694 255.81 229.694C254.918 229.694 254.175 229.908 253.58 230.337C252.986 230.766 252.598 231.322 252.419 232.007C252.35 232.47 252.315 233.002 252.315 233.604V239.826H250.562ZM264.106 234.164C264.106 235.512 264.404 236.594 264.998 237.41C265.6 238.219 266.474 238.623 267.622 238.623C268.756 238.623 269.61 238.219 270.184 237.41C270.764 236.601 271.055 235.512 271.055 234.143C271.055 232.753 270.768 231.661 270.194 230.866C269.627 230.064 268.759 229.663 267.591 229.663C266.457 229.663 265.593 230.071 264.998 230.887C264.404 231.702 264.106 232.795 264.106 234.164ZM272.849 234.133C272.849 235.896 272.379 237.327 271.439 238.426C270.498 239.519 269.198 240.065 267.539 240.065C265.942 240.065 264.67 239.512 263.723 238.405C262.782 237.299 262.312 235.878 262.312 234.143C262.312 232.373 262.786 230.942 263.733 229.85C264.68 228.757 265.98 228.211 267.632 228.211C269.257 228.211 270.533 228.761 271.459 229.86C272.386 230.952 272.849 232.377 272.849 234.133ZM278.937 240.034C277.817 240.034 277.021 239.76 276.551 239.214C276.081 238.668 275.832 237.787 275.805 236.57V229.735H274.114L274.187 228.595L275.794 228.45L276.385 225.846L277.526 225.805V228.45H280.689V229.735H277.526V236.259C277.526 237.123 277.657 237.731 277.92 238.084C278.183 238.436 278.632 238.613 279.268 238.613C279.497 238.613 279.991 238.557 280.751 238.447L280.824 239.816C280.001 239.961 279.372 240.034 278.937 240.034ZM100.944 269.826V263.905C100.944 263.351 100.93 262.888 100.903 262.515C100.882 262.141 100.827 261.761 100.737 261.374C100.654 260.987 100.533 260.683 100.374 260.461C100.222 260.233 100.008 260.05 99.731 259.912C99.4544 259.767 99.1225 259.694 98.7354 259.694C97.9748 259.694 97.325 259.898 96.7857 260.306C96.2533 260.714 95.8731 261.288 95.6449 262.027C95.5827 262.525 95.5516 263.058 95.5516 263.624V269.826H93.8197V263.718C93.8197 263.206 93.8024 262.764 93.7678 262.39C93.7332 262.01 93.6676 261.644 93.5708 261.291C93.474 260.932 93.3426 260.641 93.1767 260.42C93.0177 260.199 92.8033 260.022 92.5337 259.891C92.2641 259.76 91.9426 259.694 91.5692 259.694C90.7396 259.694 90.0413 259.905 89.4743 260.327C88.9143 260.748 88.5375 261.308 88.3439 262.007C88.2817 262.539 88.2506 263.116 88.2506 263.739V269.826H86.5187C86.5049 262.712 86.4979 258.92 86.4979 258.45H87.9498L88.1676 260.078C88.5133 259.552 89.0042 259.11 89.6403 258.75C90.2763 258.391 90.9988 258.211 91.8077 258.211C92.2295 258.211 92.6167 258.256 92.9693 258.346C93.3288 258.429 93.6261 258.536 93.8611 258.667C94.1031 258.799 94.3175 258.958 94.5041 259.144C94.6908 259.324 94.836 259.504 94.9397 259.684C95.0434 259.856 95.1298 260.04 95.199 260.233C96.0286 258.885 97.2973 258.211 99.005 258.211C100.27 258.211 101.197 258.574 101.784 259.3C102.379 260.019 102.676 261.087 102.676 262.504V269.826H100.944ZM106.939 258.45V269.826H105.196V258.45H106.939ZM106.939 254.312V256.365H105.196V254.312H106.939ZM113.835 270.034C112.715 270.034 111.92 269.76 111.45 269.214C110.98 268.668 110.731 267.787 110.703 266.57V259.735H109.013L109.085 258.595L110.693 258.45L111.284 255.846L112.425 255.805V258.45H115.588V259.735H112.425V266.259C112.425 267.123 112.556 267.731 112.819 268.084C113.081 268.436 113.531 268.613 114.167 268.613C114.395 268.613 114.889 268.557 115.65 268.447L115.723 269.816C114.9 269.961 114.271 270.034 113.835 270.034ZM119.612 258.45V269.826H117.869V258.45H119.612ZM119.612 254.312V256.365H117.869V254.312H119.612ZM127.296 268.343C127.884 268.343 128.399 268.239 128.841 268.032C129.284 267.825 129.63 267.538 129.879 267.171C130.127 266.805 130.311 266.397 130.428 265.948C130.553 265.498 130.615 265.007 130.615 264.475V263.635C130.615 263.082 130.553 262.574 130.428 262.11C130.304 261.64 130.11 261.222 129.847 260.856C129.592 260.482 129.246 260.192 128.81 259.984C128.382 259.777 127.88 259.673 127.307 259.673C126.83 259.673 126.394 259.763 126 259.943C125.613 260.123 125.291 260.361 125.035 260.658C124.787 260.949 124.572 261.291 124.392 261.685C124.22 262.072 124.095 262.466 124.019 262.867C123.943 263.268 123.905 263.673 123.905 264.081C123.905 264.482 123.947 264.879 124.029 265.273C124.112 265.668 124.244 266.051 124.424 266.425C124.603 266.798 124.821 267.126 125.077 267.41C125.333 267.686 125.651 267.911 126.031 268.084C126.418 268.257 126.84 268.343 127.296 268.343ZM124.631 275.032L124.475 273.466H126.591C127.179 273.466 127.69 273.425 128.126 273.342C128.561 273.259 128.924 273.121 129.215 272.927C129.505 272.74 129.74 272.529 129.92 272.294C130.1 272.066 130.235 271.765 130.324 271.392C130.421 271.026 130.484 270.659 130.511 270.293C130.546 269.933 130.563 269.491 130.563 268.965V267.959C130.148 268.554 129.668 269.014 129.121 269.339C128.575 269.657 127.88 269.816 127.037 269.816C126.387 269.816 125.786 269.705 125.232 269.484C124.686 269.256 124.223 268.955 123.843 268.582C123.469 268.208 123.148 267.776 122.878 267.285C122.616 266.794 122.422 266.286 122.298 265.761C122.18 265.235 122.121 264.707 122.121 264.174C122.121 263.344 122.222 262.577 122.422 261.872C122.629 261.167 122.934 260.537 123.335 259.984C123.736 259.431 124.261 258.999 124.911 258.688C125.568 258.37 126.318 258.211 127.161 258.211C127.908 258.211 128.558 258.356 129.111 258.647C129.671 258.93 130.172 259.369 130.615 259.964V258.45H132.305V269.007C132.305 269.491 132.291 269.913 132.264 270.272C132.243 270.639 132.184 271.043 132.088 271.485C131.998 271.928 131.873 272.308 131.714 272.626C131.555 272.944 131.33 273.262 131.04 273.58C130.757 273.905 130.414 274.165 130.013 274.358C129.619 274.559 129.128 274.721 128.541 274.846C127.953 274.97 127.289 275.032 126.55 275.032H124.631ZM138.486 268.665C139.309 268.665 140.031 268.44 140.654 267.991C141.283 267.534 141.687 266.922 141.867 266.155V264.236C141.833 264.236 141.622 264.254 141.234 264.288C140.854 264.323 140.605 264.344 140.488 264.35C138.987 264.482 137.94 264.727 137.345 265.087C136.758 265.446 136.464 266.024 136.464 266.819C136.464 267.427 136.644 267.887 137.003 268.198C137.363 268.509 137.857 268.665 138.486 268.665ZM142.251 269.826C142.147 269.384 142.047 268.907 141.95 268.395C141.321 269.024 140.73 269.46 140.177 269.702C139.624 269.944 138.974 270.065 138.227 270.065C137.162 270.065 136.305 269.788 135.655 269.235C135.012 268.675 134.691 267.873 134.691 266.829C134.691 265.668 135.13 264.807 136.008 264.247C136.893 263.687 138.165 263.338 139.824 263.199C140.052 263.179 140.394 263.151 140.851 263.116C141.314 263.075 141.66 263.044 141.888 263.023V262.017C141.888 261.215 141.701 260.62 141.328 260.233C140.954 259.846 140.367 259.653 139.565 259.653C138.445 259.653 137.314 259.929 136.174 260.482C136.139 260.399 136.049 260.161 135.904 259.767C135.759 259.366 135.683 259.158 135.676 259.144C136.18 258.861 136.779 258.636 137.47 258.47C138.168 258.297 138.877 258.211 139.596 258.211C141.013 258.211 142.033 258.522 142.655 259.144C143.284 259.76 143.599 260.811 143.599 262.297V269.826H142.251ZM150.215 270.034C149.095 270.034 148.3 269.76 147.83 269.214C147.36 268.668 147.111 267.787 147.084 266.57V259.735H145.393L145.466 258.595L147.073 258.45L147.664 255.846L148.805 255.805V258.45H151.968V259.735H148.805V266.259C148.805 267.123 148.936 267.731 149.199 268.084C149.462 268.436 149.911 268.613 150.547 268.613C150.776 268.613 151.27 268.557 152.03 268.447L152.103 269.816C151.28 269.961 150.651 270.034 150.215 270.034ZM160.379 260.555C159.874 259.946 159.179 259.642 158.294 259.642C157.409 259.642 156.687 259.957 156.127 260.586C155.567 261.208 155.238 262.062 155.142 263.147H161.146C161.146 262.02 160.89 261.156 160.379 260.555ZM158.637 270.065C156.984 270.065 155.681 269.539 154.727 268.488C153.78 267.437 153.306 265.999 153.306 264.174C153.306 262.411 153.766 260.983 154.685 259.891C155.605 258.792 156.815 258.232 158.315 258.211C159.725 258.211 160.842 258.695 161.665 259.663C162.494 260.624 162.909 261.91 162.909 263.521C162.909 263.604 162.906 263.756 162.899 263.977C162.899 264.198 162.899 264.357 162.899 264.454H155.09C155.11 265.747 155.442 266.756 156.085 267.482C156.735 268.201 157.606 268.561 158.699 268.561C159.902 268.561 161.108 268.243 162.318 267.607L162.588 269.007C161.433 269.712 160.116 270.065 158.637 270.065ZM174.255 270.034C173.135 270.034 172.34 269.76 171.87 269.214C171.399 268.668 171.15 267.787 171.123 266.57V259.735H169.432L169.505 258.595L171.112 258.45L171.704 255.846L172.844 255.805V258.45H176.007V259.735H172.844V266.259C172.844 267.123 172.976 267.731 173.238 268.084C173.501 268.436 173.951 268.613 174.587 268.613C174.815 268.613 175.309 268.557 176.07 268.447L176.142 269.816C175.319 269.961 174.69 270.034 174.255 270.034ZM185.652 269.826V262.95C185.652 261.81 185.469 260.98 185.103 260.461C184.743 259.943 184.11 259.684 183.205 259.684C182.334 259.684 181.597 259.901 180.996 260.337C180.401 260.773 180.014 261.336 179.834 262.027C179.772 262.546 179.741 263.123 179.741 263.759V269.826H178.009V254.032L179.741 253.928V258.553C179.741 258.947 179.727 259.435 179.699 260.015C180.674 258.812 181.967 258.211 183.578 258.211C186.115 258.211 187.384 259.701 187.384 262.681V269.826H185.652ZM196.075 260.555C195.57 259.946 194.875 259.642 193.99 259.642C193.105 259.642 192.383 259.957 191.823 260.586C191.263 261.208 190.934 262.062 190.838 263.147H196.842C196.842 262.02 196.586 261.156 196.075 260.555ZM194.332 270.065C192.68 270.065 191.377 269.539 190.423 268.488C189.475 267.437 189.002 265.999 189.002 264.174C189.002 262.411 189.462 260.983 190.381 259.891C191.301 258.792 192.511 258.232 194.011 258.211C195.421 258.211 196.538 258.695 197.361 259.663C198.19 260.624 198.605 261.91 198.605 263.521C198.605 263.604 198.602 263.756 198.595 263.977C198.595 264.198 198.595 264.357 198.595 264.454H190.786C190.806 265.747 191.138 266.756 191.781 267.482C192.431 268.201 193.302 268.561 194.395 268.561C195.598 268.561 196.804 268.243 198.014 267.607L198.284 269.007C197.129 269.712 195.812 270.065 194.332 270.065ZM215.458 269.826V263.905C215.458 263.351 215.444 262.888 215.416 262.515C215.395 262.141 215.34 261.761 215.25 261.374C215.167 260.987 215.046 260.683 214.887 260.461C214.735 260.233 214.521 260.05 214.244 259.912C213.968 259.767 213.636 259.694 213.249 259.694C212.488 259.694 211.838 259.898 211.299 260.306C210.767 260.714 210.386 261.288 210.158 262.027C210.096 262.525 210.065 263.058 210.065 263.624V269.826H208.333V263.718C208.333 263.206 208.316 262.764 208.281 262.39C208.246 262.01 208.181 261.644 208.084 261.291C207.987 260.932 207.856 260.641 207.69 260.42C207.531 260.199 207.317 260.022 207.047 259.891C206.777 259.76 206.456 259.694 206.082 259.694C205.253 259.694 204.554 259.905 203.988 260.327C203.428 260.748 203.051 261.308 202.857 262.007C202.795 262.539 202.764 263.116 202.764 263.739V269.826H201.032C201.018 262.712 201.011 258.92 201.011 258.45H202.463L202.681 260.078C203.027 259.552 203.517 259.11 204.153 258.75C204.79 258.391 205.512 258.211 206.321 258.211C206.743 258.211 207.13 258.256 207.482 258.346C207.842 258.429 208.139 258.536 208.374 258.667C208.616 258.799 208.831 258.958 209.017 259.144C209.204 259.324 209.349 259.504 209.453 259.684C209.557 259.856 209.643 260.04 209.712 260.233C210.542 258.885 211.81 258.211 213.518 258.211C214.783 258.211 215.71 258.574 216.298 259.3C216.892 260.019 217.189 261.087 217.189 262.504V269.826H215.458ZM220.633 269.951C220.204 269.951 219.865 269.816 219.616 269.546C219.374 269.27 219.253 268.948 219.253 268.582C219.253 268.208 219.374 267.887 219.616 267.617C219.858 267.348 220.197 267.213 220.633 267.213C221.068 267.213 221.407 267.348 221.649 267.617C221.891 267.887 222.012 268.208 222.012 268.582C222.012 268.955 221.891 269.277 221.649 269.546C221.407 269.816 221.068 269.951 220.633 269.951Z" fill="#41516E"/>
<path d="M126.659 55.0875L134.438 49.2526L142.218 44.7143L152.592 41.4727H166.855L180.47 44.7143L190.843 51.1976L197.975 59.6258L201.216 66.7574L203.161 73.889V82.3172L197.326 98.5254L186.953 114.085L185.008 126.403L188.25 138.722L188.898 144.557L186.305 147.798L140.273 147.15L138.328 141.315L135.087 135.48L120.175 136.777L116.285 134.832L114.989 130.293L116.285 123.81L113.044 120.569L114.989 117.327L111.747 114.085L113.044 110.195L108.505 109.547L105.912 106.305L107.857 102.415L115.637 86.8555L118.879 66.1091L126.659 55.0875Z" fill="#E2EBFB" stroke="#586B8D" stroke-width="1.01139"/>
<path d="M205.106 79.6854V79.513C204.315 67.107 199.415 56.8743 190.934 49.9217C190.167 49.2945 189.376 48.6959 188.552 48.131V38.8563C190.726 38.0711 192.279 36.0122 192.279 33.5846C192.279 30.4962 189.747 27.9824 186.637 27.9824C183.527 27.9824 180.995 30.4962 180.995 33.5846C180.995 36.0122 182.553 38.0711 184.723 38.8563V45.7944C180.204 43.3572 175.093 41.6861 169.638 40.8675V38.8565C171.813 38.0712 173.366 36.0123 173.366 33.5847C173.366 30.4964 170.834 27.9825 167.724 27.9825C164.613 27.9825 162.082 30.4964 162.082 33.5847C162.082 36.0123 163.639 38.0712 165.809 38.8565V40.4509C164.724 40.3648 163.635 40.3169 162.525 40.3025C160.105 40.2642 157.674 40.3983 155.253 40.6951V38.8565C157.428 38.0712 158.981 36.0123 158.981 33.5847C158.981 30.4964 156.449 27.9826 153.339 27.9826C150.229 27.9826 147.697 30.4964 147.697 33.5847C147.697 36.0123 149.254 38.0713 151.424 38.8565V41.2698C146.115 42.2753 140.98 44.0134 136.34 46.417V38.8565C138.515 38.0712 140.068 36.0123 140.068 33.5847C140.068 30.4964 137.536 27.9826 134.426 27.9826C131.315 27.9826 128.784 30.4964 128.784 33.5847C128.784 36.0123 130.341 38.0713 132.511 38.8565V48.6244C131.908 49.0026 131.325 49.3953 130.746 49.8119C126.054 53.1204 122.24 57.0803 119.424 61.6051C116.386 66.4699 114.582 71.8757 114.052 77.6651C113.917 79.1973 113.917 80.5476 113.926 81.8452C113.95 86.528 113.965 90.574 106.085 100.611C106.047 100.658 105.998 100.721 105.96 100.783C103.91 104.082 103.443 106.668 104.552 108.712C105.69 110.795 108.096 111.542 110.377 111.839C110.155 112.648 110.194 113.385 110.329 113.97C110.575 115.124 111.269 116.115 112.132 116.886C111.206 118.04 111.096 119.227 111.11 119.854C111.158 121.607 112.219 123.239 113.95 124.326C112.209 129.105 112.345 132.639 114.37 135.09C117.283 138.633 123.407 139.27 134.691 137.163L136.557 144.776C137.213 147.463 139.619 149.349 142.407 149.349H185.156C187.205 149.349 189.033 148.382 190.166 146.687C191.304 144.997 191.497 142.962 190.721 141.085C182.991 122.517 188.401 115.037 194.661 106.385C199.411 99.8392 204.759 92.4456 205.106 79.6854ZM186.636 31.7848C187.635 31.7848 188.45 32.594 188.45 33.5852C188.45 34.5763 187.635 35.3856 186.636 35.3856C185.638 35.3856 184.823 34.5764 184.823 33.5852C184.823 32.5941 185.638 31.7848 186.636 31.7848ZM167.738 31.7848C168.736 31.7848 169.551 32.594 169.551 33.5852C169.551 34.5763 168.736 35.3856 167.738 35.3856C166.734 35.3856 165.919 34.5764 165.919 33.5852C165.919 32.5941 166.734 31.7848 167.738 31.7848ZM153.367 31.7848C154.365 31.7848 155.18 32.594 155.18 33.5852C155.18 34.5763 154.365 35.3856 153.367 35.3856C152.368 35.3856 151.554 34.5764 151.554 33.5852C151.549 32.5941 152.364 31.7848 153.367 31.7848ZM134.454 31.7848C135.452 31.7848 136.267 32.594 136.267 33.5852C136.267 34.5763 135.453 35.3856 134.454 35.3856C133.456 35.3856 132.641 34.5764 132.641 33.5852C132.636 32.5941 133.451 31.7848 134.454 31.7848ZM184.722 50.1088V54.7198L176.91 54.715C175.849 54.715 174.995 55.5625 174.995 56.6159V66.0533H169.638V44.7029C174.918 45.5456 180.107 47.2886 184.722 50.1088ZM178.043 81.2409L179.514 84.0946L176.808 86.7807L173.934 85.3204C172.922 84.8032 171.774 84.8415 170.8 85.4161C169.218 86.3354 167.516 87.0345 165.736 87.4989C164.651 87.7814 163.788 88.5906 163.465 89.6297L162.467 92.6702H158.638L157.64 89.6297C157.283 88.5619 156.454 87.7767 155.354 87.4989C153.589 87.0345 151.887 86.3354 150.305 85.4257C149.331 84.8511 148.159 84.8272 147.156 85.3299L144.282 86.7903L141.577 84.1041L143.033 81.2504C143.54 80.2593 143.515 79.1197 142.946 78.1381C142.021 76.5676 141.317 74.8773 140.849 73.1249C140.564 72.0572 139.764 71.2001 138.688 70.8553L135.626 69.8737H148.414C149.34 75.6818 154.413 80.1443 160.523 80.1443C166.633 80.1443 171.706 75.6818 172.632 69.8737H185.42L182.358 70.8649C181.297 71.2096 180.492 72.0523 180.212 73.1345C179.744 74.887 179.04 76.5772 178.124 78.1477C177.56 79.0957 177.527 80.2354 178.043 81.2409ZM152.341 69.8546H168.761C167.897 73.5558 164.536 76.3281 160.553 76.3281C156.551 76.3281 153.204 73.5558 152.341 69.8546ZM161.821 44.0889H162.487C163.596 44.1033 164.71 44.1512 165.819 44.2469V66.0521H155.277V44.5056C157.467 44.2231 159.651 44.0889 161.821 44.0889ZM151.453 45.128V66.0518H146.096V56.6144C146.096 55.561 145.242 54.7135 144.181 54.7135H136.369V50.7058C141.008 48.0579 146.168 46.1862 151.453 45.128ZM187.229 142.519C187.523 143.228 187.465 143.917 187.031 144.568C186.597 145.205 185.98 145.536 185.204 145.536L142.44 145.531C141.403 145.531 140.549 144.856 140.303 143.864L138.008 134.489C137.796 133.618 137.019 133.043 136.156 133.043C136.031 133.043 135.896 133.058 135.775 133.082C125.494 135.164 119.307 135.03 117.384 132.679C115.826 130.793 116.964 126.981 118.199 124.123C118.411 123.634 118.411 123.093 118.184 122.605C117.962 122.117 117.552 121.748 117.06 121.59C115.739 121.149 115.026 120.302 114.997 119.737C114.982 119.296 115.503 118.832 116.405 118.463C117.157 118.157 117.639 117.41 117.591 116.61C117.552 115.801 116.998 115.116 116.221 114.882C115.358 114.637 114.297 113.838 114.133 113.153C114.008 112.588 114.688 111.913 115.098 111.573C115.691 111.056 115.913 110.237 115.652 109.5C115.392 108.762 114.702 108.26 113.911 108.236L113.69 108.221C112.171 108.173 108.626 108.073 107.985 106.885C107.85 106.627 107.527 105.588 109.219 102.839C117.846 91.8218 117.822 86.9522 117.798 81.8052C117.798 80.5938 117.784 79.3298 117.909 77.9795C118.898 67.1917 124.626 58.855 132.564 53.1577V56.6003C132.564 57.6537 133.417 58.5013 134.478 58.5013H142.29V66.0378H133.745C132.684 66.0378 131.831 66.8853 131.831 67.9387V70.2322C131.831 71.6544 132.742 72.8945 134.087 73.3206L137.246 74.3357C137.777 76.2366 138.529 78.0609 139.503 79.7559L138.008 82.6862C137.352 83.9502 137.588 85.4681 138.601 86.4736L141.871 89.7199C142.869 90.711 144.402 90.96 145.67 90.3184L148.631 88.8245C150.348 89.7917 152.185 90.553 154.09 91.0653L155.112 94.2159C155.556 95.5517 156.815 96.4471 158.223 96.4471H162.852C164.27 96.4471 165.533 95.5422 165.962 94.2063L166.999 91.0701C168.899 90.5434 170.741 89.7964 172.458 88.8292L175.419 90.3232C176.692 90.96 178.211 90.7158 179.219 89.7247L182.488 86.4784C183.486 85.4872 183.737 83.9646 183.091 82.7053L181.586 79.7654C182.56 78.0513 183.327 76.2222 183.858 74.3357L187.007 73.3206C188.366 72.8896 189.278 71.6399 189.278 70.2322V67.9387C189.278 66.8853 188.424 66.0378 187.363 66.0378H178.818V58.5013H186.63C187.691 58.5013 188.545 57.6538 188.545 56.6003V52.7985C195.47 58.4486 200.456 67.129 201.271 79.6551C200.938 91.1898 196.184 97.7732 191.578 104.132C184.957 113.331 178.684 121.997 187.229 142.519Z" fill="#586B8D"/>
</svg>
