<svg width="309" height="322" viewBox="0 0 309 322" fill="none" xmlns="http://www.w3.org/2000/svg">
<path d="M58.7091 206.288C60.3062 207.076 62.0174 207.47 63.8426 207.47C66.0896 207.47 67.2131 206.447 67.2131 204.4C67.2131 203.737 67.0333 203.201 66.6738 202.793C66.3212 202.378 65.6748 202.053 64.7345 201.818L61.6855 201.051C59.3556 200.463 58.1906 199.219 58.1906 197.317C58.1906 195.858 58.6918 194.776 59.6943 194.071C60.6968 193.359 62.0831 193.003 63.853 193.003C64.7794 193.003 65.6471 193.103 66.456 193.304C67.265 193.504 67.9425 193.774 68.4887 194.113L67.9702 195.575C67.5069 195.319 66.8916 195.091 66.1242 194.891C65.3637 194.69 64.5928 194.59 63.8115 194.59C61.3087 194.59 60.0573 195.457 60.0573 197.193C60.0573 197.78 60.2474 198.254 60.6277 198.614C61.0149 198.966 61.5922 199.236 62.3596 199.423L65.2738 200.128C66.5183 200.425 67.462 200.902 68.105 201.559C68.748 202.209 69.0695 203.135 69.0695 204.338C69.0695 205.901 68.5889 207.08 67.6279 207.875C66.6738 208.663 65.374 209.057 63.7285 209.057C62.4979 209.057 61.4021 208.932 60.441 208.684C59.4869 208.428 58.7299 208.127 58.1699 207.781L58.7091 206.288ZM75.043 209.026C73.9229 209.026 73.1279 208.753 72.6577 208.206C72.1876 207.66 71.9387 206.779 71.911 205.562V198.728H70.2206L70.2932 197.587L71.9007 197.442L72.4918 194.839L73.6326 194.797V197.442H76.7956V198.728H73.6326V205.251C73.6326 206.115 73.7639 206.723 74.0266 207.076C74.2894 207.429 74.7388 207.605 75.3748 207.605C75.603 207.605 76.0973 207.55 76.8578 207.439L76.9304 208.808C76.1077 208.953 75.4785 209.026 75.043 209.026ZM78.3823 205.023V197.442H80.1246V205.043C80.1246 205.541 80.1937 205.963 80.332 206.309C80.4772 206.654 80.6812 206.924 80.9439 207.118C81.2135 207.304 81.5143 207.439 81.8461 207.522C82.1849 207.605 82.5721 207.646 83.0077 207.646C83.9065 207.646 84.6048 207.449 85.1025 207.055C85.6073 206.661 85.8596 205.991 85.8596 205.043V197.442H87.6019V205.023C87.6019 205.603 87.5189 206.125 87.353 206.589C87.1871 207.052 86.9624 207.439 86.6789 207.75C86.4023 208.054 86.067 208.307 85.6729 208.507C85.2788 208.708 84.8606 208.853 84.4181 208.943C83.9825 209.033 83.5124 209.078 83.0077 209.078C82.5099 209.078 82.0397 209.033 81.5972 208.943C81.1548 208.853 80.733 208.708 80.332 208.507C79.9379 208.3 79.5957 208.044 79.3053 207.74C79.0219 207.429 78.7972 207.042 78.6312 206.578C78.4653 206.115 78.3823 205.597 78.3823 205.023ZM94.6228 207.564C95.7636 207.564 96.6106 207.197 97.1637 206.464C97.7237 205.731 98.0037 204.684 98.0037 203.322C98.0037 201.787 97.734 200.632 97.1948 199.858C96.6624 199.077 95.7982 198.686 94.6021 198.686C94.0697 198.686 93.5996 198.8 93.1917 199.028C92.7838 199.257 92.4554 199.575 92.2065 199.983C91.9576 200.39 91.7674 200.861 91.6361 201.393C91.5116 201.918 91.4494 202.496 91.4494 203.125C91.4494 204.01 91.5566 204.777 91.7709 205.427C91.9921 206.077 92.3447 206.596 92.8287 206.983C93.3127 207.37 93.9107 207.564 94.6228 207.564ZM98.0348 207.169C97.6615 207.743 97.1637 208.2 96.5414 208.538C95.9192 208.877 95.2243 209.047 94.4569 209.047C92.9566 209.047 91.7813 208.514 90.9309 207.449C90.0805 206.378 89.6553 204.922 89.6553 203.083C89.6553 201.327 90.0874 199.91 90.9516 198.831C91.8158 197.746 92.9739 197.203 94.4258 197.203C95.1794 197.203 95.8881 197.369 96.5518 197.701C97.2224 198.026 97.7237 198.465 98.0555 199.018L98.0244 198.033V193.024L99.7356 192.92V208.818H98.263L98.0348 207.169ZM109.308 199.547C108.803 198.939 108.108 198.634 107.223 198.634C106.338 198.634 105.616 198.949 105.056 199.578C104.496 200.2 104.167 201.054 104.071 202.14H110.075C110.075 201.013 109.819 200.148 109.308 199.547ZM107.565 209.057C105.913 209.057 104.61 208.531 103.656 207.481C102.709 206.43 102.235 204.992 102.235 203.166C102.235 201.403 102.695 199.976 103.614 198.883C104.534 197.784 105.744 197.224 107.244 197.203C108.654 197.203 109.771 197.687 110.594 198.655C111.423 199.616 111.838 200.902 111.838 202.513C111.838 202.596 111.835 202.748 111.828 202.969C111.828 203.191 111.828 203.35 111.828 203.446H104.019C104.039 204.739 104.371 205.749 105.014 206.475C105.664 207.194 106.535 207.553 107.628 207.553C108.831 207.553 110.037 207.235 111.247 206.599L111.517 207.999C110.362 208.704 109.045 209.057 107.565 209.057ZM114.244 208.818V197.442H115.696L115.914 199.07C116.363 198.51 116.923 198.06 117.594 197.722C118.271 197.376 119.001 197.203 119.782 197.203C121.096 197.203 122.067 197.573 122.696 198.313C123.325 199.046 123.64 200.176 123.64 201.704V208.818H121.908C121.908 204.255 121.905 201.811 121.898 201.486C121.87 200.518 121.673 199.81 121.307 199.36C120.947 198.911 120.342 198.686 119.492 198.686C118.6 198.686 117.857 198.901 117.262 199.329C116.667 199.758 116.28 200.314 116.101 200.999C116.031 201.462 115.997 201.994 115.997 202.596V208.818H114.244ZM130.153 209.026C129.033 209.026 128.238 208.753 127.768 208.206C127.297 207.66 127.049 206.779 127.021 205.562V198.728H125.33L125.403 197.587L127.011 197.442L127.602 194.839L128.742 194.797V197.442H131.905V198.728H128.742V205.251C128.742 206.115 128.874 206.723 129.137 207.076C129.399 207.429 129.849 207.605 130.485 207.605C130.713 207.605 131.207 207.55 131.968 207.439L132.04 208.808C131.218 208.953 130.588 209.026 130.153 209.026ZM137.278 209.057C136.503 209.057 135.788 208.974 135.131 208.808C134.481 208.642 133.952 208.428 133.544 208.165L133.762 206.703C134.916 207.318 136.05 207.626 137.163 207.626C138.85 207.626 139.718 207.031 139.766 205.842C139.766 205.337 139.587 204.94 139.227 204.649C138.868 204.359 138.162 204.034 137.112 203.674L136.251 203.374C135.255 203.042 134.543 202.631 134.114 202.14C133.693 201.649 133.478 201.037 133.471 200.304C133.471 199.412 133.828 198.672 134.54 198.085C135.259 197.497 136.24 197.203 137.485 197.203C138.771 197.203 139.943 197.452 141.001 197.95L140.492 199.277C139.421 198.835 138.418 198.614 137.485 198.614C136.759 198.614 136.189 198.759 135.774 199.049C135.366 199.333 135.162 199.734 135.162 200.252C135.162 200.695 135.311 201.033 135.608 201.268C135.905 201.504 136.5 201.773 137.392 202.077C137.62 202.16 137.907 202.257 138.252 202.368C139.4 202.741 140.212 203.184 140.689 203.695C141.167 204.2 141.405 204.884 141.405 205.749C141.391 206.8 141.014 207.615 140.275 208.196C139.535 208.77 138.536 209.057 137.278 209.057ZM152.377 207.657C153.2 207.657 153.922 207.432 154.545 206.983C155.174 206.526 155.578 205.915 155.758 205.147V203.229C155.724 203.229 155.513 203.246 155.125 203.28C154.745 203.315 154.496 203.336 154.379 203.343C152.878 203.474 151.831 203.719 151.236 204.079C150.649 204.438 150.355 205.016 150.355 205.811C150.355 206.419 150.535 206.879 150.894 207.19C151.254 207.501 151.748 207.657 152.377 207.657ZM156.142 208.818C156.038 208.376 155.938 207.899 155.841 207.387C155.212 208.016 154.621 208.452 154.068 208.694C153.515 208.936 152.865 209.057 152.118 209.057C151.053 209.057 150.196 208.78 149.546 208.227C148.903 207.667 148.582 206.865 148.582 205.821C148.582 204.66 149.021 203.799 149.899 203.239C150.784 202.679 152.056 202.33 153.715 202.191C153.943 202.171 154.285 202.143 154.742 202.109C155.205 202.067 155.551 202.036 155.779 202.015V201.009C155.779 200.207 155.592 199.613 155.219 199.225C154.845 198.838 154.258 198.645 153.456 198.645C152.336 198.645 151.205 198.921 150.065 199.474C150.03 199.391 149.94 199.153 149.795 198.759C149.65 198.358 149.574 198.15 149.567 198.137C150.071 197.853 150.67 197.628 151.361 197.462C152.059 197.29 152.768 197.203 153.487 197.203C154.904 197.203 155.924 197.514 156.546 198.137C157.175 198.752 157.49 199.803 157.49 201.289V208.818H156.142ZM165.289 209.057C163.616 209.057 162.305 208.514 161.358 207.429C160.418 206.343 159.948 204.922 159.948 203.166C159.955 201.396 160.435 199.962 161.389 198.862C162.35 197.756 163.664 197.203 165.33 197.203C165.918 197.203 166.485 197.276 167.031 197.421C167.584 197.566 168.02 197.756 168.338 197.991L167.861 199.34C167.052 198.904 166.198 198.686 165.299 198.686C164.2 198.686 163.329 199.087 162.686 199.889C162.05 200.691 161.732 201.787 161.732 203.177C161.732 204.532 162.046 205.607 162.675 206.402C163.311 207.19 164.189 207.584 165.309 207.584C166.201 207.584 167.114 207.342 168.047 206.858L168.265 208.238C167.512 208.784 166.519 209.057 165.289 209.057ZM175.618 197.338C175.929 197.338 176.213 197.359 176.468 197.4L176.406 198.997C176.088 198.942 175.812 198.914 175.576 198.914C174.609 198.914 173.82 199.253 173.212 199.931C172.61 200.601 172.31 201.434 172.31 202.43V208.818H170.578C170.571 201.835 170.567 198.043 170.567 197.442H172.009L172.175 199.485C172.569 198.842 173.07 198.323 173.679 197.929C174.287 197.535 174.934 197.338 175.618 197.338ZM179.31 203.156C179.31 204.504 179.607 205.586 180.202 206.402C180.803 207.211 181.678 207.615 182.826 207.615C183.959 207.615 184.813 207.211 185.387 206.402C185.968 205.593 186.258 204.504 186.258 203.135C186.258 201.746 185.971 200.653 185.398 199.858C184.831 199.056 183.963 198.655 182.794 198.655C181.661 198.655 180.796 199.063 180.202 199.879C179.607 200.695 179.31 201.787 179.31 203.156ZM188.052 203.125C188.052 204.888 187.582 206.319 186.642 207.418C185.702 208.511 184.402 209.057 182.743 209.057C181.146 209.057 179.873 208.504 178.926 207.398C177.986 206.291 177.516 204.871 177.516 203.135C177.516 201.365 177.989 199.934 178.937 198.842C179.884 197.749 181.184 197.203 182.836 197.203C184.461 197.203 185.736 197.753 186.663 198.852C187.589 199.945 188.052 201.369 188.052 203.125ZM193.901 209.057C193.127 209.057 192.412 208.974 191.755 208.808C191.105 208.642 190.576 208.428 190.168 208.165L190.386 206.703C191.54 207.318 192.674 207.626 193.787 207.626C195.474 207.626 196.342 207.031 196.39 205.842C196.39 205.337 196.211 204.94 195.851 204.649C195.492 204.359 194.786 204.034 193.736 203.674L192.875 203.374C191.879 203.042 191.167 202.631 190.738 202.14C190.317 201.649 190.102 201.037 190.095 200.304C190.095 199.412 190.452 198.672 191.164 198.085C191.883 197.497 192.864 197.203 194.109 197.203C195.395 197.203 196.567 197.452 197.625 197.95L197.116 199.277C196.045 198.835 195.042 198.614 194.109 198.614C193.383 198.614 192.813 198.759 192.398 199.049C191.99 199.333 191.786 199.734 191.786 200.252C191.786 200.695 191.935 201.033 192.232 201.268C192.529 201.504 193.124 201.773 194.016 202.077C194.244 202.16 194.531 202.257 194.876 202.368C196.024 202.741 196.836 203.184 197.313 203.695C197.791 204.2 198.029 204.884 198.029 205.749C198.015 206.8 197.638 207.615 196.899 208.196C196.159 208.77 195.16 209.057 193.901 209.057ZM203.795 209.057C203.021 209.057 202.305 208.974 201.648 208.808C200.999 208.642 200.47 208.428 200.062 208.165L200.279 206.703C201.434 207.318 202.568 207.626 203.681 207.626C205.368 207.626 206.236 207.031 206.284 205.842C206.284 205.337 206.104 204.94 205.745 204.649C205.385 204.359 204.68 204.034 203.629 203.674L202.768 203.374C201.773 203.042 201.061 202.631 200.632 202.14C200.21 201.649 199.996 201.037 199.989 200.304C199.989 199.412 200.345 198.672 201.057 198.085C201.776 197.497 202.758 197.203 204.003 197.203C205.289 197.203 206.46 197.452 207.518 197.95L207.01 199.277C205.938 198.835 204.936 198.614 204.003 198.614C203.277 198.614 202.706 198.759 202.291 199.049C201.883 199.333 201.68 199.734 201.68 200.252C201.68 200.695 201.828 201.033 202.125 201.268C202.423 201.504 203.017 201.773 203.909 202.077C204.137 202.16 204.424 202.257 204.77 202.368C205.918 202.741 206.73 203.184 207.207 203.695C207.684 204.2 207.923 204.884 207.923 205.749C207.909 206.8 207.532 207.615 206.792 208.196C206.052 208.77 205.053 209.057 203.795 209.057ZM227.191 208.818H224.993L219.123 201.497L217.723 202.731V208.818H215.918V193.48H217.723V201.009L224.464 193.48H226.714L220.492 200.387L227.191 208.818ZM227.897 203.664V202.14H233.082V203.664H227.897ZM237.106 193.304H238.755V208.818H236.919V195.222C236.221 195.679 235.367 196.069 234.358 196.394V194.662C234.468 194.614 234.693 194.517 235.032 194.372C235.37 194.227 235.623 194.116 235.789 194.04C235.962 193.964 236.176 193.857 236.432 193.719C236.688 193.58 236.912 193.442 237.106 193.304ZM241.638 208.818L241.399 207.118L246.761 201.165C247.12 200.764 247.466 200.245 247.798 199.609C248.137 198.973 248.382 198.434 248.534 197.991L248.773 197.338C248.773 196.481 248.534 195.817 248.057 195.347C247.58 194.87 246.903 194.631 246.025 194.631C244.559 194.631 243.404 195.056 242.561 195.907L241.959 194.351C242.913 193.452 244.31 193.003 246.149 193.003C247.559 193.003 248.683 193.387 249.52 194.154C250.356 194.915 250.774 195.935 250.774 197.214C250.747 197.31 250.705 197.442 250.65 197.608C250.595 197.767 250.474 198.081 250.287 198.551C250.107 199.022 249.917 199.467 249.717 199.889C249.516 200.311 249.26 200.774 248.949 201.279C248.645 201.784 248.334 202.205 248.016 202.544L243.639 207.221H250.826L250.712 208.818H241.638ZM24.6518 227.547C24.1471 226.939 23.4522 226.634 22.5673 226.634C21.6823 226.634 20.9598 226.949 20.3998 227.578C19.8398 228.2 19.5114 229.054 19.4146 230.14H25.4192C25.4192 229.013 25.1634 228.148 24.6518 227.547ZM22.9095 237.057C21.2571 237.057 19.9539 236.531 18.9997 235.481C18.0526 234.43 17.579 232.992 17.579 231.166C17.579 229.403 18.0387 227.976 18.9583 226.883C19.8778 225.784 21.0877 225.224 22.588 225.203C23.9984 225.203 25.115 225.687 25.9377 226.655C26.7674 227.616 27.1822 228.902 27.1822 230.513C27.1822 230.596 27.1788 230.748 27.1719 230.969C27.1719 231.191 27.1719 231.35 27.1719 231.446H19.3627C19.3835 232.739 19.7153 233.749 20.3583 234.475C21.0082 235.194 21.8793 235.553 22.9717 235.553C24.1747 235.553 25.3812 235.235 26.5911 234.599L26.8607 235.999C25.7061 236.704 24.3891 237.057 22.9095 237.057ZM34.0269 235.564C35.1677 235.564 36.0146 235.197 36.5677 234.464C37.1277 233.731 37.4077 232.684 37.4077 231.322C37.4077 229.787 37.1381 228.632 36.5988 227.858C36.0665 227.077 35.2022 226.686 34.0061 226.686C33.4738 226.686 33.0036 226.8 32.5957 227.028C32.1878 227.257 31.8594 227.575 31.6105 227.983C31.3616 228.39 31.1715 228.861 31.0401 229.393C30.9157 229.918 30.8535 230.496 30.8535 231.125C30.8535 232.01 30.9606 232.777 31.1749 233.427C31.3962 234.077 31.7488 234.596 32.2328 234.983C32.7167 235.37 33.3148 235.564 34.0269 235.564ZM37.4388 235.169C37.0655 235.743 36.5677 236.2 35.9455 236.538C35.3232 236.877 34.6284 237.047 33.861 237.047C32.3607 237.047 31.1853 236.514 30.3349 235.449C29.4845 234.378 29.0593 232.922 29.0593 231.083C29.0593 229.327 29.4914 227.91 30.3557 226.831C31.2199 225.746 32.3779 225.203 33.8298 225.203C34.5834 225.203 35.2921 225.369 35.9558 225.701C36.6265 226.026 37.1277 226.465 37.4596 227.018L37.4285 226.033V221.024L39.1396 220.92V236.818H37.667L37.4388 235.169ZM41.7634 233.023V225.442H43.5057V233.043C43.5057 233.541 43.5748 233.963 43.7131 234.309C43.8583 234.654 44.0623 234.924 44.325 235.118C44.5946 235.304 44.8954 235.439 45.2272 235.522C45.566 235.605 45.9532 235.646 46.3888 235.646C47.2875 235.646 47.9858 235.449 48.4836 235.055C48.9883 234.661 49.2407 233.991 49.2407 233.043V225.442H50.983V233.023C50.983 233.603 50.9 234.125 50.7341 234.589C50.5681 235.052 50.3434 235.439 50.06 235.75C49.7834 236.054 49.4481 236.307 49.054 236.507C48.6599 236.708 48.2416 236.853 47.7992 236.943C47.3636 237.033 46.8935 237.078 46.3888 237.078C45.891 237.078 45.4208 237.033 44.9783 236.943C44.5359 236.853 44.1141 236.708 43.7131 236.507C43.319 236.3 42.9768 236.044 42.6864 235.74C42.4029 235.429 42.1782 235.042 42.0123 234.578C41.8464 234.115 41.7634 233.597 41.7634 233.023ZM58.3773 237.057C56.7041 237.057 55.394 236.514 54.4468 235.429C53.5065 234.343 53.0364 232.922 53.0364 231.166C53.0433 229.396 53.5238 227.962 54.4779 226.862C55.4389 225.756 56.7525 225.203 58.4188 225.203C59.0064 225.203 59.5734 225.276 60.1195 225.421C60.6727 225.566 61.1082 225.756 61.4263 225.991L60.9492 227.34C60.1403 226.904 59.2864 226.686 58.3876 226.686C57.2883 226.686 56.4172 227.087 55.7742 227.889C55.1382 228.691 54.8201 229.787 54.8201 231.177C54.8201 232.532 55.1347 233.607 55.7639 234.402C56.3999 235.19 57.278 235.584 58.398 235.584C59.2899 235.584 60.2025 235.342 61.1359 234.858L61.3537 236.238C60.6001 236.784 59.6079 237.057 58.3773 237.057ZM66.8916 235.657C67.7144 235.657 68.4368 235.432 69.0591 234.983C69.6882 234.526 70.0927 233.915 70.2725 233.147V231.229C70.2379 231.229 70.027 231.246 69.6398 231.28C69.2596 231.315 69.0107 231.336 68.8932 231.343C67.3929 231.474 66.3454 231.719 65.7508 232.079C65.1632 232.438 64.8693 233.016 64.8693 233.811C64.8693 234.419 65.0491 234.879 65.4086 235.19C65.7681 235.501 66.2625 235.657 66.8916 235.657ZM70.6562 236.818C70.5525 236.376 70.4522 235.899 70.3554 235.387C69.7263 236.016 69.1351 236.452 68.582 236.694C68.0289 236.936 67.379 237.057 66.6323 237.057C65.5676 237.057 64.7103 236.78 64.0604 236.227C63.4174 235.667 63.0959 234.865 63.0959 233.821C63.0959 232.66 63.535 231.799 64.413 231.239C65.298 230.679 66.5701 230.33 68.2294 230.191C68.4576 230.171 68.7998 230.143 69.2561 230.109C69.7194 230.067 70.065 230.036 70.2932 230.015V229.009C70.2932 228.207 70.1065 227.613 69.7332 227.225C69.3598 226.838 68.7722 226.645 67.9702 226.645C66.8501 226.645 65.7197 226.921 64.5789 227.474C64.5444 227.391 64.4545 227.153 64.3093 226.759C64.1641 226.358 64.0881 226.15 64.0812 226.137C64.5859 225.853 65.1839 225.628 65.8753 225.462C66.5736 225.29 67.2822 225.203 68.0013 225.203C69.4186 225.203 70.4384 225.514 71.0606 226.137C71.6898 226.752 72.0044 227.803 72.0044 229.289V236.818H70.6562ZM78.6209 237.026C77.5008 237.026 76.7057 236.753 76.2356 236.206C75.7655 235.66 75.5166 234.779 75.4889 233.562V226.728H73.7985L73.8711 225.587L75.4785 225.442L76.0697 222.839L77.2105 222.797V225.442H80.3735V226.728H77.2105V233.251C77.2105 234.115 77.3418 234.723 77.6045 235.076C77.8673 235.429 78.3167 235.605 78.9527 235.605C79.1809 235.605 79.6752 235.55 80.4357 235.439L80.5083 236.808C79.6856 236.953 79.0564 237.026 78.6209 237.026ZM84.3973 225.442V236.818H82.6551V225.442H84.3973ZM84.3973 221.304V223.357H82.6551V221.304H84.3973ZM88.9293 231.156C88.9293 232.504 89.2266 233.586 89.8212 234.402C90.4227 235.211 91.2973 235.615 92.445 235.615C93.5789 235.615 94.4327 235.211 95.0066 234.402C95.5873 233.593 95.8777 232.504 95.8777 231.135C95.8777 229.746 95.5908 228.653 95.0169 227.858C94.45 227.056 93.5823 226.655 92.4139 226.655C91.28 226.655 90.4158 227.063 89.8212 227.879C89.2266 228.695 88.9293 229.787 88.9293 231.156ZM97.6718 231.125C97.6718 232.888 97.2017 234.319 96.2614 235.418C95.3211 236.511 94.0214 237.057 92.362 237.057C90.765 237.057 89.4928 236.504 88.5456 235.398C87.6053 234.291 87.1352 232.871 87.1352 231.135C87.1352 229.365 87.6088 227.934 88.556 226.842C89.5032 225.749 90.803 225.203 92.4554 225.203C94.0801 225.203 95.3557 225.753 96.2822 226.852C97.2086 227.945 97.6718 229.369 97.6718 231.125ZM100.13 236.818V225.442H101.582L101.799 227.07C102.249 226.51 102.809 226.06 103.479 225.722C104.157 225.376 104.886 225.203 105.668 225.203C106.981 225.203 107.953 225.573 108.582 226.313C109.211 227.046 109.526 228.176 109.526 229.704V236.818H107.794C107.794 232.255 107.79 229.811 107.783 229.486C107.756 228.518 107.559 227.81 107.192 227.36C106.833 226.911 106.228 226.686 105.377 226.686C104.485 226.686 103.742 226.901 103.148 227.329C102.553 227.758 102.166 228.314 101.986 228.999C101.917 229.462 101.882 229.994 101.882 230.596V236.818H100.13ZM121.006 235.657C121.829 235.657 122.551 235.432 123.173 234.983C123.803 234.526 124.207 233.915 124.387 233.147V231.229C124.352 231.229 124.141 231.246 123.754 231.28C123.374 231.315 123.125 231.336 123.007 231.343C121.507 231.474 120.46 231.719 119.865 232.079C119.277 232.438 118.984 233.016 118.984 233.811C118.984 234.419 119.163 234.879 119.523 235.19C119.882 235.501 120.377 235.657 121.006 235.657ZM124.77 236.818C124.667 236.376 124.566 235.899 124.47 235.387C123.841 236.016 123.249 236.452 122.696 236.694C122.143 236.936 121.493 237.057 120.747 237.057C119.682 237.057 118.825 236.78 118.175 236.227C117.532 235.667 117.21 234.865 117.21 233.821C117.21 232.66 117.649 231.799 118.527 231.239C119.412 230.679 120.684 230.33 122.344 230.191C122.572 230.171 122.914 230.143 123.37 230.109C123.834 230.067 124.179 230.036 124.407 230.015V229.009C124.407 228.207 124.221 227.613 123.847 227.225C123.474 226.838 122.886 226.645 122.084 226.645C120.964 226.645 119.834 226.921 118.693 227.474C118.659 227.391 118.569 227.153 118.424 226.759C118.278 226.358 118.202 226.15 118.195 226.137C118.7 225.853 119.298 225.628 119.99 225.462C120.688 225.29 121.397 225.203 122.116 225.203C123.533 225.203 124.553 225.514 125.175 226.137C125.804 226.752 126.119 227.803 126.119 229.289V236.818H124.77ZM134.208 225.338C134.519 225.338 134.802 225.359 135.058 225.4L134.996 226.997C134.678 226.942 134.401 226.914 134.166 226.914C133.198 226.914 132.41 227.253 131.802 227.931C131.2 228.601 130.9 229.434 130.9 230.43V236.818H129.168C129.161 229.835 129.157 226.043 129.157 225.442H130.599L130.765 227.485C131.159 226.842 131.66 226.323 132.268 225.929C132.877 225.535 133.523 225.338 134.208 225.338ZM143.189 227.547C142.684 226.939 141.989 226.634 141.104 226.634C140.219 226.634 139.497 226.949 138.937 227.578C138.377 228.2 138.048 229.054 137.952 230.14H143.956C143.956 229.013 143.7 228.148 143.189 227.547ZM141.447 237.057C139.794 237.057 138.491 236.531 137.537 235.481C136.59 234.43 136.116 232.992 136.116 231.166C136.116 229.403 136.576 227.976 137.495 226.883C138.415 225.784 139.625 225.224 141.125 225.203C142.535 225.203 143.652 225.687 144.475 226.655C145.304 227.616 145.719 228.902 145.719 230.513C145.719 230.596 145.716 230.748 145.709 230.969C145.709 231.191 145.709 231.35 145.709 231.446H137.9C137.92 232.739 138.252 233.749 138.895 234.475C139.545 235.194 140.416 235.553 141.509 235.553C142.712 235.553 143.918 235.235 145.128 234.599L145.398 235.999C144.243 236.704 142.926 237.057 141.447 237.057ZM158.61 226.645C157.511 226.645 156.667 227.025 156.08 227.785C155.499 228.539 155.208 229.649 155.208 231.114C155.208 234.115 156.339 235.615 158.6 235.615C159.16 235.615 159.651 235.501 160.072 235.273C160.501 235.038 160.836 234.713 161.078 234.298C161.327 233.877 161.51 233.403 161.628 232.877C161.752 232.352 161.815 231.768 161.815 231.125C161.815 230.254 161.711 229.493 161.503 228.843C161.303 228.193 160.957 227.664 160.466 227.257C159.976 226.849 159.357 226.645 158.61 226.645ZM158.786 225.203C159.796 225.203 160.667 225.459 161.4 225.971C162.133 226.482 162.682 227.177 163.049 228.055C163.415 228.933 163.598 229.939 163.598 231.073C163.598 232.248 163.415 233.282 163.049 234.174C162.689 235.066 162.14 235.771 161.4 236.289C160.667 236.801 159.789 237.057 158.766 237.057C158.012 237.057 157.324 236.894 156.702 236.569C156.08 236.245 155.561 235.802 155.146 235.242L154.97 236.818H153.487V221.024L155.219 220.92V224.685C155.219 225.611 155.205 226.406 155.177 227.07C155.578 226.496 156.097 226.043 156.733 225.711C157.376 225.373 158.06 225.203 158.786 225.203ZM172.6 227.547C172.095 226.939 171.401 226.634 170.516 226.634C169.631 226.634 168.908 226.949 168.348 227.578C167.788 228.2 167.46 229.054 167.363 230.14H173.368C173.368 229.013 173.112 228.148 172.6 227.547ZM170.858 237.057C169.205 237.057 167.902 236.531 166.948 235.481C166.001 234.43 165.527 232.992 165.527 231.166C165.527 229.403 165.987 227.976 166.907 226.883C167.826 225.784 169.036 225.224 170.536 225.203C171.947 225.203 173.063 225.687 173.886 226.655C174.716 227.616 175.131 228.902 175.131 230.513C175.131 230.596 175.127 230.748 175.12 230.969C175.12 231.191 175.12 231.35 175.12 231.446H167.311C167.332 232.739 167.664 233.749 168.307 234.475C168.957 235.194 169.828 235.553 170.92 235.553C172.123 235.553 173.329 235.235 174.539 234.599L174.809 235.999C173.654 236.704 172.337 237.057 170.858 237.057ZM179.58 225.442V236.818H177.837V225.442H179.58ZM179.58 221.304V223.357H177.837V221.304H179.58ZM182.846 236.818V225.442H184.298L184.516 227.07C184.965 226.51 185.525 226.06 186.196 225.722C186.874 225.376 187.603 225.203 188.384 225.203C189.698 225.203 190.669 225.573 191.298 226.313C191.928 227.046 192.242 228.176 192.242 229.704V236.818H190.51C190.51 232.255 190.507 229.811 190.5 229.486C190.472 228.518 190.275 227.81 189.909 227.36C189.549 226.911 188.944 226.686 188.094 226.686C187.202 226.686 186.459 226.901 185.864 227.329C185.27 227.758 184.882 228.314 184.703 228.999C184.634 229.462 184.599 229.994 184.599 230.596V236.818H182.846ZM199.543 235.335C200.131 235.335 200.646 235.232 201.088 235.024C201.531 234.817 201.877 234.53 202.125 234.163C202.374 233.797 202.558 233.389 202.675 232.94C202.8 232.49 202.862 231.999 202.862 231.467V230.627C202.862 230.074 202.8 229.566 202.675 229.103C202.551 228.632 202.357 228.214 202.094 227.848C201.839 227.474 201.493 227.184 201.057 226.977C200.629 226.769 200.127 226.665 199.554 226.665C199.076 226.665 198.641 226.755 198.247 226.935C197.86 227.115 197.538 227.353 197.282 227.651C197.033 227.941 196.819 228.283 196.639 228.677C196.467 229.065 196.342 229.459 196.266 229.86C196.19 230.261 196.152 230.665 196.152 231.073C196.152 231.474 196.193 231.872 196.276 232.266C196.359 232.66 196.491 233.043 196.67 233.417C196.85 233.79 197.068 234.119 197.324 234.402C197.58 234.679 197.898 234.903 198.278 235.076C198.665 235.249 199.087 235.335 199.543 235.335ZM196.878 242.024L196.722 240.458H198.838C199.426 240.458 199.937 240.417 200.373 240.334C200.808 240.251 201.171 240.113 201.462 239.919C201.752 239.733 201.987 239.522 202.167 239.287C202.347 239.058 202.482 238.758 202.571 238.384C202.668 238.018 202.73 237.651 202.758 237.285C202.793 236.926 202.81 236.483 202.81 235.958V234.952C202.395 235.546 201.915 236.006 201.368 236.331C200.822 236.649 200.127 236.808 199.284 236.808C198.634 236.808 198.033 236.697 197.479 236.476C196.933 236.248 196.47 235.947 196.09 235.574C195.716 235.201 195.395 234.768 195.125 234.278C194.863 233.787 194.669 233.278 194.544 232.753C194.427 232.228 194.368 231.699 194.368 231.166C194.368 230.337 194.468 229.569 194.669 228.864C194.876 228.159 195.181 227.53 195.582 226.977C195.983 226.423 196.508 225.991 197.158 225.68C197.815 225.362 198.565 225.203 199.408 225.203C200.155 225.203 200.805 225.348 201.358 225.639C201.918 225.922 202.419 226.361 202.862 226.956V225.442H204.552V235.999C204.552 236.483 204.538 236.905 204.511 237.264C204.49 237.631 204.431 238.035 204.334 238.478C204.245 238.92 204.12 239.3 203.961 239.618C203.802 239.936 203.577 240.255 203.287 240.573C203.004 240.897 202.661 241.157 202.26 241.35C201.866 241.551 201.375 241.713 200.788 241.838C200.2 241.962 199.536 242.024 198.796 242.024H196.878ZM219.31 227.547C218.805 226.939 218.11 226.634 217.225 226.634C216.34 226.634 215.618 226.949 215.058 227.578C214.498 228.2 214.169 229.054 214.073 230.14H220.077C220.077 229.013 219.821 228.148 219.31 227.547ZM217.567 237.057C215.915 237.057 214.612 236.531 213.658 235.481C212.71 234.43 212.237 232.992 212.237 231.166C212.237 229.403 212.697 227.976 213.616 226.883C214.536 225.784 215.746 225.224 217.246 225.203C218.656 225.203 219.773 225.687 220.596 226.655C221.425 227.616 221.84 228.902 221.84 230.513C221.84 230.596 221.837 230.748 221.83 230.969C221.83 231.191 221.83 231.35 221.83 231.446H214.021C214.041 232.739 214.373 233.749 215.016 234.475C215.666 235.194 216.537 235.553 217.63 235.553C218.833 235.553 220.039 235.235 221.249 234.599L221.519 235.999C220.364 236.704 219.047 237.057 217.567 237.057ZM227.254 231.032L223.24 225.442H225.221L228.26 229.777L231.309 225.442H233.289L229.266 231.052L233.393 236.818H231.475L228.27 232.245L225.065 236.818H223.085L227.254 231.032ZM235.218 241.755V225.442H236.743L236.909 226.987C237.904 225.798 239.1 225.203 240.497 225.203C241.534 225.203 242.412 225.462 243.131 225.981C243.85 226.5 244.379 227.201 244.718 228.086C245.064 228.971 245.236 230.005 245.236 231.187C245.236 232.321 245.05 233.33 244.676 234.215C244.303 235.093 243.753 235.788 243.027 236.3C242.308 236.805 241.465 237.057 240.497 237.057C239.764 237.057 239.076 236.894 238.433 236.569C237.79 236.238 237.275 235.802 236.888 235.263C236.93 236.009 236.95 236.735 236.95 237.441V241.641L235.218 241.755ZM240.259 235.595C240.784 235.595 241.254 235.477 241.669 235.242C242.084 235 242.419 234.672 242.675 234.257C242.931 233.842 243.124 233.372 243.256 232.846C243.387 232.314 243.453 231.74 243.453 231.125C243.453 229.825 243.18 228.76 242.633 227.931C242.087 227.094 241.289 226.676 240.238 226.676C238.039 226.676 236.94 228.097 236.94 230.938C236.94 232.48 237.196 233.641 237.707 234.423C238.226 235.204 239.076 235.595 240.259 235.595ZM248.949 231.156C248.949 232.504 249.246 233.586 249.841 234.402C250.443 235.211 251.317 235.615 252.465 235.615C253.599 235.615 254.453 235.211 255.026 234.402C255.607 233.593 255.898 232.504 255.898 231.135C255.898 229.746 255.611 228.653 255.037 227.858C254.47 227.056 253.602 226.655 252.434 226.655C251.3 226.655 250.436 227.063 249.841 227.879C249.246 228.695 248.949 229.787 248.949 231.156ZM257.692 231.125C257.692 232.888 257.222 234.319 256.281 235.418C255.341 236.511 254.041 237.057 252.382 237.057C250.785 237.057 249.513 236.504 248.565 235.398C247.625 234.291 247.155 232.871 247.155 231.135C247.155 229.365 247.629 227.934 248.576 226.842C249.523 225.749 250.823 225.203 252.475 225.203C254.1 225.203 255.376 225.753 256.302 226.852C257.228 227.945 257.692 229.369 257.692 231.125ZM263.541 237.057C262.766 237.057 262.051 236.974 261.394 236.808C260.744 236.642 260.215 236.428 259.807 236.165L260.025 234.703C261.18 235.318 262.314 235.626 263.427 235.626C265.114 235.626 265.981 235.031 266.03 233.842C266.03 233.337 265.85 232.94 265.49 232.649C265.131 232.359 264.426 232.034 263.375 231.674L262.514 231.374C261.518 231.042 260.806 230.631 260.378 230.14C259.956 229.649 259.742 229.037 259.735 228.304C259.735 227.412 260.091 226.672 260.803 226.085C261.522 225.497 262.504 225.203 263.748 225.203C265.034 225.203 266.206 225.452 267.264 225.95L266.756 227.277C265.684 226.835 264.681 226.614 263.748 226.614C263.022 226.614 262.452 226.759 262.037 227.049C261.629 227.333 261.425 227.734 261.425 228.252C261.425 228.695 261.574 229.033 261.871 229.268C262.168 229.504 262.763 229.773 263.655 230.077C263.883 230.16 264.17 230.257 264.516 230.368C265.663 230.741 266.476 231.184 266.953 231.695C267.43 232.2 267.668 232.884 267.668 233.749C267.654 234.8 267.278 235.615 266.538 236.196C265.798 236.77 264.799 237.057 263.541 237.057ZM276.597 227.547C276.093 226.939 275.398 226.634 274.513 226.634C273.628 226.634 272.905 226.949 272.345 227.578C271.785 228.2 271.457 229.054 271.36 230.14H277.365C277.365 229.013 277.109 228.148 276.597 227.547ZM274.855 237.057C273.203 237.057 271.899 236.531 270.945 235.481C269.998 234.43 269.525 232.992 269.525 231.166C269.525 229.403 269.984 227.976 270.904 226.883C271.823 225.784 273.033 225.224 274.534 225.203C275.944 225.203 277.061 225.687 277.883 226.655C278.713 227.616 279.128 228.902 279.128 230.513C279.128 230.596 279.124 230.748 279.117 230.969C279.117 231.191 279.117 231.35 279.117 231.446H271.308C271.329 232.739 271.661 233.749 272.304 234.475C272.954 235.194 273.825 235.553 274.917 235.553C276.12 235.553 277.327 235.235 278.537 234.599L278.806 235.999C277.652 236.704 276.335 237.057 274.855 237.057ZM285.973 235.564C287.113 235.564 287.96 235.197 288.513 234.464C289.073 233.731 289.353 232.684 289.353 231.322C289.353 229.787 289.084 228.632 288.544 227.858C288.012 227.077 287.148 226.686 285.952 226.686C285.419 226.686 284.949 226.8 284.541 227.028C284.133 227.257 283.805 227.575 283.556 227.983C283.307 228.39 283.117 228.861 282.986 229.393C282.861 229.918 282.799 230.496 282.799 231.125C282.799 232.01 282.906 232.777 283.121 233.427C283.342 234.077 283.694 234.596 284.178 234.983C284.662 235.37 285.26 235.564 285.973 235.564ZM289.384 235.169C289.011 235.743 288.513 236.2 287.891 236.538C287.269 236.877 286.574 237.047 285.807 237.047C284.306 237.047 283.131 236.514 282.281 235.449C281.43 234.378 281.005 232.922 281.005 231.083C281.005 229.327 281.437 227.91 282.301 226.831C283.166 225.746 284.324 225.203 285.775 225.203C286.529 225.203 287.238 225.369 287.901 225.701C288.572 226.026 289.073 226.465 289.405 227.018L289.374 226.033V221.024L291.085 220.92V236.818H289.613L289.384 235.169ZM41.5456 265.026C40.4256 265.026 39.6305 264.753 39.1604 264.206C38.6902 263.66 38.4413 262.779 38.4137 261.562V254.728H36.7233L36.7959 253.587L38.4033 253.442L38.9944 250.839L40.1352 250.797V253.442H43.2983V254.728H40.1352V261.251C40.1352 262.115 40.2666 262.723 40.5293 263.076C40.792 263.429 41.2414 263.605 41.8775 263.605C42.1056 263.605 42.6 263.55 43.3605 263.439L43.4331 264.808C42.6104 264.953 41.9812 265.026 41.5456 265.026ZM46.4199 259.156C46.4199 260.504 46.7171 261.586 47.3117 262.402C47.9132 263.211 48.7878 263.615 49.9355 263.615C51.0694 263.615 51.9232 263.211 52.4971 262.402C53.0778 261.593 53.3682 260.504 53.3682 259.135C53.3682 257.746 53.0813 256.653 52.5075 255.858C51.9405 255.056 51.0728 254.655 49.9044 254.655C48.7705 254.655 47.9063 255.063 47.3117 255.879C46.7171 256.695 46.4199 257.787 46.4199 259.156ZM55.1623 259.125C55.1623 260.888 54.6922 262.319 53.7519 263.418C52.8117 264.511 51.5119 265.057 49.8526 265.057C48.2555 265.057 46.9833 264.504 46.0361 263.398C45.0959 262.291 44.6257 260.871 44.6257 259.135C44.6257 257.365 45.0993 255.934 46.0465 254.842C46.9937 253.749 48.2935 253.203 49.9459 253.203C51.5706 253.203 52.8462 253.753 53.7727 254.852C54.6991 255.945 55.1623 257.369 55.1623 259.125ZM68.105 254.645C67.0057 254.645 66.1622 255.025 65.5745 255.785C64.9938 256.539 64.7034 257.649 64.7034 259.114C64.7034 262.115 65.8338 263.615 68.0946 263.615C68.6546 263.615 69.1455 263.501 69.5672 263.273C69.9959 263.038 70.3312 262.713 70.5732 262.298C70.8221 261.877 71.0053 261.403 71.1228 260.877C71.2473 260.352 71.3095 259.768 71.3095 259.125C71.3095 258.254 71.2058 257.493 70.9984 256.843C70.7979 256.193 70.4522 255.664 69.9613 255.257C69.4705 254.849 68.8517 254.645 68.105 254.645ZM68.2813 253.203C69.2907 253.203 70.1618 253.459 70.8947 253.971C71.6276 254.482 72.1772 255.177 72.5436 256.055C72.9101 256.933 73.0933 257.939 73.0933 259.073C73.0933 260.248 72.9101 261.282 72.5436 262.174C72.1841 263.066 71.6345 263.771 70.8947 264.289C70.1618 264.801 69.2838 265.057 68.2605 265.057C67.5069 265.057 66.819 264.894 66.1968 264.569C65.5745 264.245 65.056 263.802 64.6412 263.242L64.4649 264.818H62.9819V249.024L64.7138 248.92V252.685C64.7138 253.611 64.6999 254.406 64.6723 255.07C65.0733 254.496 65.5918 254.043 66.2279 253.711C66.8709 253.373 67.5553 253.203 68.2813 253.203ZM77.5838 253.442V264.818H75.8415V253.442H77.5838ZM77.5838 249.304V251.357H75.8415V249.304H77.5838ZM84.1381 263.657C84.9608 263.657 85.6833 263.432 86.3055 262.983C86.9347 262.526 87.3392 261.915 87.5189 261.147V259.229C87.4844 259.229 87.2735 259.246 86.8863 259.28C86.506 259.315 86.2572 259.336 86.1396 259.343C84.6393 259.474 83.5919 259.719 82.9973 260.079C82.4096 260.438 82.1158 261.016 82.1158 261.811C82.1158 262.419 82.2955 262.879 82.6551 263.19C83.0146 263.501 83.5089 263.657 84.1381 263.657ZM87.9026 264.818C87.7989 264.376 87.6987 263.899 87.6019 263.387C86.9727 264.016 86.3816 264.452 85.8285 264.694C85.2754 264.936 84.6255 265.057 83.8788 265.057C82.8141 265.057 81.9568 264.78 81.3069 264.227C80.6639 263.667 80.3424 262.865 80.3424 261.821C80.3424 260.66 80.7814 259.799 81.6595 259.239C82.5444 258.679 83.8166 258.33 85.4759 258.191C85.704 258.171 86.0463 258.143 86.5026 258.109C86.9658 258.067 87.3115 258.036 87.5397 258.015V257.009C87.5397 256.207 87.353 255.613 86.9796 255.225C86.6063 254.838 86.0186 254.645 85.2166 254.645C84.0966 254.645 82.9662 254.921 81.8254 255.474C81.7908 255.391 81.701 255.153 81.5558 254.759C81.4106 254.358 81.3345 254.15 81.3276 254.137C81.8323 253.853 82.4304 253.628 83.1217 253.462C83.82 253.29 84.5287 253.203 85.2477 253.203C86.6651 253.203 87.6849 253.514 88.3071 254.137C88.9362 254.752 89.2508 255.803 89.2508 257.289V264.818H87.9026ZM95.6288 265.057C94.8545 265.057 94.1389 264.974 93.4821 264.808C92.8322 264.642 92.3033 264.428 91.8953 264.165L92.1131 262.703C93.2677 263.318 94.4016 263.626 95.5147 263.626C97.2017 263.626 98.0694 263.031 98.1178 261.842C98.1178 261.337 97.938 260.94 97.5785 260.649C97.219 260.359 96.5138 260.034 95.4629 259.674L94.6021 259.374C93.6065 259.042 92.8944 258.631 92.4657 258.14C92.044 257.649 91.8297 257.037 91.8228 256.304C91.8228 255.412 92.1788 254.672 92.8909 254.085C93.61 253.497 94.5917 253.203 95.8362 253.203C97.1222 253.203 98.2941 253.452 99.3519 253.95L98.8437 255.277C97.7721 254.835 96.7696 254.614 95.8362 254.614C95.1103 254.614 94.5399 254.759 94.125 255.049C93.7171 255.333 93.5132 255.734 93.5132 256.252C93.5132 256.695 93.6618 257.033 93.9591 257.268C94.2564 257.504 94.851 257.773 95.7429 258.077C95.971 258.16 96.258 258.257 96.6036 258.368C97.7513 258.741 98.5637 259.184 99.0408 259.695C99.5178 260.2 99.7563 260.884 99.7563 261.749C99.7425 262.8 99.3657 263.615 98.6259 264.196C97.8862 264.77 96.8871 265.057 95.6288 265.057ZM108.686 255.547C108.181 254.939 107.486 254.634 106.601 254.634C105.716 254.634 104.994 254.949 104.434 255.578C103.874 256.2 103.545 257.054 103.448 258.14H109.453C109.453 257.013 109.197 256.148 108.686 255.547ZM106.943 265.057C105.291 265.057 103.988 264.531 103.033 263.481C102.086 262.43 101.613 260.992 101.613 259.166C101.613 257.403 102.072 255.976 102.992 254.883C103.912 253.784 105.121 253.224 106.622 253.203C108.032 253.203 109.149 253.687 109.971 254.655C110.801 255.616 111.216 256.902 111.216 258.513C111.216 258.596 111.212 258.748 111.206 258.969C111.206 259.191 111.206 259.35 111.206 259.446H103.396C103.417 260.739 103.749 261.749 104.392 262.475C105.042 263.194 105.913 263.553 107.005 263.553C108.208 263.553 109.415 263.235 110.625 262.599L110.894 263.999C109.74 264.704 108.423 265.057 106.943 265.057ZM118.061 263.564C119.201 263.564 120.048 263.197 120.601 262.464C121.161 261.731 121.441 260.684 121.441 259.322C121.441 257.787 121.172 256.632 120.633 255.858C120.1 255.077 119.236 254.686 118.04 254.686C117.508 254.686 117.037 254.8 116.629 255.028C116.222 255.257 115.893 255.575 115.644 255.983C115.395 256.39 115.205 256.861 115.074 257.393C114.949 257.918 114.887 258.496 114.887 259.125C114.887 260.01 114.994 260.777 115.209 261.427C115.43 262.077 115.783 262.596 116.266 262.983C116.75 263.37 117.348 263.564 118.061 263.564ZM121.473 263.169C121.099 263.743 120.601 264.2 119.979 264.538C119.357 264.877 118.662 265.047 117.895 265.047C116.394 265.047 115.219 264.514 114.369 263.449C113.518 262.378 113.093 260.922 113.093 259.083C113.093 257.327 113.525 255.91 114.389 254.831C115.254 253.746 116.412 253.203 117.864 253.203C118.617 253.203 119.326 253.369 119.99 253.701C120.66 254.026 121.161 254.465 121.493 255.018L121.462 254.033V249.024L123.173 248.92V264.818H121.701L121.473 263.169ZM134.789 263.657C135.611 263.657 136.334 263.432 136.956 262.983C137.585 262.526 137.99 261.915 138.169 261.147V259.229C138.135 259.229 137.924 259.246 137.537 259.28C137.157 259.315 136.908 259.336 136.79 259.343C135.29 259.474 134.242 259.719 133.648 260.079C133.06 260.438 132.766 261.016 132.766 261.811C132.766 262.419 132.946 262.879 133.306 263.19C133.665 263.501 134.159 263.657 134.789 263.657ZM138.553 264.818C138.449 264.376 138.349 263.899 138.252 263.387C137.623 264.016 137.032 264.452 136.479 264.694C135.926 264.936 135.276 265.057 134.529 265.057C133.465 265.057 132.607 264.78 131.957 264.227C131.314 263.667 130.993 262.865 130.993 261.821C130.993 260.66 131.432 259.799 132.31 259.239C133.195 258.679 134.467 258.33 136.126 258.191C136.355 258.171 136.697 258.143 137.153 258.109C137.616 258.067 137.962 258.036 138.19 258.015V257.009C138.19 256.207 138.003 255.613 137.63 255.225C137.257 254.838 136.669 254.645 135.867 254.645C134.747 254.645 133.617 254.921 132.476 255.474C132.441 255.391 132.351 255.153 132.206 254.759C132.061 254.358 131.985 254.15 131.978 254.137C132.483 253.853 133.081 253.628 133.772 253.462C134.471 253.29 135.179 253.203 135.898 253.203C137.316 253.203 138.335 253.514 138.958 254.137C139.587 254.752 139.901 255.803 139.901 257.289V264.818H138.553ZM147.99 253.338C148.302 253.338 148.585 253.359 148.841 253.4L148.779 254.997C148.461 254.942 148.184 254.914 147.949 254.914C146.981 254.914 146.193 255.253 145.584 255.931C144.983 256.601 144.682 257.434 144.682 258.43V264.818H142.95C142.943 257.835 142.94 254.043 142.94 253.442H144.381L144.547 255.485C144.941 254.842 145.443 254.323 146.051 253.929C146.66 253.535 147.306 253.338 147.99 253.338ZM154.794 263.335C155.381 263.335 155.896 263.232 156.339 263.024C156.781 262.817 157.127 262.53 157.376 262.163C157.625 261.797 157.808 261.389 157.926 260.94C158.05 260.49 158.112 259.999 158.112 259.467V258.627C158.112 258.074 158.05 257.566 157.926 257.103C157.801 256.632 157.608 256.214 157.345 255.848C157.089 255.474 156.743 255.184 156.308 254.977C155.879 254.769 155.378 254.665 154.804 254.665C154.327 254.665 153.891 254.755 153.497 254.935C153.11 255.115 152.789 255.353 152.533 255.651C152.284 255.941 152.07 256.283 151.89 256.677C151.717 257.065 151.593 257.459 151.516 257.86C151.44 258.261 151.402 258.665 151.402 259.073C151.402 259.474 151.444 259.872 151.527 260.266C151.61 260.66 151.741 261.043 151.921 261.417C152.101 261.79 152.318 262.119 152.574 262.402C152.83 262.679 153.148 262.903 153.528 263.076C153.916 263.249 154.337 263.335 154.794 263.335ZM152.128 270.024L151.973 268.458H154.088C154.676 268.458 155.188 268.417 155.623 268.334C156.059 268.251 156.422 268.113 156.712 267.919C157.003 267.733 157.238 267.522 157.417 267.287C157.597 267.058 157.732 266.758 157.822 266.384C157.919 266.018 157.981 265.651 158.009 265.285C158.043 264.926 158.06 264.483 158.06 263.958V262.952C157.646 263.546 157.165 264.006 156.619 264.331C156.073 264.649 155.378 264.808 154.534 264.808C153.884 264.808 153.283 264.697 152.73 264.476C152.184 264.248 151.72 263.947 151.34 263.574C150.967 263.201 150.645 262.768 150.376 262.278C150.113 261.787 149.919 261.278 149.795 260.753C149.677 260.228 149.619 259.699 149.619 259.166C149.619 258.337 149.719 257.569 149.919 256.864C150.127 256.159 150.431 255.53 150.832 254.977C151.233 254.423 151.758 253.991 152.408 253.68C153.065 253.362 153.815 253.203 154.659 253.203C155.405 253.203 156.055 253.348 156.608 253.639C157.168 253.922 157.67 254.361 158.112 254.956V253.442H159.803V263.999C159.803 264.483 159.789 264.905 159.761 265.264C159.74 265.631 159.682 266.035 159.585 266.478C159.495 266.92 159.371 267.3 159.212 267.618C159.053 267.936 158.828 268.255 158.537 268.573C158.254 268.897 157.912 269.157 157.511 269.35C157.117 269.551 156.626 269.713 156.038 269.838C155.45 269.962 154.787 270.024 154.047 270.024H152.128ZM162.302 261.023V253.442H164.044V261.043C164.044 261.541 164.113 261.963 164.252 262.309C164.397 262.654 164.601 262.924 164.864 263.118C165.133 263.304 165.434 263.439 165.766 263.522C166.105 263.605 166.492 263.646 166.927 263.646C167.826 263.646 168.524 263.449 169.022 263.055C169.527 262.661 169.779 261.991 169.779 261.043V253.442H171.522V261.023C171.522 261.603 171.439 262.125 171.273 262.589C171.107 263.052 170.882 263.439 170.599 263.75C170.322 264.054 169.987 264.307 169.593 264.507C169.199 264.708 168.78 264.853 168.338 264.943C167.902 265.033 167.432 265.078 166.927 265.078C166.43 265.078 165.959 265.033 165.517 264.943C165.074 264.853 164.653 264.708 164.252 264.507C163.858 264.3 163.515 264.044 163.225 263.74C162.942 263.429 162.717 263.042 162.551 262.578C162.385 262.115 162.302 261.597 162.302 261.023ZM188.55 264.818V258.897C188.55 258.344 188.536 257.88 188.509 257.507C188.488 257.134 188.433 256.753 188.343 256.366C188.26 255.979 188.139 255.675 187.98 255.454C187.828 255.225 187.613 255.042 187.337 254.904C187.06 254.759 186.728 254.686 186.341 254.686C185.581 254.686 184.931 254.89 184.392 255.298C183.859 255.706 183.479 256.28 183.251 257.02C183.189 257.517 183.157 258.05 183.157 258.617V264.818H181.426V258.71C181.426 258.198 181.408 257.756 181.374 257.383C181.339 257.002 181.273 256.636 181.177 256.283C181.08 255.924 180.949 255.633 180.783 255.412C180.624 255.191 180.409 255.015 180.14 254.883C179.87 254.752 179.548 254.686 179.175 254.686C178.345 254.686 177.647 254.897 177.08 255.319C176.52 255.741 176.143 256.301 175.95 256.999C175.888 257.531 175.856 258.109 175.856 258.731V264.818H174.125C174.111 257.704 174.104 253.912 174.104 253.442H175.556L175.774 255.07C176.119 254.544 176.61 254.102 177.246 253.742C177.882 253.383 178.605 253.203 179.414 253.203C179.835 253.203 180.223 253.248 180.575 253.338C180.935 253.421 181.232 253.528 181.467 253.659C181.709 253.791 181.923 253.95 182.11 254.137C182.297 254.316 182.442 254.496 182.546 254.676C182.649 254.849 182.736 255.032 182.805 255.225C183.635 253.877 184.903 253.203 186.611 253.203C187.876 253.203 188.803 253.566 189.39 254.292C189.985 255.011 190.282 256.079 190.282 257.497V264.818H188.55ZM199.056 255.547C198.551 254.939 197.856 254.634 196.971 254.634C196.086 254.634 195.364 254.949 194.804 255.578C194.244 256.2 193.915 257.054 193.819 258.14H199.823C199.823 257.013 199.567 256.148 199.056 255.547ZM197.313 265.057C195.661 265.057 194.358 264.531 193.404 263.481C192.457 262.43 191.983 260.992 191.983 259.166C191.983 257.403 192.443 255.976 193.362 254.883C194.282 253.784 195.492 253.224 196.992 253.203C198.402 253.203 199.519 253.687 200.342 254.655C201.171 255.616 201.586 256.902 201.586 258.513C201.586 258.596 201.583 258.748 201.576 258.969C201.576 259.191 201.576 259.35 201.576 259.446H193.767C193.787 260.739 194.119 261.749 194.762 262.475C195.412 263.194 196.283 263.553 197.376 263.553C198.579 263.553 199.785 263.235 200.995 262.599L201.265 263.999C200.11 264.704 198.793 265.057 197.313 265.057ZM203.992 264.818V253.442H205.444L205.662 255.07C206.111 254.51 206.671 254.06 207.342 253.722C208.019 253.376 208.749 253.203 209.53 253.203C210.844 253.203 211.815 253.573 212.444 254.313C213.073 255.046 213.388 256.176 213.388 257.704V264.818H211.656C211.656 260.255 211.653 257.811 211.646 257.486C211.618 256.518 211.421 255.81 211.055 255.36C210.695 254.911 210.09 254.686 209.24 254.686C208.348 254.686 207.605 254.901 207.01 255.329C206.415 255.758 206.028 256.314 205.849 256.999C205.779 257.462 205.745 257.994 205.745 258.596V264.818H203.992ZM219.901 265.026C218.781 265.026 217.986 264.753 217.516 264.206C217.045 263.66 216.797 262.779 216.769 261.562V254.728H215.078L215.151 253.587L216.759 253.442L217.35 250.839L218.49 250.797V253.442H221.653V254.728H218.49V261.251C218.49 262.115 218.622 262.723 218.884 263.076C219.147 263.429 219.597 263.605 220.233 263.605C220.461 263.605 220.955 263.55 221.716 263.439L221.788 264.808C220.966 264.953 220.336 265.026 219.901 265.026ZM227.025 265.057C226.251 265.057 225.536 264.974 224.879 264.808C224.229 264.642 223.7 264.428 223.292 264.165L223.51 262.703C224.664 263.318 225.798 263.626 226.911 263.626C228.598 263.626 229.466 263.031 229.514 261.842C229.514 261.337 229.335 260.94 228.975 260.649C228.616 260.359 227.91 260.034 226.86 259.674L225.999 259.374C225.003 259.042 224.291 258.631 223.862 258.14C223.441 257.649 223.226 257.037 223.219 256.304C223.219 255.412 223.576 254.672 224.288 254.085C225.007 253.497 225.988 253.203 227.233 253.203C228.519 253.203 229.691 253.452 230.749 253.95L230.24 255.277C229.169 254.835 228.166 254.614 227.233 254.614C226.507 254.614 225.937 254.759 225.522 255.049C225.114 255.333 224.91 255.734 224.91 256.252C224.91 256.695 225.059 257.033 225.356 257.268C225.653 257.504 226.248 257.773 227.14 258.077C227.368 258.16 227.655 258.257 228 258.368C229.148 258.741 229.96 259.184 230.437 259.695C230.914 260.2 231.153 260.884 231.153 261.749C231.139 262.8 230.762 263.615 230.023 264.196C229.283 264.77 228.284 265.057 227.025 265.057ZM242.125 263.657C242.948 263.657 243.67 263.432 244.293 262.983C244.922 262.526 245.326 261.915 245.506 261.147V259.229C245.472 259.229 245.261 259.246 244.873 259.28C244.493 259.315 244.244 259.336 244.127 259.343C242.626 259.474 241.579 259.719 240.984 260.079C240.397 260.438 240.103 261.016 240.103 261.811C240.103 262.419 240.283 262.879 240.642 263.19C241.002 263.501 241.496 263.657 242.125 263.657ZM245.89 264.818C245.786 264.376 245.686 263.899 245.589 263.387C244.96 264.016 244.369 264.452 243.816 264.694C243.263 264.936 242.613 265.057 241.866 265.057C240.801 265.057 239.944 264.78 239.294 264.227C238.651 263.667 238.33 262.865 238.33 261.821C238.33 260.66 238.769 259.799 239.647 259.239C240.532 258.679 241.804 258.33 243.463 258.191C243.691 258.171 244.033 258.143 244.49 258.109C244.953 258.067 245.299 258.036 245.527 258.015V257.009C245.527 256.207 245.34 255.613 244.967 255.225C244.593 254.838 244.006 254.645 243.204 254.645C242.084 254.645 240.953 254.921 239.813 255.474C239.778 255.391 239.688 255.153 239.543 254.759C239.398 254.358 239.322 254.15 239.315 254.137C239.819 253.853 240.418 253.628 241.109 253.462C241.807 253.29 242.516 253.203 243.235 253.203C244.652 253.203 245.672 253.514 246.294 254.137C246.923 254.752 247.238 255.803 247.238 257.289V264.818H245.89ZM253.854 265.026C252.734 265.026 251.939 264.753 251.469 264.206C250.999 263.66 250.75 262.779 250.723 261.562V254.728H249.032L249.105 253.587L250.712 253.442L251.303 250.839L252.444 250.797V253.442H255.607V254.728H252.444V261.251C252.444 262.115 252.575 262.723 252.838 263.076C253.101 263.429 253.55 263.605 254.186 263.605C254.414 263.605 254.909 263.55 255.669 263.439L255.742 264.808C254.919 264.953 254.29 265.026 253.854 265.026ZM266.185 263.657C267.008 263.657 267.73 263.432 268.353 262.983C268.982 262.526 269.386 261.915 269.566 261.147V259.229C269.532 259.229 269.321 259.246 268.933 259.28C268.553 259.315 268.304 259.336 268.187 259.343C266.686 259.474 265.639 259.719 265.044 260.079C264.457 260.438 264.163 261.016 264.163 261.811C264.163 262.419 264.343 262.879 264.702 263.19C265.062 263.501 265.556 263.657 266.185 263.657ZM269.95 264.818C269.846 264.376 269.746 263.899 269.649 263.387C269.02 264.016 268.429 264.452 267.876 264.694C267.323 264.936 266.673 265.057 265.926 265.057C264.861 265.057 264.004 264.78 263.354 264.227C262.711 263.667 262.39 262.865 262.39 261.821C262.39 260.66 262.829 259.799 263.707 259.239C264.592 258.679 265.864 258.33 267.523 258.191C267.751 258.171 268.093 258.143 268.55 258.109C269.013 258.067 269.359 258.036 269.587 258.015V257.009C269.587 256.207 269.4 255.613 269.027 255.225C268.653 254.838 268.066 254.645 267.264 254.645C266.144 254.645 265.013 254.921 263.873 255.474C263.838 255.391 263.748 255.153 263.603 254.759C263.458 254.358 263.382 254.15 263.375 254.137C263.879 253.853 264.478 253.628 265.169 253.462C265.867 253.29 266.576 253.203 267.295 253.203C268.712 253.203 269.732 253.514 270.354 254.137C270.983 254.752 271.298 255.803 271.298 257.289V264.818H269.95ZM112.326 293.818V286.943C112.326 285.802 112.142 284.972 111.776 284.454C111.416 283.935 110.784 283.676 109.878 283.676C109.007 283.676 108.271 283.894 107.669 284.329C107.075 284.765 106.687 285.328 106.508 286.02C106.445 286.538 106.414 287.115 106.414 287.752V293.818H104.682V278.024L106.414 277.92V282.545C106.414 282.94 106.4 283.427 106.373 284.008C107.348 282.805 108.641 282.203 110.251 282.203C112.789 282.203 114.058 283.693 114.058 286.673V293.818H112.326ZM118.237 282.442V293.818H116.495V282.442H118.237ZM118.237 278.304V280.357H116.495V278.304H118.237ZM125.922 292.335C126.509 292.335 127.024 292.232 127.467 292.024C127.909 291.817 128.255 291.53 128.504 291.163C128.753 290.797 128.936 290.389 129.054 289.94C129.178 289.49 129.24 288.999 129.24 288.467V287.627C129.24 287.074 129.178 286.566 129.054 286.103C128.929 285.632 128.736 285.214 128.473 284.848C128.217 284.474 127.871 284.184 127.436 283.977C127.007 283.769 126.506 283.665 125.932 283.665C125.455 283.665 125.019 283.755 124.625 283.935C124.238 284.115 123.917 284.353 123.661 284.651C123.412 284.941 123.198 285.283 123.018 285.677C122.845 286.065 122.721 286.459 122.644 286.86C122.568 287.261 122.53 287.665 122.53 288.073C122.53 288.474 122.572 288.872 122.655 289.266C122.738 289.66 122.869 290.043 123.049 290.417C123.229 290.79 123.446 291.119 123.702 291.402C123.958 291.679 124.276 291.903 124.656 292.076C125.044 292.249 125.465 292.335 125.922 292.335ZM123.256 299.024L123.101 297.458H125.216C125.804 297.458 126.316 297.417 126.751 297.334C127.187 297.251 127.55 297.113 127.84 296.919C128.131 296.733 128.366 296.522 128.545 296.287C128.725 296.058 128.86 295.758 128.95 295.384C129.047 295.018 129.109 294.651 129.137 294.285C129.171 293.926 129.188 293.483 129.188 292.958V291.952C128.774 292.546 128.293 293.006 127.747 293.331C127.201 293.649 126.506 293.808 125.662 293.808C125.012 293.808 124.411 293.697 123.858 293.476C123.312 293.248 122.848 292.947 122.468 292.574C122.095 292.201 121.773 291.768 121.504 291.278C121.241 290.787 121.047 290.278 120.923 289.753C120.805 289.228 120.747 288.699 120.747 288.166C120.747 287.337 120.847 286.569 121.047 285.864C121.255 285.159 121.559 284.53 121.96 283.977C122.361 283.423 122.886 282.991 123.536 282.68C124.193 282.362 124.943 282.203 125.787 282.203C126.533 282.203 127.183 282.348 127.736 282.639C128.296 282.922 128.798 283.361 129.24 283.956V282.442H130.931V292.999C130.931 293.483 130.917 293.905 130.889 294.264C130.868 294.631 130.81 295.035 130.713 295.478C130.623 295.92 130.499 296.3 130.34 296.618C130.18 296.936 129.956 297.255 129.665 297.573C129.382 297.897 129.04 298.157 128.639 298.35C128.245 298.551 127.754 298.713 127.166 298.838C126.578 298.962 125.915 299.024 125.175 299.024H123.256ZM141.488 293.818V286.943C141.488 285.802 141.305 284.972 140.938 284.454C140.579 283.935 139.946 283.676 139.041 283.676C138.169 283.676 137.433 283.894 136.832 284.329C136.237 284.765 135.85 285.328 135.67 286.02C135.608 286.538 135.577 287.115 135.577 287.752V293.818H133.845V278.024L135.577 277.92V282.545C135.577 282.94 135.563 283.427 135.535 284.008C136.51 282.805 137.803 282.203 139.414 282.203C141.951 282.203 143.22 283.693 143.22 286.673V293.818H141.488ZM151.911 284.547C151.406 283.939 150.711 283.634 149.826 283.634C148.941 283.634 148.219 283.949 147.659 284.578C147.099 285.2 146.77 286.054 146.673 287.14H152.678C152.678 286.013 152.422 285.148 151.911 284.547ZM150.168 294.057C148.516 294.057 147.213 293.531 146.259 292.481C145.311 291.43 144.838 289.992 144.838 288.166C144.838 286.403 145.298 284.976 146.217 283.883C147.137 282.784 148.346 282.224 149.847 282.203C151.257 282.203 152.374 282.687 153.197 283.655C154.026 284.616 154.441 285.902 154.441 287.513C154.441 287.596 154.438 287.748 154.431 287.969C154.431 288.191 154.431 288.35 154.431 288.446H146.621C146.642 289.739 146.974 290.749 147.617 291.475C148.267 292.194 149.138 292.553 150.23 292.553C151.433 292.553 152.64 292.235 153.85 291.599L154.12 292.999C152.965 293.704 151.648 294.057 150.168 294.057ZM161.949 282.338C162.261 282.338 162.544 282.359 162.8 282.4L162.738 283.997C162.42 283.942 162.143 283.914 161.908 283.914C160.94 283.914 160.152 284.253 159.543 284.931C158.942 285.601 158.641 286.434 158.641 287.43V293.818H156.909C156.902 286.835 156.899 283.043 156.899 282.442H158.34L158.506 284.485C158.9 283.842 159.402 283.323 160.01 282.929C160.618 282.535 161.265 282.338 161.949 282.338ZM174.996 282.338C175.307 282.338 175.59 282.359 175.846 282.4L175.784 283.997C175.466 283.942 175.189 283.914 174.954 283.914C173.986 283.914 173.198 284.253 172.59 284.931C171.988 285.601 171.687 286.434 171.687 287.43V293.818H169.956C169.949 286.835 169.945 283.043 169.945 282.442H171.387L171.553 284.485C171.947 283.842 172.448 283.323 173.056 282.929C173.665 282.535 174.311 282.338 174.996 282.338ZM180.71 292.657C181.533 292.657 182.255 292.432 182.877 291.983C183.507 291.526 183.911 290.915 184.091 290.147V288.229C184.056 288.229 183.845 288.246 183.458 288.28C183.078 288.315 182.829 288.336 182.712 288.343C181.211 288.474 180.164 288.719 179.569 289.079C178.982 289.438 178.688 290.016 178.688 290.811C178.688 291.419 178.867 291.879 179.227 292.19C179.586 292.501 180.081 292.657 180.71 292.657ZM184.475 293.818C184.371 293.376 184.271 292.899 184.174 292.387C183.545 293.016 182.953 293.452 182.4 293.694C181.847 293.936 181.197 294.057 180.451 294.057C179.386 294.057 178.529 293.78 177.879 293.227C177.236 292.667 176.914 291.865 176.914 290.821C176.914 289.66 177.353 288.799 178.231 288.239C179.116 287.679 180.388 287.33 182.048 287.191C182.276 287.171 182.618 287.143 183.074 287.109C183.538 287.067 183.883 287.036 184.112 287.015V286.009C184.112 285.207 183.925 284.613 183.552 284.225C183.178 283.838 182.591 283.645 181.789 283.645C180.668 283.645 179.538 283.921 178.397 284.474C178.363 284.391 178.273 284.153 178.128 283.759C177.982 283.358 177.906 283.15 177.9 283.137C178.404 282.853 179.002 282.628 179.694 282.462C180.392 282.29 181.101 282.203 181.82 282.203C183.237 282.203 184.257 282.514 184.879 283.137C185.508 283.752 185.823 284.803 185.823 286.289V293.818H184.475ZM192.439 294.026C191.319 294.026 190.524 293.753 190.054 293.206C189.584 292.66 189.335 291.779 189.307 290.562V283.728H187.617L187.689 282.587L189.297 282.442L189.888 279.839L191.029 279.797V282.442H194.192V283.728H191.029V290.251C191.029 291.115 191.16 291.723 191.423 292.076C191.686 292.429 192.135 292.605 192.771 292.605C192.999 292.605 193.494 292.55 194.254 292.439L194.327 293.808C193.504 293.953 192.875 294.026 192.439 294.026ZM202.603 284.547C202.098 283.939 201.403 283.634 200.518 283.634C199.633 283.634 198.911 283.949 198.351 284.578C197.791 285.2 197.462 286.054 197.365 287.14H203.37C203.37 286.013 203.114 285.148 202.603 284.547ZM200.86 294.057C199.208 294.057 197.905 293.531 196.95 292.481C196.003 291.43 195.53 289.992 195.53 288.166C195.53 286.403 195.989 284.976 196.909 283.883C197.829 282.784 199.038 282.224 200.539 282.203C201.949 282.203 203.066 282.687 203.888 283.655C204.718 284.616 205.133 285.902 205.133 287.513C205.133 287.596 205.129 287.748 205.123 287.969C205.123 288.191 205.123 288.35 205.123 288.446H197.313C197.334 289.739 197.666 290.749 198.309 291.475C198.959 292.194 199.83 292.553 200.922 292.553C202.125 292.553 203.332 292.235 204.542 291.599L204.811 292.999C203.657 293.704 202.34 294.057 200.86 294.057Z" fill="#41516E"/>
<circle cx="154.871" cy="86.0801" r="57" fill="#E2EBFB"/>
<path d="M168.983 127.742H153.401V72.1152C152.187 72.3251 150.948 72.3251 149.734 72.1152V127.742H134.153C133.666 127.742 133.2 127.937 132.856 128.283C132.512 128.63 132.319 129.1 132.319 129.591C132.319 130.081 132.512 130.551 132.856 130.898C133.2 131.245 133.666 131.44 134.153 131.44H168.983C169.469 131.44 169.935 131.245 170.279 130.898C170.623 130.551 170.816 130.081 170.816 129.591C170.816 129.1 170.623 128.63 170.279 128.283C169.935 127.937 169.469 127.742 168.983 127.742Z" fill="#586B8D"/>
<path d="M123.154 103.703C128.168 103.703 132.783 101.383 135.198 97.6478C136.142 96.2301 136.714 94.5938 136.859 92.8925C137.004 91.1911 136.719 89.4804 136.029 87.9208L125.812 64.5255L140.028 63.1917C139.782 62.2314 139.656 61.2439 139.652 60.2521C139.652 60.0015 139.675 59.7566 139.69 59.5098L111.985 62.1093C111.516 62.1534 111.081 62.3781 110.772 62.7367C110.463 63.0954 110.302 63.5603 110.324 64.0351C110.346 64.5099 110.548 64.9581 110.888 65.2865C111.229 65.615 111.682 65.7985 112.153 65.7991C112.21 65.7991 112.267 65.7963 112.325 65.7909L120.269 65.0456L110.279 87.9208C109.589 89.4804 109.304 91.1911 109.449 92.8925C109.594 94.5939 110.166 96.2301 111.11 97.6478C113.525 101.383 118.14 103.703 123.154 103.703ZM123.154 67.6123L132.052 87.9867H114.256L123.154 67.6123Z" fill="#586B8D"/>
<path d="M192.028 93.0267C192.972 91.609 193.543 89.9728 193.688 88.2714C193.834 86.57 193.548 84.8593 192.858 83.2997L182.344 59.2228L191.152 58.3963C191.636 58.3499 192.081 58.112 192.391 57.7348C192.7 57.3576 192.849 56.8719 192.804 56.3843C192.759 55.8967 192.524 55.4471 192.15 55.1341C191.777 54.821 191.296 54.6702 190.812 54.7147L163.109 57.3139C163.355 58.2742 163.481 59.2617 163.485 60.2534C163.485 60.504 163.463 60.749 163.448 60.9958L177.421 59.6847L167.108 83.2997C166.419 84.8593 166.133 86.57 166.278 88.2714C166.424 89.9728 166.995 91.609 167.939 93.0267C170.354 96.7616 174.969 99.0819 179.983 99.0819C184.998 99.0819 189.613 96.7616 192.028 93.0267ZM179.983 62.9913L189.285 84.2901H170.682L179.983 62.9913Z" fill="#586B8D"/>
<path d="M143.316 60.252C143.316 61.8976 143.8 63.5063 144.707 64.8745C145.613 66.2428 146.901 67.3092 148.409 67.9389C149.916 68.5687 151.575 68.7334 153.175 68.4124C154.775 68.0913 156.245 67.2989 157.399 66.1353C158.552 64.9717 159.338 63.4891 159.656 61.8751C159.975 60.2612 159.811 58.5882 159.187 57.0679C158.563 55.5476 157.505 54.2481 156.149 53.3339C154.792 52.4196 153.197 51.9316 151.566 51.9316C149.379 51.9341 147.282 52.8115 145.735 54.3714C144.189 55.9312 143.319 58.0461 143.316 60.252Z" fill="#586B8D"/>
<path d="M122.641 40.3781C122.949 40.3793 123.251 40.3054 123.524 40.1627C124.622 39.5867 125.636 38.7819 126.71 38.1514C126.919 38.0297 127.102 37.8677 127.248 37.6745C127.395 37.4813 127.503 37.2609 127.565 37.0257C127.627 36.7905 127.642 36.5453 127.61 36.3041C127.578 36.0629 127.499 35.8305 127.378 35.6201C127.256 35.4098 127.095 35.2257 126.903 35.0784C126.711 34.931 126.492 34.8234 126.259 34.7617C126.025 34.6999 125.782 34.6853 125.543 34.7185C125.304 34.7518 125.074 34.8323 124.866 34.9555C123.761 35.6041 122.668 36.2948 121.616 37.0084C121.289 37.2278 121.041 37.5478 120.909 37.9209C120.777 38.294 120.768 38.7002 120.883 39.0789C120.998 39.4577 121.232 39.7888 121.548 40.0229C121.865 40.257 122.249 40.3816 122.641 40.3781Z" fill="#586B8D"/>
<path d="M100.388 97.0606C100.155 95.8797 99.9569 94.6762 99.8003 93.4836C99.7366 92.9976 99.4842 92.5569 99.0984 92.2586C98.7127 91.9602 98.2252 91.8287 97.7433 91.8929C97.2614 91.957 96.8245 92.2117 96.5287 92.6007C96.233 92.9898 96.1025 93.4815 96.1662 93.9675C96.3327 95.2405 96.5439 96.5252 96.7936 97.7864C96.8409 98.0245 96.9342 98.2508 97.0681 98.4525C97.2021 98.6542 97.3742 98.8274 97.5745 98.962C97.7748 99.0966 97.9995 99.1902 98.2356 99.2372C98.4718 99.2843 98.7148 99.284 98.9508 99.2363C99.1869 99.1887 99.4113 99.0946 99.6112 98.9595C99.8112 98.8243 99.9829 98.6508 100.116 98.4487C100.25 98.2467 100.343 98.0201 100.389 97.7819C100.436 97.5438 100.436 97.2986 100.388 97.0606Z" fill="#586B8D"/>
<path d="M105.981 55.9256C106.388 56.1897 106.881 56.2838 107.355 56.1879C107.83 56.0921 108.249 55.8138 108.523 55.4119C109.187 54.4088 109.89 53.4153 110.616 52.4592C110.912 52.0699 111.042 51.5781 110.978 51.092C110.914 50.6059 110.661 50.1653 110.275 49.8672C109.889 49.5691 109.401 49.4379 108.919 49.5024C108.437 49.5669 108.001 49.8219 107.705 50.2112C106.931 51.2314 106.18 52.2913 105.473 53.3616C105.203 53.7696 105.105 54.2689 105.201 54.7498C105.296 55.2306 105.577 55.6535 105.981 55.9256Z" fill="#586B8D"/>
<path d="M97.4894 88.0914C97.7301 88.0914 97.9685 88.0437 98.1909 87.9508C98.4133 87.8579 98.6154 87.7218 98.7857 87.5501C98.9559 87.3785 99.0909 87.1747 99.1831 86.9504C99.2752 86.7261 99.3226 86.4856 99.3226 86.2429V86.1368C99.3226 84.9577 99.3592 83.7718 99.4318 82.6117C99.4623 82.1223 99.2989 81.6407 98.9774 81.2728C98.8182 81.0907 98.625 80.9419 98.4088 80.8351C98.1927 80.7283 97.9577 80.6654 97.7175 80.6501C97.4772 80.6349 97.2363 80.6675 97.0086 80.7461C96.7808 80.8248 96.5706 80.9479 96.39 81.1084C96.0253 81.4327 95.8032 81.8898 95.7727 82.3792C95.6957 83.6161 95.6563 84.8805 95.6563 86.1368V86.2429C95.6562 86.4856 95.7036 86.7261 95.7958 86.9504C95.8879 87.1747 96.0229 87.3785 96.1932 87.5501C96.3634 87.7218 96.5655 87.8579 96.7879 87.9508C97.0103 88.0437 97.2487 88.0914 97.4894 88.0914Z" fill="#586B8D"/>
<path d="M101.057 66.0156C101.507 66.1958 102.009 66.1917 102.456 66.0041C102.903 65.8165 103.26 65.4602 103.451 65.0112C103.903 63.9039 104.402 62.7894 104.933 61.6987C105.039 61.4807 105.101 61.2437 105.116 61.0014C105.132 60.759 105.099 60.516 105.022 60.2862C104.944 60.0564 104.822 59.8444 104.663 59.6621C104.503 59.4799 104.31 59.3311 104.094 59.2241C103.878 59.1172 103.643 59.0542 103.403 59.0389C103.162 59.0235 102.921 59.056 102.694 59.1346C102.466 59.2131 102.256 59.3362 102.075 59.4967C101.894 59.6572 101.747 59.852 101.641 60.07C101.076 61.232 100.544 62.4201 100.062 63.601C99.9697 63.8254 99.9226 64.066 99.9229 64.3088C99.9231 64.5517 99.9709 64.7921 100.063 65.0163C100.156 65.2405 100.291 65.4442 100.462 65.6157C100.632 65.7871 100.834 65.923 101.057 66.0156Z" fill="#586B8D"/>
<path d="M98.1963 76.8782C98.6728 76.9664 99.1647 76.8631 99.5666 76.5903C99.9686 76.3175 100.249 75.8968 100.347 75.4183C100.576 74.2379 100.848 73.0489 101.154 71.8838C101.277 71.4103 101.208 70.9069 100.964 70.4841C100.719 70.0612 100.319 69.7534 99.8495 69.6281C99.3803 69.5027 98.8811 69.5701 98.4611 69.8154C98.0412 70.0607 97.7348 70.464 97.6091 70.9368C97.2824 72.1795 96.9933 73.4488 96.7489 74.7087C96.6556 75.19 96.7557 75.6889 97.0272 76.0958C97.2986 76.5026 97.7191 76.784 98.1963 76.8782Z" fill="#586B8D"/>
<path d="M114.05 47.5269C114.29 47.5291 114.529 47.4832 114.752 47.3918C114.975 47.3005 115.178 47.1655 115.349 46.9947C116.191 46.1424 117.073 45.306 117.969 44.5083C118.152 44.3482 118.3 44.1534 118.408 43.9351C118.515 43.7167 118.578 43.4792 118.594 43.236C118.61 42.9929 118.578 42.749 118.5 42.5184C118.422 42.2878 118.3 42.075 118.14 41.8922C117.981 41.7094 117.787 41.5602 117.57 41.4533C117.352 41.3463 117.117 41.2837 116.876 41.269C116.634 41.2543 116.393 41.2878 116.165 41.3676C115.936 41.4474 115.726 41.5719 115.546 41.734C114.589 42.584 113.649 43.4759 112.751 44.3855C112.494 44.6427 112.318 44.9715 112.247 45.3299C112.176 45.6882 112.213 46.0597 112.352 46.397C112.492 46.7343 112.728 47.0219 113.03 47.2232C113.332 47.4245 113.687 47.5302 114.05 47.5269Z" fill="#586B8D"/>
<path d="M205.07 64.7365C205.531 65.8479 205.961 66.9868 206.346 68.1212C206.505 68.5838 206.839 68.9641 207.275 69.1786C207.712 69.3931 208.214 69.4244 208.673 69.2656C209.132 69.1067 209.51 68.7707 209.724 68.3313C209.938 67.8918 209.97 67.3848 209.814 66.9213C209.402 65.7102 208.944 64.495 208.452 63.3087C208.264 62.8564 207.906 62.4979 207.456 62.3119C207.006 62.126 206.501 62.1279 206.053 62.3172C205.605 62.5066 205.249 62.8678 205.065 63.3215C204.88 63.7752 204.882 64.2842 205.07 64.7365Z" fill="#586B8D"/>
<path d="M175.219 34.817C176.326 35.2765 177.431 35.778 178.5 36.3084C178.937 36.5247 179.441 36.5571 179.901 36.3988C180.361 36.2404 180.74 35.9041 180.954 35.4639C181.169 35.0237 181.201 34.5156 181.044 34.0514C180.887 33.5873 180.553 33.205 180.117 32.9888C178.974 32.4231 177.796 31.8873 176.613 31.3971C176.164 31.2135 175.662 31.2168 175.215 31.4061C174.768 31.5954 174.414 31.9554 174.23 32.4074C174.045 32.8594 174.046 33.3666 174.231 33.8181C174.417 34.2696 174.772 34.6288 175.219 34.817Z" fill="#586B8D"/>
<path d="M184.74 39.9223C185.735 40.59 186.72 41.2991 187.668 42.0304C188.055 42.3283 188.542 42.4592 189.024 42.3943C189.506 42.3295 189.943 42.0742 190.238 41.6846C190.533 41.295 190.663 40.8031 190.599 40.317C190.535 39.8309 190.282 39.3904 189.895 39.0926C188.884 38.3125 187.832 37.5555 186.77 36.8428C186.365 36.5722 185.87 36.4748 185.394 36.5718C184.918 36.6689 184.499 36.9525 184.23 37.3604C183.962 37.7684 183.864 38.2673 183.96 38.7476C184.055 39.2279 184.336 39.6504 184.74 39.9223Z" fill="#586B8D"/>
<path d="M208.227 75.1217C208.461 76.2948 208.662 77.4988 208.822 78.7004C208.893 79.1835 209.149 79.6194 209.534 79.9155C209.919 80.2115 210.403 80.3444 210.884 80.2858C211.123 80.2534 211.353 80.1739 211.561 80.0519C211.769 79.9299 211.951 79.7677 212.097 79.5746C212.243 79.3815 212.35 79.1613 212.411 78.9266C212.473 78.6919 212.488 78.4473 212.456 78.2067C212.284 76.926 212.071 75.6426 211.821 74.3913C211.724 73.9116 211.442 73.4904 211.038 73.2199C210.633 72.9494 210.139 72.8519 209.663 72.9485C209.187 73.0452 208.769 73.3283 208.499 73.7356C208.23 74.143 208.132 74.6415 208.227 75.1217Z" fill="#586B8D"/>
<path d="M164.896 31.6952C166.074 31.9267 167.253 32.1994 168.401 32.5059C168.871 32.6314 169.371 32.5634 169.791 32.3169C170.212 32.0704 170.518 31.6655 170.642 31.1914C170.766 30.7173 170.699 30.2128 170.454 29.7889C170.21 29.3649 169.809 29.0563 169.339 28.9308C168.113 28.604 166.855 28.3128 165.598 28.0659C165.122 27.9744 164.629 28.0768 164.228 28.3509C163.826 28.6249 163.549 29.0482 163.456 29.5281C163.363 30.0081 163.462 30.5055 163.732 30.9116C164.002 31.3178 164.421 31.5995 164.896 31.6952Z" fill="#586B8D"/>
<path d="M143.079 31.791C143.201 31.7908 143.323 31.7785 143.442 31.7544C144.611 31.5179 145.804 31.317 146.989 31.1581C147.228 31.1261 147.458 31.047 147.666 30.9253C147.875 30.8037 148.057 30.6418 148.203 30.449C148.35 30.2562 148.457 30.0362 148.519 29.8016C148.581 29.567 148.596 29.3223 148.565 29.0817C148.533 28.841 148.454 28.609 148.334 28.3989C148.213 28.1888 148.053 28.0047 147.862 27.8571C147.67 27.7096 147.452 27.6015 147.22 27.5389C146.987 27.4764 146.745 27.4607 146.506 27.4927C145.241 27.662 143.968 27.8764 142.721 28.1287C142.275 28.219 141.878 28.4732 141.608 28.8418C141.337 29.2105 141.212 29.6673 141.257 30.1237C141.302 30.5801 141.513 31.0034 141.85 31.3115C142.186 31.6196 142.625 31.7905 143.079 31.791Z" fill="#586B8D"/>
<path d="M154.161 30.6711L154.319 30.6706C155.468 30.6706 156.627 30.7067 157.763 30.7776C157.802 30.7803 157.84 30.7812 157.879 30.7812C158.355 30.7807 158.812 30.5933 159.154 30.2588C159.495 29.9242 159.694 29.4687 159.709 28.9887C159.724 28.5087 159.552 28.0418 159.232 27.6868C158.911 27.3318 158.466 27.1167 157.991 27.0869C156.779 27.0111 155.546 26.9727 154.306 26.9727H154.303L154.161 26.9732C153.675 26.9732 153.209 27.168 152.865 27.5147C152.521 27.8614 152.328 28.3317 152.328 28.8221C152.328 29.3125 152.521 29.7828 152.865 30.1295C153.209 30.4763 153.675 30.6711 154.161 30.6711Z" fill="#586B8D"/>
<path d="M132.439 35.0655C132.681 35.0687 132.921 35.0221 133.144 34.9284C134.244 34.4652 135.374 34.0328 136.502 33.6432C136.962 33.4843 137.34 33.1475 137.554 32.707C137.768 32.2665 137.799 31.7585 137.642 31.2945C137.484 30.8306 137.15 30.4489 136.713 30.2332C136.277 30.0176 135.773 29.9858 135.313 30.1448C134.111 30.5601 132.905 31.0214 131.732 31.5157C131.509 31.6092 131.308 31.746 131.138 31.9181C130.968 32.0903 130.834 32.2945 130.742 32.5191C130.651 32.7437 130.604 32.9843 130.604 33.2271C130.605 33.47 130.653 33.7103 130.746 33.9343C130.89 34.2675 131.126 34.5515 131.427 34.7522C131.727 34.9529 132.079 35.0617 132.439 35.0655Z" fill="#586B8D"/>
<path d="M211.146 84.0801C210.66 84.0801 210.193 84.2749 209.85 84.6217C209.506 84.9684 209.313 85.4387 209.313 85.9291V86.1404C209.313 87.3492 209.273 88.5698 209.196 89.7687C209.165 90.2582 209.328 90.7401 209.649 91.1085C209.969 91.4769 210.422 91.7017 210.908 91.7333C211.393 91.7649 211.871 91.6008 212.236 91.277C212.601 90.9533 212.824 90.4965 212.855 90.0071C212.937 88.7296 212.979 87.4287 212.979 86.1404V85.9291C212.979 85.4387 212.786 84.9684 212.442 84.6217C212.098 84.2749 211.632 84.0801 211.146 84.0801Z" fill="#586B8D"/>
<path d="M193.211 125.354C192.366 126.207 191.483 127.042 190.586 127.837C190.405 127.997 190.257 128.192 190.151 128.41C190.045 128.628 189.982 128.865 189.967 129.107C189.951 129.349 189.983 129.592 190.061 129.822C190.139 130.052 190.26 130.264 190.419 130.446C190.732 130.79 191.159 131.006 191.619 131.051C192.079 131.097 192.54 130.969 192.912 130.693C193.944 129.862 194.911 128.951 195.804 127.969C196.146 127.622 196.338 127.152 196.337 126.663C196.336 126.173 196.143 125.704 195.8 125.358C195.457 125.012 194.992 124.817 194.506 124.816C194.021 124.816 193.555 125.009 193.211 125.354Z" fill="#586B8D"/>
<path d="M198.306 46.9927C197.463 46.0298 196.578 45.0823 195.675 44.1764C195.504 44.0047 195.301 43.8688 195.079 43.7762C194.856 43.6836 194.617 43.6362 194.376 43.6367C194.135 43.6373 193.897 43.6857 193.674 43.7793C193.452 43.8729 193.25 44.0098 193.08 44.1821C192.91 44.3545 192.776 44.559 192.684 44.7838C192.593 45.0087 192.546 45.2495 192.547 45.4926C192.548 45.7356 192.596 45.9761 192.689 46.2003C192.782 46.4244 192.918 46.6279 193.09 46.799C193.937 47.6486 194.767 48.537 195.556 49.4393C195.878 49.8071 196.331 50.0309 196.817 50.0616C197.302 50.0922 197.78 49.9272 198.144 49.6027C198.509 49.2783 198.731 48.821 198.761 48.3315C198.791 47.842 198.628 47.3605 198.306 46.9927Z" fill="#586B8D"/>
<path d="M184.887 132.258C183.89 132.933 182.863 133.578 181.838 134.178C181.629 134.299 181.447 134.461 181.3 134.654C181.154 134.846 181.047 135.066 180.985 135.301C180.923 135.536 180.907 135.78 180.939 136.021C180.971 136.262 181.049 136.494 181.17 136.704C181.418 137.123 181.819 137.428 182.286 137.553C182.754 137.679 183.252 137.616 183.674 137.377C184.769 136.738 185.864 136.05 186.928 135.331C187.332 135.058 187.612 134.635 187.706 134.154C187.801 133.672 187.702 133.173 187.431 132.766C187.16 132.358 186.74 132.076 186.263 131.98C185.786 131.885 185.291 131.985 184.887 132.258Z" fill="#586B8D"/>
<path d="M202.598 116.443C202.398 116.308 202.173 116.214 201.937 116.167C201.701 116.119 201.458 116.119 201.222 116.166C200.986 116.213 200.761 116.307 200.561 116.442C200.361 116.577 200.189 116.75 200.055 116.952C199.39 117.955 198.684 118.947 197.957 119.9C197.661 120.289 197.53 120.781 197.593 121.267C197.656 121.753 197.908 122.194 198.293 122.493C198.683 122.78 199.167 122.905 199.646 122.842C200.125 122.779 200.561 122.532 200.864 122.154C201.639 121.136 202.392 120.078 203.102 119.008C203.372 118.601 203.471 118.101 203.376 117.62C203.282 117.139 203.002 116.716 202.598 116.443Z" fill="#586B8D"/>
<path d="M210.421 95.5022C210.185 95.4549 209.941 95.455 209.705 95.5026C209.469 95.5501 209.245 95.6442 209.045 95.7794C208.845 95.9145 208.673 96.0882 208.54 96.2903C208.406 96.4925 208.314 96.7192 208.267 96.9575C208.034 98.142 207.761 99.3311 207.454 100.491C207.392 100.726 207.376 100.971 207.407 101.212C207.439 101.453 207.517 101.685 207.637 101.896C207.758 102.106 207.919 102.291 208.11 102.439C208.301 102.586 208.519 102.695 208.752 102.757C208.985 102.82 209.228 102.836 209.467 102.804C209.706 102.772 209.936 102.692 210.145 102.57C210.353 102.448 210.536 102.286 210.682 102.093C210.828 101.9 210.935 101.68 210.997 101.445C211.324 100.207 211.616 98.9383 211.864 97.6744C211.91 97.4362 211.91 97.191 211.863 96.9529C211.816 96.7148 211.722 96.4884 211.588 96.2867C211.454 96.085 211.282 95.9119 211.082 95.7773C210.882 95.6426 210.657 95.5492 210.421 95.5022Z" fill="#586B8D"/>
<path d="M175.398 137.39C174.301 137.849 173.171 138.279 172.039 138.667C171.811 138.745 171.601 138.868 171.42 139.028C171.239 139.188 171.091 139.383 170.985 139.601C170.878 139.818 170.815 140.055 170.8 140.297C170.784 140.54 170.816 140.783 170.893 141.013C171.056 141.473 171.389 141.851 171.823 142.067C172.258 142.283 172.758 142.319 173.219 142.168C174.427 141.754 175.633 141.295 176.805 140.804C177.254 140.616 177.61 140.256 177.795 139.802C177.981 139.349 177.98 138.84 177.794 138.387C177.607 137.934 177.25 137.575 176.801 137.388C176.351 137.201 175.846 137.201 175.398 137.39Z" fill="#586B8D"/>
<path d="M201.866 58.2512C202.121 58.6637 202.523 58.9624 202.989 59.0862C203.455 59.21 203.95 59.1494 204.373 58.917C204.581 58.7947 204.763 58.6323 204.909 58.439C205.055 58.2458 205.161 58.0255 205.222 57.7907C205.284 57.5559 205.299 57.3112 205.266 57.0707C205.234 56.8301 205.154 56.5984 205.033 56.3887C204.393 55.2805 203.707 54.1785 202.996 53.1132C202.724 52.7064 202.304 52.4251 201.826 52.3311C201.349 52.2372 200.854 52.3383 200.451 52.6122C200.048 52.8861 199.769 53.3104 199.676 53.7918C199.582 54.2732 199.683 54.7721 199.954 55.1789C200.622 56.1788 201.266 57.212 201.866 58.2512Z" fill="#586B8D"/>
<path d="M207.54 106.365C207.091 106.178 206.586 106.178 206.137 106.365C205.688 106.553 205.331 106.913 205.144 107.366C204.685 108.483 204.185 109.596 203.657 110.672C203.548 110.89 203.484 111.127 203.467 111.37C203.449 111.613 203.48 111.857 203.557 112.089C203.633 112.32 203.755 112.533 203.914 112.717C204.073 112.901 204.266 113.051 204.483 113.159C204.699 113.267 204.935 113.331 205.176 113.347C205.417 113.363 205.659 113.33 205.888 113.251C206.117 113.173 206.328 113.049 206.509 112.888C206.69 112.726 206.838 112.53 206.944 112.311C207.507 111.162 208.041 109.975 208.532 108.781C208.624 108.557 208.671 108.316 208.671 108.074C208.671 107.831 208.624 107.59 208.532 107.366C208.44 107.142 208.305 106.938 208.134 106.766C207.964 106.594 207.762 106.458 207.54 106.365Z" fill="#586B8D"/>
<path d="M106.717 113.94C106.473 113.516 106.072 113.207 105.602 113.081C105.132 112.956 104.632 113.023 104.212 113.269C103.791 113.516 103.485 113.92 103.36 114.394C103.235 114.868 103.302 115.372 103.547 115.796C104.184 116.904 104.867 118.007 105.578 119.075C105.854 119.477 106.273 119.754 106.748 119.848C107.223 119.943 107.716 119.846 108.121 119.58C108.321 119.445 108.493 119.271 108.626 119.069C108.76 118.867 108.852 118.64 108.899 118.402C108.945 118.164 108.945 117.919 108.897 117.681C108.85 117.443 108.756 117.217 108.622 117.015C107.956 116.013 107.315 114.979 106.717 113.94Z" fill="#586B8D"/>
<path d="M123.811 132.298C122.816 131.627 121.832 130.917 120.885 130.184C120.499 129.886 120.011 129.754 119.53 129.819C119.048 129.883 118.611 130.137 118.315 130.527C118.019 130.916 117.889 131.407 117.952 131.893C118.016 132.379 118.268 132.82 118.654 133.119C119.664 133.899 120.714 134.658 121.775 135.373C122.181 135.639 122.675 135.734 123.149 135.639C123.624 135.543 124.043 135.265 124.317 134.862C124.451 134.66 124.544 134.433 124.591 134.195C124.638 133.957 124.638 133.712 124.591 133.474C124.544 133.236 124.451 133.009 124.317 132.808C124.183 132.606 124.011 132.433 123.811 132.298Z" fill="#586B8D"/>
<path d="M113.011 122.762C112.69 122.394 112.236 122.169 111.751 122.138C111.266 122.107 110.788 122.272 110.423 122.596C110.058 122.921 109.836 123.378 109.805 123.867C109.775 124.357 109.938 124.838 110.259 125.206C111.105 126.174 111.988 127.123 112.885 128.026C113.233 128.365 113.698 128.554 114.182 128.553C114.666 128.553 115.13 128.363 115.478 128.023C115.821 127.676 116.014 127.205 116.013 126.715C116.013 126.225 115.819 125.754 115.475 125.408C114.634 124.561 113.805 123.671 113.011 122.762Z" fill="#586B8D"/>
<path d="M103.528 107.446C103.067 106.329 102.64 105.19 102.259 104.063C102.103 103.598 101.77 103.216 101.334 102.999C100.898 102.782 100.394 102.749 99.9337 102.907C99.4733 103.065 99.094 103.401 98.8792 103.84C98.6643 104.28 98.6315 104.788 98.7879 105.252C99.1943 106.459 99.6499 107.675 100.144 108.869C100.343 109.312 100.702 109.661 101.147 109.846C101.592 110.031 102.091 110.037 102.541 109.864C102.763 109.771 102.965 109.634 103.135 109.462C103.305 109.29 103.439 109.086 103.531 108.861C103.622 108.637 103.669 108.396 103.669 108.153C103.668 107.911 103.62 107.67 103.528 107.446Z" fill="#586B8D"/>
<path d="M154.371 141.607C154.356 141.607 154.331 141.607 154.304 141.608C153.133 141.608 151.944 141.569 150.772 141.494C150.288 141.463 149.811 141.628 149.446 141.952C149.082 142.276 148.86 142.733 148.829 143.222C148.798 143.711 148.961 144.192 149.282 144.56C149.602 144.928 150.055 145.153 150.54 145.185C151.779 145.264 153.037 145.305 154.321 145.305H154.371C154.857 145.305 155.323 145.11 155.667 144.763C156.011 144.416 156.204 143.946 156.204 143.456C156.204 142.965 156.011 142.495 155.667 142.148C155.323 141.801 154.857 141.607 154.371 141.607Z" fill="#586B8D"/>
<path d="M165.094 140.545C163.93 140.778 162.735 140.977 161.543 141.135C161.305 141.167 161.074 141.246 160.866 141.367C160.658 141.489 160.475 141.65 160.328 141.843C160.182 142.036 160.075 142.256 160.012 142.49C159.95 142.725 159.934 142.969 159.966 143.21C160.036 143.693 160.29 144.13 160.674 144.427C161.058 144.724 161.542 144.858 162.023 144.801C163.292 144.632 164.565 144.421 165.807 144.173C166.043 144.125 166.267 144.032 166.468 143.897C166.668 143.762 166.84 143.589 166.974 143.387C167.108 143.185 167.201 142.959 167.248 142.721C167.295 142.483 167.295 142.238 167.249 141.999C167.202 141.761 167.109 141.535 166.975 141.333C166.842 141.131 166.67 140.957 166.47 140.822C166.27 140.687 166.045 140.593 165.809 140.546C165.573 140.498 165.33 140.498 165.094 140.545Z" fill="#586B8D"/>
<path d="M143.639 140.564C142.469 140.333 141.29 140.058 140.136 139.749C139.903 139.686 139.66 139.67 139.421 139.701C139.182 139.733 138.952 139.812 138.743 139.934C138.535 140.056 138.352 140.218 138.205 140.411C138.059 140.604 137.952 140.824 137.89 141.059C137.828 141.294 137.812 141.539 137.844 141.78C137.877 142.021 137.955 142.254 138.077 142.464C138.198 142.674 138.359 142.858 138.551 143.005C138.743 143.152 138.961 143.26 139.194 143.322C140.425 143.653 141.684 143.946 142.932 144.193C143.409 144.283 143.901 144.18 144.304 143.907C144.706 143.635 144.987 143.214 145.085 142.735C145.179 142.254 145.079 141.755 144.808 141.348C144.537 140.941 144.117 140.659 143.639 140.564Z" fill="#586B8D"/>
<path d="M133.324 137.424C132.22 136.964 131.117 136.46 130.044 135.927C129.607 135.71 129.104 135.677 128.644 135.835C128.183 135.992 127.804 136.328 127.589 136.768C127.374 137.208 127.341 137.716 127.498 138.18C127.654 138.644 127.987 139.027 128.423 139.244C129.568 139.812 130.745 140.351 131.922 140.842C132.372 141.023 132.875 141.019 133.322 140.832C133.769 140.645 134.127 140.289 134.318 139.84C134.503 139.386 134.503 138.877 134.317 138.424C134.13 137.971 133.773 137.611 133.324 137.424Z" fill="#586B8D"/>
</svg>
