<svg width="53" height="45" viewBox="0 0 53 45" fill="none" xmlns="http://www.w3.org/2000/svg">
<path d="M50.6652 35.3571H16.9152V33.75C16.9152 32.8661 16.192 32.1429 15.308 32.1429H12.0937C11.2098 32.1429 10.4866 32.8661 10.4866 33.75V35.3571H2.45089C1.56696 35.3571 0.84375 36.0804 0.84375 36.9643V40.1786C0.84375 41.0625 1.56696 41.7857 2.45089 41.7857H10.4866V43.3929C10.4866 44.2768 11.2098 45 12.0937 45H15.308C16.192 45 16.9152 44.2768 16.9152 43.3929V41.7857H50.6652C51.5491 41.7857 52.2723 41.0625 52.2723 40.1786V36.9643C52.2723 36.0804 51.5491 35.3571 50.6652 35.3571ZM50.6652 19.2857H42.6295V17.6786C42.6295 16.7946 41.9062 16.0714 41.0223 16.0714H37.808C36.9241 16.0714 36.2009 16.7946 36.2009 17.6786V19.2857H2.45089C1.56696 19.2857 0.84375 20.0089 0.84375 20.8929V24.1071C0.84375 24.9911 1.56696 25.7143 2.45089 25.7143H36.2009V27.3214C36.2009 28.2054 36.9241 28.9286 37.808 28.9286H41.0223C41.9062 28.9286 42.6295 28.2054 42.6295 27.3214V25.7143H50.6652C51.5491 25.7143 52.2723 24.9911 52.2723 24.1071V20.8929C52.2723 20.0089 51.5491 19.2857 50.6652 19.2857ZM50.6652 3.21429H29.7723V1.60714C29.7723 0.723214 29.0491 0 28.1652 0H24.9509C24.067 0 23.3437 0.723214 23.3437 1.60714V3.21429H2.45089C1.56696 3.21429 0.84375 3.9375 0.84375 4.82143V8.03571C0.84375 8.91964 1.56696 9.64286 2.45089 9.64286H23.3437V11.25C23.3437 12.1339 24.067 12.8571 24.9509 12.8571H28.1652C29.0491 12.8571 29.7723 12.1339 29.7723 11.25V9.64286H50.6652C51.5491 9.64286 52.2723 8.91964 52.2723 8.03571V4.82143C52.2723 3.9375 51.5491 3.21429 50.6652 3.21429Z" fill="#FF994F"/>
</svg>
