<svg width="248" height="205" viewBox="0 0 248 205" fill="none" xmlns="http://www.w3.org/2000/svg">
<path d="M58.3413 116H56.3803L62.0521 100.553H63.9829L69.6547 116H67.6937L63.0778 102.997H62.9572L58.3413 116ZM59.0653 109.966H66.9697V111.625H59.0653V109.966ZM73.9312 100.553V116H72.0607V100.553H73.9312ZM83.6552 100.553H85.8877L91.1372 113.375H91.3182L96.5676 100.553H98.8002V116H97.0503V104.264H96.8995L92.0724 116H90.3829L85.5558 104.264H85.405V116H83.6552V100.553ZM107.016 116.241C105.97 116.241 105.052 115.992 104.263 115.495C103.478 114.997 102.865 114.3 102.422 113.405C101.985 112.51 101.766 111.465 101.766 110.268C101.766 109.061 101.985 108.008 102.422 107.108C102.865 106.208 103.478 105.509 104.263 105.011C105.052 104.513 105.97 104.264 107.016 104.264C108.062 104.264 108.977 104.513 109.761 105.011C110.55 105.509 111.164 106.208 111.601 107.108C112.044 108.008 112.265 109.061 112.265 110.268C112.265 111.465 112.044 112.51 111.601 113.405C111.164 114.3 110.55 114.997 109.761 115.495C108.977 115.992 108.062 116.241 107.016 116.241ZM107.016 114.642C107.81 114.642 108.464 114.439 108.977 114.031C109.49 113.624 109.869 113.089 110.116 112.425C110.362 111.761 110.485 111.042 110.485 110.268C110.485 109.493 110.362 108.772 110.116 108.103C109.869 107.434 109.49 106.894 108.977 106.482C108.464 106.069 107.81 105.863 107.016 105.863C106.221 105.863 105.568 106.069 105.055 106.482C104.542 106.894 104.162 107.434 103.916 108.103C103.669 108.772 103.546 109.493 103.546 110.268C103.546 111.042 103.669 111.761 103.916 112.425C104.162 113.089 104.542 113.624 105.055 114.031C105.568 114.439 106.221 114.642 107.016 114.642ZM119.357 116.241C118.391 116.241 117.539 115.997 116.8 115.51C116.061 115.017 115.483 114.323 115.065 113.428C114.648 112.528 114.439 111.465 114.439 110.238C114.439 109.021 114.648 107.965 115.065 107.07C115.483 106.175 116.063 105.483 116.807 104.996C117.552 104.508 118.411 104.264 119.387 104.264C120.141 104.264 120.737 104.39 121.174 104.641C121.617 104.888 121.954 105.169 122.185 105.486C122.421 105.798 122.605 106.054 122.736 106.255H122.887V100.553H124.667V116H122.947V114.22H122.736C122.605 114.431 122.419 114.698 122.178 115.019C121.936 115.336 121.592 115.62 121.144 115.872C120.697 116.118 120.101 116.241 119.357 116.241ZM119.598 114.642C120.312 114.642 120.916 114.456 121.408 114.084C121.901 113.707 122.276 113.187 122.532 112.523C122.789 111.854 122.917 111.082 122.917 110.207C122.917 109.343 122.791 108.586 122.54 107.937C122.288 107.284 121.916 106.776 121.423 106.414C120.931 106.047 120.322 105.863 119.598 105.863C118.844 105.863 118.215 106.057 117.713 106.444C117.215 106.826 116.84 107.346 116.589 108.005C116.342 108.659 116.219 109.393 116.219 110.207C116.219 111.032 116.345 111.781 116.596 112.455C116.853 113.124 117.23 113.657 117.728 114.054C118.23 114.446 118.854 114.642 119.598 114.642ZM133.031 116.241C131.915 116.241 130.952 115.995 130.142 115.502C129.338 115.004 128.717 114.311 128.279 113.421C127.847 112.526 127.631 111.485 127.631 110.298C127.631 109.111 127.847 108.065 128.279 107.16C128.717 106.25 129.325 105.541 130.105 105.033C130.889 104.521 131.804 104.264 132.85 104.264C133.453 104.264 134.049 104.365 134.638 104.566C135.226 104.767 135.761 105.094 136.244 105.546C136.727 105.994 137.111 106.587 137.398 107.326C137.685 108.065 137.828 108.976 137.828 110.057V110.811H128.898V109.272H136.018C136.018 108.619 135.887 108.035 135.626 107.522C135.369 107.01 135.002 106.605 134.524 106.308C134.052 106.011 133.494 105.863 132.85 105.863C132.141 105.863 131.528 106.039 131.01 106.391C130.497 106.738 130.102 107.191 129.826 107.749C129.549 108.307 129.411 108.905 129.411 109.544V110.57C129.411 111.444 129.562 112.186 129.863 112.795C130.17 113.398 130.595 113.858 131.138 114.175C131.681 114.487 132.312 114.642 133.031 114.642C133.499 114.642 133.921 114.577 134.298 114.446C134.68 114.311 135.01 114.109 135.286 113.843C135.563 113.571 135.776 113.234 135.927 112.832L137.647 113.315C137.466 113.898 137.162 114.411 136.734 114.854C136.307 115.291 135.779 115.633 135.15 115.879C134.522 116.121 133.815 116.241 133.031 116.241ZM142.316 100.553V116H140.536V100.553H142.316ZM153.782 107.01L152.183 107.462C152.082 107.196 151.934 106.937 151.738 106.685C151.547 106.429 151.285 106.218 150.953 106.052C150.622 105.886 150.197 105.803 149.679 105.803C148.97 105.803 148.379 105.966 147.906 106.293C147.439 106.615 147.205 107.025 147.205 107.522C147.205 107.965 147.366 108.314 147.688 108.571C148.009 108.827 148.512 109.041 149.196 109.212L150.916 109.634C151.952 109.886 152.723 110.27 153.231 110.788C153.739 111.301 153.993 111.962 153.993 112.772C153.993 113.436 153.802 114.029 153.42 114.552C153.043 115.075 152.515 115.487 151.836 115.789C151.157 116.091 150.368 116.241 149.468 116.241C148.286 116.241 147.308 115.985 146.534 115.472C145.759 114.959 145.269 114.21 145.063 113.224L146.752 112.802C146.913 113.426 147.217 113.893 147.665 114.205C148.118 114.517 148.708 114.673 149.437 114.673C150.267 114.673 150.926 114.497 151.414 114.145C151.906 113.788 152.153 113.36 152.153 112.862C152.153 112.46 152.012 112.123 151.73 111.852C151.449 111.575 151.016 111.369 150.433 111.233L148.502 110.781C147.441 110.529 146.662 110.14 146.164 109.612C145.671 109.079 145.425 108.412 145.425 107.613C145.425 106.959 145.608 106.381 145.976 105.878C146.348 105.375 146.853 104.981 147.492 104.694C148.135 104.407 148.864 104.264 149.679 104.264C150.825 104.264 151.725 104.516 152.379 105.018C153.038 105.521 153.505 106.185 153.782 107.01ZM166.055 116.272C165.321 116.272 164.655 116.133 164.056 115.857C163.458 115.575 162.983 115.17 162.631 114.642C162.279 114.109 162.103 113.466 162.103 112.712C162.103 112.048 162.234 111.51 162.495 111.097C162.757 110.68 163.106 110.353 163.543 110.117C163.981 109.881 164.464 109.705 164.992 109.589C165.525 109.468 166.06 109.373 166.598 109.302C167.302 109.212 167.873 109.144 168.31 109.099C168.753 109.048 169.075 108.966 169.276 108.85C169.482 108.734 169.585 108.533 169.585 108.246V108.186C169.585 107.442 169.381 106.864 168.974 106.451C168.572 106.039 167.961 105.833 167.141 105.833C166.291 105.833 165.625 106.019 165.142 106.391C164.66 106.763 164.32 107.16 164.124 107.583L162.435 106.979C162.736 106.275 163.139 105.727 163.642 105.335C164.149 104.938 164.702 104.661 165.301 104.505C165.904 104.345 166.498 104.264 167.081 104.264C167.453 104.264 167.88 104.309 168.363 104.4C168.851 104.485 169.321 104.664 169.773 104.935C170.231 105.207 170.611 105.617 170.912 106.165C171.214 106.713 171.365 107.447 171.365 108.367V116H169.585V114.431H169.494C169.374 114.683 169.173 114.952 168.891 115.238C168.609 115.525 168.235 115.769 167.767 115.97C167.3 116.171 166.729 116.272 166.055 116.272ZM166.327 114.673C167.031 114.673 167.624 114.534 168.107 114.258C168.594 113.981 168.961 113.624 169.208 113.187C169.459 112.749 169.585 112.289 169.585 111.806V110.177C169.509 110.268 169.344 110.351 169.087 110.426C168.836 110.497 168.544 110.559 168.212 110.615C167.885 110.665 167.566 110.71 167.254 110.751C166.948 110.786 166.699 110.816 166.508 110.841C166.045 110.901 165.613 110.999 165.21 111.135C164.813 111.266 164.491 111.465 164.245 111.731C164.004 111.993 163.883 112.35 163.883 112.802C163.883 113.421 164.112 113.888 164.569 114.205C165.032 114.517 165.618 114.673 166.327 114.673ZM174.614 116V104.415H176.333V106.165H176.454C176.665 105.592 177.047 105.126 177.6 104.769C178.154 104.412 178.777 104.234 179.471 104.234C179.602 104.234 179.765 104.236 179.961 104.242C180.157 104.247 180.306 104.254 180.406 104.264V106.074C180.346 106.059 180.208 106.037 179.991 106.006C179.78 105.971 179.556 105.954 179.32 105.954C178.757 105.954 178.254 106.072 177.812 106.308C177.374 106.539 177.027 106.861 176.771 107.274C176.519 107.681 176.394 108.146 176.394 108.669V116H174.614ZM187.021 116.241C185.905 116.241 184.942 115.995 184.132 115.502C183.328 115.004 182.707 114.311 182.269 113.421C181.837 112.526 181.621 111.485 181.621 110.298C181.621 109.111 181.837 108.065 182.269 107.16C182.707 106.25 183.315 105.541 184.094 105.033C184.879 104.521 185.794 104.264 186.84 104.264C187.443 104.264 188.039 104.365 188.627 104.566C189.216 104.767 189.751 105.094 190.234 105.546C190.717 105.994 191.101 106.587 191.388 107.326C191.674 108.065 191.818 108.976 191.818 110.057V110.811H182.888V109.272H190.008C190.008 108.619 189.877 108.035 189.615 107.522C189.359 107.01 188.992 106.605 188.514 106.308C188.042 106.011 187.483 105.863 186.84 105.863C186.131 105.863 185.517 106.039 184.999 106.391C184.487 106.738 184.092 107.191 183.815 107.749C183.539 108.307 183.401 108.905 183.401 109.544V110.57C183.401 111.444 183.551 112.186 183.853 112.795C184.16 113.398 184.585 113.858 185.128 114.175C185.671 114.487 186.302 114.642 187.021 114.642C187.488 114.642 187.911 114.577 188.288 114.446C188.67 114.311 188.999 114.109 189.276 113.843C189.553 113.571 189.766 113.234 189.917 112.832L191.637 113.315C191.456 113.898 191.152 114.411 190.724 114.854C190.297 115.291 189.769 115.633 189.14 115.879C188.512 116.121 187.805 116.241 187.021 116.241ZM45.0837 139.263V132.415H46.8637V144H45.0837V142.039H44.9631C44.6915 142.627 44.2692 143.128 43.6959 143.54C43.1227 143.947 42.3987 144.151 41.5238 144.151C40.7997 144.151 40.1561 143.992 39.5929 143.676C39.0298 143.354 38.5873 142.871 38.2655 142.228C37.9437 141.579 37.7828 140.762 37.7828 139.776V132.415H39.5628V139.656C39.5628 140.5 39.7991 141.174 40.2717 141.677C40.7494 142.18 41.3578 142.431 42.097 142.431C42.5395 142.431 42.9895 142.318 43.4471 142.092C43.9096 141.866 44.2968 141.519 44.6086 141.051C44.9253 140.583 45.0837 139.987 45.0837 139.263ZM50.3652 144V128.553H52.1452V134.255H52.2961C52.4268 134.054 52.6078 133.798 52.8391 133.486C53.0755 133.169 53.4123 132.888 53.8498 132.641C54.2923 132.39 54.8906 132.264 55.6449 132.264C56.6203 132.264 57.4802 132.508 58.2243 132.996C58.9685 133.483 59.5493 134.175 59.9666 135.07C60.384 135.965 60.5926 137.021 60.5926 138.238C60.5926 139.465 60.384 140.528 59.9666 141.428C59.5493 142.323 58.971 143.017 58.2319 143.51C57.4927 143.997 56.6405 144.241 55.675 144.241C54.9309 144.241 54.335 144.118 53.8875 143.872C53.44 143.62 53.0956 143.336 52.8542 143.019C52.6129 142.698 52.4268 142.431 52.2961 142.22H52.0849V144H50.3652ZM52.1151 138.207C52.1151 139.082 52.2433 139.854 52.4997 140.523C52.7562 141.187 53.1308 141.707 53.6235 142.084C54.1163 142.456 54.7197 142.642 55.4337 142.642C56.1779 142.642 56.7988 142.446 57.2966 142.054C57.7995 141.657 58.1766 141.124 58.428 140.455C58.6844 139.781 58.8126 139.032 58.8126 138.207C58.8126 137.393 58.6869 136.659 58.4355 136.005C58.1892 135.346 57.8145 134.826 57.3117 134.444C56.8139 134.057 56.1879 133.863 55.4337 133.863C54.7096 133.863 54.1012 134.047 53.6084 134.414C53.1157 134.776 52.7436 135.284 52.4922 135.937C52.2408 136.586 52.1151 137.343 52.1151 138.207ZM63.3154 144V132.415H65.0954V144H63.3154ZM64.2205 130.484C63.8735 130.484 63.5744 130.366 63.323 130.13C63.0766 129.893 62.9534 129.609 62.9534 129.277C62.9534 128.946 63.0766 128.661 63.323 128.425C63.5744 128.189 63.8735 128.071 64.2205 128.071C64.5674 128.071 64.8641 128.189 65.1105 128.425C65.3619 128.661 65.4876 128.946 65.4876 129.277C65.4876 129.609 65.3619 129.893 65.1105 130.13C64.8641 130.366 64.5674 130.484 64.2205 130.484ZM76.2599 148.344V142.22H76.1091C75.9783 142.431 75.7923 142.698 75.551 143.019C75.3096 143.336 74.9652 143.62 74.5177 143.872C74.0701 144.118 73.4743 144.241 72.7301 144.241C71.7647 144.241 70.9124 143.997 70.1733 143.51C69.4341 143.017 68.8559 142.323 68.4385 141.428C68.0212 140.528 67.8125 139.465 67.8125 138.238C67.8125 137.021 68.0212 135.965 68.4385 135.07C68.8559 134.175 69.4366 133.483 70.1808 132.996C70.925 132.508 71.7848 132.264 72.7603 132.264C73.5145 132.264 74.1104 132.39 74.5478 132.641C74.9903 132.888 75.3272 133.169 75.5585 133.486C75.7948 133.798 75.9783 134.054 76.1091 134.255H76.3203V132.415H78.0399V148.344H76.2599ZM72.9715 142.642C73.6855 142.642 74.2889 142.456 74.7816 142.084C75.2744 141.707 75.649 141.187 75.9054 140.523C76.1619 139.854 76.2901 139.082 76.2901 138.207C76.2901 137.343 76.1644 136.586 75.913 135.937C75.6616 135.284 75.2895 134.776 74.7967 134.414C74.304 134.047 73.6955 133.863 72.9715 133.863C72.2172 133.863 71.5887 134.057 71.0859 134.444C70.5881 134.826 70.2135 135.346 69.9621 136.005C69.7157 136.659 69.5925 137.393 69.5925 138.207C69.5925 139.032 69.7182 139.781 69.9696 140.455C70.2261 141.124 70.6032 141.657 71.101 142.054C71.6038 142.446 72.2273 142.642 72.9715 142.642ZM88.5992 139.263V132.415H90.3792V144H88.5992V142.039H88.4785C88.207 142.627 87.7846 143.128 87.2114 143.54C86.6382 143.947 85.9141 144.151 85.0392 144.151C84.3151 144.151 83.6715 143.992 83.1084 143.676C82.5452 143.354 82.1027 142.871 81.7809 142.228C81.4591 141.579 81.2982 140.762 81.2982 139.776V132.415H83.0782V139.656C83.0782 140.5 83.3145 141.174 83.7872 141.677C84.2648 142.18 84.8733 142.431 85.6124 142.431C86.0549 142.431 86.5049 142.318 86.9625 142.092C87.4251 141.866 87.8123 141.519 88.124 141.051C88.4408 140.583 88.5992 139.987 88.5992 139.263ZM93.6393 144V132.415H95.4193V144H93.6393ZM94.5444 130.484C94.1975 130.484 93.8983 130.366 93.6469 130.13C93.4005 129.893 93.2773 129.609 93.2773 129.277C93.2773 128.946 93.4005 128.661 93.6469 128.425C93.8983 128.189 94.1975 128.071 94.5444 128.071C94.8914 128.071 95.188 128.189 95.4344 128.425C95.6858 128.661 95.8115 128.946 95.8115 129.277C95.8115 129.609 95.6858 129.893 95.4344 130.13C95.188 130.366 94.8914 130.484 94.5444 130.484ZM103.718 132.415V133.923H97.7141V132.415H103.718ZM99.4639 129.639H101.244V140.681C101.244 141.184 101.317 141.561 101.463 141.813C101.613 142.059 101.805 142.225 102.036 142.311C102.272 142.391 102.521 142.431 102.783 142.431C102.979 142.431 103.14 142.421 103.265 142.401C103.391 142.376 103.491 142.356 103.567 142.341L103.929 143.94C103.808 143.985 103.64 144.03 103.424 144.075C103.207 144.126 102.933 144.151 102.601 144.151C102.099 144.151 101.606 144.043 101.123 143.827C100.646 143.61 100.248 143.281 99.9315 142.838C99.6198 142.396 99.4639 141.838 99.4639 141.164V129.639ZM110.977 144.241C109.931 144.241 109.014 143.992 108.224 143.495C107.44 142.997 106.826 142.3 106.384 141.405C105.947 140.51 105.728 139.465 105.728 138.268C105.728 137.061 105.947 136.008 106.384 135.108C106.826 134.208 107.44 133.509 108.224 133.011C109.014 132.513 109.931 132.264 110.977 132.264C112.023 132.264 112.938 132.513 113.723 133.011C114.512 133.509 115.126 134.208 115.563 135.108C116.005 136.008 116.227 137.061 116.227 138.268C116.227 139.465 116.005 140.51 115.563 141.405C115.126 142.3 114.512 142.997 113.723 143.495C112.938 143.992 112.023 144.241 110.977 144.241ZM110.977 142.642C111.772 142.642 112.425 142.439 112.938 142.031C113.451 141.624 113.831 141.089 114.077 140.425C114.324 139.761 114.447 139.042 114.447 138.268C114.447 137.493 114.324 136.772 114.077 136.103C113.831 135.434 113.451 134.894 112.938 134.482C112.425 134.069 111.772 133.863 110.977 133.863C110.183 133.863 109.529 134.069 109.016 134.482C108.503 134.894 108.124 135.434 107.877 136.103C107.631 136.772 107.508 137.493 107.508 138.268C107.508 139.042 107.631 139.761 107.877 140.425C108.124 141.089 108.503 141.624 109.016 142.031C109.529 142.439 110.183 142.642 110.977 142.642ZM126.245 139.263V132.415H128.025V144H126.245V142.039H126.124C125.853 142.627 125.43 143.128 124.857 143.54C124.284 143.947 123.56 144.151 122.685 144.151C121.961 144.151 121.317 143.992 120.754 143.676C120.191 143.354 119.748 142.871 119.427 142.228C119.105 141.579 118.944 140.762 118.944 139.776V132.415H120.724V139.656C120.724 140.5 120.96 141.174 121.433 141.677C121.91 142.18 122.519 142.431 123.258 142.431C123.701 142.431 124.151 142.318 124.608 142.092C125.071 141.866 125.458 141.519 125.77 141.051C126.086 140.583 126.245 139.987 126.245 139.263ZM139.491 135.01L137.892 135.462C137.791 135.196 137.643 134.937 137.447 134.685C137.256 134.429 136.994 134.218 136.663 134.052C136.331 133.886 135.906 133.803 135.388 133.803C134.679 133.803 134.088 133.966 133.616 134.293C133.148 134.615 132.914 135.025 132.914 135.522C132.914 135.965 133.075 136.314 133.397 136.571C133.719 136.827 134.221 137.041 134.905 137.212L136.625 137.634C137.661 137.886 138.433 138.27 138.94 138.788C139.448 139.301 139.702 139.962 139.702 140.772C139.702 141.436 139.511 142.029 139.129 142.552C138.752 143.075 138.224 143.487 137.545 143.789C136.866 144.091 136.077 144.241 135.177 144.241C133.995 144.241 133.017 143.985 132.243 143.472C131.468 142.959 130.978 142.21 130.772 141.224L132.462 140.802C132.622 141.426 132.927 141.893 133.374 142.205C133.827 142.517 134.418 142.673 135.147 142.673C135.976 142.673 136.635 142.497 137.123 142.145C137.615 141.788 137.862 141.36 137.862 140.862C137.862 140.46 137.721 140.123 137.439 139.852C137.158 139.575 136.725 139.369 136.142 139.233L134.211 138.781C133.15 138.529 132.371 138.14 131.873 137.612C131.38 137.079 131.134 136.412 131.134 135.613C131.134 134.959 131.318 134.381 131.685 133.878C132.057 133.375 132.562 132.981 133.201 132.694C133.844 132.407 134.573 132.264 135.388 132.264C136.534 132.264 137.434 132.516 138.088 133.018C138.747 133.521 139.214 134.185 139.491 135.01ZM144.162 128.553V144H142.382V128.553H144.162ZM148.568 148.344C148.266 148.344 147.997 148.319 147.761 148.269C147.525 148.224 147.361 148.178 147.271 148.133L147.723 146.564C148.156 146.675 148.538 146.715 148.87 146.685C149.202 146.655 149.496 146.507 149.752 146.24C150.014 145.979 150.253 145.554 150.469 144.965L150.801 144.06L146.517 132.415H148.448L151.645 141.647H151.766L154.964 132.415H156.895L151.977 145.689C151.756 146.288 151.482 146.783 151.155 147.175C150.828 147.573 150.449 147.867 150.016 148.058C149.589 148.249 149.106 148.344 148.568 148.344ZM172.519 139.263V132.415H174.299V144H172.519V142.039H172.398C172.127 142.627 171.704 143.128 171.131 143.54C170.558 143.947 169.834 144.151 168.959 144.151C168.235 144.151 167.591 143.992 167.028 143.676C166.465 143.354 166.022 142.871 165.701 142.228C165.379 141.579 165.218 140.762 165.218 139.776V132.415H166.998V139.656C166.998 140.5 167.234 141.174 167.707 141.677C168.185 142.18 168.793 142.431 169.532 142.431C169.975 142.431 170.425 142.318 170.882 142.092C171.345 141.866 171.732 141.519 172.044 141.051C172.36 140.583 172.519 139.987 172.519 139.263ZM185.765 135.01L184.166 135.462C184.065 135.196 183.917 134.937 183.721 134.685C183.53 134.429 183.269 134.218 182.937 134.052C182.605 133.886 182.18 133.803 181.662 133.803C180.953 133.803 180.362 133.966 179.89 134.293C179.422 134.615 179.188 135.025 179.188 135.522C179.188 135.965 179.349 136.314 179.671 136.571C179.993 136.827 180.495 137.041 181.179 137.212L182.899 137.634C183.935 137.886 184.707 138.27 185.214 138.788C185.722 139.301 185.976 139.962 185.976 140.772C185.976 141.436 185.785 142.029 185.403 142.552C185.026 143.075 184.498 143.487 183.819 143.789C183.14 144.091 182.351 144.241 181.451 144.241C180.269 144.241 179.291 143.985 178.517 143.472C177.743 142.959 177.252 142.21 177.046 141.224L178.736 140.802C178.896 141.426 179.201 141.893 179.648 142.205C180.101 142.517 180.692 142.673 181.421 142.673C182.25 142.673 182.909 142.497 183.397 142.145C183.89 141.788 184.136 141.36 184.136 140.862C184.136 140.46 183.995 140.123 183.714 139.852C183.432 139.575 183 139.369 182.416 139.233L180.485 138.781C179.424 138.529 178.645 138.14 178.147 137.612C177.655 137.079 177.408 136.412 177.408 135.613C177.408 134.959 177.592 134.381 177.959 133.878C178.331 133.375 178.836 132.981 179.475 132.694C180.118 132.407 180.847 132.264 181.662 132.264C182.808 132.264 183.708 132.516 184.362 133.018C185.021 133.521 185.488 134.185 185.765 135.01ZM193.513 144.241C192.397 144.241 191.434 143.995 190.624 143.502C189.82 143.004 189.199 142.311 188.761 141.421C188.329 140.526 188.113 139.485 188.113 138.298C188.113 137.111 188.329 136.065 188.761 135.16C189.199 134.25 189.807 133.541 190.586 133.033C191.371 132.521 192.286 132.264 193.332 132.264C193.935 132.264 194.531 132.365 195.119 132.566C195.708 132.767 196.243 133.094 196.726 133.546C197.209 133.994 197.593 134.587 197.88 135.326C198.167 136.065 198.31 136.976 198.31 138.057V138.811H189.38V137.272H196.5C196.5 136.619 196.369 136.035 196.107 135.522C195.851 135.01 195.484 134.605 195.006 134.308C194.534 134.011 193.975 133.863 193.332 133.863C192.623 133.863 192.009 134.039 191.492 134.391C190.979 134.738 190.584 135.191 190.307 135.749C190.031 136.307 189.893 136.905 189.893 137.544V138.57C189.893 139.444 190.043 140.186 190.345 140.795C190.652 141.398 191.077 141.858 191.62 142.175C192.163 142.487 192.794 142.642 193.513 142.642C193.981 142.642 194.403 142.577 194.78 142.446C195.162 142.311 195.491 142.109 195.768 141.843C196.045 141.571 196.258 141.234 196.409 140.832L198.129 141.315C197.948 141.898 197.644 142.411 197.216 142.854C196.789 143.291 196.261 143.633 195.632 143.879C195.004 144.121 194.297 144.241 193.513 144.241ZM205.392 144.241C204.427 144.241 203.574 143.997 202.835 143.51C202.096 143.017 201.518 142.323 201.1 141.428C200.683 140.528 200.474 139.465 200.474 138.238C200.474 137.021 200.683 135.965 201.1 135.07C201.518 134.175 202.099 133.483 202.843 132.996C203.587 132.508 204.447 132.264 205.422 132.264C206.176 132.264 206.772 132.39 207.21 132.641C207.652 132.888 207.989 133.169 208.22 133.486C208.457 133.798 208.64 134.054 208.771 134.255H208.922V128.553H210.702V144H208.982V142.22H208.771C208.64 142.431 208.454 142.698 208.213 143.019C207.972 143.336 207.627 143.62 207.18 143.872C206.732 144.118 206.136 144.241 205.392 144.241ZM205.633 142.642C206.347 142.642 206.951 142.456 207.444 142.084C207.936 141.707 208.311 141.187 208.567 140.523C208.824 139.854 208.952 139.082 208.952 138.207C208.952 137.343 208.826 136.586 208.575 135.937C208.323 135.284 207.951 134.776 207.459 134.414C206.966 134.047 206.357 133.863 205.633 133.863C204.879 133.863 204.251 134.057 203.748 134.444C203.25 134.826 202.875 135.346 202.624 136.005C202.378 136.659 202.254 137.393 202.254 138.207C202.254 139.032 202.38 139.781 202.632 140.455C202.888 141.124 203.265 141.657 203.763 142.054C204.266 142.446 204.889 142.642 205.633 142.642Z" fill="#4E6CA8"/>
<path d="M118.398 20.6514L118.399 20.6521C120.828 27.1976 126.127 32.3378 132.84 34.6896L132.841 34.6899L137.048 36.1608L132.841 37.6317L132.84 37.6319C126.127 39.9838 120.828 45.1242 118.399 51.6694L118.398 51.6702L116.845 55.8628L115.292 51.6702L115.292 51.6694C112.862 45.1239 107.563 39.9837 100.85 37.6319L100.849 37.6317L96.6422 36.1608L100.849 34.6899L100.85 34.6896C107.563 32.3377 112.862 27.1974 115.292 20.6521L115.292 20.6514L116.845 16.4588L118.398 20.6514Z" fill="white" stroke="#4E6CA8" stroke-width="2.29841"/>
<path d="M142.818 4.43076L143.075 3.73803L143.332 4.43084L143.333 4.43111C144.624 7.90501 147.435 10.631 150.991 11.8779C150.991 11.8779 150.991 11.8779 150.991 11.8779L151.596 12.0901L150.991 12.3023L150.99 12.3024C147.439 13.549 144.625 16.2713 143.332 19.7494C143.332 19.7494 143.332 19.7494 143.332 19.7495L143.075 20.4422L142.818 19.7494L142.817 19.7491C141.526 16.2752 138.715 13.5492 135.159 12.3023L134.554 12.0901L135.159 11.8779L135.16 11.8778C138.711 10.6312 141.525 7.90889 142.818 4.43076Z" fill="white" stroke="#4E6CA8" stroke-width="2.29841"/>
<path d="M142.818 52.5846L143.075 51.8919L143.332 52.5847L143.333 52.585C144.624 56.0589 147.435 58.7849 150.991 60.0318C150.991 60.0318 150.991 60.0318 150.991 60.0318L151.596 60.244L150.991 60.4562L150.99 60.4563C147.439 61.7029 144.625 64.4252 143.332 67.9033C143.332 67.9033 143.332 67.9033 143.332 67.9033L143.075 68.5961L142.818 67.9033L142.817 67.903C141.526 64.4291 138.715 61.7031 135.159 60.4562L134.554 60.244L135.159 60.0318L135.16 60.0317C138.711 58.7851 141.525 56.0628 142.818 52.5847C142.818 52.5847 142.818 52.5847 142.818 52.5846Z" fill="white" stroke="#4E6CA8" stroke-width="2.29841"/>
</svg>
