<svg width="59" height="45" viewBox="0 0 59 45" fill="none" xmlns="http://www.w3.org/2000/svg">
<path d="M42.7076 16.0714C42.7076 7.19196 33.356 0 21.8147 0C10.2734 0 0.921875 7.19196 0.921875 16.0714C0.921875 19.5167 2.33817 22.6908 4.73884 25.3125C3.39286 28.346 1.17299 30.7567 1.14286 30.7868C0.921875 31.0179 0.861607 31.3594 0.992188 31.6607C1.12277 31.9621 1.40402 32.1429 1.72545 32.1429C5.40179 32.1429 8.44531 30.9074 10.635 29.6317C13.8694 31.2087 17.6964 32.1429 21.8147 32.1429C33.356 32.1429 42.7076 24.9509 42.7076 16.0714ZM54.9621 38.1696C57.3627 35.558 58.779 32.3739 58.779 28.9286C58.779 22.2087 53.4051 16.4531 45.7913 14.0525C45.8817 14.7154 45.9219 15.3884 45.9219 16.0714C45.9219 26.7087 35.1038 35.3571 21.8147 35.3571C20.7299 35.3571 19.6752 35.2768 18.6306 35.1663C21.7946 40.942 29.2277 45 37.8862 45C42.0045 45 45.8315 44.0759 49.0658 42.4888C51.2556 43.7645 54.2991 45 57.9754 45C58.2969 45 58.5882 44.8092 58.7087 44.5179C58.8393 44.2266 58.779 43.885 58.558 43.644C58.5279 43.6138 56.308 41.2132 54.9621 38.1696Z" fill="#FD6C6C"/>
</svg>
