<svg width="127" height="38" viewBox="0 0 127 38" fill="none" xmlns="http://www.w3.org/2000/svg">
<path d="M21.7796 8.26172H7.92773V29.809H21.7796M21.7796 8.26172H35.6314V29.809H21.7796M21.7796 8.26172V29.809" stroke="#1A3E2F" stroke-width="2.31371" stroke-linejoin="round"/>
<path d="M7.71583 4.05661C7.79399 3.85669 7.86649 3.65628 7.93361 3.45801C8.00074 3.65628 8.07323 3.85669 8.15139 4.05661C8.52082 5.00152 9.04472 6.00949 9.7857 6.71074C10.489 7.37631 11.467 7.84025 12.3735 8.1641C12.5336 8.22131 12.6937 8.27491 12.8523 8.32507C12.6826 8.38858 12.511 8.45609 12.3395 8.52768C11.4321 8.90638 10.4599 9.42581 9.76906 10.1219C9.06039 10.836 8.5375 11.8474 8.16147 12.7785C8.07995 12.9803 8.00405 13.1817 7.93361 13.3797C7.86318 13.1817 7.78727 12.9803 7.70575 12.7785C7.32972 11.8474 6.80683 10.836 6.09817 10.1219C5.40731 9.42581 4.43514 8.90638 3.52777 8.52769C3.35624 8.45609 3.18467 8.38859 3.01487 8.32507C3.17351 8.27491 3.33362 8.22131 3.49374 8.1641C4.40018 7.84025 5.37825 7.37631 6.08152 6.71074C6.8225 6.00949 7.3464 5.00152 7.71583 4.05661Z" fill="white" stroke="#1A3E2F" stroke-width="1.48417" stroke-linejoin="round"/>
<path d="M7.71583 25.1972C7.79399 24.9973 7.86649 24.7969 7.93361 24.5986C8.00074 24.7969 8.07323 24.9973 8.15139 25.1972C8.52082 26.1421 9.04472 27.1501 9.7857 27.8514C10.489 28.5169 11.467 28.9809 12.3735 29.3047C12.5336 29.3619 12.6937 29.4155 12.8523 29.4657C12.6826 29.5292 12.511 29.5967 12.3395 29.6683C11.4321 30.047 10.4599 30.5664 9.76906 31.2626C9.06039 31.9766 8.5375 32.988 8.16147 33.9191C8.07995 34.121 8.00405 34.3223 7.93361 34.5203C7.86318 34.3223 7.78727 34.121 7.70575 33.9191C7.32972 32.988 6.80683 31.9766 6.09817 31.2626C5.40731 30.5664 4.43514 30.047 3.52777 29.6683C3.35624 29.5967 3.18467 29.5292 3.01487 29.4657C3.17351 29.4155 3.33362 29.3619 3.49374 29.3047C4.40018 28.9809 5.37825 28.5169 6.08152 27.8514C6.8225 27.1501 7.3464 26.1421 7.71583 25.1972Z" fill="white" stroke="#1A3E2F" stroke-width="1.48417" stroke-linejoin="round"/>
<path d="M35.1651 4.05661C35.2432 3.85669 35.3157 3.65628 35.3828 3.45801C35.45 3.65628 35.5224 3.85669 35.6006 4.05661C35.97 5.00152 36.4939 6.00949 37.2349 6.71074C37.9382 7.37631 38.9163 7.84025 39.8227 8.1641C39.9828 8.22131 40.1429 8.27491 40.3016 8.32507C40.1318 8.38858 39.9602 8.45609 39.7887 8.52768C38.8813 8.90638 37.9091 9.42581 37.2183 10.1219C36.5096 10.836 35.9867 11.8474 35.6107 12.7785C35.5292 12.9803 35.4533 13.1817 35.3828 13.3797C35.3124 13.1817 35.2365 12.9803 35.155 12.7785C34.7789 11.8474 34.256 10.836 33.5474 10.1219C32.8565 9.42581 31.8844 8.90638 30.977 8.52769C30.8055 8.45609 30.6339 8.38859 30.4641 8.32507C30.6227 8.27491 30.7828 8.22131 30.943 8.1641C31.8494 7.84025 32.8275 7.37631 33.5307 6.71074C34.2717 6.00949 34.7956 5.00152 35.1651 4.05661Z" fill="white" stroke="#1A3E2F" stroke-width="1.48417" stroke-linejoin="round"/>
<path d="M35.1651 25.1972C35.2432 24.9973 35.3157 24.7969 35.3828 24.5986C35.45 24.7969 35.5224 24.9973 35.6006 25.1972C35.97 26.1421 36.4939 27.1501 37.2349 27.8514C37.9382 28.5169 38.9163 28.9809 39.8227 29.3047C39.9828 29.3619 40.1429 29.4155 40.3016 29.4657C40.1318 29.5292 39.9602 29.5967 39.7887 29.6683C38.8813 30.047 37.9091 30.5664 37.2183 31.2626C36.5096 31.9766 35.9867 32.988 35.6107 33.9191C35.5292 34.121 35.4533 34.3223 35.3828 34.5203C35.3124 34.3223 35.2365 34.121 35.155 33.9191C34.7789 32.988 34.256 31.9766 33.5474 31.2626C32.8565 30.5664 31.8844 30.047 30.977 29.6683C30.8055 29.5967 30.6339 29.5292 30.4641 29.4657C30.6227 29.4155 30.7828 29.3619 30.943 29.3047C31.8494 28.9809 32.8275 28.5169 33.5307 27.8514C34.2717 27.1501 34.7956 26.1421 35.1651 25.1972Z" fill="white" stroke="#1A3E2F" stroke-width="1.48417" stroke-linejoin="round"/>
<path d="M117.449 33.8268V16.0781H122.596V33.8268H117.449Z" fill="#1A3E2F"/>
<path d="M105.479 34.3008C104.355 34.3008 103.319 34.1036 102.373 33.7092C101.446 33.3148 100.637 32.7725 99.9469 32.0822V33.8275H95.5098V5.42969H100.657V17.203C101.308 16.6902 102.037 16.2958 102.846 16.0197C103.654 15.7436 104.532 15.6056 105.479 15.6056C107.135 15.6056 108.634 16.0296 109.975 16.8776C111.316 17.7058 112.381 18.8299 113.17 20.2498C113.978 21.6697 114.382 23.2375 114.382 24.9532C114.382 26.6689 113.978 28.2367 113.17 29.6566C112.381 31.0568 111.316 32.1808 109.975 33.0288C108.634 33.8768 107.135 34.3008 105.479 34.3008ZM104.887 29.7749C105.755 29.7749 106.544 29.558 107.253 29.1241C107.963 28.6903 108.525 28.1085 108.94 27.3789C109.373 26.6492 109.59 25.8406 109.59 24.9532C109.59 24.0658 109.373 23.2572 108.94 22.5276C108.525 21.7979 107.963 21.2161 107.253 20.7823C106.544 20.3484 105.755 20.1315 104.887 20.1315C104.019 20.1315 103.23 20.3484 102.52 20.7823C101.811 21.2161 101.239 21.7979 100.805 22.5276C100.391 23.2572 100.184 24.0658 100.184 24.9532C100.184 25.8406 100.391 26.6492 100.805 27.3789C101.239 28.1085 101.811 28.6903 102.52 29.1241C103.23 29.558 104.019 29.7749 104.887 29.7749Z" fill="#1A3E2F"/>
<path d="M84.2844 34.4202C82.2926 34.4202 80.5375 34.006 79.019 33.1778C77.5005 32.3495 76.3172 31.2156 75.4693 29.7759C74.6213 28.3166 74.1973 26.6502 74.1973 24.7767C74.1973 22.9822 74.6114 21.3946 75.4397 20.0142C76.2679 18.614 77.3822 17.5097 78.7823 16.7011C80.2022 15.8926 81.77 15.4883 83.4857 15.4883C85.2409 15.4883 86.8087 15.8926 88.1891 16.7011C89.5696 17.4899 90.6542 18.5746 91.443 19.955C92.2516 21.3355 92.6559 22.9033 92.6559 24.6584V26.4629H81.8292C81.3362 26.4629 80.8629 26.4333 80.4093 26.3741C79.9557 26.315 79.5021 26.2459 79.0486 26.167C79.2852 27.3503 79.867 28.3166 80.7938 29.066C81.7404 29.7957 82.9434 30.1605 84.4027 30.1605C85.5268 30.1605 86.5326 29.9337 87.42 29.4801C88.3272 29.0266 89.0667 28.4645 89.6386 27.794L90.7627 32.4087C89.8752 33.0792 88.8695 33.582 87.7454 33.9173C86.641 34.2525 85.4874 34.4202 84.2844 34.4202ZM78.9302 23.061C79.9163 22.8441 80.8826 22.7356 81.8292 22.7356H84.9648C85.517 22.7356 86.0396 22.7554 86.5326 22.7948C87.0256 22.8342 87.489 22.9033 87.9229 23.0019C87.6271 21.937 87.0848 21.0988 86.2959 20.4875C85.5268 19.8761 84.5704 19.5705 83.4266 19.5705C82.3419 19.5705 81.3953 19.886 80.5868 20.5171C79.798 21.1284 79.2458 21.9764 78.9302 23.061Z" fill="#1A3E2F"/>
<path d="M61.2203 34.3008C59.5638 34.3008 58.065 33.8768 56.724 33.0288C55.383 32.1808 54.3082 31.0568 53.4996 29.6566C52.7108 28.2367 52.3164 26.6689 52.3164 24.9532C52.3164 23.2375 52.7108 21.6697 53.4996 20.2498C54.3082 18.8299 55.383 17.7058 56.724 16.8776C58.065 16.0296 59.5638 15.6056 61.2203 15.6056C62.1669 15.6056 63.0445 15.7436 63.853 16.0197C64.6616 16.2958 65.3912 16.6902 66.042 17.203V5.42969H71.1891V33.8275H66.752V32.0822C66.0815 32.7725 65.2729 33.3148 64.3263 33.7092C63.3797 34.1036 62.3444 34.3008 61.2203 34.3008ZM61.8119 29.7749C62.6796 29.7749 63.4685 29.558 64.1784 29.1241C64.8884 28.6903 65.4504 28.1085 65.8645 27.3789C66.2984 26.6492 66.5153 25.8406 66.5153 24.9532C66.5153 24.0658 66.2984 23.2572 65.8645 22.5276C65.4504 21.7979 64.8884 21.2161 64.1784 20.7823C63.4685 20.3484 62.6796 20.1315 61.8119 20.1315C60.9442 20.1315 60.1554 20.3484 59.4454 20.7823C58.7355 21.2161 58.1636 21.7979 57.7297 22.5276C57.3156 23.2572 57.1085 24.0658 57.1085 24.9532C57.1085 25.8406 57.3156 26.6492 57.7297 27.3789C58.1636 28.1085 58.7355 28.6903 59.4454 29.1241C60.1554 29.558 60.9442 29.7749 61.8119 29.7749Z" fill="#1A3E2F"/>
<path d="M119.84 3.58863C119.942 3.34653 120.034 3.10139 120.115 2.86044C120.197 3.10139 120.288 3.34653 120.39 3.58863C120.681 4.27575 121.076 4.98567 121.616 5.49675C122.131 5.98418 122.826 6.33643 123.49 6.5918C123.694 6.67026 123.9 6.74119 124.102 6.80516C123.892 6.88377 123.678 6.97001 123.466 7.06413C122.801 7.35946 122.11 7.75096 121.603 8.26151C121.076 8.79253 120.677 9.52441 120.381 10.218C120.284 10.4472 120.195 10.6774 120.115 10.9019C120.035 10.6774 119.947 10.4472 119.849 10.218C119.553 9.52441 119.155 8.79253 118.628 8.26151C118.121 7.75096 117.43 7.35946 116.764 7.06413C116.552 6.97001 116.339 6.88377 116.129 6.80516C116.331 6.74119 116.536 6.67026 116.74 6.5918C117.404 6.33643 118.099 5.98418 118.614 5.49675C119.154 4.98567 119.55 4.27575 119.84 3.58863Z" fill="white" stroke="#1A3E2F" stroke-width="1.20291" stroke-linejoin="round"/>
</svg>
