<svg width="272" height="205" viewBox="0 0 272 205" fill="none" xmlns="http://www.w3.org/2000/svg">
<path d="M42.1767 103.415C42.0862 102.651 41.7192 102.057 41.0756 101.635C40.4319 101.213 39.6425 101.001 38.7073 101.001C38.0234 101.001 37.4251 101.112 36.9122 101.333C36.4043 101.555 36.0071 101.859 35.7205 102.246C35.4389 102.633 35.2981 103.073 35.2981 103.566C35.2981 103.978 35.3962 104.333 35.5923 104.629C35.7934 104.921 36.0499 105.165 36.3616 105.361C36.6734 105.552 37.0002 105.71 37.3421 105.836C37.684 105.957 37.9983 106.055 38.2849 106.13L39.8537 106.553C40.256 106.658 40.7035 106.804 41.1962 106.99C41.694 107.176 42.1692 107.43 42.6217 107.752C43.0793 108.069 43.4564 108.476 43.7531 108.974C44.0497 109.471 44.1981 110.082 44.1981 110.806C44.1981 111.641 43.9794 112.395 43.5419 113.069C43.1095 113.743 42.4759 114.278 41.6412 114.676C40.8116 115.073 39.8034 115.272 38.6168 115.272C37.5106 115.272 36.5527 115.093 35.7431 114.736C34.9386 114.379 34.3051 113.881 33.8425 113.243C33.3849 112.604 33.126 111.862 33.0656 111.018H34.9964C35.0467 111.601 35.2428 112.084 35.5847 112.466C35.9317 112.843 36.3692 113.124 36.8971 113.311C37.4301 113.492 38.0033 113.582 38.6168 113.582C39.3308 113.582 39.9719 113.466 40.5401 113.235C41.1082 112.999 41.5583 112.672 41.8901 112.255C42.222 111.832 42.3879 111.339 42.3879 110.776C42.3879 110.263 42.2446 109.846 41.958 109.524C41.6714 109.202 41.2943 108.941 40.8267 108.74C40.359 108.539 39.8537 108.363 39.3107 108.212L37.41 107.669C36.2032 107.322 35.2479 106.827 34.5439 106.183C33.84 105.539 33.488 104.697 33.488 103.656C33.488 102.791 33.7218 102.037 34.1894 101.394C34.6621 100.745 35.2956 100.242 36.0901 99.8852C36.8896 99.5232 37.7821 99.3421 38.7676 99.3421C39.7632 99.3421 40.6482 99.5206 41.4225 99.8776C42.1969 100.23 42.8103 100.712 43.2628 101.326C43.7204 101.939 43.9618 102.636 43.9869 103.415H42.1767ZM52.0704 103.415V104.923H46.0667V103.415H52.0704ZM47.8165 100.639H49.5965V111.681C49.5965 112.184 49.6694 112.561 49.8152 112.813C49.9661 113.059 50.1571 113.225 50.3884 113.311C50.6248 113.391 50.8737 113.431 51.1351 113.431C51.3312 113.431 51.4921 113.421 51.6178 113.401C51.7435 113.376 51.8441 113.356 51.9195 113.341L52.2816 114.94C52.1609 114.985 51.9924 115.03 51.7762 115.075C51.56 115.126 51.286 115.151 50.9541 115.151C50.4513 115.151 49.9585 115.043 49.4758 114.827C48.9981 114.61 48.6009 114.281 48.2841 113.838C47.9724 113.396 47.8165 112.838 47.8165 112.164V100.639ZM62.0489 110.263V103.415H63.8289V115H62.0489V113.039H61.9282C61.6567 113.627 61.2343 114.128 60.6611 114.54C60.0879 114.947 59.3638 115.151 58.4889 115.151C57.7648 115.151 57.1212 114.992 56.5581 114.676C55.9949 114.354 55.5524 113.871 55.2306 113.228C54.9088 112.579 54.7479 111.762 54.7479 110.776V103.415H56.5279V110.656C56.5279 111.5 56.7642 112.174 57.2369 112.677C57.7146 113.18 58.323 113.431 59.0621 113.431C59.5046 113.431 59.9546 113.318 60.4122 113.092C60.8748 112.866 61.262 112.519 61.5737 112.051C61.8905 111.583 62.0489 110.987 62.0489 110.263ZM71.4636 115.241C70.4982 115.241 69.6459 114.997 68.9067 114.51C68.1676 114.017 67.5893 113.323 67.172 112.428C66.7547 111.528 66.546 110.465 66.546 109.238C66.546 108.021 66.7547 106.965 67.172 106.07C67.5893 105.175 68.1701 104.483 68.9143 103.996C69.6585 103.508 70.5183 103.264 71.4938 103.264C72.248 103.264 72.8438 103.39 73.2813 103.641C73.7238 103.888 74.0607 104.169 74.292 104.486C74.5283 104.798 74.7118 105.054 74.8425 105.255H74.9934V99.5533H76.7734V115H75.0537V113.22H74.8425C74.7118 113.431 74.5258 113.698 74.2844 114.019C74.0431 114.336 73.6986 114.62 73.2511 114.872C72.8036 115.118 72.2078 115.241 71.4636 115.241ZM71.7049 113.642C72.4189 113.642 73.0223 113.456 73.5151 113.084C74.0079 112.707 74.3825 112.187 74.6389 111.523C74.8953 110.854 75.0236 110.082 75.0236 109.207C75.0236 108.343 74.8979 107.586 74.6464 106.937C74.395 106.284 74.0229 105.776 73.5302 105.414C73.0374 105.047 72.429 104.863 71.7049 104.863C70.9507 104.863 70.3222 105.057 69.8194 105.444C69.3216 105.826 68.947 106.346 68.6955 107.005C68.4492 107.659 68.326 108.393 68.326 109.207C68.326 110.032 68.4517 110.781 68.7031 111.455C68.9595 112.124 69.3366 112.657 69.8344 113.054C70.3373 113.446 70.9608 113.642 71.7049 113.642ZM85.1378 115.241C84.0215 115.241 83.0586 114.995 82.2491 114.502C81.4446 114.004 80.8236 113.311 80.3861 112.421C79.9537 111.526 79.7375 110.485 79.7375 109.298C79.7375 108.111 79.9537 107.065 80.3861 106.16C80.8236 105.25 81.432 104.541 82.2114 104.033C82.9958 103.521 83.9109 103.264 84.9568 103.264C85.5602 103.264 86.156 103.365 86.7443 103.566C87.3326 103.767 87.8681 104.094 88.3508 104.546C88.8335 104.994 89.2182 105.587 89.5048 106.326C89.7914 107.065 89.9347 107.976 89.9347 109.057V109.811H81.0046V108.272H88.1246C88.1246 107.619 87.9938 107.035 87.7324 106.522C87.4759 106.01 87.1089 105.605 86.6312 105.308C86.1585 105.011 85.6004 104.863 84.9568 104.863C84.2478 104.863 83.6344 105.039 83.1165 105.391C82.6036 105.738 82.2089 106.191 81.9323 106.749C81.6558 107.307 81.5175 107.905 81.5175 108.544V109.57C81.5175 110.444 81.6683 111.186 81.97 111.795C82.2768 112.398 82.7016 112.858 83.2447 113.175C83.7877 113.487 84.4188 113.642 85.1378 113.642C85.6054 113.642 86.0278 113.577 86.4049 113.446C86.7871 113.311 87.1164 113.109 87.393 112.843C87.6695 112.571 87.8832 112.234 88.0341 111.832L89.7537 112.315C89.5727 112.898 89.2685 113.411 88.8411 113.854C88.4137 114.291 87.8857 114.633 87.2572 114.879C86.6287 115.121 85.9222 115.241 85.1378 115.241ZM94.4224 108.031V115H92.6424V103.415H94.3621V105.225H94.5129C94.7844 104.637 95.1968 104.164 95.7499 103.807C96.303 103.445 97.017 103.264 97.8919 103.264C98.6763 103.264 99.3626 103.425 99.9509 103.747C100.539 104.064 100.997 104.546 101.324 105.195C101.65 105.839 101.814 106.653 101.814 107.639V115H100.034V107.759C100.034 106.849 99.7976 106.14 99.3249 105.632C98.8523 105.12 98.2036 104.863 97.379 104.863C96.8108 104.863 96.303 104.986 95.8554 105.233C95.413 105.479 95.0635 105.839 94.8071 106.311C94.5506 106.784 94.4224 107.357 94.4224 108.031ZM110.105 103.415V104.923H104.101V103.415H110.105ZM105.851 100.639H107.631V111.681C107.631 112.184 107.704 112.561 107.85 112.813C108 113.059 108.192 113.225 108.423 113.311C108.659 113.391 108.908 113.431 109.17 113.431C109.366 113.431 109.527 113.421 109.652 113.401C109.778 113.376 109.879 113.356 109.954 113.341L110.316 114.94C110.195 114.985 110.027 115.03 109.811 115.075C109.594 115.126 109.32 115.151 108.989 115.151C108.486 115.151 107.993 115.043 107.51 114.827C107.033 114.61 106.635 114.281 106.319 113.838C106.007 113.396 105.851 112.838 105.851 112.164V100.639ZM120.781 106.01L119.182 106.462C119.081 106.196 118.933 105.937 118.737 105.685C118.546 105.429 118.284 105.218 117.953 105.052C117.621 104.886 117.196 104.803 116.678 104.803C115.969 104.803 115.378 104.966 114.905 105.293C114.438 105.615 114.204 106.025 114.204 106.522C114.204 106.965 114.365 107.314 114.687 107.571C115.009 107.827 115.511 108.041 116.195 108.212L117.915 108.634C118.951 108.886 119.723 109.27 120.23 109.788C120.738 110.301 120.992 110.962 120.992 111.772C120.992 112.436 120.801 113.029 120.419 113.552C120.042 114.075 119.514 114.487 118.835 114.789C118.156 115.091 117.367 115.241 116.467 115.241C115.285 115.241 114.307 114.985 113.533 114.472C112.758 113.959 112.268 113.21 112.062 112.224L113.751 111.802C113.912 112.426 114.217 112.893 114.664 113.205C115.117 113.517 115.707 113.673 116.437 113.673C117.266 113.673 117.925 113.497 118.413 113.145C118.905 112.788 119.152 112.36 119.152 111.862C119.152 111.46 119.011 111.123 118.729 110.852C118.448 110.575 118.015 110.369 117.432 110.233L115.501 109.781C114.44 109.529 113.661 109.14 113.163 108.612C112.67 108.079 112.424 107.412 112.424 106.613C112.424 105.959 112.608 105.381 112.975 104.878C113.347 104.375 113.852 103.981 114.491 103.694C115.134 103.407 115.863 103.264 116.678 103.264C117.824 103.264 118.724 103.516 119.378 104.018C120.037 104.521 120.504 105.185 120.781 106.01ZM129.645 115V103.415H131.365V105.225H131.516C131.757 104.607 132.147 104.126 132.685 103.785C133.223 103.438 133.869 103.264 134.623 103.264C135.387 103.264 136.023 103.438 136.531 103.785C137.044 104.126 137.444 104.607 137.73 105.225H137.851C138.148 104.627 138.593 104.152 139.186 103.8C139.779 103.443 140.491 103.264 141.321 103.264C142.356 103.264 143.204 103.588 143.862 104.237C144.521 104.881 144.85 105.884 144.85 107.246V115H143.07V107.246C143.07 106.392 142.837 105.781 142.369 105.414C141.901 105.047 141.351 104.863 140.717 104.863C139.903 104.863 139.272 105.11 138.824 105.602C138.377 106.09 138.153 106.708 138.153 107.458V115H136.343V107.065C136.343 106.407 136.129 105.876 135.702 105.474C135.274 105.067 134.724 104.863 134.05 104.863C133.587 104.863 133.155 104.986 132.752 105.233C132.355 105.479 132.033 105.821 131.787 106.258C131.546 106.691 131.425 107.191 131.425 107.759V115H129.645ZM151.514 115.272C150.78 115.272 150.114 115.133 149.515 114.857C148.917 114.575 148.442 114.17 148.09 113.642C147.738 113.109 147.562 112.466 147.562 111.712C147.562 111.048 147.693 110.51 147.954 110.097C148.216 109.68 148.565 109.353 149.002 109.117C149.44 108.881 149.923 108.705 150.451 108.589C150.984 108.468 151.519 108.373 152.057 108.302C152.761 108.212 153.332 108.144 153.769 108.099C154.212 108.048 154.533 107.966 154.735 107.85C154.941 107.734 155.044 107.533 155.044 107.246V107.186C155.044 106.442 154.84 105.864 154.433 105.451C154.031 105.039 153.42 104.833 152.6 104.833C151.75 104.833 151.084 105.019 150.601 105.391C150.119 105.763 149.779 106.16 149.583 106.583L147.894 105.979C148.195 105.275 148.598 104.727 149.1 104.335C149.608 103.938 150.161 103.661 150.76 103.505C151.363 103.345 151.957 103.264 152.54 103.264C152.912 103.264 153.339 103.309 153.822 103.4C154.31 103.485 154.78 103.664 155.232 103.935C155.69 104.207 156.07 104.617 156.371 105.165C156.673 105.713 156.824 106.447 156.824 107.367V115H155.044V113.431H154.953C154.833 113.683 154.632 113.952 154.35 114.238C154.068 114.525 153.694 114.769 153.226 114.97C152.759 115.171 152.188 115.272 151.514 115.272ZM151.786 113.673C152.489 113.673 153.083 113.534 153.566 113.258C154.053 112.981 154.42 112.624 154.667 112.187C154.918 111.749 155.044 111.289 155.044 110.806V109.177C154.968 109.268 154.802 109.351 154.546 109.426C154.295 109.497 154.003 109.559 153.671 109.615C153.344 109.665 153.025 109.71 152.713 109.751C152.407 109.786 152.158 109.816 151.967 109.841C151.504 109.901 151.072 109.999 150.669 110.135C150.272 110.266 149.95 110.465 149.704 110.731C149.463 110.993 149.342 111.35 149.342 111.802C149.342 112.421 149.571 112.888 150.028 113.205C150.491 113.517 151.077 113.673 151.786 113.673ZM160.804 119.344C160.503 119.344 160.234 119.319 159.997 119.269C159.761 119.224 159.598 119.178 159.507 119.133L159.96 117.564C160.392 117.675 160.774 117.715 161.106 117.685C161.438 117.655 161.732 117.507 161.988 117.24C162.25 116.979 162.489 116.554 162.705 115.965L163.037 115.06L158.753 103.415H160.684L163.882 112.647H164.002L167.2 103.415H169.131L164.213 116.689C163.992 117.288 163.718 117.783 163.391 118.175C163.064 118.573 162.685 118.867 162.252 119.058C161.825 119.249 161.342 119.344 160.804 119.344ZM179.234 108.031V115H177.454V103.415H179.174V105.225H179.324C179.596 104.637 180.008 104.164 180.561 103.807C181.114 103.445 181.829 103.264 182.703 103.264C183.488 103.264 184.174 103.425 184.762 103.747C185.351 104.064 185.808 104.546 186.135 105.195C186.462 105.839 186.625 106.653 186.625 107.639V115H184.845V107.759C184.845 106.849 184.609 106.14 184.136 105.632C183.664 105.12 183.015 104.863 182.191 104.863C181.622 104.863 181.114 104.986 180.667 105.233C180.225 105.479 179.875 105.839 179.619 106.311C179.362 106.784 179.234 107.357 179.234 108.031ZM194.584 115.241C193.539 115.241 192.621 114.992 191.832 114.495C191.047 113.997 190.434 113.3 189.991 112.405C189.554 111.51 189.335 110.465 189.335 109.268C189.335 108.061 189.554 107.008 189.991 106.108C190.434 105.208 191.047 104.509 191.832 104.011C192.621 103.513 193.539 103.264 194.584 103.264C195.63 103.264 196.545 103.513 197.33 104.011C198.119 104.509 198.733 105.208 199.17 106.108C199.613 107.008 199.834 108.061 199.834 109.268C199.834 110.465 199.613 111.51 199.17 112.405C198.733 113.3 198.119 113.997 197.33 114.495C196.545 114.992 195.63 115.241 194.584 115.241ZM194.584 113.642C195.379 113.642 196.033 113.439 196.545 113.031C197.058 112.624 197.438 112.089 197.684 111.425C197.931 110.761 198.054 110.042 198.054 109.268C198.054 108.493 197.931 107.772 197.684 107.103C197.438 106.434 197.058 105.894 196.545 105.482C196.033 105.069 195.379 104.863 194.584 104.863C193.79 104.863 193.136 105.069 192.623 105.482C192.111 105.894 191.731 106.434 191.485 107.103C191.238 107.772 191.115 108.493 191.115 109.268C191.115 110.042 191.238 110.761 191.485 111.425C191.731 112.089 192.111 112.624 192.623 113.031C193.136 113.439 193.79 113.642 194.584 113.642ZM207.589 103.415V104.923H201.586V103.415H207.589ZM203.335 100.639H205.115V111.681C205.115 112.184 205.188 112.561 205.334 112.813C205.485 113.059 205.676 113.225 205.907 113.311C206.144 113.391 206.393 113.431 206.654 113.431C206.85 113.431 207.011 113.421 207.137 113.401C207.262 113.376 207.363 113.356 207.438 113.341L207.8 114.94C207.68 114.985 207.511 115.03 207.295 115.075C207.079 115.126 206.805 115.151 206.473 115.151C205.97 115.151 205.477 115.043 204.995 114.827C204.517 114.61 204.12 114.281 203.803 113.838C203.491 113.396 203.335 112.838 203.335 112.164V100.639ZM216.482 115V99.5533H218.262V105.255H218.413C218.543 105.054 218.724 104.798 218.956 104.486C219.192 104.169 219.529 103.888 219.966 103.641C220.409 103.39 221.007 103.264 221.761 103.264C222.737 103.264 223.597 103.508 224.341 103.996C225.085 104.483 225.666 105.175 226.083 106.07C226.5 106.965 226.709 108.021 226.709 109.238C226.709 110.465 226.5 111.528 226.083 112.428C225.666 113.323 225.087 114.017 224.348 114.51C223.609 114.997 222.757 115.241 221.791 115.241C221.047 115.241 220.451 115.118 220.004 114.872C219.556 114.62 219.212 114.336 218.971 114.019C218.729 113.698 218.543 113.431 218.413 113.22H218.201V115H216.482ZM218.232 109.207C218.232 110.082 218.36 110.854 218.616 111.523C218.873 112.187 219.247 112.707 219.74 113.084C220.233 113.456 220.836 113.642 221.55 113.642C222.294 113.642 222.915 113.446 223.413 113.054C223.916 112.657 224.293 112.124 224.544 111.455C224.801 110.781 224.929 110.032 224.929 109.207C224.929 108.393 224.803 107.659 224.552 107.005C224.306 106.346 223.931 105.826 223.428 105.444C222.93 105.057 222.304 104.863 221.55 104.863C220.826 104.863 220.218 105.047 219.725 105.414C219.232 105.776 218.86 106.284 218.609 106.937C218.357 107.586 218.232 108.343 218.232 109.207ZM234.289 115.241C233.173 115.241 232.21 114.995 231.4 114.502C230.596 114.004 229.975 113.311 229.537 112.421C229.105 111.526 228.889 110.485 228.889 109.298C228.889 108.111 229.105 107.065 229.537 106.16C229.975 105.25 230.583 104.541 231.363 104.033C232.147 103.521 233.062 103.264 234.108 103.264C234.712 103.264 235.307 103.365 235.896 103.566C236.484 103.767 237.019 104.094 237.502 104.546C237.985 104.994 238.37 105.587 238.656 106.326C238.943 107.065 239.086 107.976 239.086 109.057V109.811H230.156V108.272H237.276C237.276 107.619 237.145 107.035 236.884 106.522C236.627 106.01 236.26 105.605 235.783 105.308C235.31 105.011 234.752 104.863 234.108 104.863C233.399 104.863 232.786 105.039 232.268 105.391C231.755 105.738 231.36 106.191 231.084 106.749C230.807 107.307 230.669 107.905 230.669 108.544V109.57C230.669 110.444 230.82 111.186 231.121 111.795C231.428 112.398 231.853 112.858 232.396 113.175C232.939 113.487 233.57 113.642 234.289 113.642C234.757 113.642 235.179 113.577 235.556 113.446C235.938 113.311 236.268 113.109 236.544 112.843C236.821 112.571 237.035 112.234 237.185 111.832L238.905 112.315C238.724 112.898 238.42 113.411 237.992 113.854C237.565 114.291 237.037 114.633 236.409 114.879C235.78 115.121 235.074 115.241 234.289 115.241ZM51.6197 143.241C50.5035 143.241 49.5406 142.995 48.731 142.502C47.9265 142.004 47.3055 141.311 46.8681 140.421C46.4356 139.526 46.2194 138.485 46.2194 137.298C46.2194 136.111 46.4356 135.065 46.8681 134.16C47.3055 133.25 47.9139 132.541 48.6933 132.033C49.4777 131.521 50.3928 131.264 51.4387 131.264C52.0421 131.264 52.6379 131.365 53.2262 131.566C53.8145 131.767 54.35 132.094 54.8328 132.546C55.3155 132.994 55.7001 133.587 55.9867 134.326C56.2733 135.065 56.4166 135.976 56.4166 137.057V137.811H47.4865V136.272H54.6065C54.6065 135.619 54.4757 135.035 54.2143 134.522C53.9578 134.01 53.5908 133.605 53.1131 133.308C52.6404 133.011 52.0823 132.863 51.4387 132.863C50.7297 132.863 50.1163 133.039 49.5984 133.391C49.0855 133.738 48.6908 134.191 48.4142 134.749C48.1377 135.307 47.9994 135.905 47.9994 136.544V137.57C47.9994 138.444 48.1503 139.186 48.4519 139.795C48.7587 140.398 49.1836 140.858 49.7266 141.175C50.2696 141.487 50.9007 141.642 51.6197 141.642C52.0873 141.642 52.5097 141.577 52.8868 141.446C53.269 141.311 53.5983 141.109 53.8749 140.843C54.1514 140.571 54.3651 140.234 54.516 139.832L56.2356 140.315C56.0546 140.898 55.7504 141.411 55.323 141.854C54.8956 142.291 54.3676 142.633 53.7391 142.879C53.1106 143.121 52.4041 143.241 51.6197 143.241ZM67.0287 147.344V141.22H66.8778C66.7471 141.431 66.5611 141.698 66.3197 142.019C66.0784 142.336 65.7339 142.62 65.2864 142.872C64.8389 143.118 64.2431 143.241 63.4989 143.241C62.5335 143.241 61.6812 142.997 60.942 142.51C60.2029 142.017 59.6246 141.323 59.2073 140.428C58.79 139.528 58.5813 138.465 58.5813 137.238C58.5813 136.021 58.79 134.965 59.2073 134.07C59.6246 133.175 60.2054 132.483 60.9496 131.996C61.6937 131.508 62.5536 131.264 63.529 131.264C64.2833 131.264 64.8791 131.39 65.3166 131.641C65.7591 131.888 66.096 132.169 66.3273 132.486C66.5636 132.798 66.7471 133.054 66.8778 133.255H67.089V131.415H68.8087V147.344H67.0287ZM63.7402 141.642C64.4542 141.642 65.0576 141.456 65.5504 141.084C66.0432 140.707 66.4178 140.187 66.6742 139.523C66.9306 138.854 67.0589 138.082 67.0589 137.207C67.0589 136.343 66.9332 135.586 66.6817 134.937C66.4303 134.284 66.0582 133.776 65.5655 133.414C65.0727 133.047 64.4643 132.863 63.7402 132.863C62.986 132.863 62.3575 133.057 61.8547 133.444C61.3569 133.826 60.9823 134.346 60.7308 135.005C60.4845 135.659 60.3613 136.393 60.3613 137.207C60.3613 138.032 60.487 138.781 60.7384 139.455C60.9948 140.124 61.3719 140.657 61.8697 141.054C62.3726 141.446 62.9961 141.642 63.7402 141.642ZM79.3679 138.263V131.415H81.1479V143H79.3679V141.039H79.2473C78.9757 141.627 78.5534 142.128 77.9801 142.54C77.4069 142.947 76.6829 143.151 75.808 143.151C75.0839 143.151 74.4403 142.992 73.8771 142.676C73.314 142.354 72.8715 141.871 72.5497 141.228C72.2279 140.579 72.067 139.762 72.067 138.776V131.415H73.847V138.656C73.847 139.5 74.0833 140.174 74.5559 140.677C75.0336 141.18 75.642 141.431 76.3812 141.431C76.8237 141.431 77.2737 141.318 77.7312 141.092C78.1938 140.866 78.581 140.519 78.8928 140.051C79.2095 139.583 79.3679 138.987 79.3679 138.263ZM84.4081 143V131.415H86.1881V143H84.4081ZM85.3132 129.484C84.9662 129.484 84.667 129.366 84.4156 129.13C84.1692 128.893 84.0461 128.609 84.0461 128.277C84.0461 127.946 84.1692 127.661 84.4156 127.425C84.667 127.189 84.9662 127.071 85.3132 127.071C85.6601 127.071 85.9568 127.189 86.2032 127.425C86.4546 127.661 86.5803 127.946 86.5803 128.277C86.5803 128.609 86.4546 128.893 86.2032 129.13C85.9568 129.366 85.6601 129.484 85.3132 129.484ZM89.4482 147.344V131.415H91.1679V133.255H91.3791C91.5098 133.054 91.6908 132.798 91.9221 132.486C92.1584 132.169 92.4953 131.888 92.9328 131.641C93.3753 131.39 93.9736 131.264 94.7279 131.264C95.7033 131.264 96.5632 131.508 97.3073 131.996C98.0515 132.483 98.6323 133.175 99.0496 134.07C99.467 134.965 99.6756 136.021 99.6756 137.238C99.6756 138.465 99.467 139.528 99.0496 140.428C98.6323 141.323 98.054 142.017 97.3149 142.51C96.5757 142.997 95.7235 143.241 94.758 143.241C94.0139 143.241 93.418 143.118 92.9705 142.872C92.523 142.62 92.1786 142.336 91.9372 142.019C91.6959 141.698 91.5098 141.431 91.3791 141.22H91.2282V147.344H89.4482ZM91.1981 137.207C91.1981 138.082 91.3263 138.854 91.5827 139.523C91.8392 140.187 92.2138 140.707 92.7065 141.084C93.1993 141.456 93.8027 141.642 94.5167 141.642C95.2609 141.642 95.8818 141.446 96.3796 141.054C96.8825 140.657 97.2596 140.124 97.511 139.455C97.7674 138.781 97.8956 138.032 97.8956 137.207C97.8956 136.393 97.7699 135.659 97.5185 135.005C97.2721 134.346 96.8975 133.826 96.3947 133.444C95.8969 133.057 95.2709 132.863 94.5167 132.863C93.7926 132.863 93.1842 133.047 92.6914 133.414C92.1987 133.776 91.8266 134.284 91.5752 134.937C91.3238 135.586 91.1981 136.343 91.1981 137.207ZM102.391 147.344V131.415H104.111V133.255H104.322C104.452 133.054 104.633 132.798 104.865 132.486C105.101 132.169 105.438 131.888 105.875 131.641C106.318 131.39 106.916 131.264 107.67 131.264C108.646 131.264 109.506 131.508 110.25 131.996C110.994 132.483 111.575 133.175 111.992 134.07C112.41 134.965 112.618 136.021 112.618 137.238C112.618 138.465 112.41 139.528 111.992 140.428C111.575 141.323 110.997 142.017 110.258 142.51C109.518 142.997 108.666 143.241 107.701 143.241C106.956 143.241 106.361 143.118 105.913 142.872C105.466 142.62 105.121 142.336 104.88 142.019C104.638 141.698 104.452 141.431 104.322 141.22H104.171V147.344H102.391ZM104.141 137.207C104.141 138.082 104.269 138.854 104.525 139.523C104.782 140.187 105.156 140.707 105.649 141.084C106.142 141.456 106.745 141.642 107.459 141.642C108.203 141.642 108.824 141.446 109.322 141.054C109.825 140.657 110.202 140.124 110.454 139.455C110.71 138.781 110.838 138.032 110.838 137.207C110.838 136.393 110.713 135.659 110.461 135.005C110.215 134.346 109.84 133.826 109.337 133.444C108.84 133.057 108.214 132.863 107.459 132.863C106.735 132.863 106.127 133.047 105.634 133.414C105.141 133.776 104.769 134.284 104.518 134.937C104.266 135.586 104.141 136.343 104.141 137.207ZM120.191 143.241C119.074 143.241 118.112 142.995 117.302 142.502C116.498 142.004 115.877 141.311 115.439 140.421C115.007 139.526 114.79 138.485 114.79 137.298C114.79 136.111 115.007 135.065 115.439 134.16C115.877 133.25 116.485 132.541 117.264 132.033C118.049 131.521 118.964 131.264 120.01 131.264C120.613 131.264 121.209 131.365 121.797 131.566C122.386 131.767 122.921 132.094 123.404 132.546C123.886 132.994 124.271 133.587 124.558 134.326C124.844 135.065 124.988 135.976 124.988 137.057V137.811H116.058V136.272H123.178C123.178 135.619 123.047 135.035 122.785 134.522C122.529 134.01 122.162 133.605 121.684 133.308C121.211 133.011 120.653 132.863 120.01 132.863C119.301 132.863 118.687 133.039 118.169 133.391C117.657 133.738 117.262 134.191 116.985 134.749C116.709 135.307 116.57 135.905 116.57 136.544V137.57C116.57 138.444 116.721 139.186 117.023 139.795C117.33 140.398 117.755 140.858 118.298 141.175C118.841 141.487 119.472 141.642 120.191 141.642C120.658 141.642 121.081 141.577 121.458 141.446C121.84 141.311 122.169 141.109 122.446 140.843C122.722 140.571 122.936 140.234 123.087 139.832L124.807 140.315C124.626 140.898 124.321 141.411 123.894 141.854C123.467 142.291 122.939 142.633 122.31 142.879C121.682 143.121 120.975 143.241 120.191 143.241ZM132.07 143.241C131.104 143.241 130.252 142.997 129.513 142.51C128.774 142.017 128.196 141.323 127.778 140.428C127.361 139.528 127.152 138.465 127.152 137.238C127.152 136.021 127.361 134.965 127.778 134.07C128.196 133.175 128.776 132.483 129.521 131.996C130.265 131.508 131.125 131.264 132.1 131.264C132.854 131.264 133.45 131.39 133.888 131.641C134.33 131.888 134.667 132.169 134.898 132.486C135.135 132.798 135.318 133.054 135.449 133.255H135.6V127.553H137.38V143H135.66V141.22H135.449C135.318 141.431 135.132 141.698 134.891 142.019C134.649 142.336 134.305 142.62 133.857 142.872C133.41 143.118 132.814 143.241 132.07 143.241ZM132.311 141.642C133.025 141.642 133.629 141.456 134.121 141.084C134.614 140.707 134.989 140.187 135.245 139.523C135.502 138.854 135.63 138.082 135.63 137.207C135.63 136.343 135.504 135.586 135.253 134.937C135.001 134.284 134.629 133.776 134.137 133.414C133.644 133.047 133.035 132.863 132.311 132.863C131.557 132.863 130.928 133.057 130.426 133.444C129.928 133.826 129.553 134.346 129.302 135.005C129.055 135.659 128.932 136.393 128.932 137.207C128.932 138.032 129.058 138.781 129.309 139.455C129.566 140.124 129.943 140.657 130.441 141.054C130.944 141.446 131.567 141.642 132.311 141.642ZM149.485 143L145.955 131.415H147.826L150.33 140.285H150.451L152.924 131.415H154.825L157.269 140.255H157.389L159.894 131.415H161.764L158.234 143H156.484L153.95 134.1H153.769L151.235 143H149.485ZM164.117 143V131.415H165.897V143H164.117ZM165.022 129.484C164.675 129.484 164.376 129.366 164.125 129.13C163.878 128.893 163.755 128.609 163.755 128.277C163.755 127.946 163.878 127.661 164.125 127.425C164.376 127.189 164.675 127.071 165.022 127.071C165.369 127.071 165.666 127.189 165.912 127.425C166.164 127.661 166.289 127.946 166.289 128.277C166.289 128.609 166.164 128.893 165.912 129.13C165.666 129.366 165.369 129.484 165.022 129.484ZM174.196 131.415V132.923H168.192V131.415H174.196ZM169.942 128.639H171.722V139.681C171.722 140.184 171.795 140.561 171.941 140.813C172.091 141.059 172.282 141.225 172.514 141.311C172.75 141.391 172.999 141.431 173.26 141.431C173.457 141.431 173.617 141.421 173.743 141.401C173.869 141.376 173.969 141.356 174.045 141.341L174.407 142.94C174.286 142.985 174.118 143.03 173.902 143.075C173.685 143.126 173.411 143.151 173.079 143.151C172.577 143.151 172.084 143.043 171.601 142.827C171.123 142.61 170.726 142.281 170.409 141.838C170.098 141.396 169.942 140.838 169.942 140.164V128.639ZM178.902 136.031V143H177.122V127.553H178.902V133.225H179.053C179.324 132.627 179.732 132.152 180.275 131.8C180.823 131.443 181.552 131.264 182.462 131.264C183.251 131.264 183.943 131.423 184.536 131.739C185.13 132.051 185.59 132.531 185.916 133.18C186.248 133.824 186.414 134.643 186.414 135.639V143H184.634V135.759C184.634 134.839 184.395 134.128 183.918 133.625C183.445 133.117 182.789 132.863 181.949 132.863C181.366 132.863 180.843 132.986 180.38 133.233C179.923 133.479 179.561 133.839 179.294 134.311C179.033 134.784 178.902 135.357 178.902 136.031ZM200.682 131.415V132.923H194.679V131.415H200.682ZM196.429 128.639H198.209V139.681C198.209 140.184 198.281 140.561 198.427 140.813C198.578 141.059 198.769 141.225 199 141.311C199.237 141.391 199.486 141.431 199.747 141.431C199.943 141.431 200.104 141.421 200.23 141.401C200.356 141.376 200.456 141.356 200.532 141.341L200.894 142.94C200.773 142.985 200.604 143.03 200.388 143.075C200.172 143.126 199.898 143.151 199.566 143.151C199.063 143.151 198.571 143.043 198.088 142.827C197.61 142.61 197.213 142.281 196.896 141.838C196.584 141.396 196.429 140.838 196.429 140.164V128.639ZM205.389 136.031V143H203.609V127.553H205.389V133.225H205.54C205.811 132.627 206.218 132.152 206.762 131.8C207.31 131.443 208.039 131.264 208.949 131.264C209.738 131.264 210.43 131.423 211.023 131.739C211.616 132.051 212.076 132.531 212.403 133.18C212.735 133.824 212.901 134.643 212.901 135.639V143H211.121V135.759C211.121 134.839 210.882 134.128 210.404 133.625C209.932 133.117 209.276 132.863 208.436 132.863C207.853 132.863 207.33 132.986 206.867 133.233C206.41 133.479 206.048 133.839 205.781 134.311C205.52 134.784 205.389 135.357 205.389 136.031ZM221.015 143.241C219.898 143.241 218.935 142.995 218.126 142.502C217.321 142.004 216.7 141.311 216.263 140.421C215.831 139.526 215.614 138.485 215.614 137.298C215.614 136.111 215.831 135.065 216.263 134.16C216.7 133.25 217.309 132.541 218.088 132.033C218.873 131.521 219.788 131.264 220.834 131.264C221.437 131.264 222.033 131.365 222.621 131.566C223.209 131.767 223.745 132.094 224.228 132.546C224.71 132.994 225.095 133.587 225.382 134.326C225.668 135.065 225.812 135.976 225.812 137.057V137.811H216.881V136.272H224.001C224.001 135.619 223.871 135.035 223.609 134.522C223.353 134.01 222.986 133.605 222.508 133.308C222.035 133.011 221.477 132.863 220.834 132.863C220.125 132.863 219.511 133.039 218.993 133.391C218.48 133.738 218.086 134.191 217.809 134.749C217.533 135.307 217.394 135.905 217.394 136.544V137.57C217.394 138.444 217.545 139.186 217.847 139.795C218.154 140.398 218.578 140.858 219.122 141.175C219.665 141.487 220.296 141.642 221.015 141.642C221.482 141.642 221.905 141.577 222.282 141.446C222.664 141.311 222.993 141.109 223.27 140.843C223.546 140.571 223.76 140.234 223.911 139.832L225.631 140.315C225.45 140.898 225.145 141.411 224.718 141.854C224.291 142.291 223.763 142.633 223.134 142.879C222.505 143.121 221.799 143.241 221.015 143.241ZM27.9293 166.776L27.8991 164.574H28.2612L33.3296 159.415H35.532L30.1317 164.876H29.9808L27.9293 166.776ZM26.27 171V155.553H28.05V171H26.27ZM33.6313 171L29.1059 165.268L30.373 164.031L35.894 171H33.6313ZM39.6029 164.031V171H37.8229V159.415H39.5426V161.225H39.6934C39.965 160.637 40.3773 160.164 40.9304 159.807C41.4835 159.445 42.1975 159.264 43.0724 159.264C43.8568 159.264 44.5431 159.425 45.1314 159.747C45.7197 160.064 46.1773 160.546 46.5041 161.195C46.831 161.839 46.9944 162.653 46.9944 163.639V171H45.2144V163.759C45.2144 162.849 44.9781 162.14 44.5054 161.632C44.0328 161.12 43.3841 160.863 42.5595 160.863C41.9913 160.863 41.4835 160.986 41.036 161.233C40.5935 161.479 40.244 161.839 39.9876 162.311C39.7311 162.784 39.6029 163.357 39.6029 164.031ZM54.9534 171.241C53.9076 171.241 52.9899 170.992 52.2005 170.495C51.4161 169.997 50.8026 169.3 50.3602 168.405C49.9227 167.51 49.704 166.465 49.704 165.268C49.704 164.061 49.9227 163.008 50.3602 162.108C50.8026 161.208 51.4161 160.509 52.2005 160.011C52.9899 159.513 53.9076 159.264 54.9534 159.264C55.9993 159.264 56.9144 159.513 57.6988 160.011C58.4883 160.509 59.1017 161.208 59.5392 162.108C59.9816 163.008 60.2029 164.061 60.2029 165.268C60.2029 166.465 59.9816 167.51 59.5392 168.405C59.1017 169.3 58.4883 169.997 57.6988 170.495C56.9144 170.992 55.9993 171.241 54.9534 171.241ZM54.9534 169.642C55.7479 169.642 56.4016 169.439 56.9144 169.031C57.4273 168.624 57.8069 168.089 58.0533 167.425C58.2997 166.761 58.4229 166.042 58.4229 165.268C58.4229 164.493 58.2997 163.772 58.0533 163.103C57.8069 162.434 57.4273 161.894 56.9144 161.482C56.4016 161.069 55.7479 160.863 54.9534 160.863C54.159 160.863 53.5053 161.069 52.9924 161.482C52.4796 161.894 52.0999 162.434 51.8535 163.103C51.6072 163.772 51.484 164.493 51.484 165.268C51.484 166.042 51.6072 166.761 51.8535 167.425C52.0999 168.089 52.4796 168.624 52.9924 169.031C53.5053 169.439 54.159 169.642 54.9534 169.642ZM65.1507 171L61.6208 159.415H63.4913L65.9954 168.285H66.1161L68.59 159.415H70.4906L72.9343 168.255H73.055L75.5591 159.415H77.4296L73.8998 171H72.1499L69.6157 162.1H69.4347L66.9005 171H65.1507ZM81.5628 155.553V171H79.7828V155.553H81.5628ZM89.6802 171.241C88.5639 171.241 87.601 170.995 86.7915 170.502C85.987 170.004 85.366 169.311 84.9285 168.421C84.4961 167.526 84.2799 166.485 84.2799 165.298C84.2799 164.111 84.4961 163.065 84.9285 162.16C85.366 161.25 85.9744 160.541 86.7538 160.033C87.5382 159.521 88.4533 159.264 89.4992 159.264C90.1025 159.264 90.6984 159.365 91.2867 159.566C91.875 159.767 92.4105 160.094 92.8932 160.546C93.3759 160.994 93.7606 161.587 94.0472 162.326C94.3338 163.065 94.4771 163.976 94.4771 165.057V165.811H85.547V164.272H92.6669C92.6669 163.619 92.5362 163.035 92.2747 162.522C92.0183 162.01 91.6512 161.605 91.1736 161.308C90.7009 161.011 90.1428 160.863 89.4992 160.863C88.7902 160.863 88.1767 161.039 87.6588 161.391C87.146 161.738 86.7512 162.191 86.4747 162.749C86.1981 163.307 86.0599 163.905 86.0599 164.544V165.57C86.0599 166.444 86.2107 167.186 86.5124 167.795C86.8191 168.398 87.244 168.858 87.7871 169.175C88.3301 169.487 88.9611 169.642 89.6802 169.642C90.1478 169.642 90.5702 169.577 90.9473 169.446C91.3294 169.311 91.6588 169.109 91.9353 168.843C92.2119 168.571 92.4256 168.234 92.5764 167.832L94.2961 168.315C94.1151 168.898 93.8109 169.411 93.3835 169.854C92.9561 170.291 92.4281 170.633 91.7996 170.879C91.171 171.121 90.4646 171.241 89.6802 171.241ZM101.559 171.241C100.594 171.241 99.7416 170.997 99.0025 170.51C98.2633 170.017 97.6851 169.323 97.2678 168.428C96.8504 167.528 96.6417 166.465 96.6417 165.238C96.6417 164.021 96.8504 162.965 97.2678 162.07C97.6851 161.175 98.2659 160.483 99.01 159.996C99.7542 159.508 100.614 159.264 101.59 159.264C102.344 159.264 102.94 159.39 103.377 159.641C103.82 159.888 104.156 160.169 104.388 160.486C104.624 160.798 104.808 161.054 104.938 161.255H105.089V155.553H106.869V171H105.149V169.22H104.938C104.808 169.431 104.622 169.698 104.38 170.019C104.139 170.336 103.794 170.62 103.347 170.872C102.899 171.118 102.304 171.241 101.559 171.241ZM101.801 169.642C102.515 169.642 103.118 169.456 103.611 169.084C104.104 168.707 104.478 168.187 104.735 167.523C104.991 166.854 105.119 166.082 105.119 165.207C105.119 164.343 104.994 163.586 104.742 162.937C104.491 162.284 104.119 161.776 103.626 161.414C103.133 161.047 102.525 160.863 101.801 160.863C101.046 160.863 100.418 161.057 99.9151 161.444C99.4173 161.826 99.0427 162.346 98.7913 163.005C98.5449 163.659 98.4217 164.393 98.4217 165.207C98.4217 166.032 98.5474 166.781 98.7988 167.455C99.0553 168.124 99.4324 168.657 99.9302 169.054C100.433 169.446 101.057 169.642 101.801 169.642ZM115.053 175.586C114.193 175.586 113.454 175.475 112.835 175.254C112.217 175.038 111.701 174.751 111.289 174.394C110.882 174.042 110.557 173.665 110.316 173.263L111.734 172.267C111.895 172.478 112.098 172.72 112.345 172.991C112.591 173.268 112.928 173.507 113.356 173.708C113.788 173.914 114.354 174.017 115.053 174.017C115.988 174.017 116.76 173.791 117.368 173.338C117.976 172.886 118.281 172.177 118.281 171.211V168.858H118.13C117.999 169.069 117.813 169.331 117.572 169.642C117.335 169.949 116.993 170.223 116.546 170.464C116.103 170.701 115.505 170.819 114.751 170.819C113.816 170.819 112.976 170.598 112.232 170.155C111.493 169.713 110.907 169.069 110.474 168.224C110.047 167.38 109.833 166.354 109.833 165.147C109.833 163.96 110.042 162.927 110.459 162.047C110.877 161.162 111.457 160.478 112.202 159.996C112.946 159.508 113.806 159.264 114.781 159.264C115.535 159.264 116.134 159.39 116.576 159.641C117.024 159.888 117.366 160.169 117.602 160.486C117.843 160.798 118.029 161.054 118.16 161.255H118.341V159.415H120.061V171.332C120.061 172.327 119.834 173.137 119.382 173.76C118.934 174.389 118.331 174.849 117.572 175.141C116.817 175.437 115.978 175.586 115.053 175.586ZM114.992 169.22C115.706 169.22 116.31 169.057 116.802 168.73C117.295 168.403 117.67 167.933 117.926 167.319C118.183 166.706 118.311 165.972 118.311 165.117C118.311 164.282 118.185 163.546 117.934 162.907C117.682 162.269 117.31 161.768 116.817 161.406C116.325 161.044 115.716 160.863 114.992 160.863C114.238 160.863 113.609 161.054 113.107 161.436C112.609 161.818 112.234 162.331 111.983 162.975C111.736 163.619 111.613 164.333 111.613 165.117C111.613 165.922 111.739 166.633 111.99 167.251C112.247 167.865 112.624 168.348 113.122 168.7C113.625 169.047 114.248 169.22 114.992 169.22ZM128.176 171.241C127.06 171.241 126.097 170.995 125.287 170.502C124.483 170.004 123.862 169.311 123.425 168.421C122.992 167.526 122.776 166.485 122.776 165.298C122.776 164.111 122.992 163.065 123.425 162.16C123.862 161.25 124.47 160.541 125.25 160.033C126.034 159.521 126.949 159.264 127.995 159.264C128.599 159.264 129.194 159.365 129.783 159.566C130.371 159.767 130.907 160.094 131.389 160.546C131.872 160.994 132.257 161.587 132.543 162.326C132.83 163.065 132.973 163.976 132.973 165.057V165.811H124.043V164.272H131.163C131.163 163.619 131.032 163.035 130.771 162.522C130.514 162.01 130.147 161.605 129.67 161.308C129.197 161.011 128.639 160.863 127.995 160.863C127.286 160.863 126.673 161.039 126.155 161.391C125.642 161.738 125.247 162.191 124.971 162.749C124.694 163.307 124.556 163.905 124.556 164.544V165.57C124.556 166.444 124.707 167.186 125.008 167.795C125.315 168.398 125.74 168.858 126.283 169.175C126.826 169.487 127.457 169.642 128.176 169.642C128.644 169.642 129.066 169.577 129.443 169.446C129.825 169.311 130.155 169.109 130.431 168.843C130.708 168.571 130.922 168.234 131.072 167.832L132.792 168.315C132.611 168.898 132.307 169.411 131.879 169.854C131.452 170.291 130.924 170.633 130.296 170.879C129.667 171.121 128.961 171.241 128.176 171.241ZM146.693 159.415V160.923H140.689V159.415H146.693ZM142.439 156.639H144.219V167.681C144.219 168.184 144.292 168.561 144.437 168.813C144.588 169.059 144.779 169.225 145.011 169.311C145.247 169.391 145.496 169.431 145.757 169.431C145.953 169.431 146.114 169.421 146.24 169.401C146.366 169.376 146.466 169.356 146.542 169.341L146.904 170.94C146.783 170.985 146.615 171.03 146.398 171.075C146.182 171.126 145.908 171.151 145.576 171.151C145.074 171.151 144.581 171.043 144.098 170.827C143.62 170.61 143.223 170.281 142.906 169.838C142.595 169.396 142.439 168.838 142.439 168.164V156.639ZM153.952 171.241C152.906 171.241 151.989 170.992 151.199 170.495C150.415 169.997 149.801 169.3 149.359 168.405C148.921 167.51 148.703 166.465 148.703 165.268C148.703 164.061 148.921 163.008 149.359 162.108C149.801 161.208 150.415 160.509 151.199 160.011C151.989 159.513 152.906 159.264 153.952 159.264C154.998 159.264 155.913 159.513 156.697 160.011C157.487 160.509 158.1 161.208 158.538 162.108C158.98 163.008 159.202 164.061 159.202 165.268C159.202 166.465 158.98 167.51 158.538 168.405C158.1 169.3 157.487 169.997 156.697 170.495C155.913 170.992 154.998 171.241 153.952 171.241ZM153.952 169.642C154.747 169.642 155.4 169.439 155.913 169.031C156.426 168.624 156.806 168.089 157.052 167.425C157.298 166.761 157.422 166.042 157.422 165.268C157.422 164.493 157.298 163.772 157.052 163.103C156.806 162.434 156.426 161.894 155.913 161.482C155.4 161.069 154.747 160.863 153.952 160.863C153.158 160.863 152.504 161.069 151.991 161.482C151.478 161.894 151.099 162.434 150.852 163.103C150.606 163.772 150.483 164.493 150.483 165.268C150.483 166.042 150.606 166.761 150.852 167.425C151.099 168.089 151.478 168.624 151.991 169.031C152.504 169.439 153.158 169.642 153.952 169.642ZM167.892 171V159.415H169.612V161.225H169.763C170.004 160.607 170.394 160.126 170.932 159.785C171.47 159.438 172.116 159.264 172.87 159.264C173.634 159.264 174.27 159.438 174.778 159.785C175.291 160.126 175.691 160.607 175.978 161.225H176.098C176.395 160.627 176.84 160.152 177.433 159.8C178.027 159.443 178.738 159.264 179.568 159.264C180.604 159.264 181.451 159.588 182.109 160.237C182.768 160.881 183.097 161.884 183.097 163.246V171H181.318V163.246C181.318 162.392 181.084 161.781 180.616 161.414C180.148 161.047 179.598 160.863 178.964 160.863C178.15 160.863 177.519 161.11 177.071 161.602C176.624 162.09 176.4 162.708 176.4 163.458V171H174.59V163.065C174.59 162.407 174.376 161.876 173.949 161.474C173.521 161.067 172.971 160.863 172.297 160.863C171.834 160.863 171.402 160.986 171 161.233C170.602 161.479 170.281 161.821 170.034 162.258C169.793 162.691 169.672 163.191 169.672 163.759V171H167.892ZM186.352 171V159.415H188.132V171H186.352ZM187.257 157.484C186.91 157.484 186.611 157.366 186.36 157.13C186.113 156.893 185.99 156.609 185.99 156.277C185.99 155.946 186.113 155.661 186.36 155.425C186.611 155.189 186.91 155.071 187.257 155.071C187.604 155.071 187.901 155.189 188.147 155.425C188.398 155.661 188.524 155.946 188.524 156.277C188.524 156.609 188.398 156.893 188.147 157.13C187.901 157.366 187.604 157.484 187.257 157.484ZM196.43 159.415V160.923H190.427V159.415H196.43ZM192.177 156.639H193.957V167.681C193.957 168.184 194.029 168.561 194.175 168.813C194.326 169.059 194.517 169.225 194.749 169.311C194.985 169.391 195.234 169.431 195.495 169.431C195.691 169.431 195.852 169.421 195.978 169.401C196.104 169.376 196.204 169.356 196.28 169.341L196.642 170.94C196.521 170.985 196.353 171.03 196.136 171.075C195.92 171.126 195.646 171.151 195.314 171.151C194.811 171.151 194.319 171.043 193.836 170.827C193.358 170.61 192.961 170.281 192.644 169.838C192.332 169.396 192.177 168.838 192.177 168.164V156.639ZM199.108 171V159.415H200.888V171H199.108ZM200.013 157.484C199.666 157.484 199.367 157.366 199.116 157.13C198.869 156.893 198.746 156.609 198.746 156.277C198.746 155.946 198.869 155.661 199.116 155.425C199.367 155.189 199.666 155.071 200.013 155.071C200.36 155.071 200.657 155.189 200.903 155.425C201.154 155.661 201.28 155.946 201.28 156.277C201.28 156.609 201.154 156.893 200.903 157.13C200.657 157.366 200.36 157.484 200.013 157.484ZM208.824 175.586C207.965 175.586 207.225 175.475 206.607 175.254C205.988 175.038 205.473 174.751 205.061 174.394C204.653 174.042 204.329 173.665 204.088 173.263L205.506 172.267C205.667 172.478 205.87 172.72 206.117 172.991C206.363 173.268 206.7 173.507 207.127 173.708C207.56 173.914 208.125 174.017 208.824 174.017C209.76 174.017 210.531 173.791 211.14 173.338C211.748 172.886 212.052 172.177 212.052 171.211V168.858H211.902C211.771 169.069 211.585 169.331 211.344 169.642C211.107 169.949 210.765 170.223 210.318 170.464C209.875 170.701 209.277 170.819 208.523 170.819C207.587 170.819 206.748 170.598 206.004 170.155C205.264 169.713 204.679 169.069 204.246 168.224C203.819 167.38 203.605 166.354 203.605 165.147C203.605 163.96 203.814 162.927 204.231 162.047C204.648 161.162 205.229 160.478 205.973 159.996C206.718 159.508 207.577 159.264 208.553 159.264C209.307 159.264 209.905 159.39 210.348 159.641C210.795 159.888 211.137 160.169 211.374 160.486C211.615 160.798 211.801 161.054 211.932 161.255H212.113V159.415H213.832V171.332C213.832 172.327 213.606 173.137 213.154 173.76C212.706 174.389 212.103 174.849 211.344 175.141C210.589 175.437 209.75 175.586 208.824 175.586ZM208.764 169.22C209.478 169.22 210.081 169.057 210.574 168.73C211.067 168.403 211.442 167.933 211.698 167.319C211.954 166.706 212.083 165.972 212.083 165.117C212.083 164.282 211.957 163.546 211.706 162.907C211.454 162.269 211.082 161.768 210.589 161.406C210.097 161.044 209.488 160.863 208.764 160.863C208.01 160.863 207.381 161.054 206.878 161.436C206.381 161.818 206.006 162.331 205.755 162.975C205.508 163.619 205.385 164.333 205.385 165.117C205.385 165.922 205.511 166.633 205.762 167.251C206.019 167.865 206.396 168.348 206.894 168.7C207.396 169.047 208.02 169.22 208.764 169.22ZM220.5 171.272C219.766 171.272 219.1 171.133 218.501 170.857C217.903 170.575 217.428 170.17 217.076 169.642C216.724 169.109 216.548 168.466 216.548 167.712C216.548 167.048 216.678 166.51 216.94 166.097C217.201 165.68 217.551 165.353 217.988 165.117C218.426 164.881 218.908 164.705 219.436 164.589C219.969 164.468 220.505 164.373 221.043 164.302C221.747 164.212 222.318 164.144 222.755 164.099C223.198 164.048 223.519 163.966 223.72 163.85C223.927 163.734 224.03 163.533 224.03 163.246V163.186C224.03 162.442 223.826 161.864 223.419 161.451C223.017 161.039 222.406 160.833 221.586 160.833C220.736 160.833 220.07 161.019 219.587 161.391C219.105 161.763 218.765 162.16 218.569 162.583L216.88 161.979C217.181 161.275 217.584 160.727 218.086 160.335C218.594 159.938 219.147 159.661 219.746 159.505C220.349 159.345 220.942 159.264 221.526 159.264C221.898 159.264 222.325 159.309 222.808 159.4C223.296 159.485 223.766 159.664 224.218 159.935C224.676 160.207 225.055 160.617 225.357 161.165C225.659 161.713 225.81 162.447 225.81 163.367V171H224.03V169.431H223.939C223.819 169.683 223.617 169.952 223.336 170.238C223.054 170.525 222.68 170.769 222.212 170.97C221.744 171.171 221.174 171.272 220.5 171.272ZM220.771 169.673C221.475 169.673 222.069 169.534 222.551 169.258C223.039 168.981 223.406 168.624 223.653 168.187C223.904 167.749 224.03 167.289 224.03 166.806V165.177C223.954 165.268 223.788 165.351 223.532 165.426C223.28 165.497 222.989 165.559 222.657 165.615C222.33 165.665 222.011 165.71 221.699 165.751C221.392 165.786 221.143 165.816 220.952 165.841C220.49 165.901 220.057 165.999 219.655 166.135C219.258 166.266 218.936 166.465 218.69 166.731C218.448 166.993 218.328 167.35 218.328 167.802C218.328 168.421 218.556 168.888 219.014 169.205C219.477 169.517 220.062 169.673 220.771 169.673ZM234.097 159.415V160.923H228.093V159.415H234.097ZM229.843 156.639H231.623V167.681C231.623 168.184 231.696 168.561 231.842 168.813C231.992 169.059 232.184 169.225 232.415 169.311C232.651 169.391 232.9 169.431 233.162 169.431C233.358 169.431 233.519 169.421 233.644 169.401C233.77 169.376 233.871 169.356 233.946 169.341L234.308 170.94C234.187 170.985 234.019 171.03 233.803 171.075C233.586 171.126 233.312 171.151 232.981 171.151C232.478 171.151 231.985 171.043 231.502 170.827C231.025 170.61 230.627 170.281 230.311 169.838C229.999 169.396 229.843 168.838 229.843 168.164V156.639ZM241.507 171.241C240.391 171.241 239.428 170.995 238.618 170.502C237.814 170.004 237.193 169.311 236.755 168.421C236.323 167.526 236.107 166.485 236.107 165.298C236.107 164.111 236.323 163.065 236.755 162.16C237.193 161.25 237.801 160.541 238.581 160.033C239.365 159.521 240.28 159.264 241.326 159.264C241.93 159.264 242.525 159.365 243.114 159.566C243.702 159.767 244.237 160.094 244.72 160.546C245.203 160.994 245.588 161.587 245.874 162.326C246.161 163.065 246.304 163.976 246.304 165.057V165.811H237.374V164.272H244.494C244.494 163.619 244.363 163.035 244.102 162.522C243.845 162.01 243.478 161.605 243.001 161.308C242.528 161.011 241.97 160.863 241.326 160.863C240.617 160.863 240.004 161.039 239.486 161.391C238.973 161.738 238.578 162.191 238.302 162.749C238.025 163.307 237.887 163.905 237.887 164.544V165.57C237.887 166.444 238.038 167.186 238.339 167.795C238.646 168.398 239.071 168.858 239.614 169.175C240.157 169.487 240.788 169.642 241.507 169.642C241.975 169.642 242.397 169.577 242.774 169.446C243.156 169.311 243.486 169.109 243.762 168.843C244.039 168.571 244.253 168.234 244.403 167.832L246.123 168.315C245.942 168.898 245.638 169.411 245.21 169.854C244.783 170.291 244.255 170.633 243.627 170.879C242.998 171.121 242.292 171.241 241.507 171.241ZM79.1483 187.415V188.923H73.1446V187.415H79.1483ZM74.8944 184.639H76.6744V195.681C76.6744 196.184 76.7473 196.561 76.8931 196.813C77.044 197.059 77.235 197.225 77.4663 197.311C77.7027 197.391 77.9515 197.431 78.213 197.431C78.4091 197.431 78.57 197.421 78.6957 197.401C78.8214 197.376 78.922 197.356 78.9974 197.341L79.3594 198.94C79.2388 198.985 79.0703 199.03 78.8541 199.075C78.6379 199.126 78.3639 199.151 78.032 199.151C77.5292 199.151 77.0364 199.043 76.5537 198.827C76.076 198.61 75.6788 198.281 75.362 197.838C75.0503 197.396 74.8944 196.838 74.8944 196.164V184.639ZM83.8547 192.031V199H82.0747V183.553H83.8547V189.225H84.0055C84.277 188.627 84.6843 188.152 85.2274 187.8C85.7754 187.443 86.5045 187.264 87.4146 187.264C88.2041 187.264 88.8955 187.423 89.4888 187.739C90.0821 188.051 90.5422 188.531 90.869 189.18C91.2009 189.824 91.3668 190.643 91.3668 191.639V199H89.5868V191.759C89.5868 190.839 89.348 190.128 88.8703 189.625C88.3977 189.117 87.7415 188.863 86.9018 188.863C86.3185 188.863 85.7956 188.986 85.333 189.233C84.8754 189.479 84.5134 189.839 84.2469 190.311C83.9854 190.784 83.8547 191.357 83.8547 192.031ZM99.4805 199.241C98.3642 199.241 97.4013 198.995 96.5918 198.502C95.7873 198.004 95.1663 197.311 94.7288 196.421C94.2964 195.526 94.0802 194.485 94.0802 193.298C94.0802 192.111 94.2964 191.065 94.7288 190.16C95.1663 189.25 95.7747 188.541 96.5541 188.033C97.3385 187.521 98.2536 187.264 99.2995 187.264C99.9028 187.264 100.499 187.365 101.087 187.566C101.675 187.767 102.211 188.094 102.694 188.546C103.176 188.994 103.561 189.587 103.847 190.326C104.134 191.065 104.277 191.976 104.277 193.057V193.811H95.3473V192.272H102.467C102.467 191.619 102.337 191.035 102.075 190.522C101.819 190.01 101.452 189.605 100.974 189.308C100.501 189.011 99.9431 188.863 99.2995 188.863C98.5905 188.863 97.977 189.039 97.4591 189.391C96.9463 189.738 96.5515 190.191 96.275 190.749C95.9984 191.307 95.8602 191.905 95.8602 192.544V193.57C95.8602 194.444 96.011 195.186 96.3127 195.795C96.6194 196.398 97.0443 196.858 97.5874 197.175C98.1304 197.487 98.7614 197.642 99.4805 197.642C99.9481 197.642 100.37 197.577 100.748 197.446C101.13 197.311 101.459 197.109 101.736 196.843C102.012 196.571 102.226 196.234 102.377 195.832L104.096 196.315C103.915 196.898 103.611 197.411 103.184 197.854C102.756 198.291 102.228 198.633 101.6 198.879C100.971 199.121 100.265 199.241 99.4805 199.241ZM115.191 190.01L113.592 190.462C113.492 190.196 113.343 189.937 113.147 189.685C112.956 189.429 112.695 189.218 112.363 189.052C112.031 188.886 111.606 188.803 111.088 188.803C110.379 188.803 109.788 188.966 109.316 189.293C108.848 189.615 108.614 190.025 108.614 190.522C108.614 190.965 108.775 191.314 109.097 191.571C109.419 191.827 109.922 192.041 110.605 192.212L112.325 192.634C113.361 192.886 114.133 193.27 114.641 193.788C115.148 194.301 115.402 194.962 115.402 195.772C115.402 196.436 115.211 197.029 114.829 197.552C114.452 198.075 113.924 198.487 113.245 198.789C112.566 199.091 111.777 199.241 110.877 199.241C109.695 199.241 108.717 198.985 107.943 198.472C107.169 197.959 106.678 197.21 106.472 196.224L108.162 195.802C108.323 196.426 108.627 196.893 109.074 197.205C109.527 197.517 110.118 197.673 110.847 197.673C111.676 197.673 112.335 197.497 112.823 197.145C113.316 196.788 113.562 196.36 113.562 195.862C113.562 195.46 113.421 195.123 113.14 194.852C112.858 194.575 112.426 194.369 111.842 194.233L109.912 193.781C108.851 193.529 108.071 193.14 107.573 192.612C107.081 192.079 106.834 191.412 106.834 190.613C106.834 189.959 107.018 189.381 107.385 188.878C107.757 188.375 108.262 187.981 108.901 187.694C109.544 187.407 110.274 187.264 111.088 187.264C112.235 187.264 113.135 187.516 113.788 188.018C114.447 188.521 114.915 189.185 115.191 190.01ZM122.939 199.241C121.823 199.241 120.86 198.995 120.05 198.502C119.246 198.004 118.625 197.311 118.187 196.421C117.755 195.526 117.539 194.485 117.539 193.298C117.539 192.111 117.755 191.065 118.187 190.16C118.625 189.25 119.233 188.541 120.013 188.033C120.797 187.521 121.712 187.264 122.758 187.264C123.361 187.264 123.957 187.365 124.546 187.566C125.134 187.767 125.669 188.094 126.152 188.546C126.635 188.994 127.019 189.587 127.306 190.326C127.593 191.065 127.736 191.976 127.736 193.057V193.811H118.806V192.272H125.926C125.926 191.619 125.795 191.035 125.534 190.522C125.277 190.01 124.91 189.605 124.432 189.308C123.96 189.011 123.402 188.863 122.758 188.863C122.049 188.863 121.436 189.039 120.918 189.391C120.405 189.738 120.01 190.191 119.734 190.749C119.457 191.307 119.319 191.905 119.319 192.544V193.57C119.319 194.444 119.47 195.186 119.771 195.795C120.078 196.398 120.503 196.858 121.046 197.175C121.589 197.487 122.22 197.642 122.939 197.642C123.407 197.642 123.829 197.577 124.206 197.446C124.588 197.311 124.918 197.109 125.194 196.843C125.471 196.571 125.684 196.234 125.835 195.832L127.555 196.315C127.374 196.898 127.07 197.411 126.642 197.854C126.215 198.291 125.687 198.633 125.058 198.879C124.43 199.121 123.723 199.241 122.939 199.241ZM136.658 199V183.553H138.438V189.255H138.589C138.72 189.054 138.901 188.798 139.132 188.486C139.369 188.169 139.706 187.888 140.143 187.641C140.586 187.39 141.184 187.264 141.938 187.264C142.914 187.264 143.773 187.508 144.518 187.996C145.262 188.483 145.843 189.175 146.26 190.07C146.677 190.965 146.886 192.021 146.886 193.238C146.886 194.465 146.677 195.528 146.26 196.428C145.843 197.323 145.264 198.017 144.525 198.51C143.786 198.997 142.934 199.241 141.968 199.241C141.224 199.241 140.628 199.118 140.181 198.872C139.733 198.62 139.389 198.336 139.147 198.019C138.906 197.698 138.72 197.431 138.589 197.22H138.378V199H136.658ZM138.408 193.207C138.408 194.082 138.537 194.854 138.793 195.523C139.049 196.187 139.424 196.707 139.917 197.084C140.41 197.456 141.013 197.642 141.727 197.642C142.471 197.642 143.092 197.446 143.59 197.054C144.093 196.657 144.47 196.124 144.721 195.455C144.978 194.781 145.106 194.032 145.106 193.207C145.106 192.393 144.98 191.659 144.729 191.005C144.482 190.346 144.108 189.826 143.605 189.444C143.107 189.057 142.481 188.863 141.727 188.863C141.003 188.863 140.394 189.047 139.902 189.414C139.409 189.776 139.037 190.284 138.785 190.937C138.534 191.586 138.408 192.343 138.408 193.207ZM149.609 199V187.415H151.389V199H149.609ZM150.514 185.484C150.167 185.484 149.868 185.366 149.616 185.13C149.37 184.893 149.247 184.609 149.247 184.277C149.247 183.946 149.37 183.661 149.616 183.425C149.868 183.189 150.167 183.071 150.514 183.071C150.861 183.071 151.157 183.189 151.404 183.425C151.655 183.661 151.781 183.946 151.781 184.277C151.781 184.609 151.655 184.893 151.404 185.13C151.157 185.366 150.861 185.484 150.514 185.484ZM158.058 199.272C157.324 199.272 156.658 199.133 156.059 198.857C155.461 198.575 154.986 198.17 154.634 197.642C154.282 197.109 154.106 196.466 154.106 195.712C154.106 195.048 154.236 194.51 154.498 194.097C154.759 193.68 155.109 193.353 155.546 193.117C155.984 192.881 156.466 192.705 156.994 192.589C157.527 192.468 158.063 192.373 158.601 192.302C159.305 192.212 159.876 192.144 160.313 192.099C160.756 192.048 161.077 191.966 161.278 191.85C161.485 191.734 161.588 191.533 161.588 191.246V191.186C161.588 190.442 161.384 189.864 160.977 189.451C160.575 189.039 159.964 188.833 159.144 188.833C158.294 188.833 157.628 189.019 157.145 189.391C156.663 189.763 156.323 190.16 156.127 190.583L154.438 189.979C154.739 189.275 155.142 188.727 155.644 188.335C156.152 187.938 156.705 187.661 157.304 187.505C157.907 187.345 158.5 187.264 159.084 187.264C159.456 187.264 159.883 187.309 160.366 187.4C160.854 187.485 161.324 187.664 161.776 187.935C162.234 188.207 162.613 188.617 162.915 189.165C163.217 189.713 163.368 190.447 163.368 191.367V199H161.588V197.431H161.497C161.377 197.683 161.175 197.952 160.894 198.238C160.612 198.525 160.238 198.769 159.77 198.97C159.302 199.171 158.732 199.272 158.058 199.272ZM158.329 197.673C159.033 197.673 159.627 197.534 160.109 197.258C160.597 196.981 160.964 196.624 161.211 196.187C161.462 195.749 161.588 195.289 161.588 194.806V193.177C161.512 193.268 161.346 193.351 161.09 193.426C160.839 193.497 160.547 193.559 160.215 193.615C159.888 193.665 159.569 193.71 159.257 193.751C158.95 193.786 158.702 193.816 158.51 193.841C158.048 193.901 157.615 193.999 157.213 194.135C156.816 194.266 156.494 194.465 156.248 194.731C156.006 194.993 155.886 195.35 155.886 195.802C155.886 196.421 156.115 196.888 156.572 197.205C157.035 197.517 157.62 197.673 158.329 197.673ZM174.823 190.01L173.224 190.462C173.123 190.196 172.975 189.937 172.779 189.685C172.588 189.429 172.326 189.218 171.994 189.052C171.662 188.886 171.238 188.803 170.72 188.803C170.011 188.803 169.42 188.966 168.947 189.293C168.48 189.615 168.246 190.025 168.246 190.522C168.246 190.965 168.407 191.314 168.728 191.571C169.05 191.827 169.553 192.041 170.237 192.212L171.957 192.634C172.992 192.886 173.764 193.27 174.272 193.788C174.78 194.301 175.034 194.962 175.034 195.772C175.034 196.436 174.843 197.029 174.461 197.552C174.083 198.075 173.556 198.487 172.877 198.789C172.198 199.091 171.408 199.241 170.508 199.241C169.327 199.241 168.349 198.985 167.574 198.472C166.8 197.959 166.31 197.21 166.104 196.224L167.793 195.802C167.954 196.426 168.258 196.893 168.706 197.205C169.158 197.517 169.749 197.673 170.478 197.673C171.308 197.673 171.967 197.497 172.454 197.145C172.947 196.788 173.193 196.36 173.193 195.862C173.193 195.46 173.053 195.123 172.771 194.852C172.49 194.575 172.057 194.369 171.474 194.233L169.543 193.781C168.482 193.529 167.703 193.14 167.205 192.612C166.712 192.079 166.466 191.412 166.466 190.613C166.466 189.959 166.649 189.381 167.016 188.878C167.388 188.375 167.894 187.981 168.532 187.694C169.176 187.407 169.905 187.264 170.72 187.264C171.866 187.264 172.766 187.516 173.42 188.018C174.078 188.521 174.546 189.185 174.823 190.01ZM182.57 199.241C181.454 199.241 180.491 198.995 179.682 198.502C178.877 198.004 178.256 197.311 177.819 196.421C177.386 195.526 177.17 194.485 177.17 193.298C177.17 192.111 177.386 191.065 177.819 190.16C178.256 189.25 178.865 188.541 179.644 188.033C180.428 187.521 181.344 187.264 182.389 187.264C182.993 187.264 183.589 187.365 184.177 187.566C184.765 187.767 185.301 188.094 185.784 188.546C186.266 188.994 186.651 189.587 186.937 190.326C187.224 191.065 187.367 191.976 187.367 193.057V193.811H178.437V192.272H185.557C185.557 191.619 185.427 191.035 185.165 190.522C184.909 190.01 184.542 189.605 184.064 189.308C183.591 189.011 183.033 188.863 182.389 188.863C181.68 188.863 181.067 189.039 180.549 189.391C180.036 189.738 179.642 190.191 179.365 190.749C179.088 191.307 178.95 191.905 178.95 192.544V193.57C178.95 194.444 179.101 195.186 179.403 195.795C179.709 196.398 180.134 196.858 180.677 197.175C181.22 197.487 181.851 197.642 182.57 197.642C183.038 197.642 183.46 197.577 183.838 197.446C184.22 197.311 184.549 197.109 184.826 196.843C185.102 196.571 185.316 196.234 185.467 195.832L187.186 196.315C187.005 196.898 186.701 197.411 186.274 197.854C185.846 198.291 185.318 198.633 184.69 198.879C184.061 199.121 183.355 199.241 182.57 199.241ZM198.281 190.01L196.682 190.462C196.582 190.196 196.433 189.937 196.237 189.685C196.046 189.429 195.785 189.218 195.453 189.052C195.121 188.886 194.696 188.803 194.178 188.803C193.469 188.803 192.878 188.966 192.406 189.293C191.938 189.615 191.704 190.025 191.704 190.522C191.704 190.965 191.865 191.314 192.187 191.571C192.509 191.827 193.012 192.041 193.695 192.212L195.415 192.634C196.451 192.886 197.223 193.27 197.731 193.788C198.238 194.301 198.492 194.962 198.492 195.772C198.492 196.436 198.301 197.029 197.919 197.552C197.542 198.075 197.014 198.487 196.335 198.789C195.656 199.091 194.867 199.241 193.967 199.241C192.785 199.241 191.807 198.985 191.033 198.472C190.259 197.959 189.768 197.21 189.562 196.224L191.252 195.802C191.413 196.426 191.717 196.893 192.164 197.205C192.617 197.517 193.208 197.673 193.937 197.673C194.766 197.673 195.425 197.497 195.913 197.145C196.406 196.788 196.652 196.36 196.652 195.862C196.652 195.46 196.511 195.123 196.23 194.852C195.948 194.575 195.516 194.369 194.932 194.233L193.002 193.781C191.941 193.529 191.161 193.14 190.663 192.612C190.171 192.079 189.924 191.412 189.924 190.613C189.924 189.959 190.108 189.381 190.475 188.878C190.847 188.375 191.352 187.981 191.991 187.694C192.634 187.407 193.364 187.264 194.178 187.264C195.325 187.264 196.225 187.516 196.878 188.018C197.537 188.521 198.005 189.185 198.281 190.01Z" fill="#4E6CA8"/>
<path d="M116.416 18.8214L121.718 14.8449L127.02 11.7521L134.089 9.54297H143.809L153.088 11.7521L160.157 16.1704L165.017 21.9142L167.226 26.7743L168.552 31.6344V37.3782L164.575 48.4239L157.506 59.0279L156.181 67.4226L158.39 75.8174L158.832 79.7938L157.064 82.003L125.694 81.5611L124.369 77.5847L122.16 73.6082L111.998 74.4919L109.347 73.1664L108.463 70.0736L109.347 65.6553L107.137 63.4461L108.463 61.237L106.254 59.0279L107.137 56.3769L104.045 55.935L102.277 53.7259L103.603 51.0749L108.905 40.471L111.114 26.3325L116.416 18.8214Z" fill="white" stroke="#4E6CA8" stroke-width="0.689254"/>
<path d="M170.342 34.8383V34.7222C169.804 26.3628 166.47 19.4678 160.698 14.7831C160.176 14.3604 159.638 13.9571 159.076 13.5765V7.32703C160.556 6.79792 161.613 5.41059 161.613 3.77481C161.613 1.69385 159.89 0 157.773 0C155.657 0 153.934 1.69385 153.934 3.77481C153.934 5.41059 154.994 6.79793 156.471 7.32703V12.002C153.395 10.3598 149.917 9.23381 146.205 8.68216V7.32711C147.685 6.798 148.742 5.41068 148.742 3.7749C148.742 1.69393 147.019 8.25835e-05 144.902 8.25835e-05C142.785 8.25835e-05 141.062 1.69393 141.062 3.7749C141.062 5.41068 142.122 6.79802 143.599 7.32711V8.4015C142.861 8.34343 142.119 8.31116 141.364 8.30149C139.717 8.27568 138.063 8.36602 136.415 8.56605V7.32713C137.895 6.79801 138.952 5.41069 138.952 3.77491C138.952 1.69395 137.229 9.91248e-05 135.112 9.91248e-05C132.995 9.91248e-05 131.273 1.69395 131.273 3.77491C131.273 5.41069 132.333 6.79803 133.809 7.32713V8.95325C130.196 9.63078 126.701 10.802 123.544 12.4216V7.32713C125.024 6.79801 126.08 5.41069 126.08 3.77491C126.08 1.69395 124.357 9.91248e-05 122.241 9.91248e-05C120.124 9.91248e-05 118.401 1.69395 118.401 3.77491C118.401 5.41069 119.461 6.79803 120.938 7.32713V13.9089C120.528 14.1638 120.13 14.4284 119.737 14.7091C116.543 16.9384 113.948 19.6066 112.031 22.6555C109.963 25.9335 108.736 29.576 108.375 33.4771C108.283 34.5095 108.283 35.4194 108.29 36.2937C108.306 39.449 108.316 42.1753 102.953 48.9381C102.927 48.9703 102.894 49.0123 102.868 49.0542C101.473 51.2772 101.155 53.0194 101.91 54.3971C102.684 55.8005 104.322 56.3039 105.874 56.5039C105.723 57.0492 105.75 57.546 105.841 57.9396C106.009 58.7172 106.481 59.385 107.069 59.9045C106.439 60.682 106.363 61.4822 106.373 61.9048C106.406 63.0857 107.128 64.1858 108.306 64.9182C107.121 68.1381 107.213 70.5191 108.592 72.171C110.574 74.5585 114.742 74.9876 122.421 73.568L123.691 78.6978C124.138 80.5078 125.775 81.779 127.672 81.779H156.765C158.16 81.779 159.404 81.1273 160.175 79.9852C160.95 78.8463 161.081 77.475 160.553 76.2103C155.292 63.6989 158.974 58.659 163.234 52.8287C166.467 48.4183 170.106 43.4364 170.342 34.8383ZM157.773 2.5621C158.452 2.5621 159.007 3.10736 159.007 3.77525C159.007 4.4431 158.452 4.9884 157.773 4.9884C157.094 4.9884 156.539 4.44314 156.539 3.77525C156.539 3.1074 157.094 2.5621 157.773 2.5621ZM144.911 2.5621C145.591 2.5621 146.145 3.10736 146.145 3.77525C146.145 4.4431 145.591 4.9884 144.911 4.9884C144.229 4.9884 143.674 4.44314 143.674 3.77525C143.674 3.1074 144.229 2.5621 144.911 2.5621ZM135.131 2.5621C135.81 2.5621 136.365 3.10736 136.365 3.77525C136.365 4.4431 135.81 4.9884 135.131 4.9884C134.452 4.9884 133.897 4.44314 133.897 3.77525C133.894 3.1074 134.448 2.5621 135.131 2.5621ZM122.26 2.5621C122.939 2.5621 123.494 3.10736 123.494 3.77525C123.494 4.4431 122.939 4.9884 122.26 4.9884C121.581 4.9884 121.026 4.44314 121.026 3.77525C121.023 3.1074 121.577 2.5621 122.26 2.5621ZM156.47 14.9091V18.0161L151.153 18.0129C150.431 18.0129 149.851 18.5839 149.851 19.2937V25.6529H146.204V11.2666C149.798 11.8344 153.329 13.0088 156.47 14.9091ZM151.925 35.8865L152.926 37.8094L151.084 39.6193L149.128 38.6353C148.439 38.2868 147.658 38.3127 146.995 38.6998C145.919 39.3193 144.76 39.7903 143.549 40.1033C142.811 40.2936 142.224 40.8389 142.004 41.539L141.324 43.5878H138.719L138.039 41.539C137.796 40.8195 137.232 40.2904 136.484 40.1033C135.282 39.7903 134.124 39.3193 133.048 38.7063C132.385 38.3191 131.587 38.303 130.905 38.6417L128.949 39.6258L127.108 37.8158L128.099 35.8929C128.443 35.2251 128.427 34.4572 128.04 33.7958C127.409 32.7376 126.93 31.5986 126.612 30.4178C126.418 29.6983 125.874 29.1208 125.142 28.8885L123.058 28.2271H131.761C132.391 32.1407 135.843 35.1476 140.001 35.1476C144.159 35.1476 147.612 32.1407 148.242 28.2271H156.945L154.861 28.8949C154.139 29.1272 153.591 29.6951 153.401 30.4243C153.082 31.6051 152.603 32.744 151.98 33.8022C151.596 34.441 151.573 35.209 151.925 35.8865ZM134.433 28.2142H145.608C145.02 30.7081 142.733 32.5762 140.022 32.5762C137.298 32.5762 135.02 30.7081 134.433 28.2142ZM140.885 10.8528H141.338C142.093 10.8625 142.851 10.8948 143.605 10.9593V25.652H136.431V11.1336C137.921 10.9432 139.408 10.8528 140.885 10.8528ZM133.829 11.553V25.6518H130.183V19.2927C130.183 18.5829 129.602 18.0119 128.88 18.0119H123.564V15.3114C126.721 13.5272 130.232 12.266 133.829 11.553ZM158.176 77.1767C158.377 77.6542 158.337 78.1188 158.042 78.5576C157.746 78.9867 157.326 79.2093 156.798 79.2093L127.695 79.2061C126.989 79.2061 126.408 78.7512 126.241 78.0833L124.679 71.7662C124.534 71.179 124.006 70.7918 123.418 70.7918C123.333 70.7918 123.241 70.8015 123.159 70.8176C116.162 72.221 111.952 72.1307 110.643 70.5466C109.583 69.2754 110.357 66.7073 111.197 64.7811C111.342 64.452 111.342 64.0874 111.187 63.7583C111.036 63.4292 110.757 63.1808 110.423 63.0743C109.523 62.7775 109.038 62.2064 109.018 61.8258C109.008 61.5289 109.363 61.216 109.976 60.9675C110.488 60.761 110.816 60.2577 110.784 59.7189C110.757 59.1737 110.38 58.7123 109.852 58.5542C109.264 58.3896 108.542 57.8509 108.431 57.3894C108.345 57.0087 108.808 56.5538 109.087 56.3247C109.491 55.9763 109.642 55.4246 109.464 54.9277C109.287 54.4309 108.818 54.0921 108.28 54.076L108.129 54.0663C107.095 54.0341 104.683 53.9663 104.246 53.1662C104.154 52.992 103.934 52.2919 105.086 50.4399C110.958 43.0161 110.941 39.7349 110.925 36.2667C110.925 35.4505 110.915 34.5987 111 33.6889C111.673 26.4199 115.572 20.8025 120.974 16.9635V19.2833C120.974 19.9931 121.554 20.5641 122.276 20.5641H127.593V25.6424H121.778C121.056 25.6424 120.475 26.2134 120.475 26.9232V28.4687C120.475 29.4269 121.095 30.2625 122.011 30.5496L124.16 31.2336C124.521 32.5145 125.033 33.7437 125.696 34.8859L124.679 36.8604C124.232 37.7121 124.393 38.7348 125.082 39.4124L127.307 41.5998C127.987 42.2676 129.03 42.4354 129.893 42.0031L131.908 40.9964C133.077 41.6481 134.327 42.1612 135.623 42.5063L136.319 44.6293C136.621 45.5294 137.478 46.1327 138.436 46.1327H141.586C142.551 46.1327 143.411 45.5229 143.703 44.6228L144.409 42.5096C145.702 42.1547 146.955 41.6513 148.124 40.9996L150.139 42.0063C151.005 42.4354 152.039 42.2709 152.725 41.603L154.95 39.4156C155.629 38.7477 155.8 37.7217 155.36 36.8732L154.336 34.8923C154.999 33.7373 155.521 32.5048 155.882 31.2336L158.025 30.5496C158.95 30.2593 159.571 29.4172 159.571 28.4687V26.9232C159.571 26.2134 158.99 25.6424 158.268 25.6424H152.452V20.5641H157.769C158.491 20.5641 159.072 19.9931 159.072 19.2833V16.7215C163.784 20.5286 167.178 26.3776 167.733 34.8179C167.506 42.5902 164.27 47.0262 161.136 51.3112C156.63 57.509 152.361 63.3487 158.176 77.1767Z" fill="#4E6CA8"/>
</svg>
