<svg width="309" height="322" viewBox="0 0 309 322" fill="none" xmlns="http://www.w3.org/2000/svg">
<path d="M42.0314 208.818V193.48H43.8359V207.221H50.5872L50.525 208.818H42.0314ZM55.5963 207.657C56.419 207.657 57.1415 207.432 57.7637 206.983C58.3929 206.526 58.7973 205.915 58.9771 205.147V203.229C58.9425 203.229 58.7317 203.246 58.3445 203.28C57.9642 203.315 57.7153 203.336 57.5978 203.343C56.0975 203.474 55.0501 203.719 54.4555 204.079C53.8678 204.438 53.574 205.016 53.574 205.811C53.574 206.419 53.7537 206.879 54.1133 207.19C54.4728 207.501 54.9671 207.657 55.5963 207.657ZM59.3608 208.818C59.2571 208.376 59.1569 207.899 59.0601 207.387C58.4309 208.016 57.8398 208.452 57.2867 208.694C56.7336 208.936 56.0837 209.057 55.337 209.057C54.2723 209.057 53.415 208.78 52.7651 208.227C52.1221 207.667 51.8006 206.865 51.8006 205.821C51.8006 204.66 52.2396 203.799 53.1177 203.239C54.0026 202.679 55.2748 202.33 56.9341 202.191C57.1622 202.171 57.5045 202.143 57.9608 202.109C58.424 202.067 58.7697 202.036 58.9978 202.015V201.009C58.9978 200.207 58.8112 199.613 58.4378 199.225C58.0645 198.838 57.4768 198.645 56.6748 198.645C55.5548 198.645 54.4244 198.921 53.2836 199.474C53.249 199.391 53.1591 199.153 53.014 198.759C52.8688 198.358 52.7927 198.15 52.7858 198.137C53.2905 197.853 53.8886 197.628 54.5799 197.462C55.2782 197.29 55.9869 197.203 56.7059 197.203C58.1233 197.203 59.143 197.514 59.7653 198.137C60.3944 198.752 60.709 199.803 60.709 201.289V208.818H59.3608ZM68.7982 197.338C69.1093 197.338 69.3927 197.359 69.6485 197.4L69.5863 198.997C69.2683 198.942 68.9917 198.914 68.7567 198.914C67.7887 198.914 67.0006 199.253 66.3922 199.931C65.7907 200.601 65.4899 201.434 65.4899 202.43V208.818H63.758C63.7511 201.835 63.7476 198.043 63.7476 197.442H65.1892L65.3551 199.485C65.7492 198.842 66.2504 198.323 66.8588 197.929C67.4672 197.535 68.1137 197.338 68.7982 197.338ZM75.6013 207.335C76.189 207.335 76.7041 207.232 77.1466 207.024C77.589 206.817 77.9347 206.53 78.1836 206.163C78.4325 205.797 78.6157 205.389 78.7333 204.94C78.8577 204.49 78.9199 203.999 78.9199 203.467V202.627C78.9199 202.074 78.8577 201.566 78.7333 201.103C78.6088 200.632 78.4152 200.214 78.1525 199.848C77.8967 199.474 77.551 199.184 77.1154 198.977C76.6868 198.769 76.1855 198.665 75.6117 198.665C75.1346 198.665 74.6991 198.755 74.305 198.935C73.9178 199.115 73.5963 199.353 73.3405 199.651C73.0916 199.941 72.8773 200.283 72.6975 200.677C72.5247 201.065 72.4002 201.459 72.3242 201.86C72.2481 202.261 72.2101 202.665 72.2101 203.073C72.2101 203.474 72.2516 203.872 72.3346 204.266C72.4175 204.66 72.5489 205.043 72.7286 205.417C72.9084 205.79 73.1262 206.119 73.382 206.402C73.6378 206.679 73.9558 206.903 74.3361 207.076C74.7233 207.249 75.145 207.335 75.6013 207.335ZM72.9361 214.024L72.7805 212.458H74.8961C75.4838 212.458 75.9954 212.417 76.431 212.334C76.8666 212.251 77.2295 212.113 77.5199 211.919C77.8103 211.733 78.0454 211.522 78.2251 211.287C78.4049 211.058 78.5397 210.758 78.6296 210.384C78.7264 210.018 78.7886 209.651 78.8162 209.285C78.8508 208.926 78.8681 208.483 78.8681 207.958V206.952C78.4533 207.546 77.9728 208.006 77.4266 208.331C76.8804 208.649 76.1855 208.808 75.3421 208.808C74.6922 208.808 74.0907 208.697 73.5376 208.476C72.9914 208.248 72.5281 207.947 72.1479 207.574C71.7745 207.201 71.453 206.768 71.1834 206.278C70.9207 205.787 70.7271 205.278 70.6027 204.753C70.4851 204.228 70.4263 203.699 70.4263 203.166C70.4263 202.337 70.5266 201.569 70.7271 200.864C70.9345 200.159 71.2387 199.53 71.6397 198.977C72.0407 198.423 72.5662 197.991 73.2161 197.68C73.8729 197.362 74.623 197.203 75.4665 197.203C76.2132 197.203 76.8631 197.348 77.4162 197.639C77.9762 197.922 78.4775 198.361 78.9199 198.956V197.442H80.6104V207.999C80.6104 208.483 80.5965 208.905 80.5689 209.264C80.5481 209.631 80.4894 210.035 80.3926 210.478C80.3027 210.92 80.1783 211.3 80.0192 211.618C79.8602 211.936 79.6355 212.255 79.3451 212.573C79.0617 212.897 78.7194 213.157 78.3184 213.35C77.9244 213.551 77.4335 213.713 76.8458 213.838C76.2581 213.962 75.5944 214.024 74.8546 214.024H72.9361ZM90.0581 199.547C89.5534 198.939 88.8585 198.634 87.9736 198.634C87.0886 198.634 86.3661 198.949 85.8061 199.578C85.2461 200.2 84.9177 201.054 84.8209 202.14H90.8255C90.8255 201.013 90.5697 200.148 90.0581 199.547ZM88.3158 209.057C86.6634 209.057 85.3602 208.531 84.406 207.481C83.4589 206.43 82.9853 204.992 82.9853 203.166C82.9853 201.403 83.445 199.976 84.3646 198.883C85.2841 197.784 86.494 197.224 87.9943 197.203C89.4047 197.203 90.5213 197.687 91.344 198.655C92.1737 199.616 92.5885 200.902 92.5885 202.513C92.5885 202.596 92.5851 202.748 92.5782 202.969C92.5782 203.191 92.5782 203.35 92.5782 203.446H84.769C84.7898 204.739 85.1216 205.749 85.7646 206.475C86.4145 207.194 87.2856 207.553 88.378 207.553C89.581 207.553 90.7875 207.235 91.9974 206.599L92.267 207.999C91.1124 208.704 89.7954 209.057 88.3158 209.057ZM100.626 208.818V193.48H102.43V207.221H109.182L109.119 208.818H100.626ZM114.191 207.657C115.013 207.657 115.736 207.432 116.358 206.983C116.987 206.526 117.392 205.915 117.572 205.147V203.229C117.537 203.229 117.326 203.246 116.939 203.28C116.559 203.315 116.31 203.336 116.192 203.343C114.692 203.474 113.644 203.719 113.05 204.079C112.462 204.438 112.168 205.016 112.168 205.811C112.168 206.419 112.348 206.879 112.708 207.19C113.067 207.501 113.562 207.657 114.191 207.657ZM117.955 208.818C117.852 208.376 117.751 207.899 117.654 207.387C117.025 208.016 116.434 208.452 115.881 208.694C115.328 208.936 114.678 209.057 113.931 209.057C112.867 209.057 112.009 208.78 111.359 208.227C110.716 207.667 110.395 206.865 110.395 205.821C110.395 204.66 110.834 203.799 111.712 203.239C112.597 202.679 113.869 202.33 115.528 202.191C115.757 202.171 116.099 202.143 116.555 202.109C117.018 202.067 117.364 202.036 117.592 202.015V201.009C117.592 200.207 117.406 199.613 117.032 199.225C116.659 198.838 116.071 198.645 115.269 198.645C114.149 198.645 113.019 198.921 111.878 199.474C111.843 199.391 111.754 199.153 111.608 198.759C111.463 198.358 111.387 198.15 111.38 198.137C111.885 197.853 112.483 197.628 113.174 197.462C113.873 197.29 114.581 197.203 115.3 197.203C116.718 197.203 117.737 197.514 118.36 198.137C118.989 198.752 119.303 199.803 119.303 201.289V208.818H117.955ZM122.29 208.818V197.442H123.742L123.96 199.07C124.409 198.51 124.969 198.06 125.64 197.722C126.317 197.376 127.047 197.203 127.828 197.203C129.142 197.203 130.113 197.573 130.742 198.313C131.371 199.046 131.686 200.176 131.686 201.704V208.818H129.954C129.954 204.255 129.951 201.811 129.944 201.486C129.916 200.518 129.719 199.81 129.353 199.36C128.993 198.911 128.388 198.686 127.538 198.686C126.646 198.686 125.903 198.901 125.308 199.329C124.713 199.758 124.326 200.314 124.147 200.999C124.077 201.462 124.043 201.994 124.043 202.596V208.818H122.29ZM138.987 207.335C139.575 207.335 140.09 207.232 140.532 207.024C140.975 206.817 141.32 206.53 141.569 206.163C141.818 205.797 142.001 205.389 142.119 204.94C142.243 204.49 142.306 203.999 142.306 203.467V202.627C142.306 202.074 142.243 201.566 142.119 201.103C141.995 200.632 141.801 200.214 141.538 199.848C141.282 199.474 140.937 199.184 140.501 198.977C140.072 198.769 139.571 198.665 138.997 198.665C138.52 198.665 138.085 198.755 137.691 198.935C137.303 199.115 136.982 199.353 136.726 199.651C136.477 199.941 136.263 200.283 136.083 200.677C135.91 201.065 135.786 201.459 135.71 201.86C135.634 202.261 135.596 202.665 135.596 203.073C135.596 203.474 135.637 203.872 135.72 204.266C135.803 204.66 135.935 205.043 136.114 205.417C136.294 205.79 136.512 206.119 136.768 206.402C137.023 206.679 137.342 206.903 137.722 207.076C138.109 207.249 138.531 207.335 138.987 207.335ZM136.322 214.024L136.166 212.458H138.282C138.869 212.458 139.381 212.417 139.817 212.334C140.252 212.251 140.615 212.113 140.906 211.919C141.196 211.733 141.431 211.522 141.611 211.287C141.791 211.058 141.925 210.758 142.015 210.384C142.112 210.018 142.174 209.651 142.202 209.285C142.236 208.926 142.254 208.483 142.254 207.958V206.952C141.839 207.546 141.358 208.006 140.812 208.331C140.266 208.649 139.571 208.808 138.728 208.808C138.078 208.808 137.476 208.697 136.923 208.476C136.377 208.248 135.914 207.947 135.534 207.574C135.16 207.201 134.839 206.768 134.569 206.278C134.306 205.787 134.113 205.278 133.988 204.753C133.871 204.228 133.812 203.699 133.812 203.166C133.812 202.337 133.912 201.569 134.113 200.864C134.32 200.159 134.624 199.53 135.025 198.977C135.426 198.423 135.952 197.991 136.602 197.68C137.259 197.362 138.009 197.203 138.852 197.203C139.599 197.203 140.249 197.348 140.802 197.639C141.362 197.922 141.863 198.361 142.306 198.956V197.442H143.996V207.999C143.996 208.483 143.982 208.905 143.955 209.264C143.934 209.631 143.875 210.035 143.778 210.478C143.688 210.92 143.564 211.3 143.405 211.618C143.246 211.936 143.021 212.255 142.731 212.573C142.447 212.897 142.105 213.157 141.704 213.35C141.31 213.551 140.819 213.713 140.231 213.838C139.644 213.962 138.98 214.024 138.24 214.024H136.322ZM146.495 205.023V197.442H148.238V205.043C148.238 205.541 148.307 205.963 148.445 206.309C148.59 206.654 148.794 206.924 149.057 207.118C149.327 207.304 149.627 207.439 149.959 207.522C150.298 207.605 150.685 207.646 151.121 207.646C152.02 207.646 152.718 207.449 153.216 207.055C153.72 206.661 153.973 205.991 153.973 205.043V197.442H155.715V205.023C155.715 205.603 155.632 206.125 155.466 206.589C155.3 207.052 155.075 207.439 154.792 207.75C154.515 208.054 154.18 208.307 153.786 208.507C153.392 208.708 152.974 208.853 152.531 208.943C152.096 209.033 151.625 209.078 151.121 209.078C150.623 209.078 150.153 209.033 149.71 208.943C149.268 208.853 148.846 208.708 148.445 208.507C148.051 208.3 147.709 208.044 147.418 207.74C147.135 207.429 146.91 207.042 146.744 206.578C146.578 206.115 146.495 205.597 146.495 205.023ZM161.585 207.657C162.407 207.657 163.13 207.432 163.752 206.983C164.381 206.526 164.786 205.915 164.966 205.147V203.229C164.931 203.229 164.72 203.246 164.333 203.28C163.953 203.315 163.704 203.336 163.586 203.343C162.086 203.474 161.039 203.719 160.444 204.079C159.856 204.438 159.562 205.016 159.562 205.811C159.562 206.419 159.742 206.879 160.102 207.19C160.461 207.501 160.956 207.657 161.585 207.657ZM165.349 208.818C165.246 208.376 165.145 207.899 165.049 207.387C164.419 208.016 163.828 208.452 163.275 208.694C162.722 208.936 162.072 209.057 161.325 209.057C160.261 209.057 159.403 208.78 158.754 208.227C158.111 207.667 157.789 206.865 157.789 205.821C157.789 204.66 158.228 203.799 159.106 203.239C159.991 202.679 161.263 202.33 162.923 202.191C163.151 202.171 163.493 202.143 163.949 202.109C164.412 202.067 164.758 202.036 164.986 202.015V201.009C164.986 200.207 164.8 199.613 164.426 199.225C164.053 198.838 163.465 198.645 162.663 198.645C161.543 198.645 160.413 198.921 159.272 199.474C159.238 199.391 159.148 199.153 159.002 198.759C158.857 198.358 158.781 198.15 158.774 198.137C159.279 197.853 159.877 197.628 160.568 197.462C161.267 197.29 161.975 197.203 162.694 197.203C164.112 197.203 165.132 197.514 165.754 198.137C166.383 198.752 166.698 199.803 166.698 201.289V208.818H165.349ZM174.102 207.335C174.69 207.335 175.205 207.232 175.647 207.024C176.09 206.817 176.436 206.53 176.684 206.163C176.933 205.797 177.117 205.389 177.234 204.94C177.359 204.49 177.421 203.999 177.421 203.467V202.627C177.421 202.074 177.359 201.566 177.234 201.103C177.11 200.632 176.916 200.214 176.653 199.848C176.398 199.474 176.052 199.184 175.616 198.977C175.188 198.769 174.686 198.665 174.113 198.665C173.636 198.665 173.2 198.755 172.806 198.935C172.419 199.115 172.097 199.353 171.841 199.651C171.592 199.941 171.378 200.283 171.198 200.677C171.026 201.065 170.901 201.459 170.825 201.86C170.749 202.261 170.711 202.665 170.711 203.073C170.711 203.474 170.752 203.872 170.835 204.266C170.918 204.66 171.05 205.043 171.23 205.417C171.409 205.79 171.627 206.119 171.883 206.402C172.139 206.679 172.457 206.903 172.837 207.076C173.224 207.249 173.646 207.335 174.102 207.335ZM171.437 214.024L171.281 212.458H173.397C173.985 212.458 174.496 212.417 174.932 212.334C175.367 212.251 175.73 212.113 176.021 211.919C176.311 211.733 176.546 211.522 176.726 211.287C176.906 211.058 177.041 210.758 177.13 210.384C177.227 210.018 177.289 209.651 177.317 209.285C177.352 208.926 177.369 208.483 177.369 207.958V206.952C176.954 207.546 176.474 208.006 175.927 208.331C175.381 208.649 174.686 208.808 173.843 208.808C173.193 208.808 172.592 208.697 172.038 208.476C171.492 208.248 171.029 207.947 170.649 207.574C170.275 207.201 169.954 206.768 169.684 206.278C169.422 205.787 169.228 205.278 169.104 204.753C168.986 204.228 168.927 203.699 168.927 203.166C168.927 202.337 169.027 201.569 169.228 200.864C169.435 200.159 169.74 199.53 170.141 198.977C170.542 198.423 171.067 197.991 171.717 197.68C172.374 197.362 173.124 197.203 173.967 197.203C174.714 197.203 175.364 197.348 175.917 197.639C176.477 197.922 176.978 198.361 177.421 198.956V197.442H179.111V207.999C179.111 208.483 179.097 208.905 179.07 209.264C179.049 209.631 178.99 210.035 178.893 210.478C178.804 210.92 178.679 211.3 178.52 211.618C178.361 211.936 178.136 212.255 177.846 212.573C177.563 212.897 177.22 213.157 176.819 213.35C176.425 213.551 175.934 213.713 175.347 213.838C174.759 213.962 174.095 214.024 173.355 214.024H171.437ZM188.559 199.547C188.054 198.939 187.359 198.634 186.474 198.634C185.589 198.634 184.867 198.949 184.307 199.578C183.747 200.2 183.419 201.054 183.322 202.14H189.326C189.326 201.013 189.071 200.148 188.559 199.547ZM186.817 209.057C185.164 209.057 183.861 208.531 182.907 207.481C181.96 206.43 181.486 204.992 181.486 203.166C181.486 201.403 181.946 199.976 182.865 198.883C183.785 197.784 184.995 197.224 186.495 197.203C187.906 197.203 189.022 197.687 189.845 198.655C190.675 199.616 191.089 200.902 191.089 202.513C191.089 202.596 191.086 202.748 191.079 202.969C191.079 203.191 191.079 203.35 191.079 203.446H183.27C183.291 204.739 183.622 205.749 184.265 206.475C184.915 207.194 185.786 207.553 186.879 207.553C188.082 207.553 189.288 207.235 190.498 206.599L190.768 207.999C189.613 208.704 188.296 209.057 186.817 209.057ZM205.847 207.875L201.139 196.923L200.745 195.876L200.817 199.63V208.818H199.137V193.48H201.46L206.801 205.697L212.09 193.48H214.351V208.818H212.609V199.588L212.681 195.917L212.297 196.965L207.6 207.875H205.847ZM218.924 203.156C218.924 204.504 219.222 205.586 219.816 206.402C220.418 207.211 221.292 207.615 222.44 207.615C223.574 207.615 224.428 207.211 225.002 206.402C225.582 205.593 225.873 204.504 225.873 203.135C225.873 201.746 225.586 200.653 225.012 199.858C224.445 199.056 223.577 198.655 222.409 198.655C221.275 198.655 220.411 199.063 219.816 199.879C219.222 200.695 218.924 201.787 218.924 203.156ZM227.667 203.125C227.667 204.888 227.197 206.319 226.256 207.418C225.316 208.511 224.016 209.057 222.357 209.057C220.76 209.057 219.488 208.504 218.541 207.398C217.6 206.291 217.13 204.871 217.13 203.135C217.13 201.365 217.604 199.934 218.551 198.842C219.498 197.749 220.798 197.203 222.45 197.203C224.075 197.203 225.351 197.753 226.277 198.852C227.204 199.945 227.667 201.369 227.667 203.125ZM234.563 207.564C235.704 207.564 236.551 207.197 237.104 206.464C237.664 205.731 237.944 204.684 237.944 203.322C237.944 201.787 237.675 200.632 237.135 199.858C236.603 199.077 235.739 198.686 234.543 198.686C234.01 198.686 233.54 198.8 233.132 199.028C232.724 199.257 232.396 199.575 232.147 199.983C231.898 200.39 231.708 200.861 231.577 201.393C231.452 201.918 231.39 202.496 231.39 203.125C231.39 204.01 231.497 204.777 231.711 205.427C231.933 206.077 232.285 206.596 232.769 206.983C233.253 207.37 233.851 207.564 234.563 207.564ZM237.975 207.169C237.602 207.743 237.104 208.2 236.482 208.538C235.86 208.877 235.165 209.047 234.397 209.047C232.897 209.047 231.722 208.514 230.871 207.449C230.021 206.378 229.596 204.922 229.596 203.083C229.596 201.327 230.028 199.91 230.892 198.831C231.756 197.746 232.914 197.203 234.366 197.203C235.12 197.203 235.829 197.369 236.492 197.701C237.163 198.026 237.664 198.465 237.996 199.018L237.965 198.033V193.024L239.676 192.92V208.818H238.203L237.975 207.169ZM249.248 199.547C248.744 198.939 248.049 198.634 247.164 198.634C246.279 198.634 245.556 198.949 244.996 199.578C244.436 200.2 244.108 201.054 244.011 202.14H250.016C250.016 201.013 249.76 200.148 249.248 199.547ZM247.506 209.057C245.854 209.057 244.55 208.531 243.596 207.481C242.649 206.43 242.175 204.992 242.175 203.166C242.175 201.403 242.635 199.976 243.555 198.883C244.474 197.784 245.684 197.224 247.184 197.203C248.595 197.203 249.711 197.687 250.534 198.655C251.364 199.616 251.779 200.902 251.779 202.513C251.779 202.596 251.775 202.748 251.768 202.969C251.768 203.191 251.768 203.35 251.768 203.446H243.959C243.98 204.739 244.312 205.749 244.955 206.475C245.605 207.194 246.476 207.553 247.568 207.553C248.771 207.553 249.978 207.235 251.188 206.599L251.457 207.999C250.303 208.704 248.986 209.057 247.506 209.057ZM257.244 209.026C256.138 209.026 255.353 208.728 254.89 208.134C254.434 207.539 254.205 206.506 254.205 205.033V193.024L255.927 192.92V204.349C255.927 204.819 255.93 205.196 255.937 205.479C255.951 205.762 255.979 206.042 256.02 206.319C256.062 206.589 256.117 206.793 256.186 206.931C256.255 207.069 256.356 207.197 256.487 207.315C256.618 207.425 256.774 207.501 256.954 207.543C257.14 207.577 257.368 207.595 257.638 207.595C257.859 207.595 258.295 207.553 258.945 207.47L259.038 208.849C258.326 208.967 257.728 209.026 257.244 209.026ZM263.487 209.057C262.713 209.057 261.997 208.974 261.34 208.808C260.691 208.642 260.162 208.428 259.754 208.165L259.972 206.703C261.126 207.318 262.26 207.626 263.373 207.626C265.06 207.626 265.928 207.031 265.976 205.842C265.976 205.337 265.796 204.94 265.437 204.649C265.077 204.359 264.372 204.034 263.321 203.674L262.461 203.374C261.465 203.042 260.753 202.631 260.324 202.14C259.902 201.649 259.688 201.037 259.681 200.304C259.681 199.412 260.037 198.672 260.749 198.085C261.468 197.497 262.45 197.203 263.695 197.203C264.981 197.203 266.152 197.452 267.21 197.95L266.702 199.277C265.63 198.835 264.628 198.614 263.695 198.614C262.969 198.614 262.398 198.759 261.983 199.049C261.576 199.333 261.372 199.734 261.372 200.252C261.372 200.695 261.52 201.033 261.818 201.268C262.115 201.504 262.709 201.773 263.601 202.077C263.829 202.16 264.116 202.257 264.462 202.368C265.61 202.741 266.422 203.184 266.899 203.695C267.376 204.2 267.615 204.884 267.615 205.749C267.601 206.8 267.224 207.615 266.484 208.196C265.745 208.77 264.746 209.057 263.487 209.057ZM57.8778 235.657C58.7006 235.657 59.423 235.432 60.0453 234.983C60.6744 234.526 61.0789 233.915 61.2587 233.147V231.229C61.2241 231.229 61.0132 231.246 60.626 231.28C60.2458 231.315 59.9969 231.336 59.8794 231.343C58.3791 231.474 57.3316 231.719 56.737 232.079C56.1494 232.438 55.8555 233.016 55.8555 233.811C55.8555 234.419 56.0353 234.879 56.3948 235.19C56.7543 235.501 57.2487 235.657 57.8778 235.657ZM61.6424 236.818C61.5387 236.376 61.4384 235.899 61.3416 235.387C60.7125 236.016 60.1213 236.452 59.5682 236.694C59.0151 236.936 58.3652 237.057 57.6185 237.057C56.5538 237.057 55.6965 236.78 55.0466 236.227C54.4036 235.667 54.0821 234.865 54.0821 233.821C54.0821 232.66 54.5212 231.799 55.3992 231.239C56.2842 230.679 57.5563 230.33 59.2156 230.191C59.4438 230.171 59.786 230.143 60.2423 230.109C60.7056 230.067 61.0512 230.036 61.2794 230.015V229.009C61.2794 228.207 61.0927 227.613 60.7194 227.225C60.346 226.838 59.7584 226.645 58.9564 226.645C57.8363 226.645 56.7059 226.921 55.5651 227.474C55.5306 227.391 55.4407 227.153 55.2955 226.759C55.1503 226.358 55.0743 226.15 55.0674 226.137C55.5721 225.853 56.1701 225.628 56.8615 225.462C57.5598 225.29 58.2684 225.203 58.9875 225.203C60.4048 225.203 61.4246 225.514 62.0468 226.137C62.676 226.752 62.9906 227.803 62.9906 229.289V236.818H61.6424ZM71.0797 225.338C71.3908 225.338 71.6743 225.359 71.9301 225.4L71.8679 226.997C71.5498 226.942 71.2733 226.914 71.0382 226.914C70.0703 226.914 69.2821 227.253 68.6737 227.931C68.0722 228.601 67.7715 229.434 67.7715 230.43V236.818H66.0395C66.0326 229.835 66.0292 226.043 66.0292 225.442H67.4707L67.6366 227.485C68.0307 226.842 68.532 226.323 69.1404 225.929C69.7488 225.535 70.3952 225.338 71.0797 225.338ZM80.0607 227.547C79.556 226.939 78.8612 226.634 77.9762 226.634C77.0913 226.634 76.3688 226.949 75.8087 227.578C75.2487 228.2 74.9203 229.054 74.8235 230.14H80.8282C80.8282 229.013 80.5723 228.148 80.0607 227.547ZM78.3184 237.057C76.6661 237.057 75.3628 236.531 74.4087 235.481C73.4615 234.43 72.9879 232.992 72.9879 231.166C72.9879 229.403 73.4477 227.976 74.3672 226.883C75.2867 225.784 76.4967 225.224 77.997 225.203C79.4074 225.203 80.5239 225.687 81.3467 226.655C82.1763 227.616 82.5912 228.902 82.5912 230.513C82.5912 230.596 82.5877 230.748 82.5808 230.969C82.5808 231.191 82.5808 231.35 82.5808 231.446H74.7717C74.7924 232.739 75.1243 233.749 75.7673 234.475C76.4172 235.194 77.2883 235.553 78.3807 235.553C79.5837 235.553 80.7901 235.235 82 234.599L82.2697 235.999C81.1151 236.704 79.798 237.057 78.3184 237.057ZM89.9129 233.023V225.442H91.6552V233.043C91.6552 233.541 91.7243 233.963 91.8626 234.309C92.0078 234.654 92.2117 234.924 92.4744 235.118C92.7441 235.304 93.0448 235.439 93.3767 235.522C93.7155 235.605 94.1026 235.646 94.5382 235.646C95.437 235.646 96.1353 235.449 96.6331 235.055C97.1378 234.661 97.3902 233.991 97.3902 233.043V225.442H99.1324V233.023C99.1324 233.603 99.0495 234.125 98.8835 234.589C98.7176 235.052 98.4929 235.439 98.2094 235.75C97.9329 236.054 97.5976 236.307 97.2035 236.507C96.8094 236.708 96.3911 236.853 95.9486 236.943C95.5131 237.033 95.0429 237.078 94.5382 237.078C94.0404 237.078 93.5703 237.033 93.1278 236.943C92.6853 236.853 92.2636 236.708 91.8626 236.507C91.4685 236.3 91.1263 236.044 90.8359 235.74C90.5524 235.429 90.3277 235.042 90.1618 234.578C89.9959 234.115 89.9129 233.597 89.9129 233.023ZM106.89 226.645C105.79 226.645 104.947 227.025 104.359 227.785C103.779 228.539 103.488 229.649 103.488 231.114C103.488 234.115 104.619 235.615 106.879 235.615C107.439 235.615 107.93 235.501 108.352 235.273C108.781 235.038 109.116 234.713 109.358 234.298C109.607 233.877 109.79 233.403 109.908 232.877C110.032 232.352 110.094 231.768 110.094 231.125C110.094 230.254 109.991 229.493 109.783 228.843C109.583 228.193 109.237 227.664 108.746 227.257C108.255 226.849 107.636 226.645 106.89 226.645ZM107.066 225.203C108.075 225.203 108.947 225.459 109.679 225.971C110.412 226.482 110.962 227.177 111.328 228.055C111.695 228.933 111.878 229.939 111.878 231.073C111.878 232.248 111.695 233.282 111.328 234.174C110.969 235.066 110.419 235.771 109.679 236.289C108.947 236.801 108.069 237.057 107.045 237.057C106.292 237.057 105.604 236.894 104.982 236.569C104.359 236.245 103.841 235.802 103.426 235.242L103.25 236.818H101.767V221.024L103.498 220.92V224.685C103.498 225.611 103.485 226.406 103.457 227.07C103.858 226.496 104.377 226.043 105.013 225.711C105.656 225.373 106.34 225.203 107.066 225.203ZM116.369 225.442V236.818H114.626V225.442H116.369ZM116.369 221.304V223.357H114.626V221.304H116.369ZM123.877 237.057C122.888 237.057 122.031 236.801 121.305 236.289C120.586 235.778 120.047 235.086 119.687 234.215C119.328 233.344 119.148 232.342 119.148 231.208C119.148 230.032 119.328 228.999 119.687 228.107C120.047 227.208 120.593 226.5 121.326 225.981C122.059 225.462 122.937 225.203 123.96 225.203C125.377 225.203 126.57 225.819 127.538 227.049L127.662 225.442H129.197V241.651L127.465 241.755V236.704C127.465 236.2 127.482 235.688 127.517 235.169C127.13 235.75 126.622 236.21 125.993 236.549C125.363 236.887 124.658 237.057 123.877 237.057ZM124.105 235.564C125.253 235.564 126.096 235.204 126.636 234.485C127.182 233.766 127.462 232.715 127.476 231.332C127.476 229.804 127.209 228.65 126.677 227.868C126.145 227.087 125.284 226.697 124.095 226.697C123.376 226.697 122.771 226.904 122.28 227.319C121.796 227.727 121.45 228.256 121.243 228.906C121.035 229.549 120.932 230.295 120.932 231.146C120.932 231.789 120.99 232.373 121.108 232.898C121.232 233.417 121.419 233.88 121.668 234.288C121.917 234.689 122.245 235.003 122.653 235.232C123.068 235.453 123.552 235.564 124.105 235.564ZM131.81 233.023V225.442H133.553V233.043C133.553 233.541 133.622 233.963 133.76 234.309C133.905 234.654 134.109 234.924 134.372 235.118C134.642 235.304 134.942 235.439 135.274 235.522C135.613 235.605 136 235.646 136.436 235.646C137.335 235.646 138.033 235.449 138.531 235.055C139.035 234.661 139.288 233.991 139.288 233.043V225.442H141.03V233.023C141.03 233.603 140.947 234.125 140.781 234.589C140.615 235.052 140.391 235.439 140.107 235.75C139.83 236.054 139.495 236.307 139.101 236.507C138.707 236.708 138.289 236.853 137.846 236.943C137.411 237.033 136.941 237.078 136.436 237.078C135.938 237.078 135.468 237.033 135.025 236.943C134.583 236.853 134.161 236.708 133.76 236.507C133.366 236.3 133.024 236.044 132.733 235.74C132.45 235.429 132.225 235.042 132.059 234.578C131.893 234.115 131.81 233.597 131.81 233.023ZM145.655 225.442V236.818H143.913V225.442H145.655ZM145.655 221.304V223.357H143.913V221.304H145.655ZM152.552 237.026C151.432 237.026 150.637 236.753 150.167 236.206C149.696 235.66 149.448 234.779 149.42 233.562V226.728H147.73L147.802 225.587L149.41 225.442L150.001 222.839L151.141 222.797V225.442H154.305V226.728H151.141V233.251C151.141 234.115 151.273 234.723 151.536 235.076C151.798 235.429 152.248 235.605 152.884 235.605C153.112 235.605 153.606 235.55 154.367 235.439L154.439 236.808C153.617 236.953 152.987 237.026 152.552 237.026ZM157.426 231.156C157.426 232.504 157.723 233.586 158.318 234.402C158.919 235.211 159.794 235.615 160.942 235.615C162.076 235.615 162.929 235.211 163.503 234.402C164.084 233.593 164.374 232.504 164.374 231.135C164.374 229.746 164.088 228.653 163.514 227.858C162.947 227.056 162.079 226.655 160.911 226.655C159.777 226.655 158.913 227.063 158.318 227.879C157.723 228.695 157.426 229.787 157.426 231.156ZM166.169 231.125C166.169 232.888 165.698 234.319 164.758 235.418C163.818 236.511 162.518 237.057 160.859 237.057C159.262 237.057 157.99 236.504 157.042 235.398C156.102 234.291 155.632 232.871 155.632 231.135C155.632 229.365 156.106 227.934 157.053 226.842C158 225.749 159.3 225.203 160.952 225.203C162.577 225.203 163.852 225.753 164.779 226.852C165.705 227.945 166.169 229.369 166.169 231.125ZM168.232 233.023V225.442H169.975V233.043C169.975 233.541 170.044 233.963 170.182 234.309C170.327 234.654 170.531 234.924 170.794 235.118C171.064 235.304 171.364 235.439 171.696 235.522C172.035 235.605 172.422 235.646 172.858 235.646C173.756 235.646 174.455 235.449 174.953 235.055C175.457 234.661 175.71 233.991 175.71 233.043V225.442H177.452V233.023C177.452 233.603 177.369 234.125 177.203 234.589C177.037 235.052 176.812 235.439 176.529 235.75C176.252 236.054 175.917 236.307 175.523 236.507C175.129 236.708 174.711 236.853 174.268 236.943C173.833 237.033 173.362 237.078 172.858 237.078C172.36 237.078 171.89 237.033 171.447 236.943C171.005 236.853 170.583 236.708 170.182 236.507C169.788 236.3 169.446 236.044 169.155 235.74C168.872 235.429 168.647 235.042 168.481 234.578C168.315 234.115 168.232 233.597 168.232 233.023ZM183.425 237.057C182.651 237.057 181.936 236.974 181.279 236.808C180.629 236.642 180.1 236.428 179.692 236.165L179.91 234.703C181.064 235.318 182.198 235.626 183.311 235.626C184.998 235.626 185.866 235.031 185.914 233.842C185.914 233.337 185.735 232.94 185.375 232.649C185.016 232.359 184.31 232.034 183.26 231.674L182.399 231.374C181.403 231.042 180.691 230.631 180.262 230.14C179.841 229.649 179.626 229.037 179.619 228.304C179.619 227.412 179.975 226.672 180.688 226.085C181.407 225.497 182.388 225.203 183.633 225.203C184.919 225.203 186.091 225.452 187.149 225.95L186.64 227.277C185.569 226.835 184.566 226.614 183.633 226.614C182.907 226.614 182.337 226.759 181.922 227.049C181.514 227.333 181.31 227.734 181.31 228.252C181.31 228.695 181.458 229.033 181.756 229.268C182.053 229.504 182.648 229.773 183.54 230.077C183.768 230.16 184.055 230.257 184.4 230.368C185.548 230.741 186.36 231.184 186.837 231.695C187.314 232.2 187.553 232.884 187.553 233.749C187.539 234.8 187.162 235.615 186.423 236.196C185.683 236.77 184.684 237.057 183.425 237.057ZM192.987 237.026C191.881 237.026 191.096 236.728 190.633 236.134C190.177 235.539 189.949 234.506 189.949 233.033V221.024L191.67 220.92V232.349C191.67 232.819 191.674 233.196 191.681 233.479C191.694 233.762 191.722 234.042 191.763 234.319C191.805 234.589 191.86 234.793 191.929 234.931C191.999 235.069 192.099 235.197 192.23 235.315C192.362 235.425 192.517 235.501 192.697 235.543C192.884 235.577 193.112 235.595 193.381 235.595C193.603 235.595 194.038 235.553 194.688 235.47L194.781 236.849C194.069 236.967 193.471 237.026 192.987 237.026ZM194.387 225.442H196.223L199.811 234.91L203.005 225.442H204.841C201.771 233.89 200.184 238.246 200.081 238.509C199.604 239.705 199.026 240.579 198.349 241.133C197.671 241.693 196.779 241.973 195.673 241.973C195.341 241.973 194.992 241.945 194.626 241.89L194.522 240.417C194.909 240.445 195.2 240.458 195.393 240.458C196.174 240.458 196.766 240.313 197.167 240.023C197.575 239.739 197.937 239.204 198.256 238.415C198.539 237.689 198.75 237.129 198.888 236.735L194.387 225.442ZM211.354 233.023V225.442H213.096V233.043C213.096 233.541 213.165 233.963 213.303 234.309C213.449 234.654 213.653 234.924 213.915 235.118C214.185 235.304 214.486 235.439 214.818 235.522C215.156 235.605 215.543 235.646 215.979 235.646C216.878 235.646 217.576 235.449 218.074 235.055C218.579 234.661 218.831 233.991 218.831 233.043V225.442H220.573V233.023C220.573 233.603 220.49 234.125 220.324 234.589C220.158 235.052 219.934 235.439 219.65 235.75C219.374 236.054 219.038 236.307 218.644 236.507C218.25 236.708 217.832 236.853 217.389 236.943C216.954 237.033 216.484 237.078 215.979 237.078C215.481 237.078 215.011 237.033 214.569 236.943C214.126 236.853 213.704 236.708 213.303 236.507C212.909 236.3 212.567 236.044 212.277 235.74C211.993 235.429 211.769 235.042 211.603 234.578C211.437 234.115 211.354 233.597 211.354 233.023ZM226.547 237.057C225.772 237.057 225.057 236.974 224.4 236.808C223.75 236.642 223.221 236.428 222.813 236.165L223.031 234.703C224.186 235.318 225.32 235.626 226.433 235.626C228.12 235.626 228.987 235.031 229.036 233.842C229.036 233.337 228.856 232.94 228.496 232.649C228.137 232.359 227.432 232.034 226.381 231.674L225.52 231.374C224.524 231.042 223.812 230.631 223.384 230.14C222.962 229.649 222.748 229.037 222.741 228.304C222.741 227.412 223.097 226.672 223.809 226.085C224.528 225.497 225.51 225.203 226.754 225.203C228.04 225.203 229.212 225.452 230.27 225.95L229.762 227.277C228.69 226.835 227.688 226.614 226.754 226.614C226.028 226.614 225.458 226.759 225.043 227.049C224.635 227.333 224.431 227.734 224.431 228.252C224.431 228.695 224.58 229.033 224.877 229.268C225.174 229.504 225.769 229.773 226.661 230.077C226.889 230.16 227.176 230.257 227.522 230.368C228.669 230.741 229.482 231.184 229.959 231.695C230.436 232.2 230.674 232.884 230.674 233.749C230.66 234.8 230.284 235.615 229.544 236.196C228.804 236.77 227.805 237.057 226.547 237.057ZM239.603 227.547C239.099 226.939 238.404 226.634 237.519 226.634C236.634 226.634 235.912 226.949 235.351 227.578C234.791 228.2 234.463 229.054 234.366 230.14H240.371C240.371 229.013 240.115 228.148 239.603 227.547ZM237.861 237.057C236.209 237.057 234.906 236.531 233.951 235.481C233.004 234.43 232.531 232.992 232.531 231.166C232.531 229.403 232.99 227.976 233.91 226.883C234.83 225.784 236.039 225.224 237.54 225.203C238.95 225.203 240.067 225.687 240.889 226.655C241.719 227.616 242.134 228.902 242.134 230.513C242.134 230.596 242.13 230.748 242.124 230.969C242.124 231.191 242.124 231.35 242.124 231.446H234.314C234.335 232.739 234.667 233.749 235.31 234.475C235.96 235.194 236.831 235.553 237.923 235.553C239.126 235.553 240.333 235.235 241.543 234.599L241.812 235.999C240.658 236.704 239.341 237.057 237.861 237.057ZM248.979 235.564C250.119 235.564 250.966 235.197 251.519 234.464C252.079 233.731 252.359 232.684 252.359 231.322C252.359 229.787 252.09 228.632 251.551 227.858C251.018 227.077 250.154 226.686 248.958 226.686C248.425 226.686 247.955 226.8 247.547 227.028C247.14 227.257 246.811 227.575 246.562 227.983C246.313 228.39 246.123 228.861 245.992 229.393C245.867 229.918 245.805 230.496 245.805 231.125C245.805 232.01 245.912 232.777 246.127 233.427C246.348 234.077 246.7 234.596 247.184 234.983C247.668 235.37 248.266 235.564 248.979 235.564ZM252.391 235.169C252.017 235.743 251.519 236.2 250.897 236.538C250.275 236.877 249.58 237.047 248.813 237.047C247.312 237.047 246.137 236.514 245.287 235.449C244.436 234.378 244.011 232.922 244.011 231.083C244.011 229.327 244.443 227.91 245.307 226.831C246.172 225.746 247.33 225.203 248.782 225.203C249.535 225.203 250.244 225.369 250.908 225.701C251.578 226.026 252.079 226.465 252.411 227.018L252.38 226.033V221.024L254.091 220.92V236.818H252.619L252.391 235.169ZM38.9928 263.657C39.8155 263.657 40.538 263.432 41.1603 262.983C41.7894 262.526 42.1939 261.915 42.3736 261.147V259.229C42.3391 259.229 42.1282 259.246 41.741 259.28C41.3608 259.315 41.1119 259.336 40.9943 259.343C39.494 259.474 38.4466 259.719 37.852 260.079C37.2643 260.438 36.9705 261.016 36.9705 261.811C36.9705 262.419 37.1503 262.879 37.5098 263.19C37.8693 263.501 38.3636 263.657 38.9928 263.657ZM42.7573 264.818C42.6536 264.376 42.5534 263.899 42.4566 263.387C41.8274 264.016 41.2363 264.452 40.6832 264.694C40.1301 264.936 39.4802 265.057 38.7335 265.057C37.6688 265.057 36.8115 264.78 36.1616 264.227C35.5186 263.667 35.1971 262.865 35.1971 261.821C35.1971 260.66 35.6361 259.799 36.5142 259.239C37.3991 258.679 38.6713 258.33 40.3306 258.191C40.5588 258.171 40.901 258.143 41.3573 258.109C41.8205 258.067 42.1662 258.036 42.3944 258.015V257.009C42.3944 256.207 42.2077 255.613 41.8343 255.225C41.461 254.838 40.8733 254.645 40.0713 254.645C38.9513 254.645 37.8209 254.921 36.6801 255.474C36.6455 255.391 36.5557 255.153 36.4105 254.759C36.2653 254.358 36.1892 254.15 36.1823 254.137C36.687 253.853 37.2851 253.628 37.9765 253.462C38.6747 253.29 39.3834 253.203 40.1024 253.203C41.5198 253.203 42.5396 253.514 43.1618 254.137C43.791 254.752 44.1055 255.803 44.1055 257.289V264.818H42.7573ZM47.0923 264.818V253.442H48.5442L48.762 255.07C49.2114 254.51 49.7714 254.06 50.442 253.722C51.1196 253.376 51.849 253.203 52.6302 253.203C53.9439 253.203 54.9153 253.573 55.5444 254.313C56.1736 255.046 56.4881 256.176 56.4881 257.704V264.818H54.7562C54.7562 260.255 54.7528 257.811 54.7459 257.486C54.7182 256.518 54.5212 255.81 54.1547 255.36C53.7952 254.911 53.1903 254.686 52.3399 254.686C51.448 254.686 50.7047 254.901 50.1102 255.329C49.5156 255.758 49.1284 256.314 48.9486 256.999C48.8795 257.462 48.8449 257.994 48.8449 258.596V264.818H47.0923ZM63.8098 263.564C64.9506 263.564 65.7976 263.197 66.3507 262.464C66.9107 261.731 67.1907 260.684 67.1907 259.322C67.1907 257.787 66.9211 256.632 66.3818 255.858C65.8494 255.077 64.9852 254.686 63.7891 254.686C63.2567 254.686 62.7866 254.8 62.3787 255.028C61.9708 255.257 61.6424 255.575 61.3935 255.983C61.1446 256.39 60.9545 256.861 60.8231 257.393C60.6986 257.918 60.6364 258.496 60.6364 259.125C60.6364 260.01 60.7436 260.777 60.9579 261.427C61.1792 262.077 61.5318 262.596 62.0157 262.983C62.4997 263.37 63.0977 263.564 63.8098 263.564ZM67.2218 263.169C66.8485 263.743 66.3507 264.2 65.7284 264.538C65.1062 264.877 64.4114 265.047 63.6439 265.047C62.1436 265.047 60.9683 264.514 60.1179 263.449C59.2675 262.378 58.8423 260.922 58.8423 259.083C58.8423 257.327 59.2744 255.91 60.1386 254.831C61.0028 253.746 62.1609 253.203 63.6128 253.203C64.3664 253.203 65.0751 253.369 65.7388 253.701C66.4094 254.026 66.9107 254.465 67.2425 255.018L67.2114 254.033V249.024L68.9226 248.92V264.818H67.45L67.2218 263.169ZM77.2503 264.818V253.442H78.7022L78.92 255.07C79.3693 254.51 79.9294 254.06 80.6 253.722C81.2776 253.376 82.007 253.203 82.7882 253.203C84.1018 253.203 85.0732 253.573 85.7024 254.313C86.3315 255.046 86.6461 256.176 86.6461 257.704V264.818H84.9142C84.9142 260.255 84.9108 257.811 84.9038 257.486C84.8762 256.518 84.6791 255.81 84.3127 255.36C83.9532 254.911 83.3482 254.686 82.4978 254.686C81.606 254.686 80.8627 254.901 80.2681 255.329C79.6736 255.758 79.2864 256.314 79.1066 256.999C79.0375 257.462 79.0029 257.994 79.0029 258.596V264.818H77.2503ZM90.7944 259.156C90.7944 260.504 91.0917 261.586 91.6863 262.402C92.2878 263.211 93.1624 263.615 94.3101 263.615C95.4439 263.615 96.2978 263.211 96.8716 262.402C97.4524 261.593 97.7428 260.504 97.7428 259.135C97.7428 257.746 97.4558 256.653 96.882 255.858C96.3151 255.056 95.4474 254.655 94.2789 254.655C93.1451 254.655 92.2809 255.063 91.6863 255.879C91.0917 256.695 90.7944 257.787 90.7944 259.156ZM99.5369 259.125C99.5369 260.888 99.0668 262.319 98.1265 263.418C97.1862 264.511 95.8864 265.057 94.2271 265.057C92.63 265.057 91.3579 264.504 90.4107 263.398C89.4704 262.291 89.0003 260.871 89.0003 259.135C89.0003 257.365 89.4739 255.934 90.4211 254.842C91.3682 253.749 92.668 253.203 94.3204 253.203C95.9452 253.203 97.2208 253.753 98.1472 254.852C99.0737 255.945 99.5369 257.369 99.5369 259.125ZM105.624 265.026C104.504 265.026 103.709 264.753 103.239 264.206C102.769 263.66 102.52 262.779 102.493 261.562V254.728H100.802L100.875 253.587L102.482 253.442L103.073 250.839L104.214 250.797V253.442H107.377V254.728H104.214V261.251C104.214 262.115 104.345 262.723 104.608 263.076C104.871 263.429 105.32 263.605 105.956 263.605C106.185 263.605 106.679 263.55 107.439 263.439L107.512 264.808C106.689 264.953 106.06 265.026 105.624 265.026ZM118.992 250.133C118.273 250.133 117.779 250.341 117.509 250.756C117.247 251.171 117.115 251.89 117.115 252.913V253.442H119.853V254.728H117.115V264.818H115.383V254.728H113.537L113.683 253.587L115.383 253.442V252.934C115.397 251.468 115.67 250.407 116.203 249.75C116.742 249.086 117.61 248.754 118.806 248.754C119.269 248.754 119.836 248.806 120.506 248.91L120.392 250.268C119.777 250.178 119.31 250.133 118.992 250.133ZM121.222 261.023V253.442H122.964V261.043C122.964 261.541 123.033 261.963 123.172 262.309C123.317 262.654 123.521 262.924 123.784 263.118C124.053 263.304 124.354 263.439 124.686 263.522C125.025 263.605 125.412 263.646 125.847 263.646C126.746 263.646 127.444 263.449 127.942 263.055C128.447 262.661 128.699 261.991 128.699 261.043V253.442H130.442V261.023C130.442 261.603 130.359 262.125 130.193 262.589C130.027 263.052 129.802 263.439 129.519 263.75C129.242 264.054 128.907 264.307 128.513 264.507C128.119 264.708 127.7 264.853 127.258 264.943C126.822 265.033 126.352 265.078 125.847 265.078C125.35 265.078 124.879 265.033 124.437 264.943C123.994 264.853 123.573 264.708 123.172 264.507C122.778 264.3 122.435 264.044 122.145 263.74C121.862 263.429 121.637 263.042 121.471 262.578C121.305 262.115 121.222 261.597 121.222 261.023ZM136.083 265.026C134.977 265.026 134.192 264.728 133.729 264.134C133.273 263.539 133.045 262.506 133.045 261.033V249.024L134.766 248.92V260.349C134.766 260.819 134.77 261.196 134.777 261.479C134.79 261.762 134.818 262.042 134.859 262.319C134.901 262.589 134.956 262.793 135.025 262.931C135.095 263.069 135.195 263.197 135.326 263.315C135.458 263.425 135.613 263.501 135.793 263.543C135.98 263.577 136.208 263.595 136.477 263.595C136.699 263.595 137.134 263.553 137.784 263.47L137.877 264.849C137.165 264.967 136.567 265.026 136.083 265.026ZM141.995 265.026C140.888 265.026 140.104 264.728 139.64 264.134C139.184 263.539 138.956 262.506 138.956 261.033V249.024L140.677 248.92V260.349C140.677 260.819 140.681 261.196 140.688 261.479C140.702 261.762 140.729 262.042 140.771 262.319C140.812 262.589 140.868 262.793 140.937 262.931C141.006 263.069 141.106 263.197 141.237 263.315C141.369 263.425 141.524 263.501 141.704 263.543C141.891 263.577 142.119 263.595 142.389 263.595C142.61 263.595 143.045 263.553 143.695 263.47L143.789 264.849C143.077 264.967 142.478 265.026 141.995 265.026ZM143.395 253.442H145.23L148.818 262.91L152.013 253.442H153.848C150.778 261.89 149.192 266.246 149.088 266.509C148.611 267.705 148.034 268.579 147.356 269.133C146.679 269.693 145.787 269.973 144.681 269.973C144.349 269.973 144 269.945 143.633 269.89L143.529 268.417C143.917 268.445 144.207 268.458 144.401 268.458C145.182 268.458 145.773 268.313 146.174 268.023C146.582 267.739 146.945 267.204 147.263 266.415C147.546 265.689 147.757 265.129 147.895 264.735L143.395 253.442ZM160.361 261.023V253.442H162.103V261.043C162.103 261.541 162.172 261.963 162.311 262.309C162.456 262.654 162.66 262.924 162.923 263.118C163.192 263.304 163.493 263.439 163.825 263.522C164.164 263.605 164.551 263.646 164.986 263.646C165.885 263.646 166.583 263.449 167.081 263.055C167.586 262.661 167.838 261.991 167.838 261.043V253.442H169.581V261.023C169.581 261.603 169.498 262.125 169.332 262.589C169.166 263.052 168.941 263.439 168.658 263.75C168.381 264.054 168.046 264.307 167.652 264.507C167.258 264.708 166.839 264.853 166.397 264.943C165.961 265.033 165.491 265.078 164.986 265.078C164.489 265.078 164.018 265.033 163.576 264.943C163.133 264.853 162.712 264.708 162.311 264.507C161.917 264.3 161.574 264.044 161.284 263.74C161.001 263.429 160.776 263.042 160.61 262.578C160.444 262.115 160.361 261.597 160.361 261.023ZM172.163 264.818V253.442H173.615L173.833 255.07C174.282 254.51 174.842 254.06 175.513 253.722C176.19 253.376 176.92 253.203 177.701 253.203C179.014 253.203 179.986 253.573 180.615 254.313C181.244 255.046 181.559 256.176 181.559 257.704V264.818H179.827C179.827 260.255 179.823 257.811 179.816 257.486C179.789 256.518 179.592 255.81 179.225 255.36C178.866 254.911 178.261 254.686 177.41 254.686C176.519 254.686 175.775 254.901 175.181 255.329C174.586 255.758 174.199 256.314 174.019 256.999C173.95 257.462 173.916 257.994 173.916 258.596V264.818H172.163ZM188.88 263.564C190.021 263.564 190.868 263.197 191.421 262.464C191.981 261.731 192.261 260.684 192.261 259.322C192.261 257.787 191.992 256.632 191.452 255.858C190.92 255.077 190.056 254.686 188.86 254.686C188.327 254.686 187.857 254.8 187.449 255.028C187.041 255.257 186.713 255.575 186.464 255.983C186.215 256.39 186.025 256.861 185.894 257.393C185.769 257.918 185.707 258.496 185.707 259.125C185.707 260.01 185.814 260.777 186.028 261.427C186.25 262.077 186.602 262.596 187.086 262.983C187.57 263.37 188.168 263.564 188.88 263.564ZM192.292 263.169C191.919 263.743 191.421 264.2 190.799 264.538C190.177 264.877 189.482 265.047 188.714 265.047C187.214 265.047 186.039 264.514 185.188 263.449C184.338 262.378 183.913 260.922 183.913 259.083C183.913 257.327 184.345 255.91 185.209 254.831C186.073 253.746 187.231 253.203 188.683 253.203C189.437 253.203 190.146 253.369 190.809 253.701C191.48 254.026 191.981 254.465 192.313 255.018L192.282 254.033V249.024L193.993 248.92V264.818H192.521L192.292 263.169ZM203.565 255.547C203.061 254.939 202.366 254.634 201.481 254.634C200.596 254.634 199.873 254.949 199.313 255.578C198.753 256.2 198.425 257.054 198.328 258.14H204.333C204.333 257.013 204.077 256.148 203.565 255.547ZM201.823 265.057C200.171 265.057 198.867 264.531 197.913 263.481C196.966 262.43 196.493 260.992 196.493 259.166C196.493 257.403 196.952 255.976 197.872 254.883C198.791 253.784 200.001 253.224 201.502 253.203C202.912 253.203 204.029 253.687 204.851 254.655C205.681 255.616 206.096 256.902 206.096 258.513C206.096 258.596 206.092 258.748 206.085 258.969C206.085 259.191 206.085 259.35 206.085 259.446H198.276C198.297 260.739 198.629 261.749 199.272 262.475C199.922 263.194 200.793 263.553 201.885 263.553C203.088 263.553 204.295 263.235 205.505 262.599L205.774 263.999C204.62 264.704 203.303 265.057 201.823 265.057ZM213.604 253.338C213.915 253.338 214.199 253.359 214.455 253.4L214.392 254.997C214.074 254.942 213.798 254.914 213.563 254.914C212.595 254.914 211.807 255.253 211.198 255.931C210.597 256.601 210.296 257.434 210.296 258.43V264.818H208.564C208.557 257.835 208.554 254.043 208.554 253.442H209.995L210.161 255.485C210.555 254.842 211.056 254.323 211.665 253.929C212.273 253.535 212.92 253.338 213.604 253.338ZM219.63 265.057C218.855 265.057 218.14 264.974 217.483 264.808C216.833 264.642 216.304 264.428 215.896 264.165L216.114 262.703C217.268 263.318 218.402 263.626 219.515 263.626C221.202 263.626 222.07 263.031 222.119 261.842C222.119 261.337 221.939 260.94 221.579 260.649C221.22 260.359 220.515 260.034 219.464 259.674L218.603 259.374C217.607 259.042 216.895 258.631 216.466 258.14C216.045 257.649 215.83 257.037 215.823 256.304C215.823 255.412 216.18 254.672 216.892 254.085C217.611 253.497 218.592 253.203 219.837 253.203C221.123 253.203 222.295 253.452 223.353 253.95L222.844 255.277C221.773 254.835 220.77 254.614 219.837 254.614C219.111 254.614 218.541 254.759 218.126 255.049C217.718 255.333 217.514 255.734 217.514 256.252C217.514 256.695 217.663 257.033 217.96 257.268C218.257 257.504 218.852 257.773 219.744 258.077C219.972 258.16 220.259 258.257 220.604 258.368C221.752 258.741 222.564 259.184 223.041 259.695C223.519 260.2 223.757 260.884 223.757 261.749C223.743 262.8 223.366 263.615 222.627 264.196C221.887 264.77 220.888 265.057 219.63 265.057ZM229.762 265.026C228.642 265.026 227.847 264.753 227.376 264.206C226.906 263.66 226.657 262.779 226.63 261.562V254.728H224.939L225.012 253.587L226.619 253.442L227.211 250.839L228.351 250.797V253.442H231.514V254.728H228.351V261.251C228.351 262.115 228.483 262.723 228.745 263.076C229.008 263.429 229.457 263.605 230.094 263.605C230.322 263.605 230.816 263.55 231.577 263.439L231.649 264.808C230.826 264.953 230.197 265.026 229.762 265.026ZM234.636 259.156C234.636 260.504 234.933 261.586 235.528 262.402C236.129 263.211 237.004 263.615 238.152 263.615C239.285 263.615 240.139 263.211 240.713 262.402C241.294 261.593 241.584 260.504 241.584 259.135C241.584 257.746 241.297 256.653 240.724 255.858C240.157 255.056 239.289 254.655 238.12 254.655C236.987 254.655 236.122 255.063 235.528 255.879C234.933 256.695 234.636 257.787 234.636 259.156ZM243.378 259.125C243.378 260.888 242.908 262.319 241.968 263.418C241.028 264.511 239.728 265.057 238.069 265.057C236.472 265.057 235.199 264.504 234.252 263.398C233.312 262.291 232.842 260.871 232.842 259.135C232.842 257.365 233.315 255.934 234.263 254.842C235.21 253.749 236.51 253.203 238.162 253.203C239.787 253.203 241.062 253.753 241.989 254.852C242.915 255.945 243.378 257.369 243.378 259.125ZM247.102 259.156C247.102 260.504 247.399 261.586 247.993 262.402C248.595 263.211 249.469 263.615 250.617 263.615C251.751 263.615 252.605 263.211 253.179 262.402C253.759 261.593 254.05 260.504 254.05 259.135C254.05 257.746 253.763 256.653 253.189 255.858C252.622 255.056 251.754 254.655 250.586 254.655C249.452 254.655 248.588 255.063 247.993 255.879C247.399 256.695 247.102 257.787 247.102 259.156ZM255.844 259.125C255.844 260.888 255.374 262.319 254.434 263.418C253.493 264.511 252.194 265.057 250.534 265.057C248.937 265.057 247.665 264.504 246.718 263.398C245.778 262.291 245.307 260.871 245.307 259.135C245.307 257.365 245.781 255.934 246.728 254.842C247.675 253.749 248.975 253.203 250.628 253.203C252.252 253.203 253.528 253.753 254.454 254.852C255.381 255.945 255.844 257.369 255.844 259.125ZM262.74 263.564C263.881 263.564 264.728 263.197 265.281 262.464C265.841 261.731 266.121 260.684 266.121 259.322C266.121 257.787 265.852 256.632 265.312 255.858C264.78 255.077 263.916 254.686 262.72 254.686C262.187 254.686 261.717 254.8 261.309 255.028C260.901 255.257 260.573 255.575 260.324 255.983C260.075 256.39 259.885 256.861 259.754 257.393C259.629 257.918 259.567 258.496 259.567 259.125C259.567 260.01 259.674 260.777 259.889 261.427C260.11 262.077 260.462 262.596 260.946 262.983C261.43 263.37 262.028 263.564 262.74 263.564ZM266.152 263.169C265.779 263.743 265.281 264.2 264.659 264.538C264.037 264.877 263.342 265.047 262.575 265.047C261.074 265.047 259.899 264.514 259.049 263.449C258.198 262.378 257.773 260.922 257.773 259.083C257.773 257.327 258.205 255.91 259.069 254.831C259.933 253.746 261.092 253.203 262.543 253.203C263.297 253.203 264.006 253.369 264.669 253.701C265.34 254.026 265.841 254.465 266.173 255.018L266.142 254.033V249.024L267.853 248.92V264.818H266.381L266.152 263.169ZM272.095 264.943C271.666 264.943 271.327 264.808 271.079 264.538C270.837 264.262 270.716 263.94 270.716 263.574C270.716 263.201 270.837 262.879 271.079 262.609C271.321 262.34 271.659 262.205 272.095 262.205C272.53 262.205 272.869 262.34 273.111 262.609C273.353 262.879 273.474 263.201 273.474 263.574C273.474 263.947 273.353 264.269 273.111 264.538C272.869 264.808 272.53 264.943 272.095 264.943Z" fill="#41516E"/>
<path d="M143.834 58.0109L143.835 58.0122C148.106 69.689 157.426 78.8712 169.249 83.0744L169.25 83.0749L176.744 85.7336L169.25 88.3923L169.249 88.3928C157.426 92.5962 148.105 101.779 143.835 113.455L143.834 113.456L141.104 120.936L138.374 113.456L138.373 113.455C134.102 101.778 124.782 92.5961 112.959 88.3928L112.958 88.3923L105.464 85.7336L112.958 83.0749L112.959 83.0744C124.782 78.871 134.102 69.6886 138.373 58.0122L138.374 58.0109L141.104 50.531L143.834 58.0109Z" fill="#E2EBFB" stroke="#586B8D" stroke-width="4.04556"/>
<path d="M186.821 29.0324L187.271 27.8042L187.721 29.0326L187.721 29.0331C189.989 35.2234 194.929 40.0932 201.195 42.3228C201.195 42.3228 201.195 42.3229 201.195 42.3229L202.348 42.7333L201.195 43.1437L201.194 43.1439C194.936 45.373 189.99 50.2362 187.721 56.4341L187.271 57.6624L186.821 56.434L186.821 56.4335C184.553 50.2431 179.613 45.3733 173.347 43.1437L172.194 42.7333L173.347 42.3228L173.348 42.3227C179.606 40.0935 184.552 35.2305 186.821 29.0326C186.821 29.0325 186.821 29.0325 186.821 29.0324Z" fill="#E2EBFB" stroke="#586B8D" stroke-width="4.04556"/>
<path d="M186.821 115.05L187.271 113.821L187.721 115.05L187.721 115.05C189.989 121.241 194.929 126.11 201.195 128.34C201.195 128.34 201.195 128.34 201.195 128.34L202.348 128.751L201.195 129.161L201.194 129.161C194.936 131.39 189.99 136.253 187.721 142.451L187.271 143.68L186.821 142.451L186.821 142.451C184.553 136.26 179.613 131.391 173.347 129.161L172.194 128.751L173.347 128.34L173.348 128.34C179.606 126.111 184.552 121.248 186.821 115.05C186.821 115.05 186.821 115.05 186.821 115.05Z" fill="#E2EBFB" stroke="#586B8D" stroke-width="4.04556"/>
</svg>
