<svg width="45" height="45" viewBox="0 0 45 45" fill="none" xmlns="http://www.w3.org/2000/svg">
<path d="M0 9.20455C0 4.12159 4.12159 0 9.20455 0H35.7955C40.8784 0 45 4.12159 45 9.20455V35.7955C45 40.8784 40.8784 45 35.7955 45H9.20455C4.12159 45 0 40.8784 0 35.7955V9.20455ZM6.97091 11.4361C6.24682 11.6755 6.24682 12.7002 6.97091 12.9375C8.64 13.4857 9.94909 14.7968 10.4993 16.4659C10.7386 17.19 11.7634 17.19 12.0007 16.4659C12.5489 14.7968 13.86 13.4877 15.5291 12.9375C16.2532 12.6982 16.2532 11.6734 15.5291 11.4361C13.86 10.888 12.5509 9.57682 12.0007 7.90773C11.7614 7.18364 10.7366 7.18364 10.4993 7.90773C9.94909 9.57886 8.64 10.888 6.97091 11.4361ZM29.9536 10.2089C29.6714 9.34977 28.4543 9.34977 28.172 10.2089L26.8507 14.2302C26.2002 16.2102 24.6457 17.7627 22.6677 18.4132L18.6464 19.7345C17.7873 20.0168 17.7873 21.2339 18.6464 21.5161L22.6677 22.8375C24.6477 23.488 26.2002 25.0425 26.8507 27.0205L28.172 31.0418C28.4543 31.9009 29.6714 31.9009 29.9536 31.0418L31.277 27.0205C31.9275 25.0405 33.48 23.488 35.46 22.8375L39.4814 21.5161C40.3405 21.2339 40.3405 20.0168 39.4814 19.7345L35.46 18.4111C33.48 17.7607 31.9275 16.2082 31.277 14.2282L29.9536 10.2089ZM15.8911 27.0839C15.6089 26.2248 14.3918 26.2248 14.1095 27.0839L13.948 27.5768C13.2975 29.5568 11.745 31.1093 9.765 31.7598L9.27205 31.9214C8.41295 32.2036 8.41295 33.4207 9.27205 33.703L9.765 33.8645C11.745 34.515 13.2975 36.0675 13.948 38.0475L14.1095 38.5405C14.3918 39.3995 15.6089 39.3995 15.8911 38.5405L16.0527 38.0475C16.7032 36.0675 18.2577 34.515 20.2357 33.8645L20.7286 33.703C21.5877 33.4207 21.5877 32.2036 20.7286 31.9214L20.2357 31.7598C18.2557 31.1093 16.7032 29.5548 16.0527 27.5768L15.8911 27.0839Z" fill="#8187F4"/>
</svg>
