<svg width="65" height="93" viewBox="0 0 65 93" fill="none" xmlns="http://www.w3.org/2000/svg">
<path d="M55.1168 30.1172C53.3017 30.1172 51.589 30.8153 50.3044 32.0999L39.7397 42.0596C39.2556 42.5157 38.7809 42.7205 38.1945 42.7205H26.8013C26.2242 42.7205 25.7309 42.5157 25.2562 42.0689L14.6821 32.0906C12.02 29.447 7.701 29.447 5.04818 32.1092C2.38604 34.7713 2.38604 39.0996 5.04818 41.7617C5.05748 41.771 5.06679 41.7804 5.06679 41.7804L19.6806 55.7798C20.0902 56.1801 20.2856 56.6548 20.2856 57.2784V85.3705C20.2856 89.5219 23.348 92.9008 27.1085 92.9008C29.2959 92.9008 31.2413 91.7652 32.4886 89.9873C33.7359 91.7559 35.6906 92.9008 37.878 92.9008C41.6385 92.9008 44.7009 89.5219 44.7009 85.3705V57.2784C44.7009 56.6548 44.8964 56.1801 45.306 55.7891L59.9198 41.7897C59.9291 41.7804 59.9384 41.771 59.9384 41.771C61.2229 40.4865 61.9303 38.7645 61.9303 36.9401C61.9303 35.1157 61.2229 33.403 59.9384 32.1185C58.6632 30.8247 56.9505 30.1172 55.1168 30.1172ZM57.9185 39.7139L43.3233 53.7134C42.346 54.6535 41.8247 55.8822 41.8247 57.2784V85.3705C41.8247 87.9395 40.0562 90.0245 37.878 90.0245C35.6999 90.0245 33.9314 87.9395 33.9314 85.3705C33.9314 85.296 33.9221 85.2215 33.9128 85.1471C33.9221 85.0726 33.9314 84.9981 33.9314 84.9237V75.6807C33.9314 74.8895 33.2891 74.2379 32.4886 74.2379C31.6974 74.2379 31.0459 74.8802 31.0459 75.6807V84.9237C31.0459 84.9981 31.0552 85.0726 31.0645 85.1471C31.0552 85.2215 31.0459 85.296 31.0459 85.3705C31.0459 87.9395 29.2773 90.0245 27.0992 90.0245C24.9211 90.0245 23.1525 87.9395 23.1525 85.3705V57.2784C23.1525 55.8822 22.6406 54.6535 21.6632 53.7134L7.06805 39.7139C5.54151 38.1688 5.54151 35.6742 7.07735 34.1384C8.6132 32.6025 11.1171 32.6025 12.6622 34.1384C12.6716 34.1477 12.6809 34.157 12.6902 34.1663L23.2829 44.1539C24.2974 45.1034 25.4796 45.5874 26.8013 45.5874H38.1945C39.507 45.5874 40.6891 45.1034 41.713 44.1539L52.3057 34.1663C52.315 34.157 52.3243 34.1477 52.3336 34.1384C53.069 33.3937 54.0649 32.9841 55.1168 32.9841C56.1686 32.9841 57.1645 33.3937 57.9092 34.1384C58.6539 34.8737 59.0541 35.8697 59.0634 36.9215C59.0634 37.9826 58.6538 38.9786 57.9185 39.7139ZM32.4979 40.9333C37.6546 40.9333 41.8526 36.2885 41.8526 30.5826C41.8526 24.8767 37.6546 20.232 32.4979 20.232C27.3412 20.232 23.1432 24.8767 23.1432 30.5826C23.1432 36.2885 27.3319 40.9333 32.4979 40.9333ZM32.4979 23.1082C36.0723 23.1082 38.9764 26.4591 38.9764 30.5826C38.9764 34.7062 36.0723 38.0571 32.4979 38.0571C28.9236 38.0571 26.0195 34.7062 26.0195 30.5826C26.0195 26.4591 28.9236 23.1082 32.4979 23.1082ZM10.149 26.8128L0.719881 21.3676C0.0310778 20.9673 -0.201626 20.0924 0.189317 19.4035C0.589568 18.7147 1.46453 18.482 2.15334 18.873L11.5825 24.3183C12.2713 24.7185 12.504 25.5935 12.1131 26.2823C11.8431 26.7477 11.3591 26.999 10.8658 26.999C10.6238 27.0083 10.3724 26.9432 10.149 26.8128ZM13.3138 7.7125C12.9136 7.0237 13.1556 6.14873 13.8444 5.74848C14.5332 5.34823 15.4082 5.59024 15.8084 6.27905L21.2537 15.7082C21.6539 16.397 21.4119 17.272 20.7231 17.6722C20.4997 17.8025 20.2484 17.8677 20.0064 17.8677C19.5131 17.8677 19.029 17.6071 18.7591 17.151L13.3138 7.7125ZM31.0552 13.074V2.19276C31.0552 1.40157 31.6974 0.75 32.4979 0.75C33.2891 0.75 33.9407 1.39226 33.9407 2.19276V13.0833C33.9407 13.8745 33.2984 14.5261 32.4979 14.5261C31.6974 14.5168 31.0552 13.8745 31.0552 13.074ZM43.7422 15.7082L49.1875 6.27905C49.5877 5.59024 50.4627 5.35754 51.1515 5.74848C51.8403 6.14873 52.073 7.0237 51.682 7.7125L46.2368 17.1417C45.9668 17.6071 45.4828 17.8584 44.9895 17.8584C44.7475 17.8584 44.4961 17.7932 44.2727 17.6629C43.5746 17.272 43.3419 16.397 43.7422 15.7082ZM64.276 21.3676L54.8468 26.8128C54.6234 26.9432 54.3721 27.0083 54.1301 27.0083C53.6368 27.0083 53.1527 26.7477 52.8828 26.2916C52.4825 25.6028 52.7246 24.7278 53.4134 24.3276L62.8425 18.8823C63.5313 18.482 64.4063 18.7241 64.8065 19.4129C65.2068 20.0923 64.9648 20.9766 64.276 21.3676Z" fill="#1A3E2F"/>
</svg>
