<svg width="377" height="254" viewBox="0 0 377 254" fill="none" xmlns="http://www.w3.org/2000/svg">
<g filter="url(#filter0_d_1189_882)">
<path d="M370.025 68.4414C367.208 85.0587 353.126 119.138 319.328 122.518C285.53 125.898 256.802 115.477 246.663 109.844C220.751 105.619 160.647 96.6627 127.525 94.6348C86.1226 92.0999 41.3403 89.5651 9.23232 104.774C7.54242 112.66 4.6696 133.164 6.69748 152.091C9.23232 175.75 13.4577 201.098 35.4263 219.687C57.3949 238.276 81.0535 242.501 97.9524 242.501C111.472 242.501 134.567 240.247 144.425 239.121" stroke="#E16B6B" stroke-width="8" stroke-linecap="round"/>
<path d="M166.738 19.4338C166.738 24.7043 165.158 29.456 162.629 32.8784C160.099 36.3009 156.645 38.3676 152.874 38.3676C149.103 38.3676 145.649 36.3009 143.119 32.8784C140.589 29.456 139.01 24.7043 139.01 19.4338C139.01 14.1633 140.589 9.4116 143.119 5.98922C145.649 2.56672 149.103 0.5 152.874 0.5C156.645 0.5 160.099 2.56672 162.629 5.98922C165.158 9.4116 166.738 14.1633 166.738 19.4338Z" fill="#E16B6B" stroke="#E16B6B"/>
</g>
<defs>
<filter id="filter0_d_1189_882" x="0" y="0" width="376.025" height="253.5" filterUnits="userSpaceOnUse" color-interpolation-filters="sRGB">
<feFlood flood-opacity="0" result="BackgroundImageFix"/>
<feColorMatrix in="SourceAlpha" type="matrix" values="0 0 0 0 0 0 0 0 0 0 0 0 0 0 0 0 0 0 127 0" result="hardAlpha"/>
<feOffset dy="5"/>
<feGaussianBlur stdDeviation="1"/>
<feComposite in2="hardAlpha" operator="out"/>
<feColorMatrix type="matrix" values="0 0 0 0 0 0 0 0 0 0 0 0 0 0 0 0 0 0 0.2 0"/>
<feBlend mode="normal" in2="BackgroundImageFix" result="effect1_dropShadow_1189_882"/>
<feBlend mode="normal" in="SourceGraphic" in2="effect1_dropShadow_1189_882" result="shape"/>
</filter>
</defs>
</svg>
