<svg width="211" height="45" viewBox="0 0 211 45" fill="none" xmlns="http://www.w3.org/2000/svg">
<path d="M14.7339 5.87445C13.8054 4.24963 13.2251 3.43722 13.1091 1C12.8383 1.15474 12.2038 1.58029 11.8324 2.04452C11.3682 2.62482 11.02 3.32116 10.7879 4.71386C10.5558 6.10656 11.02 8.54378 11.02 9.47225C11.02 10.4007 10.7879 11.2131 10.0915 12.7219C9.53445 13.9289 8.2346 14.6949 7.65431 14.927C7.84 14.3699 7.9638 12.6058 8.00248 11.7934C7.57693 11.9095 6.58657 12.4666 6.02949 13.7664C5.33314 15.3912 4.40468 17.016 3.70833 18.1766C3.01198 19.3372 1.73537 21.1941 1.15507 23.9795C0.574784 26.7649 1.73537 29.3182 2.77989 31.0591C3.61551 32.4518 5.68135 34.4248 6.60981 35.2372C6.49375 34.7343 6.2152 33.5195 6.02951 32.6839C5.79739 31.6394 5.91345 31.0591 6.02951 30.2467C6.14557 29.4343 6.72586 27.5773 8.46673 25.4883C10.2076 23.3992 13.5733 21.0781 15.0821 19.5693C16.5908 18.0606 17.5193 15.8555 17.6353 13.1861C17.7514 10.5168 15.6623 7.49926 14.7339 5.87445Z" fill="#1A3E2F"/>
<path d="M23.4382 19.5693C22.7883 17.8981 20.6915 15.6233 19.7244 14.6949V14.6949C19.7244 15.7394 19.7244 17.3642 19.6083 19.6854C19.5154 21.5436 18.6798 22.8189 17.9835 23.7474C17.4264 24.4902 16.0492 25.2949 15.4302 25.6043C15.8558 24.7533 16.7765 22.8886 17.055 22.2387C17.3336 21.5887 17.3258 20.4978 17.2871 20.0335C17.055 20.962 15.6623 22.7029 14.1536 23.9795C12.6448 25.2562 10.5558 26.997 9.6273 28.3897C8.69883 29.7824 8.69883 31.0591 8.69883 32.6839C8.69883 33.9837 9.47255 35.4693 9.85941 36.0496C11.3292 36.5138 14.2464 36.2353 15.0821 36.0496C16.1266 35.8175 18.2927 35.2372 20.8849 33.0321C22.9008 31.3173 24.1346 27.5773 24.3667 25.9525C24.5988 24.3277 24.6568 22.7029 23.4382 19.5693Z" fill="#1A3E2F"/>
<path d="M14.7339 5.87445C13.8054 4.24963 13.2251 3.43722 13.1091 1C12.8383 1.15474 12.2038 1.58029 11.8324 2.04452C11.3682 2.62482 11.02 3.32116 10.7879 4.71386C10.5558 6.10656 11.02 8.54378 11.02 9.47225C11.02 10.4007 10.7879 11.2131 10.0915 12.7219C9.53445 13.9289 8.2346 14.6949 7.65431 14.927C7.84 14.3699 7.9638 12.6058 8.00248 11.7934C7.57693 11.9095 6.58657 12.4666 6.02949 13.7664C5.33314 15.3912 4.40468 17.016 3.70833 18.1766C3.01198 19.3372 1.73537 21.1941 1.15507 23.9795C0.574784 26.7649 1.73537 29.3182 2.77989 31.0591C3.61551 32.4518 5.68135 34.4248 6.60981 35.2372C6.49375 34.7343 6.2152 33.5195 6.02951 32.6839C5.79739 31.6394 5.91345 31.0591 6.02951 30.2467C6.14557 29.4343 6.72586 27.5773 8.46673 25.4883C10.2076 23.3992 13.5733 21.0781 15.0821 19.5693C16.5908 18.0606 17.5193 15.8555 17.6353 13.1861C17.7514 10.5168 15.6623 7.49926 14.7339 5.87445Z" stroke="#1A3E2F" stroke-width="0.0596871"/>
<path d="M23.4382 19.5693C22.7883 17.8981 20.6915 15.6233 19.7244 14.6949V14.6949C19.7244 15.7394 19.7244 17.3642 19.6083 19.6854C19.5154 21.5436 18.6798 22.8189 17.9835 23.7474C17.4264 24.4902 16.0492 25.2949 15.4302 25.6043C15.8558 24.7533 16.7765 22.8886 17.055 22.2387C17.3336 21.5887 17.3258 20.4978 17.2871 20.0335C17.055 20.962 15.6623 22.7029 14.1536 23.9795C12.6448 25.2562 10.5558 26.997 9.6273 28.3897C8.69883 29.7824 8.69883 31.0591 8.69883 32.6839C8.69883 33.9837 9.47255 35.4693 9.85941 36.0496C11.3292 36.5138 14.2464 36.2353 15.0821 36.0496C16.1266 35.8175 18.2927 35.2372 20.8849 33.0321C22.9008 31.3173 24.1346 27.5773 24.3667 25.9525C24.5988 24.3277 24.6568 22.7029 23.4382 19.5693Z" stroke="#1A3E2F" stroke-width="0.0596871"/>
<circle cx="12.0263" cy="23.8642" r="1.70771" fill="white" stroke="#1A3E2F" stroke-width="0.397914"/>
<circle cx="7.61618" cy="34.3095" r="1.70771" fill="white" stroke="#1A3E2F" stroke-width="0.397914"/>
<circle cx="18.292" cy="16.8994" r="1.70771" fill="white" stroke="#1A3E2F" stroke-width="0.397914"/>
<g filter="url(#filter0_d_1462_10056)">
<path d="M36.6408 8.56H42.3479V33H36.6408V8.56ZM46.1459 21.3171C46.1459 20.2205 46.1347 19.191 46.1124 18.2286C46.1124 17.2662 46.09 16.371 46.0452 15.5429L50.8795 15.4086L51.2488 17.49H51.4166C51.7747 17.1543 52.2336 16.8074 52.7931 16.4493C53.3526 16.0912 53.9905 15.789 54.7066 15.5429C55.4228 15.2743 56.2062 15.14 57.0566 15.14C58.1309 15.14 59.0374 15.3302 59.7759 15.7107C60.5369 16.0912 61.1412 16.6171 61.5888 17.2886C62.0588 17.96 62.3945 18.7545 62.5959 19.6721C62.8197 20.5898 62.9316 21.5745 62.9316 22.6264V33H57.2581V22.7607C57.2581 22.2236 57.1909 21.7648 57.0566 21.3843C56.9447 20.9814 56.7769 20.6457 56.5531 20.3771C56.3516 20.1086 56.0943 19.9183 55.7809 19.8064C55.49 19.6945 55.1655 19.6386 54.8074 19.6386C54.3597 19.6386 53.9569 19.7057 53.5988 19.84C53.2407 19.9743 52.9162 20.1533 52.6252 20.3771C52.3343 20.601 52.0657 20.8248 51.8195 21.0486V33H46.1459V21.3171ZM67.3429 19.605H65.2279L65.4965 15.7107L67.3429 15.5429V14.8379C67.3429 12.555 67.9472 10.7645 69.1557 9.46643C70.3867 8.16833 72.1212 7.51928 74.3593 7.51928C74.8293 7.51928 75.2993 7.54166 75.7693 7.58643C76.2617 7.63119 76.7093 7.70952 77.1122 7.82143L76.6757 12.085C76.5191 12.0402 76.3624 12.0179 76.2057 12.0179C76.0715 11.9955 75.8924 11.9843 75.6686 11.9843C74.9972 11.9843 74.46 12.1186 74.0572 12.3871C73.6543 12.6333 73.3634 12.9802 73.1843 13.4279C73.0053 13.8755 72.9157 14.3679 72.9157 14.905V15.5429H76.34L76.0715 19.605H73.0165V33H67.3429V19.605ZM86.93 33.4029C84.9381 33.4029 83.2595 33.056 81.8943 32.3621C80.5514 31.646 79.5219 30.6276 78.8057 29.3071C78.0895 27.9643 77.7314 26.3529 77.7314 24.4729C77.7314 23.2643 77.9105 22.1117 78.2685 21.015C78.6266 19.896 79.1638 18.9 79.88 18.0271C80.5962 17.1319 81.5026 16.4269 82.5993 15.9121C83.7183 15.3974 85.0276 15.14 86.5271 15.14C88.0714 15.14 89.3695 15.4198 90.4214 15.9793C91.4733 16.5388 92.2902 17.311 92.8721 18.2957C93.454 19.2805 93.8233 20.4107 93.98 21.6864C94.159 22.9398 94.1366 24.2714 93.9128 25.6814H80.7193L83.7743 23.4321C83.2819 24.7974 83.1476 25.9052 83.3714 26.7557C83.5952 27.6062 84.0988 28.2329 84.8821 28.6357C85.6655 29.0386 86.6055 29.24 87.7021 29.24C88.5302 29.24 89.3919 29.1617 90.2871 29.005C91.2047 28.826 92.0105 28.6357 92.7043 28.4343L93.275 32.295C92.3126 32.6531 91.2719 32.9217 90.1528 33.1007C89.0338 33.3021 87.9595 33.4029 86.93 33.4029ZM80.7528 22.7271H88.9443C88.9666 22.6152 88.9778 22.5257 88.9778 22.4586C88.9778 22.3914 88.9778 22.3355 88.9778 22.2907C88.9778 21.7088 88.8995 21.1829 88.7428 20.7129C88.5862 20.2205 88.3176 19.8176 87.9371 19.5043C87.5566 19.191 87.0307 19.0343 86.3593 19.0343C85.5759 19.0343 84.9381 19.2805 84.4457 19.7729C83.9533 20.2429 83.6176 20.8583 83.4385 21.6193C83.2819 22.3802 83.2819 23.1748 83.4385 24.0029L80.7528 22.7271ZM96.8965 33V21.2164C96.8965 19.9631 96.8853 18.9 96.8629 18.0271C96.8405 17.1543 96.8182 16.3262 96.7958 15.5429L101.63 15.4086L102.1 18.195H102.201C102.85 17.255 103.656 16.494 104.618 15.9121C105.58 15.3302 106.733 15.0952 108.076 15.2071V20.1757C107.024 20.0414 105.994 20.075 104.987 20.2764C104.002 20.4555 103.197 20.9143 102.57 21.6529V33H96.8965ZM110.502 21.3171C110.502 20.2205 110.491 19.191 110.469 18.2286C110.469 17.2662 110.446 16.371 110.401 15.5429L115.236 15.4086L115.605 17.49H115.773C116.131 17.1543 116.59 16.8074 117.149 16.4493C117.709 16.0912 118.347 15.789 119.063 15.5429C119.779 15.2743 120.562 15.14 121.413 15.14C122.487 15.14 123.394 15.3302 124.132 15.7107C124.893 16.0912 125.497 16.6171 125.945 17.2886C126.415 17.96 126.751 18.7545 126.952 19.6721C127.176 20.5898 127.288 21.5745 127.288 22.6264V33H121.614V22.7607C121.614 22.2236 121.547 21.7648 121.413 21.3843C121.301 20.9814 121.133 20.6457 120.909 20.3771C120.708 20.1086 120.45 19.9183 120.137 19.8064C119.846 19.6945 119.522 19.6386 119.164 19.6386C118.716 19.6386 118.313 19.7057 117.955 19.84C117.597 19.9743 117.272 20.1533 116.981 20.3771C116.69 20.601 116.422 20.8248 116.176 21.0486V33H110.502V21.3171ZM139.185 33.4029C138.066 33.4029 136.97 33.235 135.895 32.8993C134.821 32.5412 133.848 32.004 132.975 31.2879C132.124 30.5717 131.442 29.6317 130.927 28.4679C130.412 27.304 130.155 25.9052 130.155 24.2714C130.155 22.6376 130.412 21.2388 130.927 20.075C131.442 18.9112 132.124 17.9712 132.975 17.255C133.848 16.5388 134.821 16.0129 135.895 15.6771C136.97 15.319 138.066 15.14 139.185 15.14C140.305 15.14 141.401 15.319 142.475 15.6771C143.572 16.0129 144.546 16.5388 145.396 17.255C146.269 17.9712 146.952 18.9112 147.444 20.075C147.959 21.2388 148.216 22.6376 148.216 24.2714C148.216 25.9052 147.959 27.304 147.444 28.4679C146.952 29.6317 146.269 30.5717 145.396 31.2879C144.546 32.004 143.572 32.5412 142.475 32.8993C141.401 33.235 140.305 33.4029 139.185 33.4029ZM139.185 29.3071C139.655 29.3071 140.081 29.2176 140.461 29.0386C140.842 28.8595 141.177 28.5798 141.468 28.1993C141.759 27.8188 141.983 27.304 142.14 26.655C142.296 26.006 142.375 25.2114 142.375 24.2714C142.375 23.3314 142.296 22.5369 142.14 21.8879C141.983 21.2388 141.759 20.724 141.468 20.3436C141.177 19.9631 140.842 19.6833 140.461 19.5043C140.081 19.3252 139.655 19.2357 139.185 19.2357C138.738 19.2357 138.313 19.3252 137.91 19.5043C137.529 19.6833 137.194 19.9631 136.903 20.3436C136.612 20.724 136.388 21.2388 136.231 21.8879C136.075 22.5369 135.996 23.3314 135.996 24.2714C135.996 25.2114 136.075 26.006 136.231 26.655C136.388 27.304 136.612 27.8188 136.903 28.1993C137.194 28.5798 137.529 28.8595 137.91 29.0386C138.313 29.2176 138.738 29.3071 139.185 29.3071ZM157.369 33.4029C155.959 33.4029 154.717 33.0224 153.642 32.2614C152.568 31.4781 151.729 30.415 151.125 29.0721C150.52 27.7069 150.218 26.1514 150.218 24.4057C150.218 22.5705 150.52 20.9702 151.125 19.605C151.729 18.2174 152.568 17.1319 153.642 16.3486C154.717 15.5429 155.959 15.14 157.369 15.14C158.286 15.14 159.126 15.319 159.887 15.6771C160.67 16.0129 161.286 16.4605 161.733 17.02H161.8V7.88857L167.474 7.75428V27.6621C167.474 28.1098 167.474 28.6805 167.474 29.3743C167.474 30.0681 167.485 30.7507 167.507 31.4221C167.53 32.0712 167.563 32.5971 167.608 33H163.647L162.405 30.7843H162.337C161.778 31.59 161.084 32.2279 160.256 32.6979C159.45 33.1679 158.488 33.4029 157.369 33.4029ZM159.115 28.9714C159.853 28.9714 160.469 28.7364 160.961 28.2664C161.453 27.774 161.733 27.2369 161.8 26.655V20.78C161.465 20.3548 161.051 20.0414 160.558 19.84C160.066 19.6162 159.607 19.5043 159.182 19.5043C158.577 19.5043 158.029 19.7057 157.537 20.1086C157.067 20.489 156.697 21.0374 156.429 21.7536C156.16 22.4698 156.026 23.3314 156.026 24.3386C156.026 25.3681 156.16 26.2298 156.429 26.9236C156.697 27.6174 157.067 28.1321 157.537 28.4679C158.007 28.8036 158.533 28.9714 159.115 28.9714ZM179.514 33.4029C177.522 33.4029 175.843 33.056 174.478 32.3621C173.135 31.646 172.106 30.6276 171.389 29.3071C170.673 27.9643 170.315 26.3529 170.315 24.4729C170.315 23.2643 170.494 22.1117 170.852 21.015C171.21 19.896 171.747 18.9 172.464 18.0271C173.18 17.1319 174.086 16.4269 175.183 15.9121C176.302 15.3974 177.611 15.14 179.111 15.14C180.655 15.14 181.953 15.4198 183.005 15.9793C184.057 16.5388 184.874 17.311 185.456 18.2957C186.038 19.2805 186.407 20.4107 186.564 21.6864C186.743 22.9398 186.72 24.2714 186.497 25.6814H173.303L176.358 23.4321C175.866 24.7974 175.731 25.9052 175.955 26.7557C176.179 27.6062 176.682 28.2329 177.466 28.6357C178.249 29.0386 179.189 29.24 180.286 29.24C181.114 29.24 181.976 29.1617 182.871 29.005C183.788 28.826 184.594 28.6357 185.288 28.4343L185.859 32.295C184.896 32.6531 183.856 32.9217 182.737 33.1007C181.617 33.3021 180.543 33.4029 179.514 33.4029ZM173.337 22.7271H181.528C181.55 22.6152 181.562 22.5257 181.562 22.4586C181.562 22.3914 181.562 22.3355 181.562 22.2907C181.562 21.7088 181.483 21.1829 181.327 20.7129C181.17 20.2205 180.901 19.8176 180.521 19.5043C180.14 19.191 179.614 19.0343 178.943 19.0343C178.16 19.0343 177.522 19.2805 177.029 19.7729C176.537 20.2429 176.201 20.8583 176.022 21.6193C175.866 22.3802 175.866 23.1748 176.022 24.0029L173.337 22.7271ZM194.617 33.4029C193.565 33.4029 192.49 33.291 191.394 33.0671C190.297 32.8433 189.391 32.586 188.674 32.295L189.312 28.5014C189.715 28.6133 190.208 28.7476 190.789 28.9043C191.394 29.0386 192.032 29.1617 192.703 29.2736C193.397 29.3631 194.057 29.4079 194.684 29.4079C195.445 29.4079 195.993 29.2848 196.329 29.0386C196.664 28.7924 196.832 28.479 196.832 28.0986C196.832 27.7629 196.687 27.4831 196.396 27.2593C196.105 27.0131 195.724 26.8005 195.254 26.6214C194.784 26.42 194.281 26.2186 193.744 26.0171C193.028 25.7262 192.3 25.3793 191.562 24.9764C190.845 24.5512 190.23 23.9917 189.715 23.2979C189.223 22.604 188.977 21.72 188.977 20.6457C188.977 19.4819 189.29 18.4971 189.917 17.6914C190.543 16.8633 191.394 16.2367 192.468 15.8114C193.565 15.3638 194.796 15.14 196.161 15.14C197.168 15.14 198.13 15.2407 199.048 15.4421C199.988 15.6212 200.783 15.8562 201.432 16.1471L200.794 19.9071C200.458 19.7952 200.033 19.6833 199.518 19.5714C199.003 19.4371 198.466 19.3364 197.907 19.2693C197.347 19.1798 196.832 19.135 196.362 19.135C195.803 19.135 195.333 19.2357 194.952 19.4371C194.594 19.6162 194.415 19.9183 194.415 20.3436C194.415 20.6345 194.549 20.8919 194.818 21.1157C195.087 21.3171 195.434 21.5074 195.859 21.6864C196.306 21.8655 196.788 22.0557 197.302 22.2571C198.041 22.5257 198.791 22.8726 199.552 23.2979C200.335 23.7231 200.984 24.2826 201.499 24.9764C202.036 25.6702 202.304 26.5879 202.304 27.7293C202.304 28.8707 201.98 29.8667 201.331 30.7171C200.704 31.5676 199.809 32.2279 198.645 32.6979C197.504 33.1679 196.161 33.4029 194.617 33.4029Z" fill="#1A3E2F"/>
</g>
<defs>
<filter id="filter0_d_1462_10056" x="28.3037" y="1.96159" width="182.338" height="42.5566" filterUnits="userSpaceOnUse" color-interpolation-filters="sRGB">
<feFlood flood-opacity="0" result="BackgroundImageFix"/>
<feColorMatrix in="SourceAlpha" type="matrix" values="0 0 0 0 0 0 0 0 0 0 0 0 0 0 0 0 0 0 127 0" result="hardAlpha"/>
<feOffset dy="2.77897"/>
<feGaussianBlur stdDeviation="4.16845"/>
<feColorMatrix type="matrix" values="0 0 0 0 1 0 0 0 0 1 0 0 0 0 1 0 0 0 0.8 0"/>
<feBlend mode="normal" in2="BackgroundImageFix" result="effect1_dropShadow_1462_10056"/>
<feBlend mode="normal" in="SourceGraphic" in2="effect1_dropShadow_1462_10056" result="shape"/>
</filter>
</defs>
</svg>
