<svg width="861" height="145" viewBox="0 0 861 145" fill="none" xmlns="http://www.w3.org/2000/svg">
<path d="M255.551 135V106.211H263.393V111.045H263.554C264.736 107.769 267.744 105.62 271.611 105.62C275.639 105.62 278.566 107.769 279.533 111.555H279.694C280.983 107.93 284.421 105.62 288.637 105.62C294.277 105.62 298.063 109.514 298.063 115.315V135H290.222V117.275C290.222 113.945 288.557 112.119 285.522 112.119C282.541 112.119 280.581 114.294 280.581 117.49V135H273.034V117.034C273.034 113.945 271.289 112.119 268.388 112.119C265.407 112.119 263.393 114.375 263.393 117.625V135H255.551ZM315.925 135.591C307.17 135.591 301.664 129.978 301.664 120.605V120.552C301.664 111.287 307.304 105.62 315.898 105.62C324.518 105.62 330.185 111.233 330.185 120.552V120.605C330.185 130.005 324.626 135.591 315.925 135.591ZM315.951 129.441C319.765 129.441 322.209 126.218 322.209 120.605V120.552C322.209 114.993 319.711 111.77 315.898 111.77C312.111 111.77 309.64 114.993 309.64 120.552V120.605C309.64 126.245 312.084 129.441 315.951 129.441ZM340.5 135L330.536 106.211H338.915L344.931 128.071H345.092L351.027 106.211H359.218L349.335 135H340.5ZM373.722 135.591C364.914 135.591 359.569 129.871 359.569 120.659V120.632C359.569 111.475 364.967 105.62 373.4 105.62C381.832 105.62 387.123 111.34 387.123 120.042V122.458H367.304C367.384 127.051 369.882 129.736 373.883 129.736C377.106 129.736 379.066 127.964 379.63 126.353L379.684 126.191H386.881L386.801 126.487C385.915 130.73 381.94 135.591 373.722 135.591ZM373.534 111.475C370.311 111.475 367.894 113.623 367.384 117.517H379.603C379.12 113.542 376.784 111.475 373.534 111.475ZM412.882 135.591C406.49 135.591 403.483 133.12 403.483 126.943V112.119H399.481V106.211H403.483V99.1748H411.405V106.211H416.669V112.119H411.405V126.084C411.405 128.77 412.613 129.683 414.977 129.683C415.675 129.683 416.185 129.602 416.669 129.548V135.295C415.782 135.43 414.52 135.591 412.882 135.591ZM433.455 135.591C424.701 135.591 419.195 129.978 419.195 120.605V120.552C419.195 111.287 424.835 105.62 433.429 105.62C442.049 105.62 447.716 111.233 447.716 120.552V120.605C447.716 130.005 442.157 135.591 433.455 135.591ZM433.482 129.441C437.296 129.441 439.74 126.218 439.74 120.605V120.552C439.74 114.993 437.242 111.77 433.429 111.77C429.642 111.77 427.171 114.993 427.171 120.552V120.605C427.171 126.245 429.615 129.441 433.482 129.441ZM466.546 144.48C465.015 144.48 463.458 144.292 462.544 144.131V138.303C463.108 138.411 464.022 138.572 465.176 138.572C467.513 138.572 468.802 137.9 469.5 135.94L469.849 135L459.671 106.211H468.292L474.361 128.716H474.576L480.672 106.211H488.943L479.061 135.51C476.805 142.305 472.938 144.48 466.546 144.48ZM503.555 135.591C494.8 135.591 489.295 129.978 489.295 120.605V120.552C489.295 111.287 494.934 105.62 503.528 105.62C512.149 105.62 517.815 111.233 517.815 120.552V120.605C517.815 130.005 512.256 135.591 503.555 135.591ZM503.582 129.441C507.395 129.441 509.839 126.218 509.839 120.605V120.552C509.839 114.993 507.342 111.77 503.528 111.77C499.742 111.77 497.271 114.993 497.271 120.552V120.605C497.271 126.245 499.715 129.441 503.582 129.441ZM531.353 135.591C525.015 135.591 521.416 131.536 521.416 124.795V106.211H529.258V123.157C529.258 126.917 531.03 129.092 534.549 129.092C538.067 129.092 540.296 126.514 540.296 122.754V106.211H548.137V135H540.296V130.247H540.134C538.657 133.55 535.703 135.591 531.353 135.591ZM552.92 135V106.211H560.762V111.233H560.923C561.782 107.688 564.119 105.62 567.476 105.62C568.335 105.62 569.141 105.754 569.731 105.916V112.817C569.087 112.549 568.013 112.388 566.885 112.388C563.018 112.388 560.762 114.697 560.762 118.887V135H552.92ZM583.217 135V106.211H591.059V111.045H591.22C592.402 107.769 595.41 105.62 599.277 105.62C603.305 105.62 606.233 107.769 607.199 111.555H607.361C608.65 107.93 612.087 105.62 616.303 105.62C621.943 105.62 625.73 109.514 625.73 115.315V135H617.888V117.275C617.888 113.945 616.223 112.119 613.188 112.119C610.207 112.119 608.247 114.294 608.247 117.49V135H600.7V117.034C600.7 113.945 598.955 112.119 596.054 112.119C593.073 112.119 591.059 114.375 591.059 117.625V135H583.217ZM643.483 135.591C634.675 135.591 629.331 129.871 629.331 120.659V120.632C629.331 111.475 634.728 105.62 643.161 105.62C651.594 105.62 656.884 111.34 656.884 120.042V122.458H637.065C637.145 127.051 639.643 129.736 643.645 129.736C646.867 129.736 648.828 127.964 649.392 126.353L649.445 126.191H656.643L656.562 126.487C655.676 130.73 651.701 135.591 643.483 135.591ZM643.295 111.475C640.073 111.475 637.656 113.623 637.145 117.517H649.365C648.881 113.542 646.545 111.475 643.295 111.475ZM660.619 135V106.211H668.461V111.045H668.622C669.804 107.769 672.812 105.62 676.679 105.62C680.707 105.62 683.635 107.769 684.601 111.555H684.763C686.052 107.93 689.489 105.62 693.705 105.62C699.345 105.62 703.132 109.514 703.132 115.315V135H695.29V117.275C695.29 113.945 693.625 112.119 690.59 112.119C687.609 112.119 685.649 114.294 685.649 117.49V135H678.102V117.034C678.102 113.945 676.357 112.119 673.456 112.119C670.475 112.119 668.461 114.375 668.461 117.625V135H660.619ZM720.993 135.591C712.238 135.591 706.733 129.978 706.733 120.605V120.552C706.733 111.287 712.372 105.62 720.966 105.62C729.587 105.62 735.253 111.233 735.253 120.552V120.605C735.253 130.005 729.694 135.591 720.993 135.591ZM721.02 129.441C724.833 129.441 727.277 126.218 727.277 120.605V120.552C727.277 114.993 724.779 111.77 720.966 111.77C717.179 111.77 714.709 114.993 714.709 120.552V120.605C714.709 126.245 717.152 129.441 721.02 129.441ZM738.988 135V106.211H746.83V111.233H746.991C747.851 107.688 750.187 105.62 753.544 105.62C754.403 105.62 755.209 105.754 755.8 105.916V112.817C755.155 112.549 754.081 112.388 752.953 112.388C749.086 112.388 746.83 114.697 746.83 118.887V135H738.988ZM763.214 144.48C761.683 144.48 760.126 144.292 759.213 144.131V138.303C759.777 138.411 760.69 138.572 761.844 138.572C764.181 138.572 765.47 137.9 766.168 135.94L766.517 135L756.339 106.211H764.96L771.029 128.716H771.244L777.34 106.211H785.612L775.729 135.51C773.473 142.305 769.606 144.48 763.214 144.48Z" fill="#2E7CD3"/>
<path d="M259.16 70V21H271.06V59.5H292.9V70H259.16ZM312.979 70.63C309.852 70.63 307.052 69.8133 304.579 68.18C302.152 66.5 300.216 64.2133 298.769 61.32C297.322 58.38 296.599 55.0667 296.599 51.38C296.599 47.6 297.322 44.2633 298.769 41.37C300.216 38.4767 302.199 36.2133 304.719 34.58C307.239 32.9 310.109 32.06 313.329 32.06C315.102 32.06 316.712 32.3167 318.159 32.83C319.652 33.3433 320.959 34.0667 322.079 35C323.199 35.8867 324.156 36.9367 324.949 38.15C325.742 39.3167 326.326 40.5767 326.699 41.93L324.389 41.65V32.83H335.519V70H324.179V61.04L326.699 60.97C326.326 62.2767 325.719 63.5133 324.879 64.68C324.039 65.8467 323.012 66.8733 321.799 67.76C320.586 68.6467 319.232 69.3467 317.739 69.86C316.246 70.3733 314.659 70.63 312.979 70.63ZM316.059 61.18C317.786 61.18 319.279 60.7833 320.539 59.99C321.799 59.1967 322.779 58.0767 323.479 56.63C324.179 55.1367 324.529 53.3867 324.529 51.38C324.529 49.3733 324.179 47.6467 323.479 46.2C322.779 44.7067 321.799 43.5633 320.539 42.77C319.279 41.93 317.786 41.51 316.059 41.51C314.379 41.51 312.909 41.93 311.649 42.77C310.436 43.5633 309.479 44.7067 308.779 46.2C308.079 47.6467 307.729 49.3733 307.729 51.38C307.729 53.3867 308.079 55.1367 308.779 56.63C309.479 58.0767 310.436 59.1967 311.649 59.99C312.909 60.7833 314.379 61.18 316.059 61.18ZM345.402 70V32.83H356.042L356.392 40.39L354.152 41.23C354.665 39.55 355.575 38.0333 356.882 36.68C358.235 35.28 359.845 34.16 361.712 33.32C363.578 32.48 365.538 32.06 367.592 32.06C370.392 32.06 372.748 32.6433 374.662 33.81C376.575 34.93 378.022 36.6333 379.002 38.92C379.982 41.16 380.472 43.9133 380.472 47.18V70H369.202V48.09C369.202 46.5967 368.992 45.36 368.572 44.38C368.152 43.4 367.498 42.6767 366.612 42.21C365.772 41.6967 364.722 41.4633 363.462 41.51C362.482 41.51 361.572 41.6733 360.732 42C359.892 42.28 359.168 42.7233 358.562 43.33C357.955 43.89 357.465 44.5433 357.092 45.29C356.765 46.0367 356.602 46.8533 356.602 47.74V70H351.072C349.765 70 348.645 70 347.712 70C346.778 70 346.008 70 345.402 70ZM407.545 70.7C403.439 70.7 399.869 69.8833 396.835 68.25C393.802 66.57 391.445 64.3067 389.765 61.46C388.085 58.5667 387.245 55.2767 387.245 51.59C387.245 48.7433 387.712 46.13 388.645 43.75C389.579 41.37 390.885 39.3167 392.565 37.59C394.245 35.8167 396.229 34.4633 398.515 33.53C400.849 32.55 403.392 32.06 406.145 32.06C408.759 32.06 411.139 32.5267 413.285 33.46C415.479 34.3933 417.369 35.7 418.955 37.38C420.542 39.06 421.755 41.0433 422.595 43.33C423.435 45.6167 423.809 48.1133 423.715 50.82L423.645 53.83H394.035L392.425 47.53H414.545L413.355 48.86V47.46C413.262 46.2933 412.889 45.2667 412.235 44.38C411.629 43.4467 410.812 42.7233 409.785 42.21C408.759 41.6967 407.592 41.44 406.285 41.44C404.465 41.44 402.902 41.8133 401.595 42.56C400.335 43.26 399.379 44.31 398.725 45.71C398.072 47.0633 397.745 48.7433 397.745 50.75C397.745 52.8033 398.165 54.6 399.005 56.14C399.892 57.6333 401.152 58.8 402.785 59.64C404.465 60.48 406.449 60.9 408.735 60.9C410.322 60.9 411.722 60.6667 412.935 60.2C414.195 59.7333 415.549 58.94 416.995 57.82L422.245 65.24C420.799 66.5 419.259 67.5267 417.625 68.32C415.992 69.1133 414.312 69.6967 412.585 70.07C410.905 70.49 409.225 70.7 407.545 70.7Z" fill="#2E7CD3"/>
<rect x="67" y="10" width="133.138" height="133.138" rx="20" fill="#F7E8CC"/>
<ellipse cx="176.035" cy="49.0229" rx="6.88645" ry="5.7387" fill="#2E7CD3"/>
<ellipse cx="147.342" cy="58.2049" rx="10.3297" ry="9.18193" fill="#2E7CD3"/>
<ellipse cx="154.228" cy="91.4894" rx="14.9206" ry="12.6251" fill="#2E7CD3"/>
<ellipse cx="104.875" cy="100.097" rx="19.5116" ry="16.6422" fill="#2E7CD3"/>
<path d="M8 11V143.5" stroke="#2E7CD3" stroke-width="15"/>
</svg>
