<svg width="146" height="44" viewBox="0 0 146 44" fill="none" xmlns="http://www.w3.org/2000/svg">
<ellipse cx="44.9574" cy="6.44694" rx="3.41445" ry="2.84537" fill="#1A3E2F"/>
<ellipse cx="30.7291" cy="10.9979" rx="5.12167" ry="4.5526" fill="#1A3E2F"/>
<ellipse cx="34.1441" cy="27.502" rx="7.39797" ry="6.25982" fill="#1A3E2F"/>
<ellipse cx="9.67427" cy="31.7711" rx="9.67427" ry="8.25159" fill="#1A3E2F"/>
<path d="M62.4254 35.3125V11.0172H68.3256V30.1064H79.1544V35.3125H62.4254ZM89.11 35.6249C87.5597 35.6249 86.1714 35.2199 84.9451 34.4101C83.7419 33.5771 82.7817 32.4433 82.0644 31.0088C81.3471 29.5511 80.9885 27.9082 80.9885 26.0803C80.9885 24.2061 81.3471 22.5517 82.0644 21.1171C82.7817 19.6825 83.7651 18.5603 85.0145 17.7505C86.264 16.9175 87.687 16.501 89.2836 16.501C90.1628 16.501 90.9611 16.6283 91.6784 16.8828C92.4188 17.1373 93.0667 17.496 93.622 17.9587C94.1773 18.3984 94.6516 18.919 95.045 19.5206C95.4384 20.099 95.7276 20.7238 95.9127 21.3948L94.7673 21.256V16.8828H100.286V35.3125H94.6632V30.8699L95.9127 30.8352C95.7276 31.4831 95.4268 32.0963 95.0103 32.6747C94.5938 33.2532 94.0848 33.7622 93.4832 34.2019C92.8816 34.6415 92.2106 34.9886 91.4701 35.2431C90.7297 35.4976 89.943 35.6249 89.11 35.6249ZM90.6371 30.9394C91.4933 30.9394 92.2337 30.7427 92.8584 30.3493C93.4832 29.956 93.9691 29.4007 94.3161 28.6834C94.6632 27.9429 94.8368 27.0752 94.8368 26.0803C94.8368 25.0854 94.6632 24.2292 94.3161 23.5119C93.9691 22.7715 93.4832 22.2046 92.8584 21.8113C92.2337 21.3948 91.4933 21.1865 90.6371 21.1865C89.8042 21.1865 89.0753 21.3948 88.4506 21.8113C87.849 22.2046 87.3746 22.7715 87.0276 23.5119C86.6805 24.2292 86.507 25.0854 86.507 26.0803C86.507 27.0752 86.6805 27.9429 87.0276 28.6834C87.3746 29.4007 87.849 29.956 88.4506 30.3493C89.0753 30.7427 89.8042 30.9394 90.6371 30.9394ZM105.186 35.3125V16.8828H110.461L110.635 20.6312L109.524 21.0477C109.779 20.2147 110.23 19.4627 110.878 18.7917C111.549 18.0976 112.347 17.5422 113.273 17.1258C114.198 16.7093 115.17 16.501 116.188 16.501C117.576 16.501 118.745 16.7903 119.694 17.3687C120.642 17.924 121.36 18.7686 121.845 19.9024C122.331 21.013 122.574 22.3782 122.574 23.9978V35.3125H116.986V24.449C116.986 23.7086 116.882 23.0955 116.674 22.6095C116.466 22.1236 116.142 21.765 115.702 21.5336C115.286 21.2791 114.765 21.1634 114.14 21.1865C113.654 21.1865 113.203 21.2675 112.787 21.4295C112.37 21.5683 112.012 21.7881 111.711 22.0889C111.41 22.3666 111.167 22.6905 110.982 23.0607C110.82 23.431 110.739 23.8359 110.739 24.2755V35.3125H107.997C107.349 35.3125 106.794 35.3125 106.331 35.3125C105.868 35.3125 105.487 35.3125 105.186 35.3125ZM135.998 35.6596C133.962 35.6596 132.192 35.2547 130.688 34.4448C129.184 33.6118 128.015 32.4896 127.182 31.0782C126.349 29.6436 125.933 28.0124 125.933 26.1844C125.933 24.773 126.164 23.4772 126.627 22.2972C127.09 21.1171 127.738 20.099 128.571 19.2429C129.404 18.3637 130.387 17.6926 131.521 17.2299C132.678 16.744 133.939 16.501 135.304 16.501C136.6 16.501 137.78 16.7324 138.844 17.1952C139.931 17.6579 140.869 18.3058 141.655 19.1388C142.442 19.9718 143.044 20.9552 143.46 22.0889C143.877 23.2227 144.062 24.4606 144.015 25.8026L143.981 27.2951H129.299L128.501 24.1714H139.469L138.879 24.8308V24.1367C138.832 23.5582 138.647 23.0492 138.323 22.6095C138.023 22.1468 137.618 21.7881 137.109 21.5336C136.6 21.2791 136.021 21.1518 135.373 21.1518C134.471 21.1518 133.696 21.3369 133.048 21.7072C132.423 22.0542 131.949 22.5748 131.625 23.269C131.301 23.94 131.139 24.773 131.139 25.7679C131.139 26.786 131.347 27.6768 131.764 28.4404C132.203 29.1808 132.828 29.7593 133.638 30.1758C134.471 30.5923 135.454 30.8005 136.588 30.8005C137.375 30.8005 138.069 30.6848 138.67 30.4534C139.295 30.2221 139.966 29.8287 140.683 29.2734L143.287 32.9524C142.569 33.5771 141.806 34.0862 140.996 34.4795C140.186 34.8729 139.353 35.1621 138.497 35.3472C137.664 35.5555 136.831 35.6596 135.998 35.6596Z" fill="#1A3E2F"/>
</svg>
