<svg width="49" height="76" viewBox="0 0 49 76" fill="none" xmlns="http://www.w3.org/2000/svg">
<path d="M13.7612 75.7461C21.2668 75.7461 25.4239 71.8702 27.6547 62.7834C28.6079 58.9075 32.4901 53.8954 36.5993 48.5868C42.3184 41.2012 48.2329 33.5629 48.8583 26.2497C49.54 18.2865 47.2991 10.9987 42.7099 6.25818C38.3953 1.79843 32.1113 -0.351013 24.5299 0.0466841C6.97449 0.961986 2.24365 20.1586 2.19598 20.3541C2.03501 21.0327 2.45479 21.7113 3.13342 21.8723C3.81201 22.0301 4.49062 21.6135 4.65472 20.9348C4.82516 20.2184 9.01347 3.3859 24.6624 2.56902C31.5809 2.20921 37.0506 4.03982 40.8951 8.01671C44.9762 12.2335 46.9614 18.8051 46.3428 26.0391C45.781 32.6104 39.8441 40.2801 34.605 47.0471C30.3251 52.5737 26.285 57.7911 25.2055 62.1842C22.9456 71.3784 19.1518 73.2247 13.7643 73.2247C8.16823 73.2247 2.525 69.4403 2.525 60.9851C2.525 60.2876 1.96003 59.7226 1.2625 59.7226C0.564969 59.7226 0 60.2876 0 60.9851C0 71.1295 7.13625 75.7497 13.7643 75.7497L13.7612 75.7461Z" fill="#1A3E2F"/>
<path d="M9.15224 48.3507C8.5273 48.0382 7.76983 48.2939 7.46045 48.9188C6.06536 51.7279 6.16005 54.8841 7.71926 57.1596C8.9597 58.9744 10.9197 59.9434 13.2932 59.9434C13.5646 59.9434 13.8424 59.9307 14.1232 59.9055C17.4531 59.6025 19.6372 56.4652 20.2685 51.0676C20.4042 49.9061 21.2848 48.9718 22.462 48.7414C27.8971 47.6715 33.9227 43.9377 34.5222 36.6627C35.2324 28.0526 31.0093 21.8537 23.7661 20.8655C20.351 20.3984 17.725 21.4336 15.9828 22.5288C16.9423 17.8449 21.0928 14.3131 26.0545 14.3131C31.7231 14.3131 36.3347 18.9243 36.3347 24.5933C36.3347 25.2908 36.8997 25.8558 37.5972 25.8558C38.2947 25.8558 38.8597 25.2908 38.8597 24.5933C38.8597 17.5327 33.1153 11.7881 26.0545 11.7881C18.994 11.7881 13.2494 17.5325 13.2494 24.5933C13.2494 24.83 13.262 25.0667 13.2746 25.3003C13.2683 25.4139 13.2683 25.5243 13.2936 25.6348C13.4766 27.8884 14.2404 30.0346 15.5376 31.8968C15.7838 32.2503 16.1752 32.4397 16.5761 32.4397C16.8254 32.4397 17.0747 32.3671 17.2957 32.2124C17.867 31.8148 18.009 31.0257 17.6113 30.4544C16.6392 29.0593 16.0584 27.4623 15.8659 25.7895C16.7938 24.8868 19.4135 22.8195 23.4283 23.3623C29.321 24.164 32.6063 29.1793 32.0068 36.4511C31.5207 42.3217 26.5086 45.3674 21.9763 46.261C19.7195 46.7061 18.0278 48.5178 17.7627 50.7713C17.485 53.1353 16.6138 57.1406 13.8963 57.3868C12.072 57.5572 10.658 56.9796 9.80263 55.7297C8.78003 54.2337 8.74844 51.999 9.72373 50.039C10.033 49.4141 9.78054 48.6566 9.15561 48.3472L9.15224 48.3507Z" fill="#1A3E2F"/>
</svg>
