<svg width="155" height="42" viewBox="0 0 155 42" fill="none" xmlns="http://www.w3.org/2000/svg">
<rect y="14.1758" width="26.6135" height="19.9601" rx="9.98005" fill="#1A3E2F"/>
<path d="M26.6133 24.1584L16.6332 14.1707L23.8593 9.32945C25.0348 8.54192 26.6133 9.38439 26.6133 10.7993L26.6133 24.1584Z" fill="#1A3E2F"/>
<path d="M-1.54126e-06 24.1569L9.98005 14.1691L2.74984 9.35455C1.57403 8.57158 -1.75227e-07 9.41451 -3.06124e-07 10.8272L-1.54126e-06 24.1569Z" fill="#1A3E2F"/>
<path d="M17.1953 23.9835C17.1953 23.4983 17.3485 23.0939 17.6548 22.7704C17.9611 22.4469 18.3794 22.2852 18.9096 22.2852C19.4398 22.2852 19.858 22.4469 20.1644 22.7704C20.4707 23.0939 20.6239 23.4983 20.6239 23.9835C20.6239 24.4688 20.4707 24.8731 20.1644 25.1966C19.858 25.5201 19.4398 25.6819 18.9096 25.6819C18.3794 25.6819 17.9611 25.5201 17.6548 25.1966C17.3485 24.8731 17.1953 24.4688 17.1953 23.9835Z" fill="white"/>
<path d="M11.9258 23.9835C11.9258 23.4983 12.0789 23.0939 12.3853 22.7704C12.6916 22.4469 13.1099 22.2852 13.6401 22.2852C14.1702 22.2852 14.5885 22.4469 14.8948 22.7704C15.2012 23.0939 15.3543 23.4983 15.3543 23.9835C15.3543 24.4688 15.2012 24.8731 14.8948 25.1966C14.5885 25.5201 14.1702 25.6819 13.6401 25.6819C13.1099 25.6819 12.6916 25.5201 12.3853 25.1966C12.0789 24.8731 11.9258 24.4688 11.9258 23.9835Z" fill="white"/>
<path d="M6.6543 23.9835C6.6543 23.4983 6.80746 23.0939 7.11379 22.7704C7.42012 22.4469 7.83838 22.2852 8.36857 22.2852C8.89876 22.2852 9.31701 22.4469 9.62334 22.7704C9.92967 23.0939 10.0828 23.4983 10.0828 23.9835C10.0828 24.4688 9.92967 24.8731 9.62334 25.1966C9.31701 25.5201 8.89876 25.6819 8.36857 25.6819C7.83838 25.6819 7.42012 25.5201 7.11379 25.1966C6.80746 24.8731 6.6543 24.4688 6.6543 23.9835Z" fill="white"/>
<path d="M57.5962 21.1805L53.7943 28.9668C53.4698 29.6157 53.1251 30.082 52.7602 30.3659C52.3952 30.6295 51.9592 30.7613 51.4523 30.7613C50.8034 30.7613 50.2559 30.5383 49.8099 30.0922C49.3638 29.6258 48.7859 28.7945 48.0762 27.5981L44.548 21.1805V29.788C44.548 30.6599 44.3452 31.2987 43.9397 31.7042C43.5544 32.1097 42.9664 32.3125 42.1756 32.3125C41.2834 32.3125 40.6345 32.1199 40.229 31.7346C39.8235 31.3291 39.6207 30.5484 39.6207 29.3926V16.1315C39.6207 14.5702 39.9755 13.3941 40.6852 12.6033C41.3949 11.8125 42.5913 11.4171 44.2743 11.4171C44.9028 11.4171 45.4503 11.5286 45.9167 11.7517C46.3831 11.9545 46.7278 12.1978 46.9508 12.4817C47.1941 12.7453 47.4273 13.0798 47.6504 13.4854L51.726 22.3971L56.045 13.6374C56.7953 12.1775 58.1437 11.4475 60.0903 11.4475C61.0027 11.4475 61.7834 11.6098 62.4322 11.9342C63.0811 12.2383 63.588 12.7453 63.953 13.455C64.3383 14.1444 64.5309 15.0163 64.5309 16.0707V29.3014C64.5106 31.3088 63.2433 32.3125 60.729 32.3125C59.8165 32.3125 59.0663 32.0692 58.4782 31.5825C57.9105 31.0756 57.6165 30.2645 57.5962 29.1493V21.1805ZM86.4062 15.1278V24.1916C86.4062 27.152 85.6864 29.2811 84.2467 30.5788C82.8274 31.8563 80.4245 32.495 77.0383 32.495C73.8143 32.495 71.4419 31.8056 69.9211 30.4267C68.4206 29.0479 67.6703 26.9695 67.6703 24.1916V15.1278C67.6703 14.0531 67.9846 13.1812 68.6132 12.5121C69.2621 11.8227 70.0732 11.4779 71.0465 11.4779C72.2428 11.4779 73.1451 11.701 73.7534 12.1471C74.382 12.5932 74.6963 13.4955 74.6963 14.8541V24.7695C74.7166 25.4183 74.818 25.9354 75.0005 26.3207C75.2032 26.7059 75.4668 26.9797 75.7913 27.1419C76.1157 27.2838 76.5314 27.3548 77.0383 27.3548C77.5452 27.3548 77.9609 27.294 78.2853 27.1723C78.6098 27.0506 78.8429 26.858 78.9849 26.5944C79.1471 26.3308 79.2485 26.0672 79.289 25.8036C79.3499 25.54 79.3803 25.1953 79.3803 24.7695V14.8236C79.3803 14.1342 79.4614 13.5563 79.6236 13.09C79.8061 12.6236 80.0697 12.2789 80.4144 12.0558C80.7794 11.8328 81.1444 11.6807 81.5094 11.5996C81.8946 11.5185 82.3508 11.4779 82.878 11.4779C84.0541 11.4779 84.9362 11.7618 85.5242 12.3296C86.1122 12.8973 86.4062 13.8301 86.4062 15.1278ZM93.5935 32.3125C92.6608 32.2922 91.9106 32.1503 91.3428 31.8867C90.775 31.6028 90.3492 31.1466 90.0654 30.518C89.7815 29.8894 89.6395 29.0479 89.6395 27.9935V15.1278C89.6395 14.0531 89.9538 13.1812 90.5824 12.5121C91.211 11.8227 92.0424 11.4779 93.0765 11.4779C94.2931 11.4779 95.1853 11.701 95.753 12.1471C96.3411 12.5932 96.6351 13.4955 96.6351 14.8541V27.0506H101.836C103.012 27.0506 103.833 27.223 104.3 27.5677C104.786 27.9124 105.03 28.6221 105.03 29.6968C105.03 30.7917 104.756 31.5014 104.209 31.8259C103.661 32.1503 102.769 32.3125 101.532 32.3125H93.5935ZM114.675 27.7502C114.675 28.906 114.533 29.8286 114.249 30.518C113.965 31.1871 113.57 31.6535 113.063 31.9171C112.576 32.1807 111.927 32.3125 111.116 32.3125C109.92 32.3125 109.048 31.9982 108.5 31.3696C107.973 30.7208 107.699 29.5853 107.679 27.9631L107.618 16.7398H105.033C103.756 16.7398 102.792 16.537 102.144 16.1315C101.515 15.726 101.201 15.0061 101.201 13.972C101.201 13.3434 101.322 12.8466 101.566 12.4817C101.829 12.1167 102.215 11.8632 102.721 11.7213C103.228 11.5591 103.908 11.4779 104.759 11.4779H117.777C118.913 11.4779 119.734 11.6807 120.241 12.0863C120.748 12.4918 121.001 13.1914 121.001 14.1849C121.001 14.8541 120.849 15.3813 120.545 15.7665C120.261 16.1315 119.876 16.385 119.389 16.5269C118.902 16.6688 118.274 16.7398 117.503 16.7398H114.675V27.7502ZM130.683 27.7502C130.683 29.3318 130.388 30.4876 129.8 31.2175C129.212 31.9475 128.32 32.3125 127.124 32.3125C125.948 32.3125 125.076 31.9982 124.508 31.3696C123.961 30.741 123.687 29.6157 123.687 27.9935V15.1278C123.687 12.6946 124.833 11.4779 127.124 11.4779C128.3 11.4779 129.182 11.701 129.77 12.1471C130.378 12.5932 130.683 13.4955 130.683 14.8541V27.7502ZM138.374 21.9713L134.207 17.926C133.375 17.0338 132.96 16.1822 132.96 15.3711C132.96 14.3776 133.385 13.4955 134.237 12.725C135.17 11.8936 136.001 11.4779 136.731 11.4779C137.623 11.4779 138.404 11.8733 139.073 12.6642L142.966 17.6523L146.19 13.3333C147.184 12.1167 148.299 11.5084 149.536 11.5084C150.388 11.5084 151.178 11.8632 151.908 12.5729C152.74 13.4245 153.155 14.2356 153.155 15.0061C153.155 15.8983 152.557 16.9629 151.361 18.1998L147.772 21.6063L151.878 25.8949C152.73 26.8479 153.155 27.6894 153.155 28.4193C153.155 29.4332 152.73 30.3152 151.878 31.0655C150.945 31.9171 150.114 32.3429 149.384 32.3429C148.471 32.3429 147.691 31.9475 147.042 31.1567L143.118 26.0469L139.894 30.4572C138.941 31.6941 137.836 32.3125 136.579 32.3125C135.748 32.3125 134.957 31.9374 134.207 31.1871C133.375 30.3558 132.96 29.5548 132.96 28.7843C132.96 27.953 133.548 26.8884 134.724 25.5907L138.374 21.9713Z" fill="#1A3E2F"/>
</svg>
