<svg width="65" height="74" viewBox="0 0 65 74" fill="none" xmlns="http://www.w3.org/2000/svg">
<path d="M41.4479 30.1668C43.1775 30.1668 44.5795 28.0149 44.5795 25.3603C44.5795 22.7057 43.1775 20.5537 41.4479 20.5537C39.7184 20.5537 38.3164 22.7057 38.3164 25.3603C38.3164 28.0149 39.7184 30.1668 41.4479 30.1668Z" fill="#1A3E2F"/>
<path d="M22.3472 28.6678C22.3472 31.3224 23.7492 33.4744 25.4787 33.4744C27.2082 33.4744 28.6102 31.3224 28.6102 28.6678C28.6102 26.0133 27.2082 23.8613 25.4787 23.8613C23.7492 23.8613 22.3472 26.0133 22.3472 28.6678Z" fill="#1A3E2F"/>
<path d="M36.5699 17.9061C36.9311 17.9061 37.2926 17.7701 37.571 17.4975C40.6055 14.5254 44.1327 13.8832 48.354 15.5342C49.0896 15.8216 49.9197 15.4586 50.2076 14.7229C50.4954 13.987 50.1322 13.1571 49.3963 12.8692C44.0906 10.7944 39.4382 11.6635 35.5688 15.4532C35.0043 16.0062 34.9948 16.912 35.5478 17.4764C35.828 17.7626 36.1988 17.9061 36.5699 17.9061Z" fill="#1A3E2F"/>
<path d="M30.2314 21.1444C30.9951 20.9415 31.4497 20.158 31.2469 19.3943C31.0441 18.6307 30.2604 18.1758 29.4969 18.3788C25.3915 19.4693 22.0061 18.2895 19.1469 14.7724C18.6483 14.1592 17.7473 14.0664 17.1342 14.5647C16.5211 15.0632 16.4281 15.9642 16.9265 16.5773C19.6653 19.9464 22.9166 21.6402 26.6255 21.6402C27.7834 21.6402 28.986 21.4751 30.2314 21.1444Z" fill="#1A3E2F"/>
<path d="M42.3677 38.0924C43.1329 38.2883 43.9127 37.827 44.1087 37.0614C44.3048 36.2959 43.8432 35.5166 43.0778 35.3204C34.1438 33.0323 26.3857 35.3495 20.0193 42.2081C19.4818 42.7871 19.5155 43.6924 20.0946 44.2299C20.37 44.4856 20.7193 44.6121 21.0676 44.6121C21.4517 44.6121 21.8346 44.4584 22.1165 44.1546C27.7932 38.039 34.4176 36.0559 42.3677 38.0924Z" fill="#1A3E2F"/>
<path d="M60.0773 49.6386C63.0243 44.6695 64.5793 38.9997 64.5793 33.19C64.5793 24.5651 61.2205 16.4565 55.1219 10.3577C49.0231 4.25906 40.9145 0.900391 32.2896 0.900391C23.6647 0.900391 15.5561 4.25906 9.45741 10.3577C3.35867 16.4564 0 24.5651 0 33.19C0 41.8149 3.35867 49.9235 9.45741 56.0222C15.5561 62.1209 23.6647 65.4795 32.2896 65.4795C33.189 65.4795 34.098 65.4398 35.0012 65.3645L38.5515 68.9148C41.322 71.6852 44.9613 73.0704 48.6006 73.0704C52.2398 73.0704 55.8791 71.6852 58.6497 68.9148C60.6786 66.8857 62.0326 64.3228 62.5652 61.5032C63.0977 58.6835 62.7718 55.8034 61.6226 53.1741L60.0773 49.6386ZM2.86142 33.19C2.86142 16.9632 16.0628 3.76181 32.2896 3.76181C48.5164 3.76181 61.7179 16.9632 61.7179 33.19C61.7179 37.8538 60.6195 42.4185 58.523 46.534C57.5793 45.4171 56.1039 44.8293 54.6036 45.0572C53.3831 45.243 52.3017 45.9463 51.637 46.9867C51.2801 47.5452 51.0618 48.1719 50.9894 48.816L42.4573 40.284C41.7419 39.5685 40.7907 39.1743 39.7789 39.1743C38.767 39.1743 37.8158 39.5685 37.1005 40.2838C36.3851 40.9992 35.991 41.9504 35.991 42.9622C35.991 43.9739 36.385 44.9251 37.1005 45.6406L40.0371 48.5772C39.743 48.7463 39.4694 48.9553 39.2231 49.2016L38.9669 49.4578C38.2343 50.1904 37.8309 51.1645 37.8309 52.2004C37.8309 52.3325 37.8375 52.4637 37.8505 52.5934C37.2209 52.7712 36.6441 53.108 36.1688 53.5831L35.8987 53.8532C35.0081 54.7439 34.642 55.9634 34.8004 57.1244C34.2172 57.3044 33.6682 57.6248 33.2074 58.0855C31.9835 59.3095 31.7506 61.1544 32.5078 62.6153C32.4351 62.6157 32.3621 62.6181 32.2896 62.6181C16.0628 62.6181 2.86142 49.4168 2.86142 33.19ZM56.6263 66.8914C52.2009 71.3168 45.0002 71.3168 40.5748 66.8914L36.5462 62.8627C36.544 62.8605 36.5418 62.8583 36.5396 62.8561L35.2308 61.5473C34.8342 61.1508 34.8342 60.5055 35.2308 60.1089C35.4229 59.9168 35.6784 59.8111 35.95 59.8111C36.2217 59.8111 36.4771 59.9168 36.6692 60.1089L37.0607 60.5004C37.6194 61.059 38.5254 61.059 39.0841 60.5004C39.3635 60.221 39.5031 59.8549 39.5031 59.4887C39.5031 59.1225 39.3635 58.7565 39.0841 58.477L37.9221 57.315C37.5255 56.9185 37.5255 56.2731 37.9219 55.8767L38.1921 55.6067C38.5885 55.2103 39.2338 55.21 39.6305 55.6067L40.8186 56.7946C41.3773 57.3534 42.2832 57.3531 42.8419 56.7946C43.4006 56.2357 43.4005 55.3299 42.8418 54.7712L40.9903 52.9196C40.5937 52.5231 40.5937 51.8778 40.9903 51.4812L41.2465 51.225C41.6418 50.8296 42.2843 50.8286 42.6812 51.2212L44.6006 53.1407C45.1593 53.6993 46.0652 53.6993 46.624 53.1407C47.1826 52.5819 47.1826 51.676 46.624 51.1173L44.7083 49.2016C44.7055 49.1988 44.7026 49.196 44.6999 49.1932L39.1239 43.6174C38.9489 43.4423 38.8525 43.2097 38.8525 42.9622C38.8525 42.7148 38.9489 42.4822 39.1239 42.3071C39.2989 42.1322 39.5314 42.0358 39.7789 42.0358C40.0263 42.0358 40.2589 42.1322 40.4339 42.3072L52.4213 54.2946C52.883 54.7561 53.5988 54.8466 54.1611 54.5145C54.7233 54.1821 54.989 53.5112 54.8069 52.8841L53.8804 49.692C53.7644 49.292 53.824 48.8784 54.0482 48.5275C54.2725 48.1765 54.6227 47.9486 55.0345 47.8859C55.671 47.7898 56.2967 48.1335 56.5548 48.724L57.161 50.111C57.1614 50.1119 57.1618 50.1128 57.1622 50.1138L59.0006 54.32C60.8846 58.6304 59.9526 63.565 56.6263 66.8914Z" fill="#1A3E2F"/>
</svg>
