<svg width="23" height="27" viewBox="0 0 23 27" fill="none" xmlns="http://www.w3.org/2000/svg">
<path d="M17.5451 26.5633C15.7754 25.9045 13.8895 26.0789 12.01 26.2856C11.3964 26.3566 10.757 26.3502 10.1821 26.686C9.89149 26.8539 9.56855 26.6279 9.42646 26.4083C9.02601 25.7818 8.37367 25.7301 7.76655 25.6462C6.7396 25.4976 5.68037 25.5234 4.66634 25.588C3.54251 25.6591 2.39284 25.6849 1.26255 25.8787C0.409993 26.0272 -0.0421197 25.6203 0.00309177 24.7548C0.0483033 23.7537 0.0741325 22.7397 0.229143 21.7515C0.384154 20.7504 0.397077 19.7493 0.506876 18.7482C0.739393 16.662 0.668348 14.5693 0.771689 12.4767C0.797524 11.9148 0.84919 11.3593 0.887942 10.7974C0.920236 10.3194 0.829813 9.85442 0.745848 9.38293C0.584379 8.43994 0.739395 7.47758 0.842736 6.5346C1.01712 4.96511 1.15921 3.37625 1.6307 1.85198C1.70175 1.61946 1.70175 1.39341 1.64362 1.14797C1.53382 0.721694 1.71466 0.443962 2.11511 0.250198C2.99996 -0.176082 3.89128 0.0370618 4.77613 0.198531C6.19061 0.456883 7.618 0.515009 9.04539 0.624809C9.72357 0.676479 10.3888 0.805656 11.0799 0.721692C11.4093 0.682939 11.6806 0.94775 11.8291 1.25777C11.9002 1.40632 11.9518 1.56133 12.1521 1.5032C13.0175 1.27069 13.8249 1.70343 14.671 1.71635C15.9111 1.74218 17.1447 1.76801 18.3913 1.70989C19.612 1.6453 20.8585 1.78093 22.0146 2.22013C22.7122 2.48494 22.9512 3.02102 22.9382 3.75732C22.893 5.52703 22.3182 7.21277 22.1696 8.95664C22.1503 9.15687 22.1503 9.36355 22.1632 9.57023C22.189 10.0482 21.879 10.3195 21.5367 10.5584C21.2137 10.778 20.9748 10.552 20.7035 10.397C19.5409 9.72524 18.2492 9.6219 16.9445 9.63482C16.5311 9.63482 16.1307 9.61544 15.7238 9.58315C14.4385 9.48627 13.1596 9.47335 11.8808 9.65419C11.5191 9.70586 11.2995 9.53794 11.1639 9.22146C11.0993 9.0729 11.151 8.75642 10.8603 8.87914C10.6213 8.98248 10.2661 9.22145 10.4276 9.4798C10.983 10.3711 10.4405 11.3399 10.7182 12.27C10.983 13.1613 10.6665 14.1237 10.6149 15.0602C10.5826 15.5898 10.5955 16.1194 10.5438 16.6426C10.5051 17.0818 10.7247 17.2562 11.1057 17.2433C12.0423 17.2045 12.9788 17.282 13.9153 17.3079C14.6129 17.3272 15.3169 17.3208 16.008 17.3918C16.7249 17.4629 17.4354 17.4047 18.1523 17.3918C19.2826 17.3595 19.6443 17.6437 19.8832 18.7417C20.077 19.633 20.0576 20.5243 19.9801 21.4286C19.8509 22.8882 19.8574 24.3544 20.1093 25.8076C20.2578 26.6796 19.7153 27.1833 18.8627 26.9379C18.4494 26.8217 18.0425 26.7054 17.5645 26.5698L17.5451 26.5633ZM8.25742 9.36355C7.86343 9.24729 7.54049 9.20854 7.22401 9.14395C6.40374 8.98248 5.58994 9.29896 4.78259 9.11165C4.20776 8.97602 3.63293 9.09228 3.05164 9.05353C2.57369 9.02769 2.34763 9.24083 2.35409 9.75108C2.36701 10.8362 2.01823 11.8825 2.05698 12.9934C2.08282 13.7943 1.94072 14.6145 1.98593 15.4348C2.02469 16.1388 2.11512 16.2228 2.81912 16.3067C4.69217 16.5263 6.57813 16.6684 8.44472 16.9591C8.79995 17.0172 9.00663 16.8751 9.0583 16.5199C9.08414 16.352 9.0906 16.1776 9.12935 16.0161C9.47812 14.3045 9.66544 12.5865 9.25853 10.8555C9.10352 10.2161 9.18748 9.37647 8.26388 9.35709L8.25742 9.36355ZM19.7928 3.1502C19.3407 2.98227 18.7077 2.8983 18.0489 2.91768C17.5064 2.9306 16.9639 3.0081 16.4213 2.99518C15.0327 2.95643 13.6376 2.98873 12.2425 2.96289C11.8227 2.95643 11.6677 3.15666 11.5966 3.51835C11.3512 4.80365 11.2543 6.10832 11.1316 7.41299C11.0928 7.80052 11.0218 8.38181 11.7775 8.05887C11.8291 8.03304 11.9131 8.07179 11.9777 8.08471C13.4697 8.40765 14.9875 8.28493 16.4988 8.37535C17.7777 8.45286 19.0759 8.25264 20.3353 8.62724C20.6454 8.71767 20.8327 8.60787 20.865 8.27847C20.936 7.57446 21.1879 6.92213 21.3623 6.25041C21.4592 5.88226 21.4979 5.52057 21.485 5.1395C21.4333 3.53127 21.6207 3.67336 19.7928 3.15665V3.1502ZM18.5721 24.9938C18.585 24.8776 18.6109 24.7548 18.6044 24.6386C18.5463 23.5018 18.5786 22.3586 18.6238 21.2219C18.6432 20.647 18.669 20.0851 18.5075 19.5103C18.359 18.9936 18.0812 18.8063 17.5839 18.7288C16.9509 18.6254 16.3309 18.8386 15.7044 18.7288C14.1349 18.4575 12.5525 18.6061 10.9766 18.5609C10.4405 18.5479 10.2919 18.6965 10.3565 19.1744C10.5826 20.8989 10.5632 22.6364 10.6407 24.3738C10.673 25.0519 10.7247 25.1036 11.377 25.0261C13.1015 24.813 14.8325 24.9098 16.557 24.9615C17.0866 24.9744 17.6097 25.0649 18.1135 25.2263C18.3331 25.2974 18.5269 25.2845 18.5721 24.9938ZM7.90218 18.309C7.48882 18.1087 6.95274 18.225 6.45541 18.0958C5.24116 17.7664 3.99462 17.8246 2.75453 17.8052C2.16032 17.7987 1.90198 18.1023 1.83093 18.5996C1.57904 20.3499 1.4434 22.1197 1.3013 23.8829C1.27547 24.2058 1.44986 24.4577 1.77926 24.3996C2.26367 24.3156 2.7287 24.4125 3.20019 24.4061C5.03448 24.3996 6.86878 24.2123 8.69661 24.4706C9.00018 24.5159 9.10352 24.3479 9.10352 24.0896C9.0906 22.6945 9.46521 21.3252 9.25207 19.9172C9.09706 18.929 8.91622 18.6125 7.89573 18.3154L7.90218 18.309ZM2.7287 2.49786C2.7287 2.49786 2.72224 2.49786 2.71578 2.49786C2.54785 3.38271 2.36055 4.26757 2.22492 5.15242C2.14095 5.6885 2.12157 6.23749 2.1022 6.78003C2.08928 7.22569 2.19907 7.57447 2.76099 7.60676C3.38749 7.64551 4.014 7.72948 4.63404 7.80698C5.33159 7.89095 6.02914 7.74239 6.71377 7.79406C7.5082 7.85865 8.26388 7.79406 9.03247 7.61968C9.51042 7.50988 9.7171 7.23215 9.76877 6.78003C9.84628 6.12124 9.94316 5.46244 10.0336 4.8101C10.1305 4.09964 10.2403 3.39563 10.3178 2.68516C10.3436 2.44619 10.3953 2.11679 10.0271 2.07804C8.9485 1.96824 7.86989 1.79385 6.79127 1.68405C5.76433 1.58071 4.72447 1.60009 3.69752 1.47091C3.25832 1.41278 2.96122 1.5355 2.87079 2.00053C2.8385 2.16846 2.78037 2.32993 2.73516 2.4914L2.7287 2.49786Z" fill="#1A3E2F"/>
</svg>
