<svg width="74" height="59" viewBox="0 0 74 59" fill="none" xmlns="http://www.w3.org/2000/svg">
<path d="M35.0159 3.23356C34.1861 2.76114 33.8938 1.70706 34.3663 0.874383C34.8387 0.044653 35.8957 -0.244698 36.7255 0.224802C36.7638 0.24547 50.2429 7.77182 47.4287 18.2745C46.1325 23.1168 39.8314 27.6285 31.1569 30.8349C22.8271 33.9146 12.1775 35.8928 1.73045 35.8279C0.776759 35.822 0.00613826 35.0484 0.0090862 34.0917C0.0149911 33.138 0.78855 32.3674 1.74527 32.3704C11.7607 32.4294 21.9772 30.5338 29.9699 27.5782C37.6201 24.7496 43.1003 21.0617 44.0897 17.3738C46.2038 9.48169 35.0577 3.24568 35.0252 3.22451L35.0159 3.23356ZM63.273 2.83496C62.6618 2.09974 62.7622 1.01313 63.4944 0.401927C64.2296 -0.20927 65.3162 -0.108882 65.9274 0.626333C70.3122 5.89686 72.754 10.9131 73.6253 15.6374C75.0101 23.1489 72.4679 29.8132 67.4602 35.5261C62.6149 41.0535 55.4455 45.6715 47.35 49.271C32.3979 55.9204 14.1502 59.1625 1.6162 58.2826C0.662507 58.2177 -0.0609461 57.3939 0.00405961 56.4402C0.0690177 55.4865 0.892824 54.763 1.84652 54.828C13.9021 55.6725 31.4944 52.5398 45.9416 46.115C53.6153 42.7018 60.3683 38.3763 64.859 33.2499C69.1876 28.3101 71.3991 22.6116 70.227 16.26C69.4593 12.0997 67.2566 7.61725 63.2735 2.83101L63.273 2.83496Z" fill="#1A3E2F"/>
</svg>
