<svg width="300" height="244" viewBox="0 0 300 244" fill="none" xmlns="http://www.w3.org/2000/svg">
<path d="M22.461 147.641C22.461 148.741 22.2834 149.752 21.9281 150.675C21.5796 151.59 21.0842 152.383 20.4419 153.053C19.7996 153.715 19.0309 154.231 18.1358 154.6C17.2407 154.969 16.2465 155.154 15.1532 155.154C14.0668 155.154 13.0726 154.969 12.1706 154.6C11.2755 154.231 10.5068 153.715 9.86454 153.053C9.22907 152.383 8.73369 151.59 8.37838 150.675C8.02306 149.752 7.84541 148.741 7.84541 147.641C7.84541 146.548 8.02306 145.54 8.37838 144.617C8.73369 143.695 9.22907 142.902 9.86454 142.24C10.5068 141.57 11.2755 141.051 12.1706 140.682C13.0726 140.306 14.0668 140.118 15.1532 140.118C16.2465 140.118 17.2407 140.306 18.1358 140.682C19.0309 141.051 19.7996 141.57 20.4419 142.24C21.0842 142.902 21.5796 143.695 21.9281 144.617C22.2834 145.54 22.461 146.548 22.461 147.641ZM20.2267 147.641C20.2267 146.766 20.1071 145.981 19.8679 145.284C19.6288 144.587 19.2871 143.996 18.843 143.51C18.4057 143.025 17.8727 142.653 17.2441 142.393C16.6223 142.134 15.9253 142.004 15.1532 142.004C14.3811 142.004 13.6807 142.134 13.0521 142.393C12.4303 142.653 11.8973 143.025 11.4532 143.51C11.0091 143.996 10.6674 144.587 10.4283 145.284C10.1891 145.981 10.0695 146.766 10.0695 147.641C10.0695 148.522 10.1891 149.312 10.4283 150.009C10.6674 150.699 11.0091 151.286 11.4532 151.771C11.8973 152.257 12.4303 152.629 13.0521 152.889C13.6807 153.141 14.3811 153.268 15.1532 153.268C15.9253 153.268 16.6223 153.141 17.2441 152.889C17.8727 152.629 18.4057 152.257 18.843 151.771C19.2871 151.286 19.6288 150.699 19.8679 150.009C20.1071 149.312 20.2267 148.522 20.2267 147.641ZM26.4781 146.585C26.813 145.902 27.2161 145.366 27.6876 144.976C28.159 144.587 28.7262 144.392 29.389 144.392C29.6145 144.392 29.8263 144.419 30.0244 144.474C30.2294 144.522 30.4071 144.597 30.5574 144.699L30.4242 146.206C30.3763 146.391 30.2636 146.483 30.0859 146.483C29.9903 146.483 29.8468 146.466 29.6555 146.432C29.4641 146.391 29.2591 146.37 29.0405 146.37C28.7193 146.37 28.4358 146.418 28.1898 146.514C27.9438 146.602 27.7217 146.739 27.5236 146.923C27.3323 147.101 27.1614 147.323 27.0111 147.59C26.8608 147.849 26.7207 148.147 26.5909 148.481V155H24.5923V144.587H25.7402C25.9588 144.587 26.1058 144.628 26.1809 144.71C26.2629 144.785 26.321 144.921 26.3552 145.12L26.4781 146.585ZM37.5351 150.378C36.722 150.405 36.0319 150.47 35.4648 150.572C34.8976 150.668 34.4364 150.798 34.0811 150.962C33.7258 151.126 33.4696 151.32 33.3124 151.546C33.1552 151.765 33.0767 152.011 33.0767 152.284C33.0767 152.544 33.1177 152.769 33.1997 152.96C33.2885 153.145 33.4046 153.299 33.5481 153.422C33.6985 153.538 33.8727 153.623 34.0709 153.678C34.269 153.732 34.4842 153.76 34.7166 153.76C35.024 153.76 35.3042 153.729 35.557 153.668C35.8167 153.606 36.0592 153.521 36.2847 153.411C36.5102 153.295 36.7254 153.155 36.9304 152.991C37.1354 152.827 37.337 152.639 37.5351 152.427V150.378ZM31.6725 146.042C32.2533 145.489 32.8819 145.075 33.5584 144.802C34.2417 144.529 34.9899 144.392 35.803 144.392C36.3975 144.392 36.9236 144.491 37.3814 144.689C37.8392 144.88 38.2253 145.15 38.5396 145.499C38.8539 145.847 39.0896 146.264 39.2468 146.749C39.4108 147.234 39.4928 147.771 39.4928 148.358V155H38.6011C38.4029 155 38.2526 154.969 38.1501 154.908C38.0476 154.839 37.9656 154.716 37.9041 154.539L37.6889 153.627C37.4224 153.873 37.1593 154.091 36.8997 154.283C36.64 154.467 36.3667 154.628 36.0797 154.764C35.7996 154.894 35.4989 154.993 35.1778 155.061C34.8566 155.13 34.5013 155.164 34.1119 155.164C33.7019 155.164 33.3158 155.109 32.9537 155C32.5984 154.884 32.2875 154.71 32.021 154.477C31.7545 154.245 31.5427 153.955 31.3855 153.606C31.2352 153.258 31.16 152.851 31.16 152.386C31.16 151.976 31.2694 151.584 31.488 151.208C31.7135 150.825 32.0756 150.483 32.5744 150.183C33.0801 149.882 33.736 149.636 34.5423 149.445C35.3554 149.254 36.3531 149.144 37.5351 149.117V148.358C37.5351 147.573 37.3677 146.985 37.0329 146.596C36.6981 146.206 36.2061 146.011 35.557 146.011C35.1197 146.011 34.7507 146.066 34.4501 146.175C34.1563 146.285 33.9 146.408 33.6814 146.544C33.4696 146.674 33.2817 146.794 33.1177 146.903C32.9605 147.012 32.7965 147.067 32.6257 147.067C32.489 147.067 32.3695 147.029 32.267 146.954C32.1713 146.879 32.0927 146.79 32.0312 146.688L31.6725 146.042ZM44.2182 139.872V155H42.2093V139.872H44.2182ZM54.2562 145.909C54.6935 145.465 55.1752 145.106 55.7014 144.833C56.2343 144.559 56.8459 144.423 57.536 144.423C58.11 144.423 58.6122 144.518 59.0427 144.71C59.48 144.901 59.8455 145.171 60.1394 145.519C60.4332 145.861 60.6552 146.274 60.8056 146.759C60.9559 147.245 61.0311 147.781 61.0311 148.369V155H59.0222V148.369C59.0222 147.624 58.8514 147.046 58.5097 146.637C58.1681 146.22 57.6453 146.011 56.9416 146.011C56.4291 146.011 55.9474 146.134 55.4964 146.38C55.0523 146.619 54.6389 146.947 54.2562 147.364V155H52.2576V139.872H54.2562V145.909ZM70.6259 148.635C70.6259 148.239 70.5678 147.873 70.4517 147.538C70.3424 147.204 70.1784 146.913 69.9597 146.667C69.7411 146.421 69.4746 146.23 69.1603 146.093C68.8459 145.957 68.4838 145.888 68.0738 145.888C67.2334 145.888 66.5706 146.131 66.0854 146.616C65.6071 147.101 65.3031 147.774 65.1732 148.635H70.6259ZM72.2761 153.514C72.0301 153.801 71.7465 154.05 71.4254 154.262C71.1042 154.467 70.7626 154.634 70.4004 154.764C70.0383 154.894 69.6625 154.99 69.273 155.051C68.8904 155.113 68.5111 155.143 68.1353 155.143C67.4179 155.143 66.7517 155.024 66.1367 154.785C65.5286 154.539 64.999 154.183 64.548 153.719C64.1039 153.247 63.7554 152.667 63.5026 151.976C63.2566 151.279 63.1336 150.48 63.1336 149.578C63.1336 148.854 63.2464 148.181 63.4719 147.559C63.6973 146.93 64.0185 146.384 64.4353 145.919C64.8589 145.454 65.3748 145.089 65.983 144.822C66.5911 144.556 67.2744 144.423 68.0328 144.423C68.6683 144.423 69.2525 144.529 69.7855 144.74C70.3253 144.945 70.7899 145.246 71.1794 145.642C71.5689 146.039 71.8729 146.527 72.0916 147.108C72.3171 147.689 72.4298 148.352 72.4298 149.096C72.4298 149.404 72.3956 149.612 72.3273 149.722C72.259 149.824 72.1326 149.875 71.9481 149.875H65.122C65.1425 150.497 65.2313 151.04 65.3885 151.505C65.5456 151.963 65.7609 152.345 66.0342 152.653C66.3143 152.96 66.6457 153.189 67.0284 153.34C67.411 153.49 67.8381 153.565 68.3096 153.565C68.7537 153.565 69.1363 153.514 69.4575 153.411C69.7855 153.309 70.0656 153.2 70.2979 153.083C70.5371 152.96 70.7352 152.848 70.8924 152.745C71.0564 152.643 71.1999 152.591 71.3229 152.591C71.4869 152.591 71.6133 152.653 71.7021 152.776L72.2761 153.514ZM80.1742 150.378C79.3611 150.405 78.6709 150.47 78.1038 150.572C77.5367 150.668 77.0754 150.798 76.7201 150.962C76.3648 151.126 76.1086 151.32 75.9514 151.546C75.7943 151.765 75.7157 152.011 75.7157 152.284C75.7157 152.544 75.7567 152.769 75.8387 152.96C75.9275 153.145 76.0437 153.299 76.1872 153.422C76.3375 153.538 76.5117 153.623 76.7099 153.678C76.908 153.732 77.1233 153.76 77.3556 153.76C77.6631 153.76 77.9432 153.729 78.196 153.668C78.4557 153.606 78.6983 153.521 78.9238 153.411C79.1492 153.295 79.3645 153.155 79.5695 152.991C79.7745 152.827 79.976 152.639 80.1742 152.427V150.378ZM74.3115 146.042C74.8923 145.489 75.521 145.075 76.1974 144.802C76.8807 144.529 77.6289 144.392 78.442 144.392C79.0365 144.392 79.5626 144.491 80.0204 144.689C80.4782 144.88 80.8643 145.15 81.1786 145.499C81.4929 145.847 81.7287 146.264 81.8858 146.749C82.0498 147.234 82.1318 147.771 82.1318 148.358V155H81.2401C81.042 155 80.8916 154.969 80.7891 154.908C80.6866 154.839 80.6047 154.716 80.5432 154.539L80.3279 153.627C80.0614 153.873 79.7984 154.091 79.5387 154.283C79.2791 154.467 79.0057 154.628 78.7188 154.764C78.4386 154.894 78.138 154.993 77.8168 155.061C77.4957 155.13 77.1404 155.164 76.7509 155.164C76.3409 155.164 75.9549 155.109 75.5927 155C75.2374 154.884 74.9265 154.71 74.66 154.477C74.3935 154.245 74.1817 153.955 74.0245 153.606C73.8742 153.258 73.7991 152.851 73.7991 152.386C73.7991 151.976 73.9084 151.584 74.127 151.208C74.3525 150.825 74.7147 150.483 75.2135 150.183C75.7191 149.882 76.3751 149.636 77.1814 149.445C77.9945 149.254 78.9921 149.144 80.1742 149.117V148.358C80.1742 147.573 80.0068 146.985 79.672 146.596C79.3371 146.206 78.8452 146.011 78.196 146.011C77.7587 146.011 77.3898 146.066 77.0891 146.175C76.7953 146.285 76.5391 146.408 76.3204 146.544C76.1086 146.674 75.9207 146.794 75.7567 146.903C75.5995 147.012 75.4355 147.067 75.2647 147.067C75.1281 147.067 75.0085 147.029 74.906 146.954C74.8103 146.879 74.7318 146.79 74.6703 146.688L74.3115 146.042ZM86.8573 139.872V155H84.8484V139.872H86.8573ZM92.9712 155.164C92.1307 155.164 91.4816 154.928 91.0238 154.457C90.5728 153.985 90.3473 153.312 90.3473 152.438V146.206H89.1379C89.0217 146.206 88.9227 146.172 88.8407 146.104C88.7655 146.028 88.7279 145.919 88.7279 145.776V144.966L90.4191 144.73L90.8701 141.625C90.8974 141.508 90.9486 141.42 91.0238 141.358C91.1058 141.29 91.2083 141.256 91.3313 141.256H92.346V144.751H95.2978V146.206H92.346V152.304C92.346 152.714 92.445 153.022 92.6432 153.227C92.8482 153.425 93.1078 153.524 93.4222 153.524C93.6066 153.524 93.7638 153.5 93.8936 153.452C94.0303 153.405 94.1464 153.353 94.2421 153.299C94.3378 153.237 94.4198 153.182 94.4881 153.135C94.5564 153.087 94.6179 153.063 94.6726 153.063C94.7409 153.063 94.7922 153.08 94.8263 153.114C94.8673 153.141 94.9083 153.189 94.9493 153.258L95.5438 154.221C95.2158 154.522 94.8263 154.754 94.3753 154.918C93.9244 155.082 93.4563 155.164 92.9712 155.164ZM99.1373 145.909C99.5746 145.465 100.056 145.106 100.582 144.833C101.115 144.559 101.727 144.423 102.417 144.423C102.991 144.423 103.493 144.518 103.924 144.71C104.361 144.901 104.727 145.171 105.02 145.519C105.314 145.861 105.536 146.274 105.687 146.759C105.837 147.245 105.912 147.781 105.912 148.369V155H103.903V148.369C103.903 147.624 103.732 147.046 103.391 146.637C103.049 146.22 102.526 146.011 101.823 146.011C101.31 146.011 100.828 146.134 100.377 146.38C99.9333 146.619 99.5199 146.947 99.1373 147.364V155H97.1387V139.872H99.1373V145.909ZM115.793 152.438C116.121 152.868 116.472 153.169 116.848 153.34C117.231 153.51 117.658 153.596 118.129 153.596C119.045 153.596 119.752 153.268 120.251 152.612C120.757 151.949 121.009 150.986 121.009 149.722C121.009 149.059 120.951 148.495 120.835 148.03C120.726 147.559 120.562 147.176 120.343 146.882C120.131 146.582 119.868 146.363 119.554 146.227C119.24 146.083 118.884 146.011 118.488 146.011C117.907 146.011 117.402 146.141 116.971 146.401C116.548 146.66 116.155 147.029 115.793 147.508V152.438ZM115.69 146.145C115.909 145.885 116.141 145.649 116.387 145.437C116.64 145.219 116.91 145.034 117.197 144.884C117.484 144.727 117.788 144.607 118.109 144.525C118.437 144.436 118.785 144.392 119.154 144.392C119.749 144.392 120.285 144.508 120.764 144.74C121.249 144.973 121.662 145.314 122.004 145.765C122.345 146.216 122.608 146.773 122.793 147.436C122.984 148.099 123.08 148.861 123.08 149.722C123.08 150.494 122.974 151.211 122.762 151.874C122.557 152.53 122.26 153.1 121.87 153.586C121.488 154.071 121.016 154.453 120.456 154.734C119.903 155.007 119.277 155.143 118.58 155.143C117.959 155.143 117.426 155.041 116.981 154.836C116.537 154.631 116.141 154.344 115.793 153.975V158.495H113.794V144.587H114.993C115.273 144.587 115.447 144.72 115.516 144.986L115.69 146.145ZM127.21 146.585C127.545 145.902 127.948 145.366 128.42 144.976C128.891 144.587 129.458 144.392 130.121 144.392C130.347 144.392 130.558 144.419 130.757 144.474C130.962 144.522 131.139 144.597 131.29 144.699L131.156 146.206C131.109 146.391 130.996 146.483 130.818 146.483C130.722 146.483 130.579 146.466 130.388 146.432C130.196 146.391 129.991 146.37 129.773 146.37C129.452 146.37 129.168 146.418 128.922 146.514C128.676 146.602 128.454 146.739 128.256 146.923C128.064 147.101 127.894 147.323 127.743 147.59C127.593 147.849 127.453 148.147 127.323 148.481V155H125.324V144.587H126.472C126.691 144.587 126.838 144.628 126.913 144.71C126.995 144.785 127.053 144.921 127.087 145.12L127.21 146.585ZM136.889 144.423C137.654 144.423 138.344 144.549 138.959 144.802C139.581 145.048 140.107 145.407 140.538 145.878C140.975 146.343 141.31 146.906 141.542 147.569C141.775 148.225 141.891 148.963 141.891 149.783C141.891 150.603 141.775 151.344 141.542 152.007C141.31 152.67 140.975 153.234 140.538 153.698C140.107 154.163 139.581 154.522 138.959 154.775C138.344 155.02 137.654 155.143 136.889 155.143C136.117 155.143 135.42 155.02 134.798 154.775C134.183 154.522 133.657 154.163 133.22 153.698C132.782 153.234 132.444 152.67 132.205 152.007C131.973 151.344 131.857 150.603 131.857 149.783C131.857 148.963 131.973 148.225 132.205 147.569C132.444 146.906 132.782 146.343 133.22 145.878C133.657 145.407 134.183 145.048 134.798 144.802C135.42 144.549 136.117 144.423 136.889 144.423ZM136.889 153.586C137.873 153.586 138.607 153.254 139.093 152.591C139.578 151.929 139.82 150.996 139.82 149.793C139.82 148.591 139.578 147.658 139.093 146.995C138.607 146.326 137.873 145.991 136.889 145.991C135.891 145.991 135.147 146.326 134.655 146.995C134.169 147.658 133.927 148.591 133.927 149.793C133.927 150.996 134.169 151.929 134.655 152.591C135.147 153.254 135.891 153.586 136.889 153.586ZM146.12 152.438C146.448 152.868 146.804 153.169 147.186 153.34C147.569 153.51 147.986 153.596 148.437 153.596C149.366 153.596 150.08 153.264 150.579 152.602C151.084 151.939 151.337 150.938 151.337 149.599C151.337 148.362 151.115 147.456 150.671 146.882C150.227 146.302 149.598 146.011 148.785 146.011C148.211 146.011 147.712 146.141 147.289 146.401C146.872 146.66 146.482 147.029 146.12 147.508V152.438ZM146.12 146.022C146.551 145.543 147.039 145.157 147.586 144.863C148.133 144.57 148.754 144.423 149.451 144.423C150.059 144.423 150.606 144.542 151.091 144.781C151.583 145.014 152 145.352 152.342 145.796C152.683 146.233 152.946 146.766 153.131 147.395C153.315 148.024 153.408 148.734 153.408 149.527C153.408 150.367 153.302 151.133 153.09 151.823C152.885 152.513 152.588 153.104 152.198 153.596C151.816 154.088 151.347 154.47 150.794 154.744C150.241 155.01 149.619 155.143 148.929 155.143C148.594 155.143 148.286 155.109 148.006 155.041C147.726 154.98 147.466 154.887 147.227 154.764C146.995 154.641 146.78 154.491 146.582 154.313C146.383 154.136 146.195 153.934 146.018 153.709L145.926 154.58C145.871 154.86 145.7 155 145.413 155H144.122V139.872H146.12V146.022ZM157.682 139.872V155H155.673V139.872H157.682ZM167.435 148.635C167.435 148.239 167.376 147.873 167.26 147.538C167.151 147.204 166.987 146.913 166.768 146.667C166.55 146.421 166.283 146.23 165.969 146.093C165.655 145.957 165.292 145.888 164.882 145.888C164.042 145.888 163.379 146.131 162.894 146.616C162.416 147.101 162.112 147.774 161.982 148.635H167.435ZM169.085 153.514C168.839 153.801 168.555 154.05 168.234 154.262C167.913 154.467 167.571 154.634 167.209 154.764C166.847 154.894 166.471 154.99 166.082 155.051C165.699 155.113 165.32 155.143 164.944 155.143C164.226 155.143 163.56 155.024 162.945 154.785C162.337 154.539 161.808 154.183 161.357 153.719C160.913 153.247 160.564 152.667 160.311 151.976C160.065 151.279 159.942 150.48 159.942 149.578C159.942 148.854 160.055 148.181 160.28 147.559C160.506 146.93 160.827 146.384 161.244 145.919C161.668 145.454 162.183 145.089 162.792 144.822C163.4 144.556 164.083 144.423 164.841 144.423C165.477 144.423 166.061 144.529 166.594 144.74C167.134 144.945 167.599 145.246 167.988 145.642C168.377 146.039 168.682 146.527 168.9 147.108C169.126 147.689 169.238 148.352 169.238 149.096C169.238 149.404 169.204 149.612 169.136 149.722C169.068 149.824 168.941 149.875 168.757 149.875H161.931C161.951 150.497 162.04 151.04 162.197 151.505C162.354 151.963 162.569 152.345 162.843 152.653C163.123 152.96 163.454 153.189 163.837 153.34C164.22 153.49 164.647 153.565 165.118 153.565C165.562 153.565 165.945 153.514 166.266 153.411C166.594 153.309 166.874 153.2 167.107 153.083C167.346 152.96 167.544 152.848 167.701 152.745C167.865 152.643 168.009 152.591 168.131 152.591C168.295 152.591 168.422 152.653 168.511 152.776L169.085 153.514ZM171.387 155V144.587H172.586C172.866 144.587 173.04 144.72 173.109 144.986L173.252 145.981C173.635 145.523 174.058 145.15 174.523 144.863C174.994 144.57 175.544 144.423 176.173 144.423C176.863 144.423 177.424 144.614 177.854 144.997C178.284 145.372 178.599 145.885 178.797 146.534C178.947 146.165 179.142 145.847 179.381 145.581C179.62 145.314 179.887 145.096 180.181 144.925C180.474 144.754 180.785 144.628 181.113 144.546C181.448 144.464 181.786 144.423 182.128 144.423C182.681 144.423 183.173 144.511 183.604 144.689C184.041 144.86 184.41 145.113 184.711 145.448C185.011 145.782 185.24 146.196 185.398 146.688C185.555 147.18 185.633 147.74 185.633 148.369V155H183.624V148.369C183.624 147.59 183.454 147.002 183.112 146.606C182.777 146.209 182.285 146.011 181.636 146.011C181.349 146.011 181.076 146.063 180.816 146.165C180.556 146.261 180.328 146.408 180.129 146.606C179.938 146.804 179.784 147.05 179.668 147.344C179.559 147.638 179.504 147.979 179.504 148.369V155H177.495V148.369C177.495 147.562 177.335 146.968 177.014 146.585C176.692 146.203 176.221 146.011 175.599 146.011C175.169 146.011 174.769 146.124 174.4 146.35C174.031 146.575 173.693 146.882 173.385 147.272V155H171.387ZM194.462 146.38C194.407 146.469 194.349 146.534 194.287 146.575C194.226 146.609 194.147 146.626 194.052 146.626C193.942 146.626 193.819 146.589 193.683 146.514C193.553 146.438 193.392 146.356 193.201 146.268C193.016 146.179 192.798 146.097 192.545 146.022C192.292 145.946 191.991 145.909 191.643 145.909C191.356 145.909 191.093 145.946 190.854 146.022C190.621 146.09 190.423 146.189 190.259 146.319C190.095 146.442 189.969 146.592 189.88 146.77C189.791 146.941 189.747 147.125 189.747 147.323C189.747 147.583 189.822 147.798 189.972 147.969C190.129 148.14 190.331 148.287 190.577 148.41C190.83 148.533 191.113 148.645 191.428 148.748C191.749 148.844 192.073 148.946 192.401 149.055C192.736 149.165 193.061 149.291 193.375 149.435C193.696 149.571 193.98 149.745 194.226 149.957C194.479 150.162 194.68 150.412 194.831 150.706C194.988 150.999 195.066 151.358 195.066 151.782C195.066 152.267 194.977 152.718 194.8 153.135C194.629 153.545 194.373 153.9 194.031 154.201C193.696 154.501 193.279 154.737 192.781 154.908C192.282 155.079 191.711 155.164 191.069 155.164C190.352 155.164 189.689 155.044 189.081 154.805C188.472 154.566 187.963 154.262 187.553 153.893L188.025 153.124C188.08 153.029 188.148 152.957 188.23 152.909C188.312 152.854 188.421 152.827 188.558 152.827C188.688 152.827 188.821 152.875 188.958 152.971C189.094 153.066 189.258 153.172 189.45 153.288C189.641 153.398 189.873 153.5 190.147 153.596C190.42 153.685 190.762 153.729 191.171 153.729C191.513 153.729 191.81 153.688 192.063 153.606C192.316 153.517 192.524 153.401 192.688 153.258C192.859 153.107 192.986 152.936 193.068 152.745C193.15 152.554 193.191 152.352 193.191 152.14C193.191 151.867 193.112 151.642 192.955 151.464C192.805 151.279 192.603 151.122 192.35 150.992C192.104 150.863 191.821 150.75 191.499 150.654C191.178 150.559 190.85 150.456 190.516 150.347C190.181 150.237 189.853 150.111 189.532 149.968C189.21 149.824 188.923 149.643 188.671 149.424C188.425 149.206 188.223 148.939 188.066 148.625C187.916 148.311 187.84 147.928 187.84 147.477C187.84 147.074 187.922 146.688 188.086 146.319C188.257 145.95 188.5 145.625 188.814 145.345C189.135 145.065 189.528 144.843 189.993 144.679C190.464 144.508 191.001 144.423 191.602 144.423C192.292 144.423 192.914 144.532 193.467 144.751C194.028 144.969 194.506 145.27 194.902 145.653L194.462 146.38ZM208.011 150.378C207.198 150.405 206.508 150.47 205.941 150.572C205.374 150.668 204.912 150.798 204.557 150.962C204.202 151.126 203.946 151.32 203.788 151.546C203.631 151.765 203.553 152.011 203.553 152.284C203.553 152.544 203.594 152.769 203.676 152.96C203.765 153.145 203.881 153.299 204.024 153.422C204.175 153.538 204.349 153.623 204.547 153.678C204.745 153.732 204.96 153.76 205.193 153.76C205.5 153.76 205.78 153.729 206.033 153.668C206.293 153.606 206.535 153.521 206.761 153.411C206.986 153.295 207.202 153.155 207.406 152.991C207.611 152.827 207.813 152.639 208.011 152.427V150.378ZM202.149 146.042C202.729 145.489 203.358 145.075 204.034 144.802C204.718 144.529 205.466 144.392 206.279 144.392C206.874 144.392 207.4 144.491 207.857 144.689C208.315 144.88 208.701 145.15 209.016 145.499C209.33 145.847 209.566 146.264 209.723 146.749C209.887 147.234 209.969 147.771 209.969 148.358V155H209.077C208.879 155 208.729 154.969 208.626 154.908C208.524 154.839 208.442 154.716 208.38 154.539L208.165 153.627C207.898 153.873 207.635 154.091 207.376 154.283C207.116 154.467 206.843 154.628 206.556 154.764C206.276 154.894 205.975 154.993 205.654 155.061C205.333 155.13 204.977 155.164 204.588 155.164C204.178 155.164 203.792 155.109 203.43 155C203.074 154.884 202.764 154.71 202.497 154.477C202.231 154.245 202.019 153.955 201.862 153.606C201.711 153.258 201.636 152.851 201.636 152.386C201.636 151.976 201.745 151.584 201.964 151.208C202.19 150.825 202.552 150.483 203.051 150.183C203.556 149.882 204.212 149.636 205.018 149.445C205.832 149.254 206.829 149.144 208.011 149.117V148.358C208.011 147.573 207.844 146.985 207.509 146.596C207.174 146.206 206.682 146.011 206.033 146.011C205.596 146.011 205.227 146.066 204.926 146.175C204.632 146.285 204.376 146.408 204.157 146.544C203.946 146.674 203.758 146.794 203.594 146.903C203.437 147.012 203.273 147.067 203.102 147.067C202.965 147.067 202.846 147.029 202.743 146.954C202.647 146.879 202.569 146.79 202.507 146.688L202.149 146.042ZM214.53 146.585C214.865 145.902 215.268 145.366 215.74 144.976C216.211 144.587 216.778 144.392 217.441 144.392C217.667 144.392 217.878 144.419 218.077 144.474C218.282 144.522 218.459 144.597 218.61 144.699L218.476 146.206C218.428 146.391 218.316 146.483 218.138 146.483C218.042 146.483 217.899 146.466 217.708 146.432C217.516 146.391 217.311 146.37 217.093 146.37C216.772 146.37 216.488 146.418 216.242 146.514C215.996 146.602 215.774 146.739 215.576 146.923C215.384 147.101 215.214 147.323 215.063 147.59C214.913 147.849 214.773 148.147 214.643 148.481V155H212.644V144.587H213.792C214.011 144.587 214.158 144.628 214.233 144.71C214.315 144.785 214.373 144.921 214.407 145.12L214.53 146.585ZM226.669 148.635C226.669 148.239 226.611 147.873 226.495 147.538C226.385 147.204 226.221 146.913 226.003 146.667C225.784 146.421 225.517 146.23 225.203 146.093C224.889 145.957 224.527 145.888 224.117 145.888C223.276 145.888 222.613 146.131 222.128 146.616C221.65 147.101 221.346 147.774 221.216 148.635H226.669ZM228.319 153.514C228.073 153.801 227.789 154.05 227.468 154.262C227.147 154.467 226.805 154.634 226.443 154.764C226.081 154.894 225.705 154.99 225.316 155.051C224.933 155.113 224.554 155.143 224.178 155.143C223.461 155.143 222.795 155.024 222.18 154.785C221.571 154.539 221.042 154.183 220.591 153.719C220.147 153.247 219.798 152.667 219.545 151.976C219.299 151.279 219.176 150.48 219.176 149.578C219.176 148.854 219.289 148.181 219.515 147.559C219.74 146.93 220.061 146.384 220.478 145.919C220.902 145.454 221.418 145.089 222.026 144.822C222.634 144.556 223.317 144.423 224.076 144.423C224.711 144.423 225.295 144.529 225.828 144.74C226.368 144.945 226.833 145.246 227.222 145.642C227.612 146.039 227.916 146.527 228.134 147.108C228.36 147.689 228.473 148.352 228.473 149.096C228.473 149.404 228.439 149.612 228.37 149.722C228.302 149.824 228.175 149.875 227.991 149.875H221.165C221.185 150.497 221.274 151.04 221.431 151.505C221.588 151.963 221.804 152.345 222.077 152.653C222.357 152.96 222.689 153.189 223.071 153.34C223.454 153.49 223.881 153.565 224.352 153.565C224.797 153.565 225.179 153.514 225.5 153.411C225.828 153.309 226.108 153.2 226.341 153.083C226.58 152.96 226.778 152.848 226.935 152.745C227.099 152.643 227.243 152.591 227.366 152.591C227.53 152.591 227.656 152.653 227.745 152.776L228.319 153.514ZM249.868 144.587L246.516 155H244.917C244.726 155 244.596 154.874 244.528 154.621L242.334 147.836C242.28 147.665 242.232 147.497 242.191 147.333C242.15 147.163 242.112 146.992 242.078 146.821C242.017 147.176 241.931 147.521 241.822 147.856L239.598 154.621C239.529 154.874 239.382 155 239.157 155H237.64L234.278 144.587H235.857C236.014 144.587 236.144 144.624 236.246 144.699C236.356 144.775 236.427 144.87 236.461 144.986L238.337 151.382C238.399 151.642 238.453 151.894 238.501 152.14C238.549 152.386 238.593 152.632 238.634 152.878C238.696 152.632 238.761 152.386 238.829 152.14C238.904 151.894 238.979 151.642 239.055 151.382L241.135 144.945C241.169 144.829 241.234 144.737 241.33 144.669C241.426 144.593 241.542 144.556 241.678 144.556H242.55C242.7 144.556 242.823 144.593 242.919 144.669C243.021 144.737 243.089 144.829 243.124 144.945L245.153 151.382C245.228 151.642 245.3 151.898 245.368 152.151C245.436 152.397 245.498 152.646 245.553 152.899C245.594 152.653 245.641 152.407 245.696 152.161C245.751 151.908 245.812 151.648 245.881 151.382L247.787 144.986C247.821 144.87 247.889 144.775 247.992 144.699C248.101 144.624 248.224 144.587 248.361 144.587H249.868ZM253.651 144.587V155H251.652V144.587H253.651ZM254.03 141.368C254.03 141.553 253.993 141.73 253.917 141.901C253.842 142.065 253.74 142.212 253.61 142.342C253.487 142.465 253.34 142.564 253.169 142.639C252.998 142.708 252.821 142.742 252.636 142.742C252.452 142.742 252.277 142.708 252.114 142.639C251.95 142.564 251.803 142.465 251.673 142.342C251.55 142.212 251.451 142.065 251.376 141.901C251.307 141.73 251.273 141.553 251.273 141.368C251.273 141.177 251.307 140.999 251.376 140.835C251.451 140.665 251.55 140.518 251.673 140.395C251.803 140.265 251.95 140.166 252.114 140.097C252.277 140.022 252.452 139.985 252.636 139.985C252.821 139.985 252.998 140.022 253.169 140.097C253.34 140.166 253.487 140.265 253.61 140.395C253.74 140.518 253.842 140.665 253.917 140.835C253.993 140.999 254.03 141.177 254.03 141.368ZM263.258 147.108C262.93 146.678 262.575 146.377 262.192 146.206C261.816 146.035 261.393 145.95 260.921 145.95C260.005 145.95 259.295 146.281 258.789 146.944C258.29 147.6 258.041 148.56 258.041 149.824C258.041 150.487 258.096 151.054 258.205 151.525C258.321 151.99 258.485 152.373 258.697 152.673C258.916 152.967 259.182 153.186 259.496 153.329C259.811 153.466 260.166 153.534 260.562 153.534C261.143 153.534 261.645 153.405 262.069 153.145C262.493 152.885 262.889 152.52 263.258 152.048V147.108ZM265.267 139.872V155H264.057C263.777 155 263.603 154.867 263.535 154.6L263.36 153.401C262.916 153.927 262.411 154.351 261.844 154.672C261.283 154.986 260.634 155.143 259.896 155.143C259.302 155.143 258.762 155.027 258.277 154.795C257.798 154.563 257.388 154.224 257.047 153.78C256.705 153.329 256.442 152.772 256.258 152.11C256.073 151.447 255.981 150.685 255.981 149.824C255.981 149.052 256.083 148.334 256.288 147.672C256.493 147.009 256.791 146.435 257.18 145.95C257.57 145.465 258.041 145.085 258.594 144.812C259.148 144.532 259.773 144.392 260.47 144.392C261.099 144.392 261.632 144.494 262.069 144.699C262.513 144.904 262.909 145.195 263.258 145.571V139.872H265.267ZM274.953 148.635C274.953 148.239 274.895 147.873 274.779 147.538C274.669 147.204 274.505 146.913 274.287 146.667C274.068 146.421 273.802 146.23 273.487 146.093C273.173 145.957 272.811 145.888 272.401 145.888C271.56 145.888 270.898 146.131 270.413 146.616C269.934 147.101 269.63 147.774 269.5 148.635H274.953ZM276.603 153.514C276.357 153.801 276.074 154.05 275.752 154.262C275.431 154.467 275.09 154.634 274.728 154.764C274.365 154.894 273.99 154.99 273.6 155.051C273.217 155.113 272.838 155.143 272.462 155.143C271.745 155.143 271.079 155.024 270.464 154.785C269.856 154.539 269.326 154.183 268.875 153.719C268.431 153.247 268.082 152.667 267.83 151.976C267.584 151.279 267.461 150.48 267.461 149.578C267.461 148.854 267.573 148.181 267.799 147.559C268.024 146.93 268.346 146.384 268.762 145.919C269.186 145.454 269.702 145.089 270.31 144.822C270.918 144.556 271.601 144.423 272.36 144.423C272.995 144.423 273.58 144.529 274.113 144.74C274.652 144.945 275.117 145.246 275.506 145.642C275.896 146.039 276.2 146.527 276.419 147.108C276.644 147.689 276.757 148.352 276.757 149.096C276.757 149.404 276.723 149.612 276.654 149.722C276.586 149.824 276.46 149.875 276.275 149.875H269.449C269.47 150.497 269.558 151.04 269.716 151.505C269.873 151.963 270.088 152.345 270.361 152.653C270.641 152.96 270.973 153.189 271.355 153.34C271.738 153.49 272.165 153.565 272.637 153.565C273.081 153.565 273.463 153.514 273.785 153.411C274.113 153.309 274.393 153.2 274.625 153.083C274.864 152.96 275.062 152.848 275.219 152.745C275.383 152.643 275.527 152.591 275.65 152.591C275.814 152.591 275.94 152.653 276.029 152.776L276.603 153.514ZM280.955 139.872V155H278.946V139.872H280.955ZM292.911 144.587L287.13 158.024C287.069 158.174 286.987 158.29 286.884 158.372C286.782 158.454 286.632 158.495 286.433 158.495H284.947L286.854 154.344L282.58 144.587H284.322C284.493 144.587 284.626 144.628 284.722 144.71C284.817 144.792 284.886 144.884 284.927 144.986L287.571 151.238C287.626 151.396 287.677 151.556 287.725 151.72C287.779 151.877 287.824 152.035 287.858 152.192C287.906 152.028 287.957 151.867 288.012 151.71C288.066 151.546 288.125 151.385 288.186 151.228L290.738 144.986C290.786 144.87 290.861 144.775 290.964 144.699C291.066 144.624 291.182 144.587 291.312 144.587H292.911ZM31.8057 177.438C32.1336 177.868 32.4855 178.169 32.8613 178.34C33.244 178.51 33.671 178.596 34.1425 178.596C35.0581 178.596 35.7653 178.268 36.2641 177.612C36.7698 176.949 37.0226 175.986 37.0226 174.722C37.0226 174.059 36.9645 173.495 36.8484 173.03C36.739 172.559 36.575 172.176 36.3564 171.882C36.1446 171.582 35.8815 171.363 35.5672 171.227C35.2529 171.083 34.8976 171.011 34.5012 171.011C33.9204 171.011 33.4148 171.141 32.9843 171.401C32.5607 171.66 32.1678 172.029 31.8057 172.508V177.438ZM31.7032 171.145C31.9218 170.885 32.1541 170.649 32.4001 170.437C32.6529 170.219 32.9228 170.034 33.2098 169.884C33.4968 169.727 33.8009 169.607 34.122 169.525C34.45 169.436 34.7985 169.392 35.1675 169.392C35.7619 169.392 36.2983 169.508 36.7766 169.74C37.2617 169.973 37.6751 170.314 38.0168 170.765C38.3584 171.216 38.6215 171.773 38.806 172.436C38.9973 173.099 39.093 173.861 39.093 174.722C39.093 175.494 38.9871 176.211 38.7752 176.874C38.5703 177.53 38.273 178.1 37.8835 178.586C37.5009 179.071 37.0294 179.453 36.4691 179.734C35.9157 180.007 35.2904 180.143 34.5935 180.143C33.9717 180.143 33.4387 180.041 32.9946 179.836C32.5504 179.631 32.1541 179.344 31.8057 178.975V183.495H29.807V169.587H31.0062C31.2864 169.587 31.4606 169.72 31.5289 169.986L31.7032 171.145ZM48.2354 173.635C48.2354 173.239 48.1773 172.873 48.0612 172.538C47.9519 172.204 47.7879 171.913 47.5692 171.667C47.3506 171.421 47.0841 171.23 46.7698 171.093C46.4554 170.957 46.0933 170.888 45.6833 170.888C44.8429 170.888 44.1801 171.131 43.6949 171.616C43.2166 172.101 42.9126 172.774 42.7827 173.635H48.2354ZM49.8856 178.514C49.6396 178.801 49.356 179.05 49.0349 179.262C48.7137 179.467 48.3721 179.634 48.0099 179.764C47.6478 179.894 47.272 179.99 46.8825 180.051C46.4999 180.113 46.1206 180.143 45.7448 180.143C45.0274 180.143 44.3612 180.024 43.7462 179.785C43.1381 179.539 42.6085 179.183 42.1575 178.719C41.7134 178.247 41.3649 177.667 41.1121 176.976C40.8661 176.279 40.7431 175.48 40.7431 174.578C40.7431 173.854 40.8559 173.181 41.0813 172.559C41.3068 171.93 41.628 171.384 42.0448 170.919C42.4684 170.454 42.9843 170.089 43.5924 169.822C44.2006 169.556 44.8839 169.423 45.6423 169.423C46.2778 169.423 46.862 169.529 47.395 169.74C47.9348 169.945 48.3994 170.246 48.7889 170.642C49.1784 171.039 49.4824 171.527 49.7011 172.108C49.9266 172.689 50.0393 173.352 50.0393 174.096C50.0393 174.404 50.0051 174.612 49.9368 174.722C49.8685 174.824 49.7421 174.875 49.5576 174.875H42.7315C42.752 175.497 42.8408 176.04 42.998 176.505C43.1551 176.963 43.3704 177.345 43.6437 177.653C43.9238 177.96 44.2552 178.189 44.6379 178.34C45.0205 178.49 45.4476 178.565 45.9191 178.565C46.3632 178.565 46.7458 178.514 47.067 178.411C47.395 178.309 47.6751 178.2 47.9074 178.083C48.1466 177.96 48.3447 177.848 48.5019 177.745C48.6659 177.643 48.8094 177.591 48.9324 177.591C49.0964 177.591 49.2228 177.653 49.3116 177.776L49.8856 178.514ZM54.0734 171.585C54.4082 170.902 54.8114 170.366 55.2828 169.976C55.7543 169.587 56.3214 169.392 56.9842 169.392C57.2097 169.392 57.4215 169.419 57.6197 169.474C57.8247 169.522 58.0023 169.597 58.1527 169.699L58.0194 171.206C57.9716 171.391 57.8588 171.483 57.6812 171.483C57.5855 171.483 57.442 171.466 57.2507 171.432C57.0594 171.391 56.8544 171.37 56.6357 171.37C56.3146 171.37 56.031 171.418 55.7851 171.514C55.5391 171.602 55.317 171.739 55.1188 171.923C54.9275 172.101 54.7567 172.323 54.6064 172.59C54.456 172.849 54.316 173.147 54.1861 173.481V180H52.1875V169.587H53.3354C53.5541 169.587 53.701 169.628 53.7762 169.71C53.8582 169.785 53.9162 169.921 53.9504 170.12L54.0734 171.585ZM68.7343 169.587L64.5116 180H62.7077L58.485 169.587H60.1351C60.2923 169.587 60.4221 169.624 60.5246 169.699C60.6271 169.775 60.6954 169.87 60.7296 169.986L63.2202 176.382C63.309 176.648 63.3842 176.915 63.4457 177.181C63.514 177.441 63.5755 177.701 63.6302 177.96C63.6848 177.701 63.7463 177.441 63.8146 177.181C63.883 176.922 63.965 176.655 64.0606 176.382L66.582 169.986C66.623 169.87 66.6947 169.775 66.7972 169.699C66.8997 169.624 67.0227 169.587 67.1662 169.587H68.7343ZM75.6801 175.378C74.8669 175.405 74.1768 175.47 73.6097 175.572C73.0426 175.668 72.5813 175.798 72.226 175.962C71.8707 176.126 71.6145 176.32 71.4573 176.546C71.3002 176.765 71.2216 177.011 71.2216 177.284C71.2216 177.544 71.2626 177.769 71.3446 177.96C71.4334 178.145 71.5496 178.299 71.6931 178.422C71.8434 178.538 72.0176 178.623 72.2158 178.678C72.4139 178.732 72.6292 178.76 72.8615 178.76C73.169 178.76 73.4491 178.729 73.7019 178.668C73.9616 178.606 74.2042 178.521 74.4296 178.411C74.6551 178.295 74.8704 178.155 75.0753 177.991C75.2803 177.827 75.4819 177.639 75.6801 177.427V175.378ZM69.8174 171.042C70.3982 170.489 71.0268 170.075 71.7033 169.802C72.3866 169.529 73.1348 169.392 73.9479 169.392C74.5424 169.392 75.0685 169.491 75.5263 169.689C75.9841 169.88 76.3702 170.15 76.6845 170.499C76.9988 170.847 77.2346 171.264 77.3917 171.749C77.5557 172.234 77.6377 172.771 77.6377 173.358V180H76.746C76.5478 180 76.3975 179.969 76.295 179.908C76.1925 179.839 76.1105 179.716 76.049 179.539L75.8338 178.627C75.5673 178.873 75.3043 179.091 75.0446 179.283C74.7849 179.467 74.5116 179.628 74.2246 179.764C73.9445 179.894 73.6439 179.993 73.3227 180.061C73.0016 180.13 72.6462 180.164 72.2568 180.164C71.8468 180.164 71.4607 180.109 71.0986 180C70.7433 179.884 70.4324 179.71 70.1659 179.477C69.8994 179.245 69.6876 178.955 69.5304 178.606C69.3801 178.258 69.3049 177.851 69.3049 177.386C69.3049 176.976 69.4143 176.584 69.6329 176.208C69.8584 175.825 70.2206 175.483 70.7194 175.183C71.225 174.882 71.881 174.636 72.6872 174.445C73.5004 174.254 74.498 174.144 75.6801 174.117V173.358C75.6801 172.573 75.5127 171.985 75.1778 171.596C74.843 171.206 74.3511 171.011 73.7019 171.011C73.2646 171.011 72.8956 171.066 72.595 171.175C72.3012 171.285 72.0449 171.408 71.8263 171.544C71.6145 171.674 71.4266 171.794 71.2626 171.903C71.1054 172.012 70.9414 172.067 70.7706 172.067C70.6339 172.067 70.5144 172.029 70.4119 171.954C70.3162 171.879 70.2376 171.79 70.1761 171.688L69.8174 171.042ZM86.4526 171.38C86.398 171.469 86.3399 171.534 86.2784 171.575C86.2169 171.609 86.1383 171.626 86.0427 171.626C85.9333 171.626 85.8104 171.589 85.6737 171.514C85.5439 171.438 85.3833 171.356 85.192 171.268C85.0075 171.179 84.7888 171.097 84.536 171.022C84.2832 170.946 83.9825 170.909 83.6341 170.909C83.3471 170.909 83.084 170.946 82.8449 171.022C82.6125 171.09 82.4144 171.189 82.2504 171.319C82.0864 171.442 81.96 171.592 81.8712 171.77C81.7823 171.941 81.7379 172.125 81.7379 172.323C81.7379 172.583 81.8131 172.798 81.9634 172.969C82.1206 173.14 82.3221 173.287 82.5681 173.41C82.821 173.533 83.1045 173.645 83.4188 173.748C83.74 173.844 84.0645 173.946 84.3925 174.055C84.7273 174.165 85.0519 174.291 85.3662 174.435C85.6874 174.571 85.9709 174.745 86.2169 174.957C86.4697 175.162 86.6713 175.412 86.8216 175.706C86.9788 175.999 87.0574 176.358 87.0574 176.782C87.0574 177.267 86.9685 177.718 86.7909 178.135C86.6201 178.545 86.3638 178.9 86.0222 179.201C85.6874 179.501 85.2706 179.737 84.7718 179.908C84.2729 180.079 83.7024 180.164 83.0601 180.164C82.3426 180.164 81.6799 180.044 81.0717 179.805C80.4636 179.566 79.9545 179.262 79.5446 178.893L80.016 178.124C80.0707 178.029 80.139 177.957 80.221 177.909C80.303 177.854 80.4123 177.827 80.549 177.827C80.6788 177.827 80.8121 177.875 80.9487 177.971C81.0854 178.066 81.2494 178.172 81.4407 178.288C81.632 178.398 81.8643 178.5 82.1377 178.596C82.411 178.685 82.7526 178.729 83.1626 178.729C83.5042 178.729 83.8015 178.688 84.0543 178.606C84.3071 178.517 84.5155 178.401 84.6795 178.258C84.8503 178.107 84.9767 177.936 85.0587 177.745C85.1407 177.554 85.1817 177.352 85.1817 177.14C85.1817 176.867 85.1031 176.642 84.946 176.464C84.7957 176.279 84.5941 176.122 84.3413 175.992C84.0953 175.863 83.8117 175.75 83.4906 175.654C83.1694 175.559 82.8415 175.456 82.5066 175.347C82.1718 175.237 81.8438 175.111 81.5227 174.968C81.2015 174.824 80.9146 174.643 80.6617 174.424C80.4158 174.206 80.2142 173.939 80.057 173.625C79.9067 173.311 79.8315 172.928 79.8315 172.477C79.8315 172.074 79.9135 171.688 80.0775 171.319C80.2484 170.95 80.4909 170.625 80.8052 170.345C81.1264 170.065 81.5193 169.843 81.9839 169.679C82.4554 169.508 82.9918 169.423 83.5931 169.423C84.2832 169.423 84.905 169.532 85.4585 169.751C86.0188 169.969 86.4971 170.27 86.8934 170.653L86.4526 171.38ZM91.3123 169.587V180H89.3137V169.587H91.3123ZM91.6915 166.368C91.6915 166.553 91.6539 166.73 91.5788 166.901C91.5036 167.065 91.4011 167.212 91.2713 167.342C91.1483 167.465 91.0014 167.564 90.8306 167.639C90.6597 167.708 90.4821 167.742 90.2976 167.742C90.1131 167.742 89.9389 167.708 89.7749 167.639C89.6109 167.564 89.464 167.465 89.3342 167.342C89.2112 167.212 89.1121 167.065 89.0369 166.901C88.9686 166.73 88.9344 166.553 88.9344 166.368C88.9344 166.177 88.9686 165.999 89.0369 165.835C89.1121 165.665 89.2112 165.518 89.3342 165.395C89.464 165.265 89.6109 165.166 89.7749 165.097C89.9389 165.022 90.1131 164.985 90.2976 164.985C90.4821 164.985 90.6597 165.022 90.8306 165.097C91.0014 165.166 91.1483 165.265 91.2713 165.395C91.4011 165.518 91.5036 165.665 91.5788 165.835C91.6539 165.999 91.6915 166.177 91.6915 166.368ZM103.246 169.587L99.0232 180H97.2193L92.9966 169.587H94.6467C94.8039 169.587 94.9337 169.624 95.0362 169.699C95.1387 169.775 95.207 169.87 95.2412 169.986L97.7318 176.382C97.8206 176.648 97.8958 176.915 97.9573 177.181C98.0256 177.441 98.0871 177.701 98.1417 177.96C98.1964 177.701 98.2579 177.441 98.3262 177.181C98.3946 176.922 98.4766 176.655 98.5722 176.382L101.094 169.986C101.135 169.87 101.206 169.775 101.309 169.699C101.411 169.624 101.534 169.587 101.678 169.587H103.246ZM111.433 173.635C111.433 173.239 111.375 172.873 111.259 172.538C111.15 172.204 110.986 171.913 110.767 171.667C110.548 171.421 110.282 171.23 109.968 171.093C109.653 170.957 109.291 170.888 108.881 170.888C108.041 170.888 107.378 171.131 106.893 171.616C106.414 172.101 106.11 172.774 105.981 173.635H111.433ZM113.083 178.514C112.837 178.801 112.554 179.05 112.233 179.262C111.912 179.467 111.57 179.634 111.208 179.764C110.846 179.894 110.47 179.99 110.08 180.051C109.698 180.113 109.318 180.143 108.943 180.143C108.225 180.143 107.559 180.024 106.944 179.785C106.336 179.539 105.806 179.183 105.355 178.719C104.911 178.247 104.563 177.667 104.31 176.976C104.064 176.279 103.941 175.48 103.941 174.578C103.941 173.854 104.054 173.181 104.279 172.559C104.505 171.93 104.826 171.384 105.243 170.919C105.666 170.454 106.182 170.089 106.79 169.822C107.398 169.556 108.082 169.423 108.84 169.423C109.476 169.423 110.06 169.529 110.593 169.74C111.133 169.945 111.597 170.246 111.987 170.642C112.376 171.039 112.68 171.527 112.899 172.108C113.124 172.689 113.237 173.352 113.237 174.096C113.237 174.404 113.203 174.612 113.135 174.722C113.066 174.824 112.94 174.875 112.755 174.875H105.929C105.95 175.497 106.039 176.04 106.196 176.505C106.353 176.963 106.568 177.345 106.842 177.653C107.122 177.96 107.453 178.189 107.836 178.34C108.218 178.49 108.645 178.565 109.117 178.565C109.561 178.565 109.944 178.514 110.265 178.411C110.593 178.309 110.873 178.2 111.105 178.083C111.344 177.96 111.543 177.848 111.7 177.745C111.864 177.643 112.007 177.591 112.13 177.591C112.294 177.591 112.421 177.653 112.509 177.776L113.083 178.514ZM134.632 169.587L131.281 180H129.682C129.49 180 129.361 179.874 129.292 179.621L127.099 172.836C127.044 172.665 126.996 172.497 126.955 172.333C126.914 172.163 126.877 171.992 126.843 171.821C126.781 172.176 126.696 172.521 126.586 172.856L124.362 179.621C124.294 179.874 124.147 180 123.922 180H122.405L119.043 169.587H120.621C120.778 169.587 120.908 169.624 121.011 169.699C121.12 169.775 121.192 169.87 121.226 169.986L123.102 176.382C123.163 176.642 123.218 176.894 123.266 177.14C123.313 177.386 123.358 177.632 123.399 177.878C123.46 177.632 123.525 177.386 123.594 177.14C123.669 176.894 123.744 176.642 123.819 176.382L125.9 169.945C125.934 169.829 125.999 169.737 126.094 169.669C126.19 169.593 126.306 169.556 126.443 169.556H127.314C127.464 169.556 127.587 169.593 127.683 169.669C127.786 169.737 127.854 169.829 127.888 169.945L129.917 176.382C129.993 176.642 130.064 176.898 130.133 177.151C130.201 177.397 130.262 177.646 130.317 177.899C130.358 177.653 130.406 177.407 130.461 177.161C130.515 176.908 130.577 176.648 130.645 176.382L132.551 169.986C132.586 169.87 132.654 169.775 132.756 169.699C132.866 169.624 132.989 169.587 133.125 169.587H134.632ZM138.415 169.587V180H136.417V169.587H138.415ZM138.795 166.368C138.795 166.553 138.757 166.73 138.682 166.901C138.607 167.065 138.504 167.212 138.374 167.342C138.251 167.465 138.105 167.564 137.934 167.639C137.763 167.708 137.585 167.742 137.401 167.742C137.216 167.742 137.042 167.708 136.878 167.639C136.714 167.564 136.567 167.465 136.437 167.342C136.314 167.212 136.215 167.065 136.14 166.901C136.072 166.73 136.038 166.553 136.038 166.368C136.038 166.177 136.072 165.999 136.14 165.835C136.215 165.665 136.314 165.518 136.437 165.395C136.567 165.265 136.714 165.166 136.878 165.097C137.042 165.022 137.216 164.985 137.401 164.985C137.585 164.985 137.763 165.022 137.934 165.097C138.105 165.166 138.251 165.265 138.374 165.395C138.504 165.518 138.607 165.665 138.682 165.835C138.757 165.999 138.795 166.177 138.795 166.368ZM144.568 180.164C143.728 180.164 143.079 179.928 142.621 179.457C142.17 178.985 141.945 178.312 141.945 177.438V171.206H140.735C140.619 171.206 140.52 171.172 140.438 171.104C140.363 171.028 140.325 170.919 140.325 170.776V169.966L142.016 169.73L142.467 166.625C142.495 166.508 142.546 166.42 142.621 166.358C142.703 166.29 142.806 166.256 142.929 166.256H143.943V169.751H146.895V171.206H143.943V177.304C143.943 177.714 144.042 178.022 144.24 178.227C144.445 178.425 144.705 178.524 145.019 178.524C145.204 178.524 145.361 178.5 145.491 178.452C145.628 178.405 145.744 178.353 145.839 178.299C145.935 178.237 146.017 178.182 146.085 178.135C146.154 178.087 146.215 178.063 146.27 178.063C146.338 178.063 146.389 178.08 146.424 178.114C146.465 178.141 146.506 178.189 146.547 178.258L147.141 179.221C146.813 179.522 146.424 179.754 145.973 179.918C145.522 180.082 145.054 180.164 144.568 180.164ZM150.735 170.909C151.172 170.465 151.654 170.106 152.18 169.833C152.713 169.559 153.324 169.423 154.014 169.423C154.588 169.423 155.091 169.518 155.521 169.71C155.958 169.901 156.324 170.171 156.618 170.519C156.911 170.861 157.134 171.274 157.284 171.759C157.434 172.245 157.509 172.781 157.509 173.369V180H155.5V173.369C155.5 172.624 155.33 172.046 154.988 171.637C154.646 171.22 154.124 171.011 153.42 171.011C152.907 171.011 152.426 171.134 151.975 171.38C151.531 171.619 151.117 171.947 150.735 172.364V180H148.736V164.872H150.735V170.909ZM162.297 169.587V180H160.299V169.587H162.297ZM162.676 166.368C162.676 166.553 162.639 166.73 162.564 166.901C162.489 167.065 162.386 167.212 162.256 167.342C162.133 167.465 161.986 167.564 161.816 167.639C161.645 167.708 161.467 167.742 161.283 167.742C161.098 167.742 160.924 167.708 160.76 167.639C160.596 167.564 160.449 167.465 160.319 167.342C160.196 167.212 160.097 167.065 160.022 166.901C159.954 166.73 159.919 166.553 159.919 166.368C159.919 166.177 159.954 165.999 160.022 165.835C160.097 165.665 160.196 165.518 160.319 165.395C160.449 165.265 160.596 165.166 160.76 165.097C160.924 165.022 161.098 164.985 161.283 164.985C161.467 164.985 161.645 165.022 161.816 165.097C161.986 165.166 162.133 165.265 162.256 165.395C162.386 165.518 162.489 165.665 162.564 165.835C162.639 165.999 162.676 166.177 162.676 166.368ZM167.067 171.032C167.292 170.793 167.528 170.574 167.774 170.376C168.02 170.178 168.279 170.01 168.553 169.874C168.833 169.73 169.13 169.621 169.444 169.546C169.766 169.464 170.107 169.423 170.469 169.423C171.043 169.423 171.546 169.518 171.976 169.71C172.413 169.901 172.779 170.171 173.073 170.519C173.367 170.861 173.589 171.274 173.739 171.759C173.889 172.245 173.964 172.781 173.964 173.369V180H171.956V173.369C171.956 172.624 171.785 172.046 171.443 171.637C171.101 171.22 170.579 171.011 169.875 171.011C169.362 171.011 168.881 171.134 168.43 171.38C167.986 171.619 167.572 171.947 167.19 172.364V180H165.191V169.587H166.39C166.67 169.587 166.845 169.72 166.913 169.986L167.067 171.032ZM191.05 169.371V180H189.082C188.686 180 188.426 179.822 188.303 179.467L188.119 178.852C187.914 179.05 187.702 179.231 187.483 179.395C187.265 179.552 187.029 179.689 186.776 179.805C186.53 179.915 186.26 180 185.966 180.061C185.679 180.13 185.365 180.164 185.024 180.164C184.443 180.164 183.927 180.065 183.476 179.867C183.032 179.662 182.656 179.378 182.348 179.016C182.041 178.654 181.809 178.227 181.651 177.735C181.494 177.243 181.416 176.703 181.416 176.115V169.371H184.593V176.115C184.593 176.642 184.713 177.048 184.952 177.335C185.191 177.622 185.543 177.766 186.007 177.766C186.356 177.766 186.681 177.694 186.981 177.55C187.289 177.4 187.586 177.199 187.873 176.946V169.371H191.05ZM196.14 170.519C196.345 170.328 196.557 170.15 196.776 169.986C196.994 169.822 197.227 169.686 197.473 169.576C197.725 169.46 197.995 169.371 198.282 169.31C198.576 169.242 198.894 169.207 199.236 169.207C199.816 169.207 200.329 169.31 200.773 169.515C201.224 169.713 201.603 169.993 201.911 170.355C202.218 170.711 202.45 171.138 202.608 171.637C202.765 172.128 202.843 172.665 202.843 173.246V180H199.666V173.246C199.666 172.726 199.546 172.323 199.307 172.036C199.068 171.742 198.716 171.596 198.252 171.596C197.903 171.596 197.575 171.671 197.268 171.821C196.967 171.964 196.673 172.163 196.386 172.415V180H193.209V169.371H195.177C195.573 169.371 195.833 169.549 195.956 169.904L196.14 170.519ZM208.077 170.304C208.46 169.976 208.873 169.713 209.317 169.515C209.768 169.31 210.304 169.207 210.926 169.207C211.507 169.207 212.02 169.31 212.464 169.515C212.915 169.713 213.294 169.993 213.601 170.355C213.909 170.711 214.141 171.138 214.298 171.637C214.455 172.128 214.534 172.665 214.534 173.246V180H211.357V173.246C211.357 172.726 211.237 172.323 210.998 172.036C210.759 171.742 210.407 171.596 209.942 171.596C209.594 171.596 209.266 171.671 208.958 171.821C208.658 171.964 208.364 172.163 208.077 172.415V180H204.9V164.657H208.077V170.304ZM221.49 169.207C222.296 169.207 223.03 169.334 223.693 169.587C224.356 169.839 224.923 170.202 225.395 170.673C225.873 171.145 226.242 171.718 226.501 172.395C226.768 173.065 226.901 173.82 226.901 174.66C226.901 175.507 226.768 176.273 226.501 176.956C226.242 177.632 225.873 178.21 225.395 178.688C224.923 179.16 224.356 179.525 223.693 179.785C223.03 180.038 222.296 180.164 221.49 180.164C220.676 180.164 219.935 180.038 219.265 179.785C218.603 179.525 218.029 179.16 217.544 178.688C217.065 178.21 216.693 177.632 216.426 176.956C216.167 176.273 216.037 175.507 216.037 174.66C216.037 173.82 216.167 173.065 216.426 172.395C216.693 171.718 217.065 171.145 217.544 170.673C218.029 170.202 218.603 169.839 219.265 169.587C219.935 169.334 220.676 169.207 221.49 169.207ZM221.49 177.807C222.221 177.807 222.757 177.55 223.099 177.038C223.447 176.519 223.621 175.733 223.621 174.681C223.621 173.628 223.447 172.846 223.099 172.333C222.757 171.821 222.221 171.565 221.49 171.565C220.738 171.565 220.188 171.821 219.839 172.333C219.491 172.846 219.317 173.628 219.317 174.681C219.317 175.733 219.491 176.519 219.839 177.038C220.188 177.55 220.738 177.807 221.49 177.807ZM238.033 169.371V180H236.065C235.669 180 235.409 179.822 235.286 179.467L235.102 178.852C234.897 179.05 234.685 179.231 234.466 179.395C234.248 179.552 234.012 179.689 233.759 179.805C233.513 179.915 233.243 180 232.949 180.061C232.662 180.13 232.348 180.164 232.007 180.164C231.426 180.164 230.91 180.065 230.459 179.867C230.015 179.662 229.639 179.378 229.331 179.016C229.024 178.654 228.792 178.227 228.634 177.735C228.477 177.243 228.399 176.703 228.399 176.115V169.371H231.576V176.115C231.576 176.642 231.696 177.048 231.935 177.335C232.174 177.622 232.526 177.766 232.99 177.766C233.339 177.766 233.664 177.694 233.964 177.55C234.272 177.4 234.569 177.199 234.856 176.946V169.371H238.033ZM246.946 171.698C246.864 171.828 246.775 171.92 246.68 171.975C246.591 172.029 246.475 172.057 246.331 172.057C246.181 172.057 246.031 172.026 245.88 171.964C245.73 171.896 245.566 171.824 245.388 171.749C245.218 171.674 245.023 171.606 244.804 171.544C244.586 171.476 244.336 171.442 244.056 171.442C243.653 171.442 243.342 171.52 243.123 171.678C242.911 171.828 242.806 172.04 242.806 172.313C242.806 172.511 242.874 172.675 243.011 172.805C243.154 172.935 243.342 173.051 243.574 173.153C243.807 173.249 244.07 173.341 244.363 173.43C244.657 173.519 244.958 173.618 245.265 173.727C245.573 173.837 245.874 173.967 246.167 174.117C246.461 174.26 246.724 174.441 246.957 174.66C247.189 174.872 247.373 175.132 247.51 175.439C247.654 175.747 247.725 176.115 247.725 176.546C247.725 177.072 247.63 177.557 247.438 178.001C247.247 178.446 246.96 178.828 246.577 179.149C246.202 179.47 245.733 179.72 245.173 179.898C244.62 180.075 243.981 180.164 243.257 180.164C242.894 180.164 242.532 180.13 242.17 180.061C241.808 179.993 241.456 179.901 241.114 179.785C240.78 179.669 240.469 179.532 240.182 179.375C239.895 179.211 239.649 179.037 239.444 178.852L240.182 177.684C240.264 177.547 240.366 177.441 240.489 177.366C240.619 177.284 240.783 177.243 240.981 177.243C241.166 177.243 241.33 177.284 241.473 177.366C241.623 177.448 241.784 177.537 241.955 177.632C242.126 177.728 242.324 177.817 242.549 177.899C242.782 177.981 243.072 178.022 243.421 178.022C243.666 178.022 243.875 177.998 244.046 177.95C244.217 177.895 244.353 177.824 244.456 177.735C244.558 177.646 244.633 177.547 244.681 177.438C244.729 177.328 244.753 177.216 244.753 177.099C244.753 176.888 244.681 176.713 244.538 176.577C244.394 176.44 244.206 176.324 243.974 176.228C243.742 176.126 243.475 176.033 243.175 175.951C242.881 175.863 242.58 175.764 242.273 175.654C241.965 175.545 241.661 175.415 241.36 175.265C241.067 175.108 240.804 174.913 240.571 174.681C240.339 174.441 240.151 174.151 240.007 173.809C239.864 173.468 239.792 173.054 239.792 172.569C239.792 172.118 239.878 171.691 240.048 171.288C240.226 170.878 240.489 170.519 240.838 170.212C241.186 169.904 241.623 169.662 242.15 169.484C242.676 169.3 243.291 169.207 243.994 169.207C244.377 169.207 244.746 169.242 245.101 169.31C245.464 169.378 245.802 169.474 246.116 169.597C246.43 169.72 246.717 169.867 246.977 170.038C247.237 170.202 247.466 170.383 247.664 170.581L246.946 171.698ZM255.931 173.41C255.931 173.157 255.897 172.911 255.829 172.672C255.767 172.433 255.661 172.221 255.511 172.036C255.367 171.845 255.176 171.691 254.937 171.575C254.698 171.459 254.407 171.401 254.066 171.401C253.464 171.401 252.993 171.575 252.651 171.923C252.31 172.265 252.084 172.761 251.975 173.41H255.931ZM251.934 175.255C252.036 176.143 252.306 176.789 252.744 177.192C253.181 177.588 253.745 177.786 254.435 177.786C254.804 177.786 255.121 177.742 255.388 177.653C255.654 177.564 255.89 177.465 256.095 177.356C256.307 177.246 256.498 177.147 256.669 177.058C256.847 176.97 257.031 176.925 257.223 176.925C257.475 176.925 257.667 177.017 257.797 177.202L258.719 178.34C258.391 178.715 258.036 179.023 257.653 179.262C257.277 179.494 256.888 179.679 256.485 179.816C256.088 179.945 255.689 180.034 255.285 180.082C254.889 180.137 254.51 180.164 254.148 180.164C253.403 180.164 252.703 180.044 252.047 179.805C251.398 179.559 250.827 179.197 250.335 178.719C249.85 178.241 249.464 177.646 249.177 176.935C248.897 176.225 248.757 175.398 248.757 174.455C248.757 173.744 248.876 173.071 249.115 172.436C249.361 171.8 249.71 171.244 250.161 170.765C250.619 170.287 251.169 169.908 251.811 169.628C252.46 169.347 253.191 169.207 254.004 169.207C254.708 169.207 255.35 169.317 255.931 169.535C256.519 169.754 257.021 170.072 257.438 170.489C257.861 170.905 258.189 171.418 258.422 172.026C258.661 172.627 258.78 173.311 258.78 174.076C258.78 174.315 258.77 174.51 258.75 174.66C258.729 174.81 258.692 174.93 258.637 175.019C258.582 175.108 258.507 175.169 258.412 175.203C258.323 175.237 258.207 175.255 258.063 175.255H251.934ZM266.817 172.221C266.578 171.954 266.318 171.77 266.038 171.667C265.758 171.558 265.464 171.503 265.157 171.503C264.863 171.503 264.593 171.561 264.347 171.678C264.101 171.794 263.886 171.982 263.701 172.241C263.524 172.494 263.384 172.825 263.281 173.235C263.179 173.645 263.128 174.141 263.128 174.722C263.128 175.282 263.169 175.753 263.251 176.136C263.333 176.519 263.445 176.83 263.589 177.069C263.739 177.301 263.917 177.468 264.122 177.571C264.327 177.673 264.556 177.725 264.808 177.725C265.041 177.725 265.249 177.704 265.434 177.663C265.625 177.615 265.799 177.55 265.956 177.468C266.114 177.386 266.26 177.284 266.397 177.161C266.541 177.031 266.681 176.884 266.817 176.72V172.221ZM269.995 164.657V180H268.027C267.63 180 267.371 179.822 267.248 179.467L267.002 178.657C266.79 178.883 266.568 179.088 266.336 179.272C266.103 179.457 265.85 179.617 265.577 179.754C265.311 179.884 265.02 179.983 264.706 180.051C264.398 180.126 264.064 180.164 263.701 180.164C263.148 180.164 262.636 180.041 262.164 179.795C261.693 179.549 261.286 179.194 260.944 178.729C260.603 178.264 260.333 177.697 260.135 177.028C259.943 176.351 259.848 175.583 259.848 174.722C259.848 173.929 259.957 173.194 260.176 172.518C260.394 171.835 260.702 171.247 261.098 170.755C261.501 170.256 261.983 169.867 262.543 169.587C263.104 169.306 263.722 169.166 264.398 169.166C264.952 169.166 265.417 169.245 265.792 169.402C266.168 169.559 266.51 169.771 266.817 170.038V164.657H269.995ZM98.9655 196.893C98.8699 197.009 98.7776 197.101 98.6888 197.169C98.6 197.238 98.4736 197.272 98.3096 197.272C98.1524 197.272 98.0089 197.234 97.8791 197.159C97.7561 197.084 97.616 197.002 97.4589 196.913C97.3017 196.818 97.1172 196.732 96.9054 196.657C96.6936 196.582 96.4305 196.544 96.1162 196.544C95.7267 196.544 95.3885 196.616 95.1015 196.759C94.8214 196.903 94.589 197.108 94.4046 197.374C94.2201 197.641 94.0834 197.969 93.9946 198.358C93.9058 198.741 93.8613 199.175 93.8613 199.66C93.8613 200.678 94.0561 201.461 94.4456 202.007C94.8419 202.554 95.3851 202.827 96.0752 202.827C96.4442 202.827 96.7346 202.783 96.9464 202.694C97.1651 202.598 97.3495 202.496 97.4999 202.386C97.6502 202.27 97.7869 202.164 97.9098 202.069C98.0397 201.973 98.2002 201.925 98.3916 201.925C98.6444 201.925 98.8357 202.017 98.9655 202.202L99.888 203.34C99.56 203.715 99.2149 204.023 98.8528 204.262C98.4906 204.494 98.1182 204.679 97.7356 204.816C97.3598 204.945 96.9806 205.034 96.5979 205.082C96.2153 205.137 95.8429 205.164 95.4807 205.164C94.8316 205.164 94.2098 205.041 93.6154 204.795C93.0277 204.549 92.5084 204.194 92.0574 203.729C91.6133 203.258 91.258 202.68 90.9915 201.997C90.7319 201.314 90.602 200.535 90.602 199.66C90.602 198.895 90.7148 198.181 90.9403 197.518C91.1726 196.848 91.5108 196.271 91.955 195.786C92.4059 195.294 92.9594 194.908 93.6154 194.628C94.2781 194.347 95.0434 194.207 95.9112 194.207C96.7448 194.207 97.476 194.341 98.1046 194.607C98.7332 194.874 99.3003 195.263 99.806 195.776L98.9655 196.893ZM105.844 194.207C106.65 194.207 107.384 194.334 108.047 194.587C108.71 194.839 109.277 195.202 109.749 195.673C110.227 196.145 110.596 196.718 110.856 197.395C111.122 198.065 111.255 198.82 111.255 199.66C111.255 200.507 111.122 201.273 110.856 201.956C110.596 202.632 110.227 203.21 109.749 203.688C109.277 204.16 108.71 204.525 108.047 204.785C107.384 205.038 106.65 205.164 105.844 205.164C105.031 205.164 104.289 205.038 103.62 204.785C102.957 204.525 102.383 204.16 101.898 203.688C101.419 203.21 101.047 202.632 100.78 201.956C100.521 201.273 100.391 200.507 100.391 199.66C100.391 198.82 100.521 198.065 100.78 197.395C101.047 196.718 101.419 196.145 101.898 195.673C102.383 195.202 102.957 194.839 103.62 194.587C104.289 194.334 105.031 194.207 105.844 194.207ZM105.844 202.807C106.575 202.807 107.111 202.55 107.453 202.038C107.801 201.519 107.976 200.733 107.976 199.681C107.976 198.628 107.801 197.846 107.453 197.333C107.111 196.821 106.575 196.565 105.844 196.565C105.092 196.565 104.542 196.821 104.194 197.333C103.845 197.846 103.671 198.628 103.671 199.681C103.671 200.733 103.845 201.519 104.194 202.038C104.542 202.55 105.092 202.807 105.844 202.807ZM112.855 205V194.371H114.823C115.22 194.371 115.479 194.549 115.602 194.904L115.776 195.478C115.954 195.294 116.139 195.126 116.33 194.976C116.521 194.819 116.726 194.686 116.945 194.576C117.17 194.46 117.41 194.371 117.662 194.31C117.922 194.242 118.206 194.207 118.513 194.207C119.155 194.207 119.685 194.375 120.102 194.71C120.525 195.038 120.846 195.478 121.065 196.032C121.243 195.704 121.458 195.424 121.711 195.191C121.97 194.959 122.247 194.771 122.541 194.628C122.842 194.484 123.156 194.378 123.484 194.31C123.819 194.242 124.15 194.207 124.478 194.207C125.086 194.207 125.626 194.3 126.098 194.484C126.569 194.662 126.962 194.925 127.276 195.273C127.597 195.615 127.84 196.039 128.004 196.544C128.168 197.043 128.25 197.61 128.25 198.246V205H125.073V198.246C125.073 197.146 124.601 196.596 123.658 196.596C123.228 196.596 122.869 196.739 122.582 197.026C122.302 197.306 122.162 197.713 122.162 198.246V205H118.984V198.246C118.984 197.638 118.865 197.21 118.626 196.964C118.387 196.718 118.035 196.596 117.57 196.596C117.283 196.596 117.01 196.66 116.75 196.79C116.497 196.92 116.258 197.094 116.033 197.313V205H112.855ZM130.291 205V194.371H132.259C132.656 194.371 132.915 194.549 133.038 194.904L133.212 195.478C133.39 195.294 133.575 195.126 133.766 194.976C133.957 194.819 134.162 194.686 134.381 194.576C134.606 194.46 134.845 194.371 135.098 194.31C135.358 194.242 135.642 194.207 135.949 194.207C136.591 194.207 137.121 194.375 137.538 194.71C137.961 195.038 138.282 195.478 138.501 196.032C138.679 195.704 138.894 195.424 139.147 195.191C139.406 194.959 139.683 194.771 139.977 194.628C140.278 194.484 140.592 194.378 140.92 194.31C141.255 194.242 141.586 194.207 141.914 194.207C142.522 194.207 143.062 194.3 143.534 194.484C144.005 194.662 144.398 194.925 144.712 195.273C145.033 195.615 145.276 196.039 145.44 196.544C145.604 197.043 145.686 197.61 145.686 198.246V205H142.509V198.246C142.509 197.146 142.037 196.596 141.094 196.596C140.664 196.596 140.305 196.739 140.018 197.026C139.738 197.306 139.598 197.713 139.598 198.246V205H136.42V198.246C136.42 197.638 136.301 197.21 136.062 196.964C135.823 196.718 135.471 196.596 135.006 196.596C134.719 196.596 134.446 196.66 134.186 196.79C133.933 196.92 133.694 197.094 133.469 197.313V205H130.291ZM157.259 194.371V205H155.291C154.895 205 154.635 204.822 154.512 204.467L154.328 203.852C154.123 204.05 153.911 204.231 153.692 204.395C153.474 204.552 153.238 204.689 152.985 204.805C152.739 204.915 152.469 205 152.176 205.061C151.889 205.13 151.574 205.164 151.233 205.164C150.652 205.164 150.136 205.065 149.685 204.867C149.241 204.662 148.865 204.378 148.557 204.016C148.25 203.654 148.018 203.227 147.861 202.735C147.703 202.243 147.625 201.703 147.625 201.115V194.371H150.802V201.115C150.802 201.642 150.922 202.048 151.161 202.335C151.4 202.622 151.752 202.766 152.217 202.766C152.565 202.766 152.89 202.694 153.19 202.55C153.498 202.4 153.795 202.199 154.082 201.946V194.371H157.259ZM162.349 195.519C162.554 195.328 162.766 195.15 162.985 194.986C163.203 194.822 163.436 194.686 163.682 194.576C163.935 194.46 164.204 194.371 164.491 194.31C164.785 194.242 165.103 194.207 165.445 194.207C166.025 194.207 166.538 194.31 166.982 194.515C167.433 194.713 167.812 194.993 168.12 195.355C168.427 195.711 168.66 196.138 168.817 196.637C168.974 197.128 169.052 197.665 169.052 198.246V205H165.875V198.246C165.875 197.726 165.756 197.323 165.516 197.036C165.277 196.742 164.925 196.596 164.461 196.596C164.112 196.596 163.784 196.671 163.477 196.821C163.176 196.964 162.882 197.163 162.595 197.415V205H159.418V194.371H161.386C161.782 194.371 162.042 194.549 162.165 194.904L162.349 195.519ZM174.358 194.371V205H171.18V194.371H174.358ZM174.686 191.461C174.686 191.713 174.634 191.953 174.532 192.178C174.429 192.397 174.289 192.591 174.112 192.762C173.934 192.926 173.726 193.059 173.487 193.162C173.254 193.258 173.005 193.305 172.738 193.305C172.479 193.305 172.236 193.258 172.011 193.162C171.785 193.059 171.584 192.926 171.406 192.762C171.235 192.591 171.098 192.397 170.996 192.178C170.9 191.953 170.852 191.713 170.852 191.461C170.852 191.201 170.9 190.958 170.996 190.733C171.098 190.507 171.235 190.309 171.406 190.138C171.584 189.968 171.785 189.834 172.011 189.739C172.236 189.643 172.479 189.595 172.738 189.595C173.005 189.595 173.254 189.643 173.487 189.739C173.726 189.834 173.934 189.968 174.112 190.138C174.289 190.309 174.429 190.507 174.532 190.733C174.634 190.958 174.686 191.201 174.686 191.461ZM188.063 205H184.886V196.565H180.438V201.843C180.438 202.089 180.496 202.294 180.612 202.458C180.735 202.615 180.909 202.694 181.135 202.694C181.251 202.694 181.346 202.684 181.422 202.663C181.504 202.636 181.572 202.608 181.627 202.581C181.688 202.547 181.743 202.52 181.791 202.499C181.845 202.472 181.907 202.458 181.975 202.458C182.071 202.458 182.146 202.482 182.201 202.53C182.262 202.571 182.324 202.639 182.385 202.735L183.349 204.242C182.939 204.549 182.477 204.781 181.965 204.939C181.452 205.089 180.923 205.164 180.376 205.164C179.871 205.164 179.423 205.092 179.034 204.949C178.651 204.798 178.326 204.59 178.06 204.324C177.8 204.05 177.602 203.722 177.465 203.34C177.329 202.957 177.26 202.53 177.26 202.058V196.565H176.358C176.194 196.565 176.054 196.514 175.938 196.411C175.822 196.302 175.764 196.145 175.764 195.94V194.699L177.455 194.361L178.08 191.778C178.162 191.45 178.395 191.286 178.777 191.286H180.438V194.392H188.063V205ZM188.504 191.45C188.504 191.703 188.453 191.942 188.35 192.168C188.248 192.393 188.108 192.591 187.93 192.762C187.752 192.926 187.544 193.056 187.305 193.152C187.072 193.247 186.823 193.295 186.557 193.295C186.297 193.295 186.054 193.247 185.829 193.152C185.603 193.056 185.402 192.926 185.224 192.762C185.053 192.591 184.917 192.393 184.814 192.168C184.719 191.942 184.671 191.703 184.671 191.45C184.671 191.197 184.719 190.958 184.814 190.733C184.917 190.501 185.053 190.302 185.224 190.138C185.402 189.968 185.603 189.834 185.829 189.739C186.054 189.636 186.297 189.585 186.557 189.585C186.823 189.585 187.072 189.636 187.305 189.739C187.544 189.834 187.752 189.968 187.93 190.138C188.108 190.302 188.248 190.501 188.35 190.733C188.453 190.958 188.504 191.197 188.504 191.45ZM196.897 198.41C196.897 198.157 196.863 197.911 196.795 197.672C196.733 197.433 196.627 197.221 196.477 197.036C196.333 196.845 196.142 196.691 195.903 196.575C195.664 196.459 195.373 196.401 195.032 196.401C194.43 196.401 193.959 196.575 193.617 196.923C193.276 197.265 193.05 197.761 192.941 198.41H196.897ZM192.9 200.255C193.002 201.143 193.272 201.789 193.71 202.192C194.147 202.588 194.711 202.786 195.401 202.786C195.77 202.786 196.087 202.742 196.354 202.653C196.62 202.564 196.856 202.465 197.061 202.356C197.273 202.246 197.464 202.147 197.635 202.058C197.813 201.97 197.997 201.925 198.189 201.925C198.441 201.925 198.633 202.017 198.762 202.202L199.685 203.34C199.357 203.715 199.002 204.023 198.619 204.262C198.243 204.494 197.854 204.679 197.451 204.816C197.054 204.945 196.655 205.034 196.251 205.082C195.855 205.137 195.476 205.164 195.114 205.164C194.369 205.164 193.669 205.044 193.013 204.805C192.363 204.559 191.793 204.197 191.301 203.719C190.816 203.241 190.43 202.646 190.143 201.935C189.863 201.225 189.723 200.398 189.723 199.455C189.723 198.744 189.842 198.071 190.081 197.436C190.327 196.8 190.676 196.244 191.127 195.765C191.585 195.287 192.135 194.908 192.777 194.628C193.426 194.347 194.157 194.207 194.97 194.207C195.674 194.207 196.316 194.317 196.897 194.535C197.485 194.754 197.987 195.072 198.404 195.489C198.827 195.905 199.155 196.418 199.388 197.026C199.627 197.627 199.746 198.311 199.746 199.076C199.746 199.315 199.736 199.51 199.716 199.66C199.695 199.81 199.658 199.93 199.603 200.019C199.548 200.108 199.473 200.169 199.377 200.203C199.289 200.237 199.172 200.255 199.029 200.255H192.9ZM208.091 196.698C208.009 196.828 207.92 196.92 207.824 196.975C207.735 197.029 207.619 197.057 207.476 197.057C207.325 197.057 207.175 197.026 207.025 196.964C206.874 196.896 206.71 196.824 206.533 196.749C206.362 196.674 206.167 196.606 205.949 196.544C205.73 196.476 205.481 196.442 205.2 196.442C204.797 196.442 204.486 196.52 204.268 196.678C204.056 196.828 203.95 197.04 203.95 197.313C203.95 197.511 204.018 197.675 204.155 197.805C204.298 197.935 204.486 198.051 204.719 198.153C204.951 198.249 205.214 198.341 205.508 198.43C205.802 198.519 206.102 198.618 206.41 198.727C206.717 198.837 207.018 198.967 207.312 199.117C207.606 199.26 207.869 199.441 208.101 199.66C208.333 199.872 208.518 200.132 208.654 200.439C208.798 200.747 208.87 201.115 208.87 201.546C208.87 202.072 208.774 202.557 208.583 203.001C208.391 203.446 208.104 203.828 207.722 204.149C207.346 204.47 206.878 204.72 206.318 204.898C205.764 205.075 205.125 205.164 204.401 205.164C204.039 205.164 203.677 205.13 203.315 205.061C202.952 204.993 202.6 204.901 202.259 204.785C201.924 204.669 201.613 204.532 201.326 204.375C201.039 204.211 200.793 204.037 200.588 203.852L201.326 202.684C201.408 202.547 201.511 202.441 201.634 202.366C201.763 202.284 201.927 202.243 202.126 202.243C202.31 202.243 202.474 202.284 202.618 202.366C202.768 202.448 202.928 202.537 203.099 202.632C203.27 202.728 203.468 202.817 203.694 202.899C203.926 202.981 204.216 203.022 204.565 203.022C204.811 203.022 205.019 202.998 205.19 202.95C205.361 202.895 205.498 202.824 205.6 202.735C205.703 202.646 205.778 202.547 205.826 202.438C205.873 202.328 205.897 202.216 205.897 202.099C205.897 201.888 205.826 201.713 205.682 201.577C205.539 201.44 205.351 201.324 205.118 201.228C204.886 201.126 204.62 201.033 204.319 200.951C204.025 200.863 203.724 200.764 203.417 200.654C203.11 200.545 202.805 200.415 202.505 200.265C202.211 200.108 201.948 199.913 201.716 199.681C201.483 199.441 201.295 199.151 201.152 198.809C201.008 198.468 200.937 198.054 200.937 197.569C200.937 197.118 201.022 196.691 201.193 196.288C201.371 195.878 201.634 195.519 201.982 195.212C202.331 194.904 202.768 194.662 203.294 194.484C203.82 194.3 204.435 194.207 205.139 194.207C205.522 194.207 205.891 194.242 206.246 194.31C206.608 194.378 206.946 194.474 207.261 194.597C207.575 194.72 207.862 194.867 208.121 195.038C208.381 195.202 208.61 195.383 208.808 195.581L208.091 196.698Z" fill="#5A62B6"/>
<g clip-path="url(#clip0_1034_735)">
<path d="M211.338 82.8908H206.069L202.691 71.2142C202.421 70.1405 201.34 69.3352 200.259 69.3352H199.989H154.461H154.191C153.11 69.3352 152.029 70.1405 151.759 71.2142L148.652 82.8908H139.735C145.95 77.7907 150.003 70.1405 150.003 61.5508V41.0161C150.003 32.6948 146.355 25.313 140.411 20.2129C140.006 21.9577 139.195 23.7025 138.249 25.1788C142.302 29.2052 144.734 34.8422 144.734 40.8819V61.4166C144.734 66.9194 142.708 71.8853 139.465 75.7775V46.7873C139.465 42.4924 135.953 39.0029 131.63 39.0029C127.306 39.0029 123.794 42.4924 123.794 46.7873V81.5487V82.8908H120.822V46.7873C120.822 42.4924 117.309 39.0029 112.986 39.0029C108.663 39.0029 105.15 42.4924 105.15 46.7873V75.9117C101.908 72.0195 99.8815 66.9194 99.8815 61.5508V41.0161C99.8815 34.9764 102.313 29.4737 106.231 25.4472C105.285 23.9709 104.475 22.2261 104.069 20.4813C98.3954 25.5815 94.8828 32.829 94.8828 41.0161V61.5508C94.8828 70.1405 98.9358 77.9249 105.15 82.8908H88.1279C86.7769 82.8908 85.561 83.9646 85.561 85.4409C85.561 86.7831 86.6418 87.991 88.1279 87.991H105.015V88.5278C105.015 92.8227 108.528 96.3122 112.851 96.3122C116.093 96.3122 118.93 94.299 120.146 91.6148C120.822 91.6148 121.497 91.749 122.038 91.749C122.848 91.749 123.524 91.749 124.334 91.6148C125.55 94.4332 128.387 96.4465 131.63 96.4465C135.953 96.4465 139.465 92.9569 139.465 88.662V87.8568H147.166L145.815 93.2253C145.545 94.0306 145.815 94.8359 146.22 95.3727C146.761 96.0438 147.436 96.3122 148.247 96.3122H194.18C195.261 96.3122 196.207 95.6412 196.612 94.5675H206.339C207.149 94.5675 207.825 94.1648 208.365 93.628C208.906 92.9569 209.041 92.1516 208.771 91.4805L207.555 87.8568H211.338C212.689 87.8568 213.904 86.7831 213.904 85.3067C213.904 83.9646 212.824 82.8908 211.338 82.8908ZM192.154 91.3463H151.624L156.082 74.4354H157.839H196.747L192.154 91.3463ZM197.828 89.6015L200.259 80.8776L202.826 89.6015H197.828Z" fill="#414AA3"/>
<path d="M200.259 80.8789L202.826 89.6028L200.259 80.8789Z" fill="#414AA3"/>
<path d="M107.178 16.9938C107.178 17.2622 107.313 17.5307 107.313 17.7991C107.583 19.5439 108.123 21.2887 109.069 22.765C109.474 23.5703 110.015 24.2414 110.555 24.9124C111.771 26.3888 113.257 27.5967 114.878 28.5362C115.689 28.9389 116.634 29.3415 117.58 29.6099C118.931 30.0126 120.417 30.281 122.038 30.281C122.849 30.281 123.524 30.281 124.335 30.1468C124.74 30.1468 125.011 30.0126 125.416 29.8784C126.091 29.7441 126.767 29.4757 127.442 29.2073C128.118 28.9389 128.793 28.6704 129.334 28.2678C129.604 28.1336 130.009 27.8651 130.279 27.7309C131.09 27.1941 131.765 26.6572 132.441 25.9861C133.116 25.3151 133.657 24.644 134.197 23.8387C135.818 21.4229 136.764 18.6044 136.764 15.6517C136.764 14.4437 136.629 13.37 136.359 12.2963C136.224 11.8937 136.089 11.3568 135.954 10.9542C135.818 10.4173 135.548 10.0147 135.413 9.47782C135.278 9.20939 135.143 8.94096 135.008 8.80675C134.738 8.26989 134.467 7.86725 134.197 7.33039C134.062 7.06197 133.792 6.79354 133.522 6.52511C133.116 5.98825 132.576 5.4514 132.036 4.91454C131.765 4.64611 131.495 4.37769 131.225 4.24347C130.955 3.97504 130.55 3.70662 130.279 3.43819C129.874 3.16976 129.604 3.03555 129.199 2.76712C128.118 2.09605 126.902 1.6934 125.686 1.29076C124.47 1.02233 123.119 0.753906 121.768 0.753906C120.823 0.753906 120.012 0.88812 119.201 1.02233C117.445 1.29076 115.824 1.96183 114.473 2.76712C113.797 3.16976 113.122 3.70661 112.446 4.24347C112.041 4.64611 111.636 4.91454 111.231 5.31718C110.825 5.71983 110.555 6.12247 110.15 6.52511C109.88 6.79354 109.744 7.06197 109.474 7.33039C109.069 7.86725 108.664 8.53832 108.393 9.20939C108.258 9.47782 108.123 9.88046 107.988 10.1489C107.853 10.5515 107.718 10.9542 107.583 11.491C107.178 12.8332 107.042 14.1753 107.042 15.6517C107.178 15.9201 107.178 16.457 107.178 16.9938Z" fill="#414AA3"/>
</g>
<defs>
<clipPath id="clip0_1034_735">
<rect width="128.343" height="95.6946" fill="white" transform="translate(85.5625 0.753906)"/>
</clipPath>
</defs>
</svg>
