<svg width="308" height="249" viewBox="0 0 308 249" fill="none" xmlns="http://www.w3.org/2000/svg">
<path d="M42.7317 153.641C42.7317 154.741 42.5541 155.752 42.1988 156.675C41.8503 157.59 41.3549 158.383 40.7126 159.053C40.0703 159.715 39.3016 160.231 38.4065 160.6C37.5114 160.969 36.5172 161.154 35.4239 161.154C34.3375 161.154 33.3433 160.969 32.4414 160.6C31.5462 160.231 30.7775 159.715 30.1352 159.053C29.4998 158.383 29.0044 157.59 28.6491 156.675C28.2938 155.752 28.1161 154.741 28.1161 153.641C28.1161 152.548 28.2938 151.54 28.6491 150.617C29.0044 149.695 29.4998 148.902 30.1352 148.24C30.7775 147.57 31.5462 147.051 32.4414 146.682C33.3433 146.306 34.3375 146.118 35.4239 146.118C36.5172 146.118 37.5114 146.306 38.4065 146.682C39.3016 147.051 40.0703 147.57 40.7126 148.24C41.3549 148.902 41.8503 149.695 42.1988 150.617C42.5541 151.54 42.7317 152.548 42.7317 153.641ZM40.4974 153.641C40.4974 152.766 40.3778 151.981 40.1386 151.284C39.8995 150.587 39.5579 149.996 39.1137 149.51C38.6764 149.025 38.1434 148.653 37.5148 148.393C36.893 148.134 36.1961 148.004 35.4239 148.004C34.6518 148.004 33.9514 148.134 33.3228 148.393C32.701 148.653 32.168 149.025 31.7239 149.51C31.2798 149.996 30.9381 150.587 30.699 151.284C30.4598 151.981 30.3402 152.766 30.3402 153.641C30.3402 154.522 30.4598 155.312 30.699 156.009C30.9381 156.699 31.2798 157.286 31.7239 157.771C32.168 158.257 32.701 158.629 33.3228 158.889C33.9514 159.141 34.6518 159.268 35.4239 159.268C36.1961 159.268 36.893 159.141 37.5148 158.889C38.1434 158.629 38.6764 158.257 39.1137 157.771C39.5579 157.286 39.8995 156.699 40.1386 156.009C40.3778 155.312 40.4974 154.522 40.4974 153.641ZM46.7489 152.585C47.0837 151.902 47.4868 151.366 47.9583 150.976C48.4298 150.587 48.9969 150.392 49.6597 150.392C49.8852 150.392 50.097 150.419 50.2951 150.474C50.5001 150.522 50.6778 150.597 50.8281 150.699L50.6949 152.206C50.647 152.391 50.5343 152.483 50.3566 152.483C50.261 152.483 50.1175 152.466 49.9262 152.432C49.7348 152.391 49.5299 152.37 49.3112 152.37C48.9901 152.37 48.7065 152.418 48.4605 152.514C48.2145 152.602 47.9925 152.739 47.7943 152.923C47.603 153.101 47.4322 153.323 47.2818 153.59C47.1315 153.849 46.9914 154.147 46.8616 154.481V161H44.863V150.587H46.0109C46.2296 150.587 46.3765 150.628 46.4516 150.71C46.5336 150.785 46.5917 150.921 46.6259 151.12L46.7489 152.585ZM57.8059 156.378C56.9927 156.405 56.3026 156.47 55.7355 156.572C55.1684 156.668 54.7071 156.798 54.3518 156.962C53.9965 157.126 53.7403 157.32 53.5831 157.546C53.426 157.765 53.3474 158.011 53.3474 158.284C53.3474 158.544 53.3884 158.769 53.4704 158.96C53.5592 159.145 53.6754 159.299 53.8189 159.422C53.9692 159.538 54.1434 159.623 54.3416 159.678C54.5397 159.732 54.755 159.76 54.9873 159.76C55.2948 159.76 55.5749 159.729 55.8277 159.668C56.0874 159.606 56.33 159.521 56.5554 159.411C56.7809 159.295 56.9962 159.155 57.2011 158.991C57.4061 158.827 57.6077 158.639 57.8059 158.427V156.378ZM51.9432 152.042C52.524 151.489 53.1526 151.075 53.8291 150.802C54.5124 150.529 55.2606 150.392 56.0737 150.392C56.6682 150.392 57.1943 150.491 57.6521 150.689C58.1099 150.88 58.496 151.15 58.8103 151.499C59.1246 151.847 59.3604 152.264 59.5175 152.749C59.6815 153.234 59.7635 153.771 59.7635 154.358V161H58.8718C58.6736 161 58.5233 160.969 58.4208 160.908C58.3183 160.839 58.2363 160.716 58.1748 160.539L57.9596 159.627C57.6931 159.873 57.4301 160.091 57.1704 160.283C56.9108 160.467 56.6374 160.628 56.3505 160.764C56.0703 160.894 55.7697 160.993 55.4485 161.061C55.1274 161.13 54.772 161.164 54.3826 161.164C53.9726 161.164 53.5865 161.109 53.2244 161C52.8691 160.884 52.5582 160.71 52.2917 160.477C52.0252 160.245 51.8134 159.955 51.6562 159.606C51.5059 159.258 51.4307 158.851 51.4307 158.386C51.4307 157.976 51.5401 157.584 51.7587 157.208C51.9842 156.825 52.3464 156.483 52.8452 156.183C53.3508 155.882 54.0068 155.636 54.813 155.445C55.6262 155.254 56.6238 155.144 57.8059 155.117V154.358C57.8059 153.573 57.6385 152.985 57.3036 152.596C56.9688 152.206 56.4769 152.011 55.8277 152.011C55.3904 152.011 55.0214 152.066 54.7208 152.175C54.427 152.285 54.1707 152.408 53.9521 152.544C53.7403 152.674 53.5524 152.794 53.3884 152.903C53.2312 153.012 53.0672 153.067 52.8964 153.067C52.7598 153.067 52.6402 153.029 52.5377 152.954C52.442 152.879 52.3634 152.79 52.3019 152.688L51.9432 152.042ZM64.4889 145.872V161H62.4801V145.872H64.4889ZM74.5269 151.909C74.9642 151.465 75.446 151.106 75.9721 150.833C76.5051 150.559 77.1166 150.423 77.8067 150.423C78.3807 150.423 78.8829 150.518 79.3134 150.71C79.7507 150.901 80.1163 151.171 80.4101 151.519C80.7039 151.861 80.926 152.274 81.0763 152.759C81.2266 153.245 81.3018 153.781 81.3018 154.369V161H79.2929V154.369C79.2929 153.624 79.1221 153.046 78.7804 152.637C78.4388 152.22 77.9161 152.011 77.2123 152.011C76.6998 152.011 76.2181 152.134 75.7671 152.38C75.323 152.619 74.9096 152.947 74.5269 153.364V161H72.5283V145.872H74.5269V151.909ZM90.8966 154.635C90.8966 154.239 90.8386 153.873 90.7224 153.538C90.6131 153.204 90.4491 152.913 90.2304 152.667C90.0118 152.421 89.7453 152.23 89.431 152.093C89.1167 151.957 88.7545 151.888 88.3445 151.888C87.5041 151.888 86.8413 152.131 86.3562 152.616C85.8779 153.101 85.5738 153.774 85.444 154.635H90.8966ZM92.5468 159.514C92.3008 159.801 92.0172 160.05 91.6961 160.262C91.3749 160.467 91.0333 160.634 90.6711 160.764C90.309 160.894 89.9332 160.99 89.5437 161.051C89.1611 161.113 88.7818 161.143 88.406 161.143C87.6886 161.143 87.0224 161.024 86.4074 160.785C85.7993 160.539 85.2697 160.183 84.8188 159.719C84.3746 159.247 84.0261 158.667 83.7733 157.976C83.5273 157.279 83.4043 156.48 83.4043 155.578C83.4043 154.854 83.5171 154.181 83.7426 153.559C83.9681 152.93 84.2892 152.384 84.706 151.919C85.1296 151.454 85.6455 151.089 86.2537 150.822C86.8618 150.556 87.5451 150.423 88.3035 150.423C88.939 150.423 89.5232 150.529 90.0562 150.74C90.596 150.945 91.0606 151.246 91.4501 151.642C91.8396 152.039 92.1436 152.527 92.3623 153.108C92.5878 153.689 92.7005 154.352 92.7005 155.096C92.7005 155.404 92.6664 155.612 92.598 155.722C92.5297 155.824 92.4033 155.875 92.2188 155.875H85.3927C85.4132 156.497 85.502 157.04 85.6592 157.505C85.8164 157.963 86.0316 158.345 86.3049 158.653C86.5851 158.96 86.9165 159.189 87.2991 159.34C87.6817 159.49 88.1088 159.565 88.5803 159.565C89.0244 159.565 89.4071 159.514 89.7282 159.411C90.0562 159.309 90.3363 159.2 90.5687 159.083C90.8078 158.96 91.006 158.848 91.1631 158.745C91.3271 158.643 91.4706 158.591 91.5936 158.591C91.7576 158.591 91.884 158.653 91.9728 158.776L92.5468 159.514ZM100.445 156.378C99.6318 156.405 98.9417 156.47 98.3745 156.572C97.8074 156.668 97.3462 156.798 96.9909 156.962C96.6355 157.126 96.3793 157.32 96.2221 157.546C96.065 157.765 95.9864 158.011 95.9864 158.284C95.9864 158.544 96.0274 158.769 96.1094 158.96C96.1982 159.145 96.3144 159.299 96.4579 159.422C96.6082 159.538 96.7824 159.623 96.9806 159.678C97.1788 159.732 97.394 159.76 97.6263 159.76C97.9338 159.76 98.2139 159.729 98.4668 159.668C98.7264 159.606 98.969 159.521 99.1945 159.411C99.42 159.295 99.6352 159.155 99.8402 158.991C100.045 158.827 100.247 158.639 100.445 158.427V156.378ZM94.5822 152.042C95.163 151.489 95.7917 151.075 96.4681 150.802C97.1514 150.529 97.8996 150.392 98.7127 150.392C99.3072 150.392 99.8333 150.491 100.291 150.689C100.749 150.88 101.135 151.15 101.449 151.499C101.764 151.847 101.999 152.264 102.157 152.749C102.321 153.234 102.403 153.771 102.403 154.358V161H101.511C101.313 161 101.162 160.969 101.06 160.908C100.957 160.839 100.875 160.716 100.814 160.539L100.599 159.627C100.332 159.873 100.069 160.091 99.8094 160.283C99.5498 160.467 99.2765 160.628 98.9895 160.764C98.7093 160.894 98.4087 160.993 98.0875 161.061C97.7664 161.13 97.4111 161.164 97.0216 161.164C96.6116 161.164 96.2256 161.109 95.8634 161C95.5081 160.884 95.1972 160.71 94.9307 160.477C94.6642 160.245 94.4524 159.955 94.2953 159.606C94.1449 159.258 94.0698 158.851 94.0698 158.386C94.0698 157.976 94.1791 157.584 94.3978 157.208C94.6232 156.825 94.9854 156.483 95.4842 156.183C95.9898 155.882 96.6458 155.636 97.4521 155.445C98.2652 155.254 99.2628 155.144 100.445 155.117V154.358C100.445 153.573 100.277 152.985 99.9427 152.596C99.6079 152.206 99.1159 152.011 98.4668 152.011C98.0295 152.011 97.6605 152.066 97.3598 152.175C97.066 152.285 96.8098 152.408 96.5911 152.544C96.3793 152.674 96.1914 152.794 96.0274 152.903C95.8703 153.012 95.7063 153.067 95.5354 153.067C95.3988 153.067 95.2792 153.029 95.1767 152.954C95.081 152.879 95.0025 152.79 94.941 152.688L94.5822 152.042ZM107.128 145.872V161H105.119V145.872H107.128ZM113.242 161.164C112.401 161.164 111.752 160.928 111.295 160.457C110.844 159.985 110.618 159.312 110.618 158.438V152.206H109.409C109.292 152.206 109.193 152.172 109.111 152.104C109.036 152.028 108.999 151.919 108.999 151.776V150.966L110.69 150.73L111.141 147.625C111.168 147.508 111.219 147.42 111.295 147.358C111.377 147.29 111.479 147.256 111.602 147.256H112.617V150.751H115.569V152.206H112.617V158.304C112.617 158.714 112.716 159.022 112.914 159.227C113.119 159.425 113.379 159.524 113.693 159.524C113.877 159.524 114.035 159.5 114.164 159.452C114.301 159.405 114.417 159.353 114.513 159.299C114.608 159.237 114.69 159.182 114.759 159.135C114.827 159.087 114.889 159.063 114.943 159.063C115.012 159.063 115.063 159.08 115.097 159.114C115.138 159.141 115.179 159.189 115.22 159.258L115.814 160.221C115.487 160.522 115.097 160.754 114.646 160.918C114.195 161.082 113.727 161.164 113.242 161.164ZM119.408 151.909C119.845 151.465 120.327 151.106 120.853 150.833C121.386 150.559 121.998 150.423 122.688 150.423C123.262 150.423 123.764 150.518 124.194 150.71C124.632 150.901 124.997 151.171 125.291 151.519C125.585 151.861 125.807 152.274 125.957 152.759C126.108 153.245 126.183 153.781 126.183 154.369V161H124.174V154.369C124.174 153.624 124.003 153.046 123.662 152.637C123.32 152.22 122.797 152.011 122.093 152.011C121.581 152.011 121.099 152.134 120.648 152.38C120.204 152.619 119.791 152.947 119.408 153.364V161H117.409V145.872H119.408V151.909ZM136.156 150.587V161H134.157V150.587H136.156ZM136.535 147.368C136.535 147.553 136.497 147.73 136.422 147.901C136.347 148.065 136.244 148.212 136.115 148.342C135.992 148.465 135.845 148.564 135.674 148.639C135.503 148.708 135.325 148.742 135.141 148.742C134.956 148.742 134.782 148.708 134.618 148.639C134.454 148.564 134.307 148.465 134.177 148.342C134.054 148.212 133.955 148.065 133.88 147.901C133.812 147.73 133.778 147.553 133.778 147.368C133.778 147.177 133.812 146.999 133.88 146.835C133.955 146.665 134.054 146.518 134.177 146.395C134.307 146.265 134.454 146.166 134.618 146.097C134.782 146.022 134.956 145.985 135.141 145.985C135.325 145.985 135.503 146.022 135.674 146.097C135.845 146.166 135.992 146.265 136.115 146.395C136.244 146.518 136.347 146.665 136.422 146.835C136.497 146.999 136.535 147.177 136.535 147.368ZM139.049 161V150.587H140.248C140.529 150.587 140.703 150.72 140.771 150.986L140.915 151.981C141.297 151.523 141.721 151.15 142.185 150.863C142.657 150.57 143.207 150.423 143.836 150.423C144.526 150.423 145.086 150.614 145.517 150.997C145.947 151.372 146.261 151.885 146.459 152.534C146.61 152.165 146.805 151.847 147.044 151.581C147.283 151.314 147.549 151.096 147.843 150.925C148.137 150.754 148.448 150.628 148.776 150.546C149.111 150.464 149.449 150.423 149.791 150.423C150.344 150.423 150.836 150.511 151.266 150.689C151.704 150.86 152.073 151.113 152.373 151.448C152.674 151.782 152.903 152.196 153.06 152.688C153.217 153.18 153.296 153.74 153.296 154.369V161H151.287V154.369C151.287 153.59 151.116 153.002 150.774 152.606C150.44 152.209 149.948 152.011 149.299 152.011C149.012 152.011 148.738 152.063 148.479 152.165C148.219 152.261 147.99 152.408 147.792 152.606C147.601 152.804 147.447 153.05 147.331 153.344C147.221 153.638 147.167 153.979 147.167 154.369V161H145.158V154.369C145.158 153.562 144.997 152.968 144.676 152.585C144.355 152.203 143.883 152.011 143.262 152.011C142.831 152.011 142.431 152.124 142.063 152.35C141.694 152.575 141.355 152.882 141.048 153.272V161H139.049ZM157.983 158.438C158.311 158.868 158.663 159.169 159.039 159.34C159.422 159.51 159.849 159.596 160.32 159.596C161.236 159.596 161.943 159.268 162.442 158.612C162.947 157.949 163.2 156.986 163.2 155.722C163.2 155.059 163.142 154.495 163.026 154.03C162.917 153.559 162.753 153.176 162.534 152.882C162.322 152.582 162.059 152.363 161.745 152.227C161.431 152.083 161.075 152.011 160.679 152.011C160.098 152.011 159.592 152.141 159.162 152.401C158.738 152.66 158.345 153.029 157.983 153.508V158.438ZM157.881 152.145C158.099 151.885 158.332 151.649 158.578 151.437C158.831 151.219 159.101 151.034 159.387 150.884C159.674 150.727 159.979 150.607 160.3 150.525C160.628 150.436 160.976 150.392 161.345 150.392C161.94 150.392 162.476 150.508 162.954 150.74C163.439 150.973 163.853 151.314 164.194 151.765C164.536 152.216 164.799 152.773 164.984 153.436C165.175 154.099 165.271 154.861 165.271 155.722C165.271 156.494 165.165 157.211 164.953 157.874C164.748 158.53 164.451 159.1 164.061 159.586C163.679 160.071 163.207 160.453 162.647 160.734C162.093 161.007 161.468 161.143 160.771 161.143C160.149 161.143 159.616 161.041 159.172 160.836C158.728 160.631 158.332 160.344 157.983 159.975V164.495H155.985V150.587H157.184C157.464 150.587 157.638 150.72 157.707 150.986L157.881 152.145ZM173.111 156.378C172.298 156.405 171.608 156.47 171.041 156.572C170.474 156.668 170.013 156.798 169.657 156.962C169.302 157.126 169.046 157.32 168.889 157.546C168.732 157.765 168.653 158.011 168.653 158.284C168.653 158.544 168.694 158.769 168.776 158.96C168.865 159.145 168.981 159.299 169.124 159.422C169.275 159.538 169.449 159.623 169.647 159.678C169.845 159.732 170.061 159.76 170.293 159.76C170.6 159.76 170.88 159.729 171.133 159.668C171.393 159.606 171.636 159.521 171.861 159.411C172.086 159.295 172.302 159.155 172.507 158.991C172.712 158.827 172.913 158.639 173.111 158.427V156.378ZM167.249 152.042C167.83 151.489 168.458 151.075 169.135 150.802C169.818 150.529 170.566 150.392 171.379 150.392C171.974 150.392 172.5 150.491 172.958 150.689C173.415 150.88 173.802 151.15 174.116 151.499C174.43 151.847 174.666 152.264 174.823 152.749C174.987 153.234 175.069 153.771 175.069 154.358V161H174.177C173.979 161 173.829 160.969 173.726 160.908C173.624 160.839 173.542 160.716 173.48 160.539L173.265 159.627C172.999 159.873 172.736 160.091 172.476 160.283C172.216 160.467 171.943 160.628 171.656 160.764C171.376 160.894 171.075 160.993 170.754 161.061C170.433 161.13 170.078 161.164 169.688 161.164C169.278 161.164 168.892 161.109 168.53 161C168.175 160.884 167.864 160.71 167.597 160.477C167.331 160.245 167.119 159.955 166.962 159.606C166.811 159.258 166.736 158.851 166.736 158.386C166.736 157.976 166.846 157.584 167.064 157.208C167.29 156.825 167.652 156.483 168.151 156.183C168.656 155.882 169.312 155.636 170.119 155.445C170.932 155.254 171.929 155.144 173.111 155.117V154.358C173.111 153.573 172.944 152.985 172.609 152.596C172.274 152.206 171.782 152.011 171.133 152.011C170.696 152.011 170.327 152.066 170.026 152.175C169.733 152.285 169.476 152.408 169.258 152.544C169.046 152.674 168.858 152.794 168.694 152.903C168.537 153.012 168.373 153.067 168.202 153.067C168.065 153.067 167.946 153.029 167.843 152.954C167.748 152.879 167.669 152.79 167.607 152.688L167.249 152.042ZM185.042 152.534C184.981 152.609 184.919 152.671 184.858 152.718C184.803 152.759 184.721 152.78 184.612 152.78C184.502 152.78 184.386 152.739 184.263 152.657C184.147 152.568 183.997 152.476 183.812 152.38C183.635 152.278 183.416 152.186 183.156 152.104C182.903 152.015 182.589 151.97 182.213 151.97C181.721 151.97 181.287 152.059 180.912 152.237C180.536 152.414 180.222 152.667 179.969 152.995C179.723 153.323 179.535 153.723 179.405 154.194C179.275 154.666 179.21 155.195 179.21 155.783C179.21 156.391 179.279 156.934 179.415 157.413C179.552 157.884 179.747 158.284 179.999 158.612C180.252 158.933 180.56 159.179 180.922 159.35C181.284 159.514 181.687 159.596 182.131 159.596C182.562 159.596 182.917 159.545 183.197 159.442C183.477 159.333 183.71 159.217 183.894 159.094C184.079 158.971 184.232 158.858 184.355 158.755C184.478 158.646 184.605 158.591 184.735 158.591C184.899 158.591 185.025 158.653 185.114 158.776L185.688 159.514C185.449 159.808 185.179 160.057 184.878 160.262C184.584 160.467 184.27 160.634 183.935 160.764C183.6 160.894 183.249 160.99 182.88 161.051C182.517 161.113 182.148 161.143 181.773 161.143C181.123 161.143 180.515 161.024 179.948 160.785C179.388 160.546 178.899 160.197 178.483 159.739C178.073 159.282 177.748 158.721 177.509 158.058C177.27 157.389 177.15 156.63 177.15 155.783C177.15 155.011 177.256 154.297 177.468 153.641C177.687 152.985 178.004 152.421 178.421 151.95C178.845 151.471 179.364 151.099 179.979 150.833C180.594 150.559 181.298 150.423 182.09 150.423C182.835 150.423 183.491 150.542 184.058 150.781C184.625 151.021 185.131 151.359 185.575 151.796L185.042 152.534ZM190.813 161.164C189.972 161.164 189.323 160.928 188.866 160.457C188.415 159.985 188.189 159.312 188.189 158.438V152.206H186.98C186.863 152.206 186.764 152.172 186.682 152.104C186.607 152.028 186.57 151.919 186.57 151.776V150.966L188.261 150.73L188.712 147.625C188.739 147.508 188.79 147.42 188.866 147.358C188.948 147.29 189.05 147.256 189.173 147.256H190.188V150.751H193.14V152.206H190.188V158.304C190.188 158.714 190.287 159.022 190.485 159.227C190.69 159.425 190.95 159.524 191.264 159.524C191.448 159.524 191.606 159.5 191.735 159.452C191.872 159.405 191.988 159.353 192.084 159.299C192.179 159.237 192.261 159.182 192.33 159.135C192.398 159.087 192.46 159.063 192.514 159.063C192.583 159.063 192.634 159.08 192.668 159.114C192.709 159.141 192.75 159.189 192.791 159.258L193.386 160.221C193.058 160.522 192.668 160.754 192.217 160.918C191.766 161.082 191.298 161.164 190.813 161.164ZM201.12 152.38C201.065 152.469 201.007 152.534 200.946 152.575C200.884 152.609 200.805 152.626 200.71 152.626C200.6 152.626 200.477 152.589 200.341 152.514C200.211 152.438 200.05 152.356 199.859 152.268C199.675 152.179 199.456 152.097 199.203 152.022C198.95 151.946 198.65 151.909 198.301 151.909C198.014 151.909 197.751 151.946 197.512 152.022C197.28 152.09 197.082 152.189 196.918 152.319C196.754 152.442 196.627 152.592 196.538 152.77C196.449 152.941 196.405 153.125 196.405 153.323C196.405 153.583 196.48 153.798 196.631 153.969C196.788 154.14 196.989 154.287 197.235 154.41C197.488 154.533 197.772 154.645 198.086 154.748C198.407 154.844 198.732 154.946 199.06 155.055C199.394 155.165 199.719 155.291 200.033 155.435C200.354 155.571 200.638 155.745 200.884 155.957C201.137 156.162 201.338 156.412 201.489 156.706C201.646 156.999 201.724 157.358 201.724 157.782C201.724 158.267 201.636 158.718 201.458 159.135C201.287 159.545 201.031 159.9 200.689 160.201C200.354 160.501 199.938 160.737 199.439 160.908C198.94 161.079 198.37 161.164 197.727 161.164C197.01 161.164 196.347 161.044 195.739 160.805C195.131 160.566 194.622 160.262 194.212 159.893L194.683 159.124C194.738 159.029 194.806 158.957 194.888 158.909C194.97 158.854 195.079 158.827 195.216 158.827C195.346 158.827 195.479 158.875 195.616 158.971C195.753 159.066 195.917 159.172 196.108 159.288C196.299 159.398 196.531 159.5 196.805 159.596C197.078 159.685 197.42 159.729 197.83 159.729C198.171 159.729 198.469 159.688 198.721 159.606C198.974 159.517 199.183 159.401 199.347 159.258C199.517 159.107 199.644 158.936 199.726 158.745C199.808 158.554 199.849 158.352 199.849 158.14C199.849 157.867 199.77 157.642 199.613 157.464C199.463 157.279 199.261 157.122 199.008 156.992C198.762 156.863 198.479 156.75 198.158 156.654C197.837 156.559 197.509 156.456 197.174 156.347C196.839 156.237 196.511 156.111 196.19 155.968C195.869 155.824 195.582 155.643 195.329 155.424C195.083 155.206 194.881 154.939 194.724 154.625C194.574 154.311 194.499 153.928 194.499 153.477C194.499 153.074 194.581 152.688 194.745 152.319C194.915 151.95 195.158 151.625 195.472 151.345C195.794 151.065 196.186 150.843 196.651 150.679C197.123 150.508 197.659 150.423 198.26 150.423C198.95 150.423 199.572 150.532 200.126 150.751C200.686 150.969 201.164 151.27 201.561 151.653L201.12 152.38ZM211.451 158.274C211.738 158.622 212.049 158.868 212.384 159.012C212.725 159.155 213.094 159.227 213.491 159.227C213.873 159.227 214.218 159.155 214.526 159.012C214.833 158.868 215.093 158.649 215.305 158.356C215.524 158.062 215.691 157.693 215.807 157.249C215.923 156.798 215.981 156.268 215.981 155.66C215.981 155.045 215.93 154.526 215.828 154.102C215.732 153.672 215.592 153.323 215.407 153.057C215.223 152.79 214.997 152.596 214.731 152.473C214.471 152.35 214.174 152.288 213.839 152.288C213.313 152.288 212.866 152.401 212.497 152.626C212.128 152.845 211.779 153.156 211.451 153.559V158.274ZM211.318 151.919C211.748 151.434 212.237 151.041 212.784 150.74C213.33 150.44 213.972 150.289 214.71 150.289C215.284 150.289 215.807 150.409 216.279 150.648C216.757 150.887 217.167 151.236 217.509 151.694C217.857 152.145 218.123 152.705 218.308 153.374C218.499 154.037 218.595 154.799 218.595 155.66C218.595 156.446 218.489 157.174 218.277 157.843C218.065 158.513 217.761 159.094 217.365 159.586C216.976 160.078 216.501 160.464 215.94 160.744C215.387 161.017 214.765 161.154 214.075 161.154C213.487 161.154 212.985 161.065 212.568 160.887C212.152 160.703 211.779 160.45 211.451 160.129V164.434H208.92V150.484H210.467C210.795 150.484 211.01 150.638 211.113 150.945L211.318 151.919ZM223.102 151.612C223.512 151.229 223.963 150.918 224.455 150.679C224.947 150.44 225.524 150.32 226.187 150.32C226.761 150.32 227.27 150.419 227.714 150.617C228.158 150.809 228.527 151.082 228.821 151.437C229.122 151.786 229.347 152.206 229.497 152.698C229.655 153.183 229.733 153.72 229.733 154.307V161H227.202V154.307C227.202 153.665 227.055 153.169 226.761 152.821C226.467 152.466 226.019 152.288 225.418 152.288C224.981 152.288 224.571 152.387 224.188 152.585C223.806 152.783 223.443 153.053 223.102 153.395V161H220.57V145.769H223.102V151.612ZM241.413 150.484L235.684 163.89C235.608 164.068 235.509 164.201 235.386 164.29C235.27 164.386 235.089 164.434 234.843 164.434H232.957L234.925 160.211L230.672 150.484H232.896C233.094 150.484 233.248 150.532 233.357 150.628C233.473 150.723 233.559 150.833 233.613 150.956L235.848 156.408C235.923 156.593 235.984 156.777 236.032 156.962C236.087 157.146 236.138 157.334 236.186 157.525C236.247 157.334 236.309 157.146 236.37 156.962C236.432 156.77 236.5 156.583 236.575 156.398L238.687 150.956C238.741 150.819 238.83 150.706 238.953 150.617C239.083 150.529 239.226 150.484 239.384 150.484H241.413ZM248.866 152.534C248.798 152.643 248.726 152.722 248.651 152.77C248.576 152.811 248.48 152.831 248.364 152.831C248.241 152.831 248.108 152.797 247.964 152.729C247.828 152.66 247.667 152.585 247.483 152.503C247.298 152.414 247.086 152.336 246.847 152.268C246.615 152.199 246.338 152.165 246.017 152.165C245.518 152.165 245.125 152.271 244.838 152.483C244.558 152.695 244.418 152.971 244.418 153.313C244.418 153.538 244.49 153.73 244.633 153.887C244.784 154.037 244.978 154.17 245.218 154.287C245.464 154.403 245.74 154.509 246.048 154.604C246.355 154.693 246.666 154.792 246.98 154.902C247.302 155.011 247.616 155.137 247.923 155.281C248.231 155.418 248.504 155.595 248.743 155.814C248.989 156.026 249.184 156.282 249.328 156.583C249.478 156.883 249.553 157.245 249.553 157.669C249.553 158.175 249.461 158.643 249.276 159.073C249.099 159.497 248.832 159.866 248.477 160.18C248.122 160.488 247.681 160.73 247.155 160.908C246.635 161.079 246.034 161.164 245.351 161.164C244.989 161.164 244.633 161.13 244.285 161.061C243.943 161 243.612 160.911 243.291 160.795C242.976 160.679 242.683 160.542 242.409 160.385C242.143 160.228 241.907 160.057 241.702 159.873L242.286 158.909C242.361 158.793 242.45 158.704 242.553 158.643C242.655 158.581 242.785 158.55 242.942 158.55C243.099 158.55 243.246 158.595 243.383 158.684C243.526 158.772 243.69 158.868 243.875 158.971C244.059 159.073 244.275 159.169 244.521 159.258C244.773 159.346 245.091 159.391 245.474 159.391C245.774 159.391 246.031 159.357 246.243 159.288C246.461 159.213 246.639 159.118 246.775 159.001C246.919 158.885 247.021 158.752 247.083 158.602C247.151 158.444 247.185 158.284 247.185 158.12C247.185 157.874 247.11 157.672 246.96 157.515C246.816 157.358 246.622 157.221 246.376 157.105C246.137 156.989 245.86 156.887 245.546 156.798C245.238 156.702 244.92 156.6 244.592 156.49C244.271 156.381 243.953 156.255 243.639 156.111C243.332 155.961 243.055 155.773 242.809 155.547C242.57 155.322 242.375 155.045 242.225 154.717C242.081 154.389 242.01 153.993 242.01 153.528C242.01 153.098 242.095 152.688 242.266 152.298C242.437 151.909 242.686 151.571 243.014 151.284C243.349 150.99 243.762 150.757 244.254 150.587C244.753 150.409 245.327 150.32 245.976 150.32C246.7 150.32 247.36 150.44 247.954 150.679C248.549 150.918 249.044 151.232 249.44 151.622L248.866 152.534ZM254.082 150.484V161H251.54V150.484H254.082ZM254.431 147.42C254.431 147.638 254.386 147.843 254.298 148.035C254.209 148.226 254.089 148.393 253.939 148.537C253.795 148.68 253.625 148.796 253.426 148.885C253.228 148.967 253.016 149.008 252.791 149.008C252.572 149.008 252.364 148.967 252.166 148.885C251.974 148.796 251.807 148.68 251.663 148.537C251.52 148.393 251.404 148.226 251.315 148.035C251.233 147.843 251.192 147.638 251.192 147.42C251.192 147.194 251.233 146.982 251.315 146.784C251.404 146.586 251.52 146.415 251.663 146.272C251.807 146.128 251.974 146.015 252.166 145.933C252.364 145.845 252.572 145.8 252.791 145.8C253.016 145.8 253.228 145.845 253.426 145.933C253.625 146.015 253.795 146.128 253.939 146.272C254.089 146.415 254.209 146.586 254.298 146.784C254.386 146.982 254.431 147.194 254.431 147.42ZM264.197 152.708C264.121 152.804 264.046 152.879 263.971 152.934C263.903 152.988 263.8 153.016 263.664 153.016C263.534 153.016 263.407 152.978 263.284 152.903C263.161 152.821 263.014 152.732 262.844 152.637C262.673 152.534 262.468 152.445 262.229 152.37C261.996 152.288 261.706 152.247 261.357 152.247C260.913 152.247 260.524 152.329 260.189 152.493C259.854 152.65 259.574 152.879 259.349 153.18C259.13 153.48 258.966 153.846 258.857 154.276C258.747 154.7 258.693 155.182 258.693 155.722C258.693 156.282 258.751 156.781 258.867 157.218C258.99 157.655 259.164 158.024 259.39 158.325C259.615 158.619 259.888 158.844 260.21 159.001C260.531 159.152 260.893 159.227 261.296 159.227C261.699 159.227 262.024 159.179 262.27 159.083C262.522 158.981 262.734 158.872 262.905 158.755C263.076 158.632 263.223 158.523 263.346 158.427C263.476 158.325 263.619 158.274 263.776 158.274C263.981 158.274 264.135 158.352 264.238 158.509L264.965 159.432C264.685 159.76 264.381 160.037 264.053 160.262C263.725 160.481 263.383 160.658 263.028 160.795C262.68 160.925 262.318 161.017 261.942 161.072C261.573 161.126 261.204 161.154 260.835 161.154C260.186 161.154 259.574 161.034 259 160.795C258.426 160.549 257.924 160.194 257.493 159.729C257.063 159.264 256.721 158.697 256.469 158.028C256.223 157.351 256.1 156.583 256.1 155.722C256.1 154.949 256.209 154.235 256.428 153.579C256.653 152.917 256.981 152.346 257.411 151.868C257.842 151.383 258.375 151.003 259.01 150.73C259.646 150.457 260.377 150.32 261.204 150.32C261.99 150.32 262.676 150.447 263.264 150.699C263.858 150.952 264.391 151.314 264.863 151.786L264.197 152.708ZM272.108 156.511C271.376 156.545 270.761 156.61 270.263 156.706C269.764 156.794 269.364 156.91 269.063 157.054C268.763 157.197 268.548 157.365 268.418 157.556C268.288 157.748 268.223 157.956 268.223 158.181C268.223 158.626 268.353 158.943 268.612 159.135C268.879 159.326 269.224 159.422 269.648 159.422C270.167 159.422 270.615 159.329 270.99 159.145C271.373 158.954 271.745 158.667 272.108 158.284V156.511ZM266.306 151.95C267.516 150.843 268.971 150.289 270.673 150.289C271.288 150.289 271.838 150.392 272.323 150.597C272.808 150.795 273.218 151.075 273.553 151.437C273.887 151.793 274.14 152.22 274.311 152.718C274.489 153.217 274.578 153.764 274.578 154.358V161H273.43C273.191 161 273.006 160.966 272.876 160.898C272.746 160.822 272.644 160.675 272.569 160.457L272.343 159.698C272.077 159.937 271.817 160.149 271.564 160.334C271.311 160.511 271.048 160.662 270.775 160.785C270.502 160.908 270.208 161 269.894 161.061C269.586 161.13 269.245 161.164 268.869 161.164C268.425 161.164 268.015 161.106 267.639 160.99C267.263 160.867 266.938 160.686 266.665 160.447C266.392 160.207 266.18 159.91 266.03 159.555C265.879 159.2 265.804 158.786 265.804 158.315C265.804 158.048 265.849 157.785 265.937 157.525C266.026 157.259 266.17 157.006 266.368 156.767C266.573 156.528 266.836 156.302 267.157 156.091C267.478 155.879 267.871 155.694 268.336 155.537C268.807 155.38 269.354 155.254 269.976 155.158C270.597 155.055 271.308 154.994 272.108 154.973V154.358C272.108 153.655 271.957 153.135 271.657 152.8C271.356 152.459 270.922 152.288 270.355 152.288C269.945 152.288 269.603 152.336 269.33 152.432C269.063 152.527 268.828 152.637 268.623 152.759C268.418 152.876 268.23 152.982 268.059 153.077C267.895 153.173 267.711 153.221 267.506 153.221C267.328 153.221 267.178 153.176 267.055 153.087C266.932 152.992 266.832 152.882 266.757 152.759L266.306 151.95ZM279.524 145.769V161H276.993V145.769H279.524ZM24.112 175.484L20.7707 186H18.7413C18.509 186 18.3484 185.85 18.2596 185.549L16.3737 179.471C16.3122 179.266 16.2541 179.065 16.1995 178.866C16.1516 178.661 16.1106 178.456 16.0765 178.251C16.0355 178.456 15.9876 178.665 15.933 178.877C15.8851 179.082 15.8305 179.287 15.769 179.492L13.8523 185.549C13.7704 185.85 13.5893 186 13.3091 186H11.3617L8.0307 175.484H10.0498C10.2343 175.484 10.3915 175.529 10.5213 175.617C10.6511 175.706 10.7365 175.819 10.7775 175.956L12.2842 181.572C12.3594 181.88 12.4243 182.18 12.4789 182.474C12.5404 182.768 12.5917 183.062 12.6327 183.356C12.7078 183.062 12.7864 182.768 12.8684 182.474C12.9572 182.18 13.0495 181.88 13.1451 181.572L14.8875 175.935C14.9285 175.798 15.0071 175.686 15.1233 175.597C15.2463 175.508 15.3932 175.464 15.564 175.464H16.6812C16.8588 175.464 17.0092 175.508 17.1321 175.597C17.262 175.686 17.3474 175.798 17.3884 175.935L19.0795 181.572C19.1684 181.88 19.2504 182.184 19.3255 182.484C19.4075 182.778 19.4861 183.072 19.5613 183.366C19.6501 182.785 19.7765 182.187 19.9405 181.572L21.4881 175.956C21.536 175.819 21.6214 175.706 21.7444 175.617C21.8674 175.529 22.0143 175.484 22.1851 175.484H24.112ZM32.1464 179.533C32.1464 179.205 32.0985 178.897 32.0029 178.61C31.9141 178.316 31.7774 178.06 31.5929 177.841C31.4084 177.623 31.1727 177.452 30.8857 177.329C30.6055 177.199 30.2776 177.134 29.9018 177.134C29.1706 177.134 28.5933 177.343 28.1696 177.759C27.7528 178.176 27.4863 178.767 27.3702 179.533H32.1464ZM27.3189 181.06C27.3599 181.6 27.4556 182.068 27.6059 182.464C27.7562 182.853 27.9544 183.178 28.2004 183.438C28.4463 183.69 28.7367 183.882 29.0716 184.012C29.4132 184.135 29.789 184.196 30.199 184.196C30.609 184.196 30.9609 184.148 31.2547 184.053C31.5553 183.957 31.815 183.851 32.0336 183.735C32.2591 183.619 32.4539 183.513 32.6178 183.417C32.7887 183.321 32.9527 183.274 33.1098 183.274C33.3216 183.274 33.4788 183.352 33.5813 183.509L34.309 184.432C34.0288 184.76 33.7145 185.037 33.366 185.262C33.0176 185.481 32.652 185.658 32.2694 185.795C31.8936 185.925 31.5075 186.017 31.1112 186.072C30.7217 186.126 30.3425 186.154 29.9735 186.154C29.2424 186.154 28.5625 186.034 27.9339 185.795C27.3052 185.549 26.7586 185.19 26.294 184.719C25.8293 184.241 25.4638 183.653 25.1973 182.956C24.9308 182.252 24.7976 181.439 24.7976 180.517C24.7976 179.799 24.9137 179.126 25.146 178.497C25.3784 177.862 25.7098 177.312 26.1402 176.847C26.5775 176.376 27.1071 176.003 27.7289 175.73C28.3575 175.457 29.0647 175.32 29.8505 175.32C30.5133 175.32 31.1249 175.426 31.6852 175.638C32.2454 175.85 32.7272 176.161 33.1303 176.571C33.5335 176.974 33.8478 177.473 34.0733 178.067C34.3056 178.655 34.4217 179.328 34.4217 180.086C34.4217 180.469 34.3807 180.728 34.2987 180.865C34.2167 180.995 34.0596 181.06 33.8273 181.06H27.3189ZM38.8839 170.769V186H36.3523V170.769H38.8839ZM43.9686 170.769V186H41.437V170.769H43.9686ZM49.0225 183.274C49.3094 183.622 49.6203 183.868 49.9552 184.012C50.2968 184.155 50.6555 184.227 51.0313 184.227C51.4208 184.227 51.7693 184.159 52.0768 184.022C52.3911 183.878 52.6576 183.66 52.8762 183.366C53.0949 183.065 53.2623 182.686 53.3785 182.228C53.4946 181.764 53.5527 181.21 53.5527 180.568C53.5527 179.413 53.3614 178.579 52.9787 178.067C52.5961 177.548 52.046 177.288 51.3286 177.288C50.8434 177.288 50.4198 177.401 50.0577 177.626C49.6955 177.845 49.3504 178.156 49.0225 178.559V183.274ZM49.0225 176.776C49.4461 176.331 49.9142 175.98 50.4266 175.72C50.9459 175.453 51.537 175.32 52.1998 175.32C52.8079 175.32 53.3545 175.44 53.8397 175.679C54.3316 175.918 54.7485 176.263 55.0901 176.714C55.4386 177.158 55.7051 177.698 55.8895 178.333C56.074 178.969 56.1663 179.683 56.1663 180.476C56.1663 181.33 56.0604 182.105 55.8486 182.802C55.6367 183.499 55.3327 184.097 54.9364 184.596C54.5469 185.088 54.0754 185.47 53.5219 185.744C52.9685 186.017 52.3535 186.154 51.6771 186.154C51.3491 186.154 51.0518 186.12 50.7854 186.051C50.5189 185.99 50.2729 185.901 50.0474 185.785C49.8219 185.669 49.6135 185.529 49.4222 185.365C49.2377 185.194 49.06 185.006 48.8892 184.801L48.7765 185.508C48.7355 185.686 48.6637 185.812 48.5612 185.887C48.4656 185.962 48.3323 186 48.1615 186H46.4909V170.769H49.0225V176.776ZM64.8964 179.533C64.8964 179.205 64.8485 178.897 64.7529 178.61C64.664 178.316 64.5274 178.06 64.3429 177.841C64.1584 177.623 63.9227 177.452 63.6357 177.329C63.3555 177.199 63.0275 177.134 62.6517 177.134C61.9206 177.134 61.3432 177.343 60.9196 177.759C60.5028 178.176 60.2363 178.767 60.1201 179.533H64.8964ZM60.0689 181.06C60.1099 181.6 60.2056 182.068 60.3559 182.464C60.5062 182.853 60.7044 183.178 60.9503 183.438C61.1963 183.69 61.4867 183.882 61.8215 184.012C62.1632 184.135 62.539 184.196 62.949 184.196C63.3589 184.196 63.7108 184.148 64.0047 184.053C64.3053 183.957 64.565 183.851 64.7836 183.735C65.0091 183.619 65.2038 183.513 65.3678 183.417C65.5386 183.321 65.7026 183.274 65.8598 183.274C66.0716 183.274 66.2288 183.352 66.3313 183.509L67.059 184.432C66.7788 184.76 66.4645 185.037 66.116 185.262C65.7676 185.481 65.402 185.658 65.0193 185.795C64.6435 185.925 64.2575 186.017 63.8612 186.072C63.4717 186.126 63.0925 186.154 62.7235 186.154C61.9924 186.154 61.3125 186.034 60.6839 185.795C60.0552 185.549 59.5086 185.19 59.044 184.719C58.5793 184.241 58.2138 183.653 57.9473 182.956C57.6808 182.252 57.5475 181.439 57.5475 180.517C57.5475 179.799 57.6637 179.126 57.896 178.497C58.1283 177.862 58.4597 177.312 58.8902 176.847C59.3275 176.376 59.8571 176.003 60.4789 175.73C61.1075 175.457 61.8147 175.32 62.6005 175.32C63.2633 175.32 63.8748 175.426 64.4351 175.638C64.9954 175.85 65.4772 176.161 65.8803 176.571C66.2834 176.974 66.5978 177.473 66.8232 178.067C67.0556 178.655 67.1717 179.328 67.1717 180.086C67.1717 180.469 67.1307 180.728 67.0487 180.865C66.9667 180.995 66.8096 181.06 66.5773 181.06H60.0689ZM71.6954 175.484V186H69.1535V175.484H71.6954ZM72.0439 172.42C72.0439 172.638 71.9994 172.843 71.9106 173.035C71.8218 173.226 71.7022 173.393 71.5519 173.537C71.4084 173.68 71.2376 173.796 71.0394 173.885C70.8413 173.967 70.6294 174.008 70.404 174.008C70.1853 174.008 69.9769 173.967 69.7787 173.885C69.5874 173.796 69.42 173.68 69.2765 173.537C69.133 173.393 69.0169 173.226 68.928 173.035C68.8461 172.843 68.8051 172.638 68.8051 172.42C68.8051 172.194 68.8461 171.982 68.928 171.784C69.0169 171.586 69.133 171.415 69.2765 171.272C69.42 171.128 69.5874 171.015 69.7787 170.933C69.9769 170.845 70.1853 170.8 70.404 170.8C70.6294 170.8 70.8413 170.845 71.0394 170.933C71.2376 171.015 71.4084 171.128 71.5519 171.272C71.7022 171.415 71.8218 171.586 71.9106 171.784C71.9994 171.982 72.0439 172.194 72.0439 172.42ZM76.6439 176.776C76.8557 176.564 77.0778 176.369 77.3101 176.191C77.5493 176.007 77.7987 175.853 78.0583 175.73C78.3248 175.6 78.6084 175.501 78.909 175.433C79.2097 175.358 79.5377 175.32 79.893 175.32C80.4669 175.32 80.976 175.419 81.4201 175.617C81.8643 175.809 82.2332 176.082 82.5271 176.437C82.8277 176.786 83.0532 177.206 83.2035 177.698C83.3607 178.183 83.4393 178.72 83.4393 179.307V186H80.9077V179.307C80.9077 178.665 80.7607 178.169 80.4669 177.821C80.1731 177.466 79.7256 177.288 79.1243 177.288C78.687 177.288 78.277 177.387 77.8943 177.585C77.5117 177.783 77.1495 178.053 76.8079 178.395V186H74.2763V175.484H75.824C76.1519 175.484 76.3672 175.638 76.4697 175.945L76.6439 176.776ZM89.6904 180.486C90.0047 180.486 90.278 180.445 90.5104 180.363C90.7427 180.274 90.934 180.154 91.0843 180.004C91.2415 179.854 91.3576 179.673 91.4328 179.461C91.5148 179.249 91.5558 179.017 91.5558 178.764C91.5558 178.245 91.3986 177.835 91.0843 177.534C90.7768 177.227 90.3122 177.073 89.6904 177.073C89.0686 177.073 88.6006 177.227 88.2862 177.534C87.9788 177.835 87.825 178.245 87.825 178.764C87.825 179.01 87.8626 179.239 87.9378 179.451C88.0198 179.662 88.1359 179.847 88.2862 180.004C88.4434 180.154 88.6381 180.274 88.8705 180.363C89.1096 180.445 89.3829 180.486 89.6904 180.486ZM92.55 186.471C92.55 186.266 92.4885 186.099 92.3655 185.969C92.2425 185.839 92.0751 185.74 91.8633 185.672C91.6515 185.597 91.4021 185.542 91.1151 185.508C90.8349 185.474 90.5343 185.45 90.2131 185.436C89.8988 185.416 89.5708 185.399 89.2292 185.385C88.8944 185.371 88.5664 185.344 88.2452 185.303C87.9651 185.46 87.7362 185.645 87.5585 185.857C87.3877 186.068 87.3023 186.314 87.3023 186.594C87.3023 186.779 87.3467 186.95 87.4355 187.107C87.5312 187.271 87.6781 187.411 87.8763 187.527C88.0813 187.643 88.3443 187.732 88.6655 187.794C88.9866 187.862 89.3795 187.896 89.8442 187.896C90.3156 187.896 90.7222 187.859 91.0638 187.783C91.4055 187.715 91.6856 187.616 91.9043 187.486C92.1298 187.363 92.2938 187.213 92.3962 187.035C92.4987 186.864 92.55 186.676 92.55 186.471ZM95.0713 175.843V176.786C95.0713 177.086 94.8903 177.271 94.5281 177.339L93.5852 177.514C93.7287 177.876 93.8004 178.272 93.8004 178.702C93.8004 179.222 93.6945 179.693 93.4827 180.117C93.2777 180.534 92.9907 180.889 92.6217 181.183C92.2528 181.477 91.8154 181.706 91.3098 181.869C90.811 182.027 90.2712 182.105 89.6904 182.105C89.4854 182.105 89.2873 182.095 89.0959 182.074C88.9046 182.054 88.7167 182.027 88.5322 181.992C88.2042 182.191 88.0403 182.413 88.0403 182.659C88.0403 182.871 88.1359 183.028 88.3272 183.13C88.5254 183.226 88.785 183.294 89.1062 183.335C89.4273 183.376 89.7929 183.403 90.2029 183.417C90.6129 183.424 91.0331 183.444 91.4636 183.479C91.894 183.513 92.3143 183.574 92.7242 183.663C93.1342 183.745 93.4998 183.878 93.8209 184.063C94.1421 184.247 94.3983 184.5 94.5896 184.821C94.7878 185.136 94.8868 185.542 94.8868 186.041C94.8868 186.506 94.7707 186.957 94.5384 187.394C94.3129 187.831 93.9815 188.221 93.5442 188.562C93.1137 188.904 92.5807 189.177 91.9453 189.382C91.3166 189.594 90.5992 189.7 89.7929 189.7C89.0003 189.7 88.3102 189.621 87.7225 189.464C87.1349 189.314 86.6463 189.109 86.2569 188.849C85.8674 188.597 85.577 188.303 85.3857 187.968C85.1943 187.633 85.0987 187.285 85.0987 186.922C85.0987 186.43 85.2456 186.02 85.5394 185.693C85.8401 185.358 86.25 185.091 86.7693 184.893C86.4892 184.75 86.2671 184.558 86.1031 184.319C85.9391 184.08 85.8571 183.766 85.8571 183.376C85.8571 183.219 85.8845 183.058 85.9391 182.894C86.0006 182.724 86.086 182.556 86.1954 182.392C86.3115 182.228 86.455 182.074 86.6258 181.931C86.7967 181.781 86.9982 181.647 87.2306 181.531C86.6976 181.244 86.2774 180.862 85.9699 180.383C85.6692 179.905 85.5189 179.345 85.5189 178.702C85.5189 178.183 85.6214 177.715 85.8264 177.298C86.0382 176.875 86.3286 176.516 86.6976 176.222C87.0734 175.921 87.5141 175.693 88.0198 175.535C88.5322 175.378 89.0891 175.3 89.6904 175.3C90.1414 175.3 90.565 175.347 90.9613 175.443C91.3576 175.532 91.7198 175.665 92.0478 175.843H95.0713ZM96.6358 188.511C96.5128 188.409 96.4513 188.282 96.4513 188.132C96.4513 188.077 96.4684 188.016 96.5026 187.947C96.5436 187.879 96.5914 187.818 96.6461 187.763C96.7212 187.681 96.8135 187.578 96.9228 187.455C97.0321 187.339 97.1414 187.203 97.2508 187.045C97.3601 186.895 97.4592 186.728 97.548 186.543C97.6437 186.366 97.7154 186.174 97.7632 185.969C97.5446 185.969 97.3464 185.932 97.1688 185.857C96.9911 185.775 96.8374 185.665 96.7076 185.529C96.5846 185.392 96.4855 185.231 96.4103 185.047C96.342 184.862 96.3078 184.661 96.3078 184.442C96.3078 184.251 96.342 184.073 96.4103 183.909C96.4855 183.738 96.588 183.591 96.7178 183.468C96.8476 183.339 97.0048 183.239 97.1893 183.171C97.3738 183.096 97.5753 183.058 97.794 183.058C98.0536 183.058 98.2791 183.106 98.4705 183.202C98.6686 183.291 98.8292 183.417 98.9522 183.581C99.082 183.738 99.1777 183.923 99.2392 184.135C99.3075 184.34 99.3416 184.558 99.3416 184.791C99.3416 185.119 99.2904 185.464 99.1879 185.826C99.0922 186.188 98.9488 186.55 98.7574 186.912C98.5661 187.274 98.327 187.626 98.04 187.968C97.7598 188.31 97.4387 188.624 97.0765 188.911L96.6358 188.511ZM112.882 177.534C112.814 177.643 112.742 177.722 112.667 177.77C112.591 177.811 112.496 177.831 112.38 177.831C112.257 177.831 112.123 177.797 111.98 177.729C111.843 177.66 111.683 177.585 111.498 177.503C111.314 177.414 111.102 177.336 110.863 177.268C110.63 177.199 110.354 177.165 110.033 177.165C109.534 177.165 109.141 177.271 108.854 177.483C108.574 177.695 108.434 177.971 108.434 178.313C108.434 178.538 108.505 178.73 108.649 178.887C108.799 179.037 108.994 179.17 109.233 179.287C109.479 179.403 109.756 179.509 110.063 179.604C110.371 179.693 110.682 179.792 110.996 179.902C111.317 180.011 111.631 180.137 111.939 180.281C112.246 180.418 112.52 180.595 112.759 180.814C113.005 181.026 113.2 181.282 113.343 181.583C113.493 181.883 113.569 182.245 113.569 182.669C113.569 183.175 113.476 183.643 113.292 184.073C113.114 184.497 112.848 184.866 112.492 185.18C112.137 185.488 111.696 185.73 111.17 185.908C110.651 186.079 110.05 186.164 109.366 186.164C109.004 186.164 108.649 186.13 108.3 186.061C107.959 186 107.627 185.911 107.306 185.795C106.992 185.679 106.698 185.542 106.425 185.385C106.158 185.228 105.923 185.057 105.718 184.873L106.302 183.909C106.377 183.793 106.466 183.704 106.568 183.643C106.671 183.581 106.801 183.55 106.958 183.55C107.115 183.55 107.262 183.595 107.398 183.684C107.542 183.772 107.706 183.868 107.89 183.971C108.075 184.073 108.29 184.169 108.536 184.258C108.789 184.346 109.107 184.391 109.489 184.391C109.79 184.391 110.046 184.357 110.258 184.288C110.477 184.213 110.654 184.118 110.791 184.001C110.935 183.885 111.037 183.752 111.098 183.602C111.167 183.444 111.201 183.284 111.201 183.12C111.201 182.874 111.126 182.672 110.976 182.515C110.832 182.358 110.637 182.221 110.391 182.105C110.152 181.989 109.875 181.887 109.561 181.798C109.254 181.702 108.936 181.6 108.608 181.49C108.287 181.381 107.969 181.255 107.655 181.111C107.347 180.961 107.07 180.773 106.825 180.547C106.585 180.322 106.391 180.045 106.24 179.717C106.097 179.389 106.025 178.993 106.025 178.528C106.025 178.098 106.11 177.688 106.281 177.298C106.452 176.909 106.702 176.571 107.029 176.284C107.364 175.99 107.778 175.757 108.27 175.587C108.768 175.409 109.342 175.32 109.992 175.32C110.716 175.32 111.375 175.44 111.97 175.679C112.564 175.918 113.06 176.232 113.456 176.622L112.882 177.534ZM120.127 175.32C120.906 175.32 121.613 175.447 122.249 175.699C122.891 175.952 123.438 176.311 123.889 176.776C124.347 177.24 124.698 177.807 124.944 178.477C125.19 179.147 125.313 179.895 125.313 180.722C125.313 181.555 125.19 182.307 124.944 182.976C124.698 183.646 124.347 184.217 123.889 184.688C123.438 185.16 122.891 185.522 122.249 185.775C121.613 186.027 120.906 186.154 120.127 186.154C119.341 186.154 118.627 186.027 117.985 185.775C117.343 185.522 116.793 185.16 116.335 184.688C115.884 184.217 115.532 183.646 115.279 182.976C115.033 182.307 114.91 181.555 114.91 180.722C114.91 179.895 115.033 179.147 115.279 178.477C115.532 177.807 115.884 177.24 116.335 176.776C116.793 176.311 117.343 175.952 117.985 175.699C118.627 175.447 119.341 175.32 120.127 175.32ZM120.127 184.206C121.002 184.206 121.648 183.913 122.064 183.325C122.488 182.737 122.7 181.876 122.7 180.742C122.7 179.608 122.488 178.743 122.064 178.149C121.648 177.555 121.002 177.257 120.127 177.257C119.239 177.257 118.58 177.558 118.149 178.159C117.725 178.754 117.514 179.615 117.514 180.742C117.514 181.869 117.725 182.73 118.149 183.325C118.58 183.913 119.239 184.206 120.127 184.206ZM134.778 177.708C134.703 177.804 134.628 177.879 134.553 177.934C134.484 177.988 134.382 178.016 134.245 178.016C134.115 178.016 133.989 177.978 133.866 177.903C133.743 177.821 133.596 177.732 133.425 177.637C133.254 177.534 133.049 177.445 132.81 177.37C132.578 177.288 132.287 177.247 131.939 177.247C131.495 177.247 131.105 177.329 130.771 177.493C130.436 177.65 130.156 177.879 129.93 178.18C129.711 178.48 129.547 178.846 129.438 179.276C129.329 179.7 129.274 180.182 129.274 180.722C129.274 181.282 129.332 181.781 129.448 182.218C129.571 182.655 129.746 183.024 129.971 183.325C130.197 183.619 130.47 183.844 130.791 184.001C131.112 184.152 131.474 184.227 131.878 184.227C132.281 184.227 132.605 184.179 132.851 184.083C133.104 183.981 133.316 183.872 133.487 183.755C133.657 183.632 133.804 183.523 133.927 183.427C134.057 183.325 134.201 183.274 134.358 183.274C134.563 183.274 134.717 183.352 134.819 183.509L135.547 184.432C135.267 184.76 134.963 185.037 134.635 185.262C134.307 185.481 133.965 185.658 133.61 185.795C133.261 185.925 132.899 186.017 132.523 186.072C132.154 186.126 131.785 186.154 131.416 186.154C130.767 186.154 130.156 186.034 129.582 185.795C129.008 185.549 128.505 185.194 128.075 184.729C127.645 184.264 127.303 183.697 127.05 183.028C126.804 182.351 126.681 181.583 126.681 180.722C126.681 179.949 126.79 179.235 127.009 178.579C127.235 177.917 127.563 177.346 127.993 176.868C128.423 176.383 128.956 176.003 129.592 175.73C130.227 175.457 130.958 175.32 131.785 175.32C132.571 175.32 133.258 175.447 133.845 175.699C134.44 175.952 134.973 176.314 135.444 176.786L134.778 177.708ZM139.758 175.484V186H137.216V175.484H139.758ZM140.106 172.42C140.106 172.638 140.062 172.843 139.973 173.035C139.884 173.226 139.765 173.393 139.614 173.537C139.471 173.68 139.3 173.796 139.102 173.885C138.904 173.967 138.692 174.008 138.466 174.008C138.248 174.008 138.039 173.967 137.841 173.885C137.65 173.796 137.482 173.68 137.339 173.537C137.195 173.393 137.079 173.226 136.99 173.035C136.908 172.843 136.867 172.638 136.867 172.42C136.867 172.194 136.908 171.982 136.99 171.784C137.079 171.586 137.195 171.415 137.339 171.272C137.482 171.128 137.65 171.015 137.841 170.933C138.039 170.845 138.248 170.8 138.466 170.8C138.692 170.8 138.904 170.845 139.102 170.933C139.3 171.015 139.471 171.128 139.614 171.272C139.765 171.415 139.884 171.586 139.973 171.784C140.062 171.982 140.106 172.194 140.106 172.42ZM147.894 181.511C147.163 181.545 146.548 181.61 146.049 181.706C145.55 181.794 145.15 181.91 144.85 182.054C144.549 182.197 144.334 182.365 144.204 182.556C144.074 182.748 144.009 182.956 144.009 183.181C144.009 183.626 144.139 183.943 144.399 184.135C144.665 184.326 145.01 184.422 145.434 184.422C145.953 184.422 146.401 184.329 146.777 184.145C147.159 183.954 147.532 183.667 147.894 183.284V181.511ZM142.093 176.95C143.302 175.843 144.757 175.289 146.459 175.289C147.074 175.289 147.624 175.392 148.109 175.597C148.594 175.795 149.004 176.075 149.339 176.437C149.674 176.793 149.927 177.22 150.097 177.718C150.275 178.217 150.364 178.764 150.364 179.358V186H149.216C148.977 186 148.792 185.966 148.662 185.898C148.533 185.822 148.43 185.675 148.355 185.457L148.13 184.698C147.863 184.937 147.603 185.149 147.351 185.334C147.098 185.511 146.835 185.662 146.561 185.785C146.288 185.908 145.994 186 145.68 186.061C145.372 186.13 145.031 186.164 144.655 186.164C144.211 186.164 143.801 186.106 143.425 185.99C143.049 185.867 142.725 185.686 142.451 185.447C142.178 185.207 141.966 184.91 141.816 184.555C141.666 184.2 141.59 183.786 141.59 183.315C141.59 183.048 141.635 182.785 141.724 182.525C141.812 182.259 141.956 182.006 142.154 181.767C142.359 181.528 142.622 181.302 142.943 181.091C143.264 180.879 143.657 180.694 144.122 180.537C144.593 180.38 145.14 180.254 145.762 180.158C146.384 180.055 147.094 179.994 147.894 179.973V179.358C147.894 178.655 147.743 178.135 147.443 177.8C147.142 177.459 146.708 177.288 146.141 177.288C145.731 177.288 145.39 177.336 145.116 177.432C144.85 177.527 144.614 177.637 144.409 177.759C144.204 177.876 144.016 177.982 143.845 178.077C143.681 178.173 143.497 178.221 143.292 178.221C143.114 178.221 142.964 178.176 142.841 178.087C142.718 177.992 142.619 177.882 142.544 177.759L142.093 176.95ZM155.31 170.769V186H152.779V170.769H155.31ZM170.351 177.708C170.275 177.804 170.2 177.879 170.125 177.934C170.057 177.988 169.954 178.016 169.818 178.016C169.688 178.016 169.561 177.978 169.438 177.903C169.315 177.821 169.169 177.732 168.998 177.637C168.827 177.534 168.622 177.445 168.383 177.37C168.15 177.288 167.86 177.247 167.512 177.247C167.067 177.247 166.678 177.329 166.343 177.493C166.008 177.65 165.728 177.879 165.503 178.18C165.284 178.48 165.12 178.846 165.011 179.276C164.901 179.7 164.847 180.182 164.847 180.722C164.847 181.282 164.905 181.781 165.021 182.218C165.144 182.655 165.318 183.024 165.544 183.325C165.769 183.619 166.043 183.844 166.364 184.001C166.685 184.152 167.047 184.227 167.45 184.227C167.853 184.227 168.178 184.179 168.424 184.083C168.677 183.981 168.888 183.872 169.059 183.755C169.23 183.632 169.377 183.523 169.5 183.427C169.63 183.325 169.773 183.274 169.93 183.274C170.135 183.274 170.289 183.352 170.392 183.509L171.119 184.432C170.839 184.76 170.535 185.037 170.207 185.262C169.879 185.481 169.538 185.658 169.182 185.795C168.834 185.925 168.472 186.017 168.096 186.072C167.727 186.126 167.358 186.154 166.989 186.154C166.34 186.154 165.728 186.034 165.154 185.795C164.58 185.549 164.078 185.194 163.648 184.729C163.217 184.264 162.875 183.697 162.623 183.028C162.377 182.351 162.254 181.583 162.254 180.722C162.254 179.949 162.363 179.235 162.582 178.579C162.807 177.917 163.135 177.346 163.566 176.868C163.996 176.383 164.529 176.003 165.164 175.73C165.8 175.457 166.531 175.32 167.358 175.32C168.144 175.32 168.83 175.447 169.418 175.699C170.012 175.952 170.545 176.314 171.017 176.786L170.351 177.708ZM177.179 175.32C177.958 175.32 178.666 175.447 179.301 175.699C179.943 175.952 180.49 176.311 180.941 176.776C181.399 177.24 181.751 177.807 181.997 178.477C182.243 179.147 182.366 179.895 182.366 180.722C182.366 181.555 182.243 182.307 181.997 182.976C181.751 183.646 181.399 184.217 180.941 184.688C180.49 185.16 179.943 185.522 179.301 185.775C178.666 186.027 177.958 186.154 177.179 186.154C176.394 186.154 175.68 186.027 175.037 185.775C174.395 185.522 173.845 185.16 173.387 184.688C172.936 184.217 172.584 183.646 172.332 182.976C172.086 182.307 171.963 181.555 171.963 180.722C171.963 179.895 172.086 179.147 172.332 178.477C172.584 177.807 172.936 177.24 173.387 176.776C173.845 176.311 174.395 175.952 175.037 175.699C175.68 175.447 176.394 175.32 177.179 175.32ZM177.179 184.206C178.054 184.206 178.7 183.913 179.117 183.325C179.54 182.737 179.752 181.876 179.752 180.742C179.752 179.608 179.54 178.743 179.117 178.149C178.7 177.555 178.054 177.257 177.179 177.257C176.291 177.257 175.632 177.558 175.201 178.159C174.778 178.754 174.566 179.615 174.566 180.742C174.566 181.869 174.778 182.73 175.201 183.325C175.632 183.913 176.291 184.206 177.179 184.206ZM186.665 176.776C186.876 176.564 187.099 176.369 187.331 176.191C187.57 176.007 187.819 175.853 188.079 175.73C188.346 175.6 188.629 175.501 188.93 175.433C189.23 175.358 189.558 175.32 189.914 175.32C190.488 175.32 190.997 175.419 191.441 175.617C191.885 175.809 192.254 176.082 192.548 176.437C192.848 176.786 193.074 177.206 193.224 177.698C193.381 178.183 193.46 178.72 193.46 179.307V186H190.928V179.307C190.928 178.665 190.781 178.169 190.488 177.821C190.194 177.466 189.746 177.288 189.145 177.288C188.708 177.288 188.298 177.387 187.915 177.585C187.532 177.783 187.17 178.053 186.829 178.395V186H184.297V175.484H185.845C186.173 175.484 186.388 175.638 186.49 175.945L186.665 176.776ZM196.436 186V177.391L195.523 177.247C195.325 177.206 195.165 177.138 195.042 177.042C194.926 176.94 194.868 176.796 194.868 176.612V175.576H196.436V175.238C196.436 174.596 196.542 174.001 196.753 173.455C196.965 172.901 197.286 172.423 197.717 172.02C198.147 171.617 198.691 171.302 199.346 171.077C200.009 170.845 200.788 170.728 201.683 170.728C201.97 170.728 202.261 170.746 202.555 170.78C202.855 170.807 203.115 170.855 203.333 170.923L203.251 172.235C203.238 172.392 203.152 172.488 202.995 172.522C202.838 172.549 202.643 172.563 202.411 172.563C201.748 172.563 201.191 172.621 200.74 172.737C200.296 172.853 199.934 173.028 199.654 173.26C199.381 173.486 199.182 173.772 199.059 174.121C198.943 174.463 198.885 174.862 198.885 175.32V175.576H205.404V186H202.872V177.38H198.967V186H196.436ZM214.599 178.169C214.312 177.821 213.998 177.575 213.656 177.432C213.322 177.288 212.959 177.216 212.57 177.216C212.187 177.216 211.842 177.288 211.535 177.432C211.227 177.575 210.964 177.794 210.746 178.087C210.527 178.374 210.359 178.743 210.243 179.194C210.127 179.639 210.069 180.165 210.069 180.773C210.069 181.388 210.117 181.91 210.213 182.341C210.315 182.765 210.459 183.113 210.643 183.386C210.828 183.653 211.053 183.848 211.32 183.971C211.586 184.087 211.883 184.145 212.211 184.145C212.737 184.145 213.185 184.036 213.554 183.817C213.923 183.598 214.271 183.287 214.599 182.884V178.169ZM217.131 170.769V186H215.583C215.248 186 215.037 185.846 214.948 185.539L214.733 184.524C214.309 185.009 213.82 185.402 213.267 185.703C212.72 186.003 212.081 186.154 211.35 186.154C210.776 186.154 210.25 186.034 209.772 185.795C209.294 185.556 208.88 185.211 208.532 184.76C208.19 184.302 207.924 183.738 207.732 183.069C207.548 182.399 207.455 181.634 207.455 180.773C207.455 179.994 207.561 179.27 207.773 178.6C207.985 177.93 208.289 177.35 208.685 176.858C209.082 176.366 209.557 175.983 210.11 175.71C210.664 175.429 211.285 175.289 211.975 175.289C212.563 175.289 213.065 175.382 213.482 175.566C213.899 175.751 214.271 176 214.599 176.314V170.769H217.131ZM226.404 179.533C226.404 179.205 226.356 178.897 226.261 178.61C226.172 178.316 226.035 178.06 225.851 177.841C225.666 177.623 225.431 177.452 225.144 177.329C224.863 177.199 224.535 177.134 224.16 177.134C223.428 177.134 222.851 177.343 222.427 177.759C222.011 178.176 221.744 178.767 221.628 179.533H226.404ZM221.577 181.06C221.618 181.6 221.713 182.068 221.864 182.464C222.014 182.853 222.212 183.178 222.458 183.438C222.704 183.69 222.995 183.882 223.329 184.012C223.671 184.135 224.047 184.196 224.457 184.196C224.867 184.196 225.219 184.148 225.513 184.053C225.813 183.957 226.073 183.851 226.291 183.735C226.517 183.619 226.712 183.513 226.876 183.417C227.046 183.321 227.21 183.274 227.368 183.274C227.579 183.274 227.737 183.352 227.839 183.509L228.567 184.432C228.287 184.76 227.972 185.037 227.624 185.262C227.275 185.481 226.91 185.658 226.527 185.795C226.151 185.925 225.765 186.017 225.369 186.072C224.98 186.126 224.6 186.154 224.231 186.154C223.5 186.154 222.82 186.034 222.192 185.795C221.563 185.549 221.016 185.19 220.552 184.719C220.087 184.241 219.722 183.653 219.455 182.956C219.189 182.252 219.055 181.439 219.055 180.517C219.055 179.799 219.172 179.126 219.404 178.497C219.636 177.862 219.968 177.312 220.398 176.847C220.835 176.376 221.365 176.003 221.987 175.73C222.615 175.457 223.323 175.32 224.108 175.32C224.771 175.32 225.383 175.426 225.943 175.638C226.503 175.85 226.985 176.161 227.388 176.571C227.791 176.974 228.106 177.473 228.331 178.067C228.563 178.655 228.68 179.328 228.68 180.086C228.68 180.469 228.639 180.728 228.557 180.865C228.475 180.995 228.317 181.06 228.085 181.06H221.577ZM232.947 176.776C233.159 176.564 233.381 176.369 233.613 176.191C233.852 176.007 234.102 175.853 234.361 175.73C234.628 175.6 234.911 175.501 235.212 175.433C235.513 175.358 235.841 175.32 236.196 175.32C236.77 175.32 237.279 175.419 237.723 175.617C238.167 175.809 238.536 176.082 238.83 176.437C239.131 176.786 239.356 177.206 239.507 177.698C239.664 178.183 239.742 178.72 239.742 179.307V186H237.211V179.307C237.211 178.665 237.064 178.169 236.77 177.821C236.476 177.466 236.029 177.288 235.427 177.288C234.99 177.288 234.58 177.387 234.197 177.585C233.815 177.783 233.453 178.053 233.111 178.395V186H230.579V175.484H232.127C232.455 175.484 232.67 175.638 232.773 175.945L232.947 176.776ZM249.683 177.708C249.608 177.804 249.533 177.879 249.458 177.934C249.389 177.988 249.287 178.016 249.15 178.016C249.02 178.016 248.894 177.978 248.771 177.903C248.648 177.821 248.501 177.732 248.33 177.637C248.16 177.534 247.955 177.445 247.715 177.37C247.483 177.288 247.193 177.247 246.844 177.247C246.4 177.247 246.011 177.329 245.676 177.493C245.341 177.65 245.061 177.879 244.835 178.18C244.617 178.48 244.453 178.846 244.343 179.276C244.234 179.7 244.179 180.182 244.179 180.722C244.179 181.282 244.237 181.781 244.354 182.218C244.477 182.655 244.651 183.024 244.876 183.325C245.102 183.619 245.375 183.844 245.696 184.001C246.017 184.152 246.38 184.227 246.783 184.227C247.186 184.227 247.51 184.179 247.756 184.083C248.009 183.981 248.221 183.872 248.392 183.755C248.563 183.632 248.71 183.523 248.833 183.427C248.962 183.325 249.106 183.274 249.263 183.274C249.468 183.274 249.622 183.352 249.724 183.509L250.452 184.432C250.172 184.76 249.868 185.037 249.54 185.262C249.212 185.481 248.87 185.658 248.515 185.795C248.166 185.925 247.804 186.017 247.428 186.072C247.059 186.126 246.69 186.154 246.321 186.154C245.672 186.154 245.061 186.034 244.487 185.795C243.913 185.549 243.411 185.194 242.98 184.729C242.55 184.264 242.208 183.697 241.955 183.028C241.709 182.351 241.586 181.583 241.586 180.722C241.586 179.949 241.696 179.235 241.914 178.579C242.14 177.917 242.468 177.346 242.898 176.868C243.329 176.383 243.862 176.003 244.497 175.73C245.133 175.457 245.864 175.32 246.69 175.32C247.476 175.32 248.163 175.447 248.751 175.699C249.345 175.952 249.878 176.314 250.349 176.786L249.683 177.708ZM258.634 179.533C258.634 179.205 258.586 178.897 258.49 178.61C258.401 178.316 258.265 178.06 258.08 177.841C257.896 177.623 257.66 177.452 257.373 177.329C257.093 177.199 256.765 177.134 256.389 177.134C255.658 177.134 255.081 177.343 254.657 177.759C254.24 178.176 253.974 178.767 253.857 179.533H258.634ZM253.806 181.06C253.847 181.6 253.943 182.068 254.093 182.464C254.244 182.853 254.442 183.178 254.688 183.438C254.934 183.69 255.224 183.882 255.559 184.012C255.901 184.135 256.276 184.196 256.686 184.196C257.096 184.196 257.448 184.148 257.742 184.053C258.043 183.957 258.302 183.851 258.521 183.735C258.746 183.619 258.941 183.513 259.105 183.417C259.276 183.321 259.44 183.274 259.597 183.274C259.809 183.274 259.966 183.352 260.069 183.509L260.796 184.432C260.516 184.76 260.202 185.037 259.853 185.262C259.505 185.481 259.139 185.658 258.757 185.795C258.381 185.925 257.995 186.017 257.599 186.072C257.209 186.126 256.83 186.154 256.461 186.154C255.73 186.154 255.05 186.034 254.421 185.795C253.793 185.549 253.246 185.19 252.781 184.719C252.317 184.241 251.951 183.653 251.685 182.956C251.418 182.252 251.285 181.439 251.285 180.517C251.285 179.799 251.401 179.126 251.633 178.497C251.866 177.862 252.197 177.312 252.628 176.847C253.065 176.376 253.594 176.003 254.216 175.73C254.845 175.457 255.552 175.32 256.338 175.32C257.001 175.32 257.612 175.426 258.172 175.638C258.733 175.85 259.215 176.161 259.618 176.571C260.021 176.974 260.335 177.473 260.561 178.067C260.793 178.655 260.909 179.328 260.909 180.086C260.909 180.469 260.868 180.728 260.786 180.865C260.704 180.995 260.547 181.06 260.315 181.06H253.806ZM273.349 181.511C272.617 181.545 272.003 181.61 271.504 181.706C271.005 181.794 270.605 181.91 270.305 182.054C270.004 182.197 269.789 182.365 269.659 182.556C269.529 182.748 269.464 182.956 269.464 183.181C269.464 183.626 269.594 183.943 269.854 184.135C270.12 184.326 270.465 184.422 270.889 184.422C271.408 184.422 271.856 184.329 272.231 184.145C272.614 183.954 272.986 183.667 273.349 183.284V181.511ZM267.547 176.95C268.757 175.843 270.212 175.289 271.914 175.289C272.529 175.289 273.079 175.392 273.564 175.597C274.049 175.795 274.459 176.075 274.794 176.437C275.129 176.793 275.381 177.22 275.552 177.718C275.73 178.217 275.819 178.764 275.819 179.358V186H274.671C274.432 186 274.247 185.966 274.117 185.898C273.987 185.822 273.885 185.675 273.81 185.457L273.584 184.698C273.318 184.937 273.058 185.149 272.805 185.334C272.553 185.511 272.29 185.662 272.016 185.785C271.743 185.908 271.449 186 271.135 186.061C270.827 186.13 270.486 186.164 270.11 186.164C269.666 186.164 269.256 186.106 268.88 185.99C268.504 185.867 268.18 185.686 267.906 185.447C267.633 185.207 267.421 184.91 267.271 184.555C267.12 184.2 267.045 183.786 267.045 183.315C267.045 183.048 267.09 182.785 267.178 182.525C267.267 182.259 267.411 182.006 267.609 181.767C267.814 181.528 268.077 181.302 268.398 181.091C268.719 180.879 269.112 180.694 269.577 180.537C270.048 180.38 270.595 180.254 271.217 180.158C271.839 180.055 272.549 179.994 273.349 179.973V179.358C273.349 178.655 273.198 178.135 272.898 177.8C272.597 177.459 272.163 177.288 271.596 177.288C271.186 177.288 270.844 177.336 270.571 177.432C270.305 177.527 270.069 177.637 269.864 177.759C269.659 177.876 269.471 177.982 269.3 178.077C269.136 178.173 268.952 178.221 268.747 178.221C268.569 178.221 268.419 178.176 268.296 178.087C268.173 177.992 268.074 177.882 267.998 177.759L267.547 176.95ZM280.571 176.776C280.782 176.564 281.004 176.369 281.237 176.191C281.476 176.007 281.725 175.853 281.985 175.73C282.252 175.6 282.535 175.501 282.836 175.433C283.136 175.358 283.464 175.32 283.82 175.32C284.394 175.32 284.903 175.419 285.347 175.617C285.791 175.809 286.16 176.082 286.454 176.437C286.754 176.786 286.98 177.206 287.13 177.698C287.287 178.183 287.366 178.72 287.366 179.307V186H284.834V179.307C284.834 178.665 284.687 178.169 284.394 177.821C284.1 177.466 283.652 177.288 283.051 177.288C282.614 177.288 282.204 177.387 281.821 177.585C281.438 177.783 281.076 178.053 280.735 178.395V186H278.203V175.484H279.751C280.079 175.484 280.294 175.638 280.396 175.945L280.571 176.776ZM296.374 178.169C296.087 177.821 295.773 177.575 295.431 177.432C295.096 177.288 294.734 177.216 294.345 177.216C293.962 177.216 293.617 177.288 293.31 177.432C293.002 177.575 292.739 177.794 292.52 178.087C292.302 178.374 292.134 178.743 292.018 179.194C291.902 179.639 291.844 180.165 291.844 180.773C291.844 181.388 291.892 181.91 291.987 182.341C292.09 182.765 292.233 183.113 292.418 183.386C292.602 183.653 292.828 183.848 293.094 183.971C293.361 184.087 293.658 184.145 293.986 184.145C294.512 184.145 294.96 184.036 295.329 183.817C295.698 183.598 296.046 183.287 296.374 182.884V178.169ZM298.906 170.769V186H297.358C297.023 186 296.811 185.846 296.723 185.539L296.507 184.524C296.084 185.009 295.595 185.402 295.042 185.703C294.495 186.003 293.856 186.154 293.125 186.154C292.551 186.154 292.025 186.034 291.547 185.795C291.068 185.556 290.655 185.211 290.307 184.76C289.965 184.302 289.698 183.738 289.507 183.069C289.323 182.399 289.23 181.634 289.23 180.773C289.23 179.994 289.336 179.27 289.548 178.6C289.76 177.93 290.064 177.35 290.46 176.858C290.857 176.366 291.331 175.983 291.885 175.71C292.438 175.429 293.06 175.289 293.75 175.289C294.338 175.289 294.84 175.382 295.257 175.566C295.674 175.751 296.046 176 296.374 176.314V170.769H298.906ZM90.381 211V200.484H91.9287C92.2567 200.484 92.4719 200.638 92.5744 200.945L92.7384 201.724C92.9229 201.519 93.1142 201.331 93.3124 201.161C93.5174 200.99 93.7326 200.843 93.9581 200.72C94.1904 200.597 94.4364 200.501 94.696 200.433C94.9625 200.358 95.2529 200.32 95.5672 200.32C96.23 200.32 96.7732 200.501 97.1969 200.863C97.6274 201.219 97.9485 201.694 98.1603 202.288C98.3243 201.94 98.5293 201.642 98.7753 201.396C99.0213 201.144 99.2912 200.939 99.585 200.781C99.8788 200.624 100.19 200.508 100.518 200.433C100.852 200.358 101.187 200.32 101.522 200.32C102.103 200.32 102.619 200.409 103.07 200.587C103.521 200.764 103.9 201.024 104.207 201.366C104.515 201.707 104.747 202.124 104.904 202.616C105.068 203.108 105.15 203.672 105.15 204.307V211H102.619V204.307C102.619 203.638 102.472 203.135 102.178 202.8C101.884 202.459 101.454 202.288 100.887 202.288C100.627 202.288 100.384 202.332 100.159 202.421C99.9403 202.51 99.7456 202.64 99.5747 202.811C99.4107 202.975 99.2809 203.183 99.1853 203.436C99.0896 203.689 99.0418 203.979 99.0418 204.307V211H96.4999V204.307C96.4999 203.603 96.3564 203.091 96.0694 202.77C95.7893 202.449 95.3759 202.288 94.8293 202.288C94.4603 202.288 94.1152 202.38 93.7941 202.565C93.4798 202.742 93.186 202.988 92.9126 203.303V211H90.381ZM114.332 204.533C114.332 204.205 114.284 203.897 114.188 203.61C114.099 203.316 113.963 203.06 113.778 202.841C113.594 202.623 113.358 202.452 113.071 202.329C112.791 202.199 112.463 202.134 112.087 202.134C111.356 202.134 110.778 202.343 110.355 202.759C109.938 203.176 109.672 203.767 109.555 204.533H114.332ZM109.504 206.06C109.545 206.6 109.641 207.068 109.791 207.464C109.941 207.853 110.14 208.178 110.386 208.438C110.632 208.69 110.922 208.882 111.257 209.012C111.598 209.135 111.974 209.196 112.384 209.196C112.794 209.196 113.146 209.148 113.44 209.053C113.741 208.957 114 208.851 114.219 208.735C114.444 208.619 114.639 208.513 114.803 208.417C114.974 208.321 115.138 208.274 115.295 208.274C115.507 208.274 115.664 208.352 115.767 208.509L116.494 209.432C116.214 209.76 115.9 210.037 115.551 210.262C115.203 210.481 114.837 210.658 114.455 210.795C114.079 210.925 113.693 211.017 113.296 211.072C112.907 211.126 112.528 211.154 112.159 211.154C111.428 211.154 110.748 211.034 110.119 210.795C109.49 210.549 108.944 210.19 108.479 209.719C108.015 209.241 107.649 208.653 107.383 207.956C107.116 207.252 106.983 206.439 106.983 205.517C106.983 204.799 107.099 204.126 107.331 203.497C107.564 202.862 107.895 202.312 108.325 201.847C108.763 201.376 109.292 201.003 109.914 200.73C110.543 200.457 111.25 200.32 112.036 200.32C112.699 200.32 113.31 200.426 113.87 200.638C114.431 200.85 114.912 201.161 115.316 201.571C115.719 201.974 116.033 202.473 116.258 203.067C116.491 203.655 116.607 204.328 116.607 205.086C116.607 205.469 116.566 205.728 116.484 205.865C116.402 205.995 116.245 206.06 116.013 206.06H109.504ZM120.874 201.776C121.086 201.564 121.308 201.369 121.541 201.191C121.78 201.007 122.029 200.853 122.289 200.73C122.555 200.6 122.839 200.501 123.14 200.433C123.44 200.358 123.768 200.32 124.123 200.32C124.697 200.32 125.206 200.419 125.651 200.617C126.095 200.809 126.464 201.082 126.758 201.437C127.058 201.786 127.284 202.206 127.434 202.698C127.591 203.183 127.67 203.72 127.67 204.307V211H125.138V204.307C125.138 203.665 124.991 203.169 124.697 202.821C124.404 202.466 123.956 202.288 123.355 202.288C122.917 202.288 122.507 202.387 122.125 202.585C121.742 202.783 121.38 203.053 121.038 203.395V211H118.507V200.484H120.054C120.382 200.484 120.598 200.638 120.7 200.945L120.874 201.776ZM133.443 211.164C132.527 211.164 131.823 210.908 131.331 210.395C130.846 209.876 130.603 209.162 130.603 208.253V202.38H129.527C129.391 202.38 129.274 202.336 129.179 202.247C129.083 202.158 129.035 202.025 129.035 201.847V200.843L130.726 200.566L131.259 197.696C131.294 197.56 131.359 197.454 131.454 197.379C131.55 197.303 131.673 197.266 131.823 197.266H133.135V200.576H135.943V202.38H133.135V208.079C133.135 208.407 133.214 208.663 133.371 208.848C133.535 209.032 133.757 209.124 134.037 209.124C134.194 209.124 134.324 209.107 134.426 209.073C134.536 209.032 134.628 208.991 134.703 208.95C134.785 208.909 134.857 208.872 134.918 208.837C134.98 208.796 135.041 208.776 135.103 208.776C135.178 208.776 135.24 208.796 135.287 208.837C135.335 208.872 135.387 208.926 135.441 209.001L136.2 210.231C135.831 210.539 135.407 210.771 134.929 210.928C134.45 211.085 133.955 211.164 133.443 211.164ZM143.119 206.511C142.388 206.545 141.773 206.61 141.275 206.706C140.776 206.794 140.376 206.91 140.075 207.054C139.775 207.197 139.559 207.365 139.43 207.556C139.3 207.748 139.235 207.956 139.235 208.181C139.235 208.626 139.365 208.943 139.624 209.135C139.891 209.326 140.236 209.422 140.66 209.422C141.179 209.422 141.626 209.329 142.002 209.145C142.385 208.954 142.757 208.667 143.119 208.284V206.511ZM137.318 201.95C138.528 200.843 139.983 200.289 141.684 200.289C142.299 200.289 142.85 200.392 143.335 200.597C143.82 200.795 144.23 201.075 144.565 201.437C144.899 201.793 145.152 202.22 145.323 202.718C145.501 203.217 145.59 203.764 145.59 204.358V211H144.442C144.202 211 144.018 210.966 143.888 210.898C143.758 210.822 143.656 210.675 143.581 210.457L143.355 209.698C143.089 209.937 142.829 210.149 142.576 210.334C142.323 210.511 142.06 210.662 141.787 210.785C141.514 210.908 141.22 211 140.906 211.061C140.598 211.13 140.256 211.164 139.881 211.164C139.436 211.164 139.026 211.106 138.651 210.99C138.275 210.867 137.95 210.686 137.677 210.447C137.404 210.207 137.192 209.91 137.042 209.555C136.891 209.2 136.816 208.786 136.816 208.315C136.816 208.048 136.86 207.785 136.949 207.525C137.038 207.259 137.182 207.006 137.38 206.767C137.585 206.528 137.848 206.302 138.169 206.091C138.49 205.879 138.883 205.694 139.348 205.537C139.819 205.38 140.366 205.254 140.988 205.158C141.609 205.055 142.32 204.994 143.119 204.973V204.358C143.119 203.655 142.969 203.135 142.668 202.8C142.368 202.459 141.934 202.288 141.367 202.288C140.957 202.288 140.615 202.336 140.342 202.432C140.075 202.527 139.84 202.637 139.635 202.759C139.43 202.876 139.242 202.982 139.071 203.077C138.907 203.173 138.722 203.221 138.517 203.221C138.34 203.221 138.189 203.176 138.066 203.087C137.943 202.992 137.844 202.882 137.769 202.759L137.318 201.95ZM150.536 195.769V211H148.005V195.769H150.536ZM160.575 201.612C160.985 201.229 161.436 200.918 161.927 200.679C162.419 200.44 162.997 200.32 163.66 200.32C164.234 200.32 164.743 200.419 165.187 200.617C165.631 200.809 166 201.082 166.294 201.437C166.594 201.786 166.82 202.206 166.97 202.698C167.127 203.183 167.206 203.72 167.206 204.307V211H164.674V204.307C164.674 203.665 164.527 203.169 164.234 202.821C163.94 202.466 163.492 202.288 162.891 202.288C162.454 202.288 162.044 202.387 161.661 202.585C161.278 202.783 160.916 203.053 160.575 203.395V211H158.043V195.769H160.575V201.612ZM176.388 204.533C176.388 204.205 176.341 203.897 176.245 203.61C176.156 203.316 176.019 203.06 175.835 202.841C175.65 202.623 175.415 202.452 175.128 202.329C174.848 202.199 174.52 202.134 174.144 202.134C173.413 202.134 172.835 202.343 172.412 202.759C171.995 203.176 171.728 203.767 171.612 204.533H176.388ZM171.561 206.06C171.602 206.6 171.698 207.068 171.848 207.464C171.998 207.853 172.196 208.178 172.442 208.438C172.688 208.69 172.979 208.882 173.314 209.012C173.655 209.135 174.031 209.196 174.441 209.196C174.851 209.196 175.203 209.148 175.497 209.053C175.797 208.957 176.057 208.851 176.276 208.735C176.501 208.619 176.696 208.513 176.86 208.417C177.031 208.321 177.195 208.274 177.352 208.274C177.564 208.274 177.721 208.352 177.823 208.509L178.551 209.432C178.271 209.76 177.957 210.037 177.608 210.262C177.26 210.481 176.894 210.658 176.511 210.795C176.136 210.925 175.75 211.017 175.353 211.072C174.964 211.126 174.585 211.154 174.216 211.154C173.484 211.154 172.805 211.034 172.176 210.795C171.547 210.549 171.001 210.19 170.536 209.719C170.071 209.241 169.706 208.653 169.439 207.956C169.173 207.252 169.04 206.439 169.04 205.517C169.04 204.799 169.156 204.126 169.388 203.497C169.62 202.862 169.952 202.312 170.382 201.847C170.82 201.376 171.349 201.003 171.971 200.73C172.6 200.457 173.307 200.32 174.093 200.32C174.755 200.32 175.367 200.426 175.927 200.638C176.488 200.85 176.969 201.161 177.372 201.571C177.776 201.974 178.09 202.473 178.315 203.067C178.548 203.655 178.664 204.328 178.664 205.086C178.664 205.469 178.623 205.728 178.541 205.865C178.459 205.995 178.302 206.06 178.069 206.06H171.561ZM186.119 206.511C185.388 206.545 184.773 206.61 184.274 206.706C183.775 206.794 183.375 206.91 183.075 207.054C182.774 207.197 182.559 207.365 182.429 207.556C182.299 207.748 182.234 207.956 182.234 208.181C182.234 208.626 182.364 208.943 182.624 209.135C182.89 209.326 183.235 209.422 183.659 209.422C184.178 209.422 184.626 209.329 185.002 209.145C185.384 208.954 185.757 208.667 186.119 208.284V206.511ZM180.318 201.95C181.527 200.843 182.982 200.289 184.684 200.289C185.299 200.289 185.849 200.392 186.334 200.597C186.819 200.795 187.229 201.075 187.564 201.437C187.899 201.793 188.152 202.22 188.322 202.718C188.5 203.217 188.589 203.764 188.589 204.358V211H187.441C187.202 211 187.017 210.966 186.887 210.898C186.758 210.822 186.655 210.675 186.58 210.457L186.354 209.698C186.088 209.937 185.828 210.149 185.576 210.334C185.323 210.511 185.06 210.662 184.786 210.785C184.513 210.908 184.219 211 183.905 211.061C183.597 211.13 183.256 211.164 182.88 211.164C182.436 211.164 182.026 211.106 181.65 210.99C181.274 210.867 180.95 210.686 180.676 210.447C180.403 210.207 180.191 209.91 180.041 209.555C179.891 209.2 179.815 208.786 179.815 208.315C179.815 208.048 179.86 207.785 179.949 207.525C180.037 207.259 180.181 207.006 180.379 206.767C180.584 206.528 180.847 206.302 181.168 206.091C181.489 205.879 181.882 205.694 182.347 205.537C182.818 205.38 183.365 205.254 183.987 205.158C184.609 205.055 185.319 204.994 186.119 204.973V204.358C186.119 203.655 185.968 203.135 185.668 202.8C185.367 202.459 184.933 202.288 184.366 202.288C183.956 202.288 183.614 202.336 183.341 202.432C183.075 202.527 182.839 202.637 182.634 202.759C182.429 202.876 182.241 202.982 182.07 203.077C181.906 203.173 181.722 203.221 181.517 203.221C181.339 203.221 181.189 203.176 181.066 203.087C180.943 202.992 180.844 202.882 180.769 202.759L180.318 201.95ZM193.535 195.769V211H191.004V195.769H193.535ZM199.563 211.164C198.647 211.164 197.944 210.908 197.452 210.395C196.967 209.876 196.724 209.162 196.724 208.253V202.38H195.648C195.511 202.38 195.395 202.336 195.299 202.247C195.204 202.158 195.156 202.025 195.156 201.847V200.843L196.847 200.566L197.38 197.696C197.414 197.56 197.479 197.454 197.575 197.379C197.67 197.303 197.793 197.266 197.944 197.266H199.256V200.576H202.064V202.38H199.256V208.079C199.256 208.407 199.334 208.663 199.491 208.848C199.655 209.032 199.877 209.124 200.158 209.124C200.315 209.124 200.445 209.107 200.547 209.073C200.656 209.032 200.749 208.991 200.824 208.95C200.906 208.909 200.977 208.872 201.039 208.837C201.1 208.796 201.162 208.776 201.223 208.776C201.299 208.776 201.36 208.796 201.408 208.837C201.456 208.872 201.507 208.926 201.562 209.001L202.32 210.231C201.951 210.539 201.528 210.771 201.049 210.928C200.571 211.085 200.076 211.164 199.563 211.164ZM206.216 201.612C206.626 201.229 207.077 200.918 207.569 200.679C208.061 200.44 208.639 200.32 209.301 200.32C209.875 200.32 210.384 200.419 210.829 200.617C211.273 200.809 211.642 201.082 211.936 201.437C212.236 201.786 212.462 202.206 212.612 202.698C212.769 203.183 212.848 203.72 212.848 204.307V211H210.316V204.307C210.316 203.665 210.169 203.169 209.875 202.821C209.582 202.466 209.134 202.288 208.533 202.288C208.095 202.288 207.685 202.387 207.303 202.585C206.92 202.783 206.558 203.053 206.216 203.395V211H203.685V195.769H206.216V201.612ZM214.886 209.606C214.886 209.394 214.924 209.193 214.999 209.001C215.081 208.81 215.19 208.646 215.327 208.509C215.464 208.373 215.628 208.263 215.819 208.181C216.01 208.099 216.215 208.058 216.434 208.058C216.653 208.058 216.854 208.099 217.039 208.181C217.23 208.263 217.394 208.373 217.531 208.509C217.674 208.646 217.787 208.81 217.869 209.001C217.951 209.193 217.992 209.394 217.992 209.606C217.992 209.825 217.951 210.03 217.869 210.221C217.787 210.406 217.674 210.566 217.531 210.703C217.394 210.839 217.23 210.945 217.039 211.02C216.854 211.102 216.653 211.143 216.434 211.143C216.215 211.143 216.01 211.102 215.819 211.02C215.628 210.945 215.464 210.839 215.327 210.703C215.19 210.566 215.081 210.406 214.999 210.221C214.924 210.03 214.886 209.825 214.886 209.606Z" fill="#5A62B6"/>
<g clip-path="url(#clip0_1034_736)">
<path d="M170.343 1.85101C170.343 1.85101 168.478 5.29067 166.613 7.40403C164.411 9.89633 160.754 10.5813 160.754 10.5813C160.754 10.5813 161.283 8.20565 161.018 5.69877C160.681 2.52145 159.697 0 159.697 0C159.697 0 155.938 5.3344 146.642 6.07772C136.789 6.86476 127.464 14.0064 127.2 28.0129C126.935 42.0193 138.375 50.3999 149.623 50.6331C181.386 51.3181 175.835 19.9238 175.13 14.1376C174.337 7.5352 170.343 1.85101 170.343 1.85101ZM149.418 45.9837C142.266 46.5958 140.254 39.6728 140.254 39.6728C140.254 39.6728 145.467 40.11 149.432 39.7748C153.397 39.4396 157.847 38.5942 157.847 38.5942C157.847 38.5942 156.554 45.3715 149.418 45.9837Z" fill="#414AA3"/>
<path d="M154.058 56.5792C139.549 57.3371 136.245 62.6424 133.705 68.4577C131.165 74.2731 135.232 90.6844 135.232 90.6844C135.232 90.6844 135.276 90.7281 135.306 90.7718C146.113 92.6666 159.374 92.8415 175.541 91.2237C174.881 80.4528 170.74 55.7047 154.058 56.5792Z" fill="#414AA3"/>
<path d="M110.855 55.6029C101.149 56.1131 98.9316 59.6693 97.2282 63.5462C95.5248 67.4377 98.4323 76.2701 98.4617 76.2847C105.804 78.9081 114.027 80.3656 125.481 81.2401C125.041 74.0547 122.016 55.0199 110.855 55.6029Z" fill="#414AA3"/>
<path d="M206.453 32.6195C202.606 24.9822 199.155 19.4584 192.238 19.2689C184.749 19.0649 176.673 28.4219 178.214 37.5749C179.756 46.7279 187.627 49.4534 193.589 49.5846C201.857 49.7741 208.391 48.0688 213.384 43.2883C217.525 39.3385 217.804 33.9312 217.804 33.9312C217.804 33.9312 210.227 40.1109 206.453 32.6195ZM193.428 46.4219C188.552 46.8445 187.172 42.1223 187.172 42.1223C187.172 42.1223 190.726 42.4284 193.442 42.1806C196.159 41.9474 199.184 41.3644 199.184 41.3644C199.184 41.3644 198.303 45.9992 193.428 46.4219Z" fill="#414AA3"/>
<path d="M196.599 53.6643C186.702 54.1744 184.44 57.8036 182.707 61.7679C180.975 65.7323 183.75 76.9404 183.75 76.9404C183.75 76.9404 184.176 80.278 184.499 82.6391C195.366 80.9193 204.015 78.3979 210.917 75.3809C210.873 74.9728 210.799 74.5501 210.696 74.0837C210.447 67.4667 208.582 53.0376 196.599 53.6643Z" fill="#414AA3"/>
<path d="M106.392 51.7991C124.307 50.0502 119.021 37.2243 117.552 33.7263C116.084 30.2283 116.377 27.6049 119.608 28.4794C122.839 29.3539 123.72 29.3538 123.72 29.3538C123.72 29.3538 122.839 23.2324 116.377 18.277C109.916 13.3215 94.3504 14.196 90.2387 30.5198C86.1271 46.8437 99.0348 52.5133 106.392 51.7991ZM102.207 44.57C102.207 44.57 105.702 44.8761 108.36 44.6429C111.017 44.4097 113.984 43.8413 113.984 43.8413C113.984 43.8413 113.117 48.3886 108.345 48.7967C103.543 49.2194 102.207 44.57 102.207 44.57Z" fill="#414AA3"/>
</g>
<defs>
<clipPath id="clip0_1034_736">
<rect width="128.343" height="92.3172" fill="white" transform="translate(89.4458)"/>
</clipPath>
</defs>
</svg>
