<svg width="82" height="43" viewBox="0 0 82 43" fill="none" xmlns="http://www.w3.org/2000/svg">
<path d="M24.9245 5.27759C24.7852 5.52144 24.6342 5.70142 24.4716 5.81754C24.3207 5.92205 24.1291 5.9743 23.8969 5.9743C23.653 5.9743 23.3859 5.88721 23.0956 5.71303C22.817 5.52724 22.4802 5.32404 22.0854 5.10341C21.6906 4.88279 21.2261 4.68538 20.692 4.51121C20.1694 4.32542 19.5482 4.23252 18.8283 4.23252C18.178 4.23252 17.609 4.3138 17.1213 4.47637C16.6336 4.62732 16.2214 4.84214 15.8847 5.12083C15.5595 5.39951 15.3157 5.73626 15.1531 6.13106C14.9906 6.51425 14.9093 6.93808 14.9093 7.40256C14.9093 7.99476 15.0718 8.48827 15.397 8.88307C15.7337 9.27787 16.175 9.61462 16.7207 9.8933C17.2665 10.172 17.8877 10.4216 18.5844 10.6423C19.2811 10.8629 19.9953 11.1009 20.7268 11.3564C21.4584 11.6002 22.1725 11.8905 22.8692 12.2273C23.5659 12.5524 24.1872 12.9704 24.7329 13.4814C25.2787 13.9807 25.7141 14.5961 26.0392 15.3277C26.376 16.0592 26.5444 16.9475 26.5444 17.9926C26.5444 19.1305 26.347 20.1988 25.9522 21.1974C25.569 22.1844 25 23.0495 24.2452 23.7927C23.5021 24.5242 22.5905 25.1048 21.5106 25.5345C20.4307 25.9525 19.1941 26.1615 17.8006 26.1615C16.9994 26.1615 16.2098 26.0802 15.4318 25.9177C14.6538 25.7667 13.9049 25.5461 13.1849 25.2558C12.4766 24.9655 11.8089 24.6171 11.1819 24.2107C10.5548 23.8043 9.99746 23.3514 9.50977 22.8521L10.8858 20.6052C11.0019 20.4427 11.1528 20.3091 11.3386 20.2046C11.5244 20.0885 11.7218 20.0305 11.9308 20.0305C12.2211 20.0305 12.5347 20.1524 12.8714 20.3962C13.2081 20.6285 13.6088 20.8897 14.0732 21.18C14.5377 21.4703 15.0777 21.7374 15.6931 21.9812C16.3201 22.2135 17.0691 22.3296 17.94 22.3296C19.2753 22.3296 20.3088 22.0161 21.0403 21.389C21.7719 20.7504 22.1377 19.8389 22.1377 18.6544C22.1377 17.9926 21.9693 17.4526 21.6325 17.0346C21.3074 16.6166 20.872 16.2682 20.3262 15.9895C19.7805 15.6992 19.1592 15.4554 18.4625 15.258C17.7658 15.0606 17.0575 14.8458 16.3375 14.6135C15.6176 14.3813 14.9093 14.1026 14.2126 13.7775C13.5159 13.4523 12.8946 13.0285 12.3489 12.506C11.8031 11.9834 11.3619 11.3332 11.0251 10.5552C10.7 9.76557 10.5374 8.79598 10.5374 7.64641C10.5374 6.72907 10.7174 5.83496 11.0774 4.96407C11.4489 4.09318 11.9831 3.32099 12.6798 2.6475C13.3765 1.97401 14.2358 1.43406 15.2576 1.02765C16.2795 0.621235 17.4523 0.418028 18.776 0.418028C20.2623 0.418028 21.6325 0.650265 22.8866 1.11474C24.1407 1.57921 25.209 2.22948 26.0915 3.06553L24.9245 5.27759Z" fill="#1A3E2F"/>
<path d="M29.6121 25.8828V8.01218H32.2421C32.7995 8.01218 33.1653 8.27345 33.3395 8.79598L33.6182 10.1197C33.9317 9.77137 34.2568 9.45205 34.5935 9.16175C34.9419 8.87146 35.3077 8.6218 35.6909 8.41279C36.0857 8.20378 36.5037 8.04121 36.945 7.92509C37.3978 7.79736 37.8913 7.7335 38.4255 7.7335C39.5518 7.7335 40.475 8.04121 41.1949 8.65664C41.9264 9.26045 42.4722 10.0675 42.8322 11.0777C43.1108 10.4855 43.4592 9.98039 43.8772 9.56236C44.2953 9.13272 44.7539 8.78437 45.2532 8.51729C45.7525 8.25022 46.2809 8.05282 46.8382 7.92509C47.4072 7.79736 47.9762 7.7335 48.5452 7.7335C49.5322 7.7335 50.4089 7.88445 51.1753 8.18636C51.9417 8.48827 52.5861 8.92952 53.1087 9.51011C53.6312 10.0907 54.026 10.799 54.2931 11.6351C54.5717 12.4711 54.7111 13.4291 54.7111 14.509V25.8828H50.4089V14.509C50.4089 13.3711 50.1592 12.5176 49.6599 11.9486C49.1606 11.368 48.4291 11.0777 47.4653 11.0777C47.024 11.0777 46.6118 11.1532 46.2286 11.3041C45.857 11.4551 45.5261 11.6757 45.2358 11.966C44.9571 12.2447 44.7365 12.5989 44.5739 13.0285C44.4114 13.4581 44.3301 13.9516 44.3301 14.509V25.8828H40.0105V14.509C40.0105 13.313 39.7666 12.4421 39.2789 11.8963C38.8028 11.3506 38.1003 11.0777 37.1714 11.0777C36.5443 11.0777 35.9579 11.2345 35.4122 11.548C34.878 11.8499 34.3787 12.2679 33.9143 12.8021V25.8828H29.6121Z" fill="#1A3E2F"/>
<path d="M63.2594 8.01218V25.8828H58.9398V8.01218H63.2594Z" fill="#1A3E2F"/>
<path d="M71.9999 0V12.9414V25.8828H67.6977V0H71.9999Z" fill="#1A3E2F"/>
<circle cx="78.3795" cy="22.7311" r="2.90296" fill="#1A3E2F"/>
<circle cx="2.90296" cy="22.7311" r="2.90296" fill="#1A3E2F"/>
<path d="M74.3892 31.4414C60.963 44.8676 19.9586 44.1419 5.80664 31.4414" stroke="#1A3E2F" stroke-width="3" stroke-linecap="round"/>
</svg>
