<svg width="41" height="37" viewBox="0 0 41 37" fill="none" xmlns="http://www.w3.org/2000/svg">
<path d="M21.0794 36.308C19.4239 36.0969 18.0388 36.1299 16.4492 35.8331C15.084 35.5759 13.8572 34.8635 12.5248 34.481C10.6781 33.9401 9.26002 32.7397 7.90133 31.5064C7.16262 30.8402 6.61518 29.8904 6.18646 28.9802C5.69179 27.9447 4.88713 27.6084 3.8846 27.2984C2.71058 26.9356 1.58933 26.3684 0.751686 25.3724C0.263611 24.792 0.250419 24.1786 0.586796 23.5718C1.36508 22.1736 2.3874 21.0853 4.17481 21.1578C4.36608 21.1644 4.57055 21.0655 4.76182 21.0853C5.28287 21.1381 5.54669 20.9666 5.5269 20.4059C5.51371 20.1289 5.71159 19.964 5.93584 19.8189C7.499 18.823 9.18747 18.1173 10.9617 17.6226C11.4102 17.4973 11.8389 17.306 12.2808 17.1543C12.67 17.0224 12.5249 16.752 12.4193 16.5409C12.0764 15.8484 11.6608 15.1954 11.2057 14.5622C10.4934 13.5663 10.0581 12.5308 10.6385 11.2974C10.8496 10.8489 10.7045 10.3674 10.5066 9.93871C10.3153 9.52318 9.91959 9.43744 9.50407 9.6485C9.42492 9.68807 9.35236 9.74743 9.27322 9.78701C8.96982 9.9453 8.65982 10.0508 8.396 9.72765C8.15856 9.43085 8.23111 8.91638 8.52791 8.65256C9.33917 7.92704 11.0013 8.30299 11.4498 9.31872C11.7268 9.9519 11.8653 10.5851 11.7664 11.304C11.6344 12.2406 11.6278 13.164 12.3402 14.0016C12.7887 14.5293 12.9799 15.2812 13.2702 15.9407C13.534 16.5409 13.6989 16.6333 14.3123 16.3892C15.4995 15.9209 16.7065 15.5252 17.9267 15.1558C18.3883 15.0173 18.4609 14.7733 18.3026 14.3446C17.9596 13.3816 17.6233 12.4121 17.3331 11.4359C17.0824 10.5851 17.333 9.76063 17.6167 8.95596C17.7684 8.52725 17.8739 8.13151 17.4913 7.76215C17.0692 7.34663 16.6471 6.95089 15.981 7.21472C15.7699 7.30046 15.5522 7.36642 15.4005 7.12898C15.2554 6.90472 15.1829 6.6343 15.3478 6.41665C15.6116 6.06048 15.9744 5.79666 16.4492 5.85602C18.1179 6.06708 19.2788 7.65003 18.7775 9.26595C18.4609 10.2751 18.5796 11.1655 18.8566 12.1087C19.0611 12.8144 19.292 13.5135 19.4568 14.2325C19.5624 14.6678 19.8064 14.7403 20.1692 14.6348C21.4355 14.272 22.7217 14.0214 24.021 13.8103C25.8084 13.5201 27.5826 13.1178 29.3964 12.9463C30.2011 12.8738 31.0058 12.9859 31.8038 12.8012C32.0874 12.7352 32.2853 12.6429 32.4898 12.445C33.677 11.2842 35.0225 10.3806 36.7637 10.4993C38.4654 10.6115 39.8769 11.2446 40.609 12.9727C41.5324 15.1558 40.8068 16.9696 38.5709 17.8402C38.162 17.9985 37.9641 18.2426 37.9839 18.6911C38.0037 19.067 37.9839 19.443 38.0631 19.8189C38.2477 20.7225 37.7597 21.547 37.7267 22.4242C37.7003 23.1563 37.4563 23.8291 37.2254 24.5084C36.922 25.4186 36.9286 26.3816 36.6978 27.3115C36.2229 29.1979 35.471 30.9128 34.0002 32.2451C33.8287 32.4034 33.301 32.7397 33.123 32.8782C32.4964 33.3531 32.0742 33.6104 31.296 34.0523C30.5704 34.4612 29.9636 34.5865 29.1986 34.9163C28.539 35.2065 27.919 35.3714 27.3584 35.5429C26.092 35.9188 25.538 35.965 24.3046 36.1035C23.8034 36.1629 23.2559 36.2288 22.5898 36.2882C22.2402 36.3212 21.4157 36.3212 21.0662 36.3278L21.0794 36.308ZM21.5476 34.9031C21.7389 34.8833 21.9566 34.8635 22.1676 34.8371C23.2031 34.7184 24.2387 34.5403 25.2808 34.4876C26.6526 34.415 27.9322 33.9863 29.1986 33.551C30.4913 33.1091 31.7313 32.4891 32.8327 31.6712C33.7759 30.9721 34.5146 30.0685 34.9565 28.9407C35.5699 27.3643 35.7546 25.6956 36.1372 24.0665C36.4867 22.5957 36.8297 21.1249 36.5988 19.5881C36.5659 19.3836 36.645 19.133 36.368 19.0407C36.1371 18.9681 35.9591 19.0802 35.781 19.2187C34.4553 20.2345 32.991 21.0259 31.4608 21.6327C29.6075 22.3714 27.7343 23.0574 25.8018 23.585C23.6978 24.1523 21.6202 24.8118 19.4502 25.0756C18.3949 25.201 17.3462 25.3593 16.3041 25.5571C14.6618 25.8737 13.0393 26.2826 11.3442 26.1573C10.9749 26.1309 10.7243 26.1771 10.8825 26.7048C11.2585 27.9381 10.2758 29.033 9.0094 28.8747C8.74557 28.8417 8.46855 28.8417 8.19813 28.8483C7.88813 28.8615 7.8024 29.0132 8.00686 29.2639C8.27728 29.6002 8.5543 29.9366 8.83131 30.2664C9.88001 31.513 11.1332 32.4957 12.6568 33.0827C13.5867 33.4455 14.5629 33.6895 15.5127 34.0127C17.465 34.6854 19.5162 34.6591 21.5608 34.8899L21.5476 34.9031ZM18.8896 20.4917C19.9911 20.7291 20.8815 20.1685 21.5608 19.2451C22.2072 18.3679 22.9723 17.7149 23.988 17.2664C24.9642 16.8311 25.7886 16.8839 26.5999 17.5369C26.8703 17.7545 27.1671 17.8534 27.5035 17.8007C28.1762 17.7017 28.8622 17.649 29.4888 17.3258C29.9834 17.0752 30.5309 16.9762 31.0651 17.1543C32.0545 17.4841 33.0504 17.4115 34.0529 17.2928C34.3563 17.2598 34.7059 17.0884 34.9829 17.3522C35.2072 17.5698 35.3259 17.4247 35.4578 17.2598C36.058 16.4882 35.748 14.9646 34.8444 14.6018C33.7891 14.1863 32.681 13.9093 31.5268 14.028C30.4056 14.1401 29.2711 14.2127 28.1499 14.3182C26.2635 14.4897 24.3903 14.7205 22.537 15.0635C19.8987 15.5516 17.3462 16.376 14.8135 17.2466C14.4574 17.372 14.1012 17.5303 14.1474 18.0315C14.1672 18.2426 14.0418 18.4141 13.8374 18.4998C13.6329 18.5856 13.4746 18.4602 13.3691 18.3151C13.0855 17.9326 12.7557 17.959 12.3666 18.1239C11.9378 18.3085 11.5091 18.4998 11.0474 18.5856C10.843 18.6251 10.6583 18.7504 10.5791 18.9219C10.2164 19.7002 9.48427 19.9904 8.78514 20.3004C7.7826 20.7423 6.8856 21.2964 6.1403 22.1274C5.71159 22.6089 5.5335 23.0706 6.292 24.1259C6.50306 24.4161 7.18241 24.5084 7.63751 24.205C8.27728 23.7763 9.00939 23.4333 9.45789 22.787C10.0581 21.9295 10.9881 21.6525 11.8785 21.4085C12.8876 21.1315 13.9165 20.96 14.7608 20.2872C15.4731 19.72 16.225 19.7926 16.9967 20.1487C17.5573 20.4125 18.1443 20.584 18.8896 20.4917ZM11.9642 25.0624C12.3732 25.0361 12.947 25.0888 13.5274 25.0031C14.9322 24.7986 16.3173 24.4688 17.7354 24.304C19.5426 24.0929 21.3366 23.7763 23.0844 23.2816C24.7465 22.8133 26.4086 22.3451 28.0311 21.7383C29.7856 21.0853 31.54 20.4389 33.1493 19.4562C33.2681 19.3836 33.4659 19.3309 33.4329 19.166C33.3868 18.9615 33.1691 19.0341 33.0174 19.0209C32.5162 18.9615 32.0215 19.1989 31.5202 19.0275C30.4715 18.6779 29.436 18.7834 28.3939 19.0802C27.3056 19.3902 26.2371 19.5683 25.3203 18.6185C25.0499 18.3415 24.6806 18.4405 24.3574 18.5856C23.8033 18.8362 23.3548 19.2385 22.9921 19.7134C22.3985 20.4785 21.6466 21.0655 20.9079 21.6591C20.4264 22.0417 19.8856 22.2659 19.2524 22.0021C19.0809 21.9295 18.8962 21.9361 18.7247 22.0021C18.085 22.2461 17.5177 22.1472 16.9373 21.7778C15.8424 21.0919 15.6776 21.1381 14.7344 21.9889C14.3452 22.3385 13.9099 22.6353 13.3493 22.6287C12.0961 22.6221 10.9749 22.9387 10.1175 23.9148C9.93937 24.1193 9.7415 24.3237 9.8866 24.6337C10.0251 24.9239 10.2494 25.0624 10.5726 25.0493C10.9881 25.0361 11.4036 25.0493 11.9774 25.0493L11.9642 25.0624ZM1.98506 24.1588C1.98506 24.4425 2.10379 24.6733 2.30825 24.8712C2.88207 25.4384 3.60099 25.755 4.32651 26.0716C4.44523 26.1243 4.60352 26.2497 4.70245 26.0716C4.78819 25.9199 4.6431 25.8012 4.55736 25.6956C4.4914 25.6165 4.39246 25.5571 4.30012 25.511C3.52184 25.1482 3.12611 24.4952 2.87547 23.7169C2.80952 23.5191 2.87547 23.1959 2.65122 23.1629C2.39399 23.1299 2.26208 23.4333 2.11697 23.6378C2.01144 23.7895 1.98506 23.9676 1.99165 24.1523L1.98506 24.1588ZM39.0326 13.474C38.9601 13.1706 38.8809 12.9727 38.7358 12.821C37.7003 11.6997 35.2929 11.5744 34.1585 12.5704C34.0661 12.6495 33.9144 12.7352 34.0265 12.8672C34.1387 12.9991 34.264 12.8869 34.3431 12.788C35.0753 11.9174 36.025 12.1284 36.9352 12.3263C37.6937 12.4912 38.2214 13.131 39.0326 13.474ZM8.6928 27.3181C8.90386 27.3181 9.10173 27.3511 9.18747 27.1401C9.25343 26.9884 9.26002 26.8169 9.16768 26.6718C9.04896 26.4871 8.87748 26.6058 8.72578 26.6388C8.46855 26.6916 8.2311 26.5992 7.98047 26.5597C7.62431 26.5003 7.27475 26.4277 6.92518 26.375C6.79327 26.3552 6.60859 26.3354 6.62838 26.5662C6.64157 26.7443 7.30773 27.3181 7.4924 27.2852C7.90793 27.206 8.31026 27.2258 8.68621 27.3181H8.6928ZM38.6039 16.066C39.369 15.5977 39.613 15.0767 39.435 14.2588C39.3954 14.0873 39.4481 13.7905 39.1645 13.8235C38.9403 13.8499 38.9733 14.1005 38.9799 14.272C38.993 14.6612 38.8677 15.0107 38.7292 15.3603C38.6501 15.5714 38.4918 15.7692 38.6039 16.066Z" fill="#1A3E2F"/>
<path d="M23.1636 9.02289C23.157 8.06652 23.6583 7.46632 24.0672 6.84633C24.5487 6.11422 25.1094 5.42828 25.6238 4.71595C26.3889 3.66725 25.8744 2.20962 24.6477 1.91282C24.3706 1.84686 24.1134 1.80069 23.9419 2.11068C23.876 2.2294 23.7638 2.30195 23.6253 2.24919C23.467 2.18983 23.4407 2.05132 23.4341 1.89962C23.3945 0.910279 23.9024 0.514543 24.9642 0.771772C26.1515 1.06198 27.5827 2.9813 26.8968 4.46531C26.5604 5.19083 26.1383 5.85699 25.6238 6.45719C25.2215 6.92548 24.9247 7.46632 24.641 8.00056C24.054 9.11522 24.5883 10.0518 25.2347 10.9356C25.6238 11.4633 25.8415 12.0305 25.7821 12.69C25.7623 12.9011 25.67 13.0792 25.4391 13.1122C25.2215 13.1385 25.0896 13 25.0434 12.8154C24.806 11.8392 24.12 11.1203 23.6187 10.2958C23.3549 9.86053 23.1241 9.41203 23.1702 9.02289H23.1636Z" fill="#1A3E2F"/>
</svg>
